%TF.GenerationSoftware,KiCad,Pcbnew,7.0.10*%
%TF.CreationDate,2024-02-23T13:31:41+03:00*%
%TF.ProjectId,Artorg_Board,4172746f-7267-45f4-926f-6172642e6b69,rev?*%
%TF.SameCoordinates,Original*%
%TF.FileFunction,Copper,L4,Bot*%
%TF.FilePolarity,Positive*%
%FSLAX46Y46*%
G04 Gerber Fmt 4.6, Leading zero omitted, Abs format (unit mm)*
G04 Created by KiCad (PCBNEW 7.0.10) date 2024-02-23 13:31:41*
%MOMM*%
%LPD*%
G01*
G04 APERTURE LIST*
G04 Aperture macros list*
%AMRoundRect*
0 Rectangle with rounded corners*
0 $1 Rounding radius*
0 $2 $3 $4 $5 $6 $7 $8 $9 X,Y pos of 4 corners*
0 Add a 4 corners polygon primitive as box body*
4,1,4,$2,$3,$4,$5,$6,$7,$8,$9,$2,$3,0*
0 Add four circle primitives for the rounded corners*
1,1,$1+$1,$2,$3*
1,1,$1+$1,$4,$5*
1,1,$1+$1,$6,$7*
1,1,$1+$1,$8,$9*
0 Add four rect primitives between the rounded corners*
20,1,$1+$1,$2,$3,$4,$5,0*
20,1,$1+$1,$4,$5,$6,$7,0*
20,1,$1+$1,$6,$7,$8,$9,0*
20,1,$1+$1,$8,$9,$2,$3,0*%
G04 Aperture macros list end*
%TA.AperFunction,ComponentPad*%
%ADD10R,1.980000X3.960000*%
%TD*%
%TA.AperFunction,ComponentPad*%
%ADD11O,1.980000X3.960000*%
%TD*%
%TA.AperFunction,ComponentPad*%
%ADD12RoundRect,0.250000X-1.050000X0.750000X-1.050000X-0.750000X1.050000X-0.750000X1.050000X0.750000X0*%
%TD*%
%TA.AperFunction,ComponentPad*%
%ADD13O,2.600000X2.000000*%
%TD*%
%TA.AperFunction,ComponentPad*%
%ADD14RoundRect,0.250000X1.050000X-0.750000X1.050000X0.750000X-1.050000X0.750000X-1.050000X-0.750000X0*%
%TD*%
%TA.AperFunction,ComponentPad*%
%ADD15O,0.890000X1.550000*%
%TD*%
%TA.AperFunction,ComponentPad*%
%ADD16O,1.250000X0.950000*%
%TD*%
%TA.AperFunction,ViaPad*%
%ADD17C,0.800000*%
%TD*%
%TA.AperFunction,Conductor*%
%ADD18C,0.100000*%
%TD*%
%TA.AperFunction,Conductor*%
%ADD19C,0.090000*%
%TD*%
%TA.AperFunction,Conductor*%
%ADD20C,0.400000*%
%TD*%
G04 APERTURE END LIST*
D10*
%TO.P,J6,1,Pin_1*%
%TO.N,Net-(J6-Pin_1)*%
X156528400Y-129296000D03*
D11*
%TO.P,J6,2,Pin_2*%
%TO.N,TACH0*%
X161528400Y-129296000D03*
%TO.P,J6,3,Pin_3*%
%TO.N,GND*%
X166528400Y-129296000D03*
%TD*%
D12*
%TO.P,J5,1,Pin_1*%
%TO.N,Net-(J5-Pin_1)*%
X145745200Y-80803200D03*
D13*
%TO.P,J5,2,Pin_2*%
%TO.N,Net-(J5-Pin_2)*%
X145745200Y-84303200D03*
%TO.P,J5,3,Pin_3*%
%TO.N,Net-(J5-Pin_3)*%
X145745200Y-87803200D03*
%TO.P,J5,4,Pin_4*%
%TO.N,Net-(J5-Pin_4)*%
X145745200Y-91303200D03*
%TO.P,J5,5,Pin_5*%
%TO.N,Net-(J5-Pin_5)*%
X145745200Y-94803200D03*
%TO.P,J5,6,Pin_6*%
%TO.N,VCC*%
X145745200Y-98303200D03*
%TO.P,J5,7,Pin_7*%
%TO.N,SHD_CS1*%
X145745200Y-101803200D03*
%TD*%
D12*
%TO.P,J4,1,Pin_1*%
%TO.N,Net-(J4-Pin_1)*%
X145796000Y-51882400D03*
D13*
%TO.P,J4,2,Pin_2*%
%TO.N,Net-(J4-Pin_2)*%
X145796000Y-55382400D03*
%TO.P,J4,3,Pin_3*%
%TO.N,Net-(J4-Pin_3)*%
X145796000Y-58882400D03*
%TO.P,J4,4,Pin_4*%
%TO.N,Net-(J4-Pin_4)*%
X145796000Y-62382400D03*
%TO.P,J4,5,Pin_5*%
%TO.N,Net-(J4-Pin_5)*%
X145796000Y-65882400D03*
%TO.P,J4,6,Pin_6*%
%TO.N,VCC*%
X145796000Y-69382400D03*
%TO.P,J4,7,Pin_7*%
%TO.N,Net-(IC1-GPIO123{slash}SHD_CS0#[BSS_STRAP])*%
X145796000Y-72882400D03*
%TD*%
D14*
%TO.P,J3,1,Pin_1*%
%TO.N,RST*%
X145821400Y-131921800D03*
D13*
%TO.P,J3,2,Pin_2*%
%TO.N,Net-(IC1-GPIO123{slash}SHD_CS0#[BSS_STRAP])*%
X145821400Y-128421800D03*
%TO.P,J3,3,Pin_3*%
%TO.N,Net-(J3-Pin_3)*%
X145821400Y-124921800D03*
%TO.P,J3,4,Pin_4*%
%TO.N,Net-(J3-Pin_4)*%
X145821400Y-121421800D03*
%TO.P,J3,5,Pin_5*%
%TO.N,Net-(J3-Pin_5)*%
X145821400Y-117921800D03*
%TO.P,J3,6,Pin_6*%
%TO.N,Net-(J3-Pin_6)*%
X145821400Y-114421800D03*
%TO.P,J3,7,Pin_7*%
%TO.N,Net-(J3-Pin_7)*%
X145821400Y-110921800D03*
%TD*%
D12*
%TO.P,J2,1,Pin_1*%
%TO.N,ADC_V0*%
X206781400Y-64771200D03*
D13*
%TO.P,J2,2,Pin_2*%
%TO.N,ADC_V1*%
X206781400Y-68271200D03*
%TO.P,J2,3,Pin_3*%
%TO.N,ADC0_3*%
X206781400Y-71771200D03*
%TO.P,J2,4,Pin_4*%
%TO.N,ADC_V3*%
X206781400Y-75271200D03*
%TO.P,J2,5,Pin_5*%
%TO.N,ADC_V4*%
X206781400Y-78771200D03*
%TO.P,J2,6,Pin_6*%
%TO.N,GP1O007*%
X206781400Y-82271200D03*
%TO.P,J2,7,Pin_7*%
X206781400Y-85771200D03*
%TO.P,J2,8,Pin_8*%
X206781400Y-89271200D03*
%TO.P,J2,9,Pin_9*%
X206781400Y-92771200D03*
%TO.P,J2,10,Pin_10*%
X206781400Y-96271200D03*
%TO.P,J2,11,Pin_11*%
X206781400Y-99771200D03*
%TD*%
D15*
%TO.P,J1,6,Shield*%
%TO.N,GND*%
X203077200Y-43154600D03*
D16*
X202077200Y-45854600D03*
D15*
X196077200Y-43154600D03*
D16*
X197077200Y-45854600D03*
%TD*%
D17*
%TO.N,Net-(IC1-GPIO104{slash}LED2)*%
X187467400Y-108153200D03*
X191414400Y-106476800D03*
%TO.N,Net-(J6-Pin_1)*%
X182727600Y-120007209D03*
X176072800Y-120802400D03*
%TO.N,Net-(IC1-GPIO157{slash}LED0{slash}TST_CLK_OUT)*%
X169189400Y-96697800D03*
X169849800Y-95072200D03*
%TO.N,Net-(J6-Pin_1)*%
X174371000Y-119329200D03*
X166979600Y-122529600D03*
X185166000Y-119659400D03*
%TO.N,Net-(IC1-GPIO144{slash}KSI1{slash}DCD#)*%
X193114900Y-56134000D03*
%TO.N,Net-(IC1-GPIO143{slash}KSI0{slash}DTR#)*%
X191693800Y-59309000D03*
%TO.N,Net-(IC1-GPIO144{slash}KSI1{slash}DCD#)*%
X186664600Y-83489800D03*
X183046216Y-92901616D03*
%TO.N,GND*%
X179451000Y-54686200D03*
%TO.N,Net-(R17-Pad2)*%
X157327600Y-69570600D03*
X152323800Y-78003400D03*
%TO.N,Net-(R13-Pad2)*%
X161264600Y-88265000D03*
X156895800Y-104698800D03*
%TO.N,Net-(R14-Pad2)*%
X152908000Y-49250600D03*
X156006800Y-100228400D03*
%TO.N,Net-(R16-Pad2)*%
X155168600Y-63322200D03*
X163474400Y-114528600D03*
%TO.N,Net-(IC1-GPIO150{slash}KSI5{slash}RI#)*%
X189966600Y-56997600D03*
X192062800Y-49915800D03*
%TO.N,Net-(IC1-GPIO143{slash}KSI0{slash}DTR#)*%
X194767200Y-60121800D03*
X199085200Y-61722000D03*
X184188200Y-93853000D03*
%TO.N,Net-(IC1-GPIO123{slash}SHD_CS0#[BSS_STRAP])*%
X141147800Y-124587000D03*
X151358600Y-75361800D03*
%TO.N,RX*%
X179730400Y-104876600D03*
X187198000Y-53695600D03*
%TO.N,GP1O007*%
X172237400Y-99669600D03*
X177596800Y-103632000D03*
X181533800Y-100939600D03*
X183248400Y-99809200D03*
%TO.N,GND*%
X183667400Y-101498400D03*
%TO.N,Net-(IC1-GPIO144{slash}KSI1{slash}DCD#)*%
X195338390Y-49110590D03*
X202717400Y-40259000D03*
%TO.N,Net-(D5-K)*%
X196570600Y-48437800D03*
X207949800Y-54787800D03*
%TO.N,SHD_CS1*%
X154051000Y-100711000D03*
X163042600Y-97713800D03*
X167487600Y-98882200D03*
X172745400Y-108966000D03*
%TO.N,RST*%
X173964600Y-108026200D03*
X150520400Y-122529600D03*
%TO.N,5V_USB*%
X190093000Y-55801945D03*
X184342731Y-123048069D03*
%TO.N,GPIO003*%
X180187600Y-99339400D03*
X201218800Y-113080800D03*
%TO.N,GPIO004*%
X175895000Y-96951800D03*
X192684400Y-99771200D03*
%TO.N,GPIO036*%
X179501800Y-102539800D03*
X190677800Y-98780600D03*
%TO.N,GPIO131*%
X188758804Y-99869258D03*
X190703200Y-101904800D03*
%TO.N,GPIO165*%
X171768751Y-106364467D03*
X198272400Y-128905000D03*
%TO.N,Net-(IC1-GPIO123{slash}SHD_CS0#[BSS_STRAP])*%
X167721000Y-106883200D03*
X167187600Y-114096800D03*
%TO.N,VCC*%
X163982400Y-112242600D03*
%TO.N,Net-(IC1-GPIO126{slash}SHD_SCLK)*%
X160248600Y-102844600D03*
X168767600Y-109309200D03*
%TO.N,GPIO166*%
X182295800Y-105664000D03*
X190830200Y-124333000D03*
%TO.N,TACH0*%
X173916220Y-112392580D03*
X172289316Y-114555116D03*
%TO.N,Net-(IC1-VR_CAP)*%
X162427269Y-104859463D03*
X165709600Y-102336600D03*
%TO.N,GPIO20*%
X168603027Y-103828121D03*
X184505600Y-136712800D03*
%TO.N,GPIO21*%
X168134975Y-104711825D03*
X180086000Y-136067800D03*
%TO.N,GPIO105*%
X190306800Y-119557800D03*
X188010800Y-109905800D03*
%TO.N,GPIO106*%
X192278000Y-129108200D03*
X189091415Y-114692585D03*
%TO.N,GPIO110*%
X184554158Y-106868732D03*
X186131200Y-113614200D03*
%TO.N,GPIO111*%
X183749232Y-107462112D03*
X185572400Y-111480600D03*
%TO.N,GPIO112*%
X183083200Y-108356400D03*
X188391800Y-129159000D03*
%TO.N,GPIO113*%
X182459232Y-107512314D03*
X187416382Y-128843980D03*
%TO.N,GPIO114*%
X178587400Y-107264200D03*
X186705248Y-129555237D03*
%TO.N,GPIO167*%
X178694400Y-112496600D03*
X180898800Y-133604000D03*
%TO.N,GPIO026*%
X179527200Y-115570000D03*
X184370537Y-130051830D03*
%TO.N,GPIO061*%
X179984400Y-113106200D03*
X176474150Y-129372763D03*
%TO.N,SPI_2*%
X174976385Y-112745782D03*
X182448200Y-130276600D03*
%TO.N,PWM3*%
X177816800Y-113817400D03*
X173431601Y-129234798D03*
%TO.N,PWM2*%
X177520902Y-115290298D03*
X169849800Y-133604000D03*
%TO.N,PWM0*%
X175683494Y-113452890D03*
X170764200Y-131572000D03*
%TO.N,PWM1*%
X176390602Y-114159998D03*
X172212000Y-130454400D03*
%TO.N,TX*%
X181889400Y-102768400D03*
X191714900Y-56817568D03*
%TO.N,Net-(IC1-GPIO144{slash}KSI1{slash}DCD#)*%
X190402284Y-54095884D03*
%TO.N,Net-(IC1-GPIO151{slash}KSI6{slash}RTS#)*%
X191439800Y-54711600D03*
X180111400Y-97612200D03*
%TO.N,Net-(IC1-GPIO152{slash}KSI7{slash}CTS#)*%
X195598400Y-55045296D03*
X180221800Y-93075352D03*
%TO.N,ADC4*%
X188214000Y-80377800D03*
X179821800Y-92151200D03*
%TO.N,ADC3*%
X188417200Y-75539600D03*
X179959000Y-91008200D03*
%TO.N,ADC2*%
X186385200Y-75463400D03*
X180009800Y-88900000D03*
%TO.N,ADC1*%
X196138800Y-66421000D03*
X178358800Y-89077800D03*
%TO.N,ADC0*%
X182880000Y-66827400D03*
X178206400Y-70002400D03*
%TO.N,PVT_0*%
X162433000Y-82880200D03*
X167944800Y-101320600D03*
%TO.N,PVT_1*%
X163169600Y-85547200D03*
X165811200Y-96926400D03*
%TO.N,VCC*%
X171944930Y-104258018D03*
%TO.N,GND*%
X167716200Y-67868800D03*
%TO.N,VCC*%
X173380400Y-66827400D03*
X188950600Y-102666800D03*
X196062600Y-103327200D03*
X192125600Y-95656400D03*
X183972200Y-102895400D03*
X171881800Y-98450400D03*
%TO.N,GND*%
X172135800Y-103276400D03*
%TO.N,VCC*%
X181584600Y-89890600D03*
%TO.N,GND*%
X183642000Y-97129600D03*
%TO.N,VCC*%
X182270400Y-97155000D03*
%TO.N,GND*%
X183286400Y-89230200D03*
%TO.N,VCC*%
X174853600Y-89611200D03*
%TO.N,GND*%
X178714400Y-97028000D03*
X177469800Y-97104200D03*
X173456600Y-96875600D03*
%TO.N,VCC*%
X173685200Y-101955600D03*
X156870400Y-96875600D03*
X163728400Y-102336600D03*
X160909000Y-99745800D03*
X184404000Y-109118400D03*
X189915800Y-108305600D03*
X175971200Y-109143800D03*
X180390800Y-109372400D03*
X182759300Y-116611400D03*
X178689000Y-116662200D03*
X194843400Y-48183800D03*
%TO.N,GND*%
X193610469Y-48858610D03*
%TO.N,VCC*%
X188214000Y-46990000D03*
X177292000Y-59740800D03*
X172567600Y-62839600D03*
X165582600Y-54610000D03*
X164109400Y-57708800D03*
%TO.N,GND*%
X200456800Y-51866800D03*
X154446125Y-73749585D03*
X155778200Y-72288400D03*
X168173400Y-89585800D03*
X173329600Y-90043000D03*
X191795400Y-103886000D03*
X183286400Y-68376800D03*
X183743600Y-72847200D03*
X183997600Y-75539600D03*
X184200800Y-80645000D03*
X184188200Y-84988400D03*
X173913800Y-42672000D03*
X177546000Y-43434000D03*
X197129400Y-49707800D03*
X177520600Y-62890400D03*
X175945800Y-58039000D03*
X195529200Y-81788000D03*
X200126600Y-93243400D03*
X192024000Y-89509600D03*
X196773800Y-101066600D03*
X205333600Y-107137200D03*
X191617600Y-111633000D03*
X190779400Y-116382800D03*
X183946800Y-115062000D03*
X172745400Y-119862600D03*
X184556400Y-121437400D03*
X180187600Y-121310400D03*
X158394400Y-96697800D03*
X162483800Y-105968800D03*
X167386000Y-103759000D03*
X165912800Y-80721200D03*
X172008800Y-73558400D03*
%TD*%
D18*
%TO.N,Net-(IC1-GPIO104{slash}LED2)*%
X187502800Y-108153200D02*
X187467400Y-108153200D01*
X189179200Y-106476800D02*
X187502800Y-108153200D01*
X191414400Y-106476800D02*
X189179200Y-106476800D01*
D19*
%TO.N,GPIO166*%
X184261594Y-105664000D02*
X182295800Y-105664000D01*
X185199158Y-107170358D02*
X185199158Y-106601564D01*
X190845000Y-109234800D02*
X187263600Y-109234800D01*
X193213000Y-111602800D02*
X190845000Y-109234800D01*
X185199158Y-106601564D02*
X184261594Y-105664000D01*
X193213000Y-121950200D02*
X193213000Y-111602800D01*
X190830200Y-124333000D02*
X193213000Y-121950200D01*
X187263600Y-109234800D02*
X185199158Y-107170358D01*
D18*
%TO.N,Net-(J6-Pin_1)*%
X183057800Y-119938800D02*
X182727600Y-119938800D01*
X183413400Y-120294400D02*
X183057800Y-119938800D01*
X184531000Y-120294400D02*
X183413400Y-120294400D01*
X185166000Y-119659400D02*
X184531000Y-120294400D01*
X182727600Y-119938800D02*
X182727600Y-120007209D01*
D19*
%TO.N,GPIO165*%
X172139018Y-105994200D02*
X171768751Y-106364467D01*
X174194690Y-105994200D02*
X172139018Y-105994200D01*
X180919400Y-112718910D02*
X174194690Y-105994200D01*
X180919400Y-119629200D02*
X180919400Y-112718910D01*
X186060248Y-123853418D02*
X184609899Y-122403069D01*
X183693269Y-122403069D02*
X180919400Y-119629200D01*
X186060248Y-129822405D02*
X186060248Y-123853418D01*
X186438080Y-130200237D02*
X186060248Y-129822405D01*
X196977163Y-130200237D02*
X186438080Y-130200237D01*
X198272400Y-128905000D02*
X196977163Y-130200237D01*
X184609899Y-122403069D02*
X183693269Y-122403069D01*
D18*
%TO.N,Net-(J6-Pin_1)*%
X175844200Y-120802400D02*
X176072800Y-120802400D01*
X174371000Y-119329200D02*
X175844200Y-120802400D01*
D19*
%TO.N,PWM2*%
X177393600Y-126184968D02*
X177393600Y-115417600D01*
D18*
%TO.N,Net-(IC1-GPIO157{slash}LED0{slash}TST_CLK_OUT)*%
X169189400Y-95732600D02*
X169849800Y-95072200D01*
X169189400Y-96697800D02*
X169189400Y-95732600D01*
%TO.N,PVT_1*%
X165811200Y-96926400D02*
X165811200Y-94361000D01*
X163169600Y-91719400D02*
X163169600Y-85547200D01*
X165811200Y-94361000D02*
X163169600Y-91719400D01*
D19*
%TO.N,GPIO061*%
X177788070Y-115935298D02*
X179984400Y-113738968D01*
D18*
%TO.N,Net-(J6-Pin_1)*%
X163294800Y-122529600D02*
X166979600Y-122529600D01*
X156528400Y-129296000D02*
X163294800Y-122529600D01*
%TO.N,Net-(IC1-GPIO144{slash}KSI1{slash}DCD#)*%
X191922400Y-56134000D02*
X193114900Y-56134000D01*
X190402284Y-54613884D02*
X191922400Y-56134000D01*
X190402284Y-54586252D02*
X190402284Y-54613884D01*
D19*
%TO.N,Net-(IC1-GPIO143{slash}KSI0{slash}DTR#)*%
X192582800Y-60121800D02*
X191770000Y-59309000D01*
X191770000Y-59309000D02*
X191693800Y-59309000D01*
D18*
%TO.N,Net-(IC1-GPIO144{slash}KSI1{slash}DCD#)*%
X183046216Y-90544255D02*
X182636400Y-90134439D01*
X183046216Y-92901616D02*
X183046216Y-90544255D01*
X182636400Y-90134439D02*
X182636400Y-87518000D01*
X182636400Y-87518000D02*
X186664600Y-83489800D01*
%TO.N,ADC4*%
X188214000Y-80416400D02*
X188214000Y-80377800D01*
X187833000Y-80416400D02*
X188214000Y-80416400D01*
X182016400Y-86233000D02*
X187833000Y-80416400D01*
X182016400Y-89403161D02*
X182016400Y-86233000D01*
X180243239Y-92151200D02*
X182234600Y-90159839D01*
X182234600Y-90159839D02*
X182234600Y-89621361D01*
X182234600Y-89621361D02*
X182016400Y-89403161D01*
X179821800Y-92151200D02*
X180243239Y-92151200D01*
D19*
%TO.N,Net-(R17-Pad2)*%
X152323800Y-74830632D02*
X152323800Y-78003400D01*
X157327600Y-69570600D02*
X157327600Y-69826832D01*
X157327600Y-69826832D02*
X152323800Y-74830632D01*
%TO.N,Net-(R13-Pad2)*%
X159461200Y-88265000D02*
X161264600Y-88265000D01*
X153406000Y-94320200D02*
X159461200Y-88265000D01*
X153406000Y-100978168D02*
X153406000Y-94320200D01*
X153783832Y-101356000D02*
X153406000Y-100978168D01*
X154696000Y-100476122D02*
X154696000Y-100978168D01*
X154696000Y-100978168D02*
X154318168Y-101356000D01*
X154318168Y-101356000D02*
X153783832Y-101356000D01*
X157168322Y-98003800D02*
X154696000Y-100476122D01*
X159842200Y-98003800D02*
X157168322Y-98003800D01*
X156895800Y-104698800D02*
X159842200Y-101752400D01*
X159842200Y-101752400D02*
X159842200Y-98003800D01*
%TO.N,Net-(R14-Pad2)*%
X145920836Y-49250600D02*
X152908000Y-49250600D01*
X139902800Y-55268636D02*
X145920836Y-49250600D01*
X140966904Y-126166800D02*
X139902800Y-125102696D01*
X152748368Y-126166800D02*
X140966904Y-126166800D01*
X139902800Y-125102696D02*
X139902800Y-55268636D01*
X164119400Y-114795768D02*
X152748368Y-126166800D01*
X164119400Y-114261432D02*
X164119400Y-114795768D01*
X154879200Y-105021232D02*
X164119400Y-114261432D01*
X154879200Y-101356000D02*
X154879200Y-105021232D01*
X156006800Y-100228400D02*
X154879200Y-101356000D01*
D20*
%TO.N,Net-(R16-Pad2)*%
X154673400Y-123329600D02*
X163474400Y-114528600D01*
X143536571Y-123329600D02*
X154673400Y-123329600D01*
X141479171Y-125387000D02*
X143536571Y-123329600D01*
X140816429Y-125387000D02*
X141479171Y-125387000D01*
X140347800Y-124918371D02*
X140816429Y-125387000D01*
X153416000Y-67614800D02*
X140347800Y-80683000D01*
X153416000Y-65074800D02*
X153416000Y-67614800D01*
X155168600Y-63322200D02*
X153416000Y-65074800D01*
X140347800Y-80683000D02*
X140347800Y-124918371D01*
D19*
%TO.N,Net-(IC1-GPIO150{slash}KSI5{slash}RI#)*%
X189966600Y-56769000D02*
X189966600Y-56997600D01*
X189890400Y-56692800D02*
X189966600Y-56769000D01*
%TO.N,TX*%
X191638342Y-56817568D02*
X191714900Y-56817568D01*
X190602585Y-57853325D02*
X191638342Y-56817568D01*
X189321000Y-58528478D02*
X189996153Y-57853325D01*
X188768154Y-58528478D02*
X189321000Y-58528478D01*
X176813400Y-70483232D02*
X188768154Y-58528478D01*
X181889400Y-102590600D02*
X176813400Y-97514600D01*
X189996153Y-57853325D02*
X190602585Y-57853325D01*
X181889400Y-102768400D02*
X181889400Y-102590600D01*
X176813400Y-97514600D02*
X176813400Y-70483232D01*
%TO.N,Net-(IC1-GPIO152{slash}KSI7{slash}CTS#)*%
X195598400Y-55048800D02*
X195598400Y-55045296D01*
X193051585Y-57595615D02*
X195598400Y-55048800D01*
X191270417Y-57595615D02*
X193051585Y-57595615D01*
X190892585Y-57973447D02*
X191270417Y-57595615D01*
X190892585Y-58357615D02*
X190892585Y-57973447D01*
X190550800Y-58699400D02*
X190892585Y-58357615D01*
X189560200Y-58699400D02*
X190550800Y-58699400D01*
X183525000Y-64734600D02*
X189560200Y-58699400D01*
X183525000Y-67094568D02*
X183525000Y-64734600D01*
X177103400Y-90344968D02*
X177103400Y-71156200D01*
X179554632Y-92796200D02*
X177103400Y-90344968D01*
X181267568Y-92796200D02*
X179554632Y-92796200D01*
X179463368Y-71156200D02*
X183525000Y-67094568D01*
X180988416Y-93075352D02*
X181267568Y-92796200D01*
X180221800Y-93075352D02*
X180988416Y-93075352D01*
X177103400Y-71156200D02*
X179463368Y-71156200D01*
%TO.N,5V_USB*%
X185770248Y-124475586D02*
X184342731Y-123048069D01*
X185770248Y-129942527D02*
X185770248Y-124475586D01*
X186317958Y-130490237D02*
X185770248Y-129942527D01*
X197599331Y-130490237D02*
X186317958Y-130490237D01*
X201863800Y-126225768D02*
X197599331Y-130490237D01*
X201863800Y-59988406D02*
X201863800Y-126225768D01*
X195179394Y-53304000D02*
X201863800Y-59988406D01*
X190093000Y-55801945D02*
X189738000Y-55446945D01*
X189738000Y-53848000D02*
X190282000Y-53304000D01*
X189738000Y-55446945D02*
X189738000Y-53848000D01*
X190282000Y-53304000D02*
X195179394Y-53304000D01*
%TO.N,Net-(IC1-GPIO150{slash}KSI5{slash}RI#)*%
X189448000Y-56250400D02*
X189890400Y-56692800D01*
X189448000Y-52530600D02*
X189448000Y-56250400D01*
X192062800Y-49915800D02*
X189448000Y-52530600D01*
%TO.N,Net-(IC1-GPIO143{slash}KSI0{slash}DTR#)*%
X194767200Y-60121800D02*
X192582800Y-60121800D01*
X199085200Y-73007722D02*
X199085200Y-61722000D01*
X184221400Y-93819800D02*
X184221400Y-87871522D01*
X184221400Y-87871522D02*
X199085200Y-73007722D01*
X184188200Y-93853000D02*
X184221400Y-93819800D01*
%TO.N,Net-(IC1-GPIO151{slash}KSI6{slash}RTS#)*%
X192557400Y-53594000D02*
X191439800Y-54711600D01*
X195059272Y-53594000D02*
X192557400Y-53594000D01*
X197231000Y-55765728D02*
X195059272Y-53594000D01*
X183931400Y-87751400D02*
X197231000Y-74451800D01*
X197231000Y-74451800D02*
X197231000Y-55765728D01*
X183489600Y-93370400D02*
X183931400Y-92928600D01*
X183931400Y-92928600D02*
X183931400Y-87751400D01*
X180111400Y-97612200D02*
X183489600Y-94234000D01*
X183489600Y-94234000D02*
X183489600Y-93370400D01*
%TO.N,RX*%
X179730400Y-104851200D02*
X179730400Y-104876600D01*
X175668632Y-100789432D02*
X179730400Y-104851200D01*
X175668632Y-97637600D02*
X175668632Y-100789432D01*
X173974600Y-95943568D02*
X175668632Y-97637600D01*
X173974600Y-68646200D02*
X173974600Y-95943568D01*
X187198000Y-55422800D02*
X173974600Y-68646200D01*
X187198000Y-53695600D02*
X187198000Y-55422800D01*
%TO.N,Net-(IC1-GPIO123{slash}SHD_CS0#[BSS_STRAP])*%
X145401304Y-116281200D02*
X141147800Y-120534704D01*
X146022696Y-116281200D02*
X145401304Y-116281200D01*
X141147800Y-120534704D02*
X141147800Y-124587000D01*
X149875400Y-112428496D02*
X146022696Y-116281200D01*
X149875400Y-76845000D02*
X149875400Y-112428496D01*
X151358600Y-75361800D02*
X149875400Y-76845000D01*
%TO.N,GPIO131*%
X189103000Y-100213454D02*
X189103000Y-100304600D01*
X189103000Y-100304600D02*
X190703200Y-101904800D01*
X188758804Y-99869258D02*
X189103000Y-100213454D01*
%TO.N,GP1O007*%
X173634400Y-99669600D02*
X172237400Y-99669600D01*
X177596800Y-103632000D02*
X173634400Y-99669600D01*
X182489000Y-99984400D02*
X181533800Y-100939600D01*
X183073200Y-99984400D02*
X182489000Y-99984400D01*
X183248400Y-99809200D02*
X183073200Y-99984400D01*
%TO.N,Net-(IC1-GPIO144{slash}KSI1{slash}DCD#)*%
X201297911Y-40259000D02*
X202717400Y-40259000D01*
X195338390Y-46218521D02*
X201297911Y-40259000D01*
X195338390Y-47766622D02*
X195338390Y-46218521D01*
X195488400Y-48450968D02*
X195488400Y-47916632D01*
X195338390Y-49110590D02*
X195338390Y-48600978D01*
X195338390Y-48600978D02*
X195488400Y-48450968D01*
X195488400Y-47916632D02*
X195338390Y-47766622D01*
%TO.N,Net-(D5-K)*%
X196484400Y-50739200D02*
X200533000Y-54787800D01*
X196484400Y-48524000D02*
X196484400Y-50739200D01*
X196570600Y-48437800D02*
X196484400Y-48524000D01*
X200533000Y-54787800D02*
X207949800Y-54787800D01*
%TO.N,SHD_CS1*%
X157048200Y-97713800D02*
X154051000Y-100711000D01*
X163042600Y-97713800D02*
X157048200Y-97713800D01*
X170804400Y-102199000D02*
X167487600Y-98882200D01*
X170804400Y-107025000D02*
X170804400Y-102199000D01*
X172745400Y-108966000D02*
X170804400Y-107025000D01*
%TO.N,RST*%
X171094400Y-90629432D02*
X171094400Y-106807000D01*
X162700168Y-82235200D02*
X171094400Y-90629432D01*
X171094400Y-106807000D02*
X172313600Y-108026200D01*
X172313600Y-108026200D02*
X173964600Y-108026200D01*
X150520400Y-93880632D02*
X162165832Y-82235200D01*
X162165832Y-82235200D02*
X162700168Y-82235200D01*
X150520400Y-122529600D02*
X150520400Y-93880632D01*
%TO.N,GPIO003*%
X180187600Y-98745200D02*
X180797200Y-98135600D01*
X180187600Y-99339400D02*
X180187600Y-98745200D01*
X191960968Y-98135600D02*
X180797200Y-98135600D01*
X201218800Y-107393432D02*
X191960968Y-98135600D01*
X201218800Y-113080800D02*
X201218800Y-107393432D01*
%TO.N,GPIO004*%
X175996600Y-96951800D02*
X176301400Y-97256600D01*
X175895000Y-96951800D02*
X175996600Y-96951800D01*
X176301400Y-100251568D02*
X176301400Y-97256600D01*
X192684400Y-100835768D02*
X188683768Y-104836400D01*
X180886232Y-104836400D02*
X176301400Y-100251568D01*
X188683768Y-104836400D02*
X180886232Y-104836400D01*
X192684400Y-99771200D02*
X192684400Y-100835768D01*
%TO.N,GPIO036*%
X181508400Y-104546400D02*
X179501800Y-102539800D01*
X184512978Y-104546400D02*
X181508400Y-104546400D01*
X185191400Y-103867978D02*
X184512978Y-104546400D01*
X185191400Y-98780600D02*
X185191400Y-103867978D01*
X190677800Y-98780600D02*
X185191400Y-98780600D01*
%TO.N,Net-(IC1-GPIO123{slash}SHD_CS0#[BSS_STRAP])*%
X167055800Y-106883200D02*
X166522400Y-107416600D01*
X167721000Y-106883200D02*
X167055800Y-106883200D01*
%TO.N,GPIO20*%
X168478200Y-103952948D02*
X168603027Y-103828121D01*
X168478200Y-103939032D02*
X168478200Y-103952948D01*
X167653168Y-103114000D02*
X168478200Y-103939032D01*
X167118832Y-103114000D02*
X167653168Y-103114000D01*
X166741000Y-103491832D02*
X167118832Y-103114000D01*
X166741000Y-104079200D02*
X166741000Y-103491832D01*
X167489975Y-104828175D02*
X166741000Y-104079200D01*
X167489975Y-104978993D02*
X167489975Y-104828175D01*
X168366000Y-105855018D02*
X167489975Y-104978993D01*
X167832600Y-108921910D02*
X168366000Y-108388510D01*
X167832600Y-133319212D02*
X167832600Y-108921910D01*
X171226188Y-136712800D02*
X167832600Y-133319212D01*
X185305537Y-135912863D02*
X185305537Y-131760431D01*
X185305537Y-131760431D02*
X180353168Y-136712800D01*
X180353168Y-136712800D02*
X171226188Y-136712800D01*
X168366000Y-108388510D02*
X168366000Y-105855018D01*
X184505600Y-136712800D02*
X185305537Y-135912863D01*
%TO.N,GPIO21*%
X168656000Y-105232850D02*
X168134975Y-104711825D01*
X168122600Y-133199090D02*
X168122600Y-109042032D01*
X168656000Y-108508632D02*
X168656000Y-105232850D01*
X170991310Y-136067800D02*
X168122600Y-133199090D01*
X168122600Y-109042032D02*
X168656000Y-108508632D01*
X180086000Y-136067800D02*
X170991310Y-136067800D01*
%TO.N,Net-(IC1-GPIO123{slash}SHD_CS0#[BSS_STRAP])*%
X166522400Y-113431600D02*
X166522400Y-107416600D01*
X167187600Y-114096800D02*
X166522400Y-113431600D01*
%TO.N,Net-(IC1-GPIO126{slash}SHD_SCLK)*%
X160934400Y-102844600D02*
X160248600Y-102844600D01*
X162087400Y-101691600D02*
X160934400Y-102844600D01*
X167378674Y-101691600D02*
X162087400Y-101691600D01*
X169248027Y-103560953D02*
X167378674Y-101691600D01*
X169248027Y-108828773D02*
X169248027Y-103560953D01*
X168767600Y-109309200D02*
X169248027Y-108828773D01*
%TO.N,TACH0*%
X173863000Y-112445800D02*
X173916220Y-112392580D01*
X173863000Y-112981432D02*
X173863000Y-112445800D01*
X172289316Y-114555116D02*
X173863000Y-112981432D01*
%TO.N,Net-(IC1-VR_CAP)*%
X162433000Y-104853732D02*
X162427269Y-104859463D01*
X162433000Y-104825800D02*
X162433000Y-104853732D01*
X163220400Y-104825800D02*
X162433000Y-104825800D01*
X165709600Y-102336600D02*
X163220400Y-104825800D01*
%TO.N,GPIO105*%
X190246000Y-119557800D02*
X190306800Y-119557800D01*
X192923000Y-116880800D02*
X190246000Y-119557800D01*
X192923000Y-114818000D02*
X192923000Y-116880800D01*
X188010800Y-109905800D02*
X192923000Y-114818000D01*
%TO.N,GPIO106*%
X189661800Y-126492000D02*
X192278000Y-129108200D01*
X189661800Y-115262970D02*
X189661800Y-126492000D01*
X189091415Y-114692585D02*
X189661800Y-115262970D01*
%TO.N,GPIO110*%
X184494668Y-106868732D02*
X184554158Y-106868732D01*
X186217400Y-108925200D02*
X184327800Y-107035600D01*
X184327800Y-107035600D02*
X184494668Y-106868732D01*
X186217400Y-111747768D02*
X186217400Y-108925200D01*
X185839568Y-112125600D02*
X186217400Y-111747768D01*
X185305232Y-112125600D02*
X185839568Y-112125600D01*
X183759000Y-110579368D02*
X185305232Y-112125600D01*
X183759000Y-111242000D02*
X183759000Y-110579368D01*
X186131200Y-113614200D02*
X183759000Y-111242000D01*
%TO.N,GPIO111*%
X183678320Y-107391200D02*
X183749232Y-107462112D01*
X185572400Y-111480600D02*
X185572400Y-109374632D01*
X183588968Y-107391200D02*
X183678320Y-107391200D01*
X185572400Y-109374632D02*
X183588968Y-107391200D01*
%TO.N,GPIO112*%
X183083200Y-112412956D02*
X183083200Y-108356400D01*
X188061382Y-117391138D02*
X183083200Y-112412956D01*
X188061382Y-129489418D02*
X188061382Y-117391138D01*
X188391800Y-129159000D02*
X188061382Y-129489418D01*
%TO.N,GPIO113*%
X182346600Y-107416600D02*
X182363518Y-107416600D01*
X182346600Y-112086478D02*
X182346600Y-107416600D01*
X182363518Y-107416600D02*
X182459232Y-107512314D01*
X187416382Y-117156260D02*
X182346600Y-112086478D01*
X187416382Y-128843980D02*
X187416382Y-117156260D01*
%TO.N,GPIO114*%
X178587400Y-108737400D02*
X178587400Y-107264200D01*
X186705248Y-116855248D02*
X178587400Y-108737400D01*
X186705248Y-129555237D02*
X186705248Y-116855248D01*
%TO.N,GPIO167*%
X178796000Y-112395000D02*
X178694400Y-112496600D01*
X180629400Y-112839032D02*
X180185368Y-112395000D01*
X180629400Y-120840032D02*
X180629400Y-112839032D01*
X179070000Y-112395000D02*
X178796000Y-112395000D01*
X185015537Y-125226169D02*
X180629400Y-120840032D01*
X185015537Y-130318998D02*
X185015537Y-125226169D01*
X181730535Y-133604000D02*
X185015537Y-130318998D01*
X180898800Y-133604000D02*
X181730535Y-133604000D01*
X180185368Y-112395000D02*
X179070000Y-112395000D01*
%TO.N,GPIO026*%
X179334000Y-115763200D02*
X179527200Y-115570000D01*
X179334000Y-125015293D02*
X179334000Y-115763200D01*
X184370537Y-130051830D02*
X179334000Y-125015293D01*
%TO.N,GPIO061*%
X179984400Y-113738968D02*
X179984400Y-113106200D01*
X177788070Y-128058843D02*
X177788070Y-115935298D01*
X176474150Y-129372763D02*
X177788070Y-128058843D01*
%TO.N,SPI_2*%
X174976385Y-112780215D02*
X174976385Y-112745782D01*
X169204800Y-118551800D02*
X174976385Y-112780215D01*
X169204800Y-133871168D02*
X169204800Y-118551800D01*
X169582632Y-134249000D02*
X169204800Y-133871168D01*
X170116968Y-134249000D02*
X169582632Y-134249000D01*
X174089368Y-130276600D02*
X170116968Y-134249000D01*
X182448200Y-130276600D02*
X174089368Y-130276600D01*
%TO.N,PWM3*%
X177546000Y-113916768D02*
X177546000Y-113817400D01*
X173431601Y-118031167D02*
X177546000Y-113916768D01*
X177546000Y-113817400D02*
X177816800Y-113817400D01*
X173431601Y-129234798D02*
X173431601Y-118031167D01*
%TO.N,PWM2*%
X177393600Y-115417600D02*
X177520902Y-115290298D01*
X169974568Y-133604000D02*
X177393600Y-126184968D01*
X169849800Y-133604000D02*
X169974568Y-133604000D01*
%TO.N,PWM0*%
X175564800Y-113741200D02*
X175564800Y-113571584D01*
X175564800Y-113571584D02*
X175683494Y-113452890D01*
X175109832Y-113741200D02*
X175564800Y-113741200D01*
X170764200Y-118086832D02*
X175109832Y-113741200D01*
X170764200Y-131572000D02*
X170764200Y-118086832D01*
%TO.N,PWM1*%
X172100400Y-118450200D02*
X176390602Y-114159998D01*
X172100400Y-130342800D02*
X172100400Y-118450200D01*
X172212000Y-130454400D02*
X172100400Y-130342800D01*
%TO.N,Net-(IC1-GPIO144{slash}KSI1{slash}DCD#)*%
X190402284Y-54095884D02*
X190402284Y-54586252D01*
D18*
%TO.N,ADC3*%
X186115961Y-74813400D02*
X187691000Y-74813400D01*
X177398400Y-83530961D02*
X186115961Y-74813400D01*
X187691000Y-74813400D02*
X188417200Y-75539600D01*
X177398400Y-89460903D02*
X177398400Y-83530961D01*
X178945697Y-91008200D02*
X177398400Y-89460903D01*
X179959000Y-91008200D02*
X178945697Y-91008200D01*
%TO.N,ADC2*%
X177698400Y-84150200D02*
X186385200Y-75463400D01*
X177698400Y-89336639D02*
X177698400Y-84150200D01*
X178089561Y-89727800D02*
X177698400Y-89336639D01*
X179182000Y-89727800D02*
X178089561Y-89727800D01*
X180009800Y-88900000D02*
X179182000Y-89727800D01*
%TO.N,ADC1*%
X196138800Y-71297800D02*
X196138800Y-66421000D01*
X178358800Y-89077800D02*
X196138800Y-71297800D01*
%TO.N,ADC0*%
X181381400Y-66827400D02*
X182880000Y-66827400D01*
X178206400Y-70002400D02*
X181381400Y-66827400D01*
%TO.N,PVT_0*%
X162433000Y-95808800D02*
X162433000Y-82880200D01*
X167944800Y-101320600D02*
X162433000Y-95808800D01*
%TD*%
M02*
