%TF.GenerationSoftware,KiCad,Pcbnew,7.0.10*%
%TF.CreationDate,2024-02-23T13:31:41+03:00*%
%TF.ProjectId,Artorg_Board,4172746f-7267-45f4-926f-6172642e6b69,rev?*%
%TF.SameCoordinates,Original*%
%TF.FileFunction,Legend,Top*%
%TF.FilePolarity,Positive*%
%FSLAX46Y46*%
G04 Gerber Fmt 4.6, Leading zero omitted, Abs format (unit mm)*
G04 Created by KiCad (PCBNEW 7.0.10) date 2024-02-23 13:31:41*
%MOMM*%
%LPD*%
G01*
G04 APERTURE LIST*
G04 Aperture macros list*
%AMRoundRect*
0 Rectangle with rounded corners*
0 $1 Rounding radius*
0 $2 $3 $4 $5 $6 $7 $8 $9 X,Y pos of 4 corners*
0 Add a 4 corners polygon primitive as box body*
4,1,4,$2,$3,$4,$5,$6,$7,$8,$9,$2,$3,0*
0 Add four circle primitives for the rounded corners*
1,1,$1+$1,$2,$3*
1,1,$1+$1,$4,$5*
1,1,$1+$1,$6,$7*
1,1,$1+$1,$8,$9*
0 Add four rect primitives between the rounded corners*
20,1,$1+$1,$2,$3,$4,$5,0*
20,1,$1+$1,$4,$5,$6,$7,0*
20,1,$1+$1,$6,$7,$8,$9,0*
20,1,$1+$1,$8,$9,$2,$3,0*%
G04 Aperture macros list end*
%ADD10C,0.150000*%
%ADD11C,0.254000*%
%ADD12C,0.120000*%
%ADD13C,0.200000*%
%ADD14RoundRect,0.237500X0.237500X-0.300000X0.237500X0.300000X-0.237500X0.300000X-0.237500X-0.300000X0*%
%ADD15RoundRect,0.237500X0.300000X0.237500X-0.300000X0.237500X-0.300000X-0.237500X0.300000X-0.237500X0*%
%ADD16R,1.475000X0.200000*%
%ADD17R,0.200000X1.475000*%
%ADD18R,1.750000X0.600000*%
%ADD19RoundRect,0.250000X-0.350000X-0.450000X0.350000X-0.450000X0.350000X0.450000X-0.350000X0.450000X0*%
%ADD20R,2.500000X2.500000*%
%ADD21RoundRect,0.062500X0.350000X-0.062500X0.350000X0.062500X-0.350000X0.062500X-0.350000X-0.062500X0*%
%ADD22RoundRect,0.062500X0.062500X-0.350000X0.062500X0.350000X-0.062500X0.350000X-0.062500X-0.350000X0*%
%ADD23R,3.325000X2.500000*%
%ADD24RoundRect,0.150000X-0.150000X0.512500X-0.150000X-0.512500X0.150000X-0.512500X0.150000X0.512500X0*%
%ADD25R,2.000000X1.500000*%
%ADD26R,2.000000X3.800000*%
%ADD27R,2.200000X3.000000*%
%ADD28RoundRect,0.100000X-0.225000X-0.100000X0.225000X-0.100000X0.225000X0.100000X-0.225000X0.100000X0*%
%ADD29RoundRect,0.250000X-0.262500X-0.450000X0.262500X-0.450000X0.262500X0.450000X-0.262500X0.450000X0*%
%ADD30RoundRect,0.250000X0.350000X0.450000X-0.350000X0.450000X-0.350000X-0.450000X0.350000X-0.450000X0*%
%ADD31RoundRect,0.237500X0.250000X0.237500X-0.250000X0.237500X-0.250000X-0.237500X0.250000X-0.237500X0*%
%ADD32RoundRect,0.250000X0.262500X0.450000X-0.262500X0.450000X-0.262500X-0.450000X0.262500X-0.450000X0*%
%ADD33RoundRect,0.250000X0.450000X-0.262500X0.450000X0.262500X-0.450000X0.262500X-0.450000X-0.262500X0*%
%ADD34RoundRect,0.250000X-0.450000X0.262500X-0.450000X-0.262500X0.450000X-0.262500X0.450000X0.262500X0*%
%ADD35R,0.650000X1.800000*%
%ADD36R,1.980000X3.960000*%
%ADD37O,1.980000X3.960000*%
%ADD38RoundRect,0.250000X-1.050000X0.750000X-1.050000X-0.750000X1.050000X-0.750000X1.050000X0.750000X0*%
%ADD39O,2.600000X2.000000*%
%ADD40RoundRect,0.250000X1.050000X-0.750000X1.050000X0.750000X-1.050000X0.750000X-1.050000X-0.750000X0*%
%ADD41O,0.890000X1.550000*%
%ADD42R,1.500000X1.550000*%
%ADD43O,1.250000X0.950000*%
%ADD44R,1.200000X1.550000*%
%ADD45R,0.400000X1.350000*%
%ADD46RoundRect,0.249999X-1.075001X0.512501X-1.075001X-0.512501X1.075001X-0.512501X1.075001X0.512501X0*%
%ADD47RoundRect,0.250000X-0.312500X-1.450000X0.312500X-1.450000X0.312500X1.450000X-0.312500X1.450000X0*%
%ADD48RoundRect,0.250000X0.312500X1.450000X-0.312500X1.450000X-0.312500X-1.450000X0.312500X-1.450000X0*%
%ADD49RoundRect,0.250001X-1.074999X0.462499X-1.074999X-0.462499X1.074999X-0.462499X1.074999X0.462499X0*%
%ADD50RoundRect,0.250001X1.074999X-0.462499X1.074999X0.462499X-1.074999X0.462499X-1.074999X-0.462499X0*%
%ADD51RoundRect,0.250000X1.450000X-0.312500X1.450000X0.312500X-1.450000X0.312500X-1.450000X-0.312500X0*%
%ADD52RoundRect,0.250001X-0.462499X-1.074999X0.462499X-1.074999X0.462499X1.074999X-0.462499X1.074999X0*%
%ADD53RoundRect,0.250000X-0.650000X0.412500X-0.650000X-0.412500X0.650000X-0.412500X0.650000X0.412500X0*%
%ADD54RoundRect,0.250000X-0.325000X-0.650000X0.325000X-0.650000X0.325000X0.650000X-0.325000X0.650000X0*%
%ADD55RoundRect,0.250000X-0.337500X-0.475000X0.337500X-0.475000X0.337500X0.475000X-0.337500X0.475000X0*%
%ADD56RoundRect,0.225000X-0.225000X-0.250000X0.225000X-0.250000X0.225000X0.250000X-0.225000X0.250000X0*%
%ADD57RoundRect,0.250000X0.337500X0.475000X-0.337500X0.475000X-0.337500X-0.475000X0.337500X-0.475000X0*%
%ADD58RoundRect,0.250000X0.475000X-0.337500X0.475000X0.337500X-0.475000X0.337500X-0.475000X-0.337500X0*%
%ADD59RoundRect,0.250000X-0.475000X0.337500X-0.475000X-0.337500X0.475000X-0.337500X0.475000X0.337500X0*%
%ADD60RoundRect,0.250000X-1.112500X-1.500000X1.112500X-1.500000X1.112500X1.500000X-1.112500X1.500000X0*%
%ADD61RoundRect,0.250000X-1.250000X-0.550000X1.250000X-0.550000X1.250000X0.550000X-1.250000X0.550000X0*%
%ADD62RoundRect,0.250000X0.550000X-1.050000X0.550000X1.050000X-0.550000X1.050000X-0.550000X-1.050000X0*%
%ADD63R,2.200000X1.600000*%
%ADD64C,10.200000*%
%ADD65R,3.500000X3.300000*%
G04 APERTURE END LIST*
D10*
X152396380Y-74803957D02*
X152444000Y-74851576D01*
X152444000Y-74851576D02*
X152491619Y-74994433D01*
X152491619Y-74994433D02*
X152491619Y-75089671D01*
X152491619Y-75089671D02*
X152444000Y-75232528D01*
X152444000Y-75232528D02*
X152348761Y-75327766D01*
X152348761Y-75327766D02*
X152253523Y-75375385D01*
X152253523Y-75375385D02*
X152063047Y-75423004D01*
X152063047Y-75423004D02*
X151920190Y-75423004D01*
X151920190Y-75423004D02*
X151729714Y-75375385D01*
X151729714Y-75375385D02*
X151634476Y-75327766D01*
X151634476Y-75327766D02*
X151539238Y-75232528D01*
X151539238Y-75232528D02*
X151491619Y-75089671D01*
X151491619Y-75089671D02*
X151491619Y-74994433D01*
X151491619Y-74994433D02*
X151539238Y-74851576D01*
X151539238Y-74851576D02*
X151586857Y-74803957D01*
X151586857Y-74423004D02*
X151539238Y-74375385D01*
X151539238Y-74375385D02*
X151491619Y-74280147D01*
X151491619Y-74280147D02*
X151491619Y-74042052D01*
X151491619Y-74042052D02*
X151539238Y-73946814D01*
X151539238Y-73946814D02*
X151586857Y-73899195D01*
X151586857Y-73899195D02*
X151682095Y-73851576D01*
X151682095Y-73851576D02*
X151777333Y-73851576D01*
X151777333Y-73851576D02*
X151920190Y-73899195D01*
X151920190Y-73899195D02*
X152491619Y-74470623D01*
X152491619Y-74470623D02*
X152491619Y-73851576D01*
X151491619Y-72946814D02*
X151491619Y-73423004D01*
X151491619Y-73423004D02*
X151967809Y-73470623D01*
X151967809Y-73470623D02*
X151920190Y-73423004D01*
X151920190Y-73423004D02*
X151872571Y-73327766D01*
X151872571Y-73327766D02*
X151872571Y-73089671D01*
X151872571Y-73089671D02*
X151920190Y-72994433D01*
X151920190Y-72994433D02*
X151967809Y-72946814D01*
X151967809Y-72946814D02*
X152063047Y-72899195D01*
X152063047Y-72899195D02*
X152301142Y-72899195D01*
X152301142Y-72899195D02*
X152396380Y-72946814D01*
X152396380Y-72946814D02*
X152444000Y-72994433D01*
X152444000Y-72994433D02*
X152491619Y-73089671D01*
X152491619Y-73089671D02*
X152491619Y-73327766D01*
X152491619Y-73327766D02*
X152444000Y-73423004D01*
X152444000Y-73423004D02*
X152396380Y-73470623D01*
X185075042Y-123226980D02*
X185027423Y-123274600D01*
X185027423Y-123274600D02*
X184884566Y-123322219D01*
X184884566Y-123322219D02*
X184789328Y-123322219D01*
X184789328Y-123322219D02*
X184646471Y-123274600D01*
X184646471Y-123274600D02*
X184551233Y-123179361D01*
X184551233Y-123179361D02*
X184503614Y-123084123D01*
X184503614Y-123084123D02*
X184455995Y-122893647D01*
X184455995Y-122893647D02*
X184455995Y-122750790D01*
X184455995Y-122750790D02*
X184503614Y-122560314D01*
X184503614Y-122560314D02*
X184551233Y-122465076D01*
X184551233Y-122465076D02*
X184646471Y-122369838D01*
X184646471Y-122369838D02*
X184789328Y-122322219D01*
X184789328Y-122322219D02*
X184884566Y-122322219D01*
X184884566Y-122322219D02*
X185027423Y-122369838D01*
X185027423Y-122369838D02*
X185075042Y-122417457D01*
X185455995Y-122417457D02*
X185503614Y-122369838D01*
X185503614Y-122369838D02*
X185598852Y-122322219D01*
X185598852Y-122322219D02*
X185836947Y-122322219D01*
X185836947Y-122322219D02*
X185932185Y-122369838D01*
X185932185Y-122369838D02*
X185979804Y-122417457D01*
X185979804Y-122417457D02*
X186027423Y-122512695D01*
X186027423Y-122512695D02*
X186027423Y-122607933D01*
X186027423Y-122607933D02*
X185979804Y-122750790D01*
X185979804Y-122750790D02*
X185408376Y-123322219D01*
X185408376Y-123322219D02*
X186027423Y-123322219D01*
X186884566Y-122322219D02*
X186694090Y-122322219D01*
X186694090Y-122322219D02*
X186598852Y-122369838D01*
X186598852Y-122369838D02*
X186551233Y-122417457D01*
X186551233Y-122417457D02*
X186455995Y-122560314D01*
X186455995Y-122560314D02*
X186408376Y-122750790D01*
X186408376Y-122750790D02*
X186408376Y-123131742D01*
X186408376Y-123131742D02*
X186455995Y-123226980D01*
X186455995Y-123226980D02*
X186503614Y-123274600D01*
X186503614Y-123274600D02*
X186598852Y-123322219D01*
X186598852Y-123322219D02*
X186789328Y-123322219D01*
X186789328Y-123322219D02*
X186884566Y-123274600D01*
X186884566Y-123274600D02*
X186932185Y-123226980D01*
X186932185Y-123226980D02*
X186979804Y-123131742D01*
X186979804Y-123131742D02*
X186979804Y-122893647D01*
X186979804Y-122893647D02*
X186932185Y-122798409D01*
X186932185Y-122798409D02*
X186884566Y-122750790D01*
X186884566Y-122750790D02*
X186789328Y-122703171D01*
X186789328Y-122703171D02*
X186598852Y-122703171D01*
X186598852Y-122703171D02*
X186503614Y-122750790D01*
X186503614Y-122750790D02*
X186455995Y-122798409D01*
X186455995Y-122798409D02*
X186408376Y-122893647D01*
D11*
X176932037Y-103783518D02*
X176932037Y-102513518D01*
X178262514Y-103662565D02*
X178202038Y-103723042D01*
X178202038Y-103723042D02*
X178020609Y-103783518D01*
X178020609Y-103783518D02*
X177899657Y-103783518D01*
X177899657Y-103783518D02*
X177718228Y-103723042D01*
X177718228Y-103723042D02*
X177597276Y-103602089D01*
X177597276Y-103602089D02*
X177536799Y-103481137D01*
X177536799Y-103481137D02*
X177476323Y-103239232D01*
X177476323Y-103239232D02*
X177476323Y-103057803D01*
X177476323Y-103057803D02*
X177536799Y-102815899D01*
X177536799Y-102815899D02*
X177597276Y-102694946D01*
X177597276Y-102694946D02*
X177718228Y-102573994D01*
X177718228Y-102573994D02*
X177899657Y-102513518D01*
X177899657Y-102513518D02*
X178020609Y-102513518D01*
X178020609Y-102513518D02*
X178202038Y-102573994D01*
X178202038Y-102573994D02*
X178262514Y-102634470D01*
X179472038Y-103783518D02*
X178746323Y-103783518D01*
X179109180Y-103783518D02*
X179109180Y-102513518D01*
X179109180Y-102513518D02*
X178988228Y-102694946D01*
X178988228Y-102694946D02*
X178867276Y-102815899D01*
X178867276Y-102815899D02*
X178746323Y-102876375D01*
D10*
X169962266Y-64722219D02*
X169962266Y-65436504D01*
X169962266Y-65436504D02*
X169914647Y-65579361D01*
X169914647Y-65579361D02*
X169819409Y-65674600D01*
X169819409Y-65674600D02*
X169676552Y-65722219D01*
X169676552Y-65722219D02*
X169581314Y-65722219D01*
X170581314Y-65150790D02*
X170486076Y-65103171D01*
X170486076Y-65103171D02*
X170438457Y-65055552D01*
X170438457Y-65055552D02*
X170390838Y-64960314D01*
X170390838Y-64960314D02*
X170390838Y-64912695D01*
X170390838Y-64912695D02*
X170438457Y-64817457D01*
X170438457Y-64817457D02*
X170486076Y-64769838D01*
X170486076Y-64769838D02*
X170581314Y-64722219D01*
X170581314Y-64722219D02*
X170771790Y-64722219D01*
X170771790Y-64722219D02*
X170867028Y-64769838D01*
X170867028Y-64769838D02*
X170914647Y-64817457D01*
X170914647Y-64817457D02*
X170962266Y-64912695D01*
X170962266Y-64912695D02*
X170962266Y-64960314D01*
X170962266Y-64960314D02*
X170914647Y-65055552D01*
X170914647Y-65055552D02*
X170867028Y-65103171D01*
X170867028Y-65103171D02*
X170771790Y-65150790D01*
X170771790Y-65150790D02*
X170581314Y-65150790D01*
X170581314Y-65150790D02*
X170486076Y-65198409D01*
X170486076Y-65198409D02*
X170438457Y-65246028D01*
X170438457Y-65246028D02*
X170390838Y-65341266D01*
X170390838Y-65341266D02*
X170390838Y-65531742D01*
X170390838Y-65531742D02*
X170438457Y-65626980D01*
X170438457Y-65626980D02*
X170486076Y-65674600D01*
X170486076Y-65674600D02*
X170581314Y-65722219D01*
X170581314Y-65722219D02*
X170771790Y-65722219D01*
X170771790Y-65722219D02*
X170867028Y-65674600D01*
X170867028Y-65674600D02*
X170914647Y-65626980D01*
X170914647Y-65626980D02*
X170962266Y-65531742D01*
X170962266Y-65531742D02*
X170962266Y-65341266D01*
X170962266Y-65341266D02*
X170914647Y-65246028D01*
X170914647Y-65246028D02*
X170867028Y-65198409D01*
X170867028Y-65198409D02*
X170771790Y-65150790D01*
X157503019Y-90736657D02*
X157026828Y-91069990D01*
X157503019Y-91308085D02*
X156503019Y-91308085D01*
X156503019Y-91308085D02*
X156503019Y-90927133D01*
X156503019Y-90927133D02*
X156550638Y-90831895D01*
X156550638Y-90831895D02*
X156598257Y-90784276D01*
X156598257Y-90784276D02*
X156693495Y-90736657D01*
X156693495Y-90736657D02*
X156836352Y-90736657D01*
X156836352Y-90736657D02*
X156931590Y-90784276D01*
X156931590Y-90784276D02*
X156979209Y-90831895D01*
X156979209Y-90831895D02*
X157026828Y-90927133D01*
X157026828Y-90927133D02*
X157026828Y-91308085D01*
X156503019Y-90403323D02*
X156503019Y-89784276D01*
X156503019Y-89784276D02*
X156883971Y-90117609D01*
X156883971Y-90117609D02*
X156883971Y-89974752D01*
X156883971Y-89974752D02*
X156931590Y-89879514D01*
X156931590Y-89879514D02*
X156979209Y-89831895D01*
X156979209Y-89831895D02*
X157074447Y-89784276D01*
X157074447Y-89784276D02*
X157312542Y-89784276D01*
X157312542Y-89784276D02*
X157407780Y-89831895D01*
X157407780Y-89831895D02*
X157455400Y-89879514D01*
X157455400Y-89879514D02*
X157503019Y-89974752D01*
X157503019Y-89974752D02*
X157503019Y-90260466D01*
X157503019Y-90260466D02*
X157455400Y-90355704D01*
X157455400Y-90355704D02*
X157407780Y-90403323D01*
X156598257Y-89403323D02*
X156550638Y-89355704D01*
X156550638Y-89355704D02*
X156503019Y-89260466D01*
X156503019Y-89260466D02*
X156503019Y-89022371D01*
X156503019Y-89022371D02*
X156550638Y-88927133D01*
X156550638Y-88927133D02*
X156598257Y-88879514D01*
X156598257Y-88879514D02*
X156693495Y-88831895D01*
X156693495Y-88831895D02*
X156788733Y-88831895D01*
X156788733Y-88831895D02*
X156931590Y-88879514D01*
X156931590Y-88879514D02*
X157503019Y-89450942D01*
X157503019Y-89450942D02*
X157503019Y-88831895D01*
X189362619Y-53609304D02*
X190172142Y-53609304D01*
X190172142Y-53609304D02*
X190267380Y-53561685D01*
X190267380Y-53561685D02*
X190315000Y-53514066D01*
X190315000Y-53514066D02*
X190362619Y-53418828D01*
X190362619Y-53418828D02*
X190362619Y-53228352D01*
X190362619Y-53228352D02*
X190315000Y-53133114D01*
X190315000Y-53133114D02*
X190267380Y-53085495D01*
X190267380Y-53085495D02*
X190172142Y-53037876D01*
X190172142Y-53037876D02*
X189362619Y-53037876D01*
X189362619Y-52656923D02*
X189362619Y-52037876D01*
X189362619Y-52037876D02*
X189743571Y-52371209D01*
X189743571Y-52371209D02*
X189743571Y-52228352D01*
X189743571Y-52228352D02*
X189791190Y-52133114D01*
X189791190Y-52133114D02*
X189838809Y-52085495D01*
X189838809Y-52085495D02*
X189934047Y-52037876D01*
X189934047Y-52037876D02*
X190172142Y-52037876D01*
X190172142Y-52037876D02*
X190267380Y-52085495D01*
X190267380Y-52085495D02*
X190315000Y-52133114D01*
X190315000Y-52133114D02*
X190362619Y-52228352D01*
X190362619Y-52228352D02*
X190362619Y-52514066D01*
X190362619Y-52514066D02*
X190315000Y-52609304D01*
X190315000Y-52609304D02*
X190267380Y-52656923D01*
X174326609Y-78994428D02*
X174326609Y-79470619D01*
X173993276Y-78470619D02*
X174326609Y-78994428D01*
X174326609Y-78994428D02*
X174659942Y-78470619D01*
X175517085Y-79470619D02*
X174945657Y-79470619D01*
X175231371Y-79470619D02*
X175231371Y-78470619D01*
X175231371Y-78470619D02*
X175136133Y-78613476D01*
X175136133Y-78613476D02*
X175040895Y-78708714D01*
X175040895Y-78708714D02*
X174945657Y-78756333D01*
X187564419Y-126649804D02*
X188373942Y-126649804D01*
X188373942Y-126649804D02*
X188469180Y-126602185D01*
X188469180Y-126602185D02*
X188516800Y-126554566D01*
X188516800Y-126554566D02*
X188564419Y-126459328D01*
X188564419Y-126459328D02*
X188564419Y-126268852D01*
X188564419Y-126268852D02*
X188516800Y-126173614D01*
X188516800Y-126173614D02*
X188469180Y-126125995D01*
X188469180Y-126125995D02*
X188373942Y-126078376D01*
X188373942Y-126078376D02*
X187564419Y-126078376D01*
X187897752Y-125173614D02*
X188564419Y-125173614D01*
X187516800Y-125411709D02*
X188231085Y-125649804D01*
X188231085Y-125649804D02*
X188231085Y-125030757D01*
X182015095Y-40014419D02*
X182015095Y-40823942D01*
X182015095Y-40823942D02*
X182062714Y-40919180D01*
X182062714Y-40919180D02*
X182110333Y-40966800D01*
X182110333Y-40966800D02*
X182205571Y-41014419D01*
X182205571Y-41014419D02*
X182396047Y-41014419D01*
X182396047Y-41014419D02*
X182491285Y-40966800D01*
X182491285Y-40966800D02*
X182538904Y-40919180D01*
X182538904Y-40919180D02*
X182586523Y-40823942D01*
X182586523Y-40823942D02*
X182586523Y-40014419D01*
X183015095Y-40109657D02*
X183062714Y-40062038D01*
X183062714Y-40062038D02*
X183157952Y-40014419D01*
X183157952Y-40014419D02*
X183396047Y-40014419D01*
X183396047Y-40014419D02*
X183491285Y-40062038D01*
X183491285Y-40062038D02*
X183538904Y-40109657D01*
X183538904Y-40109657D02*
X183586523Y-40204895D01*
X183586523Y-40204895D02*
X183586523Y-40300133D01*
X183586523Y-40300133D02*
X183538904Y-40442990D01*
X183538904Y-40442990D02*
X182967476Y-41014419D01*
X182967476Y-41014419D02*
X183586523Y-41014419D01*
X156744495Y-70679019D02*
X156744495Y-71488542D01*
X156744495Y-71488542D02*
X156792114Y-71583780D01*
X156792114Y-71583780D02*
X156839733Y-71631400D01*
X156839733Y-71631400D02*
X156934971Y-71679019D01*
X156934971Y-71679019D02*
X157125447Y-71679019D01*
X157125447Y-71679019D02*
X157220685Y-71631400D01*
X157220685Y-71631400D02*
X157268304Y-71583780D01*
X157268304Y-71583780D02*
X157315923Y-71488542D01*
X157315923Y-71488542D02*
X157315923Y-70679019D01*
X158315923Y-71679019D02*
X157744495Y-71679019D01*
X158030209Y-71679019D02*
X158030209Y-70679019D01*
X158030209Y-70679019D02*
X157934971Y-70821876D01*
X157934971Y-70821876D02*
X157839733Y-70917114D01*
X157839733Y-70917114D02*
X157744495Y-70964733D01*
X174541442Y-62127019D02*
X174208109Y-61650828D01*
X173970014Y-62127019D02*
X173970014Y-61127019D01*
X173970014Y-61127019D02*
X174350966Y-61127019D01*
X174350966Y-61127019D02*
X174446204Y-61174638D01*
X174446204Y-61174638D02*
X174493823Y-61222257D01*
X174493823Y-61222257D02*
X174541442Y-61317495D01*
X174541442Y-61317495D02*
X174541442Y-61460352D01*
X174541442Y-61460352D02*
X174493823Y-61555590D01*
X174493823Y-61555590D02*
X174446204Y-61603209D01*
X174446204Y-61603209D02*
X174350966Y-61650828D01*
X174350966Y-61650828D02*
X173970014Y-61650828D01*
X175398585Y-61460352D02*
X175398585Y-62127019D01*
X175160490Y-61079400D02*
X174922395Y-61793685D01*
X174922395Y-61793685D02*
X175541442Y-61793685D01*
X176398585Y-61127019D02*
X175922395Y-61127019D01*
X175922395Y-61127019D02*
X175874776Y-61603209D01*
X175874776Y-61603209D02*
X175922395Y-61555590D01*
X175922395Y-61555590D02*
X176017633Y-61507971D01*
X176017633Y-61507971D02*
X176255728Y-61507971D01*
X176255728Y-61507971D02*
X176350966Y-61555590D01*
X176350966Y-61555590D02*
X176398585Y-61603209D01*
X176398585Y-61603209D02*
X176446204Y-61698447D01*
X176446204Y-61698447D02*
X176446204Y-61936542D01*
X176446204Y-61936542D02*
X176398585Y-62031780D01*
X176398585Y-62031780D02*
X176350966Y-62079400D01*
X176350966Y-62079400D02*
X176255728Y-62127019D01*
X176255728Y-62127019D02*
X176017633Y-62127019D01*
X176017633Y-62127019D02*
X175922395Y-62079400D01*
X175922395Y-62079400D02*
X175874776Y-62031780D01*
X166251142Y-93648419D02*
X165917809Y-93172228D01*
X165679714Y-93648419D02*
X165679714Y-92648419D01*
X165679714Y-92648419D02*
X166060666Y-92648419D01*
X166060666Y-92648419D02*
X166155904Y-92696038D01*
X166155904Y-92696038D02*
X166203523Y-92743657D01*
X166203523Y-92743657D02*
X166251142Y-92838895D01*
X166251142Y-92838895D02*
X166251142Y-92981752D01*
X166251142Y-92981752D02*
X166203523Y-93076990D01*
X166203523Y-93076990D02*
X166155904Y-93124609D01*
X166155904Y-93124609D02*
X166060666Y-93172228D01*
X166060666Y-93172228D02*
X165679714Y-93172228D01*
X167108285Y-92981752D02*
X167108285Y-93648419D01*
X166870190Y-92600800D02*
X166632095Y-93315085D01*
X166632095Y-93315085D02*
X167251142Y-93315085D01*
X168060666Y-92981752D02*
X168060666Y-93648419D01*
X167822571Y-92600800D02*
X167584476Y-93315085D01*
X167584476Y-93315085D02*
X168203523Y-93315085D01*
X188008419Y-87282257D02*
X187532228Y-87615590D01*
X188008419Y-87853685D02*
X187008419Y-87853685D01*
X187008419Y-87853685D02*
X187008419Y-87472733D01*
X187008419Y-87472733D02*
X187056038Y-87377495D01*
X187056038Y-87377495D02*
X187103657Y-87329876D01*
X187103657Y-87329876D02*
X187198895Y-87282257D01*
X187198895Y-87282257D02*
X187341752Y-87282257D01*
X187341752Y-87282257D02*
X187436990Y-87329876D01*
X187436990Y-87329876D02*
X187484609Y-87377495D01*
X187484609Y-87377495D02*
X187532228Y-87472733D01*
X187532228Y-87472733D02*
X187532228Y-87853685D01*
X187341752Y-86425114D02*
X188008419Y-86425114D01*
X186960800Y-86663209D02*
X187675085Y-86901304D01*
X187675085Y-86901304D02*
X187675085Y-86282257D01*
X187008419Y-85996542D02*
X187008419Y-85377495D01*
X187008419Y-85377495D02*
X187389371Y-85710828D01*
X187389371Y-85710828D02*
X187389371Y-85567971D01*
X187389371Y-85567971D02*
X187436990Y-85472733D01*
X187436990Y-85472733D02*
X187484609Y-85425114D01*
X187484609Y-85425114D02*
X187579847Y-85377495D01*
X187579847Y-85377495D02*
X187817942Y-85377495D01*
X187817942Y-85377495D02*
X187913180Y-85425114D01*
X187913180Y-85425114D02*
X187960800Y-85472733D01*
X187960800Y-85472733D02*
X188008419Y-85567971D01*
X188008419Y-85567971D02*
X188008419Y-85853685D01*
X188008419Y-85853685D02*
X187960800Y-85948923D01*
X187960800Y-85948923D02*
X187913180Y-85996542D01*
X196181742Y-107947619D02*
X195848409Y-107471428D01*
X195610314Y-107947619D02*
X195610314Y-106947619D01*
X195610314Y-106947619D02*
X195991266Y-106947619D01*
X195991266Y-106947619D02*
X196086504Y-106995238D01*
X196086504Y-106995238D02*
X196134123Y-107042857D01*
X196134123Y-107042857D02*
X196181742Y-107138095D01*
X196181742Y-107138095D02*
X196181742Y-107280952D01*
X196181742Y-107280952D02*
X196134123Y-107376190D01*
X196134123Y-107376190D02*
X196086504Y-107423809D01*
X196086504Y-107423809D02*
X195991266Y-107471428D01*
X195991266Y-107471428D02*
X195610314Y-107471428D01*
X197038885Y-107280952D02*
X197038885Y-107947619D01*
X196800790Y-106900000D02*
X196562695Y-107614285D01*
X196562695Y-107614285D02*
X197181742Y-107614285D01*
X197515076Y-107042857D02*
X197562695Y-106995238D01*
X197562695Y-106995238D02*
X197657933Y-106947619D01*
X197657933Y-106947619D02*
X197896028Y-106947619D01*
X197896028Y-106947619D02*
X197991266Y-106995238D01*
X197991266Y-106995238D02*
X198038885Y-107042857D01*
X198038885Y-107042857D02*
X198086504Y-107138095D01*
X198086504Y-107138095D02*
X198086504Y-107233333D01*
X198086504Y-107233333D02*
X198038885Y-107376190D01*
X198038885Y-107376190D02*
X197467457Y-107947619D01*
X197467457Y-107947619D02*
X198086504Y-107947619D01*
X175464742Y-119071819D02*
X175131409Y-118595628D01*
X174893314Y-119071819D02*
X174893314Y-118071819D01*
X174893314Y-118071819D02*
X175274266Y-118071819D01*
X175274266Y-118071819D02*
X175369504Y-118119438D01*
X175369504Y-118119438D02*
X175417123Y-118167057D01*
X175417123Y-118167057D02*
X175464742Y-118262295D01*
X175464742Y-118262295D02*
X175464742Y-118405152D01*
X175464742Y-118405152D02*
X175417123Y-118500390D01*
X175417123Y-118500390D02*
X175369504Y-118548009D01*
X175369504Y-118548009D02*
X175274266Y-118595628D01*
X175274266Y-118595628D02*
X174893314Y-118595628D01*
X176321885Y-118405152D02*
X176321885Y-119071819D01*
X176083790Y-118024200D02*
X175845695Y-118738485D01*
X175845695Y-118738485D02*
X176464742Y-118738485D01*
X177369504Y-119071819D02*
X176798076Y-119071819D01*
X177083790Y-119071819D02*
X177083790Y-118071819D01*
X177083790Y-118071819D02*
X176988552Y-118214676D01*
X176988552Y-118214676D02*
X176893314Y-118309914D01*
X176893314Y-118309914D02*
X176798076Y-118357533D01*
X173000942Y-124812219D02*
X172667609Y-124336028D01*
X172429514Y-124812219D02*
X172429514Y-123812219D01*
X172429514Y-123812219D02*
X172810466Y-123812219D01*
X172810466Y-123812219D02*
X172905704Y-123859838D01*
X172905704Y-123859838D02*
X172953323Y-123907457D01*
X172953323Y-123907457D02*
X173000942Y-124002695D01*
X173000942Y-124002695D02*
X173000942Y-124145552D01*
X173000942Y-124145552D02*
X172953323Y-124240790D01*
X172953323Y-124240790D02*
X172905704Y-124288409D01*
X172905704Y-124288409D02*
X172810466Y-124336028D01*
X172810466Y-124336028D02*
X172429514Y-124336028D01*
X173858085Y-124145552D02*
X173858085Y-124812219D01*
X173619990Y-123764600D02*
X173381895Y-124478885D01*
X173381895Y-124478885D02*
X174000942Y-124478885D01*
X174572371Y-123812219D02*
X174667609Y-123812219D01*
X174667609Y-123812219D02*
X174762847Y-123859838D01*
X174762847Y-123859838D02*
X174810466Y-123907457D01*
X174810466Y-123907457D02*
X174858085Y-124002695D01*
X174858085Y-124002695D02*
X174905704Y-124193171D01*
X174905704Y-124193171D02*
X174905704Y-124431266D01*
X174905704Y-124431266D02*
X174858085Y-124621742D01*
X174858085Y-124621742D02*
X174810466Y-124716980D01*
X174810466Y-124716980D02*
X174762847Y-124764600D01*
X174762847Y-124764600D02*
X174667609Y-124812219D01*
X174667609Y-124812219D02*
X174572371Y-124812219D01*
X174572371Y-124812219D02*
X174477133Y-124764600D01*
X174477133Y-124764600D02*
X174429514Y-124716980D01*
X174429514Y-124716980D02*
X174381895Y-124621742D01*
X174381895Y-124621742D02*
X174334276Y-124431266D01*
X174334276Y-124431266D02*
X174334276Y-124193171D01*
X174334276Y-124193171D02*
X174381895Y-124002695D01*
X174381895Y-124002695D02*
X174429514Y-123907457D01*
X174429514Y-123907457D02*
X174477133Y-123859838D01*
X174477133Y-123859838D02*
X174572371Y-123812219D01*
X162755342Y-93901419D02*
X162422009Y-93425228D01*
X162183914Y-93901419D02*
X162183914Y-92901419D01*
X162183914Y-92901419D02*
X162564866Y-92901419D01*
X162564866Y-92901419D02*
X162660104Y-92949038D01*
X162660104Y-92949038D02*
X162707723Y-92996657D01*
X162707723Y-92996657D02*
X162755342Y-93091895D01*
X162755342Y-93091895D02*
X162755342Y-93234752D01*
X162755342Y-93234752D02*
X162707723Y-93329990D01*
X162707723Y-93329990D02*
X162660104Y-93377609D01*
X162660104Y-93377609D02*
X162564866Y-93425228D01*
X162564866Y-93425228D02*
X162183914Y-93425228D01*
X163088676Y-92901419D02*
X163707723Y-92901419D01*
X163707723Y-92901419D02*
X163374390Y-93282371D01*
X163374390Y-93282371D02*
X163517247Y-93282371D01*
X163517247Y-93282371D02*
X163612485Y-93329990D01*
X163612485Y-93329990D02*
X163660104Y-93377609D01*
X163660104Y-93377609D02*
X163707723Y-93472847D01*
X163707723Y-93472847D02*
X163707723Y-93710942D01*
X163707723Y-93710942D02*
X163660104Y-93806180D01*
X163660104Y-93806180D02*
X163612485Y-93853800D01*
X163612485Y-93853800D02*
X163517247Y-93901419D01*
X163517247Y-93901419D02*
X163231533Y-93901419D01*
X163231533Y-93901419D02*
X163136295Y-93853800D01*
X163136295Y-93853800D02*
X163088676Y-93806180D01*
X164183914Y-93901419D02*
X164374390Y-93901419D01*
X164374390Y-93901419D02*
X164469628Y-93853800D01*
X164469628Y-93853800D02*
X164517247Y-93806180D01*
X164517247Y-93806180D02*
X164612485Y-93663323D01*
X164612485Y-93663323D02*
X164660104Y-93472847D01*
X164660104Y-93472847D02*
X164660104Y-93091895D01*
X164660104Y-93091895D02*
X164612485Y-92996657D01*
X164612485Y-92996657D02*
X164564866Y-92949038D01*
X164564866Y-92949038D02*
X164469628Y-92901419D01*
X164469628Y-92901419D02*
X164279152Y-92901419D01*
X164279152Y-92901419D02*
X164183914Y-92949038D01*
X164183914Y-92949038D02*
X164136295Y-92996657D01*
X164136295Y-92996657D02*
X164088676Y-93091895D01*
X164088676Y-93091895D02*
X164088676Y-93329990D01*
X164088676Y-93329990D02*
X164136295Y-93425228D01*
X164136295Y-93425228D02*
X164183914Y-93472847D01*
X164183914Y-93472847D02*
X164279152Y-93520466D01*
X164279152Y-93520466D02*
X164469628Y-93520466D01*
X164469628Y-93520466D02*
X164564866Y-93472847D01*
X164564866Y-93472847D02*
X164612485Y-93425228D01*
X164612485Y-93425228D02*
X164660104Y-93329990D01*
X162907742Y-90577619D02*
X162574409Y-90101428D01*
X162336314Y-90577619D02*
X162336314Y-89577619D01*
X162336314Y-89577619D02*
X162717266Y-89577619D01*
X162717266Y-89577619D02*
X162812504Y-89625238D01*
X162812504Y-89625238D02*
X162860123Y-89672857D01*
X162860123Y-89672857D02*
X162907742Y-89768095D01*
X162907742Y-89768095D02*
X162907742Y-89910952D01*
X162907742Y-89910952D02*
X162860123Y-90006190D01*
X162860123Y-90006190D02*
X162812504Y-90053809D01*
X162812504Y-90053809D02*
X162717266Y-90101428D01*
X162717266Y-90101428D02*
X162336314Y-90101428D01*
X163241076Y-89577619D02*
X163860123Y-89577619D01*
X163860123Y-89577619D02*
X163526790Y-89958571D01*
X163526790Y-89958571D02*
X163669647Y-89958571D01*
X163669647Y-89958571D02*
X163764885Y-90006190D01*
X163764885Y-90006190D02*
X163812504Y-90053809D01*
X163812504Y-90053809D02*
X163860123Y-90149047D01*
X163860123Y-90149047D02*
X163860123Y-90387142D01*
X163860123Y-90387142D02*
X163812504Y-90482380D01*
X163812504Y-90482380D02*
X163764885Y-90530000D01*
X163764885Y-90530000D02*
X163669647Y-90577619D01*
X163669647Y-90577619D02*
X163383933Y-90577619D01*
X163383933Y-90577619D02*
X163288695Y-90530000D01*
X163288695Y-90530000D02*
X163241076Y-90482380D01*
X164431552Y-90006190D02*
X164336314Y-89958571D01*
X164336314Y-89958571D02*
X164288695Y-89910952D01*
X164288695Y-89910952D02*
X164241076Y-89815714D01*
X164241076Y-89815714D02*
X164241076Y-89768095D01*
X164241076Y-89768095D02*
X164288695Y-89672857D01*
X164288695Y-89672857D02*
X164336314Y-89625238D01*
X164336314Y-89625238D02*
X164431552Y-89577619D01*
X164431552Y-89577619D02*
X164622028Y-89577619D01*
X164622028Y-89577619D02*
X164717266Y-89625238D01*
X164717266Y-89625238D02*
X164764885Y-89672857D01*
X164764885Y-89672857D02*
X164812504Y-89768095D01*
X164812504Y-89768095D02*
X164812504Y-89815714D01*
X164812504Y-89815714D02*
X164764885Y-89910952D01*
X164764885Y-89910952D02*
X164717266Y-89958571D01*
X164717266Y-89958571D02*
X164622028Y-90006190D01*
X164622028Y-90006190D02*
X164431552Y-90006190D01*
X164431552Y-90006190D02*
X164336314Y-90053809D01*
X164336314Y-90053809D02*
X164288695Y-90101428D01*
X164288695Y-90101428D02*
X164241076Y-90196666D01*
X164241076Y-90196666D02*
X164241076Y-90387142D01*
X164241076Y-90387142D02*
X164288695Y-90482380D01*
X164288695Y-90482380D02*
X164336314Y-90530000D01*
X164336314Y-90530000D02*
X164431552Y-90577619D01*
X164431552Y-90577619D02*
X164622028Y-90577619D01*
X164622028Y-90577619D02*
X164717266Y-90530000D01*
X164717266Y-90530000D02*
X164764885Y-90482380D01*
X164764885Y-90482380D02*
X164812504Y-90387142D01*
X164812504Y-90387142D02*
X164812504Y-90196666D01*
X164812504Y-90196666D02*
X164764885Y-90101428D01*
X164764885Y-90101428D02*
X164717266Y-90053809D01*
X164717266Y-90053809D02*
X164622028Y-90006190D01*
X162914342Y-87068819D02*
X162581009Y-86592628D01*
X162342914Y-87068819D02*
X162342914Y-86068819D01*
X162342914Y-86068819D02*
X162723866Y-86068819D01*
X162723866Y-86068819D02*
X162819104Y-86116438D01*
X162819104Y-86116438D02*
X162866723Y-86164057D01*
X162866723Y-86164057D02*
X162914342Y-86259295D01*
X162914342Y-86259295D02*
X162914342Y-86402152D01*
X162914342Y-86402152D02*
X162866723Y-86497390D01*
X162866723Y-86497390D02*
X162819104Y-86545009D01*
X162819104Y-86545009D02*
X162723866Y-86592628D01*
X162723866Y-86592628D02*
X162342914Y-86592628D01*
X163247676Y-86068819D02*
X163866723Y-86068819D01*
X163866723Y-86068819D02*
X163533390Y-86449771D01*
X163533390Y-86449771D02*
X163676247Y-86449771D01*
X163676247Y-86449771D02*
X163771485Y-86497390D01*
X163771485Y-86497390D02*
X163819104Y-86545009D01*
X163819104Y-86545009D02*
X163866723Y-86640247D01*
X163866723Y-86640247D02*
X163866723Y-86878342D01*
X163866723Y-86878342D02*
X163819104Y-86973580D01*
X163819104Y-86973580D02*
X163771485Y-87021200D01*
X163771485Y-87021200D02*
X163676247Y-87068819D01*
X163676247Y-87068819D02*
X163390533Y-87068819D01*
X163390533Y-87068819D02*
X163295295Y-87021200D01*
X163295295Y-87021200D02*
X163247676Y-86973580D01*
X164200057Y-86068819D02*
X164866723Y-86068819D01*
X164866723Y-86068819D02*
X164438152Y-87068819D01*
X159342342Y-83107419D02*
X159009009Y-82631228D01*
X158770914Y-83107419D02*
X158770914Y-82107419D01*
X158770914Y-82107419D02*
X159151866Y-82107419D01*
X159151866Y-82107419D02*
X159247104Y-82155038D01*
X159247104Y-82155038D02*
X159294723Y-82202657D01*
X159294723Y-82202657D02*
X159342342Y-82297895D01*
X159342342Y-82297895D02*
X159342342Y-82440752D01*
X159342342Y-82440752D02*
X159294723Y-82535990D01*
X159294723Y-82535990D02*
X159247104Y-82583609D01*
X159247104Y-82583609D02*
X159151866Y-82631228D01*
X159151866Y-82631228D02*
X158770914Y-82631228D01*
X159675676Y-82107419D02*
X160294723Y-82107419D01*
X160294723Y-82107419D02*
X159961390Y-82488371D01*
X159961390Y-82488371D02*
X160104247Y-82488371D01*
X160104247Y-82488371D02*
X160199485Y-82535990D01*
X160199485Y-82535990D02*
X160247104Y-82583609D01*
X160247104Y-82583609D02*
X160294723Y-82678847D01*
X160294723Y-82678847D02*
X160294723Y-82916942D01*
X160294723Y-82916942D02*
X160247104Y-83012180D01*
X160247104Y-83012180D02*
X160199485Y-83059800D01*
X160199485Y-83059800D02*
X160104247Y-83107419D01*
X160104247Y-83107419D02*
X159818533Y-83107419D01*
X159818533Y-83107419D02*
X159723295Y-83059800D01*
X159723295Y-83059800D02*
X159675676Y-83012180D01*
X161151866Y-82107419D02*
X160961390Y-82107419D01*
X160961390Y-82107419D02*
X160866152Y-82155038D01*
X160866152Y-82155038D02*
X160818533Y-82202657D01*
X160818533Y-82202657D02*
X160723295Y-82345514D01*
X160723295Y-82345514D02*
X160675676Y-82535990D01*
X160675676Y-82535990D02*
X160675676Y-82916942D01*
X160675676Y-82916942D02*
X160723295Y-83012180D01*
X160723295Y-83012180D02*
X160770914Y-83059800D01*
X160770914Y-83059800D02*
X160866152Y-83107419D01*
X160866152Y-83107419D02*
X161056628Y-83107419D01*
X161056628Y-83107419D02*
X161151866Y-83059800D01*
X161151866Y-83059800D02*
X161199485Y-83012180D01*
X161199485Y-83012180D02*
X161247104Y-82916942D01*
X161247104Y-82916942D02*
X161247104Y-82678847D01*
X161247104Y-82678847D02*
X161199485Y-82583609D01*
X161199485Y-82583609D02*
X161151866Y-82535990D01*
X161151866Y-82535990D02*
X161056628Y-82488371D01*
X161056628Y-82488371D02*
X160866152Y-82488371D01*
X160866152Y-82488371D02*
X160770914Y-82535990D01*
X160770914Y-82535990D02*
X160723295Y-82583609D01*
X160723295Y-82583609D02*
X160675676Y-82678847D01*
X159478742Y-79653019D02*
X159145409Y-79176828D01*
X158907314Y-79653019D02*
X158907314Y-78653019D01*
X158907314Y-78653019D02*
X159288266Y-78653019D01*
X159288266Y-78653019D02*
X159383504Y-78700638D01*
X159383504Y-78700638D02*
X159431123Y-78748257D01*
X159431123Y-78748257D02*
X159478742Y-78843495D01*
X159478742Y-78843495D02*
X159478742Y-78986352D01*
X159478742Y-78986352D02*
X159431123Y-79081590D01*
X159431123Y-79081590D02*
X159383504Y-79129209D01*
X159383504Y-79129209D02*
X159288266Y-79176828D01*
X159288266Y-79176828D02*
X158907314Y-79176828D01*
X159812076Y-78653019D02*
X160431123Y-78653019D01*
X160431123Y-78653019D02*
X160097790Y-79033971D01*
X160097790Y-79033971D02*
X160240647Y-79033971D01*
X160240647Y-79033971D02*
X160335885Y-79081590D01*
X160335885Y-79081590D02*
X160383504Y-79129209D01*
X160383504Y-79129209D02*
X160431123Y-79224447D01*
X160431123Y-79224447D02*
X160431123Y-79462542D01*
X160431123Y-79462542D02*
X160383504Y-79557780D01*
X160383504Y-79557780D02*
X160335885Y-79605400D01*
X160335885Y-79605400D02*
X160240647Y-79653019D01*
X160240647Y-79653019D02*
X159954933Y-79653019D01*
X159954933Y-79653019D02*
X159859695Y-79605400D01*
X159859695Y-79605400D02*
X159812076Y-79557780D01*
X161335885Y-78653019D02*
X160859695Y-78653019D01*
X160859695Y-78653019D02*
X160812076Y-79129209D01*
X160812076Y-79129209D02*
X160859695Y-79081590D01*
X160859695Y-79081590D02*
X160954933Y-79033971D01*
X160954933Y-79033971D02*
X161193028Y-79033971D01*
X161193028Y-79033971D02*
X161288266Y-79081590D01*
X161288266Y-79081590D02*
X161335885Y-79129209D01*
X161335885Y-79129209D02*
X161383504Y-79224447D01*
X161383504Y-79224447D02*
X161383504Y-79462542D01*
X161383504Y-79462542D02*
X161335885Y-79557780D01*
X161335885Y-79557780D02*
X161288266Y-79605400D01*
X161288266Y-79605400D02*
X161193028Y-79653019D01*
X161193028Y-79653019D02*
X160954933Y-79653019D01*
X160954933Y-79653019D02*
X160859695Y-79605400D01*
X160859695Y-79605400D02*
X160812076Y-79557780D01*
X153830542Y-96264619D02*
X153497209Y-95788428D01*
X153259114Y-96264619D02*
X153259114Y-95264619D01*
X153259114Y-95264619D02*
X153640066Y-95264619D01*
X153640066Y-95264619D02*
X153735304Y-95312238D01*
X153735304Y-95312238D02*
X153782923Y-95359857D01*
X153782923Y-95359857D02*
X153830542Y-95455095D01*
X153830542Y-95455095D02*
X153830542Y-95597952D01*
X153830542Y-95597952D02*
X153782923Y-95693190D01*
X153782923Y-95693190D02*
X153735304Y-95740809D01*
X153735304Y-95740809D02*
X153640066Y-95788428D01*
X153640066Y-95788428D02*
X153259114Y-95788428D01*
X154163876Y-95264619D02*
X154782923Y-95264619D01*
X154782923Y-95264619D02*
X154449590Y-95645571D01*
X154449590Y-95645571D02*
X154592447Y-95645571D01*
X154592447Y-95645571D02*
X154687685Y-95693190D01*
X154687685Y-95693190D02*
X154735304Y-95740809D01*
X154735304Y-95740809D02*
X154782923Y-95836047D01*
X154782923Y-95836047D02*
X154782923Y-96074142D01*
X154782923Y-96074142D02*
X154735304Y-96169380D01*
X154735304Y-96169380D02*
X154687685Y-96217000D01*
X154687685Y-96217000D02*
X154592447Y-96264619D01*
X154592447Y-96264619D02*
X154306733Y-96264619D01*
X154306733Y-96264619D02*
X154211495Y-96217000D01*
X154211495Y-96217000D02*
X154163876Y-96169380D01*
X155640066Y-95597952D02*
X155640066Y-96264619D01*
X155401971Y-95217000D02*
X155163876Y-95931285D01*
X155163876Y-95931285D02*
X155782923Y-95931285D01*
X150944342Y-89304019D02*
X150611009Y-88827828D01*
X150372914Y-89304019D02*
X150372914Y-88304019D01*
X150372914Y-88304019D02*
X150753866Y-88304019D01*
X150753866Y-88304019D02*
X150849104Y-88351638D01*
X150849104Y-88351638D02*
X150896723Y-88399257D01*
X150896723Y-88399257D02*
X150944342Y-88494495D01*
X150944342Y-88494495D02*
X150944342Y-88637352D01*
X150944342Y-88637352D02*
X150896723Y-88732590D01*
X150896723Y-88732590D02*
X150849104Y-88780209D01*
X150849104Y-88780209D02*
X150753866Y-88827828D01*
X150753866Y-88827828D02*
X150372914Y-88827828D01*
X151277676Y-88304019D02*
X151896723Y-88304019D01*
X151896723Y-88304019D02*
X151563390Y-88684971D01*
X151563390Y-88684971D02*
X151706247Y-88684971D01*
X151706247Y-88684971D02*
X151801485Y-88732590D01*
X151801485Y-88732590D02*
X151849104Y-88780209D01*
X151849104Y-88780209D02*
X151896723Y-88875447D01*
X151896723Y-88875447D02*
X151896723Y-89113542D01*
X151896723Y-89113542D02*
X151849104Y-89208780D01*
X151849104Y-89208780D02*
X151801485Y-89256400D01*
X151801485Y-89256400D02*
X151706247Y-89304019D01*
X151706247Y-89304019D02*
X151420533Y-89304019D01*
X151420533Y-89304019D02*
X151325295Y-89256400D01*
X151325295Y-89256400D02*
X151277676Y-89208780D01*
X152230057Y-88304019D02*
X152849104Y-88304019D01*
X152849104Y-88304019D02*
X152515771Y-88684971D01*
X152515771Y-88684971D02*
X152658628Y-88684971D01*
X152658628Y-88684971D02*
X152753866Y-88732590D01*
X152753866Y-88732590D02*
X152801485Y-88780209D01*
X152801485Y-88780209D02*
X152849104Y-88875447D01*
X152849104Y-88875447D02*
X152849104Y-89113542D01*
X152849104Y-89113542D02*
X152801485Y-89208780D01*
X152801485Y-89208780D02*
X152753866Y-89256400D01*
X152753866Y-89256400D02*
X152658628Y-89304019D01*
X152658628Y-89304019D02*
X152372914Y-89304019D01*
X152372914Y-89304019D02*
X152277676Y-89256400D01*
X152277676Y-89256400D02*
X152230057Y-89208780D01*
X150715742Y-84452619D02*
X150382409Y-83976428D01*
X150144314Y-84452619D02*
X150144314Y-83452619D01*
X150144314Y-83452619D02*
X150525266Y-83452619D01*
X150525266Y-83452619D02*
X150620504Y-83500238D01*
X150620504Y-83500238D02*
X150668123Y-83547857D01*
X150668123Y-83547857D02*
X150715742Y-83643095D01*
X150715742Y-83643095D02*
X150715742Y-83785952D01*
X150715742Y-83785952D02*
X150668123Y-83881190D01*
X150668123Y-83881190D02*
X150620504Y-83928809D01*
X150620504Y-83928809D02*
X150525266Y-83976428D01*
X150525266Y-83976428D02*
X150144314Y-83976428D01*
X151049076Y-83452619D02*
X151668123Y-83452619D01*
X151668123Y-83452619D02*
X151334790Y-83833571D01*
X151334790Y-83833571D02*
X151477647Y-83833571D01*
X151477647Y-83833571D02*
X151572885Y-83881190D01*
X151572885Y-83881190D02*
X151620504Y-83928809D01*
X151620504Y-83928809D02*
X151668123Y-84024047D01*
X151668123Y-84024047D02*
X151668123Y-84262142D01*
X151668123Y-84262142D02*
X151620504Y-84357380D01*
X151620504Y-84357380D02*
X151572885Y-84405000D01*
X151572885Y-84405000D02*
X151477647Y-84452619D01*
X151477647Y-84452619D02*
X151191933Y-84452619D01*
X151191933Y-84452619D02*
X151096695Y-84405000D01*
X151096695Y-84405000D02*
X151049076Y-84357380D01*
X152620504Y-84452619D02*
X152049076Y-84452619D01*
X152334790Y-84452619D02*
X152334790Y-83452619D01*
X152334790Y-83452619D02*
X152239552Y-83595476D01*
X152239552Y-83595476D02*
X152144314Y-83690714D01*
X152144314Y-83690714D02*
X152049076Y-83738333D01*
X155440142Y-83208019D02*
X155106809Y-82731828D01*
X154868714Y-83208019D02*
X154868714Y-82208019D01*
X154868714Y-82208019D02*
X155249666Y-82208019D01*
X155249666Y-82208019D02*
X155344904Y-82255638D01*
X155344904Y-82255638D02*
X155392523Y-82303257D01*
X155392523Y-82303257D02*
X155440142Y-82398495D01*
X155440142Y-82398495D02*
X155440142Y-82541352D01*
X155440142Y-82541352D02*
X155392523Y-82636590D01*
X155392523Y-82636590D02*
X155344904Y-82684209D01*
X155344904Y-82684209D02*
X155249666Y-82731828D01*
X155249666Y-82731828D02*
X154868714Y-82731828D01*
X155773476Y-82208019D02*
X156392523Y-82208019D01*
X156392523Y-82208019D02*
X156059190Y-82588971D01*
X156059190Y-82588971D02*
X156202047Y-82588971D01*
X156202047Y-82588971D02*
X156297285Y-82636590D01*
X156297285Y-82636590D02*
X156344904Y-82684209D01*
X156344904Y-82684209D02*
X156392523Y-82779447D01*
X156392523Y-82779447D02*
X156392523Y-83017542D01*
X156392523Y-83017542D02*
X156344904Y-83112780D01*
X156344904Y-83112780D02*
X156297285Y-83160400D01*
X156297285Y-83160400D02*
X156202047Y-83208019D01*
X156202047Y-83208019D02*
X155916333Y-83208019D01*
X155916333Y-83208019D02*
X155821095Y-83160400D01*
X155821095Y-83160400D02*
X155773476Y-83112780D01*
X157011571Y-82208019D02*
X157106809Y-82208019D01*
X157106809Y-82208019D02*
X157202047Y-82255638D01*
X157202047Y-82255638D02*
X157249666Y-82303257D01*
X157249666Y-82303257D02*
X157297285Y-82398495D01*
X157297285Y-82398495D02*
X157344904Y-82588971D01*
X157344904Y-82588971D02*
X157344904Y-82827066D01*
X157344904Y-82827066D02*
X157297285Y-83017542D01*
X157297285Y-83017542D02*
X157249666Y-83112780D01*
X157249666Y-83112780D02*
X157202047Y-83160400D01*
X157202047Y-83160400D02*
X157106809Y-83208019D01*
X157106809Y-83208019D02*
X157011571Y-83208019D01*
X157011571Y-83208019D02*
X156916333Y-83160400D01*
X156916333Y-83160400D02*
X156868714Y-83112780D01*
X156868714Y-83112780D02*
X156821095Y-83017542D01*
X156821095Y-83017542D02*
X156773476Y-82827066D01*
X156773476Y-82827066D02*
X156773476Y-82588971D01*
X156773476Y-82588971D02*
X156821095Y-82398495D01*
X156821095Y-82398495D02*
X156868714Y-82303257D01*
X156868714Y-82303257D02*
X156916333Y-82255638D01*
X156916333Y-82255638D02*
X157011571Y-82208019D01*
X154008342Y-79943419D02*
X153675009Y-79467228D01*
X153436914Y-79943419D02*
X153436914Y-78943419D01*
X153436914Y-78943419D02*
X153817866Y-78943419D01*
X153817866Y-78943419D02*
X153913104Y-78991038D01*
X153913104Y-78991038D02*
X153960723Y-79038657D01*
X153960723Y-79038657D02*
X154008342Y-79133895D01*
X154008342Y-79133895D02*
X154008342Y-79276752D01*
X154008342Y-79276752D02*
X153960723Y-79371990D01*
X153960723Y-79371990D02*
X153913104Y-79419609D01*
X153913104Y-79419609D02*
X153817866Y-79467228D01*
X153817866Y-79467228D02*
X153436914Y-79467228D01*
X154389295Y-79038657D02*
X154436914Y-78991038D01*
X154436914Y-78991038D02*
X154532152Y-78943419D01*
X154532152Y-78943419D02*
X154770247Y-78943419D01*
X154770247Y-78943419D02*
X154865485Y-78991038D01*
X154865485Y-78991038D02*
X154913104Y-79038657D01*
X154913104Y-79038657D02*
X154960723Y-79133895D01*
X154960723Y-79133895D02*
X154960723Y-79229133D01*
X154960723Y-79229133D02*
X154913104Y-79371990D01*
X154913104Y-79371990D02*
X154341676Y-79943419D01*
X154341676Y-79943419D02*
X154960723Y-79943419D01*
X155436914Y-79943419D02*
X155627390Y-79943419D01*
X155627390Y-79943419D02*
X155722628Y-79895800D01*
X155722628Y-79895800D02*
X155770247Y-79848180D01*
X155770247Y-79848180D02*
X155865485Y-79705323D01*
X155865485Y-79705323D02*
X155913104Y-79514847D01*
X155913104Y-79514847D02*
X155913104Y-79133895D01*
X155913104Y-79133895D02*
X155865485Y-79038657D01*
X155865485Y-79038657D02*
X155817866Y-78991038D01*
X155817866Y-78991038D02*
X155722628Y-78943419D01*
X155722628Y-78943419D02*
X155532152Y-78943419D01*
X155532152Y-78943419D02*
X155436914Y-78991038D01*
X155436914Y-78991038D02*
X155389295Y-79038657D01*
X155389295Y-79038657D02*
X155341676Y-79133895D01*
X155341676Y-79133895D02*
X155341676Y-79371990D01*
X155341676Y-79371990D02*
X155389295Y-79467228D01*
X155389295Y-79467228D02*
X155436914Y-79514847D01*
X155436914Y-79514847D02*
X155532152Y-79562466D01*
X155532152Y-79562466D02*
X155722628Y-79562466D01*
X155722628Y-79562466D02*
X155817866Y-79514847D01*
X155817866Y-79514847D02*
X155865485Y-79467228D01*
X155865485Y-79467228D02*
X155913104Y-79371990D01*
X164161742Y-112645619D02*
X163828409Y-112169428D01*
X163590314Y-112645619D02*
X163590314Y-111645619D01*
X163590314Y-111645619D02*
X163971266Y-111645619D01*
X163971266Y-111645619D02*
X164066504Y-111693238D01*
X164066504Y-111693238D02*
X164114123Y-111740857D01*
X164114123Y-111740857D02*
X164161742Y-111836095D01*
X164161742Y-111836095D02*
X164161742Y-111978952D01*
X164161742Y-111978952D02*
X164114123Y-112074190D01*
X164114123Y-112074190D02*
X164066504Y-112121809D01*
X164066504Y-112121809D02*
X163971266Y-112169428D01*
X163971266Y-112169428D02*
X163590314Y-112169428D01*
X164542695Y-111740857D02*
X164590314Y-111693238D01*
X164590314Y-111693238D02*
X164685552Y-111645619D01*
X164685552Y-111645619D02*
X164923647Y-111645619D01*
X164923647Y-111645619D02*
X165018885Y-111693238D01*
X165018885Y-111693238D02*
X165066504Y-111740857D01*
X165066504Y-111740857D02*
X165114123Y-111836095D01*
X165114123Y-111836095D02*
X165114123Y-111931333D01*
X165114123Y-111931333D02*
X165066504Y-112074190D01*
X165066504Y-112074190D02*
X164495076Y-112645619D01*
X164495076Y-112645619D02*
X165114123Y-112645619D01*
X165685552Y-112074190D02*
X165590314Y-112026571D01*
X165590314Y-112026571D02*
X165542695Y-111978952D01*
X165542695Y-111978952D02*
X165495076Y-111883714D01*
X165495076Y-111883714D02*
X165495076Y-111836095D01*
X165495076Y-111836095D02*
X165542695Y-111740857D01*
X165542695Y-111740857D02*
X165590314Y-111693238D01*
X165590314Y-111693238D02*
X165685552Y-111645619D01*
X165685552Y-111645619D02*
X165876028Y-111645619D01*
X165876028Y-111645619D02*
X165971266Y-111693238D01*
X165971266Y-111693238D02*
X166018885Y-111740857D01*
X166018885Y-111740857D02*
X166066504Y-111836095D01*
X166066504Y-111836095D02*
X166066504Y-111883714D01*
X166066504Y-111883714D02*
X166018885Y-111978952D01*
X166018885Y-111978952D02*
X165971266Y-112026571D01*
X165971266Y-112026571D02*
X165876028Y-112074190D01*
X165876028Y-112074190D02*
X165685552Y-112074190D01*
X165685552Y-112074190D02*
X165590314Y-112121809D01*
X165590314Y-112121809D02*
X165542695Y-112169428D01*
X165542695Y-112169428D02*
X165495076Y-112264666D01*
X165495076Y-112264666D02*
X165495076Y-112455142D01*
X165495076Y-112455142D02*
X165542695Y-112550380D01*
X165542695Y-112550380D02*
X165590314Y-112598000D01*
X165590314Y-112598000D02*
X165685552Y-112645619D01*
X165685552Y-112645619D02*
X165876028Y-112645619D01*
X165876028Y-112645619D02*
X165971266Y-112598000D01*
X165971266Y-112598000D02*
X166018885Y-112550380D01*
X166018885Y-112550380D02*
X166066504Y-112455142D01*
X166066504Y-112455142D02*
X166066504Y-112264666D01*
X166066504Y-112264666D02*
X166018885Y-112169428D01*
X166018885Y-112169428D02*
X165971266Y-112121809D01*
X165971266Y-112121809D02*
X165876028Y-112074190D01*
X154603842Y-104145219D02*
X154270509Y-103669028D01*
X154032414Y-104145219D02*
X154032414Y-103145219D01*
X154032414Y-103145219D02*
X154413366Y-103145219D01*
X154413366Y-103145219D02*
X154508604Y-103192838D01*
X154508604Y-103192838D02*
X154556223Y-103240457D01*
X154556223Y-103240457D02*
X154603842Y-103335695D01*
X154603842Y-103335695D02*
X154603842Y-103478552D01*
X154603842Y-103478552D02*
X154556223Y-103573790D01*
X154556223Y-103573790D02*
X154508604Y-103621409D01*
X154508604Y-103621409D02*
X154413366Y-103669028D01*
X154413366Y-103669028D02*
X154032414Y-103669028D01*
X154984795Y-103240457D02*
X155032414Y-103192838D01*
X155032414Y-103192838D02*
X155127652Y-103145219D01*
X155127652Y-103145219D02*
X155365747Y-103145219D01*
X155365747Y-103145219D02*
X155460985Y-103192838D01*
X155460985Y-103192838D02*
X155508604Y-103240457D01*
X155508604Y-103240457D02*
X155556223Y-103335695D01*
X155556223Y-103335695D02*
X155556223Y-103430933D01*
X155556223Y-103430933D02*
X155508604Y-103573790D01*
X155508604Y-103573790D02*
X154937176Y-104145219D01*
X154937176Y-104145219D02*
X155556223Y-104145219D01*
X155889557Y-103145219D02*
X156556223Y-103145219D01*
X156556223Y-103145219D02*
X156127652Y-104145219D01*
X155848442Y-120976819D02*
X155515109Y-120500628D01*
X155277014Y-120976819D02*
X155277014Y-119976819D01*
X155277014Y-119976819D02*
X155657966Y-119976819D01*
X155657966Y-119976819D02*
X155753204Y-120024438D01*
X155753204Y-120024438D02*
X155800823Y-120072057D01*
X155800823Y-120072057D02*
X155848442Y-120167295D01*
X155848442Y-120167295D02*
X155848442Y-120310152D01*
X155848442Y-120310152D02*
X155800823Y-120405390D01*
X155800823Y-120405390D02*
X155753204Y-120453009D01*
X155753204Y-120453009D02*
X155657966Y-120500628D01*
X155657966Y-120500628D02*
X155277014Y-120500628D01*
X156229395Y-120072057D02*
X156277014Y-120024438D01*
X156277014Y-120024438D02*
X156372252Y-119976819D01*
X156372252Y-119976819D02*
X156610347Y-119976819D01*
X156610347Y-119976819D02*
X156705585Y-120024438D01*
X156705585Y-120024438D02*
X156753204Y-120072057D01*
X156753204Y-120072057D02*
X156800823Y-120167295D01*
X156800823Y-120167295D02*
X156800823Y-120262533D01*
X156800823Y-120262533D02*
X156753204Y-120405390D01*
X156753204Y-120405390D02*
X156181776Y-120976819D01*
X156181776Y-120976819D02*
X156800823Y-120976819D01*
X157657966Y-119976819D02*
X157467490Y-119976819D01*
X157467490Y-119976819D02*
X157372252Y-120024438D01*
X157372252Y-120024438D02*
X157324633Y-120072057D01*
X157324633Y-120072057D02*
X157229395Y-120214914D01*
X157229395Y-120214914D02*
X157181776Y-120405390D01*
X157181776Y-120405390D02*
X157181776Y-120786342D01*
X157181776Y-120786342D02*
X157229395Y-120881580D01*
X157229395Y-120881580D02*
X157277014Y-120929200D01*
X157277014Y-120929200D02*
X157372252Y-120976819D01*
X157372252Y-120976819D02*
X157562728Y-120976819D01*
X157562728Y-120976819D02*
X157657966Y-120929200D01*
X157657966Y-120929200D02*
X157705585Y-120881580D01*
X157705585Y-120881580D02*
X157753204Y-120786342D01*
X157753204Y-120786342D02*
X157753204Y-120548247D01*
X157753204Y-120548247D02*
X157705585Y-120453009D01*
X157705585Y-120453009D02*
X157657966Y-120405390D01*
X157657966Y-120405390D02*
X157562728Y-120357771D01*
X157562728Y-120357771D02*
X157372252Y-120357771D01*
X157372252Y-120357771D02*
X157277014Y-120405390D01*
X157277014Y-120405390D02*
X157229395Y-120453009D01*
X157229395Y-120453009D02*
X157181776Y-120548247D01*
X151934942Y-116101019D02*
X151601609Y-115624828D01*
X151363514Y-116101019D02*
X151363514Y-115101019D01*
X151363514Y-115101019D02*
X151744466Y-115101019D01*
X151744466Y-115101019D02*
X151839704Y-115148638D01*
X151839704Y-115148638D02*
X151887323Y-115196257D01*
X151887323Y-115196257D02*
X151934942Y-115291495D01*
X151934942Y-115291495D02*
X151934942Y-115434352D01*
X151934942Y-115434352D02*
X151887323Y-115529590D01*
X151887323Y-115529590D02*
X151839704Y-115577209D01*
X151839704Y-115577209D02*
X151744466Y-115624828D01*
X151744466Y-115624828D02*
X151363514Y-115624828D01*
X152315895Y-115196257D02*
X152363514Y-115148638D01*
X152363514Y-115148638D02*
X152458752Y-115101019D01*
X152458752Y-115101019D02*
X152696847Y-115101019D01*
X152696847Y-115101019D02*
X152792085Y-115148638D01*
X152792085Y-115148638D02*
X152839704Y-115196257D01*
X152839704Y-115196257D02*
X152887323Y-115291495D01*
X152887323Y-115291495D02*
X152887323Y-115386733D01*
X152887323Y-115386733D02*
X152839704Y-115529590D01*
X152839704Y-115529590D02*
X152268276Y-116101019D01*
X152268276Y-116101019D02*
X152887323Y-116101019D01*
X153792085Y-115101019D02*
X153315895Y-115101019D01*
X153315895Y-115101019D02*
X153268276Y-115577209D01*
X153268276Y-115577209D02*
X153315895Y-115529590D01*
X153315895Y-115529590D02*
X153411133Y-115481971D01*
X153411133Y-115481971D02*
X153649228Y-115481971D01*
X153649228Y-115481971D02*
X153744466Y-115529590D01*
X153744466Y-115529590D02*
X153792085Y-115577209D01*
X153792085Y-115577209D02*
X153839704Y-115672447D01*
X153839704Y-115672447D02*
X153839704Y-115910542D01*
X153839704Y-115910542D02*
X153792085Y-116005780D01*
X153792085Y-116005780D02*
X153744466Y-116053400D01*
X153744466Y-116053400D02*
X153649228Y-116101019D01*
X153649228Y-116101019D02*
X153411133Y-116101019D01*
X153411133Y-116101019D02*
X153315895Y-116053400D01*
X153315895Y-116053400D02*
X153268276Y-116005780D01*
X152493742Y-113357819D02*
X152160409Y-112881628D01*
X151922314Y-113357819D02*
X151922314Y-112357819D01*
X151922314Y-112357819D02*
X152303266Y-112357819D01*
X152303266Y-112357819D02*
X152398504Y-112405438D01*
X152398504Y-112405438D02*
X152446123Y-112453057D01*
X152446123Y-112453057D02*
X152493742Y-112548295D01*
X152493742Y-112548295D02*
X152493742Y-112691152D01*
X152493742Y-112691152D02*
X152446123Y-112786390D01*
X152446123Y-112786390D02*
X152398504Y-112834009D01*
X152398504Y-112834009D02*
X152303266Y-112881628D01*
X152303266Y-112881628D02*
X151922314Y-112881628D01*
X152874695Y-112453057D02*
X152922314Y-112405438D01*
X152922314Y-112405438D02*
X153017552Y-112357819D01*
X153017552Y-112357819D02*
X153255647Y-112357819D01*
X153255647Y-112357819D02*
X153350885Y-112405438D01*
X153350885Y-112405438D02*
X153398504Y-112453057D01*
X153398504Y-112453057D02*
X153446123Y-112548295D01*
X153446123Y-112548295D02*
X153446123Y-112643533D01*
X153446123Y-112643533D02*
X153398504Y-112786390D01*
X153398504Y-112786390D02*
X152827076Y-113357819D01*
X152827076Y-113357819D02*
X153446123Y-113357819D01*
X154303266Y-112691152D02*
X154303266Y-113357819D01*
X154065171Y-112310200D02*
X153827076Y-113024485D01*
X153827076Y-113024485D02*
X154446123Y-113024485D01*
X155061042Y-108708619D02*
X154727709Y-108232428D01*
X154489614Y-108708619D02*
X154489614Y-107708619D01*
X154489614Y-107708619D02*
X154870566Y-107708619D01*
X154870566Y-107708619D02*
X154965804Y-107756238D01*
X154965804Y-107756238D02*
X155013423Y-107803857D01*
X155013423Y-107803857D02*
X155061042Y-107899095D01*
X155061042Y-107899095D02*
X155061042Y-108041952D01*
X155061042Y-108041952D02*
X155013423Y-108137190D01*
X155013423Y-108137190D02*
X154965804Y-108184809D01*
X154965804Y-108184809D02*
X154870566Y-108232428D01*
X154870566Y-108232428D02*
X154489614Y-108232428D01*
X155441995Y-107803857D02*
X155489614Y-107756238D01*
X155489614Y-107756238D02*
X155584852Y-107708619D01*
X155584852Y-107708619D02*
X155822947Y-107708619D01*
X155822947Y-107708619D02*
X155918185Y-107756238D01*
X155918185Y-107756238D02*
X155965804Y-107803857D01*
X155965804Y-107803857D02*
X156013423Y-107899095D01*
X156013423Y-107899095D02*
X156013423Y-107994333D01*
X156013423Y-107994333D02*
X155965804Y-108137190D01*
X155965804Y-108137190D02*
X155394376Y-108708619D01*
X155394376Y-108708619D02*
X156013423Y-108708619D01*
X156346757Y-107708619D02*
X156965804Y-107708619D01*
X156965804Y-107708619D02*
X156632471Y-108089571D01*
X156632471Y-108089571D02*
X156775328Y-108089571D01*
X156775328Y-108089571D02*
X156870566Y-108137190D01*
X156870566Y-108137190D02*
X156918185Y-108184809D01*
X156918185Y-108184809D02*
X156965804Y-108280047D01*
X156965804Y-108280047D02*
X156965804Y-108518142D01*
X156965804Y-108518142D02*
X156918185Y-108613380D01*
X156918185Y-108613380D02*
X156870566Y-108661000D01*
X156870566Y-108661000D02*
X156775328Y-108708619D01*
X156775328Y-108708619D02*
X156489614Y-108708619D01*
X156489614Y-108708619D02*
X156394376Y-108661000D01*
X156394376Y-108661000D02*
X156346757Y-108613380D01*
X159351742Y-101623019D02*
X159018409Y-101146828D01*
X158780314Y-101623019D02*
X158780314Y-100623019D01*
X158780314Y-100623019D02*
X159161266Y-100623019D01*
X159161266Y-100623019D02*
X159256504Y-100670638D01*
X159256504Y-100670638D02*
X159304123Y-100718257D01*
X159304123Y-100718257D02*
X159351742Y-100813495D01*
X159351742Y-100813495D02*
X159351742Y-100956352D01*
X159351742Y-100956352D02*
X159304123Y-101051590D01*
X159304123Y-101051590D02*
X159256504Y-101099209D01*
X159256504Y-101099209D02*
X159161266Y-101146828D01*
X159161266Y-101146828D02*
X158780314Y-101146828D01*
X159732695Y-100718257D02*
X159780314Y-100670638D01*
X159780314Y-100670638D02*
X159875552Y-100623019D01*
X159875552Y-100623019D02*
X160113647Y-100623019D01*
X160113647Y-100623019D02*
X160208885Y-100670638D01*
X160208885Y-100670638D02*
X160256504Y-100718257D01*
X160256504Y-100718257D02*
X160304123Y-100813495D01*
X160304123Y-100813495D02*
X160304123Y-100908733D01*
X160304123Y-100908733D02*
X160256504Y-101051590D01*
X160256504Y-101051590D02*
X159685076Y-101623019D01*
X159685076Y-101623019D02*
X160304123Y-101623019D01*
X160685076Y-100718257D02*
X160732695Y-100670638D01*
X160732695Y-100670638D02*
X160827933Y-100623019D01*
X160827933Y-100623019D02*
X161066028Y-100623019D01*
X161066028Y-100623019D02*
X161161266Y-100670638D01*
X161161266Y-100670638D02*
X161208885Y-100718257D01*
X161208885Y-100718257D02*
X161256504Y-100813495D01*
X161256504Y-100813495D02*
X161256504Y-100908733D01*
X161256504Y-100908733D02*
X161208885Y-101051590D01*
X161208885Y-101051590D02*
X160637457Y-101623019D01*
X160637457Y-101623019D02*
X161256504Y-101623019D01*
X159912442Y-117397419D02*
X159579109Y-116921228D01*
X159341014Y-117397419D02*
X159341014Y-116397419D01*
X159341014Y-116397419D02*
X159721966Y-116397419D01*
X159721966Y-116397419D02*
X159817204Y-116445038D01*
X159817204Y-116445038D02*
X159864823Y-116492657D01*
X159864823Y-116492657D02*
X159912442Y-116587895D01*
X159912442Y-116587895D02*
X159912442Y-116730752D01*
X159912442Y-116730752D02*
X159864823Y-116825990D01*
X159864823Y-116825990D02*
X159817204Y-116873609D01*
X159817204Y-116873609D02*
X159721966Y-116921228D01*
X159721966Y-116921228D02*
X159341014Y-116921228D01*
X160293395Y-116492657D02*
X160341014Y-116445038D01*
X160341014Y-116445038D02*
X160436252Y-116397419D01*
X160436252Y-116397419D02*
X160674347Y-116397419D01*
X160674347Y-116397419D02*
X160769585Y-116445038D01*
X160769585Y-116445038D02*
X160817204Y-116492657D01*
X160817204Y-116492657D02*
X160864823Y-116587895D01*
X160864823Y-116587895D02*
X160864823Y-116683133D01*
X160864823Y-116683133D02*
X160817204Y-116825990D01*
X160817204Y-116825990D02*
X160245776Y-117397419D01*
X160245776Y-117397419D02*
X160864823Y-117397419D01*
X161817204Y-117397419D02*
X161245776Y-117397419D01*
X161531490Y-117397419D02*
X161531490Y-116397419D01*
X161531490Y-116397419D02*
X161436252Y-116540276D01*
X161436252Y-116540276D02*
X161341014Y-116635514D01*
X161341014Y-116635514D02*
X161245776Y-116683133D01*
X159658442Y-113968419D02*
X159325109Y-113492228D01*
X159087014Y-113968419D02*
X159087014Y-112968419D01*
X159087014Y-112968419D02*
X159467966Y-112968419D01*
X159467966Y-112968419D02*
X159563204Y-113016038D01*
X159563204Y-113016038D02*
X159610823Y-113063657D01*
X159610823Y-113063657D02*
X159658442Y-113158895D01*
X159658442Y-113158895D02*
X159658442Y-113301752D01*
X159658442Y-113301752D02*
X159610823Y-113396990D01*
X159610823Y-113396990D02*
X159563204Y-113444609D01*
X159563204Y-113444609D02*
X159467966Y-113492228D01*
X159467966Y-113492228D02*
X159087014Y-113492228D01*
X160039395Y-113063657D02*
X160087014Y-113016038D01*
X160087014Y-113016038D02*
X160182252Y-112968419D01*
X160182252Y-112968419D02*
X160420347Y-112968419D01*
X160420347Y-112968419D02*
X160515585Y-113016038D01*
X160515585Y-113016038D02*
X160563204Y-113063657D01*
X160563204Y-113063657D02*
X160610823Y-113158895D01*
X160610823Y-113158895D02*
X160610823Y-113254133D01*
X160610823Y-113254133D02*
X160563204Y-113396990D01*
X160563204Y-113396990D02*
X159991776Y-113968419D01*
X159991776Y-113968419D02*
X160610823Y-113968419D01*
X161229871Y-112968419D02*
X161325109Y-112968419D01*
X161325109Y-112968419D02*
X161420347Y-113016038D01*
X161420347Y-113016038D02*
X161467966Y-113063657D01*
X161467966Y-113063657D02*
X161515585Y-113158895D01*
X161515585Y-113158895D02*
X161563204Y-113349371D01*
X161563204Y-113349371D02*
X161563204Y-113587466D01*
X161563204Y-113587466D02*
X161515585Y-113777942D01*
X161515585Y-113777942D02*
X161467966Y-113873180D01*
X161467966Y-113873180D02*
X161420347Y-113920800D01*
X161420347Y-113920800D02*
X161325109Y-113968419D01*
X161325109Y-113968419D02*
X161229871Y-113968419D01*
X161229871Y-113968419D02*
X161134633Y-113920800D01*
X161134633Y-113920800D02*
X161087014Y-113873180D01*
X161087014Y-113873180D02*
X161039395Y-113777942D01*
X161039395Y-113777942D02*
X160991776Y-113587466D01*
X160991776Y-113587466D02*
X160991776Y-113349371D01*
X160991776Y-113349371D02*
X161039395Y-113158895D01*
X161039395Y-113158895D02*
X161087014Y-113063657D01*
X161087014Y-113063657D02*
X161134633Y-113016038D01*
X161134633Y-113016038D02*
X161229871Y-112968419D01*
X156379942Y-110157419D02*
X156046609Y-109681228D01*
X155808514Y-110157419D02*
X155808514Y-109157419D01*
X155808514Y-109157419D02*
X156189466Y-109157419D01*
X156189466Y-109157419D02*
X156284704Y-109205038D01*
X156284704Y-109205038D02*
X156332323Y-109252657D01*
X156332323Y-109252657D02*
X156379942Y-109347895D01*
X156379942Y-109347895D02*
X156379942Y-109490752D01*
X156379942Y-109490752D02*
X156332323Y-109585990D01*
X156332323Y-109585990D02*
X156284704Y-109633609D01*
X156284704Y-109633609D02*
X156189466Y-109681228D01*
X156189466Y-109681228D02*
X155808514Y-109681228D01*
X157332323Y-110157419D02*
X156760895Y-110157419D01*
X157046609Y-110157419D02*
X157046609Y-109157419D01*
X157046609Y-109157419D02*
X156951371Y-109300276D01*
X156951371Y-109300276D02*
X156856133Y-109395514D01*
X156856133Y-109395514D02*
X156760895Y-109443133D01*
X157808514Y-110157419D02*
X157998990Y-110157419D01*
X157998990Y-110157419D02*
X158094228Y-110109800D01*
X158094228Y-110109800D02*
X158141847Y-110062180D01*
X158141847Y-110062180D02*
X158237085Y-109919323D01*
X158237085Y-109919323D02*
X158284704Y-109728847D01*
X158284704Y-109728847D02*
X158284704Y-109347895D01*
X158284704Y-109347895D02*
X158237085Y-109252657D01*
X158237085Y-109252657D02*
X158189466Y-109205038D01*
X158189466Y-109205038D02*
X158094228Y-109157419D01*
X158094228Y-109157419D02*
X157903752Y-109157419D01*
X157903752Y-109157419D02*
X157808514Y-109205038D01*
X157808514Y-109205038D02*
X157760895Y-109252657D01*
X157760895Y-109252657D02*
X157713276Y-109347895D01*
X157713276Y-109347895D02*
X157713276Y-109585990D01*
X157713276Y-109585990D02*
X157760895Y-109681228D01*
X157760895Y-109681228D02*
X157808514Y-109728847D01*
X157808514Y-109728847D02*
X157903752Y-109776466D01*
X157903752Y-109776466D02*
X158094228Y-109776466D01*
X158094228Y-109776466D02*
X158189466Y-109728847D01*
X158189466Y-109728847D02*
X158237085Y-109681228D01*
X158237085Y-109681228D02*
X158284704Y-109585990D01*
X158820242Y-105561019D02*
X158486909Y-105084828D01*
X158248814Y-105561019D02*
X158248814Y-104561019D01*
X158248814Y-104561019D02*
X158629766Y-104561019D01*
X158629766Y-104561019D02*
X158725004Y-104608638D01*
X158725004Y-104608638D02*
X158772623Y-104656257D01*
X158772623Y-104656257D02*
X158820242Y-104751495D01*
X158820242Y-104751495D02*
X158820242Y-104894352D01*
X158820242Y-104894352D02*
X158772623Y-104989590D01*
X158772623Y-104989590D02*
X158725004Y-105037209D01*
X158725004Y-105037209D02*
X158629766Y-105084828D01*
X158629766Y-105084828D02*
X158248814Y-105084828D01*
X159772623Y-105561019D02*
X159201195Y-105561019D01*
X159486909Y-105561019D02*
X159486909Y-104561019D01*
X159486909Y-104561019D02*
X159391671Y-104703876D01*
X159391671Y-104703876D02*
X159296433Y-104799114D01*
X159296433Y-104799114D02*
X159201195Y-104846733D01*
X160344052Y-104989590D02*
X160248814Y-104941971D01*
X160248814Y-104941971D02*
X160201195Y-104894352D01*
X160201195Y-104894352D02*
X160153576Y-104799114D01*
X160153576Y-104799114D02*
X160153576Y-104751495D01*
X160153576Y-104751495D02*
X160201195Y-104656257D01*
X160201195Y-104656257D02*
X160248814Y-104608638D01*
X160248814Y-104608638D02*
X160344052Y-104561019D01*
X160344052Y-104561019D02*
X160534528Y-104561019D01*
X160534528Y-104561019D02*
X160629766Y-104608638D01*
X160629766Y-104608638D02*
X160677385Y-104656257D01*
X160677385Y-104656257D02*
X160725004Y-104751495D01*
X160725004Y-104751495D02*
X160725004Y-104799114D01*
X160725004Y-104799114D02*
X160677385Y-104894352D01*
X160677385Y-104894352D02*
X160629766Y-104941971D01*
X160629766Y-104941971D02*
X160534528Y-104989590D01*
X160534528Y-104989590D02*
X160344052Y-104989590D01*
X160344052Y-104989590D02*
X160248814Y-105037209D01*
X160248814Y-105037209D02*
X160201195Y-105084828D01*
X160201195Y-105084828D02*
X160153576Y-105180066D01*
X160153576Y-105180066D02*
X160153576Y-105370542D01*
X160153576Y-105370542D02*
X160201195Y-105465780D01*
X160201195Y-105465780D02*
X160248814Y-105513400D01*
X160248814Y-105513400D02*
X160344052Y-105561019D01*
X160344052Y-105561019D02*
X160534528Y-105561019D01*
X160534528Y-105561019D02*
X160629766Y-105513400D01*
X160629766Y-105513400D02*
X160677385Y-105465780D01*
X160677385Y-105465780D02*
X160725004Y-105370542D01*
X160725004Y-105370542D02*
X160725004Y-105180066D01*
X160725004Y-105180066D02*
X160677385Y-105084828D01*
X160677385Y-105084828D02*
X160629766Y-105037209D01*
X160629766Y-105037209D02*
X160534528Y-104989590D01*
X161614242Y-68882419D02*
X161280909Y-68406228D01*
X161042814Y-68882419D02*
X161042814Y-67882419D01*
X161042814Y-67882419D02*
X161423766Y-67882419D01*
X161423766Y-67882419D02*
X161519004Y-67930038D01*
X161519004Y-67930038D02*
X161566623Y-67977657D01*
X161566623Y-67977657D02*
X161614242Y-68072895D01*
X161614242Y-68072895D02*
X161614242Y-68215752D01*
X161614242Y-68215752D02*
X161566623Y-68310990D01*
X161566623Y-68310990D02*
X161519004Y-68358609D01*
X161519004Y-68358609D02*
X161423766Y-68406228D01*
X161423766Y-68406228D02*
X161042814Y-68406228D01*
X162566623Y-68882419D02*
X161995195Y-68882419D01*
X162280909Y-68882419D02*
X162280909Y-67882419D01*
X162280909Y-67882419D02*
X162185671Y-68025276D01*
X162185671Y-68025276D02*
X162090433Y-68120514D01*
X162090433Y-68120514D02*
X161995195Y-68168133D01*
X162899957Y-67882419D02*
X163566623Y-67882419D01*
X163566623Y-67882419D02*
X163138052Y-68882419D01*
X157982042Y-64717819D02*
X157648709Y-64241628D01*
X157410614Y-64717819D02*
X157410614Y-63717819D01*
X157410614Y-63717819D02*
X157791566Y-63717819D01*
X157791566Y-63717819D02*
X157886804Y-63765438D01*
X157886804Y-63765438D02*
X157934423Y-63813057D01*
X157934423Y-63813057D02*
X157982042Y-63908295D01*
X157982042Y-63908295D02*
X157982042Y-64051152D01*
X157982042Y-64051152D02*
X157934423Y-64146390D01*
X157934423Y-64146390D02*
X157886804Y-64194009D01*
X157886804Y-64194009D02*
X157791566Y-64241628D01*
X157791566Y-64241628D02*
X157410614Y-64241628D01*
X158934423Y-64717819D02*
X158362995Y-64717819D01*
X158648709Y-64717819D02*
X158648709Y-63717819D01*
X158648709Y-63717819D02*
X158553471Y-63860676D01*
X158553471Y-63860676D02*
X158458233Y-63955914D01*
X158458233Y-63955914D02*
X158362995Y-64003533D01*
X159791566Y-63717819D02*
X159601090Y-63717819D01*
X159601090Y-63717819D02*
X159505852Y-63765438D01*
X159505852Y-63765438D02*
X159458233Y-63813057D01*
X159458233Y-63813057D02*
X159362995Y-63955914D01*
X159362995Y-63955914D02*
X159315376Y-64146390D01*
X159315376Y-64146390D02*
X159315376Y-64527342D01*
X159315376Y-64527342D02*
X159362995Y-64622580D01*
X159362995Y-64622580D02*
X159410614Y-64670200D01*
X159410614Y-64670200D02*
X159505852Y-64717819D01*
X159505852Y-64717819D02*
X159696328Y-64717819D01*
X159696328Y-64717819D02*
X159791566Y-64670200D01*
X159791566Y-64670200D02*
X159839185Y-64622580D01*
X159839185Y-64622580D02*
X159886804Y-64527342D01*
X159886804Y-64527342D02*
X159886804Y-64289247D01*
X159886804Y-64289247D02*
X159839185Y-64194009D01*
X159839185Y-64194009D02*
X159791566Y-64146390D01*
X159791566Y-64146390D02*
X159696328Y-64098771D01*
X159696328Y-64098771D02*
X159505852Y-64098771D01*
X159505852Y-64098771D02*
X159410614Y-64146390D01*
X159410614Y-64146390D02*
X159362995Y-64194009D01*
X159362995Y-64194009D02*
X159315376Y-64289247D01*
X158083642Y-60247419D02*
X157750309Y-59771228D01*
X157512214Y-60247419D02*
X157512214Y-59247419D01*
X157512214Y-59247419D02*
X157893166Y-59247419D01*
X157893166Y-59247419D02*
X157988404Y-59295038D01*
X157988404Y-59295038D02*
X158036023Y-59342657D01*
X158036023Y-59342657D02*
X158083642Y-59437895D01*
X158083642Y-59437895D02*
X158083642Y-59580752D01*
X158083642Y-59580752D02*
X158036023Y-59675990D01*
X158036023Y-59675990D02*
X157988404Y-59723609D01*
X157988404Y-59723609D02*
X157893166Y-59771228D01*
X157893166Y-59771228D02*
X157512214Y-59771228D01*
X159036023Y-60247419D02*
X158464595Y-60247419D01*
X158750309Y-60247419D02*
X158750309Y-59247419D01*
X158750309Y-59247419D02*
X158655071Y-59390276D01*
X158655071Y-59390276D02*
X158559833Y-59485514D01*
X158559833Y-59485514D02*
X158464595Y-59533133D01*
X159940785Y-59247419D02*
X159464595Y-59247419D01*
X159464595Y-59247419D02*
X159416976Y-59723609D01*
X159416976Y-59723609D02*
X159464595Y-59675990D01*
X159464595Y-59675990D02*
X159559833Y-59628371D01*
X159559833Y-59628371D02*
X159797928Y-59628371D01*
X159797928Y-59628371D02*
X159893166Y-59675990D01*
X159893166Y-59675990D02*
X159940785Y-59723609D01*
X159940785Y-59723609D02*
X159988404Y-59818847D01*
X159988404Y-59818847D02*
X159988404Y-60056942D01*
X159988404Y-60056942D02*
X159940785Y-60152180D01*
X159940785Y-60152180D02*
X159893166Y-60199800D01*
X159893166Y-60199800D02*
X159797928Y-60247419D01*
X159797928Y-60247419D02*
X159559833Y-60247419D01*
X159559833Y-60247419D02*
X159464595Y-60199800D01*
X159464595Y-60199800D02*
X159416976Y-60152180D01*
X161559642Y-63548419D02*
X161226309Y-63072228D01*
X160988214Y-63548419D02*
X160988214Y-62548419D01*
X160988214Y-62548419D02*
X161369166Y-62548419D01*
X161369166Y-62548419D02*
X161464404Y-62596038D01*
X161464404Y-62596038D02*
X161512023Y-62643657D01*
X161512023Y-62643657D02*
X161559642Y-62738895D01*
X161559642Y-62738895D02*
X161559642Y-62881752D01*
X161559642Y-62881752D02*
X161512023Y-62976990D01*
X161512023Y-62976990D02*
X161464404Y-63024609D01*
X161464404Y-63024609D02*
X161369166Y-63072228D01*
X161369166Y-63072228D02*
X160988214Y-63072228D01*
X162512023Y-63548419D02*
X161940595Y-63548419D01*
X162226309Y-63548419D02*
X162226309Y-62548419D01*
X162226309Y-62548419D02*
X162131071Y-62691276D01*
X162131071Y-62691276D02*
X162035833Y-62786514D01*
X162035833Y-62786514D02*
X161940595Y-62834133D01*
X163369166Y-62881752D02*
X163369166Y-63548419D01*
X163131071Y-62500800D02*
X162892976Y-63215085D01*
X162892976Y-63215085D02*
X163512023Y-63215085D01*
X156077042Y-53389419D02*
X155743709Y-52913228D01*
X155505614Y-53389419D02*
X155505614Y-52389419D01*
X155505614Y-52389419D02*
X155886566Y-52389419D01*
X155886566Y-52389419D02*
X155981804Y-52437038D01*
X155981804Y-52437038D02*
X156029423Y-52484657D01*
X156029423Y-52484657D02*
X156077042Y-52579895D01*
X156077042Y-52579895D02*
X156077042Y-52722752D01*
X156077042Y-52722752D02*
X156029423Y-52817990D01*
X156029423Y-52817990D02*
X155981804Y-52865609D01*
X155981804Y-52865609D02*
X155886566Y-52913228D01*
X155886566Y-52913228D02*
X155505614Y-52913228D01*
X157029423Y-53389419D02*
X156457995Y-53389419D01*
X156743709Y-53389419D02*
X156743709Y-52389419D01*
X156743709Y-52389419D02*
X156648471Y-52532276D01*
X156648471Y-52532276D02*
X156553233Y-52627514D01*
X156553233Y-52627514D02*
X156457995Y-52675133D01*
X157362757Y-52389419D02*
X157981804Y-52389419D01*
X157981804Y-52389419D02*
X157648471Y-52770371D01*
X157648471Y-52770371D02*
X157791328Y-52770371D01*
X157791328Y-52770371D02*
X157886566Y-52817990D01*
X157886566Y-52817990D02*
X157934185Y-52865609D01*
X157934185Y-52865609D02*
X157981804Y-52960847D01*
X157981804Y-52960847D02*
X157981804Y-53198942D01*
X157981804Y-53198942D02*
X157934185Y-53294180D01*
X157934185Y-53294180D02*
X157886566Y-53341800D01*
X157886566Y-53341800D02*
X157791328Y-53389419D01*
X157791328Y-53389419D02*
X157505614Y-53389419D01*
X157505614Y-53389419D02*
X157410376Y-53341800D01*
X157410376Y-53341800D02*
X157362757Y-53294180D01*
X195828042Y-79398019D02*
X195494709Y-78921828D01*
X195256614Y-79398019D02*
X195256614Y-78398019D01*
X195256614Y-78398019D02*
X195637566Y-78398019D01*
X195637566Y-78398019D02*
X195732804Y-78445638D01*
X195732804Y-78445638D02*
X195780423Y-78493257D01*
X195780423Y-78493257D02*
X195828042Y-78588495D01*
X195828042Y-78588495D02*
X195828042Y-78731352D01*
X195828042Y-78731352D02*
X195780423Y-78826590D01*
X195780423Y-78826590D02*
X195732804Y-78874209D01*
X195732804Y-78874209D02*
X195637566Y-78921828D01*
X195637566Y-78921828D02*
X195256614Y-78921828D01*
X196780423Y-79398019D02*
X196208995Y-79398019D01*
X196494709Y-79398019D02*
X196494709Y-78398019D01*
X196494709Y-78398019D02*
X196399471Y-78540876D01*
X196399471Y-78540876D02*
X196304233Y-78636114D01*
X196304233Y-78636114D02*
X196208995Y-78683733D01*
X197161376Y-78493257D02*
X197208995Y-78445638D01*
X197208995Y-78445638D02*
X197304233Y-78398019D01*
X197304233Y-78398019D02*
X197542328Y-78398019D01*
X197542328Y-78398019D02*
X197637566Y-78445638D01*
X197637566Y-78445638D02*
X197685185Y-78493257D01*
X197685185Y-78493257D02*
X197732804Y-78588495D01*
X197732804Y-78588495D02*
X197732804Y-78683733D01*
X197732804Y-78683733D02*
X197685185Y-78826590D01*
X197685185Y-78826590D02*
X197113757Y-79398019D01*
X197113757Y-79398019D02*
X197732804Y-79398019D01*
X195624842Y-76070619D02*
X195291509Y-75594428D01*
X195053414Y-76070619D02*
X195053414Y-75070619D01*
X195053414Y-75070619D02*
X195434366Y-75070619D01*
X195434366Y-75070619D02*
X195529604Y-75118238D01*
X195529604Y-75118238D02*
X195577223Y-75165857D01*
X195577223Y-75165857D02*
X195624842Y-75261095D01*
X195624842Y-75261095D02*
X195624842Y-75403952D01*
X195624842Y-75403952D02*
X195577223Y-75499190D01*
X195577223Y-75499190D02*
X195529604Y-75546809D01*
X195529604Y-75546809D02*
X195434366Y-75594428D01*
X195434366Y-75594428D02*
X195053414Y-75594428D01*
X196577223Y-76070619D02*
X196005795Y-76070619D01*
X196291509Y-76070619D02*
X196291509Y-75070619D01*
X196291509Y-75070619D02*
X196196271Y-75213476D01*
X196196271Y-75213476D02*
X196101033Y-75308714D01*
X196101033Y-75308714D02*
X196005795Y-75356333D01*
X197529604Y-76070619D02*
X196958176Y-76070619D01*
X197243890Y-76070619D02*
X197243890Y-75070619D01*
X197243890Y-75070619D02*
X197148652Y-75213476D01*
X197148652Y-75213476D02*
X197053414Y-75308714D01*
X197053414Y-75308714D02*
X196958176Y-75356333D01*
X195828042Y-72565419D02*
X195494709Y-72089228D01*
X195256614Y-72565419D02*
X195256614Y-71565419D01*
X195256614Y-71565419D02*
X195637566Y-71565419D01*
X195637566Y-71565419D02*
X195732804Y-71613038D01*
X195732804Y-71613038D02*
X195780423Y-71660657D01*
X195780423Y-71660657D02*
X195828042Y-71755895D01*
X195828042Y-71755895D02*
X195828042Y-71898752D01*
X195828042Y-71898752D02*
X195780423Y-71993990D01*
X195780423Y-71993990D02*
X195732804Y-72041609D01*
X195732804Y-72041609D02*
X195637566Y-72089228D01*
X195637566Y-72089228D02*
X195256614Y-72089228D01*
X196780423Y-72565419D02*
X196208995Y-72565419D01*
X196494709Y-72565419D02*
X196494709Y-71565419D01*
X196494709Y-71565419D02*
X196399471Y-71708276D01*
X196399471Y-71708276D02*
X196304233Y-71803514D01*
X196304233Y-71803514D02*
X196208995Y-71851133D01*
X197399471Y-71565419D02*
X197494709Y-71565419D01*
X197494709Y-71565419D02*
X197589947Y-71613038D01*
X197589947Y-71613038D02*
X197637566Y-71660657D01*
X197637566Y-71660657D02*
X197685185Y-71755895D01*
X197685185Y-71755895D02*
X197732804Y-71946371D01*
X197732804Y-71946371D02*
X197732804Y-72184466D01*
X197732804Y-72184466D02*
X197685185Y-72374942D01*
X197685185Y-72374942D02*
X197637566Y-72470180D01*
X197637566Y-72470180D02*
X197589947Y-72517800D01*
X197589947Y-72517800D02*
X197494709Y-72565419D01*
X197494709Y-72565419D02*
X197399471Y-72565419D01*
X197399471Y-72565419D02*
X197304233Y-72517800D01*
X197304233Y-72517800D02*
X197256614Y-72470180D01*
X197256614Y-72470180D02*
X197208995Y-72374942D01*
X197208995Y-72374942D02*
X197161376Y-72184466D01*
X197161376Y-72184466D02*
X197161376Y-71946371D01*
X197161376Y-71946371D02*
X197208995Y-71755895D01*
X197208995Y-71755895D02*
X197256614Y-71660657D01*
X197256614Y-71660657D02*
X197304233Y-71613038D01*
X197304233Y-71613038D02*
X197399471Y-71565419D01*
X195847033Y-69492019D02*
X195513700Y-69015828D01*
X195275605Y-69492019D02*
X195275605Y-68492019D01*
X195275605Y-68492019D02*
X195656557Y-68492019D01*
X195656557Y-68492019D02*
X195751795Y-68539638D01*
X195751795Y-68539638D02*
X195799414Y-68587257D01*
X195799414Y-68587257D02*
X195847033Y-68682495D01*
X195847033Y-68682495D02*
X195847033Y-68825352D01*
X195847033Y-68825352D02*
X195799414Y-68920590D01*
X195799414Y-68920590D02*
X195751795Y-68968209D01*
X195751795Y-68968209D02*
X195656557Y-69015828D01*
X195656557Y-69015828D02*
X195275605Y-69015828D01*
X196323224Y-69492019D02*
X196513700Y-69492019D01*
X196513700Y-69492019D02*
X196608938Y-69444400D01*
X196608938Y-69444400D02*
X196656557Y-69396780D01*
X196656557Y-69396780D02*
X196751795Y-69253923D01*
X196751795Y-69253923D02*
X196799414Y-69063447D01*
X196799414Y-69063447D02*
X196799414Y-68682495D01*
X196799414Y-68682495D02*
X196751795Y-68587257D01*
X196751795Y-68587257D02*
X196704176Y-68539638D01*
X196704176Y-68539638D02*
X196608938Y-68492019D01*
X196608938Y-68492019D02*
X196418462Y-68492019D01*
X196418462Y-68492019D02*
X196323224Y-68539638D01*
X196323224Y-68539638D02*
X196275605Y-68587257D01*
X196275605Y-68587257D02*
X196227986Y-68682495D01*
X196227986Y-68682495D02*
X196227986Y-68920590D01*
X196227986Y-68920590D02*
X196275605Y-69015828D01*
X196275605Y-69015828D02*
X196323224Y-69063447D01*
X196323224Y-69063447D02*
X196418462Y-69111066D01*
X196418462Y-69111066D02*
X196608938Y-69111066D01*
X196608938Y-69111066D02*
X196704176Y-69063447D01*
X196704176Y-69063447D02*
X196751795Y-69015828D01*
X196751795Y-69015828D02*
X196799414Y-68920590D01*
X192748233Y-66646219D02*
X192414900Y-66170028D01*
X192176805Y-66646219D02*
X192176805Y-65646219D01*
X192176805Y-65646219D02*
X192557757Y-65646219D01*
X192557757Y-65646219D02*
X192652995Y-65693838D01*
X192652995Y-65693838D02*
X192700614Y-65741457D01*
X192700614Y-65741457D02*
X192748233Y-65836695D01*
X192748233Y-65836695D02*
X192748233Y-65979552D01*
X192748233Y-65979552D02*
X192700614Y-66074790D01*
X192700614Y-66074790D02*
X192652995Y-66122409D01*
X192652995Y-66122409D02*
X192557757Y-66170028D01*
X192557757Y-66170028D02*
X192176805Y-66170028D01*
X193319662Y-66074790D02*
X193224424Y-66027171D01*
X193224424Y-66027171D02*
X193176805Y-65979552D01*
X193176805Y-65979552D02*
X193129186Y-65884314D01*
X193129186Y-65884314D02*
X193129186Y-65836695D01*
X193129186Y-65836695D02*
X193176805Y-65741457D01*
X193176805Y-65741457D02*
X193224424Y-65693838D01*
X193224424Y-65693838D02*
X193319662Y-65646219D01*
X193319662Y-65646219D02*
X193510138Y-65646219D01*
X193510138Y-65646219D02*
X193605376Y-65693838D01*
X193605376Y-65693838D02*
X193652995Y-65741457D01*
X193652995Y-65741457D02*
X193700614Y-65836695D01*
X193700614Y-65836695D02*
X193700614Y-65884314D01*
X193700614Y-65884314D02*
X193652995Y-65979552D01*
X193652995Y-65979552D02*
X193605376Y-66027171D01*
X193605376Y-66027171D02*
X193510138Y-66074790D01*
X193510138Y-66074790D02*
X193319662Y-66074790D01*
X193319662Y-66074790D02*
X193224424Y-66122409D01*
X193224424Y-66122409D02*
X193176805Y-66170028D01*
X193176805Y-66170028D02*
X193129186Y-66265266D01*
X193129186Y-66265266D02*
X193129186Y-66455742D01*
X193129186Y-66455742D02*
X193176805Y-66550980D01*
X193176805Y-66550980D02*
X193224424Y-66598600D01*
X193224424Y-66598600D02*
X193319662Y-66646219D01*
X193319662Y-66646219D02*
X193510138Y-66646219D01*
X193510138Y-66646219D02*
X193605376Y-66598600D01*
X193605376Y-66598600D02*
X193652995Y-66550980D01*
X193652995Y-66550980D02*
X193700614Y-66455742D01*
X193700614Y-66455742D02*
X193700614Y-66265266D01*
X193700614Y-66265266D02*
X193652995Y-66170028D01*
X193652995Y-66170028D02*
X193605376Y-66122409D01*
X193605376Y-66122409D02*
X193510138Y-66074790D01*
X206208333Y-39623519D02*
X205875000Y-39147328D01*
X205636905Y-39623519D02*
X205636905Y-38623519D01*
X205636905Y-38623519D02*
X206017857Y-38623519D01*
X206017857Y-38623519D02*
X206113095Y-38671138D01*
X206113095Y-38671138D02*
X206160714Y-38718757D01*
X206160714Y-38718757D02*
X206208333Y-38813995D01*
X206208333Y-38813995D02*
X206208333Y-38956852D01*
X206208333Y-38956852D02*
X206160714Y-39052090D01*
X206160714Y-39052090D02*
X206113095Y-39099709D01*
X206113095Y-39099709D02*
X206017857Y-39147328D01*
X206017857Y-39147328D02*
X205636905Y-39147328D01*
X206541667Y-38623519D02*
X207208333Y-38623519D01*
X207208333Y-38623519D02*
X206779762Y-39623519D01*
X209954019Y-39458566D02*
X209477828Y-39791899D01*
X209954019Y-40029994D02*
X208954019Y-40029994D01*
X208954019Y-40029994D02*
X208954019Y-39649042D01*
X208954019Y-39649042D02*
X209001638Y-39553804D01*
X209001638Y-39553804D02*
X209049257Y-39506185D01*
X209049257Y-39506185D02*
X209144495Y-39458566D01*
X209144495Y-39458566D02*
X209287352Y-39458566D01*
X209287352Y-39458566D02*
X209382590Y-39506185D01*
X209382590Y-39506185D02*
X209430209Y-39553804D01*
X209430209Y-39553804D02*
X209477828Y-39649042D01*
X209477828Y-39649042D02*
X209477828Y-40029994D01*
X208954019Y-38601423D02*
X208954019Y-38791899D01*
X208954019Y-38791899D02*
X209001638Y-38887137D01*
X209001638Y-38887137D02*
X209049257Y-38934756D01*
X209049257Y-38934756D02*
X209192114Y-39029994D01*
X209192114Y-39029994D02*
X209382590Y-39077613D01*
X209382590Y-39077613D02*
X209763542Y-39077613D01*
X209763542Y-39077613D02*
X209858780Y-39029994D01*
X209858780Y-39029994D02*
X209906400Y-38982375D01*
X209906400Y-38982375D02*
X209954019Y-38887137D01*
X209954019Y-38887137D02*
X209954019Y-38696661D01*
X209954019Y-38696661D02*
X209906400Y-38601423D01*
X209906400Y-38601423D02*
X209858780Y-38553804D01*
X209858780Y-38553804D02*
X209763542Y-38506185D01*
X209763542Y-38506185D02*
X209525447Y-38506185D01*
X209525447Y-38506185D02*
X209430209Y-38553804D01*
X209430209Y-38553804D02*
X209382590Y-38601423D01*
X209382590Y-38601423D02*
X209334971Y-38696661D01*
X209334971Y-38696661D02*
X209334971Y-38887137D01*
X209334971Y-38887137D02*
X209382590Y-38982375D01*
X209382590Y-38982375D02*
X209430209Y-39029994D01*
X209430209Y-39029994D02*
X209525447Y-39077613D01*
X167788619Y-57748466D02*
X167312428Y-58081799D01*
X167788619Y-58319894D02*
X166788619Y-58319894D01*
X166788619Y-58319894D02*
X166788619Y-57938942D01*
X166788619Y-57938942D02*
X166836238Y-57843704D01*
X166836238Y-57843704D02*
X166883857Y-57796085D01*
X166883857Y-57796085D02*
X166979095Y-57748466D01*
X166979095Y-57748466D02*
X167121952Y-57748466D01*
X167121952Y-57748466D02*
X167217190Y-57796085D01*
X167217190Y-57796085D02*
X167264809Y-57843704D01*
X167264809Y-57843704D02*
X167312428Y-57938942D01*
X167312428Y-57938942D02*
X167312428Y-58319894D01*
X166788619Y-56843704D02*
X166788619Y-57319894D01*
X166788619Y-57319894D02*
X167264809Y-57367513D01*
X167264809Y-57367513D02*
X167217190Y-57319894D01*
X167217190Y-57319894D02*
X167169571Y-57224656D01*
X167169571Y-57224656D02*
X167169571Y-56986561D01*
X167169571Y-56986561D02*
X167217190Y-56891323D01*
X167217190Y-56891323D02*
X167264809Y-56843704D01*
X167264809Y-56843704D02*
X167360047Y-56796085D01*
X167360047Y-56796085D02*
X167598142Y-56796085D01*
X167598142Y-56796085D02*
X167693380Y-56843704D01*
X167693380Y-56843704D02*
X167741000Y-56891323D01*
X167741000Y-56891323D02*
X167788619Y-56986561D01*
X167788619Y-56986561D02*
X167788619Y-57224656D01*
X167788619Y-57224656D02*
X167741000Y-57319894D01*
X167741000Y-57319894D02*
X167693380Y-57367513D01*
X179395419Y-52263966D02*
X178919228Y-52597299D01*
X179395419Y-52835394D02*
X178395419Y-52835394D01*
X178395419Y-52835394D02*
X178395419Y-52454442D01*
X178395419Y-52454442D02*
X178443038Y-52359204D01*
X178443038Y-52359204D02*
X178490657Y-52311585D01*
X178490657Y-52311585D02*
X178585895Y-52263966D01*
X178585895Y-52263966D02*
X178728752Y-52263966D01*
X178728752Y-52263966D02*
X178823990Y-52311585D01*
X178823990Y-52311585D02*
X178871609Y-52359204D01*
X178871609Y-52359204D02*
X178919228Y-52454442D01*
X178919228Y-52454442D02*
X178919228Y-52835394D01*
X178728752Y-51406823D02*
X179395419Y-51406823D01*
X178347800Y-51644918D02*
X179062085Y-51883013D01*
X179062085Y-51883013D02*
X179062085Y-51263966D01*
X204432233Y-60829619D02*
X204098900Y-60353428D01*
X203860805Y-60829619D02*
X203860805Y-59829619D01*
X203860805Y-59829619D02*
X204241757Y-59829619D01*
X204241757Y-59829619D02*
X204336995Y-59877238D01*
X204336995Y-59877238D02*
X204384614Y-59924857D01*
X204384614Y-59924857D02*
X204432233Y-60020095D01*
X204432233Y-60020095D02*
X204432233Y-60162952D01*
X204432233Y-60162952D02*
X204384614Y-60258190D01*
X204384614Y-60258190D02*
X204336995Y-60305809D01*
X204336995Y-60305809D02*
X204241757Y-60353428D01*
X204241757Y-60353428D02*
X203860805Y-60353428D01*
X204765567Y-59829619D02*
X205384614Y-59829619D01*
X205384614Y-59829619D02*
X205051281Y-60210571D01*
X205051281Y-60210571D02*
X205194138Y-60210571D01*
X205194138Y-60210571D02*
X205289376Y-60258190D01*
X205289376Y-60258190D02*
X205336995Y-60305809D01*
X205336995Y-60305809D02*
X205384614Y-60401047D01*
X205384614Y-60401047D02*
X205384614Y-60639142D01*
X205384614Y-60639142D02*
X205336995Y-60734380D01*
X205336995Y-60734380D02*
X205289376Y-60782000D01*
X205289376Y-60782000D02*
X205194138Y-60829619D01*
X205194138Y-60829619D02*
X204908424Y-60829619D01*
X204908424Y-60829619D02*
X204813186Y-60782000D01*
X204813186Y-60782000D02*
X204765567Y-60734380D01*
X202714019Y-57877366D02*
X202237828Y-58210699D01*
X202714019Y-58448794D02*
X201714019Y-58448794D01*
X201714019Y-58448794D02*
X201714019Y-58067842D01*
X201714019Y-58067842D02*
X201761638Y-57972604D01*
X201761638Y-57972604D02*
X201809257Y-57924985D01*
X201809257Y-57924985D02*
X201904495Y-57877366D01*
X201904495Y-57877366D02*
X202047352Y-57877366D01*
X202047352Y-57877366D02*
X202142590Y-57924985D01*
X202142590Y-57924985D02*
X202190209Y-57972604D01*
X202190209Y-57972604D02*
X202237828Y-58067842D01*
X202237828Y-58067842D02*
X202237828Y-58448794D01*
X201809257Y-57496413D02*
X201761638Y-57448794D01*
X201761638Y-57448794D02*
X201714019Y-57353556D01*
X201714019Y-57353556D02*
X201714019Y-57115461D01*
X201714019Y-57115461D02*
X201761638Y-57020223D01*
X201761638Y-57020223D02*
X201809257Y-56972604D01*
X201809257Y-56972604D02*
X201904495Y-56924985D01*
X201904495Y-56924985D02*
X201999733Y-56924985D01*
X201999733Y-56924985D02*
X202142590Y-56972604D01*
X202142590Y-56972604D02*
X202714019Y-57544032D01*
X202714019Y-57544032D02*
X202714019Y-56924985D01*
X172334219Y-51832166D02*
X171858028Y-52165499D01*
X172334219Y-52403594D02*
X171334219Y-52403594D01*
X171334219Y-52403594D02*
X171334219Y-52022642D01*
X171334219Y-52022642D02*
X171381838Y-51927404D01*
X171381838Y-51927404D02*
X171429457Y-51879785D01*
X171429457Y-51879785D02*
X171524695Y-51832166D01*
X171524695Y-51832166D02*
X171667552Y-51832166D01*
X171667552Y-51832166D02*
X171762790Y-51879785D01*
X171762790Y-51879785D02*
X171810409Y-51927404D01*
X171810409Y-51927404D02*
X171858028Y-52022642D01*
X171858028Y-52022642D02*
X171858028Y-52403594D01*
X172334219Y-50879785D02*
X172334219Y-51451213D01*
X172334219Y-51165499D02*
X171334219Y-51165499D01*
X171334219Y-51165499D02*
X171477076Y-51260737D01*
X171477076Y-51260737D02*
X171572314Y-51355975D01*
X171572314Y-51355975D02*
X171619933Y-51451213D01*
X170041219Y-133048333D02*
X170755504Y-133048333D01*
X170755504Y-133048333D02*
X170898361Y-133095952D01*
X170898361Y-133095952D02*
X170993600Y-133191190D01*
X170993600Y-133191190D02*
X171041219Y-133334047D01*
X171041219Y-133334047D02*
X171041219Y-133429285D01*
X170041219Y-132667380D02*
X170041219Y-132000714D01*
X170041219Y-132000714D02*
X171041219Y-132429285D01*
X161195066Y-121650819D02*
X161195066Y-122365104D01*
X161195066Y-122365104D02*
X161147447Y-122507961D01*
X161147447Y-122507961D02*
X161052209Y-122603200D01*
X161052209Y-122603200D02*
X160909352Y-122650819D01*
X160909352Y-122650819D02*
X160814114Y-122650819D01*
X162099828Y-121650819D02*
X161909352Y-121650819D01*
X161909352Y-121650819D02*
X161814114Y-121698438D01*
X161814114Y-121698438D02*
X161766495Y-121746057D01*
X161766495Y-121746057D02*
X161671257Y-121888914D01*
X161671257Y-121888914D02*
X161623638Y-122079390D01*
X161623638Y-122079390D02*
X161623638Y-122460342D01*
X161623638Y-122460342D02*
X161671257Y-122555580D01*
X161671257Y-122555580D02*
X161718876Y-122603200D01*
X161718876Y-122603200D02*
X161814114Y-122650819D01*
X161814114Y-122650819D02*
X162004590Y-122650819D01*
X162004590Y-122650819D02*
X162099828Y-122603200D01*
X162099828Y-122603200D02*
X162147447Y-122555580D01*
X162147447Y-122555580D02*
X162195066Y-122460342D01*
X162195066Y-122460342D02*
X162195066Y-122222247D01*
X162195066Y-122222247D02*
X162147447Y-122127009D01*
X162147447Y-122127009D02*
X162099828Y-122079390D01*
X162099828Y-122079390D02*
X162004590Y-122031771D01*
X162004590Y-122031771D02*
X161814114Y-122031771D01*
X161814114Y-122031771D02*
X161718876Y-122079390D01*
X161718876Y-122079390D02*
X161671257Y-122127009D01*
X161671257Y-122127009D02*
X161623638Y-122222247D01*
X150550019Y-91786533D02*
X151264304Y-91786533D01*
X151264304Y-91786533D02*
X151407161Y-91834152D01*
X151407161Y-91834152D02*
X151502400Y-91929390D01*
X151502400Y-91929390D02*
X151550019Y-92072247D01*
X151550019Y-92072247D02*
X151550019Y-92167485D01*
X150550019Y-90834152D02*
X150550019Y-91310342D01*
X150550019Y-91310342D02*
X151026209Y-91357961D01*
X151026209Y-91357961D02*
X150978590Y-91310342D01*
X150978590Y-91310342D02*
X150930971Y-91215104D01*
X150930971Y-91215104D02*
X150930971Y-90977009D01*
X150930971Y-90977009D02*
X150978590Y-90881771D01*
X150978590Y-90881771D02*
X151026209Y-90834152D01*
X151026209Y-90834152D02*
X151121447Y-90786533D01*
X151121447Y-90786533D02*
X151359542Y-90786533D01*
X151359542Y-90786533D02*
X151454780Y-90834152D01*
X151454780Y-90834152D02*
X151502400Y-90881771D01*
X151502400Y-90881771D02*
X151550019Y-90977009D01*
X151550019Y-90977009D02*
X151550019Y-91215104D01*
X151550019Y-91215104D02*
X151502400Y-91310342D01*
X151502400Y-91310342D02*
X151454780Y-91357961D01*
X150600819Y-62865733D02*
X151315104Y-62865733D01*
X151315104Y-62865733D02*
X151457961Y-62913352D01*
X151457961Y-62913352D02*
X151553200Y-63008590D01*
X151553200Y-63008590D02*
X151600819Y-63151447D01*
X151600819Y-63151447D02*
X151600819Y-63246685D01*
X150934152Y-61960971D02*
X151600819Y-61960971D01*
X150553200Y-62199066D02*
X151267485Y-62437161D01*
X151267485Y-62437161D02*
X151267485Y-61818114D01*
X139926219Y-121605133D02*
X140640504Y-121605133D01*
X140640504Y-121605133D02*
X140783361Y-121652752D01*
X140783361Y-121652752D02*
X140878600Y-121747990D01*
X140878600Y-121747990D02*
X140926219Y-121890847D01*
X140926219Y-121890847D02*
X140926219Y-121986085D01*
X139926219Y-121224180D02*
X139926219Y-120605133D01*
X139926219Y-120605133D02*
X140307171Y-120938466D01*
X140307171Y-120938466D02*
X140307171Y-120795609D01*
X140307171Y-120795609D02*
X140354790Y-120700371D01*
X140354790Y-120700371D02*
X140402409Y-120652752D01*
X140402409Y-120652752D02*
X140497647Y-120605133D01*
X140497647Y-120605133D02*
X140735742Y-120605133D01*
X140735742Y-120605133D02*
X140830980Y-120652752D01*
X140830980Y-120652752D02*
X140878600Y-120700371D01*
X140878600Y-120700371D02*
X140926219Y-120795609D01*
X140926219Y-120795609D02*
X140926219Y-121081323D01*
X140926219Y-121081323D02*
X140878600Y-121176561D01*
X140878600Y-121176561D02*
X140830980Y-121224180D01*
X208166619Y-60836133D02*
X208880904Y-60836133D01*
X208880904Y-60836133D02*
X209023761Y-60883752D01*
X209023761Y-60883752D02*
X209119000Y-60978990D01*
X209119000Y-60978990D02*
X209166619Y-61121847D01*
X209166619Y-61121847D02*
X209166619Y-61217085D01*
X208261857Y-60407561D02*
X208214238Y-60359942D01*
X208214238Y-60359942D02*
X208166619Y-60264704D01*
X208166619Y-60264704D02*
X208166619Y-60026609D01*
X208166619Y-60026609D02*
X208214238Y-59931371D01*
X208214238Y-59931371D02*
X208261857Y-59883752D01*
X208261857Y-59883752D02*
X208357095Y-59836133D01*
X208357095Y-59836133D02*
X208452333Y-59836133D01*
X208452333Y-59836133D02*
X208595190Y-59883752D01*
X208595190Y-59883752D02*
X209166619Y-60455180D01*
X209166619Y-60455180D02*
X209166619Y-59836133D01*
X199386866Y-47181419D02*
X199386866Y-47895704D01*
X199386866Y-47895704D02*
X199339247Y-48038561D01*
X199339247Y-48038561D02*
X199244009Y-48133800D01*
X199244009Y-48133800D02*
X199101152Y-48181419D01*
X199101152Y-48181419D02*
X199005914Y-48181419D01*
X200386866Y-48181419D02*
X199815438Y-48181419D01*
X200101152Y-48181419D02*
X200101152Y-47181419D01*
X200101152Y-47181419D02*
X200005914Y-47324276D01*
X200005914Y-47324276D02*
X199910676Y-47419514D01*
X199910676Y-47419514D02*
X199815438Y-47467133D01*
X196698809Y-62123533D02*
X196698809Y-62456866D01*
X197222619Y-62456866D02*
X196222619Y-62456866D01*
X196222619Y-62456866D02*
X196222619Y-61980676D01*
X196698809Y-61266390D02*
X196746428Y-61123533D01*
X196746428Y-61123533D02*
X196794047Y-61075914D01*
X196794047Y-61075914D02*
X196889285Y-61028295D01*
X196889285Y-61028295D02*
X197032142Y-61028295D01*
X197032142Y-61028295D02*
X197127380Y-61075914D01*
X197127380Y-61075914D02*
X197175000Y-61123533D01*
X197175000Y-61123533D02*
X197222619Y-61218771D01*
X197222619Y-61218771D02*
X197222619Y-61599723D01*
X197222619Y-61599723D02*
X196222619Y-61599723D01*
X196222619Y-61599723D02*
X196222619Y-61266390D01*
X196222619Y-61266390D02*
X196270238Y-61171152D01*
X196270238Y-61171152D02*
X196317857Y-61123533D01*
X196317857Y-61123533D02*
X196413095Y-61075914D01*
X196413095Y-61075914D02*
X196508333Y-61075914D01*
X196508333Y-61075914D02*
X196603571Y-61123533D01*
X196603571Y-61123533D02*
X196651190Y-61171152D01*
X196651190Y-61171152D02*
X196698809Y-61266390D01*
X196698809Y-61266390D02*
X196698809Y-61599723D01*
X197222619Y-60075914D02*
X197222619Y-60647342D01*
X197222619Y-60361628D02*
X196222619Y-60361628D01*
X196222619Y-60361628D02*
X196365476Y-60456866D01*
X196365476Y-60456866D02*
X196460714Y-60552104D01*
X196460714Y-60552104D02*
X196508333Y-60647342D01*
X167365514Y-87644619D02*
X167365514Y-86644619D01*
X167365514Y-86644619D02*
X167603609Y-86644619D01*
X167603609Y-86644619D02*
X167746466Y-86692238D01*
X167746466Y-86692238D02*
X167841704Y-86787476D01*
X167841704Y-86787476D02*
X167889323Y-86882714D01*
X167889323Y-86882714D02*
X167936942Y-87073190D01*
X167936942Y-87073190D02*
X167936942Y-87216047D01*
X167936942Y-87216047D02*
X167889323Y-87406523D01*
X167889323Y-87406523D02*
X167841704Y-87501761D01*
X167841704Y-87501761D02*
X167746466Y-87597000D01*
X167746466Y-87597000D02*
X167603609Y-87644619D01*
X167603609Y-87644619D02*
X167365514Y-87644619D01*
X168889323Y-87644619D02*
X168317895Y-87644619D01*
X168603609Y-87644619D02*
X168603609Y-86644619D01*
X168603609Y-86644619D02*
X168508371Y-86787476D01*
X168508371Y-86787476D02*
X168413133Y-86882714D01*
X168413133Y-86882714D02*
X168317895Y-86930333D01*
X169841704Y-87644619D02*
X169270276Y-87644619D01*
X169555990Y-87644619D02*
X169555990Y-86644619D01*
X169555990Y-86644619D02*
X169460752Y-86787476D01*
X169460752Y-86787476D02*
X169365514Y-86882714D01*
X169365514Y-86882714D02*
X169270276Y-86930333D01*
X187355314Y-94519419D02*
X187355314Y-93519419D01*
X187355314Y-93519419D02*
X187593409Y-93519419D01*
X187593409Y-93519419D02*
X187736266Y-93567038D01*
X187736266Y-93567038D02*
X187831504Y-93662276D01*
X187831504Y-93662276D02*
X187879123Y-93757514D01*
X187879123Y-93757514D02*
X187926742Y-93947990D01*
X187926742Y-93947990D02*
X187926742Y-94090847D01*
X187926742Y-94090847D02*
X187879123Y-94281323D01*
X187879123Y-94281323D02*
X187831504Y-94376561D01*
X187831504Y-94376561D02*
X187736266Y-94471800D01*
X187736266Y-94471800D02*
X187593409Y-94519419D01*
X187593409Y-94519419D02*
X187355314Y-94519419D01*
X188879123Y-94519419D02*
X188307695Y-94519419D01*
X188593409Y-94519419D02*
X188593409Y-93519419D01*
X188593409Y-93519419D02*
X188498171Y-93662276D01*
X188498171Y-93662276D02*
X188402933Y-93757514D01*
X188402933Y-93757514D02*
X188307695Y-93805133D01*
X189498171Y-93519419D02*
X189593409Y-93519419D01*
X189593409Y-93519419D02*
X189688647Y-93567038D01*
X189688647Y-93567038D02*
X189736266Y-93614657D01*
X189736266Y-93614657D02*
X189783885Y-93709895D01*
X189783885Y-93709895D02*
X189831504Y-93900371D01*
X189831504Y-93900371D02*
X189831504Y-94138466D01*
X189831504Y-94138466D02*
X189783885Y-94328942D01*
X189783885Y-94328942D02*
X189736266Y-94424180D01*
X189736266Y-94424180D02*
X189688647Y-94471800D01*
X189688647Y-94471800D02*
X189593409Y-94519419D01*
X189593409Y-94519419D02*
X189498171Y-94519419D01*
X189498171Y-94519419D02*
X189402933Y-94471800D01*
X189402933Y-94471800D02*
X189355314Y-94424180D01*
X189355314Y-94424180D02*
X189307695Y-94328942D01*
X189307695Y-94328942D02*
X189260076Y-94138466D01*
X189260076Y-94138466D02*
X189260076Y-93900371D01*
X189260076Y-93900371D02*
X189307695Y-93709895D01*
X189307695Y-93709895D02*
X189355314Y-93614657D01*
X189355314Y-93614657D02*
X189402933Y-93567038D01*
X189402933Y-93567038D02*
X189498171Y-93519419D01*
X200760105Y-110470619D02*
X200760105Y-109470619D01*
X200760105Y-109470619D02*
X200998200Y-109470619D01*
X200998200Y-109470619D02*
X201141057Y-109518238D01*
X201141057Y-109518238D02*
X201236295Y-109613476D01*
X201236295Y-109613476D02*
X201283914Y-109708714D01*
X201283914Y-109708714D02*
X201331533Y-109899190D01*
X201331533Y-109899190D02*
X201331533Y-110042047D01*
X201331533Y-110042047D02*
X201283914Y-110232523D01*
X201283914Y-110232523D02*
X201236295Y-110327761D01*
X201236295Y-110327761D02*
X201141057Y-110423000D01*
X201141057Y-110423000D02*
X200998200Y-110470619D01*
X200998200Y-110470619D02*
X200760105Y-110470619D01*
X201807724Y-110470619D02*
X201998200Y-110470619D01*
X201998200Y-110470619D02*
X202093438Y-110423000D01*
X202093438Y-110423000D02*
X202141057Y-110375380D01*
X202141057Y-110375380D02*
X202236295Y-110232523D01*
X202236295Y-110232523D02*
X202283914Y-110042047D01*
X202283914Y-110042047D02*
X202283914Y-109661095D01*
X202283914Y-109661095D02*
X202236295Y-109565857D01*
X202236295Y-109565857D02*
X202188676Y-109518238D01*
X202188676Y-109518238D02*
X202093438Y-109470619D01*
X202093438Y-109470619D02*
X201902962Y-109470619D01*
X201902962Y-109470619D02*
X201807724Y-109518238D01*
X201807724Y-109518238D02*
X201760105Y-109565857D01*
X201760105Y-109565857D02*
X201712486Y-109661095D01*
X201712486Y-109661095D02*
X201712486Y-109899190D01*
X201712486Y-109899190D02*
X201760105Y-109994428D01*
X201760105Y-109994428D02*
X201807724Y-110042047D01*
X201807724Y-110042047D02*
X201902962Y-110089666D01*
X201902962Y-110089666D02*
X202093438Y-110089666D01*
X202093438Y-110089666D02*
X202188676Y-110042047D01*
X202188676Y-110042047D02*
X202236295Y-109994428D01*
X202236295Y-109994428D02*
X202283914Y-109899190D01*
X195095019Y-93179794D02*
X194095019Y-93179794D01*
X194095019Y-93179794D02*
X194095019Y-92941699D01*
X194095019Y-92941699D02*
X194142638Y-92798842D01*
X194142638Y-92798842D02*
X194237876Y-92703604D01*
X194237876Y-92703604D02*
X194333114Y-92655985D01*
X194333114Y-92655985D02*
X194523590Y-92608366D01*
X194523590Y-92608366D02*
X194666447Y-92608366D01*
X194666447Y-92608366D02*
X194856923Y-92655985D01*
X194856923Y-92655985D02*
X194952161Y-92703604D01*
X194952161Y-92703604D02*
X195047400Y-92798842D01*
X195047400Y-92798842D02*
X195095019Y-92941699D01*
X195095019Y-92941699D02*
X195095019Y-93179794D01*
X194523590Y-92036937D02*
X194475971Y-92132175D01*
X194475971Y-92132175D02*
X194428352Y-92179794D01*
X194428352Y-92179794D02*
X194333114Y-92227413D01*
X194333114Y-92227413D02*
X194285495Y-92227413D01*
X194285495Y-92227413D02*
X194190257Y-92179794D01*
X194190257Y-92179794D02*
X194142638Y-92132175D01*
X194142638Y-92132175D02*
X194095019Y-92036937D01*
X194095019Y-92036937D02*
X194095019Y-91846461D01*
X194095019Y-91846461D02*
X194142638Y-91751223D01*
X194142638Y-91751223D02*
X194190257Y-91703604D01*
X194190257Y-91703604D02*
X194285495Y-91655985D01*
X194285495Y-91655985D02*
X194333114Y-91655985D01*
X194333114Y-91655985D02*
X194428352Y-91703604D01*
X194428352Y-91703604D02*
X194475971Y-91751223D01*
X194475971Y-91751223D02*
X194523590Y-91846461D01*
X194523590Y-91846461D02*
X194523590Y-92036937D01*
X194523590Y-92036937D02*
X194571209Y-92132175D01*
X194571209Y-92132175D02*
X194618828Y-92179794D01*
X194618828Y-92179794D02*
X194714066Y-92227413D01*
X194714066Y-92227413D02*
X194904542Y-92227413D01*
X194904542Y-92227413D02*
X194999780Y-92179794D01*
X194999780Y-92179794D02*
X195047400Y-92132175D01*
X195047400Y-92132175D02*
X195095019Y-92036937D01*
X195095019Y-92036937D02*
X195095019Y-91846461D01*
X195095019Y-91846461D02*
X195047400Y-91751223D01*
X195047400Y-91751223D02*
X194999780Y-91703604D01*
X194999780Y-91703604D02*
X194904542Y-91655985D01*
X194904542Y-91655985D02*
X194714066Y-91655985D01*
X194714066Y-91655985D02*
X194618828Y-91703604D01*
X194618828Y-91703604D02*
X194571209Y-91751223D01*
X194571209Y-91751223D02*
X194523590Y-91846461D01*
X199133619Y-93752894D02*
X198133619Y-93752894D01*
X198133619Y-93752894D02*
X198133619Y-93514799D01*
X198133619Y-93514799D02*
X198181238Y-93371942D01*
X198181238Y-93371942D02*
X198276476Y-93276704D01*
X198276476Y-93276704D02*
X198371714Y-93229085D01*
X198371714Y-93229085D02*
X198562190Y-93181466D01*
X198562190Y-93181466D02*
X198705047Y-93181466D01*
X198705047Y-93181466D02*
X198895523Y-93229085D01*
X198895523Y-93229085D02*
X198990761Y-93276704D01*
X198990761Y-93276704D02*
X199086000Y-93371942D01*
X199086000Y-93371942D02*
X199133619Y-93514799D01*
X199133619Y-93514799D02*
X199133619Y-93752894D01*
X198133619Y-92848132D02*
X198133619Y-92181466D01*
X198133619Y-92181466D02*
X199133619Y-92610037D01*
X207668019Y-47597194D02*
X206668019Y-47597194D01*
X206668019Y-47597194D02*
X206668019Y-47359099D01*
X206668019Y-47359099D02*
X206715638Y-47216242D01*
X206715638Y-47216242D02*
X206810876Y-47121004D01*
X206810876Y-47121004D02*
X206906114Y-47073385D01*
X206906114Y-47073385D02*
X207096590Y-47025766D01*
X207096590Y-47025766D02*
X207239447Y-47025766D01*
X207239447Y-47025766D02*
X207429923Y-47073385D01*
X207429923Y-47073385D02*
X207525161Y-47121004D01*
X207525161Y-47121004D02*
X207620400Y-47216242D01*
X207620400Y-47216242D02*
X207668019Y-47359099D01*
X207668019Y-47359099D02*
X207668019Y-47597194D01*
X206668019Y-46168623D02*
X206668019Y-46359099D01*
X206668019Y-46359099D02*
X206715638Y-46454337D01*
X206715638Y-46454337D02*
X206763257Y-46501956D01*
X206763257Y-46501956D02*
X206906114Y-46597194D01*
X206906114Y-46597194D02*
X207096590Y-46644813D01*
X207096590Y-46644813D02*
X207477542Y-46644813D01*
X207477542Y-46644813D02*
X207572780Y-46597194D01*
X207572780Y-46597194D02*
X207620400Y-46549575D01*
X207620400Y-46549575D02*
X207668019Y-46454337D01*
X207668019Y-46454337D02*
X207668019Y-46263861D01*
X207668019Y-46263861D02*
X207620400Y-46168623D01*
X207620400Y-46168623D02*
X207572780Y-46121004D01*
X207572780Y-46121004D02*
X207477542Y-46073385D01*
X207477542Y-46073385D02*
X207239447Y-46073385D01*
X207239447Y-46073385D02*
X207144209Y-46121004D01*
X207144209Y-46121004D02*
X207096590Y-46168623D01*
X207096590Y-46168623D02*
X207048971Y-46263861D01*
X207048971Y-46263861D02*
X207048971Y-46454337D01*
X207048971Y-46454337D02*
X207096590Y-46549575D01*
X207096590Y-46549575D02*
X207144209Y-46597194D01*
X207144209Y-46597194D02*
X207239447Y-46644813D01*
X205856219Y-55369594D02*
X204856219Y-55369594D01*
X204856219Y-55369594D02*
X204856219Y-55131499D01*
X204856219Y-55131499D02*
X204903838Y-54988642D01*
X204903838Y-54988642D02*
X204999076Y-54893404D01*
X204999076Y-54893404D02*
X205094314Y-54845785D01*
X205094314Y-54845785D02*
X205284790Y-54798166D01*
X205284790Y-54798166D02*
X205427647Y-54798166D01*
X205427647Y-54798166D02*
X205618123Y-54845785D01*
X205618123Y-54845785D02*
X205713361Y-54893404D01*
X205713361Y-54893404D02*
X205808600Y-54988642D01*
X205808600Y-54988642D02*
X205856219Y-55131499D01*
X205856219Y-55131499D02*
X205856219Y-55369594D01*
X204856219Y-53893404D02*
X204856219Y-54369594D01*
X204856219Y-54369594D02*
X205332409Y-54417213D01*
X205332409Y-54417213D02*
X205284790Y-54369594D01*
X205284790Y-54369594D02*
X205237171Y-54274356D01*
X205237171Y-54274356D02*
X205237171Y-54036261D01*
X205237171Y-54036261D02*
X205284790Y-53941023D01*
X205284790Y-53941023D02*
X205332409Y-53893404D01*
X205332409Y-53893404D02*
X205427647Y-53845785D01*
X205427647Y-53845785D02*
X205665742Y-53845785D01*
X205665742Y-53845785D02*
X205760980Y-53893404D01*
X205760980Y-53893404D02*
X205808600Y-53941023D01*
X205808600Y-53941023D02*
X205856219Y-54036261D01*
X205856219Y-54036261D02*
X205856219Y-54274356D01*
X205856219Y-54274356D02*
X205808600Y-54369594D01*
X205808600Y-54369594D02*
X205760980Y-54417213D01*
X170625019Y-57608694D02*
X169625019Y-57608694D01*
X169625019Y-57608694D02*
X169625019Y-57370599D01*
X169625019Y-57370599D02*
X169672638Y-57227742D01*
X169672638Y-57227742D02*
X169767876Y-57132504D01*
X169767876Y-57132504D02*
X169863114Y-57084885D01*
X169863114Y-57084885D02*
X170053590Y-57037266D01*
X170053590Y-57037266D02*
X170196447Y-57037266D01*
X170196447Y-57037266D02*
X170386923Y-57084885D01*
X170386923Y-57084885D02*
X170482161Y-57132504D01*
X170482161Y-57132504D02*
X170577400Y-57227742D01*
X170577400Y-57227742D02*
X170625019Y-57370599D01*
X170625019Y-57370599D02*
X170625019Y-57608694D01*
X169958352Y-56180123D02*
X170625019Y-56180123D01*
X169577400Y-56418218D02*
X170291685Y-56656313D01*
X170291685Y-56656313D02*
X170291685Y-56037266D01*
X180658019Y-54742394D02*
X179658019Y-54742394D01*
X179658019Y-54742394D02*
X179658019Y-54504299D01*
X179658019Y-54504299D02*
X179705638Y-54361442D01*
X179705638Y-54361442D02*
X179800876Y-54266204D01*
X179800876Y-54266204D02*
X179896114Y-54218585D01*
X179896114Y-54218585D02*
X180086590Y-54170966D01*
X180086590Y-54170966D02*
X180229447Y-54170966D01*
X180229447Y-54170966D02*
X180419923Y-54218585D01*
X180419923Y-54218585D02*
X180515161Y-54266204D01*
X180515161Y-54266204D02*
X180610400Y-54361442D01*
X180610400Y-54361442D02*
X180658019Y-54504299D01*
X180658019Y-54504299D02*
X180658019Y-54742394D01*
X179658019Y-53837632D02*
X179658019Y-53218585D01*
X179658019Y-53218585D02*
X180038971Y-53551918D01*
X180038971Y-53551918D02*
X180038971Y-53409061D01*
X180038971Y-53409061D02*
X180086590Y-53313823D01*
X180086590Y-53313823D02*
X180134209Y-53266204D01*
X180134209Y-53266204D02*
X180229447Y-53218585D01*
X180229447Y-53218585D02*
X180467542Y-53218585D01*
X180467542Y-53218585D02*
X180562780Y-53266204D01*
X180562780Y-53266204D02*
X180610400Y-53313823D01*
X180610400Y-53313823D02*
X180658019Y-53409061D01*
X180658019Y-53409061D02*
X180658019Y-53694775D01*
X180658019Y-53694775D02*
X180610400Y-53790013D01*
X180610400Y-53790013D02*
X180562780Y-53837632D01*
X180490905Y-62278419D02*
X180490905Y-61278419D01*
X180490905Y-61278419D02*
X180729000Y-61278419D01*
X180729000Y-61278419D02*
X180871857Y-61326038D01*
X180871857Y-61326038D02*
X180967095Y-61421276D01*
X180967095Y-61421276D02*
X181014714Y-61516514D01*
X181014714Y-61516514D02*
X181062333Y-61706990D01*
X181062333Y-61706990D02*
X181062333Y-61849847D01*
X181062333Y-61849847D02*
X181014714Y-62040323D01*
X181014714Y-62040323D02*
X180967095Y-62135561D01*
X180967095Y-62135561D02*
X180871857Y-62230800D01*
X180871857Y-62230800D02*
X180729000Y-62278419D01*
X180729000Y-62278419D02*
X180490905Y-62278419D01*
X181443286Y-61373657D02*
X181490905Y-61326038D01*
X181490905Y-61326038D02*
X181586143Y-61278419D01*
X181586143Y-61278419D02*
X181824238Y-61278419D01*
X181824238Y-61278419D02*
X181919476Y-61326038D01*
X181919476Y-61326038D02*
X181967095Y-61373657D01*
X181967095Y-61373657D02*
X182014714Y-61468895D01*
X182014714Y-61468895D02*
X182014714Y-61564133D01*
X182014714Y-61564133D02*
X181967095Y-61706990D01*
X181967095Y-61706990D02*
X181395667Y-62278419D01*
X181395667Y-62278419D02*
X182014714Y-62278419D01*
X189030419Y-45710394D02*
X188030419Y-45710394D01*
X188030419Y-45710394D02*
X188030419Y-45472299D01*
X188030419Y-45472299D02*
X188078038Y-45329442D01*
X188078038Y-45329442D02*
X188173276Y-45234204D01*
X188173276Y-45234204D02*
X188268514Y-45186585D01*
X188268514Y-45186585D02*
X188458990Y-45138966D01*
X188458990Y-45138966D02*
X188601847Y-45138966D01*
X188601847Y-45138966D02*
X188792323Y-45186585D01*
X188792323Y-45186585D02*
X188887561Y-45234204D01*
X188887561Y-45234204D02*
X188982800Y-45329442D01*
X188982800Y-45329442D02*
X189030419Y-45472299D01*
X189030419Y-45472299D02*
X189030419Y-45710394D01*
X189030419Y-44186585D02*
X189030419Y-44758013D01*
X189030419Y-44472299D02*
X188030419Y-44472299D01*
X188030419Y-44472299D02*
X188173276Y-44567537D01*
X188173276Y-44567537D02*
X188268514Y-44662775D01*
X188268514Y-44662775D02*
X188316133Y-44758013D01*
X173278580Y-118956057D02*
X173326200Y-119003676D01*
X173326200Y-119003676D02*
X173373819Y-119146533D01*
X173373819Y-119146533D02*
X173373819Y-119241771D01*
X173373819Y-119241771D02*
X173326200Y-119384628D01*
X173326200Y-119384628D02*
X173230961Y-119479866D01*
X173230961Y-119479866D02*
X173135723Y-119527485D01*
X173135723Y-119527485D02*
X172945247Y-119575104D01*
X172945247Y-119575104D02*
X172802390Y-119575104D01*
X172802390Y-119575104D02*
X172611914Y-119527485D01*
X172611914Y-119527485D02*
X172516676Y-119479866D01*
X172516676Y-119479866D02*
X172421438Y-119384628D01*
X172421438Y-119384628D02*
X172373819Y-119241771D01*
X172373819Y-119241771D02*
X172373819Y-119146533D01*
X172373819Y-119146533D02*
X172421438Y-119003676D01*
X172421438Y-119003676D02*
X172469057Y-118956057D01*
X172469057Y-118575104D02*
X172421438Y-118527485D01*
X172421438Y-118527485D02*
X172373819Y-118432247D01*
X172373819Y-118432247D02*
X172373819Y-118194152D01*
X172373819Y-118194152D02*
X172421438Y-118098914D01*
X172421438Y-118098914D02*
X172469057Y-118051295D01*
X172469057Y-118051295D02*
X172564295Y-118003676D01*
X172564295Y-118003676D02*
X172659533Y-118003676D01*
X172659533Y-118003676D02*
X172802390Y-118051295D01*
X172802390Y-118051295D02*
X173373819Y-118622723D01*
X173373819Y-118622723D02*
X173373819Y-118003676D01*
X172802390Y-117432247D02*
X172754771Y-117527485D01*
X172754771Y-117527485D02*
X172707152Y-117575104D01*
X172707152Y-117575104D02*
X172611914Y-117622723D01*
X172611914Y-117622723D02*
X172564295Y-117622723D01*
X172564295Y-117622723D02*
X172469057Y-117575104D01*
X172469057Y-117575104D02*
X172421438Y-117527485D01*
X172421438Y-117527485D02*
X172373819Y-117432247D01*
X172373819Y-117432247D02*
X172373819Y-117241771D01*
X172373819Y-117241771D02*
X172421438Y-117146533D01*
X172421438Y-117146533D02*
X172469057Y-117098914D01*
X172469057Y-117098914D02*
X172564295Y-117051295D01*
X172564295Y-117051295D02*
X172611914Y-117051295D01*
X172611914Y-117051295D02*
X172707152Y-117098914D01*
X172707152Y-117098914D02*
X172754771Y-117146533D01*
X172754771Y-117146533D02*
X172802390Y-117241771D01*
X172802390Y-117241771D02*
X172802390Y-117432247D01*
X172802390Y-117432247D02*
X172850009Y-117527485D01*
X172850009Y-117527485D02*
X172897628Y-117575104D01*
X172897628Y-117575104D02*
X172992866Y-117622723D01*
X172992866Y-117622723D02*
X173183342Y-117622723D01*
X173183342Y-117622723D02*
X173278580Y-117575104D01*
X173278580Y-117575104D02*
X173326200Y-117527485D01*
X173326200Y-117527485D02*
X173373819Y-117432247D01*
X173373819Y-117432247D02*
X173373819Y-117241771D01*
X173373819Y-117241771D02*
X173326200Y-117146533D01*
X173326200Y-117146533D02*
X173278580Y-117098914D01*
X173278580Y-117098914D02*
X173183342Y-117051295D01*
X173183342Y-117051295D02*
X172992866Y-117051295D01*
X172992866Y-117051295D02*
X172897628Y-117098914D01*
X172897628Y-117098914D02*
X172850009Y-117146533D01*
X172850009Y-117146533D02*
X172802390Y-117241771D01*
X187213742Y-115120980D02*
X187166123Y-115168600D01*
X187166123Y-115168600D02*
X187023266Y-115216219D01*
X187023266Y-115216219D02*
X186928028Y-115216219D01*
X186928028Y-115216219D02*
X186785171Y-115168600D01*
X186785171Y-115168600D02*
X186689933Y-115073361D01*
X186689933Y-115073361D02*
X186642314Y-114978123D01*
X186642314Y-114978123D02*
X186594695Y-114787647D01*
X186594695Y-114787647D02*
X186594695Y-114644790D01*
X186594695Y-114644790D02*
X186642314Y-114454314D01*
X186642314Y-114454314D02*
X186689933Y-114359076D01*
X186689933Y-114359076D02*
X186785171Y-114263838D01*
X186785171Y-114263838D02*
X186928028Y-114216219D01*
X186928028Y-114216219D02*
X187023266Y-114216219D01*
X187023266Y-114216219D02*
X187166123Y-114263838D01*
X187166123Y-114263838D02*
X187213742Y-114311457D01*
X187594695Y-114311457D02*
X187642314Y-114263838D01*
X187642314Y-114263838D02*
X187737552Y-114216219D01*
X187737552Y-114216219D02*
X187975647Y-114216219D01*
X187975647Y-114216219D02*
X188070885Y-114263838D01*
X188070885Y-114263838D02*
X188118504Y-114311457D01*
X188118504Y-114311457D02*
X188166123Y-114406695D01*
X188166123Y-114406695D02*
X188166123Y-114501933D01*
X188166123Y-114501933D02*
X188118504Y-114644790D01*
X188118504Y-114644790D02*
X187547076Y-115216219D01*
X187547076Y-115216219D02*
X188166123Y-115216219D01*
X188499457Y-114216219D02*
X189166123Y-114216219D01*
X189166123Y-114216219D02*
X188737552Y-115216219D01*
X178499442Y-121386980D02*
X178451823Y-121434600D01*
X178451823Y-121434600D02*
X178308966Y-121482219D01*
X178308966Y-121482219D02*
X178213728Y-121482219D01*
X178213728Y-121482219D02*
X178070871Y-121434600D01*
X178070871Y-121434600D02*
X177975633Y-121339361D01*
X177975633Y-121339361D02*
X177928014Y-121244123D01*
X177928014Y-121244123D02*
X177880395Y-121053647D01*
X177880395Y-121053647D02*
X177880395Y-120910790D01*
X177880395Y-120910790D02*
X177928014Y-120720314D01*
X177928014Y-120720314D02*
X177975633Y-120625076D01*
X177975633Y-120625076D02*
X178070871Y-120529838D01*
X178070871Y-120529838D02*
X178213728Y-120482219D01*
X178213728Y-120482219D02*
X178308966Y-120482219D01*
X178308966Y-120482219D02*
X178451823Y-120529838D01*
X178451823Y-120529838D02*
X178499442Y-120577457D01*
X178880395Y-120577457D02*
X178928014Y-120529838D01*
X178928014Y-120529838D02*
X179023252Y-120482219D01*
X179023252Y-120482219D02*
X179261347Y-120482219D01*
X179261347Y-120482219D02*
X179356585Y-120529838D01*
X179356585Y-120529838D02*
X179404204Y-120577457D01*
X179404204Y-120577457D02*
X179451823Y-120672695D01*
X179451823Y-120672695D02*
X179451823Y-120767933D01*
X179451823Y-120767933D02*
X179404204Y-120910790D01*
X179404204Y-120910790D02*
X178832776Y-121482219D01*
X178832776Y-121482219D02*
X179451823Y-121482219D01*
X180308966Y-120815552D02*
X180308966Y-121482219D01*
X180070871Y-120434600D02*
X179832776Y-121148885D01*
X179832776Y-121148885D02*
X180451823Y-121148885D01*
X179976542Y-79709180D02*
X179928923Y-79756800D01*
X179928923Y-79756800D02*
X179786066Y-79804419D01*
X179786066Y-79804419D02*
X179690828Y-79804419D01*
X179690828Y-79804419D02*
X179547971Y-79756800D01*
X179547971Y-79756800D02*
X179452733Y-79661561D01*
X179452733Y-79661561D02*
X179405114Y-79566323D01*
X179405114Y-79566323D02*
X179357495Y-79375847D01*
X179357495Y-79375847D02*
X179357495Y-79232990D01*
X179357495Y-79232990D02*
X179405114Y-79042514D01*
X179405114Y-79042514D02*
X179452733Y-78947276D01*
X179452733Y-78947276D02*
X179547971Y-78852038D01*
X179547971Y-78852038D02*
X179690828Y-78804419D01*
X179690828Y-78804419D02*
X179786066Y-78804419D01*
X179786066Y-78804419D02*
X179928923Y-78852038D01*
X179928923Y-78852038D02*
X179976542Y-78899657D01*
X180357495Y-78899657D02*
X180405114Y-78852038D01*
X180405114Y-78852038D02*
X180500352Y-78804419D01*
X180500352Y-78804419D02*
X180738447Y-78804419D01*
X180738447Y-78804419D02*
X180833685Y-78852038D01*
X180833685Y-78852038D02*
X180881304Y-78899657D01*
X180881304Y-78899657D02*
X180928923Y-78994895D01*
X180928923Y-78994895D02*
X180928923Y-79090133D01*
X180928923Y-79090133D02*
X180881304Y-79232990D01*
X180881304Y-79232990D02*
X180309876Y-79804419D01*
X180309876Y-79804419D02*
X180928923Y-79804419D01*
X181262257Y-78804419D02*
X181881304Y-78804419D01*
X181881304Y-78804419D02*
X181547971Y-79185371D01*
X181547971Y-79185371D02*
X181690828Y-79185371D01*
X181690828Y-79185371D02*
X181786066Y-79232990D01*
X181786066Y-79232990D02*
X181833685Y-79280609D01*
X181833685Y-79280609D02*
X181881304Y-79375847D01*
X181881304Y-79375847D02*
X181881304Y-79613942D01*
X181881304Y-79613942D02*
X181833685Y-79709180D01*
X181833685Y-79709180D02*
X181786066Y-79756800D01*
X181786066Y-79756800D02*
X181690828Y-79804419D01*
X181690828Y-79804419D02*
X181405114Y-79804419D01*
X181405114Y-79804419D02*
X181309876Y-79756800D01*
X181309876Y-79756800D02*
X181262257Y-79709180D01*
X186047142Y-78261380D02*
X185999523Y-78309000D01*
X185999523Y-78309000D02*
X185856666Y-78356619D01*
X185856666Y-78356619D02*
X185761428Y-78356619D01*
X185761428Y-78356619D02*
X185618571Y-78309000D01*
X185618571Y-78309000D02*
X185523333Y-78213761D01*
X185523333Y-78213761D02*
X185475714Y-78118523D01*
X185475714Y-78118523D02*
X185428095Y-77928047D01*
X185428095Y-77928047D02*
X185428095Y-77785190D01*
X185428095Y-77785190D02*
X185475714Y-77594714D01*
X185475714Y-77594714D02*
X185523333Y-77499476D01*
X185523333Y-77499476D02*
X185618571Y-77404238D01*
X185618571Y-77404238D02*
X185761428Y-77356619D01*
X185761428Y-77356619D02*
X185856666Y-77356619D01*
X185856666Y-77356619D02*
X185999523Y-77404238D01*
X185999523Y-77404238D02*
X186047142Y-77451857D01*
X186428095Y-77451857D02*
X186475714Y-77404238D01*
X186475714Y-77404238D02*
X186570952Y-77356619D01*
X186570952Y-77356619D02*
X186809047Y-77356619D01*
X186809047Y-77356619D02*
X186904285Y-77404238D01*
X186904285Y-77404238D02*
X186951904Y-77451857D01*
X186951904Y-77451857D02*
X186999523Y-77547095D01*
X186999523Y-77547095D02*
X186999523Y-77642333D01*
X186999523Y-77642333D02*
X186951904Y-77785190D01*
X186951904Y-77785190D02*
X186380476Y-78356619D01*
X186380476Y-78356619D02*
X186999523Y-78356619D01*
X187380476Y-77451857D02*
X187428095Y-77404238D01*
X187428095Y-77404238D02*
X187523333Y-77356619D01*
X187523333Y-77356619D02*
X187761428Y-77356619D01*
X187761428Y-77356619D02*
X187856666Y-77404238D01*
X187856666Y-77404238D02*
X187904285Y-77451857D01*
X187904285Y-77451857D02*
X187951904Y-77547095D01*
X187951904Y-77547095D02*
X187951904Y-77642333D01*
X187951904Y-77642333D02*
X187904285Y-77785190D01*
X187904285Y-77785190D02*
X187332857Y-78356619D01*
X187332857Y-78356619D02*
X187951904Y-78356619D01*
X185716942Y-73308380D02*
X185669323Y-73356000D01*
X185669323Y-73356000D02*
X185526466Y-73403619D01*
X185526466Y-73403619D02*
X185431228Y-73403619D01*
X185431228Y-73403619D02*
X185288371Y-73356000D01*
X185288371Y-73356000D02*
X185193133Y-73260761D01*
X185193133Y-73260761D02*
X185145514Y-73165523D01*
X185145514Y-73165523D02*
X185097895Y-72975047D01*
X185097895Y-72975047D02*
X185097895Y-72832190D01*
X185097895Y-72832190D02*
X185145514Y-72641714D01*
X185145514Y-72641714D02*
X185193133Y-72546476D01*
X185193133Y-72546476D02*
X185288371Y-72451238D01*
X185288371Y-72451238D02*
X185431228Y-72403619D01*
X185431228Y-72403619D02*
X185526466Y-72403619D01*
X185526466Y-72403619D02*
X185669323Y-72451238D01*
X185669323Y-72451238D02*
X185716942Y-72498857D01*
X186097895Y-72498857D02*
X186145514Y-72451238D01*
X186145514Y-72451238D02*
X186240752Y-72403619D01*
X186240752Y-72403619D02*
X186478847Y-72403619D01*
X186478847Y-72403619D02*
X186574085Y-72451238D01*
X186574085Y-72451238D02*
X186621704Y-72498857D01*
X186621704Y-72498857D02*
X186669323Y-72594095D01*
X186669323Y-72594095D02*
X186669323Y-72689333D01*
X186669323Y-72689333D02*
X186621704Y-72832190D01*
X186621704Y-72832190D02*
X186050276Y-73403619D01*
X186050276Y-73403619D02*
X186669323Y-73403619D01*
X187621704Y-73403619D02*
X187050276Y-73403619D01*
X187335990Y-73403619D02*
X187335990Y-72403619D01*
X187335990Y-72403619D02*
X187240752Y-72546476D01*
X187240752Y-72546476D02*
X187145514Y-72641714D01*
X187145514Y-72641714D02*
X187050276Y-72689333D01*
X186174142Y-72114580D02*
X186126523Y-72162200D01*
X186126523Y-72162200D02*
X185983666Y-72209819D01*
X185983666Y-72209819D02*
X185888428Y-72209819D01*
X185888428Y-72209819D02*
X185745571Y-72162200D01*
X185745571Y-72162200D02*
X185650333Y-72066961D01*
X185650333Y-72066961D02*
X185602714Y-71971723D01*
X185602714Y-71971723D02*
X185555095Y-71781247D01*
X185555095Y-71781247D02*
X185555095Y-71638390D01*
X185555095Y-71638390D02*
X185602714Y-71447914D01*
X185602714Y-71447914D02*
X185650333Y-71352676D01*
X185650333Y-71352676D02*
X185745571Y-71257438D01*
X185745571Y-71257438D02*
X185888428Y-71209819D01*
X185888428Y-71209819D02*
X185983666Y-71209819D01*
X185983666Y-71209819D02*
X186126523Y-71257438D01*
X186126523Y-71257438D02*
X186174142Y-71305057D01*
X186555095Y-71305057D02*
X186602714Y-71257438D01*
X186602714Y-71257438D02*
X186697952Y-71209819D01*
X186697952Y-71209819D02*
X186936047Y-71209819D01*
X186936047Y-71209819D02*
X187031285Y-71257438D01*
X187031285Y-71257438D02*
X187078904Y-71305057D01*
X187078904Y-71305057D02*
X187126523Y-71400295D01*
X187126523Y-71400295D02*
X187126523Y-71495533D01*
X187126523Y-71495533D02*
X187078904Y-71638390D01*
X187078904Y-71638390D02*
X186507476Y-72209819D01*
X186507476Y-72209819D02*
X187126523Y-72209819D01*
X187745571Y-71209819D02*
X187840809Y-71209819D01*
X187840809Y-71209819D02*
X187936047Y-71257438D01*
X187936047Y-71257438D02*
X187983666Y-71305057D01*
X187983666Y-71305057D02*
X188031285Y-71400295D01*
X188031285Y-71400295D02*
X188078904Y-71590771D01*
X188078904Y-71590771D02*
X188078904Y-71828866D01*
X188078904Y-71828866D02*
X188031285Y-72019342D01*
X188031285Y-72019342D02*
X187983666Y-72114580D01*
X187983666Y-72114580D02*
X187936047Y-72162200D01*
X187936047Y-72162200D02*
X187840809Y-72209819D01*
X187840809Y-72209819D02*
X187745571Y-72209819D01*
X187745571Y-72209819D02*
X187650333Y-72162200D01*
X187650333Y-72162200D02*
X187602714Y-72114580D01*
X187602714Y-72114580D02*
X187555095Y-72019342D01*
X187555095Y-72019342D02*
X187507476Y-71828866D01*
X187507476Y-71828866D02*
X187507476Y-71590771D01*
X187507476Y-71590771D02*
X187555095Y-71400295D01*
X187555095Y-71400295D02*
X187602714Y-71305057D01*
X187602714Y-71305057D02*
X187650333Y-71257438D01*
X187650333Y-71257438D02*
X187745571Y-71209819D01*
X183327342Y-68536580D02*
X183279723Y-68584200D01*
X183279723Y-68584200D02*
X183136866Y-68631819D01*
X183136866Y-68631819D02*
X183041628Y-68631819D01*
X183041628Y-68631819D02*
X182898771Y-68584200D01*
X182898771Y-68584200D02*
X182803533Y-68488961D01*
X182803533Y-68488961D02*
X182755914Y-68393723D01*
X182755914Y-68393723D02*
X182708295Y-68203247D01*
X182708295Y-68203247D02*
X182708295Y-68060390D01*
X182708295Y-68060390D02*
X182755914Y-67869914D01*
X182755914Y-67869914D02*
X182803533Y-67774676D01*
X182803533Y-67774676D02*
X182898771Y-67679438D01*
X182898771Y-67679438D02*
X183041628Y-67631819D01*
X183041628Y-67631819D02*
X183136866Y-67631819D01*
X183136866Y-67631819D02*
X183279723Y-67679438D01*
X183279723Y-67679438D02*
X183327342Y-67727057D01*
X184279723Y-68631819D02*
X183708295Y-68631819D01*
X183994009Y-68631819D02*
X183994009Y-67631819D01*
X183994009Y-67631819D02*
X183898771Y-67774676D01*
X183898771Y-67774676D02*
X183803533Y-67869914D01*
X183803533Y-67869914D02*
X183708295Y-67917533D01*
X184755914Y-68631819D02*
X184946390Y-68631819D01*
X184946390Y-68631819D02*
X185041628Y-68584200D01*
X185041628Y-68584200D02*
X185089247Y-68536580D01*
X185089247Y-68536580D02*
X185184485Y-68393723D01*
X185184485Y-68393723D02*
X185232104Y-68203247D01*
X185232104Y-68203247D02*
X185232104Y-67822295D01*
X185232104Y-67822295D02*
X185184485Y-67727057D01*
X185184485Y-67727057D02*
X185136866Y-67679438D01*
X185136866Y-67679438D02*
X185041628Y-67631819D01*
X185041628Y-67631819D02*
X184851152Y-67631819D01*
X184851152Y-67631819D02*
X184755914Y-67679438D01*
X184755914Y-67679438D02*
X184708295Y-67727057D01*
X184708295Y-67727057D02*
X184660676Y-67822295D01*
X184660676Y-67822295D02*
X184660676Y-68060390D01*
X184660676Y-68060390D02*
X184708295Y-68155628D01*
X184708295Y-68155628D02*
X184755914Y-68203247D01*
X184755914Y-68203247D02*
X184851152Y-68250866D01*
X184851152Y-68250866D02*
X185041628Y-68250866D01*
X185041628Y-68250866D02*
X185136866Y-68203247D01*
X185136866Y-68203247D02*
X185184485Y-68155628D01*
X185184485Y-68155628D02*
X185232104Y-68060390D01*
X189183742Y-102840980D02*
X189136123Y-102888600D01*
X189136123Y-102888600D02*
X188993266Y-102936219D01*
X188993266Y-102936219D02*
X188898028Y-102936219D01*
X188898028Y-102936219D02*
X188755171Y-102888600D01*
X188755171Y-102888600D02*
X188659933Y-102793361D01*
X188659933Y-102793361D02*
X188612314Y-102698123D01*
X188612314Y-102698123D02*
X188564695Y-102507647D01*
X188564695Y-102507647D02*
X188564695Y-102364790D01*
X188564695Y-102364790D02*
X188612314Y-102174314D01*
X188612314Y-102174314D02*
X188659933Y-102079076D01*
X188659933Y-102079076D02*
X188755171Y-101983838D01*
X188755171Y-101983838D02*
X188898028Y-101936219D01*
X188898028Y-101936219D02*
X188993266Y-101936219D01*
X188993266Y-101936219D02*
X189136123Y-101983838D01*
X189136123Y-101983838D02*
X189183742Y-102031457D01*
X190136123Y-102936219D02*
X189564695Y-102936219D01*
X189850409Y-102936219D02*
X189850409Y-101936219D01*
X189850409Y-101936219D02*
X189755171Y-102079076D01*
X189755171Y-102079076D02*
X189659933Y-102174314D01*
X189659933Y-102174314D02*
X189564695Y-102221933D01*
X190707552Y-102364790D02*
X190612314Y-102317171D01*
X190612314Y-102317171D02*
X190564695Y-102269552D01*
X190564695Y-102269552D02*
X190517076Y-102174314D01*
X190517076Y-102174314D02*
X190517076Y-102126695D01*
X190517076Y-102126695D02*
X190564695Y-102031457D01*
X190564695Y-102031457D02*
X190612314Y-101983838D01*
X190612314Y-101983838D02*
X190707552Y-101936219D01*
X190707552Y-101936219D02*
X190898028Y-101936219D01*
X190898028Y-101936219D02*
X190993266Y-101983838D01*
X190993266Y-101983838D02*
X191040885Y-102031457D01*
X191040885Y-102031457D02*
X191088504Y-102126695D01*
X191088504Y-102126695D02*
X191088504Y-102174314D01*
X191088504Y-102174314D02*
X191040885Y-102269552D01*
X191040885Y-102269552D02*
X190993266Y-102317171D01*
X190993266Y-102317171D02*
X190898028Y-102364790D01*
X190898028Y-102364790D02*
X190707552Y-102364790D01*
X190707552Y-102364790D02*
X190612314Y-102412409D01*
X190612314Y-102412409D02*
X190564695Y-102460028D01*
X190564695Y-102460028D02*
X190517076Y-102555266D01*
X190517076Y-102555266D02*
X190517076Y-102745742D01*
X190517076Y-102745742D02*
X190564695Y-102840980D01*
X190564695Y-102840980D02*
X190612314Y-102888600D01*
X190612314Y-102888600D02*
X190707552Y-102936219D01*
X190707552Y-102936219D02*
X190898028Y-102936219D01*
X190898028Y-102936219D02*
X190993266Y-102888600D01*
X190993266Y-102888600D02*
X191040885Y-102840980D01*
X191040885Y-102840980D02*
X191088504Y-102745742D01*
X191088504Y-102745742D02*
X191088504Y-102555266D01*
X191088504Y-102555266D02*
X191040885Y-102460028D01*
X191040885Y-102460028D02*
X190993266Y-102412409D01*
X190993266Y-102412409D02*
X190898028Y-102364790D01*
X181576742Y-82245580D02*
X181529123Y-82293200D01*
X181529123Y-82293200D02*
X181386266Y-82340819D01*
X181386266Y-82340819D02*
X181291028Y-82340819D01*
X181291028Y-82340819D02*
X181148171Y-82293200D01*
X181148171Y-82293200D02*
X181052933Y-82197961D01*
X181052933Y-82197961D02*
X181005314Y-82102723D01*
X181005314Y-82102723D02*
X180957695Y-81912247D01*
X180957695Y-81912247D02*
X180957695Y-81769390D01*
X180957695Y-81769390D02*
X181005314Y-81578914D01*
X181005314Y-81578914D02*
X181052933Y-81483676D01*
X181052933Y-81483676D02*
X181148171Y-81388438D01*
X181148171Y-81388438D02*
X181291028Y-81340819D01*
X181291028Y-81340819D02*
X181386266Y-81340819D01*
X181386266Y-81340819D02*
X181529123Y-81388438D01*
X181529123Y-81388438D02*
X181576742Y-81436057D01*
X182529123Y-82340819D02*
X181957695Y-82340819D01*
X182243409Y-82340819D02*
X182243409Y-81340819D01*
X182243409Y-81340819D02*
X182148171Y-81483676D01*
X182148171Y-81483676D02*
X182052933Y-81578914D01*
X182052933Y-81578914D02*
X181957695Y-81626533D01*
X182862457Y-81340819D02*
X183529123Y-81340819D01*
X183529123Y-81340819D02*
X183100552Y-82340819D01*
X166315242Y-84157780D02*
X166267623Y-84205400D01*
X166267623Y-84205400D02*
X166124766Y-84253019D01*
X166124766Y-84253019D02*
X166029528Y-84253019D01*
X166029528Y-84253019D02*
X165886671Y-84205400D01*
X165886671Y-84205400D02*
X165791433Y-84110161D01*
X165791433Y-84110161D02*
X165743814Y-84014923D01*
X165743814Y-84014923D02*
X165696195Y-83824447D01*
X165696195Y-83824447D02*
X165696195Y-83681590D01*
X165696195Y-83681590D02*
X165743814Y-83491114D01*
X165743814Y-83491114D02*
X165791433Y-83395876D01*
X165791433Y-83395876D02*
X165886671Y-83300638D01*
X165886671Y-83300638D02*
X166029528Y-83253019D01*
X166029528Y-83253019D02*
X166124766Y-83253019D01*
X166124766Y-83253019D02*
X166267623Y-83300638D01*
X166267623Y-83300638D02*
X166315242Y-83348257D01*
X167267623Y-84253019D02*
X166696195Y-84253019D01*
X166981909Y-84253019D02*
X166981909Y-83253019D01*
X166981909Y-83253019D02*
X166886671Y-83395876D01*
X166886671Y-83395876D02*
X166791433Y-83491114D01*
X166791433Y-83491114D02*
X166696195Y-83538733D01*
X168124766Y-83253019D02*
X167934290Y-83253019D01*
X167934290Y-83253019D02*
X167839052Y-83300638D01*
X167839052Y-83300638D02*
X167791433Y-83348257D01*
X167791433Y-83348257D02*
X167696195Y-83491114D01*
X167696195Y-83491114D02*
X167648576Y-83681590D01*
X167648576Y-83681590D02*
X167648576Y-84062542D01*
X167648576Y-84062542D02*
X167696195Y-84157780D01*
X167696195Y-84157780D02*
X167743814Y-84205400D01*
X167743814Y-84205400D02*
X167839052Y-84253019D01*
X167839052Y-84253019D02*
X168029528Y-84253019D01*
X168029528Y-84253019D02*
X168124766Y-84205400D01*
X168124766Y-84205400D02*
X168172385Y-84157780D01*
X168172385Y-84157780D02*
X168220004Y-84062542D01*
X168220004Y-84062542D02*
X168220004Y-83824447D01*
X168220004Y-83824447D02*
X168172385Y-83729209D01*
X168172385Y-83729209D02*
X168124766Y-83681590D01*
X168124766Y-83681590D02*
X168029528Y-83633971D01*
X168029528Y-83633971D02*
X167839052Y-83633971D01*
X167839052Y-83633971D02*
X167743814Y-83681590D01*
X167743814Y-83681590D02*
X167696195Y-83729209D01*
X167696195Y-83729209D02*
X167648576Y-83824447D01*
X164308642Y-102438580D02*
X164261023Y-102486200D01*
X164261023Y-102486200D02*
X164118166Y-102533819D01*
X164118166Y-102533819D02*
X164022928Y-102533819D01*
X164022928Y-102533819D02*
X163880071Y-102486200D01*
X163880071Y-102486200D02*
X163784833Y-102390961D01*
X163784833Y-102390961D02*
X163737214Y-102295723D01*
X163737214Y-102295723D02*
X163689595Y-102105247D01*
X163689595Y-102105247D02*
X163689595Y-101962390D01*
X163689595Y-101962390D02*
X163737214Y-101771914D01*
X163737214Y-101771914D02*
X163784833Y-101676676D01*
X163784833Y-101676676D02*
X163880071Y-101581438D01*
X163880071Y-101581438D02*
X164022928Y-101533819D01*
X164022928Y-101533819D02*
X164118166Y-101533819D01*
X164118166Y-101533819D02*
X164261023Y-101581438D01*
X164261023Y-101581438D02*
X164308642Y-101629057D01*
X165261023Y-102533819D02*
X164689595Y-102533819D01*
X164975309Y-102533819D02*
X164975309Y-101533819D01*
X164975309Y-101533819D02*
X164880071Y-101676676D01*
X164880071Y-101676676D02*
X164784833Y-101771914D01*
X164784833Y-101771914D02*
X164689595Y-101819533D01*
X166165785Y-101533819D02*
X165689595Y-101533819D01*
X165689595Y-101533819D02*
X165641976Y-102010009D01*
X165641976Y-102010009D02*
X165689595Y-101962390D01*
X165689595Y-101962390D02*
X165784833Y-101914771D01*
X165784833Y-101914771D02*
X166022928Y-101914771D01*
X166022928Y-101914771D02*
X166118166Y-101962390D01*
X166118166Y-101962390D02*
X166165785Y-102010009D01*
X166165785Y-102010009D02*
X166213404Y-102105247D01*
X166213404Y-102105247D02*
X166213404Y-102343342D01*
X166213404Y-102343342D02*
X166165785Y-102438580D01*
X166165785Y-102438580D02*
X166118166Y-102486200D01*
X166118166Y-102486200D02*
X166022928Y-102533819D01*
X166022928Y-102533819D02*
X165784833Y-102533819D01*
X165784833Y-102533819D02*
X165689595Y-102486200D01*
X165689595Y-102486200D02*
X165641976Y-102438580D01*
X182266442Y-115240180D02*
X182218823Y-115287800D01*
X182218823Y-115287800D02*
X182075966Y-115335419D01*
X182075966Y-115335419D02*
X181980728Y-115335419D01*
X181980728Y-115335419D02*
X181837871Y-115287800D01*
X181837871Y-115287800D02*
X181742633Y-115192561D01*
X181742633Y-115192561D02*
X181695014Y-115097323D01*
X181695014Y-115097323D02*
X181647395Y-114906847D01*
X181647395Y-114906847D02*
X181647395Y-114763990D01*
X181647395Y-114763990D02*
X181695014Y-114573514D01*
X181695014Y-114573514D02*
X181742633Y-114478276D01*
X181742633Y-114478276D02*
X181837871Y-114383038D01*
X181837871Y-114383038D02*
X181980728Y-114335419D01*
X181980728Y-114335419D02*
X182075966Y-114335419D01*
X182075966Y-114335419D02*
X182218823Y-114383038D01*
X182218823Y-114383038D02*
X182266442Y-114430657D01*
X183218823Y-115335419D02*
X182647395Y-115335419D01*
X182933109Y-115335419D02*
X182933109Y-114335419D01*
X182933109Y-114335419D02*
X182837871Y-114478276D01*
X182837871Y-114478276D02*
X182742633Y-114573514D01*
X182742633Y-114573514D02*
X182647395Y-114621133D01*
X184075966Y-114668752D02*
X184075966Y-115335419D01*
X183837871Y-114287800D02*
X183599776Y-115002085D01*
X183599776Y-115002085D02*
X184218823Y-115002085D01*
X181830742Y-90195780D02*
X181783123Y-90243400D01*
X181783123Y-90243400D02*
X181640266Y-90291019D01*
X181640266Y-90291019D02*
X181545028Y-90291019D01*
X181545028Y-90291019D02*
X181402171Y-90243400D01*
X181402171Y-90243400D02*
X181306933Y-90148161D01*
X181306933Y-90148161D02*
X181259314Y-90052923D01*
X181259314Y-90052923D02*
X181211695Y-89862447D01*
X181211695Y-89862447D02*
X181211695Y-89719590D01*
X181211695Y-89719590D02*
X181259314Y-89529114D01*
X181259314Y-89529114D02*
X181306933Y-89433876D01*
X181306933Y-89433876D02*
X181402171Y-89338638D01*
X181402171Y-89338638D02*
X181545028Y-89291019D01*
X181545028Y-89291019D02*
X181640266Y-89291019D01*
X181640266Y-89291019D02*
X181783123Y-89338638D01*
X181783123Y-89338638D02*
X181830742Y-89386257D01*
X182783123Y-90291019D02*
X182211695Y-90291019D01*
X182497409Y-90291019D02*
X182497409Y-89291019D01*
X182497409Y-89291019D02*
X182402171Y-89433876D01*
X182402171Y-89433876D02*
X182306933Y-89529114D01*
X182306933Y-89529114D02*
X182211695Y-89576733D01*
X183116457Y-89291019D02*
X183735504Y-89291019D01*
X183735504Y-89291019D02*
X183402171Y-89671971D01*
X183402171Y-89671971D02*
X183545028Y-89671971D01*
X183545028Y-89671971D02*
X183640266Y-89719590D01*
X183640266Y-89719590D02*
X183687885Y-89767209D01*
X183687885Y-89767209D02*
X183735504Y-89862447D01*
X183735504Y-89862447D02*
X183735504Y-90100542D01*
X183735504Y-90100542D02*
X183687885Y-90195780D01*
X183687885Y-90195780D02*
X183640266Y-90243400D01*
X183640266Y-90243400D02*
X183545028Y-90291019D01*
X183545028Y-90291019D02*
X183259314Y-90291019D01*
X183259314Y-90291019D02*
X183164076Y-90243400D01*
X183164076Y-90243400D02*
X183116457Y-90195780D01*
X158792942Y-100185180D02*
X158745323Y-100232800D01*
X158745323Y-100232800D02*
X158602466Y-100280419D01*
X158602466Y-100280419D02*
X158507228Y-100280419D01*
X158507228Y-100280419D02*
X158364371Y-100232800D01*
X158364371Y-100232800D02*
X158269133Y-100137561D01*
X158269133Y-100137561D02*
X158221514Y-100042323D01*
X158221514Y-100042323D02*
X158173895Y-99851847D01*
X158173895Y-99851847D02*
X158173895Y-99708990D01*
X158173895Y-99708990D02*
X158221514Y-99518514D01*
X158221514Y-99518514D02*
X158269133Y-99423276D01*
X158269133Y-99423276D02*
X158364371Y-99328038D01*
X158364371Y-99328038D02*
X158507228Y-99280419D01*
X158507228Y-99280419D02*
X158602466Y-99280419D01*
X158602466Y-99280419D02*
X158745323Y-99328038D01*
X158745323Y-99328038D02*
X158792942Y-99375657D01*
X159745323Y-100280419D02*
X159173895Y-100280419D01*
X159459609Y-100280419D02*
X159459609Y-99280419D01*
X159459609Y-99280419D02*
X159364371Y-99423276D01*
X159364371Y-99423276D02*
X159269133Y-99518514D01*
X159269133Y-99518514D02*
X159173895Y-99566133D01*
X160126276Y-99375657D02*
X160173895Y-99328038D01*
X160173895Y-99328038D02*
X160269133Y-99280419D01*
X160269133Y-99280419D02*
X160507228Y-99280419D01*
X160507228Y-99280419D02*
X160602466Y-99328038D01*
X160602466Y-99328038D02*
X160650085Y-99375657D01*
X160650085Y-99375657D02*
X160697704Y-99470895D01*
X160697704Y-99470895D02*
X160697704Y-99566133D01*
X160697704Y-99566133D02*
X160650085Y-99708990D01*
X160650085Y-99708990D02*
X160078657Y-100280419D01*
X160078657Y-100280419D02*
X160697704Y-100280419D01*
X192913380Y-102365957D02*
X192961000Y-102413576D01*
X192961000Y-102413576D02*
X193008619Y-102556433D01*
X193008619Y-102556433D02*
X193008619Y-102651671D01*
X193008619Y-102651671D02*
X192961000Y-102794528D01*
X192961000Y-102794528D02*
X192865761Y-102889766D01*
X192865761Y-102889766D02*
X192770523Y-102937385D01*
X192770523Y-102937385D02*
X192580047Y-102985004D01*
X192580047Y-102985004D02*
X192437190Y-102985004D01*
X192437190Y-102985004D02*
X192246714Y-102937385D01*
X192246714Y-102937385D02*
X192151476Y-102889766D01*
X192151476Y-102889766D02*
X192056238Y-102794528D01*
X192056238Y-102794528D02*
X192008619Y-102651671D01*
X192008619Y-102651671D02*
X192008619Y-102556433D01*
X192008619Y-102556433D02*
X192056238Y-102413576D01*
X192056238Y-102413576D02*
X192103857Y-102365957D01*
X193008619Y-101413576D02*
X193008619Y-101985004D01*
X193008619Y-101699290D02*
X192008619Y-101699290D01*
X192008619Y-101699290D02*
X192151476Y-101794528D01*
X192151476Y-101794528D02*
X192246714Y-101889766D01*
X192246714Y-101889766D02*
X192294333Y-101985004D01*
X193008619Y-100461195D02*
X193008619Y-101032623D01*
X193008619Y-100746909D02*
X192008619Y-100746909D01*
X192008619Y-100746909D02*
X192151476Y-100842147D01*
X192151476Y-100842147D02*
X192246714Y-100937385D01*
X192246714Y-100937385D02*
X192294333Y-101032623D01*
X191955380Y-111238357D02*
X192003000Y-111285976D01*
X192003000Y-111285976D02*
X192050619Y-111428833D01*
X192050619Y-111428833D02*
X192050619Y-111524071D01*
X192050619Y-111524071D02*
X192003000Y-111666928D01*
X192003000Y-111666928D02*
X191907761Y-111762166D01*
X191907761Y-111762166D02*
X191812523Y-111809785D01*
X191812523Y-111809785D02*
X191622047Y-111857404D01*
X191622047Y-111857404D02*
X191479190Y-111857404D01*
X191479190Y-111857404D02*
X191288714Y-111809785D01*
X191288714Y-111809785D02*
X191193476Y-111762166D01*
X191193476Y-111762166D02*
X191098238Y-111666928D01*
X191098238Y-111666928D02*
X191050619Y-111524071D01*
X191050619Y-111524071D02*
X191050619Y-111428833D01*
X191050619Y-111428833D02*
X191098238Y-111285976D01*
X191098238Y-111285976D02*
X191145857Y-111238357D01*
X192050619Y-110285976D02*
X192050619Y-110857404D01*
X192050619Y-110571690D02*
X191050619Y-110571690D01*
X191050619Y-110571690D02*
X191193476Y-110666928D01*
X191193476Y-110666928D02*
X191288714Y-110762166D01*
X191288714Y-110762166D02*
X191336333Y-110857404D01*
X191050619Y-109666928D02*
X191050619Y-109571690D01*
X191050619Y-109571690D02*
X191098238Y-109476452D01*
X191098238Y-109476452D02*
X191145857Y-109428833D01*
X191145857Y-109428833D02*
X191241095Y-109381214D01*
X191241095Y-109381214D02*
X191431571Y-109333595D01*
X191431571Y-109333595D02*
X191669666Y-109333595D01*
X191669666Y-109333595D02*
X191860142Y-109381214D01*
X191860142Y-109381214D02*
X191955380Y-109428833D01*
X191955380Y-109428833D02*
X192003000Y-109476452D01*
X192003000Y-109476452D02*
X192050619Y-109571690D01*
X192050619Y-109571690D02*
X192050619Y-109666928D01*
X192050619Y-109666928D02*
X192003000Y-109762166D01*
X192003000Y-109762166D02*
X191955380Y-109809785D01*
X191955380Y-109809785D02*
X191860142Y-109857404D01*
X191860142Y-109857404D02*
X191669666Y-109905023D01*
X191669666Y-109905023D02*
X191431571Y-109905023D01*
X191431571Y-109905023D02*
X191241095Y-109857404D01*
X191241095Y-109857404D02*
X191145857Y-109809785D01*
X191145857Y-109809785D02*
X191098238Y-109762166D01*
X191098238Y-109762166D02*
X191050619Y-109666928D01*
X173819433Y-93631980D02*
X173771814Y-93679600D01*
X173771814Y-93679600D02*
X173628957Y-93727219D01*
X173628957Y-93727219D02*
X173533719Y-93727219D01*
X173533719Y-93727219D02*
X173390862Y-93679600D01*
X173390862Y-93679600D02*
X173295624Y-93584361D01*
X173295624Y-93584361D02*
X173248005Y-93489123D01*
X173248005Y-93489123D02*
X173200386Y-93298647D01*
X173200386Y-93298647D02*
X173200386Y-93155790D01*
X173200386Y-93155790D02*
X173248005Y-92965314D01*
X173248005Y-92965314D02*
X173295624Y-92870076D01*
X173295624Y-92870076D02*
X173390862Y-92774838D01*
X173390862Y-92774838D02*
X173533719Y-92727219D01*
X173533719Y-92727219D02*
X173628957Y-92727219D01*
X173628957Y-92727219D02*
X173771814Y-92774838D01*
X173771814Y-92774838D02*
X173819433Y-92822457D01*
X174295624Y-93727219D02*
X174486100Y-93727219D01*
X174486100Y-93727219D02*
X174581338Y-93679600D01*
X174581338Y-93679600D02*
X174628957Y-93631980D01*
X174628957Y-93631980D02*
X174724195Y-93489123D01*
X174724195Y-93489123D02*
X174771814Y-93298647D01*
X174771814Y-93298647D02*
X174771814Y-92917695D01*
X174771814Y-92917695D02*
X174724195Y-92822457D01*
X174724195Y-92822457D02*
X174676576Y-92774838D01*
X174676576Y-92774838D02*
X174581338Y-92727219D01*
X174581338Y-92727219D02*
X174390862Y-92727219D01*
X174390862Y-92727219D02*
X174295624Y-92774838D01*
X174295624Y-92774838D02*
X174248005Y-92822457D01*
X174248005Y-92822457D02*
X174200386Y-92917695D01*
X174200386Y-92917695D02*
X174200386Y-93155790D01*
X174200386Y-93155790D02*
X174248005Y-93251028D01*
X174248005Y-93251028D02*
X174295624Y-93298647D01*
X174295624Y-93298647D02*
X174390862Y-93346266D01*
X174390862Y-93346266D02*
X174581338Y-93346266D01*
X174581338Y-93346266D02*
X174676576Y-93298647D01*
X174676576Y-93298647D02*
X174724195Y-93251028D01*
X174724195Y-93251028D02*
X174771814Y-93155790D01*
X189977733Y-80387380D02*
X189930114Y-80435000D01*
X189930114Y-80435000D02*
X189787257Y-80482619D01*
X189787257Y-80482619D02*
X189692019Y-80482619D01*
X189692019Y-80482619D02*
X189549162Y-80435000D01*
X189549162Y-80435000D02*
X189453924Y-80339761D01*
X189453924Y-80339761D02*
X189406305Y-80244523D01*
X189406305Y-80244523D02*
X189358686Y-80054047D01*
X189358686Y-80054047D02*
X189358686Y-79911190D01*
X189358686Y-79911190D02*
X189406305Y-79720714D01*
X189406305Y-79720714D02*
X189453924Y-79625476D01*
X189453924Y-79625476D02*
X189549162Y-79530238D01*
X189549162Y-79530238D02*
X189692019Y-79482619D01*
X189692019Y-79482619D02*
X189787257Y-79482619D01*
X189787257Y-79482619D02*
X189930114Y-79530238D01*
X189930114Y-79530238D02*
X189977733Y-79577857D01*
X190549162Y-79911190D02*
X190453924Y-79863571D01*
X190453924Y-79863571D02*
X190406305Y-79815952D01*
X190406305Y-79815952D02*
X190358686Y-79720714D01*
X190358686Y-79720714D02*
X190358686Y-79673095D01*
X190358686Y-79673095D02*
X190406305Y-79577857D01*
X190406305Y-79577857D02*
X190453924Y-79530238D01*
X190453924Y-79530238D02*
X190549162Y-79482619D01*
X190549162Y-79482619D02*
X190739638Y-79482619D01*
X190739638Y-79482619D02*
X190834876Y-79530238D01*
X190834876Y-79530238D02*
X190882495Y-79577857D01*
X190882495Y-79577857D02*
X190930114Y-79673095D01*
X190930114Y-79673095D02*
X190930114Y-79720714D01*
X190930114Y-79720714D02*
X190882495Y-79815952D01*
X190882495Y-79815952D02*
X190834876Y-79863571D01*
X190834876Y-79863571D02*
X190739638Y-79911190D01*
X190739638Y-79911190D02*
X190549162Y-79911190D01*
X190549162Y-79911190D02*
X190453924Y-79958809D01*
X190453924Y-79958809D02*
X190406305Y-80006428D01*
X190406305Y-80006428D02*
X190358686Y-80101666D01*
X190358686Y-80101666D02*
X190358686Y-80292142D01*
X190358686Y-80292142D02*
X190406305Y-80387380D01*
X190406305Y-80387380D02*
X190453924Y-80435000D01*
X190453924Y-80435000D02*
X190549162Y-80482619D01*
X190549162Y-80482619D02*
X190739638Y-80482619D01*
X190739638Y-80482619D02*
X190834876Y-80435000D01*
X190834876Y-80435000D02*
X190882495Y-80387380D01*
X190882495Y-80387380D02*
X190930114Y-80292142D01*
X190930114Y-80292142D02*
X190930114Y-80101666D01*
X190930114Y-80101666D02*
X190882495Y-80006428D01*
X190882495Y-80006428D02*
X190834876Y-79958809D01*
X190834876Y-79958809D02*
X190739638Y-79911190D01*
X166873533Y-70573580D02*
X166825914Y-70621200D01*
X166825914Y-70621200D02*
X166683057Y-70668819D01*
X166683057Y-70668819D02*
X166587819Y-70668819D01*
X166587819Y-70668819D02*
X166444962Y-70621200D01*
X166444962Y-70621200D02*
X166349724Y-70525961D01*
X166349724Y-70525961D02*
X166302105Y-70430723D01*
X166302105Y-70430723D02*
X166254486Y-70240247D01*
X166254486Y-70240247D02*
X166254486Y-70097390D01*
X166254486Y-70097390D02*
X166302105Y-69906914D01*
X166302105Y-69906914D02*
X166349724Y-69811676D01*
X166349724Y-69811676D02*
X166444962Y-69716438D01*
X166444962Y-69716438D02*
X166587819Y-69668819D01*
X166587819Y-69668819D02*
X166683057Y-69668819D01*
X166683057Y-69668819D02*
X166825914Y-69716438D01*
X166825914Y-69716438D02*
X166873533Y-69764057D01*
X167206867Y-69668819D02*
X167873533Y-69668819D01*
X167873533Y-69668819D02*
X167444962Y-70668819D01*
X170614780Y-46902666D02*
X170662400Y-46950285D01*
X170662400Y-46950285D02*
X170710019Y-47093142D01*
X170710019Y-47093142D02*
X170710019Y-47188380D01*
X170710019Y-47188380D02*
X170662400Y-47331237D01*
X170662400Y-47331237D02*
X170567161Y-47426475D01*
X170567161Y-47426475D02*
X170471923Y-47474094D01*
X170471923Y-47474094D02*
X170281447Y-47521713D01*
X170281447Y-47521713D02*
X170138590Y-47521713D01*
X170138590Y-47521713D02*
X169948114Y-47474094D01*
X169948114Y-47474094D02*
X169852876Y-47426475D01*
X169852876Y-47426475D02*
X169757638Y-47331237D01*
X169757638Y-47331237D02*
X169710019Y-47188380D01*
X169710019Y-47188380D02*
X169710019Y-47093142D01*
X169710019Y-47093142D02*
X169757638Y-46950285D01*
X169757638Y-46950285D02*
X169805257Y-46902666D01*
X169710019Y-46045523D02*
X169710019Y-46235999D01*
X169710019Y-46235999D02*
X169757638Y-46331237D01*
X169757638Y-46331237D02*
X169805257Y-46378856D01*
X169805257Y-46378856D02*
X169948114Y-46474094D01*
X169948114Y-46474094D02*
X170138590Y-46521713D01*
X170138590Y-46521713D02*
X170519542Y-46521713D01*
X170519542Y-46521713D02*
X170614780Y-46474094D01*
X170614780Y-46474094D02*
X170662400Y-46426475D01*
X170662400Y-46426475D02*
X170710019Y-46331237D01*
X170710019Y-46331237D02*
X170710019Y-46140761D01*
X170710019Y-46140761D02*
X170662400Y-46045523D01*
X170662400Y-46045523D02*
X170614780Y-45997904D01*
X170614780Y-45997904D02*
X170519542Y-45950285D01*
X170519542Y-45950285D02*
X170281447Y-45950285D01*
X170281447Y-45950285D02*
X170186209Y-45997904D01*
X170186209Y-45997904D02*
X170138590Y-46045523D01*
X170138590Y-46045523D02*
X170090971Y-46140761D01*
X170090971Y-46140761D02*
X170090971Y-46331237D01*
X170090971Y-46331237D02*
X170138590Y-46426475D01*
X170138590Y-46426475D02*
X170186209Y-46474094D01*
X170186209Y-46474094D02*
X170281447Y-46521713D01*
X162283933Y-108309580D02*
X162236314Y-108357200D01*
X162236314Y-108357200D02*
X162093457Y-108404819D01*
X162093457Y-108404819D02*
X161998219Y-108404819D01*
X161998219Y-108404819D02*
X161855362Y-108357200D01*
X161855362Y-108357200D02*
X161760124Y-108261961D01*
X161760124Y-108261961D02*
X161712505Y-108166723D01*
X161712505Y-108166723D02*
X161664886Y-107976247D01*
X161664886Y-107976247D02*
X161664886Y-107833390D01*
X161664886Y-107833390D02*
X161712505Y-107642914D01*
X161712505Y-107642914D02*
X161760124Y-107547676D01*
X161760124Y-107547676D02*
X161855362Y-107452438D01*
X161855362Y-107452438D02*
X161998219Y-107404819D01*
X161998219Y-107404819D02*
X162093457Y-107404819D01*
X162093457Y-107404819D02*
X162236314Y-107452438D01*
X162236314Y-107452438D02*
X162283933Y-107500057D01*
X163188695Y-107404819D02*
X162712505Y-107404819D01*
X162712505Y-107404819D02*
X162664886Y-107881009D01*
X162664886Y-107881009D02*
X162712505Y-107833390D01*
X162712505Y-107833390D02*
X162807743Y-107785771D01*
X162807743Y-107785771D02*
X163045838Y-107785771D01*
X163045838Y-107785771D02*
X163141076Y-107833390D01*
X163141076Y-107833390D02*
X163188695Y-107881009D01*
X163188695Y-107881009D02*
X163236314Y-107976247D01*
X163236314Y-107976247D02*
X163236314Y-108214342D01*
X163236314Y-108214342D02*
X163188695Y-108309580D01*
X163188695Y-108309580D02*
X163141076Y-108357200D01*
X163141076Y-108357200D02*
X163045838Y-108404819D01*
X163045838Y-108404819D02*
X162807743Y-108404819D01*
X162807743Y-108404819D02*
X162712505Y-108357200D01*
X162712505Y-108357200D02*
X162664886Y-108309580D01*
X202340380Y-54366366D02*
X202388000Y-54413985D01*
X202388000Y-54413985D02*
X202435619Y-54556842D01*
X202435619Y-54556842D02*
X202435619Y-54652080D01*
X202435619Y-54652080D02*
X202388000Y-54794937D01*
X202388000Y-54794937D02*
X202292761Y-54890175D01*
X202292761Y-54890175D02*
X202197523Y-54937794D01*
X202197523Y-54937794D02*
X202007047Y-54985413D01*
X202007047Y-54985413D02*
X201864190Y-54985413D01*
X201864190Y-54985413D02*
X201673714Y-54937794D01*
X201673714Y-54937794D02*
X201578476Y-54890175D01*
X201578476Y-54890175D02*
X201483238Y-54794937D01*
X201483238Y-54794937D02*
X201435619Y-54652080D01*
X201435619Y-54652080D02*
X201435619Y-54556842D01*
X201435619Y-54556842D02*
X201483238Y-54413985D01*
X201483238Y-54413985D02*
X201530857Y-54366366D01*
X201768952Y-53509223D02*
X202435619Y-53509223D01*
X201388000Y-53747318D02*
X202102285Y-53985413D01*
X202102285Y-53985413D02*
X202102285Y-53366366D01*
X188884133Y-65467380D02*
X188836514Y-65515000D01*
X188836514Y-65515000D02*
X188693657Y-65562619D01*
X188693657Y-65562619D02*
X188598419Y-65562619D01*
X188598419Y-65562619D02*
X188455562Y-65515000D01*
X188455562Y-65515000D02*
X188360324Y-65419761D01*
X188360324Y-65419761D02*
X188312705Y-65324523D01*
X188312705Y-65324523D02*
X188265086Y-65134047D01*
X188265086Y-65134047D02*
X188265086Y-64991190D01*
X188265086Y-64991190D02*
X188312705Y-64800714D01*
X188312705Y-64800714D02*
X188360324Y-64705476D01*
X188360324Y-64705476D02*
X188455562Y-64610238D01*
X188455562Y-64610238D02*
X188598419Y-64562619D01*
X188598419Y-64562619D02*
X188693657Y-64562619D01*
X188693657Y-64562619D02*
X188836514Y-64610238D01*
X188836514Y-64610238D02*
X188884133Y-64657857D01*
X189217467Y-64562619D02*
X189836514Y-64562619D01*
X189836514Y-64562619D02*
X189503181Y-64943571D01*
X189503181Y-64943571D02*
X189646038Y-64943571D01*
X189646038Y-64943571D02*
X189741276Y-64991190D01*
X189741276Y-64991190D02*
X189788895Y-65038809D01*
X189788895Y-65038809D02*
X189836514Y-65134047D01*
X189836514Y-65134047D02*
X189836514Y-65372142D01*
X189836514Y-65372142D02*
X189788895Y-65467380D01*
X189788895Y-65467380D02*
X189741276Y-65515000D01*
X189741276Y-65515000D02*
X189646038Y-65562619D01*
X189646038Y-65562619D02*
X189360324Y-65562619D01*
X189360324Y-65562619D02*
X189265086Y-65515000D01*
X189265086Y-65515000D02*
X189217467Y-65467380D01*
X199241580Y-54424966D02*
X199289200Y-54472585D01*
X199289200Y-54472585D02*
X199336819Y-54615442D01*
X199336819Y-54615442D02*
X199336819Y-54710680D01*
X199336819Y-54710680D02*
X199289200Y-54853537D01*
X199289200Y-54853537D02*
X199193961Y-54948775D01*
X199193961Y-54948775D02*
X199098723Y-54996394D01*
X199098723Y-54996394D02*
X198908247Y-55044013D01*
X198908247Y-55044013D02*
X198765390Y-55044013D01*
X198765390Y-55044013D02*
X198574914Y-54996394D01*
X198574914Y-54996394D02*
X198479676Y-54948775D01*
X198479676Y-54948775D02*
X198384438Y-54853537D01*
X198384438Y-54853537D02*
X198336819Y-54710680D01*
X198336819Y-54710680D02*
X198336819Y-54615442D01*
X198336819Y-54615442D02*
X198384438Y-54472585D01*
X198384438Y-54472585D02*
X198432057Y-54424966D01*
X198432057Y-54044013D02*
X198384438Y-53996394D01*
X198384438Y-53996394D02*
X198336819Y-53901156D01*
X198336819Y-53901156D02*
X198336819Y-53663061D01*
X198336819Y-53663061D02*
X198384438Y-53567823D01*
X198384438Y-53567823D02*
X198432057Y-53520204D01*
X198432057Y-53520204D02*
X198527295Y-53472585D01*
X198527295Y-53472585D02*
X198622533Y-53472585D01*
X198622533Y-53472585D02*
X198765390Y-53520204D01*
X198765390Y-53520204D02*
X199336819Y-54091632D01*
X199336819Y-54091632D02*
X199336819Y-53472585D01*
X159387980Y-55030666D02*
X159435600Y-55078285D01*
X159435600Y-55078285D02*
X159483219Y-55221142D01*
X159483219Y-55221142D02*
X159483219Y-55316380D01*
X159483219Y-55316380D02*
X159435600Y-55459237D01*
X159435600Y-55459237D02*
X159340361Y-55554475D01*
X159340361Y-55554475D02*
X159245123Y-55602094D01*
X159245123Y-55602094D02*
X159054647Y-55649713D01*
X159054647Y-55649713D02*
X158911790Y-55649713D01*
X158911790Y-55649713D02*
X158721314Y-55602094D01*
X158721314Y-55602094D02*
X158626076Y-55554475D01*
X158626076Y-55554475D02*
X158530838Y-55459237D01*
X158530838Y-55459237D02*
X158483219Y-55316380D01*
X158483219Y-55316380D02*
X158483219Y-55221142D01*
X158483219Y-55221142D02*
X158530838Y-55078285D01*
X158530838Y-55078285D02*
X158578457Y-55030666D01*
X159483219Y-54078285D02*
X159483219Y-54649713D01*
X159483219Y-54363999D02*
X158483219Y-54363999D01*
X158483219Y-54363999D02*
X158626076Y-54459237D01*
X158626076Y-54459237D02*
X158721314Y-54554475D01*
X158721314Y-54554475D02*
X158768933Y-54649713D01*
X160020885Y-34857009D02*
X160163742Y-34904628D01*
X160163742Y-34904628D02*
X160211361Y-34952247D01*
X160211361Y-34952247D02*
X160258980Y-35047485D01*
X160258980Y-35047485D02*
X160258980Y-35190342D01*
X160258980Y-35190342D02*
X160211361Y-35285580D01*
X160211361Y-35285580D02*
X160163742Y-35333200D01*
X160163742Y-35333200D02*
X160068504Y-35380819D01*
X160068504Y-35380819D02*
X159687552Y-35380819D01*
X159687552Y-35380819D02*
X159687552Y-34380819D01*
X159687552Y-34380819D02*
X160020885Y-34380819D01*
X160020885Y-34380819D02*
X160116123Y-34428438D01*
X160116123Y-34428438D02*
X160163742Y-34476057D01*
X160163742Y-34476057D02*
X160211361Y-34571295D01*
X160211361Y-34571295D02*
X160211361Y-34666533D01*
X160211361Y-34666533D02*
X160163742Y-34761771D01*
X160163742Y-34761771D02*
X160116123Y-34809390D01*
X160116123Y-34809390D02*
X160020885Y-34857009D01*
X160020885Y-34857009D02*
X159687552Y-34857009D01*
X160544695Y-34380819D02*
X161116123Y-34380819D01*
X160830409Y-35380819D02*
X160830409Y-34380819D01*
X161973266Y-35380819D02*
X161401838Y-35380819D01*
X161687552Y-35380819D02*
X161687552Y-34380819D01*
X161687552Y-34380819D02*
X161592314Y-34523676D01*
X161592314Y-34523676D02*
X161497076Y-34618914D01*
X161497076Y-34618914D02*
X161401838Y-34666533D01*
D12*
%TO.C,C25*%
X152956800Y-74307367D02*
X152956800Y-74014833D01*
X153976800Y-74307367D02*
X153976800Y-74014833D01*
%TO.C,C26*%
X185864167Y-121947400D02*
X185571633Y-121947400D01*
X185864167Y-120927400D02*
X185571633Y-120927400D01*
D13*
%TO.C,IC1*%
X171521800Y-96559200D02*
X184821800Y-96559200D01*
X184821800Y-96559200D02*
X184821800Y-109859200D01*
X184821800Y-109859200D02*
X171521800Y-109859200D01*
X171521800Y-109859200D02*
X171521800Y-96559200D01*
X169996800Y-96409200D02*
G75*
G03*
X169796800Y-96409200I-100000J0D01*
G01*
X169796800Y-96409200D02*
G75*
G03*
X169996800Y-96409200I100000J0D01*
G01*
D12*
%TO.C,J8*%
X169600600Y-66267400D02*
X170990600Y-66267400D01*
X170990600Y-66267400D02*
X170990600Y-66267400D01*
X169600600Y-66387400D02*
X169600600Y-67267400D01*
X169600600Y-66267400D02*
X169600600Y-67267400D01*
X170990600Y-67387400D02*
X170990600Y-68387400D01*
X170990600Y-66267400D02*
X171985600Y-66267400D01*
X169600600Y-68387400D02*
X169600600Y-68387400D01*
X169600600Y-68387400D02*
X170990600Y-68387400D01*
%TO.C,R32*%
X154255736Y-89181000D02*
X154709864Y-89181000D01*
X154255736Y-90651000D02*
X154709864Y-90651000D01*
%TO.C,U3*%
X195317800Y-54232400D02*
X195317800Y-54957400D01*
X195317800Y-51462400D02*
X195317800Y-50737400D01*
X191097800Y-51462400D02*
X191097800Y-50737400D01*
X195317800Y-50737400D02*
X194592800Y-50737400D01*
X191097800Y-50737400D02*
X191822800Y-50737400D01*
X191097800Y-54232400D02*
X191097800Y-54957400D01*
X195317800Y-54957400D02*
X194592800Y-54957400D01*
%TO.C,Y1*%
X178002800Y-80015800D02*
X170027800Y-80015800D01*
X170027800Y-80015800D02*
X170027800Y-83915800D01*
X170027800Y-83915800D02*
X178002800Y-83915800D01*
%TO.C,U4*%
X184149600Y-125887900D02*
X184149600Y-125087900D01*
X187269600Y-125887900D02*
X187269600Y-124087900D01*
X187269600Y-125887900D02*
X187269600Y-126687900D01*
X184149600Y-125887900D02*
X184149600Y-126687900D01*
%TO.C,U2*%
X178677000Y-41649600D02*
X184687000Y-41649600D01*
X180927000Y-48469600D02*
X184687000Y-48469600D01*
X184687000Y-48469600D02*
X184687000Y-47209600D01*
X184687000Y-41649600D02*
X184687000Y-42909600D01*
%TO.C,U1*%
X155506400Y-76284200D02*
X159506400Y-76284200D01*
X157506400Y-72064200D02*
X159506400Y-72064200D01*
%TO.C,R45*%
X174957236Y-62587200D02*
X175411364Y-62587200D01*
X174957236Y-64057200D02*
X175411364Y-64057200D01*
%TO.C,R44*%
X166666936Y-94108600D02*
X167121064Y-94108600D01*
X166666936Y-95578600D02*
X167121064Y-95578600D01*
%TO.C,R43*%
X185215264Y-87349000D02*
X184761136Y-87349000D01*
X185215264Y-85879000D02*
X184761136Y-85879000D01*
%TO.C,R42*%
X193759064Y-108380200D02*
X193304936Y-108380200D01*
X193759064Y-106910200D02*
X193304936Y-106910200D01*
%TO.C,R41*%
X176334664Y-117702000D02*
X175880536Y-117702000D01*
X176334664Y-116232000D02*
X175880536Y-116232000D01*
%TO.C,R40*%
X173870864Y-123442400D02*
X173416736Y-123442400D01*
X173870864Y-121972400D02*
X173416736Y-121972400D01*
%TO.C,R39*%
X159783536Y-92457600D02*
X160237664Y-92457600D01*
X159783536Y-93927600D02*
X160237664Y-93927600D01*
%TO.C,R38*%
X159834336Y-89206400D02*
X160288464Y-89206400D01*
X159834336Y-90676400D02*
X160288464Y-90676400D01*
%TO.C,R37*%
X159783536Y-85828200D02*
X160237664Y-85828200D01*
X159783536Y-87298200D02*
X160237664Y-87298200D01*
%TO.C,R36*%
X159758136Y-83567600D02*
X160212264Y-83567600D01*
X159758136Y-85037600D02*
X160212264Y-85037600D01*
%TO.C,R35*%
X159894536Y-80113200D02*
X160348664Y-80113200D01*
X159894536Y-81583200D02*
X160348664Y-81583200D01*
%TO.C,R34*%
X154246336Y-96724800D02*
X154700464Y-96724800D01*
X154246336Y-98194800D02*
X154700464Y-98194800D01*
%TO.C,R33*%
X154424136Y-92203600D02*
X154878264Y-92203600D01*
X154424136Y-93673600D02*
X154878264Y-93673600D01*
%TO.C,R31*%
X154424136Y-87773600D02*
X154878264Y-87773600D01*
X154424136Y-86303600D02*
X154878264Y-86303600D01*
%TO.C,R30*%
X154424136Y-83353600D02*
X154878264Y-83353600D01*
X154424136Y-84823600D02*
X154878264Y-84823600D01*
%TO.C,R29*%
X154424136Y-80403600D02*
X154878264Y-80403600D01*
X154424136Y-81873600D02*
X154878264Y-81873600D01*
%TO.C,R28*%
X165031664Y-111275800D02*
X164577536Y-111275800D01*
X165031664Y-109805800D02*
X164577536Y-109805800D01*
%TO.C,R27*%
X155501424Y-102782900D02*
X154991976Y-102782900D01*
X155501424Y-101737900D02*
X154991976Y-101737900D01*
%TO.C,R26*%
X156718364Y-119607000D02*
X156264236Y-119607000D01*
X156718364Y-118137000D02*
X156264236Y-118137000D01*
%TO.C,R25*%
X156515164Y-116203400D02*
X156061036Y-116203400D01*
X156515164Y-114733400D02*
X156061036Y-114733400D01*
%TO.C,R24*%
X156665664Y-112241000D02*
X156211536Y-112241000D01*
X156665664Y-110771000D02*
X156211536Y-110771000D01*
%TO.C,R23*%
X155930964Y-107338800D02*
X155476836Y-107338800D01*
X155930964Y-105868800D02*
X155476836Y-105868800D01*
%TO.C,R22*%
X159109036Y-102109600D02*
X159563164Y-102109600D01*
X159109036Y-103579600D02*
X159563164Y-103579600D01*
%TO.C,R21*%
X160328236Y-117857600D02*
X160782364Y-117857600D01*
X160328236Y-119327600D02*
X160782364Y-119327600D01*
%TO.C,R20*%
X160074236Y-114428600D02*
X160528364Y-114428600D01*
X160074236Y-115898600D02*
X160528364Y-115898600D01*
%TO.C,R19*%
X159947236Y-111199600D02*
X160401364Y-111199600D01*
X159947236Y-109729600D02*
X160401364Y-109729600D01*
%TO.C,R18*%
X159236036Y-106021200D02*
X159690164Y-106021200D01*
X159236036Y-107491200D02*
X159690164Y-107491200D01*
%TO.C,R17*%
X158575636Y-67413200D02*
X159029764Y-67413200D01*
X158575636Y-68883200D02*
X159029764Y-68883200D01*
%TO.C,R16*%
X158397836Y-65178000D02*
X158851964Y-65178000D01*
X158397836Y-66648000D02*
X158851964Y-66648000D01*
%TO.C,R15*%
X158499436Y-60707600D02*
X158953564Y-60707600D01*
X158499436Y-62177600D02*
X158953564Y-62177600D01*
%TO.C,R14*%
X158243536Y-56948400D02*
X158697664Y-56948400D01*
X158243536Y-58418400D02*
X158697664Y-58418400D01*
%TO.C,R13*%
X156492836Y-53849600D02*
X156946964Y-53849600D01*
X156492836Y-55319600D02*
X156946964Y-55319600D01*
%TO.C,R12*%
X193495664Y-79906800D02*
X193041536Y-79906800D01*
X193495664Y-78436800D02*
X193041536Y-78436800D01*
%TO.C,R11*%
X193470264Y-76401600D02*
X193016136Y-76401600D01*
X193470264Y-74931600D02*
X193016136Y-74931600D01*
%TO.C,R10*%
X193368664Y-73048800D02*
X192914536Y-73048800D01*
X193368664Y-71578800D02*
X192914536Y-71578800D01*
%TO.C,R9*%
X193470264Y-69823000D02*
X193016136Y-69823000D01*
X193470264Y-68353000D02*
X193016136Y-68353000D01*
%TO.C,R8*%
X193141964Y-65276400D02*
X192687836Y-65276400D01*
X193141964Y-63806400D02*
X192687836Y-63806400D01*
%TO.C,R7*%
X205208200Y-42060864D02*
X205208200Y-41606736D01*
X206678200Y-42060864D02*
X206678200Y-41606736D01*
%TO.C,R6*%
X208738800Y-42160564D02*
X208738800Y-41706436D01*
X210208800Y-42160564D02*
X210208800Y-41706436D01*
%TO.C,R5*%
X166573400Y-55266964D02*
X166573400Y-54812836D01*
X168043400Y-55266964D02*
X168043400Y-54812836D01*
%TO.C,R4*%
X178025600Y-51870236D02*
X178025600Y-52324364D01*
X176555600Y-51870236D02*
X176555600Y-52324364D01*
%TO.C,R3*%
X204825964Y-59459800D02*
X204371836Y-59459800D01*
X204825964Y-57989800D02*
X204371836Y-57989800D01*
%TO.C,R2*%
X201344200Y-57483636D02*
X201344200Y-57937764D01*
X199874200Y-57483636D02*
X199874200Y-57937764D01*
%TO.C,R1*%
X170964400Y-51438436D02*
X170964400Y-51892564D01*
X169494400Y-51438436D02*
X169494400Y-51892564D01*
%TO.C,J7*%
X171291200Y-131504800D02*
X172846200Y-131504800D01*
X205766200Y-133424800D02*
X207136200Y-133424800D01*
X177826200Y-133424800D02*
X179196200Y-133424800D01*
X201956200Y-131504800D02*
X203326200Y-131504800D01*
X193066200Y-133424800D02*
X194436200Y-133424800D01*
X171576200Y-134654800D02*
X171576200Y-133424800D01*
X171291200Y-133424800D02*
X171291200Y-131504800D01*
X174016200Y-131504800D02*
X175386200Y-131504800D01*
X194336200Y-131504800D02*
X195706200Y-131504800D01*
X195606200Y-133424800D02*
X196976200Y-133424800D01*
X190526200Y-133424800D02*
X191896200Y-133424800D01*
X187986200Y-133424800D02*
X189356200Y-133424800D01*
X200686200Y-133424800D02*
X202056200Y-133424800D01*
X185446200Y-133424800D02*
X186816200Y-133424800D01*
X186716200Y-131504800D02*
X188086200Y-131504800D01*
X175286200Y-133424800D02*
X176656200Y-133424800D01*
X180366200Y-133424800D02*
X181736200Y-133424800D01*
X182906200Y-133424800D02*
X184276200Y-133424800D01*
X196876200Y-131504800D02*
X198246200Y-131504800D01*
X191796200Y-131504800D02*
X193166200Y-131504800D01*
X181636200Y-131504800D02*
X183006200Y-131504800D01*
X209576200Y-131504800D02*
X209861200Y-131504800D01*
X198146200Y-133424800D02*
X199516200Y-133424800D01*
X208306200Y-133424800D02*
X209861200Y-133424800D01*
X204496200Y-131504800D02*
X205866200Y-131504800D01*
X199416200Y-131504800D02*
X200786200Y-131504800D01*
X171291200Y-133424800D02*
X171576200Y-133424800D01*
X179096200Y-131504800D02*
X180466200Y-131504800D01*
X172746200Y-133424800D02*
X174116200Y-133424800D01*
X184176200Y-131504800D02*
X185546200Y-131504800D01*
X203226200Y-133424800D02*
X204596200Y-133424800D01*
X189256200Y-131504800D02*
X190626200Y-131504800D01*
X209861200Y-133424800D02*
X209861200Y-131504800D01*
X207036200Y-131504800D02*
X208406200Y-131504800D01*
X176556200Y-131504800D02*
X177926200Y-131504800D01*
%TO.C,J6*%
X169778400Y-132946000D02*
X169278400Y-133196000D01*
X169778400Y-128046000D02*
X169778400Y-122996000D01*
X169278400Y-133196000D02*
X169278400Y-127796000D01*
X169278400Y-134646000D02*
X169778400Y-134946000D01*
X153878400Y-122996000D02*
X153878400Y-135596000D01*
X169278400Y-127796000D02*
X169778400Y-128046000D01*
X169778400Y-122996000D02*
X153878400Y-122996000D01*
X153878400Y-135596000D02*
X169278400Y-135596000D01*
X169778400Y-134946000D02*
X169778400Y-132946000D01*
X169278400Y-135596000D02*
X169278400Y-134646000D01*
%TO.C,J5*%
X142895200Y-80803200D02*
X141895200Y-80803200D01*
X141895200Y-83403200D02*
X142895200Y-83403200D01*
X148395200Y-78503200D02*
X142895200Y-78503200D01*
X141895200Y-101803200D02*
X141895200Y-104403200D01*
X141285200Y-77893200D02*
X141285200Y-105013200D01*
X141895200Y-80803200D02*
X141895200Y-83403200D01*
X148395200Y-104403200D02*
X148395200Y-78503200D01*
X147895200Y-77593200D02*
X150305200Y-77593200D01*
X150005200Y-77893200D02*
X141285200Y-77893200D01*
X142895200Y-101803200D02*
X141895200Y-101803200D01*
X142895200Y-78503200D02*
X142895200Y-80803200D01*
X142895200Y-83403200D02*
X142895200Y-101803200D01*
X150305200Y-77593200D02*
X150305200Y-80003200D01*
X141895200Y-104403200D02*
X148395200Y-104403200D01*
X141285200Y-105013200D02*
X150005200Y-105013200D01*
X150005200Y-105013200D02*
X150005200Y-77893200D01*
%TO.C,J4*%
X142946000Y-51882400D02*
X141946000Y-51882400D01*
X141946000Y-54482400D02*
X142946000Y-54482400D01*
X148446000Y-49582400D02*
X142946000Y-49582400D01*
X141946000Y-72882400D02*
X141946000Y-75482400D01*
X141336000Y-48972400D02*
X141336000Y-76092400D01*
X141946000Y-51882400D02*
X141946000Y-54482400D01*
X148446000Y-75482400D02*
X148446000Y-49582400D01*
X147946000Y-48672400D02*
X150356000Y-48672400D01*
X150056000Y-48972400D02*
X141336000Y-48972400D01*
X142946000Y-72882400D02*
X141946000Y-72882400D01*
X142946000Y-49582400D02*
X142946000Y-51882400D01*
X142946000Y-54482400D02*
X142946000Y-72882400D01*
X150356000Y-48672400D02*
X150356000Y-51082400D01*
X141946000Y-75482400D02*
X148446000Y-75482400D01*
X141336000Y-76092400D02*
X150056000Y-76092400D01*
X150056000Y-76092400D02*
X150056000Y-48972400D01*
%TO.C,J3*%
X148671400Y-131921800D02*
X149671400Y-131921800D01*
X149671400Y-129321800D02*
X148671400Y-129321800D01*
X143171400Y-134221800D02*
X148671400Y-134221800D01*
X149671400Y-110921800D02*
X149671400Y-108321800D01*
X150281400Y-134831800D02*
X150281400Y-107711800D01*
X149671400Y-131921800D02*
X149671400Y-129321800D01*
X143171400Y-108321800D02*
X143171400Y-134221800D01*
X143671400Y-135131800D02*
X141261400Y-135131800D01*
X141561400Y-134831800D02*
X150281400Y-134831800D01*
X148671400Y-110921800D02*
X149671400Y-110921800D01*
X148671400Y-134221800D02*
X148671400Y-131921800D01*
X148671400Y-129321800D02*
X148671400Y-110921800D01*
X141261400Y-135131800D02*
X141261400Y-132721800D01*
X149671400Y-108321800D02*
X143171400Y-108321800D01*
X150281400Y-107711800D02*
X141561400Y-107711800D01*
X141561400Y-107711800D02*
X141561400Y-134831800D01*
%TO.C,J2*%
X203931400Y-99771200D02*
X202931400Y-99771200D01*
X202931400Y-99771200D02*
X202931400Y-102371200D01*
X211341400Y-61561200D02*
X211341400Y-63971200D01*
X208931400Y-61561200D02*
X211341400Y-61561200D01*
X202931400Y-67371200D02*
X203931400Y-67371200D01*
X203931400Y-62471200D02*
X203931400Y-64771200D01*
X209431400Y-102371200D02*
X209431400Y-62471200D01*
X209431400Y-62471200D02*
X203931400Y-62471200D01*
X203931400Y-67371200D02*
X203931400Y-99771200D01*
X202931400Y-64771200D02*
X202931400Y-67371200D01*
X202321400Y-61861200D02*
X202321400Y-102981200D01*
X203931400Y-64771200D02*
X202931400Y-64771200D01*
X211041400Y-61861200D02*
X202321400Y-61861200D01*
X211041400Y-102981200D02*
X211041400Y-61861200D01*
X202321400Y-102981200D02*
X211041400Y-102981200D01*
X202931400Y-102371200D02*
X209431400Y-102371200D01*
%TO.C,J1*%
X203337200Y-46114600D02*
X202917200Y-46114600D01*
X203337200Y-44134600D02*
X203337200Y-46114600D01*
X195817200Y-44134600D02*
X195817200Y-46114600D01*
X195817200Y-42164600D02*
X195817200Y-41764600D01*
X203337200Y-41764600D02*
X203337200Y-42164600D01*
X201337200Y-46344600D02*
X201337200Y-46794600D01*
X195817200Y-46114600D02*
X196237200Y-46114600D01*
X200887200Y-46794600D02*
X201337200Y-46794600D01*
%TO.C,FB1*%
X186320600Y-53233336D02*
X186320600Y-56037464D01*
X189040600Y-53233336D02*
X189040600Y-56037464D01*
%TO.C,D11*%
X165619800Y-91799800D02*
X170829800Y-91799800D01*
X170829800Y-87879800D02*
X165619800Y-87879800D01*
X165619800Y-87879800D02*
X165619800Y-91799800D01*
%TO.C,D10*%
X191529600Y-89454600D02*
X186319600Y-89454600D01*
X186319600Y-93374600D02*
X191529600Y-93374600D01*
X191529600Y-93374600D02*
X191529600Y-89454600D01*
%TO.C,D9*%
X204458200Y-105405800D02*
X199248200Y-105405800D01*
X199248200Y-109325800D02*
X204458200Y-109325800D01*
X204458200Y-109325800D02*
X204458200Y-105405800D01*
%TO.C,D8*%
X196250600Y-97586600D02*
X196250600Y-93526600D01*
X193080600Y-93526600D02*
X193080600Y-97586600D01*
X196250600Y-93526600D02*
X193080600Y-93526600D01*
%TO.C,D7*%
X197347800Y-94996200D02*
X197347800Y-99056200D01*
X200517800Y-99056200D02*
X200517800Y-94996200D01*
X197347800Y-99056200D02*
X200517800Y-99056200D01*
%TO.C,D6*%
X209300200Y-49819100D02*
X209300200Y-44609100D01*
X205380200Y-44609100D02*
X205380200Y-49819100D01*
X205380200Y-49819100D02*
X209300200Y-49819100D01*
%TO.C,D5*%
X210011400Y-57591500D02*
X210011400Y-52381500D01*
X206091400Y-52381500D02*
X206091400Y-57591500D01*
X206091400Y-57591500D02*
X210011400Y-57591500D01*
%TO.C,D4*%
X174780200Y-59830600D02*
X174780200Y-54620600D01*
X170860200Y-54620600D02*
X170860200Y-59830600D01*
X170860200Y-59830600D02*
X174780200Y-59830600D01*
%TO.C,D3*%
X184813200Y-56964300D02*
X184813200Y-51754300D01*
X180893200Y-51754300D02*
X180893200Y-56964300D01*
X180893200Y-56964300D02*
X184813200Y-56964300D01*
%TO.C,D2*%
X178234200Y-57774800D02*
X178234200Y-60944800D01*
X178234200Y-60944800D02*
X182294200Y-60944800D01*
X182294200Y-57774800D02*
X178234200Y-57774800D01*
%TO.C,D1*%
X189270600Y-43372300D02*
X189270600Y-47432300D01*
X192440600Y-47432300D02*
X192440600Y-43372300D01*
X189270600Y-47432300D02*
X192440600Y-47432300D01*
%TO.C,C28*%
X170159000Y-117601948D02*
X170159000Y-119024452D01*
X171979000Y-117601948D02*
X171979000Y-119024452D01*
%TO.C,C27*%
X187145348Y-115701400D02*
X188567852Y-115701400D01*
X187145348Y-117521400D02*
X188567852Y-117521400D01*
%TO.C,C24*%
X178881048Y-121972400D02*
X179403552Y-121972400D01*
X178881048Y-123442400D02*
X179403552Y-123442400D01*
%TO.C,C23*%
X183615420Y-79707200D02*
X183896580Y-79707200D01*
X183615420Y-78687200D02*
X183896580Y-78687200D01*
%TO.C,C22*%
X183615420Y-77197200D02*
X183896580Y-77197200D01*
X183615420Y-76177200D02*
X183896580Y-76177200D01*
%TO.C,C21*%
X183615420Y-74687200D02*
X183896580Y-74687200D01*
X183615420Y-73667200D02*
X183896580Y-73667200D01*
%TO.C,C20*%
X183615420Y-72177200D02*
X183896580Y-72177200D01*
X183615420Y-71157200D02*
X183896580Y-71157200D01*
%TO.C,C19*%
X183829620Y-70117000D02*
X184110780Y-70117000D01*
X183829620Y-69097000D02*
X184110780Y-69097000D01*
%TO.C,C18*%
X189686020Y-104421400D02*
X189967180Y-104421400D01*
X189686020Y-103401400D02*
X189967180Y-103401400D01*
%TO.C,C17*%
X181958348Y-82831000D02*
X182480852Y-82831000D01*
X181958348Y-84301000D02*
X182480852Y-84301000D01*
%TO.C,C16*%
X167219352Y-82853200D02*
X166696848Y-82853200D01*
X167219352Y-81383200D02*
X166696848Y-81383200D01*
%TO.C,C15*%
X164690248Y-103024000D02*
X165212752Y-103024000D01*
X164690248Y-104494000D02*
X165212752Y-104494000D01*
%TO.C,C14*%
X182648048Y-115825600D02*
X183170552Y-115825600D01*
X182648048Y-117295600D02*
X183170552Y-117295600D01*
%TO.C,C13*%
X182212348Y-90781200D02*
X182734852Y-90781200D01*
X182212348Y-92251200D02*
X182734852Y-92251200D01*
%TO.C,C12*%
X159697052Y-98880600D02*
X159174548Y-98880600D01*
X159697052Y-97410600D02*
X159174548Y-97410600D01*
%TO.C,C11*%
X193498800Y-101984352D02*
X193498800Y-101461848D01*
X194968800Y-101984352D02*
X194968800Y-101461848D01*
%TO.C,C10*%
X190650800Y-110334248D02*
X190650800Y-110856752D01*
X189180800Y-110334248D02*
X189180800Y-110856752D01*
%TO.C,C9*%
X174247352Y-92327400D02*
X173724848Y-92327400D01*
X174247352Y-90857400D02*
X173724848Y-90857400D01*
%TO.C,C8*%
X185659400Y-84737800D02*
X193694400Y-84737800D01*
X193694400Y-80717800D02*
X185659400Y-80717800D01*
X185659400Y-80717800D02*
X185659400Y-84737800D01*
%TO.C,C7*%
X165344637Y-76674000D02*
X169800200Y-76674000D01*
X163727700Y-71916500D02*
X163727700Y-72541500D01*
X164280200Y-75609563D02*
X165344637Y-76674000D01*
X164280200Y-75609563D02*
X164280200Y-74974000D01*
X164280200Y-72218437D02*
X164280200Y-72854000D01*
X163415200Y-72229000D02*
X164040200Y-72229000D01*
X169800200Y-71154000D02*
X169800200Y-72854000D01*
X164280200Y-72218437D02*
X165344637Y-71154000D01*
X165344637Y-71154000D02*
X169800200Y-71154000D01*
X169800200Y-76674000D02*
X169800200Y-74974000D01*
%TO.C,C6*%
X171895200Y-49736000D02*
X171895200Y-49236000D01*
X171195200Y-47931563D02*
X171195200Y-44476000D01*
X175715200Y-47931563D02*
X175715200Y-44476000D01*
X174650763Y-48996000D02*
X175715200Y-47931563D01*
X171645200Y-49486000D02*
X172145200Y-49486000D01*
X175715200Y-44476000D02*
X174515200Y-44476000D01*
X171195200Y-44476000D02*
X172395200Y-44476000D01*
X172259637Y-48996000D02*
X172395200Y-48996000D01*
X174650763Y-48996000D02*
X174515200Y-48996000D01*
X172259637Y-48996000D02*
X171195200Y-47931563D01*
%TO.C,C5*%
X164682448Y-105233800D02*
X165204952Y-105233800D01*
X164682448Y-106703800D02*
X165204952Y-106703800D01*
%TO.C,C4*%
X202817400Y-51097548D02*
X202817400Y-51620052D01*
X201347400Y-51097548D02*
X201347400Y-51620052D01*
%TO.C,C3*%
X190621363Y-63467800D02*
X189921363Y-64167800D01*
X191425800Y-63842800D02*
X191050800Y-63842800D01*
X187290800Y-64167800D02*
X187290800Y-63467800D01*
X189921363Y-64167800D02*
X187290800Y-64167800D01*
X190621363Y-61347800D02*
X189921363Y-60647800D01*
X191238300Y-64030300D02*
X191238300Y-63655300D01*
X187290800Y-60647800D02*
X187290800Y-61347800D01*
X189921363Y-60647800D02*
X187290800Y-60647800D01*
%TO.C,C2*%
X197867600Y-51670852D02*
X197867600Y-51148348D01*
X199337600Y-51670852D02*
X199337600Y-51148348D01*
%TO.C,C1*%
X160668400Y-57864000D02*
X160668400Y-57364000D01*
X159968400Y-56059563D02*
X159968400Y-52604000D01*
X164488400Y-56059563D02*
X164488400Y-52604000D01*
X163423963Y-57124000D02*
X164488400Y-56059563D01*
X160418400Y-57614000D02*
X160918400Y-57614000D01*
X164488400Y-52604000D02*
X163288400Y-52604000D01*
X159968400Y-52604000D02*
X161168400Y-52604000D01*
X161032837Y-57124000D02*
X161168400Y-57124000D01*
X163423963Y-57124000D02*
X163288400Y-57124000D01*
X161032837Y-57124000D02*
X159968400Y-56059563D01*
%TO.C,BT1*%
X155391985Y-48510159D02*
G75*
G03*
X156306599Y-48126000I124615J984160D01*
G01*
X165306600Y-48126000D02*
G75*
G03*
X166221215Y-48510160I790000J600000D01*
G01*
X166106600Y-48526000D02*
G75*
G03*
X167556600Y-46976000I-50000J1500000D01*
G01*
X154056600Y-46976000D02*
G75*
G03*
X155506600Y-48526000I1499999J-50001D01*
G01*
X164956600Y-36876000D02*
X167556600Y-39476000D01*
X167556600Y-39476000D02*
X167556600Y-40926000D01*
X154056600Y-40926000D02*
X154056600Y-39476000D01*
X167556600Y-44926000D02*
X167556600Y-47026000D01*
X154056600Y-44926000D02*
X154056600Y-47026000D01*
X154056600Y-39476000D02*
X156656600Y-36876000D01*
X156656600Y-36876000D02*
X156656600Y-36076000D01*
X156656600Y-36076000D02*
X164956600Y-36076000D01*
X164956600Y-36076000D02*
X164956600Y-36876000D01*
%TD*%
%LPC*%
D14*
%TO.C,C25*%
X153466800Y-75023600D03*
X153466800Y-73298600D03*
%TD*%
D15*
%TO.C,C26*%
X186580400Y-121437400D03*
X184855400Y-121437400D03*
%TD*%
D16*
%TO.C,IC1*%
X170433800Y-97009200D03*
X170433800Y-97409200D03*
X170433800Y-97809200D03*
X170433800Y-98209200D03*
X170433800Y-98609200D03*
X170433800Y-99009200D03*
X170433800Y-99409200D03*
X170433800Y-99809200D03*
X170433800Y-100209200D03*
X170433800Y-100609200D03*
X170433800Y-101009200D03*
X170433800Y-101409200D03*
X170433800Y-101809200D03*
X170433800Y-102209200D03*
X170433800Y-102609200D03*
X170433800Y-103009200D03*
X170433800Y-103409200D03*
X170433800Y-103809200D03*
X170433800Y-104209200D03*
X170433800Y-104609200D03*
X170433800Y-105009200D03*
X170433800Y-105409200D03*
X170433800Y-105809200D03*
X170433800Y-106209200D03*
X170433800Y-106609200D03*
X170433800Y-107009200D03*
X170433800Y-107409200D03*
X170433800Y-107809200D03*
X170433800Y-108209200D03*
X170433800Y-108609200D03*
X170433800Y-109009200D03*
X170433800Y-109409200D03*
D17*
X171971800Y-110947200D03*
X172371800Y-110947200D03*
X172771800Y-110947200D03*
X173171800Y-110947200D03*
X173571800Y-110947200D03*
X173971800Y-110947200D03*
X174371800Y-110947200D03*
X174771800Y-110947200D03*
X175171800Y-110947200D03*
X175571800Y-110947200D03*
X175971800Y-110947200D03*
X176371800Y-110947200D03*
X176771800Y-110947200D03*
X177171800Y-110947200D03*
X177571800Y-110947200D03*
X177971800Y-110947200D03*
X178371800Y-110947200D03*
X178771800Y-110947200D03*
X179171800Y-110947200D03*
X179571800Y-110947200D03*
X179971800Y-110947200D03*
X180371800Y-110947200D03*
X180771800Y-110947200D03*
X181171800Y-110947200D03*
X181571800Y-110947200D03*
X181971800Y-110947200D03*
X182371800Y-110947200D03*
X182771800Y-110947200D03*
X183171800Y-110947200D03*
X183571800Y-110947200D03*
X183971800Y-110947200D03*
X184371800Y-110947200D03*
D16*
X185909800Y-109409200D03*
X185909800Y-109009200D03*
X185909800Y-108609200D03*
X185909800Y-108209200D03*
X185909800Y-107809200D03*
X185909800Y-107409200D03*
X185909800Y-107009200D03*
X185909800Y-106609200D03*
X185909800Y-106209200D03*
X185909800Y-105809200D03*
X185909800Y-105409200D03*
X185909800Y-105009200D03*
X185909800Y-104609200D03*
X185909800Y-104209200D03*
X185909800Y-103809200D03*
X185909800Y-103409200D03*
X185909800Y-103009200D03*
X185909800Y-102609200D03*
X185909800Y-102209200D03*
X185909800Y-101809200D03*
X185909800Y-101409200D03*
X185909800Y-101009200D03*
X185909800Y-100609200D03*
X185909800Y-100209200D03*
X185909800Y-99809200D03*
X185909800Y-99409200D03*
X185909800Y-99009200D03*
X185909800Y-98609200D03*
X185909800Y-98209200D03*
X185909800Y-97809200D03*
X185909800Y-97409200D03*
X185909800Y-97009200D03*
D17*
X184371800Y-95471200D03*
X183971800Y-95471200D03*
X183571800Y-95471200D03*
X183171800Y-95471200D03*
X182771800Y-95471200D03*
X182371800Y-95471200D03*
X181971800Y-95471200D03*
X181571800Y-95471200D03*
X181171800Y-95471200D03*
X180771800Y-95471200D03*
X180371800Y-95471200D03*
X179971800Y-95471200D03*
X179571800Y-95471200D03*
X179171800Y-95471200D03*
X178771800Y-95471200D03*
X178371800Y-95471200D03*
X177971800Y-95471200D03*
X177571800Y-95471200D03*
X177171800Y-95471200D03*
X176771800Y-95471200D03*
X176371800Y-95471200D03*
X175971800Y-95471200D03*
X175571800Y-95471200D03*
X175171800Y-95471200D03*
X174771800Y-95471200D03*
X174371800Y-95471200D03*
X173971800Y-95471200D03*
X173571800Y-95471200D03*
X173171800Y-95471200D03*
X172771800Y-95471200D03*
X172371800Y-95471200D03*
X171971800Y-95471200D03*
%TD*%
D18*
%TO.C,J8*%
X171170600Y-66827400D03*
X169420600Y-67827400D03*
%TD*%
D19*
%TO.C,R32*%
X153482800Y-89916000D03*
X155482800Y-89916000D03*
%TD*%
D20*
%TO.C,U3*%
X193207800Y-52847400D03*
D21*
X191270300Y-53847400D03*
X191270300Y-53347400D03*
X191270300Y-52847400D03*
X191270300Y-52347400D03*
X191270300Y-51847400D03*
D22*
X192207800Y-50909900D03*
X192707800Y-50909900D03*
X193207800Y-50909900D03*
X193707800Y-50909900D03*
X194207800Y-50909900D03*
D21*
X195145300Y-51847400D03*
X195145300Y-52347400D03*
X195145300Y-52847400D03*
X195145300Y-53347400D03*
X195145300Y-53847400D03*
D22*
X194207800Y-54784900D03*
X193707800Y-54784900D03*
X193207800Y-54784900D03*
X192707800Y-54784900D03*
X192207800Y-54784900D03*
%TD*%
D23*
%TO.C,Y1*%
X171890300Y-81965800D03*
X177715300Y-81965800D03*
%TD*%
D24*
%TO.C,U4*%
X186659600Y-124750400D03*
X185709600Y-124750400D03*
X184759600Y-124750400D03*
X184759600Y-127025400D03*
X186659600Y-127025400D03*
%TD*%
D25*
%TO.C,U2*%
X179627000Y-42759600D03*
D26*
X185927000Y-45059600D03*
D25*
X179627000Y-45059600D03*
X179627000Y-47359600D03*
%TD*%
D27*
%TO.C,U1*%
X157506400Y-74174200D03*
D28*
X159156400Y-72974200D03*
X159156400Y-73774200D03*
X159156400Y-74574200D03*
X159156400Y-75374200D03*
X155856400Y-75374200D03*
X155856400Y-74574200D03*
X155856400Y-73774200D03*
X155856400Y-72974200D03*
%TD*%
D29*
%TO.C,R45*%
X174271800Y-63322200D03*
X176096800Y-63322200D03*
%TD*%
D19*
%TO.C,R44*%
X165894000Y-94843600D03*
X167894000Y-94843600D03*
%TD*%
D30*
%TO.C,R43*%
X185988200Y-86614000D03*
X183988200Y-86614000D03*
%TD*%
%TO.C,R42*%
X194532000Y-107645200D03*
X192532000Y-107645200D03*
%TD*%
%TO.C,R41*%
X177107600Y-116967000D03*
X175107600Y-116967000D03*
%TD*%
%TO.C,R40*%
X174643800Y-122707400D03*
X172643800Y-122707400D03*
%TD*%
D19*
%TO.C,R39*%
X159010600Y-93192600D03*
X161010600Y-93192600D03*
%TD*%
%TO.C,R38*%
X159061400Y-89941400D03*
X161061400Y-89941400D03*
%TD*%
%TO.C,R37*%
X159010600Y-86563200D03*
X161010600Y-86563200D03*
%TD*%
%TO.C,R36*%
X158985200Y-84302600D03*
X160985200Y-84302600D03*
%TD*%
%TO.C,R35*%
X159121600Y-80848200D03*
X161121600Y-80848200D03*
%TD*%
%TO.C,R34*%
X153473400Y-97459800D03*
X155473400Y-97459800D03*
%TD*%
%TO.C,R33*%
X153651200Y-92938600D03*
X155651200Y-92938600D03*
%TD*%
%TO.C,R31*%
X155651200Y-87038600D03*
X153651200Y-87038600D03*
%TD*%
%TO.C,R30*%
X153651200Y-84088600D03*
X155651200Y-84088600D03*
%TD*%
%TO.C,R29*%
X153651200Y-81138600D03*
X155651200Y-81138600D03*
%TD*%
D30*
%TO.C,R28*%
X165804600Y-110540800D03*
X163804600Y-110540800D03*
%TD*%
D31*
%TO.C,R27*%
X156159200Y-102260400D03*
X154334200Y-102260400D03*
%TD*%
D32*
%TO.C,R26*%
X157403800Y-118872000D03*
X155578800Y-118872000D03*
%TD*%
%TO.C,R25*%
X157200600Y-115468400D03*
X155375600Y-115468400D03*
%TD*%
%TO.C,R24*%
X157351100Y-111506000D03*
X155526100Y-111506000D03*
%TD*%
%TO.C,R23*%
X156616400Y-106603800D03*
X154791400Y-106603800D03*
%TD*%
D29*
%TO.C,R22*%
X158423600Y-102844600D03*
X160248600Y-102844600D03*
%TD*%
%TO.C,R21*%
X159642800Y-118592600D03*
X161467800Y-118592600D03*
%TD*%
%TO.C,R20*%
X159388800Y-115163600D03*
X161213800Y-115163600D03*
%TD*%
%TO.C,R19*%
X161086800Y-110464600D03*
X159261800Y-110464600D03*
%TD*%
%TO.C,R18*%
X158550600Y-106756200D03*
X160375600Y-106756200D03*
%TD*%
%TO.C,R17*%
X157890200Y-68148200D03*
X159715200Y-68148200D03*
%TD*%
%TO.C,R16*%
X157712400Y-65913000D03*
X159537400Y-65913000D03*
%TD*%
%TO.C,R15*%
X157814000Y-61442600D03*
X159639000Y-61442600D03*
%TD*%
%TO.C,R14*%
X157558100Y-57683400D03*
X159383100Y-57683400D03*
%TD*%
%TO.C,R13*%
X155807400Y-54584600D03*
X157632400Y-54584600D03*
%TD*%
D32*
%TO.C,R12*%
X194181100Y-79171800D03*
X192356100Y-79171800D03*
%TD*%
%TO.C,R11*%
X194155700Y-75666600D03*
X192330700Y-75666600D03*
%TD*%
%TO.C,R10*%
X194054100Y-72313800D03*
X192229100Y-72313800D03*
%TD*%
%TO.C,R9*%
X194155700Y-69088000D03*
X192330700Y-69088000D03*
%TD*%
%TO.C,R8*%
X193827400Y-64541400D03*
X192002400Y-64541400D03*
%TD*%
D33*
%TO.C,R7*%
X205943200Y-42746300D03*
X205943200Y-40921300D03*
%TD*%
%TO.C,R6*%
X209473800Y-42846000D03*
X209473800Y-41021000D03*
%TD*%
%TO.C,R5*%
X167308400Y-55952400D03*
X167308400Y-54127400D03*
%TD*%
D34*
%TO.C,R4*%
X177290600Y-51184800D03*
X177290600Y-53009800D03*
%TD*%
D32*
%TO.C,R3*%
X205511400Y-58724800D03*
X203686400Y-58724800D03*
%TD*%
D34*
%TO.C,R2*%
X200609200Y-56798200D03*
X200609200Y-58623200D03*
%TD*%
%TO.C,R1*%
X170229400Y-50753000D03*
X170229400Y-52578000D03*
%TD*%
D35*
%TO.C,J7*%
X208991200Y-131114800D03*
X207721200Y-133814800D03*
X206451200Y-131114800D03*
X205181200Y-133814800D03*
X203911200Y-131114800D03*
X202641200Y-133814800D03*
X201371200Y-131114800D03*
X200101200Y-133814800D03*
X198831200Y-131114800D03*
X197561200Y-133814800D03*
X196291200Y-131114800D03*
X195021200Y-133814800D03*
X193751200Y-131114800D03*
X192481200Y-133814800D03*
X191211200Y-131114800D03*
X189941200Y-133814800D03*
X188671200Y-131114800D03*
X187401200Y-133814800D03*
X186131200Y-131114800D03*
X184861200Y-133814800D03*
X183591200Y-131114800D03*
X182321200Y-133814800D03*
X181051200Y-131114800D03*
X179781200Y-133814800D03*
X178511200Y-131114800D03*
X177241200Y-133814800D03*
X175971200Y-131114800D03*
X174701200Y-133814800D03*
X173431200Y-131114800D03*
X172161200Y-133814800D03*
%TD*%
D36*
%TO.C,J6*%
X156528400Y-129296000D03*
D37*
X161528400Y-129296000D03*
X166528400Y-129296000D03*
%TD*%
D38*
%TO.C,J5*%
X145745200Y-80803200D03*
D39*
X145745200Y-84303200D03*
X145745200Y-87803200D03*
X145745200Y-91303200D03*
X145745200Y-94803200D03*
X145745200Y-98303200D03*
X145745200Y-101803200D03*
%TD*%
D38*
%TO.C,J4*%
X145796000Y-51882400D03*
D39*
X145796000Y-55382400D03*
X145796000Y-58882400D03*
X145796000Y-62382400D03*
X145796000Y-65882400D03*
X145796000Y-69382400D03*
X145796000Y-72882400D03*
%TD*%
D40*
%TO.C,J3*%
X145821400Y-131921800D03*
D39*
X145821400Y-128421800D03*
X145821400Y-124921800D03*
X145821400Y-121421800D03*
X145821400Y-117921800D03*
X145821400Y-114421800D03*
X145821400Y-110921800D03*
%TD*%
D38*
%TO.C,J2*%
X206781400Y-64771200D03*
D39*
X206781400Y-68271200D03*
X206781400Y-71771200D03*
X206781400Y-75271200D03*
X206781400Y-78771200D03*
X206781400Y-82271200D03*
X206781400Y-85771200D03*
X206781400Y-89271200D03*
X206781400Y-92771200D03*
X206781400Y-96271200D03*
X206781400Y-99771200D03*
%TD*%
D41*
%TO.C,J1*%
X203077200Y-43154600D03*
D42*
X200577200Y-43154600D03*
D43*
X202077200Y-45854600D03*
D44*
X196677200Y-43154600D03*
D41*
X196077200Y-43154600D03*
D42*
X198577200Y-43154600D03*
D43*
X197077200Y-45854600D03*
D44*
X202477200Y-43154600D03*
D45*
X198277200Y-45854600D03*
X198927200Y-45854600D03*
X199577200Y-45854600D03*
X200227200Y-45854600D03*
X200877200Y-45854600D03*
%TD*%
D46*
%TO.C,FB1*%
X187680600Y-52297900D03*
X187680600Y-56972900D03*
%TD*%
D47*
%TO.C,D11*%
X166442300Y-89839800D03*
X170717300Y-89839800D03*
%TD*%
D48*
%TO.C,D10*%
X190707100Y-91414600D03*
X186432100Y-91414600D03*
%TD*%
%TO.C,D9*%
X203635700Y-107365800D03*
X199360700Y-107365800D03*
%TD*%
D49*
%TO.C,D8*%
X194665600Y-94499100D03*
X194665600Y-97474100D03*
%TD*%
D50*
%TO.C,D7*%
X198932800Y-98083700D03*
X198932800Y-95108700D03*
%TD*%
D51*
%TO.C,D6*%
X207340200Y-48996600D03*
X207340200Y-44721600D03*
%TD*%
%TO.C,D5*%
X208051400Y-56769000D03*
X208051400Y-52494000D03*
%TD*%
%TO.C,D4*%
X172820200Y-59008100D03*
X172820200Y-54733100D03*
%TD*%
%TO.C,D3*%
X182853200Y-56141800D03*
X182853200Y-51866800D03*
%TD*%
D52*
%TO.C,D2*%
X182181700Y-59359800D03*
X179206700Y-59359800D03*
%TD*%
D50*
%TO.C,D1*%
X190855600Y-46459800D03*
X190855600Y-43484800D03*
%TD*%
D53*
%TO.C,C28*%
X171069000Y-116750700D03*
X171069000Y-119875700D03*
%TD*%
D54*
%TO.C,C27*%
X186381600Y-116611400D03*
X189331600Y-116611400D03*
%TD*%
D55*
%TO.C,C24*%
X178104800Y-122707400D03*
X180179800Y-122707400D03*
%TD*%
D56*
%TO.C,C23*%
X182981000Y-79197200D03*
X184531000Y-79197200D03*
%TD*%
%TO.C,C22*%
X182981000Y-76687200D03*
X184531000Y-76687200D03*
%TD*%
%TO.C,C21*%
X182981000Y-74177200D03*
X184531000Y-74177200D03*
%TD*%
%TO.C,C20*%
X182981000Y-71667200D03*
X184531000Y-71667200D03*
%TD*%
%TO.C,C19*%
X183195200Y-69607000D03*
X184745200Y-69607000D03*
%TD*%
%TO.C,C18*%
X189051600Y-103911400D03*
X190601600Y-103911400D03*
%TD*%
D55*
%TO.C,C17*%
X181182100Y-83566000D03*
X183257100Y-83566000D03*
%TD*%
D57*
%TO.C,C16*%
X167995600Y-82118200D03*
X165920600Y-82118200D03*
%TD*%
D55*
%TO.C,C15*%
X163914000Y-103759000D03*
X165989000Y-103759000D03*
%TD*%
%TO.C,C14*%
X181871800Y-116560600D03*
X183946800Y-116560600D03*
%TD*%
%TO.C,C13*%
X181436100Y-91516200D03*
X183511100Y-91516200D03*
%TD*%
D57*
%TO.C,C12*%
X160473300Y-98145600D03*
X158398300Y-98145600D03*
%TD*%
D58*
%TO.C,C11*%
X194233800Y-102760600D03*
X194233800Y-100685600D03*
%TD*%
D59*
%TO.C,C10*%
X189915800Y-109558000D03*
X189915800Y-111633000D03*
%TD*%
D57*
%TO.C,C9*%
X175023600Y-91592400D03*
X172948600Y-91592400D03*
%TD*%
D60*
%TO.C,C8*%
X187281900Y-82727800D03*
X193006900Y-82727800D03*
%TD*%
D61*
%TO.C,C7*%
X164840200Y-73914000D03*
X169240200Y-73914000D03*
%TD*%
D62*
%TO.C,C6*%
X173455200Y-48536000D03*
X173455200Y-44936000D03*
%TD*%
D55*
%TO.C,C5*%
X163906200Y-105968800D03*
X165981200Y-105968800D03*
%TD*%
D59*
%TO.C,C4*%
X202082400Y-50321300D03*
X202082400Y-52396300D03*
%TD*%
D63*
%TO.C,C3*%
X190550800Y-62407800D03*
X187550800Y-62407800D03*
%TD*%
D58*
%TO.C,C2*%
X198602600Y-52447100D03*
X198602600Y-50372100D03*
%TD*%
D62*
%TO.C,C1*%
X162228400Y-56664000D03*
X162228400Y-53064000D03*
%TD*%
D64*
%TO.C,BT1*%
X160806600Y-42926000D03*
D65*
X168706600Y-42926000D03*
X152906600Y-42926000D03*
%TD*%
%LPD*%
M02*
