%TF.GenerationSoftware,KiCad,Pcbnew,7.0.10*%
%TF.CreationDate,2024-02-23T13:31:41+03:00*%
%TF.ProjectId,Artorg_Board,4172746f-7267-45f4-926f-6172642e6b69,rev?*%
%TF.SameCoordinates,Original*%
%TF.FileFunction,Soldermask,Top*%
%TF.FilePolarity,Negative*%
%FSLAX46Y46*%
G04 Gerber Fmt 4.6, Leading zero omitted, Abs format (unit mm)*
G04 Created by KiCad (PCBNEW 7.0.10) date 2024-02-23 13:31:41*
%MOMM*%
%LPD*%
G01*
G04 APERTURE LIST*
G04 Aperture macros list*
%AMRoundRect*
0 Rectangle with rounded corners*
0 $1 Rounding radius*
0 $2 $3 $4 $5 $6 $7 $8 $9 X,Y pos of 4 corners*
0 Add a 4 corners polygon primitive as box body*
4,1,4,$2,$3,$4,$5,$6,$7,$8,$9,$2,$3,0*
0 Add four circle primitives for the rounded corners*
1,1,$1+$1,$2,$3*
1,1,$1+$1,$4,$5*
1,1,$1+$1,$6,$7*
1,1,$1+$1,$8,$9*
0 Add four rect primitives between the rounded corners*
20,1,$1+$1,$2,$3,$4,$5,0*
20,1,$1+$1,$4,$5,$6,$7,0*
20,1,$1+$1,$6,$7,$8,$9,0*
20,1,$1+$1,$8,$9,$2,$3,0*%
G04 Aperture macros list end*
%ADD10RoundRect,0.237500X0.237500X-0.300000X0.237500X0.300000X-0.237500X0.300000X-0.237500X-0.300000X0*%
%ADD11RoundRect,0.237500X0.300000X0.237500X-0.300000X0.237500X-0.300000X-0.237500X0.300000X-0.237500X0*%
%ADD12R,1.475000X0.200000*%
%ADD13R,0.200000X1.475000*%
%ADD14R,1.750000X0.600000*%
%ADD15RoundRect,0.250000X-0.350000X-0.450000X0.350000X-0.450000X0.350000X0.450000X-0.350000X0.450000X0*%
%ADD16R,2.500000X2.500000*%
%ADD17RoundRect,0.062500X0.350000X-0.062500X0.350000X0.062500X-0.350000X0.062500X-0.350000X-0.062500X0*%
%ADD18RoundRect,0.062500X0.062500X-0.350000X0.062500X0.350000X-0.062500X0.350000X-0.062500X-0.350000X0*%
%ADD19R,3.325000X2.500000*%
%ADD20RoundRect,0.150000X-0.150000X0.512500X-0.150000X-0.512500X0.150000X-0.512500X0.150000X0.512500X0*%
%ADD21R,2.000000X1.500000*%
%ADD22R,2.000000X3.800000*%
%ADD23R,2.200000X3.000000*%
%ADD24RoundRect,0.100000X-0.225000X-0.100000X0.225000X-0.100000X0.225000X0.100000X-0.225000X0.100000X0*%
%ADD25RoundRect,0.250000X-0.262500X-0.450000X0.262500X-0.450000X0.262500X0.450000X-0.262500X0.450000X0*%
%ADD26RoundRect,0.250000X0.350000X0.450000X-0.350000X0.450000X-0.350000X-0.450000X0.350000X-0.450000X0*%
%ADD27RoundRect,0.237500X0.250000X0.237500X-0.250000X0.237500X-0.250000X-0.237500X0.250000X-0.237500X0*%
%ADD28RoundRect,0.250000X0.262500X0.450000X-0.262500X0.450000X-0.262500X-0.450000X0.262500X-0.450000X0*%
%ADD29RoundRect,0.250000X0.450000X-0.262500X0.450000X0.262500X-0.450000X0.262500X-0.450000X-0.262500X0*%
%ADD30RoundRect,0.250000X-0.450000X0.262500X-0.450000X-0.262500X0.450000X-0.262500X0.450000X0.262500X0*%
%ADD31R,0.650000X1.800000*%
%ADD32R,1.980000X3.960000*%
%ADD33O,1.980000X3.960000*%
%ADD34RoundRect,0.250000X-1.050000X0.750000X-1.050000X-0.750000X1.050000X-0.750000X1.050000X0.750000X0*%
%ADD35O,2.600000X2.000000*%
%ADD36RoundRect,0.250000X1.050000X-0.750000X1.050000X0.750000X-1.050000X0.750000X-1.050000X-0.750000X0*%
%ADD37O,0.890000X1.550000*%
%ADD38R,1.500000X1.550000*%
%ADD39O,1.250000X0.950000*%
%ADD40R,1.200000X1.550000*%
%ADD41R,0.400000X1.350000*%
%ADD42RoundRect,0.249999X-1.075001X0.512501X-1.075001X-0.512501X1.075001X-0.512501X1.075001X0.512501X0*%
%ADD43RoundRect,0.250000X-0.312500X-1.450000X0.312500X-1.450000X0.312500X1.450000X-0.312500X1.450000X0*%
%ADD44RoundRect,0.250000X0.312500X1.450000X-0.312500X1.450000X-0.312500X-1.450000X0.312500X-1.450000X0*%
%ADD45RoundRect,0.250001X-1.074999X0.462499X-1.074999X-0.462499X1.074999X-0.462499X1.074999X0.462499X0*%
%ADD46RoundRect,0.250001X1.074999X-0.462499X1.074999X0.462499X-1.074999X0.462499X-1.074999X-0.462499X0*%
%ADD47RoundRect,0.250000X1.450000X-0.312500X1.450000X0.312500X-1.450000X0.312500X-1.450000X-0.312500X0*%
%ADD48RoundRect,0.250001X-0.462499X-1.074999X0.462499X-1.074999X0.462499X1.074999X-0.462499X1.074999X0*%
%ADD49RoundRect,0.250000X-0.650000X0.412500X-0.650000X-0.412500X0.650000X-0.412500X0.650000X0.412500X0*%
%ADD50RoundRect,0.250000X-0.325000X-0.650000X0.325000X-0.650000X0.325000X0.650000X-0.325000X0.650000X0*%
%ADD51RoundRect,0.250000X-0.337500X-0.475000X0.337500X-0.475000X0.337500X0.475000X-0.337500X0.475000X0*%
%ADD52RoundRect,0.225000X-0.225000X-0.250000X0.225000X-0.250000X0.225000X0.250000X-0.225000X0.250000X0*%
%ADD53RoundRect,0.250000X0.337500X0.475000X-0.337500X0.475000X-0.337500X-0.475000X0.337500X-0.475000X0*%
%ADD54RoundRect,0.250000X0.475000X-0.337500X0.475000X0.337500X-0.475000X0.337500X-0.475000X-0.337500X0*%
%ADD55RoundRect,0.250000X-0.475000X0.337500X-0.475000X-0.337500X0.475000X-0.337500X0.475000X0.337500X0*%
%ADD56RoundRect,0.250000X-1.112500X-1.500000X1.112500X-1.500000X1.112500X1.500000X-1.112500X1.500000X0*%
%ADD57RoundRect,0.250000X-1.250000X-0.550000X1.250000X-0.550000X1.250000X0.550000X-1.250000X0.550000X0*%
%ADD58RoundRect,0.250000X0.550000X-1.050000X0.550000X1.050000X-0.550000X1.050000X-0.550000X-1.050000X0*%
%ADD59R,2.200000X1.600000*%
%ADD60C,10.200000*%
%ADD61R,3.500000X3.300000*%
G04 APERTURE END LIST*
D10*
%TO.C,C25*%
X153466800Y-75023600D03*
X153466800Y-73298600D03*
%TD*%
D11*
%TO.C,C26*%
X186580400Y-121437400D03*
X184855400Y-121437400D03*
%TD*%
D12*
%TO.C,IC1*%
X170433800Y-97009200D03*
X170433800Y-97409200D03*
X170433800Y-97809200D03*
X170433800Y-98209200D03*
X170433800Y-98609200D03*
X170433800Y-99009200D03*
X170433800Y-99409200D03*
X170433800Y-99809200D03*
X170433800Y-100209200D03*
X170433800Y-100609200D03*
X170433800Y-101009200D03*
X170433800Y-101409200D03*
X170433800Y-101809200D03*
X170433800Y-102209200D03*
X170433800Y-102609200D03*
X170433800Y-103009200D03*
X170433800Y-103409200D03*
X170433800Y-103809200D03*
X170433800Y-104209200D03*
X170433800Y-104609200D03*
X170433800Y-105009200D03*
X170433800Y-105409200D03*
X170433800Y-105809200D03*
X170433800Y-106209200D03*
X170433800Y-106609200D03*
X170433800Y-107009200D03*
X170433800Y-107409200D03*
X170433800Y-107809200D03*
X170433800Y-108209200D03*
X170433800Y-108609200D03*
X170433800Y-109009200D03*
X170433800Y-109409200D03*
D13*
X171971800Y-110947200D03*
X172371800Y-110947200D03*
X172771800Y-110947200D03*
X173171800Y-110947200D03*
X173571800Y-110947200D03*
X173971800Y-110947200D03*
X174371800Y-110947200D03*
X174771800Y-110947200D03*
X175171800Y-110947200D03*
X175571800Y-110947200D03*
X175971800Y-110947200D03*
X176371800Y-110947200D03*
X176771800Y-110947200D03*
X177171800Y-110947200D03*
X177571800Y-110947200D03*
X177971800Y-110947200D03*
X178371800Y-110947200D03*
X178771800Y-110947200D03*
X179171800Y-110947200D03*
X179571800Y-110947200D03*
X179971800Y-110947200D03*
X180371800Y-110947200D03*
X180771800Y-110947200D03*
X181171800Y-110947200D03*
X181571800Y-110947200D03*
X181971800Y-110947200D03*
X182371800Y-110947200D03*
X182771800Y-110947200D03*
X183171800Y-110947200D03*
X183571800Y-110947200D03*
X183971800Y-110947200D03*
X184371800Y-110947200D03*
D12*
X185909800Y-109409200D03*
X185909800Y-109009200D03*
X185909800Y-108609200D03*
X185909800Y-108209200D03*
X185909800Y-107809200D03*
X185909800Y-107409200D03*
X185909800Y-107009200D03*
X185909800Y-106609200D03*
X185909800Y-106209200D03*
X185909800Y-105809200D03*
X185909800Y-105409200D03*
X185909800Y-105009200D03*
X185909800Y-104609200D03*
X185909800Y-104209200D03*
X185909800Y-103809200D03*
X185909800Y-103409200D03*
X185909800Y-103009200D03*
X185909800Y-102609200D03*
X185909800Y-102209200D03*
X185909800Y-101809200D03*
X185909800Y-101409200D03*
X185909800Y-101009200D03*
X185909800Y-100609200D03*
X185909800Y-100209200D03*
X185909800Y-99809200D03*
X185909800Y-99409200D03*
X185909800Y-99009200D03*
X185909800Y-98609200D03*
X185909800Y-98209200D03*
X185909800Y-97809200D03*
X185909800Y-97409200D03*
X185909800Y-97009200D03*
D13*
X184371800Y-95471200D03*
X183971800Y-95471200D03*
X183571800Y-95471200D03*
X183171800Y-95471200D03*
X182771800Y-95471200D03*
X182371800Y-95471200D03*
X181971800Y-95471200D03*
X181571800Y-95471200D03*
X181171800Y-95471200D03*
X180771800Y-95471200D03*
X180371800Y-95471200D03*
X179971800Y-95471200D03*
X179571800Y-95471200D03*
X179171800Y-95471200D03*
X178771800Y-95471200D03*
X178371800Y-95471200D03*
X177971800Y-95471200D03*
X177571800Y-95471200D03*
X177171800Y-95471200D03*
X176771800Y-95471200D03*
X176371800Y-95471200D03*
X175971800Y-95471200D03*
X175571800Y-95471200D03*
X175171800Y-95471200D03*
X174771800Y-95471200D03*
X174371800Y-95471200D03*
X173971800Y-95471200D03*
X173571800Y-95471200D03*
X173171800Y-95471200D03*
X172771800Y-95471200D03*
X172371800Y-95471200D03*
X171971800Y-95471200D03*
%TD*%
D14*
%TO.C,J8*%
X171170600Y-66827400D03*
X169420600Y-67827400D03*
%TD*%
D15*
%TO.C,R32*%
X153482800Y-89916000D03*
X155482800Y-89916000D03*
%TD*%
D16*
%TO.C,U3*%
X193207800Y-52847400D03*
D17*
X191270300Y-53847400D03*
X191270300Y-53347400D03*
X191270300Y-52847400D03*
X191270300Y-52347400D03*
X191270300Y-51847400D03*
D18*
X192207800Y-50909900D03*
X192707800Y-50909900D03*
X193207800Y-50909900D03*
X193707800Y-50909900D03*
X194207800Y-50909900D03*
D17*
X195145300Y-51847400D03*
X195145300Y-52347400D03*
X195145300Y-52847400D03*
X195145300Y-53347400D03*
X195145300Y-53847400D03*
D18*
X194207800Y-54784900D03*
X193707800Y-54784900D03*
X193207800Y-54784900D03*
X192707800Y-54784900D03*
X192207800Y-54784900D03*
%TD*%
D19*
%TO.C,Y1*%
X171890300Y-81965800D03*
X177715300Y-81965800D03*
%TD*%
D20*
%TO.C,U4*%
X186659600Y-124750400D03*
X185709600Y-124750400D03*
X184759600Y-124750400D03*
X184759600Y-127025400D03*
X186659600Y-127025400D03*
%TD*%
D21*
%TO.C,U2*%
X179627000Y-42759600D03*
D22*
X185927000Y-45059600D03*
D21*
X179627000Y-45059600D03*
X179627000Y-47359600D03*
%TD*%
D23*
%TO.C,U1*%
X157506400Y-74174200D03*
D24*
X159156400Y-72974200D03*
X159156400Y-73774200D03*
X159156400Y-74574200D03*
X159156400Y-75374200D03*
X155856400Y-75374200D03*
X155856400Y-74574200D03*
X155856400Y-73774200D03*
X155856400Y-72974200D03*
%TD*%
D25*
%TO.C,R45*%
X174271800Y-63322200D03*
X176096800Y-63322200D03*
%TD*%
D15*
%TO.C,R44*%
X165894000Y-94843600D03*
X167894000Y-94843600D03*
%TD*%
D26*
%TO.C,R43*%
X185988200Y-86614000D03*
X183988200Y-86614000D03*
%TD*%
%TO.C,R42*%
X194532000Y-107645200D03*
X192532000Y-107645200D03*
%TD*%
%TO.C,R41*%
X177107600Y-116967000D03*
X175107600Y-116967000D03*
%TD*%
%TO.C,R40*%
X174643800Y-122707400D03*
X172643800Y-122707400D03*
%TD*%
D15*
%TO.C,R39*%
X159010600Y-93192600D03*
X161010600Y-93192600D03*
%TD*%
%TO.C,R38*%
X159061400Y-89941400D03*
X161061400Y-89941400D03*
%TD*%
%TO.C,R37*%
X159010600Y-86563200D03*
X161010600Y-86563200D03*
%TD*%
%TO.C,R36*%
X158985200Y-84302600D03*
X160985200Y-84302600D03*
%TD*%
%TO.C,R35*%
X159121600Y-80848200D03*
X161121600Y-80848200D03*
%TD*%
%TO.C,R34*%
X153473400Y-97459800D03*
X155473400Y-97459800D03*
%TD*%
%TO.C,R33*%
X153651200Y-92938600D03*
X155651200Y-92938600D03*
%TD*%
%TO.C,R31*%
X155651200Y-87038600D03*
X153651200Y-87038600D03*
%TD*%
%TO.C,R30*%
X153651200Y-84088600D03*
X155651200Y-84088600D03*
%TD*%
%TO.C,R29*%
X153651200Y-81138600D03*
X155651200Y-81138600D03*
%TD*%
D26*
%TO.C,R28*%
X165804600Y-110540800D03*
X163804600Y-110540800D03*
%TD*%
D27*
%TO.C,R27*%
X156159200Y-102260400D03*
X154334200Y-102260400D03*
%TD*%
D28*
%TO.C,R26*%
X157403800Y-118872000D03*
X155578800Y-118872000D03*
%TD*%
%TO.C,R25*%
X157200600Y-115468400D03*
X155375600Y-115468400D03*
%TD*%
%TO.C,R24*%
X157351100Y-111506000D03*
X155526100Y-111506000D03*
%TD*%
%TO.C,R23*%
X156616400Y-106603800D03*
X154791400Y-106603800D03*
%TD*%
D25*
%TO.C,R22*%
X158423600Y-102844600D03*
X160248600Y-102844600D03*
%TD*%
%TO.C,R21*%
X159642800Y-118592600D03*
X161467800Y-118592600D03*
%TD*%
%TO.C,R20*%
X159388800Y-115163600D03*
X161213800Y-115163600D03*
%TD*%
%TO.C,R19*%
X161086800Y-110464600D03*
X159261800Y-110464600D03*
%TD*%
%TO.C,R18*%
X158550600Y-106756200D03*
X160375600Y-106756200D03*
%TD*%
%TO.C,R17*%
X157890200Y-68148200D03*
X159715200Y-68148200D03*
%TD*%
%TO.C,R16*%
X157712400Y-65913000D03*
X159537400Y-65913000D03*
%TD*%
%TO.C,R15*%
X157814000Y-61442600D03*
X159639000Y-61442600D03*
%TD*%
%TO.C,R14*%
X157558100Y-57683400D03*
X159383100Y-57683400D03*
%TD*%
%TO.C,R13*%
X155807400Y-54584600D03*
X157632400Y-54584600D03*
%TD*%
D28*
%TO.C,R12*%
X194181100Y-79171800D03*
X192356100Y-79171800D03*
%TD*%
%TO.C,R11*%
X194155700Y-75666600D03*
X192330700Y-75666600D03*
%TD*%
%TO.C,R10*%
X194054100Y-72313800D03*
X192229100Y-72313800D03*
%TD*%
%TO.C,R9*%
X194155700Y-69088000D03*
X192330700Y-69088000D03*
%TD*%
%TO.C,R8*%
X193827400Y-64541400D03*
X192002400Y-64541400D03*
%TD*%
D29*
%TO.C,R7*%
X205943200Y-42746300D03*
X205943200Y-40921300D03*
%TD*%
%TO.C,R6*%
X209473800Y-42846000D03*
X209473800Y-41021000D03*
%TD*%
%TO.C,R5*%
X167308400Y-55952400D03*
X167308400Y-54127400D03*
%TD*%
D30*
%TO.C,R4*%
X177290600Y-51184800D03*
X177290600Y-53009800D03*
%TD*%
D28*
%TO.C,R3*%
X205511400Y-58724800D03*
X203686400Y-58724800D03*
%TD*%
D30*
%TO.C,R2*%
X200609200Y-56798200D03*
X200609200Y-58623200D03*
%TD*%
%TO.C,R1*%
X170229400Y-50753000D03*
X170229400Y-52578000D03*
%TD*%
D31*
%TO.C,J7*%
X208991200Y-131114800D03*
X207721200Y-133814800D03*
X206451200Y-131114800D03*
X205181200Y-133814800D03*
X203911200Y-131114800D03*
X202641200Y-133814800D03*
X201371200Y-131114800D03*
X200101200Y-133814800D03*
X198831200Y-131114800D03*
X197561200Y-133814800D03*
X196291200Y-131114800D03*
X195021200Y-133814800D03*
X193751200Y-131114800D03*
X192481200Y-133814800D03*
X191211200Y-131114800D03*
X189941200Y-133814800D03*
X188671200Y-131114800D03*
X187401200Y-133814800D03*
X186131200Y-131114800D03*
X184861200Y-133814800D03*
X183591200Y-131114800D03*
X182321200Y-133814800D03*
X181051200Y-131114800D03*
X179781200Y-133814800D03*
X178511200Y-131114800D03*
X177241200Y-133814800D03*
X175971200Y-131114800D03*
X174701200Y-133814800D03*
X173431200Y-131114800D03*
X172161200Y-133814800D03*
%TD*%
D32*
%TO.C,J6*%
X156528400Y-129296000D03*
D33*
X161528400Y-129296000D03*
X166528400Y-129296000D03*
%TD*%
D34*
%TO.C,J5*%
X145745200Y-80803200D03*
D35*
X145745200Y-84303200D03*
X145745200Y-87803200D03*
X145745200Y-91303200D03*
X145745200Y-94803200D03*
X145745200Y-98303200D03*
X145745200Y-101803200D03*
%TD*%
D34*
%TO.C,J4*%
X145796000Y-51882400D03*
D35*
X145796000Y-55382400D03*
X145796000Y-58882400D03*
X145796000Y-62382400D03*
X145796000Y-65882400D03*
X145796000Y-69382400D03*
X145796000Y-72882400D03*
%TD*%
D36*
%TO.C,J3*%
X145821400Y-131921800D03*
D35*
X145821400Y-128421800D03*
X145821400Y-124921800D03*
X145821400Y-121421800D03*
X145821400Y-117921800D03*
X145821400Y-114421800D03*
X145821400Y-110921800D03*
%TD*%
D34*
%TO.C,J2*%
X206781400Y-64771200D03*
D35*
X206781400Y-68271200D03*
X206781400Y-71771200D03*
X206781400Y-75271200D03*
X206781400Y-78771200D03*
X206781400Y-82271200D03*
X206781400Y-85771200D03*
X206781400Y-89271200D03*
X206781400Y-92771200D03*
X206781400Y-96271200D03*
X206781400Y-99771200D03*
%TD*%
D37*
%TO.C,J1*%
X203077200Y-43154600D03*
D38*
X200577200Y-43154600D03*
D39*
X202077200Y-45854600D03*
D40*
X196677200Y-43154600D03*
D37*
X196077200Y-43154600D03*
D38*
X198577200Y-43154600D03*
D39*
X197077200Y-45854600D03*
D40*
X202477200Y-43154600D03*
D41*
X198277200Y-45854600D03*
X198927200Y-45854600D03*
X199577200Y-45854600D03*
X200227200Y-45854600D03*
X200877200Y-45854600D03*
%TD*%
D42*
%TO.C,FB1*%
X187680600Y-52297900D03*
X187680600Y-56972900D03*
%TD*%
D43*
%TO.C,D11*%
X166442300Y-89839800D03*
X170717300Y-89839800D03*
%TD*%
D44*
%TO.C,D10*%
X190707100Y-91414600D03*
X186432100Y-91414600D03*
%TD*%
%TO.C,D9*%
X203635700Y-107365800D03*
X199360700Y-107365800D03*
%TD*%
D45*
%TO.C,D8*%
X194665600Y-94499100D03*
X194665600Y-97474100D03*
%TD*%
D46*
%TO.C,D7*%
X198932800Y-98083700D03*
X198932800Y-95108700D03*
%TD*%
D47*
%TO.C,D6*%
X207340200Y-48996600D03*
X207340200Y-44721600D03*
%TD*%
%TO.C,D5*%
X208051400Y-56769000D03*
X208051400Y-52494000D03*
%TD*%
%TO.C,D4*%
X172820200Y-59008100D03*
X172820200Y-54733100D03*
%TD*%
%TO.C,D3*%
X182853200Y-56141800D03*
X182853200Y-51866800D03*
%TD*%
D48*
%TO.C,D2*%
X182181700Y-59359800D03*
X179206700Y-59359800D03*
%TD*%
D46*
%TO.C,D1*%
X190855600Y-46459800D03*
X190855600Y-43484800D03*
%TD*%
D49*
%TO.C,C28*%
X171069000Y-116750700D03*
X171069000Y-119875700D03*
%TD*%
D50*
%TO.C,C27*%
X186381600Y-116611400D03*
X189331600Y-116611400D03*
%TD*%
D51*
%TO.C,C24*%
X178104800Y-122707400D03*
X180179800Y-122707400D03*
%TD*%
D52*
%TO.C,C23*%
X182981000Y-79197200D03*
X184531000Y-79197200D03*
%TD*%
%TO.C,C22*%
X182981000Y-76687200D03*
X184531000Y-76687200D03*
%TD*%
%TO.C,C21*%
X182981000Y-74177200D03*
X184531000Y-74177200D03*
%TD*%
%TO.C,C20*%
X182981000Y-71667200D03*
X184531000Y-71667200D03*
%TD*%
%TO.C,C19*%
X183195200Y-69607000D03*
X184745200Y-69607000D03*
%TD*%
%TO.C,C18*%
X189051600Y-103911400D03*
X190601600Y-103911400D03*
%TD*%
D51*
%TO.C,C17*%
X181182100Y-83566000D03*
X183257100Y-83566000D03*
%TD*%
D53*
%TO.C,C16*%
X167995600Y-82118200D03*
X165920600Y-82118200D03*
%TD*%
D51*
%TO.C,C15*%
X163914000Y-103759000D03*
X165989000Y-103759000D03*
%TD*%
%TO.C,C14*%
X181871800Y-116560600D03*
X183946800Y-116560600D03*
%TD*%
%TO.C,C13*%
X181436100Y-91516200D03*
X183511100Y-91516200D03*
%TD*%
D53*
%TO.C,C12*%
X160473300Y-98145600D03*
X158398300Y-98145600D03*
%TD*%
D54*
%TO.C,C11*%
X194233800Y-102760600D03*
X194233800Y-100685600D03*
%TD*%
D55*
%TO.C,C10*%
X189915800Y-109558000D03*
X189915800Y-111633000D03*
%TD*%
D53*
%TO.C,C9*%
X175023600Y-91592400D03*
X172948600Y-91592400D03*
%TD*%
D56*
%TO.C,C8*%
X187281900Y-82727800D03*
X193006900Y-82727800D03*
%TD*%
D57*
%TO.C,C7*%
X164840200Y-73914000D03*
X169240200Y-73914000D03*
%TD*%
D58*
%TO.C,C6*%
X173455200Y-48536000D03*
X173455200Y-44936000D03*
%TD*%
D51*
%TO.C,C5*%
X163906200Y-105968800D03*
X165981200Y-105968800D03*
%TD*%
D55*
%TO.C,C4*%
X202082400Y-50321300D03*
X202082400Y-52396300D03*
%TD*%
D59*
%TO.C,C3*%
X190550800Y-62407800D03*
X187550800Y-62407800D03*
%TD*%
D54*
%TO.C,C2*%
X198602600Y-52447100D03*
X198602600Y-50372100D03*
%TD*%
D58*
%TO.C,C1*%
X162228400Y-56664000D03*
X162228400Y-53064000D03*
%TD*%
D60*
%TO.C,BT1*%
X160806600Y-42926000D03*
D61*
X168706600Y-42926000D03*
X152906600Y-42926000D03*
%TD*%
M02*
