%TF.GenerationSoftware,KiCad,Pcbnew,7.0.10*%
%TF.CreationDate,2024-02-23T13:31:40+03:00*%
%TF.ProjectId,Artorg_Board,4172746f-7267-45f4-926f-6172642e6b69,rev?*%
%TF.SameCoordinates,Original*%
%TF.FileFunction,Copper,L1,Top*%
%TF.FilePolarity,Positive*%
%FSLAX46Y46*%
G04 Gerber Fmt 4.6, Leading zero omitted, Abs format (unit mm)*
G04 Created by KiCad (PCBNEW 7.0.10) date 2024-02-23 13:31:40*
%MOMM*%
%LPD*%
G01*
G04 APERTURE LIST*
G04 Aperture macros list*
%AMRoundRect*
0 Rectangle with rounded corners*
0 $1 Rounding radius*
0 $2 $3 $4 $5 $6 $7 $8 $9 X,Y pos of 4 corners*
0 Add a 4 corners polygon primitive as box body*
4,1,4,$2,$3,$4,$5,$6,$7,$8,$9,$2,$3,0*
0 Add four circle primitives for the rounded corners*
1,1,$1+$1,$2,$3*
1,1,$1+$1,$4,$5*
1,1,$1+$1,$6,$7*
1,1,$1+$1,$8,$9*
0 Add four rect primitives between the rounded corners*
20,1,$1+$1,$2,$3,$4,$5,0*
20,1,$1+$1,$4,$5,$6,$7,0*
20,1,$1+$1,$6,$7,$8,$9,0*
20,1,$1+$1,$8,$9,$2,$3,0*%
G04 Aperture macros list end*
%TA.AperFunction,SMDPad,CuDef*%
%ADD10RoundRect,0.237500X0.237500X-0.300000X0.237500X0.300000X-0.237500X0.300000X-0.237500X-0.300000X0*%
%TD*%
%TA.AperFunction,SMDPad,CuDef*%
%ADD11RoundRect,0.237500X0.300000X0.237500X-0.300000X0.237500X-0.300000X-0.237500X0.300000X-0.237500X0*%
%TD*%
%TA.AperFunction,SMDPad,CuDef*%
%ADD12R,1.475000X0.200000*%
%TD*%
%TA.AperFunction,SMDPad,CuDef*%
%ADD13R,0.200000X1.475000*%
%TD*%
%TA.AperFunction,SMDPad,CuDef*%
%ADD14R,1.750000X0.600000*%
%TD*%
%TA.AperFunction,SMDPad,CuDef*%
%ADD15RoundRect,0.250000X-0.350000X-0.450000X0.350000X-0.450000X0.350000X0.450000X-0.350000X0.450000X0*%
%TD*%
%TA.AperFunction,SMDPad,CuDef*%
%ADD16R,2.500000X2.500000*%
%TD*%
%TA.AperFunction,SMDPad,CuDef*%
%ADD17RoundRect,0.062500X0.350000X-0.062500X0.350000X0.062500X-0.350000X0.062500X-0.350000X-0.062500X0*%
%TD*%
%TA.AperFunction,SMDPad,CuDef*%
%ADD18RoundRect,0.062500X0.062500X-0.350000X0.062500X0.350000X-0.062500X0.350000X-0.062500X-0.350000X0*%
%TD*%
%TA.AperFunction,SMDPad,CuDef*%
%ADD19R,3.325000X2.500000*%
%TD*%
%TA.AperFunction,SMDPad,CuDef*%
%ADD20RoundRect,0.150000X-0.150000X0.512500X-0.150000X-0.512500X0.150000X-0.512500X0.150000X0.512500X0*%
%TD*%
%TA.AperFunction,SMDPad,CuDef*%
%ADD21R,2.000000X1.500000*%
%TD*%
%TA.AperFunction,SMDPad,CuDef*%
%ADD22R,2.000000X3.800000*%
%TD*%
%TA.AperFunction,SMDPad,CuDef*%
%ADD23R,2.200000X3.000000*%
%TD*%
%TA.AperFunction,SMDPad,CuDef*%
%ADD24RoundRect,0.100000X-0.225000X-0.100000X0.225000X-0.100000X0.225000X0.100000X-0.225000X0.100000X0*%
%TD*%
%TA.AperFunction,SMDPad,CuDef*%
%ADD25RoundRect,0.250000X-0.262500X-0.450000X0.262500X-0.450000X0.262500X0.450000X-0.262500X0.450000X0*%
%TD*%
%TA.AperFunction,SMDPad,CuDef*%
%ADD26RoundRect,0.250000X0.350000X0.450000X-0.350000X0.450000X-0.350000X-0.450000X0.350000X-0.450000X0*%
%TD*%
%TA.AperFunction,SMDPad,CuDef*%
%ADD27RoundRect,0.237500X0.250000X0.237500X-0.250000X0.237500X-0.250000X-0.237500X0.250000X-0.237500X0*%
%TD*%
%TA.AperFunction,SMDPad,CuDef*%
%ADD28RoundRect,0.250000X0.262500X0.450000X-0.262500X0.450000X-0.262500X-0.450000X0.262500X-0.450000X0*%
%TD*%
%TA.AperFunction,SMDPad,CuDef*%
%ADD29RoundRect,0.250000X0.450000X-0.262500X0.450000X0.262500X-0.450000X0.262500X-0.450000X-0.262500X0*%
%TD*%
%TA.AperFunction,SMDPad,CuDef*%
%ADD30RoundRect,0.250000X-0.450000X0.262500X-0.450000X-0.262500X0.450000X-0.262500X0.450000X0.262500X0*%
%TD*%
%TA.AperFunction,SMDPad,CuDef*%
%ADD31R,0.650000X1.800000*%
%TD*%
%TA.AperFunction,ComponentPad*%
%ADD32R,1.980000X3.960000*%
%TD*%
%TA.AperFunction,ComponentPad*%
%ADD33O,1.980000X3.960000*%
%TD*%
%TA.AperFunction,ComponentPad*%
%ADD34RoundRect,0.250000X-1.050000X0.750000X-1.050000X-0.750000X1.050000X-0.750000X1.050000X0.750000X0*%
%TD*%
%TA.AperFunction,ComponentPad*%
%ADD35O,2.600000X2.000000*%
%TD*%
%TA.AperFunction,ComponentPad*%
%ADD36RoundRect,0.250000X1.050000X-0.750000X1.050000X0.750000X-1.050000X0.750000X-1.050000X-0.750000X0*%
%TD*%
%TA.AperFunction,ComponentPad*%
%ADD37O,0.890000X1.550000*%
%TD*%
%TA.AperFunction,SMDPad,CuDef*%
%ADD38R,1.500000X1.550000*%
%TD*%
%TA.AperFunction,ComponentPad*%
%ADD39O,1.250000X0.950000*%
%TD*%
%TA.AperFunction,SMDPad,CuDef*%
%ADD40R,1.200000X1.550000*%
%TD*%
%TA.AperFunction,SMDPad,CuDef*%
%ADD41R,0.400000X1.350000*%
%TD*%
%TA.AperFunction,SMDPad,CuDef*%
%ADD42RoundRect,0.249999X-1.075001X0.512501X-1.075001X-0.512501X1.075001X-0.512501X1.075001X0.512501X0*%
%TD*%
%TA.AperFunction,SMDPad,CuDef*%
%ADD43RoundRect,0.250000X-0.312500X-1.450000X0.312500X-1.450000X0.312500X1.450000X-0.312500X1.450000X0*%
%TD*%
%TA.AperFunction,SMDPad,CuDef*%
%ADD44RoundRect,0.250000X0.312500X1.450000X-0.312500X1.450000X-0.312500X-1.450000X0.312500X-1.450000X0*%
%TD*%
%TA.AperFunction,SMDPad,CuDef*%
%ADD45RoundRect,0.250001X-1.074999X0.462499X-1.074999X-0.462499X1.074999X-0.462499X1.074999X0.462499X0*%
%TD*%
%TA.AperFunction,SMDPad,CuDef*%
%ADD46RoundRect,0.250001X1.074999X-0.462499X1.074999X0.462499X-1.074999X0.462499X-1.074999X-0.462499X0*%
%TD*%
%TA.AperFunction,SMDPad,CuDef*%
%ADD47RoundRect,0.250000X1.450000X-0.312500X1.450000X0.312500X-1.450000X0.312500X-1.450000X-0.312500X0*%
%TD*%
%TA.AperFunction,SMDPad,CuDef*%
%ADD48RoundRect,0.250001X-0.462499X-1.074999X0.462499X-1.074999X0.462499X1.074999X-0.462499X1.074999X0*%
%TD*%
%TA.AperFunction,SMDPad,CuDef*%
%ADD49RoundRect,0.250000X-0.650000X0.412500X-0.650000X-0.412500X0.650000X-0.412500X0.650000X0.412500X0*%
%TD*%
%TA.AperFunction,SMDPad,CuDef*%
%ADD50RoundRect,0.250000X-0.325000X-0.650000X0.325000X-0.650000X0.325000X0.650000X-0.325000X0.650000X0*%
%TD*%
%TA.AperFunction,SMDPad,CuDef*%
%ADD51RoundRect,0.250000X-0.337500X-0.475000X0.337500X-0.475000X0.337500X0.475000X-0.337500X0.475000X0*%
%TD*%
%TA.AperFunction,SMDPad,CuDef*%
%ADD52RoundRect,0.225000X-0.225000X-0.250000X0.225000X-0.250000X0.225000X0.250000X-0.225000X0.250000X0*%
%TD*%
%TA.AperFunction,SMDPad,CuDef*%
%ADD53RoundRect,0.250000X0.337500X0.475000X-0.337500X0.475000X-0.337500X-0.475000X0.337500X-0.475000X0*%
%TD*%
%TA.AperFunction,SMDPad,CuDef*%
%ADD54RoundRect,0.250000X0.475000X-0.337500X0.475000X0.337500X-0.475000X0.337500X-0.475000X-0.337500X0*%
%TD*%
%TA.AperFunction,SMDPad,CuDef*%
%ADD55RoundRect,0.250000X-0.475000X0.337500X-0.475000X-0.337500X0.475000X-0.337500X0.475000X0.337500X0*%
%TD*%
%TA.AperFunction,SMDPad,CuDef*%
%ADD56RoundRect,0.250000X-1.112500X-1.500000X1.112500X-1.500000X1.112500X1.500000X-1.112500X1.500000X0*%
%TD*%
%TA.AperFunction,SMDPad,CuDef*%
%ADD57RoundRect,0.250000X-1.250000X-0.550000X1.250000X-0.550000X1.250000X0.550000X-1.250000X0.550000X0*%
%TD*%
%TA.AperFunction,SMDPad,CuDef*%
%ADD58RoundRect,0.250000X0.550000X-1.050000X0.550000X1.050000X-0.550000X1.050000X-0.550000X-1.050000X0*%
%TD*%
%TA.AperFunction,SMDPad,CuDef*%
%ADD59R,2.200000X1.600000*%
%TD*%
%TA.AperFunction,SMDPad,CuDef*%
%ADD60C,10.200000*%
%TD*%
%TA.AperFunction,SMDPad,CuDef*%
%ADD61R,3.500000X3.300000*%
%TD*%
%TA.AperFunction,ViaPad*%
%ADD62C,0.800000*%
%TD*%
%TA.AperFunction,Conductor*%
%ADD63C,0.100000*%
%TD*%
%TA.AperFunction,Conductor*%
%ADD64C,0.090000*%
%TD*%
%TA.AperFunction,Conductor*%
%ADD65C,0.300000*%
%TD*%
%TA.AperFunction,Conductor*%
%ADD66C,0.250000*%
%TD*%
%TA.AperFunction,Conductor*%
%ADD67C,0.200000*%
%TD*%
%TA.AperFunction,Conductor*%
%ADD68C,0.500000*%
%TD*%
%TA.AperFunction,Conductor*%
%ADD69C,0.400000*%
%TD*%
%TA.AperFunction,Conductor*%
%ADD70C,1.000000*%
%TD*%
%TA.AperFunction,Conductor*%
%ADD71C,0.800000*%
%TD*%
%TA.AperFunction,Conductor*%
%ADD72C,0.600000*%
%TD*%
%TA.AperFunction,Conductor*%
%ADD73C,0.700000*%
%TD*%
G04 APERTURE END LIST*
D10*
%TO.P,C25,1*%
%TO.N,5V_USB*%
X153466800Y-75023600D03*
%TO.P,C25,2*%
%TO.N,GND*%
X153466800Y-73298600D03*
%TD*%
D11*
%TO.P,C26,1*%
%TO.N,Net-(J6-Pin_1)*%
X186580400Y-121437400D03*
%TO.P,C26,2*%
%TO.N,GND*%
X184855400Y-121437400D03*
%TD*%
D12*
%TO.P,IC1,1,GPIO157/LED0/TST_CLK_OUT*%
%TO.N,Net-(IC1-GPIO157{slash}LED0{slash}TST_CLK_OUT)*%
X170433800Y-97009200D03*
%TO.P,IC1,2,GPIO027/KSO00/PVT_IO1*%
%TO.N,PVT_1*%
X170433800Y-97409200D03*
%TO.P,IC1,3,GPIO001/KSO05/32KHZ_OUT*%
%TO.N,unconnected-(IC1-GPIO001{slash}KSO05{slash}32KHZ_OUT-Pad3)*%
X170433800Y-97809200D03*
%TO.P,IC1,4,GPIO002/PWM7*%
%TO.N,unconnected-(IC1-GPIO002{slash}PWM7-Pad4)*%
X170433800Y-98209200D03*
%TO.P,IC1,5,VTR_1*%
%TO.N,VCC*%
X170433800Y-98609200D03*
%TO.P,IC1,6,GPIO005/SMB00_DATA/SMB00_DATA18/KSI2*%
%TO.N,unconnected-(IC1-GPIO005{slash}SMB00_DATA{slash}SMB00_DATA18{slash}KSI2-Pad6)*%
X170433800Y-99009200D03*
%TO.P,IC1,7,GPIO006/SMB00_CLK/SMB00_CLK18/KSI3*%
%TO.N,unconnected-(IC1-GPIO006{slash}SMB00_CLK{slash}SMB00_CLK18{slash}KSI3-Pad7)*%
X170433800Y-99409200D03*
%TO.P,IC1,8,GPIO007/SMB01_DATA/SMB01_DATA18*%
%TO.N,GP1O007*%
X170433800Y-99809200D03*
%TO.P,IC1,9,GPIO010/SMB01_CLK/SMB01_CLK18*%
X170433800Y-100209200D03*
%TO.P,IC1,10,GPIO011/NSMI/NEMI_INT/PWM4*%
%TO.N,unconnected-(IC1-GPIO011{slash}NSMI{slash}NEMI_INT{slash}PWM4-Pad10)*%
X170433800Y-100609200D03*
%TO.P,IC1,11,GPIO012/SMB02_DATA/SMB02_DATA18*%
%TO.N,GP1O007*%
X170433800Y-101009200D03*
%TO.P,IC1,12,GPIO013/SMB02_CLK/SMB02_CLK18*%
X170433800Y-101409200D03*
%TO.P,IC1,13,NRESET_IN/GPIO014*%
%TO.N,unconnected-(IC1-NRESET_IN{slash}GPIO014-Pad13)*%
X170433800Y-101809200D03*
%TO.P,IC1,14,GPIO015/KSO01/PVT_CS#*%
%TO.N,unconnected-(IC1-GPIO015{slash}KSO01{slash}PVT_CS#-Pad14)*%
X170433800Y-102209200D03*
%TO.P,IC1,15,GPIO016/KSO02/PVT_SCLK*%
%TO.N,PVT_SCLK*%
X170433800Y-102609200D03*
%TO.P,IC1,16,GPIO017/KSO03/PVT_IO0*%
%TO.N,PVT_0*%
X170433800Y-103009200D03*
%TO.P,IC1,17,VSS_1*%
%TO.N,GND*%
X170433800Y-103409200D03*
%TO.P,IC1,18,VR_CAP*%
%TO.N,Net-(IC1-VR_CAP)*%
X170433800Y-103809200D03*
%TO.P,IC1,19,VTR_2*%
%TO.N,VCC*%
X170433800Y-104209200D03*
%TO.P,IC1,20,GPIO020/CMP_VIN0*%
%TO.N,GPIO20*%
X170433800Y-104609200D03*
%TO.P,IC1,21,GPIO021/CMP_VIN1*%
%TO.N,GPIO21*%
X170433800Y-105009200D03*
%TO.P,IC1,22,GPIO066/KSO06*%
%TO.N,unconnected-(IC1-GPIO066{slash}KSO06-Pad22)*%
X170433800Y-105409200D03*
%TO.P,IC1,23,GPIO160/PWM2/KSO08/PVT_IO3*%
%TO.N,PVT_3*%
X170433800Y-105809200D03*
%TO.P,IC1,24,GPIO161/KSO07/PVT_IO2*%
%TO.N,PVT_2*%
X170433800Y-106209200D03*
%TO.P,IC1,25,GPIO165/CMP_VREF0*%
%TO.N,GPIO165*%
X170433800Y-106609200D03*
%TO.P,IC1,26,GPIO166/CMP_VREF1/UART_CLK*%
%TO.N,GPIO166*%
X170433800Y-107009200D03*
%TO.P,IC1,27,GPIO123/SHD_CS0#[BSS_STRAP]*%
%TO.N,Net-(IC1-GPIO123{slash}SHD_CS0#[BSS_STRAP])*%
X170433800Y-107409200D03*
%TO.P,IC1,28,GPIO133/SHD_IO0*%
%TO.N,Net-(IC1-GPIO133{slash}SHD_IO0)*%
X170433800Y-107809200D03*
%TO.P,IC1,29,GPIO134/SHD_IO1*%
%TO.N,Net-(IC1-GPIO134{slash}SHD_IO1)*%
X170433800Y-108209200D03*
%TO.P,IC1,30,GPIO135/SHD_IO2[PRG_STRAP]*%
%TO.N,Net-(IC1-GPIO135{slash}SHD_IO2[PRG_STRAP])*%
X170433800Y-108609200D03*
%TO.P,IC1,31,GPIO136/SHD_IO3*%
%TO.N,Net-(IC1-GPIO136{slash}SHD_IO3)*%
X170433800Y-109009200D03*
%TO.P,IC1,32,GPIO126/SHD_SCLK*%
%TO.N,Net-(IC1-GPIO126{slash}SHD_SCLK)*%
X170433800Y-109409200D03*
D13*
%TO.P,IC1,33,GPIO062/SPI_IO3*%
%TO.N,SPI_3*%
X171971800Y-110947200D03*
%TO.P,IC1,34,GPIO030/PWM4*%
%TO.N,PWM4*%
X172371800Y-110947200D03*
%TO.P,IC1,35,GPIO031/SPI_CS#/PWM5*%
%TO.N,SPI_CS*%
X172771800Y-110947200D03*
%TO.P,IC1,36,GPIO032/SPI_CLK/PWM6*%
%TO.N,SPI_CLK*%
X173171800Y-110947200D03*
%TO.P,IC1,37,GPIO045/SMB05_DATA/KSO04*%
%TO.N,unconnected-(IC1-GPIO045{slash}SMB05_DATA{slash}KSO04-Pad37)*%
X173571800Y-110947200D03*
%TO.P,IC1,38,GPIO046/SMB05_CLK/KSO05*%
%TO.N,unconnected-(IC1-GPIO046{slash}SMB05_CLK{slash}KSO05-Pad38)*%
X173971800Y-110947200D03*
%TO.P,IC1,39,GPIO047/SHD_CS1#/KSO06*%
%TO.N,SHD_CS1*%
X174371800Y-110947200D03*
%TO.P,IC1,40,GPIO050/TACH0*%
%TO.N,TACH0*%
X174771800Y-110947200D03*
%TO.P,IC1,41,GPIO051/TACH1*%
%TO.N,unconnected-(IC1-GPIO051{slash}TACH1-Pad41)*%
X175171800Y-110947200D03*
%TO.P,IC1,42,GPIO052/SPI_IO2*%
%TO.N,SPI_2*%
X175571800Y-110947200D03*
%TO.P,IC1,43,VTR_33_18*%
%TO.N,VCC*%
X175971800Y-110947200D03*
%TO.P,IC1,44,GPIO053/PWM0/SPI_IO0*%
%TO.N,PWM0*%
X176371800Y-110947200D03*
%TO.P,IC1,45,GPIO054/PWM1/SPI_IO1*%
%TO.N,PWM1*%
X176771800Y-110947200D03*
%TO.P,IC1,46,GPIO055/PWM2/KSO08*%
%TO.N,PWM2*%
X177171800Y-110947200D03*
%TO.P,IC1,47,GPIO056/PWM3*%
%TO.N,PWM3*%
X177571800Y-110947200D03*
%TO.P,IC1,48,GPIO057/VCC_PWRGD*%
%TO.N,unconnected-(IC1-GPIO057{slash}VCC_PWRGD-Pad48)*%
X177971800Y-110947200D03*
%TO.P,IC1,49,GPIO060/KBRST*%
%TO.N,RST*%
X178371800Y-110947200D03*
%TO.P,IC1,50,GPIO025/KSO07*%
%TO.N,unconnected-(IC1-GPIO025{slash}KSO07-Pad50)*%
X178771800Y-110947200D03*
%TO.P,IC1,51,GPIO167*%
%TO.N,GPIO167*%
X179171800Y-110947200D03*
%TO.P,IC1,52,GPIO026/PS2_CLK1B*%
%TO.N,GPIO026*%
X179571800Y-110947200D03*
%TO.P,IC1,53,GPIO061/LPCPD#/ESPI_RESET#*%
%TO.N,GPIO061*%
X179971800Y-110947200D03*
%TO.P,IC1,54,VTR_LPC_ESPI*%
%TO.N,VCC*%
X180371800Y-110947200D03*
%TO.P,IC1,55,GPIO063/SER_IRQ/ESPI_ALERT#*%
%TO.N,unconnected-(IC1-GPIO063{slash}SER_IRQ{slash}ESPI_ALERT#-Pad55)*%
X180771800Y-110947200D03*
%TO.P,IC1,56,GPIO064/LRESET#*%
%TO.N,unconnected-(IC1-GPIO064{slash}LRESET#-Pad56)*%
X181171800Y-110947200D03*
%TO.P,IC1,57,GPIO034/PCI_CLK/ESPI_CLK*%
%TO.N,unconnected-(IC1-GPIO034{slash}PCI_CLK{slash}ESPI_CLK-Pad57)*%
X181571800Y-110947200D03*
%TO.P,IC1,58,GPIO044/LFRAME#/ESPI_CS#*%
%TO.N,unconnected-(IC1-GPIO044{slash}LFRAME#{slash}ESPI_CS#-Pad58)*%
X181971800Y-110947200D03*
%TO.P,IC1,59,GPIO040/LAD0/ESPI_IO0*%
%TO.N,unconnected-(IC1-GPIO040{slash}LAD0{slash}ESPI_IO0-Pad59)*%
X182371800Y-110947200D03*
%TO.P,IC1,60,GPIO041/LAD1/ESPI_IO1*%
%TO.N,unconnected-(IC1-GPIO041{slash}LAD1{slash}ESPI_IO1-Pad60)*%
X182771800Y-110947200D03*
%TO.P,IC1,61,GPIO042/LAD2/ESPI_IO2*%
%TO.N,unconnected-(IC1-GPIO042{slash}LAD2{slash}ESPI_IO2-Pad61)*%
X183171800Y-110947200D03*
%TO.P,IC1,62,GPIO043/LAD3/ESPI_IO3*%
%TO.N,unconnected-(IC1-GPIO043{slash}LAD3{slash}ESPI_IO3-Pad62)*%
X183571800Y-110947200D03*
%TO.P,IC1,63,GPIO067/CLKRUN#*%
%TO.N,unconnected-(IC1-GPIO067{slash}CLKRUN#-Pad63)*%
X183971800Y-110947200D03*
%TO.P,IC1,64,VSS_2*%
%TO.N,GND*%
X184371800Y-110947200D03*
D12*
%TO.P,IC1,65,VTR_3*%
%TO.N,VCC*%
X185909800Y-109409200D03*
%TO.P,IC1,66,GPIO100/NEC_SCI*%
%TO.N,unconnected-(IC1-GPIO100{slash}NEC_SCI-Pad66)*%
X185909800Y-109009200D03*
%TO.P,IC1,67,GPIO101/KSO04*%
%TO.N,unconnected-(IC1-GPIO101{slash}KSO04-Pad67)*%
X185909800Y-108609200D03*
%TO.P,IC1,68,GPIO102/KSO09[CR_STRAP]*%
%TO.N,unconnected-(IC1-GPIO102{slash}KSO09[CR_STRAP]-Pad68)*%
X185909800Y-108209200D03*
%TO.P,IC1,69,GPIO103/VCC_PWRGD*%
%TO.N,unconnected-(IC1-GPIO103{slash}VCC_PWRGD-Pad69)*%
X185909800Y-107809200D03*
%TO.P,IC1,70,GPIO104/LED2*%
%TO.N,Net-(IC1-GPIO104{slash}LED2)*%
X185909800Y-107409200D03*
%TO.P,IC1,71,GPIO105/PS2_CLK1B/PWM0*%
%TO.N,GPIO105*%
X185909800Y-107009200D03*
%TO.P,IC1,72,GPIO106/KSO10/PCIRST_OUT0#*%
%TO.N,GPIO106*%
X185909800Y-106609200D03*
%TO.P,IC1,73,GPIO107/NRESET_OUT*%
%TO.N,GPIO107*%
X185909800Y-106209200D03*
%TO.P,IC1,74,GPIO110/KSO11/TACH2*%
%TO.N,GPIO110*%
X185909800Y-105809200D03*
%TO.P,IC1,75,GPIO111/KSO12/TACH3*%
%TO.N,GPIO111*%
X185909800Y-105409200D03*
%TO.P,IC1,76,GPIO112/PS2_CLK1A/KSO13*%
%TO.N,GPIO112*%
X185909800Y-105009200D03*
%TO.P,IC1,77,GPIO113/PS2_DAT1A/KSO14*%
%TO.N,GPIO113*%
X185909800Y-104609200D03*
%TO.P,IC1,78,GPIO114/PS2_CLK0*%
%TO.N,GPIO114*%
X185909800Y-104209200D03*
%TO.P,IC1,79,GPIO115/PS2_DAT0*%
%TO.N,unconnected-(IC1-GPIO115{slash}PS2_DAT0-Pad79)*%
X185909800Y-103809200D03*
%TO.P,IC1,80,GPIO116/TFDP_DATA/UART_RX*%
%TO.N,RX*%
X185909800Y-103409200D03*
%TO.P,IC1,81,GPIO117/TFDP_CLK/UART_TX[VL_STRAP]*%
%TO.N,TX*%
X185909800Y-103009200D03*
%TO.P,IC1,82,VTR_4*%
%TO.N,VCC*%
X185909800Y-102609200D03*
%TO.P,IC1,83,GPIO120/CMP_VOUT1*%
%TO.N,unconnected-(IC1-GPIO120{slash}CMP_VOUT1-Pad83)*%
X185909800Y-102209200D03*
%TO.P,IC1,84,VSS_3*%
%TO.N,GND*%
X185909800Y-101809200D03*
%TO.P,IC1,85,GPIO124/CMP_VOUT0*%
%TO.N,unconnected-(IC1-GPIO124{slash}CMP_VOUT0-Pad85)*%
X185909800Y-101409200D03*
%TO.P,IC1,86,GPIO125/KSO15/PCIRST_OUT1#*%
%TO.N,unconnected-(IC1-GPIO125{slash}KSO15{slash}PCIRST_OUT1#-Pad86)*%
X185909800Y-101009200D03*
%TO.P,IC1,87,ICSP_MCLR*%
%TO.N,unconnected-(IC1-ICSP_MCLR-Pad87)*%
X185909800Y-100609200D03*
%TO.P,IC1,88,GPIO127/PS2_DAT1B/TACH0*%
%TO.N,unconnected-(IC1-GPIO127{slash}PS2_DAT1B{slash}TACH0-Pad88)*%
X185909800Y-100209200D03*
%TO.P,IC1,89,GPIO130/SMB03_DATA/SMB03_DATA18*%
%TO.N,GP1O007*%
X185909800Y-99809200D03*
%TO.P,IC1,90,GPIO035/SB-TSI_CLK/PWM3*%
%TO.N,GPIO035*%
X185909800Y-99409200D03*
%TO.P,IC1,91,GPIO131/SMB03_CLK/SMB03_CLK18*%
%TO.N,GPIO131*%
X185909800Y-99009200D03*
%TO.P,IC1,92,GPIO132/KSO16/PCI_RESET#*%
%TO.N,GPIO132*%
X185909800Y-98609200D03*
%TO.P,IC1,93,GPIO140/KSO17/PWM5*%
%TO.N,GPIO140*%
X185909800Y-98209200D03*
%TO.P,IC1,94,GPIO033/PECI_DAT/SB_TSI_DAT*%
%TO.N,unconnected-(IC1-GPIO033{slash}PECI_DAT{slash}SB_TSI_DAT-Pad94)*%
X185909800Y-97809200D03*
%TO.P,IC1,95,VREF_CPU*%
%TO.N,unconnected-(IC1-VREF_CPU-Pad95)*%
X185909800Y-97409200D03*
%TO.P,IC1,96,GPIO141/SMB04_DATA/SMB04_DATA18*%
%TO.N,GP1O007*%
X185909800Y-97009200D03*
D13*
%TO.P,IC1,97,GPIO142/SMB04_CLK/SMB04_CLK18*%
%TO.N,unconnected-(IC1-GPIO142{slash}SMB04_CLK{slash}SMB04_CLK18-Pad97)*%
X184371800Y-95471200D03*
%TO.P,IC1,98,GPIO143/KSI0/DTR#*%
%TO.N,Net-(IC1-GPIO143{slash}KSI0{slash}DTR#)*%
X183971800Y-95471200D03*
%TO.P,IC1,99,GPIO144/KSI1/DCD#*%
%TO.N,Net-(IC1-GPIO144{slash}KSI1{slash}DCD#)*%
X183571800Y-95471200D03*
%TO.P,IC1,100,VSS_4*%
%TO.N,GND*%
X183171800Y-95471200D03*
%TO.P,IC1,101,GPIO145(ICSP_CLOCK)*%
%TO.N,unconnected-(IC1-GPIO145(ICSP_CLOCK)-Pad101)*%
X182771800Y-95471200D03*
%TO.P,IC1,102,GPIO146(ICSP_DATA)*%
%TO.N,unconnected-(IC1-GPIO146(ICSP_DATA)-Pad102)*%
X182371800Y-95471200D03*
%TO.P,IC1,103,VTR_5*%
%TO.N,VCC*%
X181971800Y-95471200D03*
%TO.P,IC1,104,GPIO147/KSI4/DSR#*%
%TO.N,Net-(IC1-GPIO144{slash}KSI1{slash}DCD#)*%
X181571800Y-95471200D03*
%TO.P,IC1,105,GPIO150/KSI5/RI#*%
%TO.N,Net-(IC1-GPIO150{slash}KSI5{slash}RI#)*%
X181171800Y-95471200D03*
%TO.P,IC1,106,GPIO156/LED1*%
%TO.N,Net-(IC1-GPIO156{slash}LED1)*%
X180771800Y-95471200D03*
%TO.P,IC1,107,GPIO151/KSI6/RTS#*%
%TO.N,Net-(IC1-GPIO151{slash}KSI6{slash}RTS#)*%
X180371800Y-95471200D03*
%TO.P,IC1,108,GPIO152/KSI7/CTS#*%
%TO.N,Net-(IC1-GPIO152{slash}KSI7{slash}CTS#)*%
X179971800Y-95471200D03*
%TO.P,IC1,109,GPIO153/ADC4*%
%TO.N,ADC4*%
X179571800Y-95471200D03*
%TO.P,IC1,110,GPIO154/ADC3*%
%TO.N,ADC3*%
X179171800Y-95471200D03*
%TO.P,IC1,111,GPIO155/ADC2*%
%TO.N,ADC2*%
X178771800Y-95471200D03*
%TO.P,IC1,112,AVSS*%
%TO.N,GND*%
X178371800Y-95471200D03*
%TO.P,IC1,113,GPIO122/ADC1*%
%TO.N,ADC1*%
X177971800Y-95471200D03*
%TO.P,IC1,114,GPIO121/ADC0*%
%TO.N,ADC0*%
X177571800Y-95471200D03*
%TO.P,IC1,115,ADC_VREF*%
%TO.N,GND*%
X177171800Y-95471200D03*
%TO.P,IC1,116,GPIO022/ADC5/PWM1*%
%TO.N,unconnected-(IC1-GPIO022{slash}ADC5{slash}PWM1-Pad116)*%
X176771800Y-95471200D03*
%TO.P,IC1,117,GPIO023/ADC6/A20M/TACH1*%
%TO.N,unconnected-(IC1-GPIO023{slash}ADC6{slash}A20M{slash}TACH1-Pad117)*%
X176371800Y-95471200D03*
%TO.P,IC1,118,GPIO024/ADC7*%
%TO.N,unconnected-(IC1-GPIO024{slash}ADC7-Pad118)*%
X175971800Y-95471200D03*
%TO.P,IC1,119,BGPO/GPIO004*%
%TO.N,GPIO004*%
X175571800Y-95471200D03*
%TO.P,IC1,120,SYSPWR_PRES/GPIO003*%
%TO.N,GPIO003*%
X175171800Y-95471200D03*
%TO.P,IC1,121,VCI_OUT/GPIO036*%
%TO.N,GPIO036*%
X174771800Y-95471200D03*
%TO.P,IC1,122,VBAT*%
%TO.N,VCC*%
X174371800Y-95471200D03*
%TO.P,IC1,123,XTAL1*%
%TO.N,Net-(IC1-XTAL1)*%
X173971800Y-95471200D03*
%TO.P,IC1,124,VSS_VBAT*%
%TO.N,GND*%
X173571800Y-95471200D03*
%TO.P,IC1,125,XTAL2*%
%TO.N,Net-(IC1-XTAL2)*%
X173171800Y-95471200D03*
%TO.P,IC1,126,VCI_IN1#/GPIO162*%
%TO.N,unconnected-(IC1-VCI_IN1#{slash}GPIO162-Pad126)*%
X172771800Y-95471200D03*
%TO.P,IC1,127,VCI_IN0#/GPIO163*%
%TO.N,unconnected-(IC1-VCI_IN0#{slash}GPIO163-Pad127)*%
X172371800Y-95471200D03*
%TO.P,IC1,128,VCI_OVRD_IN/GPIO164*%
%TO.N,unconnected-(IC1-VCI_OVRD_IN{slash}GPIO164-Pad128)*%
X171971800Y-95471200D03*
%TD*%
D14*
%TO.P,J8,1,Pin_1*%
%TO.N,VCC*%
X171170600Y-66827400D03*
%TO.P,J8,2,Pin_2*%
%TO.N,GND*%
X169420600Y-67827400D03*
%TD*%
D15*
%TO.P,R32,1*%
%TO.N,Net-(J5-Pin_4)*%
X153482800Y-89916000D03*
%TO.P,R32,2*%
%TO.N,Net-(R32-Pad2)*%
X155482800Y-89916000D03*
%TD*%
D16*
%TO.P,U3,21,GND*%
%TO.N,GND*%
X193207800Y-52847400D03*
D17*
%TO.P,U3,20,VCCIO*%
%TO.N,Net-(IC1-GPIO144{slash}KSI1{slash}DCD#)*%
X191270300Y-53847400D03*
%TO.P,U3,19,~{RTS}*%
%TO.N,Net-(IC1-GPIO151{slash}KSI6{slash}RTS#)*%
X191270300Y-53347400D03*
%TO.P,U3,18,~{DTR}*%
%TO.N,Net-(IC1-GPIO143{slash}KSI0{slash}DTR#)*%
X191270300Y-52847400D03*
%TO.P,U3,17,TXD*%
%TO.N,RX*%
X191270300Y-52347400D03*
%TO.P,U3,16,CBUS3*%
%TO.N,unconnected-(U3-CBUS3-Pad16)*%
X191270300Y-51847400D03*
D18*
%TO.P,U3,15,CBUS0*%
%TO.N,Net-(IC1-GPIO150{slash}KSI5{slash}RI#)*%
X192207800Y-50909900D03*
%TO.P,U3,14,CBUS1*%
%TO.N,Net-(D5-K)*%
X192707800Y-50909900D03*
%TO.P,U3,13,GND*%
%TO.N,GND*%
X193207800Y-50909900D03*
%TO.P,U3,12,VCC*%
%TO.N,VCC*%
X193707800Y-50909900D03*
%TO.P,U3,11,~{RESET}*%
%TO.N,Net-(IC1-GPIO144{slash}KSI1{slash}DCD#)*%
X194207800Y-50909900D03*
D17*
%TO.P,U3,10,3V3OUT*%
X195145300Y-51847400D03*
%TO.P,U3,9,USBDM*%
%TO.N,D-*%
X195145300Y-52347400D03*
%TO.P,U3,8,USBDP*%
%TO.N,D+*%
X195145300Y-52847400D03*
%TO.P,U3,7,CBUS2*%
%TO.N,Net-(D6-K)*%
X195145300Y-53347400D03*
%TO.P,U3,6,~{CTS}*%
%TO.N,Net-(IC1-GPIO152{slash}KSI7{slash}CTS#)*%
X195145300Y-53847400D03*
D18*
%TO.P,U3,5,~{DCD}*%
%TO.N,Net-(IC1-GPIO144{slash}KSI1{slash}DCD#)*%
X194207800Y-54784900D03*
%TO.P,U3,4,~{DSR}*%
X193707800Y-54784900D03*
%TO.P,U3,3,GND*%
%TO.N,GND*%
X193207800Y-54784900D03*
%TO.P,U3,2,~{RI}*%
%TO.N,Net-(IC1-GPIO150{slash}KSI5{slash}RI#)*%
X192707800Y-54784900D03*
%TO.P,U3,1,RXD*%
%TO.N,TX*%
X192207800Y-54784900D03*
%TD*%
D19*
%TO.P,Y1,1,1*%
%TO.N,Net-(IC1-XTAL2)*%
X171890300Y-81965800D03*
%TO.P,Y1,2,2*%
%TO.N,Net-(IC1-XTAL1)*%
X177715300Y-81965800D03*
%TD*%
D20*
%TO.P,U4,1,VDD*%
%TO.N,5V_USB*%
X186659600Y-124750400D03*
%TO.P,U4,2,GND*%
%TO.N,GND*%
X185709600Y-124750400D03*
%TO.P,U4,3,IN+*%
%TO.N,5V_USB*%
X184759600Y-124750400D03*
%TO.P,U4,4,~{IN-}*%
%TO.N,Net-(U4-~{IN-})*%
X184759600Y-127025400D03*
%TO.P,U4,5,OUT*%
%TO.N,Net-(J6-Pin_1)*%
X186659600Y-127025400D03*
%TD*%
D21*
%TO.P,U2,1,GND*%
%TO.N,GND*%
X179627000Y-42759600D03*
D22*
%TO.P,U2,2,VO*%
%TO.N,VCC*%
X185927000Y-45059600D03*
D21*
X179627000Y-45059600D03*
%TO.P,U2,3,VI*%
%TO.N,5V_USB*%
X179627000Y-47359600D03*
%TD*%
D23*
%TO.P,U1,9,VO*%
%TO.N,VCCQ*%
X157506400Y-74174200D03*
D24*
%TO.P,U1,8,NC*%
%TO.N,unconnected-(U1-NC-Pad8)*%
X159156400Y-72974200D03*
%TO.P,U1,7,VO*%
%TO.N,VCCQ*%
X159156400Y-73774200D03*
%TO.P,U1,6,VO*%
X159156400Y-74574200D03*
%TO.P,U1,5,VO*%
X159156400Y-75374200D03*
%TO.P,U1,4,VI*%
%TO.N,5V_USB*%
X155856400Y-75374200D03*
%TO.P,U1,3,VI*%
X155856400Y-74574200D03*
%TO.P,U1,2,VI*%
X155856400Y-73774200D03*
%TO.P,U1,1,GND*%
%TO.N,GND*%
X155856400Y-72974200D03*
%TD*%
D25*
%TO.P,R45,1*%
%TO.N,VCC*%
X174271800Y-63322200D03*
%TO.P,R45,2*%
%TO.N,GND*%
X176096800Y-63322200D03*
%TD*%
D15*
%TO.P,R44,1*%
%TO.N,Net-(D11-A)*%
X165894000Y-94843600D03*
%TO.P,R44,2*%
%TO.N,Net-(IC1-GPIO157{slash}LED0{slash}TST_CLK_OUT)*%
X167894000Y-94843600D03*
%TD*%
D26*
%TO.P,R43,1*%
%TO.N,Net-(D10-A)*%
X185988200Y-86614000D03*
%TO.P,R43,2*%
%TO.N,Net-(IC1-GPIO156{slash}LED1)*%
X183988200Y-86614000D03*
%TD*%
%TO.P,R42,1*%
%TO.N,Net-(D9-A)*%
X194532000Y-107645200D03*
%TO.P,R42,2*%
%TO.N,Net-(IC1-GPIO104{slash}LED2)*%
X192532000Y-107645200D03*
%TD*%
%TO.P,R41,1*%
%TO.N,VCC*%
X177107600Y-116967000D03*
%TO.P,R41,2*%
%TO.N,TACH0*%
X175107600Y-116967000D03*
%TD*%
%TO.P,R40,1*%
%TO.N,Net-(U4-~{IN-})*%
X174643800Y-122707400D03*
%TO.P,R40,2*%
%TO.N,PWM4*%
X172643800Y-122707400D03*
%TD*%
D15*
%TO.P,R39,1*%
%TO.N,Net-(R33-Pad2)*%
X159010600Y-93192600D03*
%TO.P,R39,2*%
%TO.N,PVT_SCLK*%
X161010600Y-93192600D03*
%TD*%
%TO.P,R38,1*%
%TO.N,Net-(R32-Pad2)*%
X159061400Y-89941400D03*
%TO.P,R38,2*%
%TO.N,PVT_3*%
X161061400Y-89941400D03*
%TD*%
%TO.P,R37,1*%
%TO.N,Net-(R31-Pad2)*%
X159010600Y-86563200D03*
%TO.P,R37,2*%
%TO.N,PVT_2*%
X161010600Y-86563200D03*
%TD*%
%TO.P,R36,1*%
%TO.N,Net-(R30-Pad2)*%
X158985200Y-84302600D03*
%TO.P,R36,2*%
%TO.N,PVT_1*%
X160985200Y-84302600D03*
%TD*%
%TO.P,R35,1*%
%TO.N,Net-(R29-Pad2)*%
X159121600Y-80848200D03*
%TO.P,R35,2*%
%TO.N,PVT_0*%
X161121600Y-80848200D03*
%TD*%
%TO.P,R34,1*%
%TO.N,SHD_CS1*%
X153473400Y-97459800D03*
%TO.P,R34,2*%
%TO.N,VCC*%
X155473400Y-97459800D03*
%TD*%
%TO.P,R33,1*%
%TO.N,Net-(J5-Pin_5)*%
X153651200Y-92938600D03*
%TO.P,R33,2*%
%TO.N,Net-(R33-Pad2)*%
X155651200Y-92938600D03*
%TD*%
%TO.P,R31,2*%
%TO.N,Net-(R31-Pad2)*%
X155651200Y-87038600D03*
%TO.P,R31,1*%
%TO.N,Net-(J5-Pin_3)*%
X153651200Y-87038600D03*
%TD*%
%TO.P,R30,1*%
%TO.N,Net-(J5-Pin_2)*%
X153651200Y-84088600D03*
%TO.P,R30,2*%
%TO.N,Net-(R30-Pad2)*%
X155651200Y-84088600D03*
%TD*%
%TO.P,R29,1*%
%TO.N,Net-(J5-Pin_1)*%
X153651200Y-81138600D03*
%TO.P,R29,2*%
%TO.N,Net-(R29-Pad2)*%
X155651200Y-81138600D03*
%TD*%
D26*
%TO.P,R28,1*%
%TO.N,Net-(IC1-GPIO123{slash}SHD_CS0#[BSS_STRAP])*%
X165804600Y-110540800D03*
%TO.P,R28,2*%
%TO.N,VCC*%
X163804600Y-110540800D03*
%TD*%
D27*
%TO.P,R27,1*%
%TO.N,Net-(R17-Pad2)*%
X156159200Y-102260400D03*
%TO.P,R27,2*%
%TO.N,Net-(J3-Pin_3)*%
X154334200Y-102260400D03*
%TD*%
D28*
%TO.P,R26,1*%
%TO.N,Net-(R16-Pad2)*%
X157403800Y-118872000D03*
%TO.P,R26,2*%
%TO.N,Net-(J3-Pin_4)*%
X155578800Y-118872000D03*
%TD*%
%TO.P,R25,1*%
%TO.N,Net-(R15-Pad2)*%
X157200600Y-115468400D03*
%TO.P,R25,2*%
%TO.N,Net-(J3-Pin_5)*%
X155375600Y-115468400D03*
%TD*%
%TO.P,R24,1*%
%TO.N,Net-(R14-Pad2)*%
X157351100Y-111506000D03*
%TO.P,R24,2*%
%TO.N,Net-(J3-Pin_6)*%
X155526100Y-111506000D03*
%TD*%
%TO.P,R23,1*%
%TO.N,Net-(R13-Pad2)*%
X156616400Y-106603800D03*
%TO.P,R23,2*%
%TO.N,Net-(J3-Pin_7)*%
X154791400Y-106603800D03*
%TD*%
D25*
%TO.P,R22,1*%
%TO.N,Net-(R17-Pad2)*%
X158423600Y-102844600D03*
%TO.P,R22,2*%
%TO.N,Net-(IC1-GPIO126{slash}SHD_SCLK)*%
X160248600Y-102844600D03*
%TD*%
%TO.P,R21,1*%
%TO.N,Net-(R16-Pad2)*%
X159642800Y-118592600D03*
%TO.P,R21,2*%
%TO.N,Net-(IC1-GPIO136{slash}SHD_IO3)*%
X161467800Y-118592600D03*
%TD*%
%TO.P,R20,1*%
%TO.N,Net-(R15-Pad2)*%
X159388800Y-115163600D03*
%TO.P,R20,2*%
%TO.N,Net-(IC1-GPIO135{slash}SHD_IO2[PRG_STRAP])*%
X161213800Y-115163600D03*
%TD*%
%TO.P,R19,2*%
%TO.N,Net-(IC1-GPIO134{slash}SHD_IO1)*%
X161086800Y-110464600D03*
%TO.P,R19,1*%
%TO.N,Net-(R14-Pad2)*%
X159261800Y-110464600D03*
%TD*%
%TO.P,R18,1*%
%TO.N,Net-(R13-Pad2)*%
X158550600Y-106756200D03*
%TO.P,R18,2*%
%TO.N,Net-(IC1-GPIO133{slash}SHD_IO0)*%
X160375600Y-106756200D03*
%TD*%
%TO.P,R17,1*%
%TO.N,Net-(J4-Pin_5)*%
X157890200Y-68148200D03*
%TO.P,R17,2*%
%TO.N,Net-(R17-Pad2)*%
X159715200Y-68148200D03*
%TD*%
%TO.P,R16,1*%
%TO.N,Net-(J4-Pin_4)*%
X157712400Y-65913000D03*
%TO.P,R16,2*%
%TO.N,Net-(R16-Pad2)*%
X159537400Y-65913000D03*
%TD*%
%TO.P,R15,1*%
%TO.N,Net-(J4-Pin_3)*%
X157814000Y-61442600D03*
%TO.P,R15,2*%
%TO.N,Net-(R15-Pad2)*%
X159639000Y-61442600D03*
%TD*%
%TO.P,R14,1*%
%TO.N,Net-(J4-Pin_2)*%
X157558100Y-57683400D03*
%TO.P,R14,2*%
%TO.N,Net-(R14-Pad2)*%
X159383100Y-57683400D03*
%TD*%
%TO.P,R13,1*%
%TO.N,Net-(J4-Pin_1)*%
X155807400Y-54584600D03*
%TO.P,R13,2*%
%TO.N,Net-(R13-Pad2)*%
X157632400Y-54584600D03*
%TD*%
D28*
%TO.P,R12,1*%
%TO.N,ADC_V4*%
X194181100Y-79171800D03*
%TO.P,R12,2*%
%TO.N,ADC4*%
X192356100Y-79171800D03*
%TD*%
%TO.P,R11,1*%
%TO.N,ADC_V3*%
X194155700Y-75666600D03*
%TO.P,R11,2*%
%TO.N,ADC3*%
X192330700Y-75666600D03*
%TD*%
%TO.P,R10,1*%
%TO.N,ADC0_3*%
X194054100Y-72313800D03*
%TO.P,R10,2*%
%TO.N,ADC2*%
X192229100Y-72313800D03*
%TD*%
%TO.P,R9,1*%
%TO.N,ADC_V1*%
X194155700Y-69088000D03*
%TO.P,R9,2*%
%TO.N,ADC1*%
X192330700Y-69088000D03*
%TD*%
%TO.P,R8,1*%
%TO.N,ADC_V0*%
X193827400Y-64541400D03*
%TO.P,R8,2*%
%TO.N,ADC0*%
X192002400Y-64541400D03*
%TD*%
D29*
%TO.P,R7,1*%
%TO.N,Net-(D6-A)*%
X205943200Y-42746300D03*
%TO.P,R7,2*%
%TO.N,Net-(IC1-GPIO144{slash}KSI1{slash}DCD#)*%
X205943200Y-40921300D03*
%TD*%
%TO.P,R6,1*%
%TO.N,Net-(D5-A)*%
X209473800Y-42846000D03*
%TO.P,R6,2*%
%TO.N,Net-(IC1-GPIO144{slash}KSI1{slash}DCD#)*%
X209473800Y-41021000D03*
%TD*%
%TO.P,R5,1*%
%TO.N,Net-(D4-A)*%
X167308400Y-55952400D03*
%TO.P,R5,2*%
%TO.N,VCC*%
X167308400Y-54127400D03*
%TD*%
D30*
%TO.P,R4,1*%
%TO.N,5V_USB*%
X177290600Y-51184800D03*
%TO.P,R4,2*%
%TO.N,Net-(D3-A)*%
X177290600Y-53009800D03*
%TD*%
D28*
%TO.P,R3,1*%
%TO.N,Net-(J1-D-)*%
X205511400Y-58724800D03*
%TO.P,R3,2*%
%TO.N,D-*%
X203686400Y-58724800D03*
%TD*%
D30*
%TO.P,R2,1*%
%TO.N,Net-(J1-D+)*%
X200609200Y-56798200D03*
%TO.P,R2,2*%
%TO.N,D+*%
X200609200Y-58623200D03*
%TD*%
%TO.P,R1,1*%
%TO.N,Net-(BT1-+)*%
X170229400Y-50753000D03*
%TO.P,R1,2*%
%TO.N,Net-(D2-A)*%
X170229400Y-52578000D03*
%TD*%
D31*
%TO.P,J7,30,Pin_30*%
%TO.N,GPIO004*%
X208991200Y-131114800D03*
%TO.P,J7,29,Pin_29*%
%TO.N,GPIO003*%
X207721200Y-133814800D03*
%TO.P,J7,28,Pin_28*%
%TO.N,GPIO036*%
X206451200Y-131114800D03*
%TO.P,J7,27,Pin_27*%
%TO.N,GPIO035*%
X205181200Y-133814800D03*
%TO.P,J7,26,Pin_26*%
%TO.N,GPIO131*%
X203911200Y-131114800D03*
%TO.P,J7,25,Pin_25*%
%TO.N,GPIO132*%
X202641200Y-133814800D03*
%TO.P,J7,24,Pin_24*%
%TO.N,GPIO140*%
X201371200Y-131114800D03*
%TO.P,J7,23,Pin_23*%
%TO.N,GPIO165*%
X200101200Y-133814800D03*
%TO.P,J7,22,Pin_22*%
%TO.N,GPIO166*%
X198831200Y-131114800D03*
%TO.P,J7,21,Pin_21*%
%TO.N,GPIO20*%
X197561200Y-133814800D03*
%TO.P,J7,20,Pin_20*%
%TO.N,GPIO21*%
X196291200Y-131114800D03*
%TO.P,J7,19,Pin_19*%
%TO.N,GPIO105*%
X195021200Y-133814800D03*
%TO.P,J7,18,Pin_18*%
%TO.N,GPIO106*%
X193751200Y-131114800D03*
%TO.P,J7,17,Pin_17*%
%TO.N,GPIO107*%
X192481200Y-133814800D03*
%TO.P,J7,16,Pin_16*%
%TO.N,GPIO110*%
X191211200Y-131114800D03*
%TO.P,J7,15,Pin_15*%
%TO.N,GPIO111*%
X189941200Y-133814800D03*
%TO.P,J7,14,Pin_14*%
%TO.N,GPIO112*%
X188671200Y-131114800D03*
%TO.P,J7,13,Pin_13*%
%TO.N,GPIO113*%
X187401200Y-133814800D03*
%TO.P,J7,12,Pin_12*%
%TO.N,GPIO114*%
X186131200Y-131114800D03*
%TO.P,J7,11,Pin_11*%
%TO.N,GPIO167*%
X184861200Y-133814800D03*
%TO.P,J7,10,Pin_10*%
%TO.N,GPIO026*%
X183591200Y-131114800D03*
%TO.P,J7,9,Pin_9*%
%TO.N,GPIO061*%
X182321200Y-133814800D03*
%TO.P,J7,8,Pin_8*%
%TO.N,SPI_2*%
X181051200Y-131114800D03*
%TO.P,J7,7,Pin_7*%
%TO.N,SPI_3*%
X179781200Y-133814800D03*
%TO.P,J7,6,Pin_6*%
%TO.N,SPI_CS*%
X178511200Y-131114800D03*
%TO.P,J7,5,Pin_5*%
%TO.N,SPI_CLK*%
X177241200Y-133814800D03*
%TO.P,J7,4,Pin_4*%
%TO.N,PWM3*%
X175971200Y-131114800D03*
%TO.P,J7,3,Pin_3*%
%TO.N,PWM2*%
X174701200Y-133814800D03*
%TO.P,J7,2,Pin_2*%
%TO.N,PWM1*%
X173431200Y-131114800D03*
%TO.P,J7,1,Pin_1*%
%TO.N,PWM0*%
X172161200Y-133814800D03*
%TD*%
D32*
%TO.P,J6,1,Pin_1*%
%TO.N,Net-(J6-Pin_1)*%
X156528400Y-129296000D03*
D33*
%TO.P,J6,2,Pin_2*%
%TO.N,TACH0*%
X161528400Y-129296000D03*
%TO.P,J6,3,Pin_3*%
%TO.N,GND*%
X166528400Y-129296000D03*
%TD*%
D34*
%TO.P,J5,1,Pin_1*%
%TO.N,Net-(J5-Pin_1)*%
X145745200Y-80803200D03*
D35*
%TO.P,J5,2,Pin_2*%
%TO.N,Net-(J5-Pin_2)*%
X145745200Y-84303200D03*
%TO.P,J5,3,Pin_3*%
%TO.N,Net-(J5-Pin_3)*%
X145745200Y-87803200D03*
%TO.P,J5,4,Pin_4*%
%TO.N,Net-(J5-Pin_4)*%
X145745200Y-91303200D03*
%TO.P,J5,5,Pin_5*%
%TO.N,Net-(J5-Pin_5)*%
X145745200Y-94803200D03*
%TO.P,J5,6,Pin_6*%
%TO.N,VCC*%
X145745200Y-98303200D03*
%TO.P,J5,7,Pin_7*%
%TO.N,SHD_CS1*%
X145745200Y-101803200D03*
%TD*%
D34*
%TO.P,J4,1,Pin_1*%
%TO.N,Net-(J4-Pin_1)*%
X145796000Y-51882400D03*
D35*
%TO.P,J4,2,Pin_2*%
%TO.N,Net-(J4-Pin_2)*%
X145796000Y-55382400D03*
%TO.P,J4,3,Pin_3*%
%TO.N,Net-(J4-Pin_3)*%
X145796000Y-58882400D03*
%TO.P,J4,4,Pin_4*%
%TO.N,Net-(J4-Pin_4)*%
X145796000Y-62382400D03*
%TO.P,J4,5,Pin_5*%
%TO.N,Net-(J4-Pin_5)*%
X145796000Y-65882400D03*
%TO.P,J4,6,Pin_6*%
%TO.N,VCC*%
X145796000Y-69382400D03*
%TO.P,J4,7,Pin_7*%
%TO.N,Net-(IC1-GPIO123{slash}SHD_CS0#[BSS_STRAP])*%
X145796000Y-72882400D03*
%TD*%
D36*
%TO.P,J3,1,Pin_1*%
%TO.N,RST*%
X145821400Y-131921800D03*
D35*
%TO.P,J3,2,Pin_2*%
%TO.N,Net-(IC1-GPIO123{slash}SHD_CS0#[BSS_STRAP])*%
X145821400Y-128421800D03*
%TO.P,J3,3,Pin_3*%
%TO.N,Net-(J3-Pin_3)*%
X145821400Y-124921800D03*
%TO.P,J3,4,Pin_4*%
%TO.N,Net-(J3-Pin_4)*%
X145821400Y-121421800D03*
%TO.P,J3,5,Pin_5*%
%TO.N,Net-(J3-Pin_5)*%
X145821400Y-117921800D03*
%TO.P,J3,6,Pin_6*%
%TO.N,Net-(J3-Pin_6)*%
X145821400Y-114421800D03*
%TO.P,J3,7,Pin_7*%
%TO.N,Net-(J3-Pin_7)*%
X145821400Y-110921800D03*
%TD*%
D34*
%TO.P,J2,1,Pin_1*%
%TO.N,ADC_V0*%
X206781400Y-64771200D03*
D35*
%TO.P,J2,2,Pin_2*%
%TO.N,ADC_V1*%
X206781400Y-68271200D03*
%TO.P,J2,3,Pin_3*%
%TO.N,ADC0_3*%
X206781400Y-71771200D03*
%TO.P,J2,4,Pin_4*%
%TO.N,ADC_V3*%
X206781400Y-75271200D03*
%TO.P,J2,5,Pin_5*%
%TO.N,ADC_V4*%
X206781400Y-78771200D03*
%TO.P,J2,6,Pin_6*%
%TO.N,GP1O007*%
X206781400Y-82271200D03*
%TO.P,J2,7,Pin_7*%
X206781400Y-85771200D03*
%TO.P,J2,8,Pin_8*%
X206781400Y-89271200D03*
%TO.P,J2,9,Pin_9*%
X206781400Y-92771200D03*
%TO.P,J2,10,Pin_10*%
X206781400Y-96271200D03*
%TO.P,J2,11,Pin_11*%
X206781400Y-99771200D03*
%TD*%
D37*
%TO.P,J1,6,Shield*%
%TO.N,GND*%
X203077200Y-43154600D03*
D38*
X200577200Y-43154600D03*
D39*
X202077200Y-45854600D03*
D40*
X196677200Y-43154600D03*
D37*
X196077200Y-43154600D03*
D38*
X198577200Y-43154600D03*
D39*
X197077200Y-45854600D03*
D40*
X202477200Y-43154600D03*
D41*
%TO.P,J1,5,GND*%
X198277200Y-45854600D03*
%TO.P,J1,4,ID*%
%TO.N,unconnected-(J1-ID-Pad4)*%
X198927200Y-45854600D03*
%TO.P,J1,3,D+*%
%TO.N,Net-(J1-D+)*%
X199577200Y-45854600D03*
%TO.P,J1,2,D-*%
%TO.N,Net-(J1-D-)*%
X200227200Y-45854600D03*
%TO.P,J1,1,VBUS*%
%TO.N,Net-(J1-VBUS)*%
X200877200Y-45854600D03*
%TD*%
D42*
%TO.P,FB1,1*%
%TO.N,Net-(J1-VBUS)*%
X187680600Y-52297900D03*
%TO.P,FB1,2*%
%TO.N,5V_USB*%
X187680600Y-56972900D03*
%TD*%
D43*
%TO.P,D11,1,K*%
%TO.N,GND*%
X166442300Y-89839800D03*
%TO.P,D11,2,A*%
%TO.N,Net-(D11-A)*%
X170717300Y-89839800D03*
%TD*%
D44*
%TO.P,D10,1,K*%
%TO.N,GND*%
X190707100Y-91414600D03*
%TO.P,D10,2,A*%
%TO.N,Net-(D10-A)*%
X186432100Y-91414600D03*
%TD*%
%TO.P,D9,1,K*%
%TO.N,GND*%
X203635700Y-107365800D03*
%TO.P,D9,2,A*%
%TO.N,Net-(D9-A)*%
X199360700Y-107365800D03*
%TD*%
D45*
%TO.P,D8,1,K*%
%TO.N,VCC*%
X194665600Y-94499100D03*
%TO.P,D8,2,A*%
%TO.N,GP1O007*%
X194665600Y-97474100D03*
%TD*%
D46*
%TO.P,D7,1,K*%
%TO.N,GP1O007*%
X198932800Y-98083700D03*
%TO.P,D7,2,A*%
%TO.N,GND*%
X198932800Y-95108700D03*
%TD*%
D47*
%TO.P,D6,1,K*%
%TO.N,Net-(D6-K)*%
X207340200Y-48996600D03*
%TO.P,D6,2,A*%
%TO.N,Net-(D6-A)*%
X207340200Y-44721600D03*
%TD*%
%TO.P,D5,1,K*%
%TO.N,Net-(D5-K)*%
X208051400Y-56769000D03*
%TO.P,D5,2,A*%
%TO.N,Net-(D5-A)*%
X208051400Y-52494000D03*
%TD*%
%TO.P,D4,1,K*%
%TO.N,GND*%
X172820200Y-59008100D03*
%TO.P,D4,2,A*%
%TO.N,Net-(D4-A)*%
X172820200Y-54733100D03*
%TD*%
%TO.P,D3,1,K*%
%TO.N,GND*%
X182853200Y-56141800D03*
%TO.P,D3,2,A*%
%TO.N,Net-(D3-A)*%
X182853200Y-51866800D03*
%TD*%
D48*
%TO.P,D2,2,A*%
%TO.N,Net-(D2-A)*%
X182181700Y-59359800D03*
%TO.P,D2,1,K*%
%TO.N,VCC*%
X179206700Y-59359800D03*
%TD*%
D46*
%TO.P,D1,1,K*%
%TO.N,VCC*%
X190855600Y-46459800D03*
%TO.P,D1,2,A*%
X190855600Y-43484800D03*
%TD*%
D49*
%TO.P,C28,1*%
%TO.N,TACH0*%
X171069000Y-116750700D03*
%TO.P,C28,2*%
%TO.N,GND*%
X171069000Y-119875700D03*
%TD*%
D50*
%TO.P,C27,1*%
%TO.N,Net-(J6-Pin_1)*%
X186381600Y-116611400D03*
%TO.P,C27,2*%
%TO.N,GND*%
X189331600Y-116611400D03*
%TD*%
D51*
%TO.P,C24,1*%
%TO.N,Net-(U4-~{IN-})*%
X178104800Y-122707400D03*
%TO.P,C24,2*%
%TO.N,GND*%
X180179800Y-122707400D03*
%TD*%
D52*
%TO.P,C23,1*%
%TO.N,GND*%
X182981000Y-79197200D03*
%TO.P,C23,2*%
%TO.N,ADC4*%
X184531000Y-79197200D03*
%TD*%
%TO.P,C22,1*%
%TO.N,GND*%
X182981000Y-76687200D03*
%TO.P,C22,2*%
%TO.N,ADC3*%
X184531000Y-76687200D03*
%TD*%
%TO.P,C21,1*%
%TO.N,GND*%
X182981000Y-74177200D03*
%TO.P,C21,2*%
%TO.N,ADC2*%
X184531000Y-74177200D03*
%TD*%
%TO.P,C20,1*%
%TO.N,GND*%
X182981000Y-71667200D03*
%TO.P,C20,2*%
%TO.N,ADC1*%
X184531000Y-71667200D03*
%TD*%
%TO.P,C19,1*%
%TO.N,GND*%
X183195200Y-69607000D03*
%TO.P,C19,2*%
%TO.N,ADC0*%
X184745200Y-69607000D03*
%TD*%
%TO.P,C18,1*%
%TO.N,VCC*%
X189051600Y-103911400D03*
%TO.P,C18,2*%
%TO.N,GND*%
X190601600Y-103911400D03*
%TD*%
D51*
%TO.P,C17,1*%
%TO.N,Net-(IC1-XTAL1)*%
X181182100Y-83566000D03*
%TO.P,C17,2*%
%TO.N,GND*%
X183257100Y-83566000D03*
%TD*%
D53*
%TO.P,C16,1*%
%TO.N,Net-(IC1-XTAL2)*%
X167995600Y-82118200D03*
%TO.P,C16,2*%
%TO.N,GND*%
X165920600Y-82118200D03*
%TD*%
D51*
%TO.P,C15,1*%
%TO.N,VCC*%
X163914000Y-103759000D03*
%TO.P,C15,2*%
%TO.N,GND*%
X165989000Y-103759000D03*
%TD*%
%TO.P,C14,1*%
%TO.N,VCC*%
X181871800Y-116560600D03*
%TO.P,C14,2*%
%TO.N,GND*%
X183946800Y-116560600D03*
%TD*%
%TO.P,C13,1*%
%TO.N,VCC*%
X181436100Y-91516200D03*
%TO.P,C13,2*%
%TO.N,GND*%
X183511100Y-91516200D03*
%TD*%
D53*
%TO.P,C12,1*%
%TO.N,VCC*%
X160473300Y-98145600D03*
%TO.P,C12,2*%
%TO.N,GND*%
X158398300Y-98145600D03*
%TD*%
D54*
%TO.P,C11,1*%
%TO.N,VCC*%
X194233800Y-102760600D03*
%TO.P,C11,2*%
%TO.N,GND*%
X194233800Y-100685600D03*
%TD*%
D55*
%TO.P,C10,1*%
%TO.N,VCC*%
X189915800Y-109558000D03*
%TO.P,C10,2*%
%TO.N,GND*%
X189915800Y-111633000D03*
%TD*%
D53*
%TO.P,C9,1*%
%TO.N,VCC*%
X175023600Y-91592400D03*
%TO.P,C9,2*%
%TO.N,GND*%
X172948600Y-91592400D03*
%TD*%
D56*
%TO.P,C8,1*%
%TO.N,Net-(IC1-GPIO144{slash}KSI1{slash}DCD#)*%
X187281900Y-82727800D03*
%TO.P,C8,2*%
%TO.N,GND*%
X193006900Y-82727800D03*
%TD*%
D57*
%TO.P,C7,1*%
%TO.N,VCCQ*%
X164840200Y-73914000D03*
%TO.P,C7,2*%
%TO.N,GND*%
X169240200Y-73914000D03*
%TD*%
D58*
%TO.P,C6,1*%
%TO.N,5V_USB*%
X173455200Y-48536000D03*
%TO.P,C6,2*%
%TO.N,GND*%
X173455200Y-44936000D03*
%TD*%
D51*
%TO.P,C5,1*%
%TO.N,GND*%
X163906200Y-105968800D03*
%TO.P,C5,2*%
%TO.N,Net-(IC1-VR_CAP)*%
X165981200Y-105968800D03*
%TD*%
D55*
%TO.P,C4,1*%
%TO.N,Net-(J1-D-)*%
X202082400Y-50321300D03*
%TO.P,C4,2*%
%TO.N,GND*%
X202082400Y-52396300D03*
%TD*%
D59*
%TO.P,C3,1*%
%TO.N,5V_USB*%
X190550800Y-62407800D03*
%TO.P,C3,2*%
%TO.N,GND*%
X187550800Y-62407800D03*
%TD*%
D54*
%TO.P,C2,1*%
%TO.N,Net-(J1-D+)*%
X198602600Y-52447100D03*
%TO.P,C2,2*%
%TO.N,GND*%
X198602600Y-50372100D03*
%TD*%
D58*
%TO.P,C1,1*%
%TO.N,VCC*%
X162228400Y-56664000D03*
%TO.P,C1,2*%
%TO.N,GND*%
X162228400Y-53064000D03*
%TD*%
D60*
%TO.P,BT1,2,-*%
%TO.N,GND*%
X160806600Y-42926000D03*
D61*
%TO.P,BT1,1,+*%
%TO.N,Net-(BT1-+)*%
X168706600Y-42926000D03*
X152906600Y-42926000D03*
%TD*%
D62*
%TO.N,Net-(IC1-GPIO104{slash}LED2)*%
X187467400Y-108153200D03*
X191414400Y-106476800D03*
%TO.N,Net-(J6-Pin_1)*%
X182727600Y-120007209D03*
X176072800Y-120802400D03*
%TO.N,Net-(IC1-GPIO157{slash}LED0{slash}TST_CLK_OUT)*%
X169189400Y-96697800D03*
X169849800Y-95072200D03*
%TO.N,Net-(J6-Pin_1)*%
X174371000Y-119329200D03*
X166979600Y-122529600D03*
X185166000Y-119659400D03*
%TO.N,Net-(IC1-GPIO144{slash}KSI1{slash}DCD#)*%
X193114900Y-56134000D03*
%TO.N,Net-(IC1-GPIO143{slash}KSI0{slash}DTR#)*%
X191693800Y-59309000D03*
%TO.N,Net-(IC1-GPIO144{slash}KSI1{slash}DCD#)*%
X186664600Y-83489800D03*
X183046216Y-92901616D03*
%TO.N,GND*%
X179451000Y-54686200D03*
%TO.N,Net-(R17-Pad2)*%
X157327600Y-69570600D03*
X152323800Y-78003400D03*
%TO.N,Net-(R13-Pad2)*%
X161264600Y-88265000D03*
X156895800Y-104698800D03*
%TO.N,Net-(R14-Pad2)*%
X152908000Y-49250600D03*
X156006800Y-100228400D03*
%TO.N,Net-(R16-Pad2)*%
X155168600Y-63322200D03*
X163474400Y-114528600D03*
%TO.N,Net-(IC1-GPIO150{slash}KSI5{slash}RI#)*%
X189966600Y-56997600D03*
X192062800Y-49915800D03*
%TO.N,Net-(IC1-GPIO143{slash}KSI0{slash}DTR#)*%
X194767200Y-60121800D03*
X199085200Y-61722000D03*
X184188200Y-93853000D03*
%TO.N,Net-(IC1-GPIO123{slash}SHD_CS0#[BSS_STRAP])*%
X141147800Y-124587000D03*
X151358600Y-75361800D03*
%TO.N,RX*%
X179730400Y-104876600D03*
X187198000Y-53695600D03*
%TO.N,GP1O007*%
X172237400Y-99669600D03*
X177596800Y-103632000D03*
X181533800Y-100939600D03*
X183248400Y-99809200D03*
%TO.N,GND*%
X183667400Y-101498400D03*
%TO.N,Net-(IC1-GPIO144{slash}KSI1{slash}DCD#)*%
X195338390Y-49110590D03*
X202717400Y-40259000D03*
%TO.N,Net-(D5-K)*%
X196570600Y-48437800D03*
X207949800Y-54787800D03*
%TO.N,SHD_CS1*%
X154051000Y-100711000D03*
X163042600Y-97713800D03*
X167487600Y-98882200D03*
X172745400Y-108966000D03*
%TO.N,RST*%
X173964600Y-108026200D03*
X150520400Y-122529600D03*
%TO.N,5V_USB*%
X190093000Y-55801945D03*
X184342731Y-123048069D03*
%TO.N,GPIO003*%
X180187600Y-99339400D03*
X201218800Y-113080800D03*
%TO.N,GPIO004*%
X175895000Y-96951800D03*
X192684400Y-99771200D03*
%TO.N,GPIO036*%
X179501800Y-102539800D03*
X190677800Y-98780600D03*
%TO.N,GPIO131*%
X188758804Y-99869258D03*
X190703200Y-101904800D03*
%TO.N,GPIO165*%
X171768751Y-106364467D03*
X198272400Y-128905000D03*
%TO.N,Net-(IC1-GPIO123{slash}SHD_CS0#[BSS_STRAP])*%
X167721000Y-106883200D03*
X167187600Y-114096800D03*
%TO.N,VCC*%
X163982400Y-112242600D03*
%TO.N,Net-(IC1-GPIO126{slash}SHD_SCLK)*%
X160248600Y-102844600D03*
X168767600Y-109309200D03*
%TO.N,GPIO166*%
X182295800Y-105664000D03*
X190830200Y-124333000D03*
%TO.N,TACH0*%
X173916220Y-112392580D03*
X172289316Y-114555116D03*
%TO.N,Net-(IC1-VR_CAP)*%
X162427269Y-104859463D03*
X165709600Y-102336600D03*
%TO.N,GPIO20*%
X168603027Y-103828121D03*
X184505600Y-136712800D03*
%TO.N,GPIO21*%
X168134975Y-104711825D03*
X180086000Y-136067800D03*
%TO.N,GPIO105*%
X190306800Y-119557800D03*
X188010800Y-109905800D03*
%TO.N,GPIO106*%
X192278000Y-129108200D03*
X189091415Y-114692585D03*
%TO.N,GPIO110*%
X184554158Y-106868732D03*
X186131200Y-113614200D03*
%TO.N,GPIO111*%
X183749232Y-107462112D03*
X185572400Y-111480600D03*
%TO.N,GPIO112*%
X183083200Y-108356400D03*
X188391800Y-129159000D03*
%TO.N,GPIO113*%
X182459232Y-107512314D03*
X187416382Y-128843980D03*
%TO.N,GPIO114*%
X178587400Y-107264200D03*
X186705248Y-129555237D03*
%TO.N,GPIO167*%
X178694400Y-112496600D03*
X180898800Y-133604000D03*
%TO.N,GPIO026*%
X179527200Y-115570000D03*
X184370537Y-130051830D03*
%TO.N,GPIO061*%
X179984400Y-113106200D03*
X176474150Y-129372763D03*
%TO.N,SPI_2*%
X174976385Y-112745782D03*
X182448200Y-130276600D03*
%TO.N,PWM3*%
X177816800Y-113817400D03*
X173431601Y-129234798D03*
%TO.N,PWM2*%
X177520902Y-115290298D03*
X169849800Y-133604000D03*
%TO.N,PWM0*%
X175683494Y-113452890D03*
X170764200Y-131572000D03*
%TO.N,PWM1*%
X176390602Y-114159998D03*
X172212000Y-130454400D03*
%TO.N,TX*%
X181889400Y-102768400D03*
X191714900Y-56817568D03*
%TO.N,Net-(IC1-GPIO144{slash}KSI1{slash}DCD#)*%
X190402284Y-54095884D03*
%TO.N,Net-(IC1-GPIO151{slash}KSI6{slash}RTS#)*%
X191439800Y-54711600D03*
X180111400Y-97612200D03*
%TO.N,Net-(IC1-GPIO152{slash}KSI7{slash}CTS#)*%
X195598400Y-55045296D03*
X180221800Y-93075352D03*
%TO.N,ADC4*%
X188214000Y-80377800D03*
X179821800Y-92151200D03*
%TO.N,ADC3*%
X188417200Y-75539600D03*
X179959000Y-91008200D03*
%TO.N,ADC2*%
X186385200Y-75463400D03*
X180009800Y-88900000D03*
%TO.N,ADC1*%
X196138800Y-66421000D03*
X178358800Y-89077800D03*
%TO.N,ADC0*%
X182880000Y-66827400D03*
X178206400Y-70002400D03*
%TO.N,PVT_0*%
X162433000Y-82880200D03*
X167944800Y-101320600D03*
%TO.N,PVT_1*%
X163169600Y-85547200D03*
X165811200Y-96926400D03*
%TO.N,VCC*%
X171944930Y-104258018D03*
%TO.N,GND*%
X167716200Y-67868800D03*
%TO.N,VCC*%
X173380400Y-66827400D03*
X188950600Y-102666800D03*
X196062600Y-103327200D03*
X192125600Y-95656400D03*
X183972200Y-102895400D03*
X171881800Y-98450400D03*
%TO.N,GND*%
X172135800Y-103276400D03*
%TO.N,VCC*%
X181584600Y-89890600D03*
%TO.N,GND*%
X183642000Y-97129600D03*
%TO.N,VCC*%
X182270400Y-97155000D03*
%TO.N,GND*%
X183286400Y-89230200D03*
%TO.N,VCC*%
X174853600Y-89611200D03*
%TO.N,GND*%
X178714400Y-97028000D03*
X177469800Y-97104200D03*
X173456600Y-96875600D03*
%TO.N,VCC*%
X173685200Y-101955600D03*
X156870400Y-96875600D03*
X163728400Y-102336600D03*
X160909000Y-99745800D03*
X184404000Y-109118400D03*
X189915800Y-108305600D03*
X175971200Y-109143800D03*
X180390800Y-109372400D03*
X182759300Y-116611400D03*
X178689000Y-116662200D03*
X194843400Y-48183800D03*
%TO.N,GND*%
X193610469Y-48858610D03*
%TO.N,VCC*%
X188214000Y-46990000D03*
X177292000Y-59740800D03*
X172567600Y-62839600D03*
X165582600Y-54610000D03*
X164109400Y-57708800D03*
%TO.N,GND*%
X200456800Y-51866800D03*
X154446125Y-73749585D03*
X155778200Y-72288400D03*
X168173400Y-89585800D03*
X173329600Y-90043000D03*
X191795400Y-103886000D03*
X183286400Y-68376800D03*
X183743600Y-72847200D03*
X183997600Y-75539600D03*
X184200800Y-80645000D03*
X184188200Y-84988400D03*
X173913800Y-42672000D03*
X177546000Y-43434000D03*
X197129400Y-49707800D03*
X177520600Y-62890400D03*
X175945800Y-58039000D03*
X195529200Y-81788000D03*
X200126600Y-93243400D03*
X192024000Y-89509600D03*
X196773800Y-101066600D03*
X205333600Y-107137200D03*
X191617600Y-111633000D03*
X190779400Y-116382800D03*
X183946800Y-115062000D03*
X172745400Y-119862600D03*
X184556400Y-121437400D03*
X180187600Y-121310400D03*
X158394400Y-96697800D03*
X162483800Y-105968800D03*
X167386000Y-103759000D03*
X165912800Y-80721200D03*
X172008800Y-73558400D03*
%TD*%
D63*
%TO.N,Net-(IC1-GPIO143{slash}KSI0{slash}DTR#)*%
X190022206Y-55082800D02*
X190286023Y-55082800D01*
X189417079Y-53273079D02*
X189417079Y-54477673D01*
X189842758Y-52847400D02*
X189417079Y-53273079D01*
X190286023Y-55082800D02*
X190360168Y-55156945D01*
X191270300Y-52847400D02*
X189842758Y-52847400D01*
X189417079Y-54477673D02*
X190022206Y-55082800D01*
%TO.N,Net-(IC1-GPIO144{slash}KSI1{slash}DCD#)*%
X199689100Y-60266200D02*
X194207800Y-54784900D01*
%TO.N,5V_USB*%
X155856400Y-73774200D02*
X155856400Y-74574200D01*
X153991800Y-75023600D02*
X153466800Y-75023600D01*
X154342400Y-75374200D02*
X153991800Y-75023600D01*
%TO.N,Net-(IC1-GPIO104{slash}LED2)*%
X187467400Y-108153200D02*
X187467400Y-108084300D01*
X187467400Y-108084300D02*
X186792300Y-107409200D01*
X186792300Y-107409200D02*
X185909800Y-107409200D01*
D64*
%TO.N,GPIO105*%
X188112400Y-109905800D02*
X188010800Y-109905800D01*
X188112400Y-107365800D02*
X188112400Y-109905800D01*
X187755800Y-107009200D02*
X188112400Y-107365800D01*
X185909800Y-107009200D02*
X187755800Y-107009200D01*
%TO.N,GPIO106*%
X188655800Y-114233800D02*
X189103000Y-114681000D01*
X188444278Y-106609200D02*
X188655800Y-106820722D01*
X185909800Y-106609200D02*
X188444278Y-106609200D01*
X188655800Y-106820722D02*
X188655800Y-114233800D01*
X189103000Y-114681000D02*
X189091415Y-114692585D01*
%TO.N,GPIO107*%
X188945800Y-113634800D02*
X191424400Y-116113400D01*
X191424400Y-116113400D02*
X191424400Y-116880800D01*
X191424400Y-116880800D02*
X190131700Y-118173500D01*
X188945800Y-106700600D02*
X188945800Y-113634800D01*
X188454400Y-106209200D02*
X188945800Y-106700600D01*
X185909800Y-106209200D02*
X188454400Y-106209200D01*
%TO.N,GPIO035*%
X204020400Y-134975600D02*
X205181200Y-133814800D01*
X199547000Y-134975600D02*
X204020400Y-134975600D01*
X198261200Y-133689800D02*
X199547000Y-134975600D01*
X198261200Y-130954922D02*
X198261200Y-133689800D01*
X190185200Y-124600168D02*
X195110232Y-129525200D01*
X196831478Y-129525200D02*
X198261200Y-130954922D01*
X190185200Y-124065832D02*
X190185200Y-124600168D01*
X193967568Y-120283464D02*
X190185200Y-124065832D01*
X195110232Y-129525200D02*
X196831478Y-129525200D01*
X193967568Y-111407976D02*
X193967568Y-120283464D01*
X190189400Y-106195322D02*
X190189400Y-107629808D01*
X188915478Y-104921400D02*
X190189400Y-106195322D01*
X188505564Y-104921400D02*
X188915478Y-104921400D01*
X190189400Y-107629808D02*
X193967568Y-111407976D01*
X186892300Y-100583100D02*
X188015600Y-101706400D01*
X186892300Y-99464200D02*
X186892300Y-100583100D01*
X186837300Y-99409200D02*
X186892300Y-99464200D01*
X185909800Y-99409200D02*
X186837300Y-99409200D01*
X188015600Y-101706400D02*
X188015600Y-104431436D01*
X188015600Y-104431436D02*
X188505564Y-104921400D01*
%TO.N,GPIO132*%
X188982400Y-98609200D02*
X185909800Y-98609200D01*
X189458600Y-99085400D02*
X188982400Y-98609200D01*
X189433200Y-99110800D02*
X189458600Y-99085400D01*
X189433200Y-100914200D02*
X189433200Y-99110800D01*
X188305600Y-102041800D02*
X189433200Y-100914200D01*
X188305600Y-104311314D02*
X188305600Y-102041800D01*
X188625686Y-104631400D02*
X188305600Y-104311314D01*
X190479400Y-106075200D02*
X189035600Y-104631400D01*
X200391200Y-117421486D02*
X190479400Y-107509686D01*
X200391200Y-131979800D02*
X200391200Y-117421486D01*
X189035600Y-104631400D02*
X188625686Y-104631400D01*
X190479400Y-107509686D02*
X190479400Y-106075200D01*
X202226200Y-133814800D02*
X200391200Y-131979800D01*
X202641200Y-133814800D02*
X202226200Y-133814800D01*
%TO.N,GPIO140*%
X189166600Y-98209200D02*
X185909800Y-98209200D01*
X190769400Y-106209632D02*
X190855600Y-106123432D01*
X189788800Y-104902000D02*
X189788800Y-98831400D01*
X190769400Y-107389564D02*
X190769400Y-106209632D01*
X189788800Y-98831400D02*
X189166600Y-98209200D01*
X201371200Y-117991364D02*
X190769400Y-107389564D01*
X201371200Y-131114800D02*
X201371200Y-117991364D01*
X190855600Y-106123432D02*
X190855600Y-105968800D01*
X190855600Y-105968800D02*
X189788800Y-104902000D01*
D63*
%TO.N,Net-(IC1-GPIO104{slash}LED2)*%
X191414400Y-106527600D02*
X191414400Y-106476800D01*
X192532000Y-107645200D02*
X191414400Y-106527600D01*
%TO.N,SPI_CS*%
X172771800Y-112624600D02*
X172771800Y-110947200D01*
X176353883Y-116206683D02*
X172771800Y-112624600D01*
X176257600Y-116302966D02*
X176353883Y-116206683D01*
X176257600Y-119474600D02*
X176257600Y-116302966D01*
X175422800Y-120309400D02*
X176257600Y-119474600D01*
X175422800Y-121092200D02*
X175422800Y-120309400D01*
X175783000Y-121452400D02*
X175422800Y-121092200D01*
X178450000Y-121452400D02*
X175783000Y-121452400D01*
X178942300Y-121944700D02*
X178450000Y-121452400D01*
X178942300Y-126578600D02*
X178942300Y-121944700D01*
X183550561Y-126578600D02*
X178942300Y-126578600D01*
X183550561Y-119481473D02*
X183550561Y-126578600D01*
X185556600Y-117475434D02*
X183550561Y-119481473D01*
X185556600Y-115747366D02*
X185556600Y-117475434D01*
X185842566Y-115461400D02*
X185556600Y-115747366D01*
X186920634Y-115461400D02*
X185842566Y-115461400D01*
X187405200Y-115945966D02*
X186920634Y-115461400D01*
X187405200Y-127512142D02*
X187405200Y-115945966D01*
X186076796Y-128244600D02*
X186672742Y-128244600D01*
X186672742Y-128244600D02*
X187405200Y-127512142D01*
X184746004Y-129202600D02*
X185118796Y-129202600D01*
X180617243Y-129008757D02*
X184737693Y-129194289D01*
X184737693Y-129194289D02*
X184746004Y-129202600D01*
X185118796Y-129202600D02*
X186076796Y-128244600D01*
X178511200Y-131114800D02*
X180617243Y-129008757D01*
D65*
%TO.N,Net-(J1-VBUS)*%
X187680600Y-50850800D02*
X187680600Y-52297900D01*
X188315600Y-50215800D02*
X187680600Y-50850800D01*
X189788800Y-50215800D02*
X188315600Y-50215800D01*
X193522600Y-46482000D02*
X189788800Y-50215800D01*
X193522600Y-44254900D02*
X193522600Y-46482000D01*
X202996800Y-41427400D02*
X196350100Y-41427400D01*
X203911200Y-42341800D02*
X202996800Y-41427400D01*
X196350100Y-41427400D02*
X193522600Y-44254900D01*
X203911200Y-45364400D02*
X203911200Y-42341800D01*
X201227200Y-46679600D02*
X202596000Y-46679600D01*
X202596000Y-46679600D02*
X203911200Y-45364400D01*
X200877200Y-46329600D02*
X201227200Y-46679600D01*
X200877200Y-45854600D02*
X200877200Y-46329600D01*
D64*
%TO.N,Net-(IC1-GPIO143{slash}KSI0{slash}DTR#)*%
X190738000Y-55534777D02*
X190360168Y-55156945D01*
X190814800Y-58430000D02*
X190814800Y-55864600D01*
X190738000Y-55787800D02*
X190738000Y-55534777D01*
X191693800Y-59309000D02*
X190814800Y-58430000D01*
X190814800Y-55864600D02*
X190738000Y-55787800D01*
D66*
%TO.N,GND*%
X153917785Y-73749585D02*
X153466800Y-73298600D01*
X154446125Y-73749585D02*
X153917785Y-73749585D01*
X185709600Y-122590600D02*
X185709600Y-124750400D01*
X184556400Y-121437400D02*
X185709600Y-122590600D01*
%TO.N,Net-(J6-Pin_1)*%
X185166000Y-120023000D02*
X186580400Y-121437400D01*
X185166000Y-119659400D02*
X185166000Y-120023000D01*
D63*
X176867991Y-120007209D02*
X182727600Y-120007209D01*
X176072800Y-120802400D02*
X176867991Y-120007209D01*
%TO.N,SPI_CLK*%
X178791200Y-132264800D02*
X177241200Y-133814800D01*
X184166200Y-132264800D02*
X178791200Y-132264800D01*
X184166200Y-131175406D02*
X184166200Y-132264800D01*
X188207045Y-127134561D02*
X184166200Y-131175406D01*
X187705200Y-126632716D02*
X188207045Y-127134561D01*
X187705200Y-115821702D02*
X187705200Y-126632716D01*
X187044898Y-115161400D02*
X187705200Y-115821702D01*
X185718302Y-115161400D02*
X187044898Y-115161400D01*
X185256600Y-117351170D02*
X185256600Y-115623102D01*
X185256600Y-115623102D02*
X185718302Y-115161400D01*
X182303248Y-119357209D02*
X183250561Y-119357209D01*
X178958239Y-116012200D02*
X182303248Y-119357209D01*
X176616600Y-116012200D02*
X178958239Y-116012200D01*
X183250561Y-119357209D02*
X185256600Y-117351170D01*
X173171800Y-112567400D02*
X176616600Y-116012200D01*
X173171800Y-110947200D02*
X173171800Y-112567400D01*
%TO.N,Net-(IC1-GPIO157{slash}LED0{slash}TST_CLK_OUT)*%
X169500800Y-97009200D02*
X169189400Y-96697800D01*
X170433800Y-97009200D02*
X169500800Y-97009200D01*
D67*
%TO.N,PVT_SCLK*%
X171471300Y-102609200D02*
X170433800Y-102609200D01*
X173482000Y-100598500D02*
X171471300Y-102609200D01*
X173482000Y-98619900D02*
X173482000Y-100598500D01*
X163728400Y-95910400D02*
X170772500Y-95910400D01*
X170772500Y-95910400D02*
X173482000Y-98619900D01*
X161010600Y-93192600D02*
X163728400Y-95910400D01*
D63*
%TO.N,PVT_1*%
X166294000Y-97409200D02*
X170433800Y-97409200D01*
X165811200Y-96926400D02*
X166294000Y-97409200D01*
%TO.N,Net-(IC1-GPIO157{slash}LED0{slash}TST_CLK_OUT)*%
X169621200Y-94843600D02*
X169849800Y-95072200D01*
X167894000Y-94843600D02*
X169621200Y-94843600D01*
%TO.N,PWM4*%
X175031400Y-118557234D02*
X175031400Y-120319800D01*
X175031400Y-120319800D02*
X172643800Y-122707400D01*
X175957600Y-117631034D02*
X175031400Y-118557234D01*
X172371800Y-110947200D02*
X172371800Y-112717166D01*
X172371800Y-112717166D02*
X175957600Y-116302966D01*
X175957600Y-116302966D02*
X175957600Y-117631034D01*
%TO.N,Net-(J6-Pin_1)*%
X174005000Y-118963200D02*
X174371000Y-119329200D01*
X170204966Y-118963200D02*
X174005000Y-118963200D01*
X166979600Y-122188566D02*
X170204966Y-118963200D01*
X166979600Y-122529600D02*
X166979600Y-122188566D01*
X186381600Y-118443800D02*
X185166000Y-119659400D01*
X186381600Y-116611400D02*
X186381600Y-118443800D01*
X186381600Y-121111200D02*
X186055400Y-121437400D01*
%TO.N,5V_USB*%
X155056400Y-75374200D02*
X154838400Y-75374200D01*
X155856400Y-74574200D02*
X155056400Y-75374200D01*
X154838400Y-75374200D02*
X155856400Y-75374200D01*
X154342400Y-75374200D02*
X154838400Y-75374200D01*
%TO.N,GPIO107*%
X189115700Y-118173500D02*
X190131700Y-118173500D01*
X188823600Y-118465600D02*
X189115700Y-118173500D01*
%TO.N,Net-(IC1-GPIO144{slash}KSI1{slash}DCD#)*%
X193707800Y-54784900D02*
X194207800Y-54784900D01*
%TO.N,Net-(IC1-GPIO150{slash}KSI5{slash}RI#)*%
X192414900Y-55768500D02*
X192707800Y-55475600D01*
%TO.N,GND*%
X183511100Y-89454900D02*
X183511100Y-91516200D01*
X183286400Y-89230200D02*
X183511100Y-89454900D01*
%TO.N,Net-(IC1-GPIO144{slash}KSI1{slash}DCD#)*%
X183159400Y-93014800D02*
X183046216Y-92901616D01*
X182713300Y-93460900D02*
X183159400Y-93014800D01*
X182713300Y-93675200D02*
X182713300Y-93460900D01*
D68*
%TO.N,GND*%
X180906600Y-56141800D02*
X179451000Y-54686200D01*
X182853200Y-56141800D02*
X180906600Y-56141800D01*
D64*
%TO.N,Net-(R17-Pad2)*%
X157327600Y-69570600D02*
X158292800Y-69570600D01*
X158292800Y-69570600D02*
X159715200Y-68148200D01*
X146038036Y-78003400D02*
X152323800Y-78003400D01*
X143750200Y-80291236D02*
X146038036Y-78003400D01*
X143750200Y-95505292D02*
X143750200Y-80291236D01*
X144743107Y-96498200D02*
X143750200Y-95505292D01*
X154628400Y-98121764D02*
X154628400Y-96797836D01*
X154928036Y-96498200D02*
X144743107Y-96498200D01*
X154628400Y-96797836D02*
X154928036Y-96498200D01*
X154911436Y-98404800D02*
X154628400Y-98121764D01*
X156035364Y-98404800D02*
X154911436Y-98404800D01*
X158423600Y-100793036D02*
X156035364Y-98404800D01*
X158423600Y-102844600D02*
X158423600Y-100793036D01*
%TO.N,Net-(R13-Pad2)*%
X158343600Y-55295800D02*
X157632400Y-54584600D01*
X167035200Y-66754964D02*
X158343600Y-58063364D01*
X158343600Y-58063364D02*
X158343600Y-55295800D01*
X161363968Y-88265000D02*
X167035200Y-82593768D01*
X161264600Y-88265000D02*
X161363968Y-88265000D01*
X167035200Y-82593768D02*
X167035200Y-66754964D01*
X156895800Y-105101400D02*
X156895800Y-104698800D01*
X158550600Y-106756200D02*
X156895800Y-105101400D01*
%TO.N,Net-(R14-Pad2)*%
X159383100Y-54915836D02*
X159383100Y-57683400D01*
X153717864Y-49250600D02*
X159383100Y-54915836D01*
X152908000Y-49250600D02*
X153717864Y-49250600D01*
X155371800Y-100863400D02*
X156006800Y-100228400D01*
X155703900Y-103200742D02*
X155371800Y-102868642D01*
X155703900Y-107419200D02*
X155703900Y-103200742D01*
X155371800Y-102868642D02*
X155371800Y-100863400D01*
X158749300Y-110464600D02*
X155703900Y-107419200D01*
X159261800Y-110464600D02*
X158749300Y-110464600D01*
D66*
%TO.N,Net-(R15-Pad2)*%
X166665200Y-74709100D02*
X166665200Y-68468800D01*
X166335300Y-75039000D02*
X166665200Y-74709100D01*
X162685300Y-75039000D02*
X166335300Y-75039000D01*
X154906100Y-80113600D02*
X157610700Y-80113600D01*
X154576200Y-80443500D02*
X154906100Y-80113600D01*
X154576200Y-81833700D02*
X154576200Y-80443500D01*
X154246300Y-82163600D02*
X154576200Y-81833700D01*
X144471000Y-82163600D02*
X154246300Y-82163600D01*
X144120200Y-82514400D02*
X144471000Y-82163600D01*
X144120200Y-95352033D02*
X144120200Y-82514400D01*
X144896367Y-96128200D02*
X144120200Y-95352033D01*
X157400105Y-96128200D02*
X144896367Y-96128200D01*
X157669400Y-96397495D02*
X157400105Y-96128200D01*
X166665200Y-68468800D02*
X159639000Y-61442600D01*
X157669400Y-97241900D02*
X157669400Y-96397495D01*
X157485800Y-97425500D02*
X157669400Y-97241900D01*
X157485800Y-98865700D02*
X157485800Y-97425500D01*
X159411100Y-100791000D02*
X157485800Y-98865700D01*
X157610700Y-80113600D02*
X162685300Y-75039000D01*
X159411100Y-107324300D02*
X159411100Y-100791000D01*
X160249300Y-108162500D02*
X159411100Y-107324300D01*
X160249300Y-114303100D02*
X160249300Y-108162500D01*
X159388800Y-115163600D02*
X160249300Y-114303100D01*
D69*
%TO.N,Net-(R16-Pad2)*%
X155168600Y-63322200D02*
X156946600Y-63322200D01*
X156946600Y-63322200D02*
X159537400Y-65913000D01*
X163474400Y-114761000D02*
X163474400Y-114528600D01*
X159642800Y-118592600D02*
X163474400Y-114761000D01*
D64*
%TO.N,Net-(IC1-GPIO150{slash}KSI5{slash}RI#)*%
X192382000Y-61849000D02*
X192414900Y-61849000D01*
X189966600Y-59433600D02*
X192382000Y-61849000D01*
X189966600Y-56997600D02*
X189966600Y-59433600D01*
D63*
X192414900Y-61849000D02*
X192414900Y-55768500D01*
D67*
X192414900Y-63043700D02*
X192414900Y-61849000D01*
D64*
%TO.N,5V_USB*%
X190093000Y-55801945D02*
X188922045Y-56972900D01*
X188922045Y-56972900D02*
X187680600Y-56972900D01*
%TO.N,Net-(IC1-GPIO150{slash}KSI5{slash}RI#)*%
X192062800Y-49669000D02*
X192062800Y-49915800D01*
X192207800Y-49790000D02*
X192074800Y-49657000D01*
X192207800Y-50909900D02*
X192207800Y-49790000D01*
X192074800Y-49657000D02*
X192062800Y-49669000D01*
D70*
%TO.N,5V_USB*%
X190550800Y-61747400D02*
X190550800Y-62407800D01*
X187680600Y-58877200D02*
X190550800Y-61747400D01*
X187680600Y-56972900D02*
X187680600Y-58877200D01*
D64*
%TO.N,Net-(IC1-GPIO143{slash}KSI0{slash}DTR#)*%
X196367400Y-61722000D02*
X194767200Y-60121800D01*
X199085200Y-61722000D02*
X196367400Y-61722000D01*
X184175400Y-93853000D02*
X184188200Y-93853000D01*
X183971800Y-94056600D02*
X184175400Y-93853000D01*
D67*
%TO.N,Net-(IC1-GPIO144{slash}KSI1{slash}DCD#)*%
X181571800Y-94433700D02*
X181571800Y-95471200D01*
X182549800Y-93675200D02*
X182372000Y-93853000D01*
X182713300Y-93675200D02*
X182549800Y-93675200D01*
X182372000Y-93853000D02*
X182152500Y-93853000D01*
X182152500Y-93853000D02*
X181571800Y-94433700D01*
X183571800Y-94533700D02*
X182713300Y-93675200D01*
X183571800Y-95471200D02*
X183571800Y-94533700D01*
D64*
%TO.N,Net-(IC1-GPIO143{slash}KSI0{slash}DTR#)*%
X183971800Y-95471200D02*
X183971800Y-94056600D01*
%TO.N,RX*%
X191140300Y-52477400D02*
X191270300Y-52347400D01*
X189508400Y-52477400D02*
X191140300Y-52477400D01*
X189250600Y-53022364D02*
X189250600Y-52735200D01*
X188967564Y-53305400D02*
X189250600Y-53022364D01*
X188629600Y-53305400D02*
X188967564Y-53305400D01*
X187198000Y-53695600D02*
X188239400Y-53695600D01*
X188239400Y-53695600D02*
X188629600Y-53305400D01*
X189250600Y-52735200D02*
X189508400Y-52477400D01*
%TO.N,Net-(IC1-GPIO151{slash}KSI6{slash}RTS#)*%
X191363600Y-54787800D02*
X191439800Y-54711600D01*
X190144400Y-54787800D02*
X191363600Y-54787800D01*
X190135116Y-53450884D02*
X189738000Y-53848000D01*
X189738000Y-54381400D02*
X190144400Y-54787800D01*
X190754317Y-53450884D02*
X190135116Y-53450884D01*
X189738000Y-53848000D02*
X189738000Y-54381400D01*
X191270300Y-53347400D02*
X190857801Y-53347400D01*
X190857801Y-53347400D02*
X190754317Y-53450884D01*
%TO.N,Net-(IC1-GPIO123{slash}SHD_CS0#[BSS_STRAP])*%
X147122200Y-133166800D02*
X148805900Y-131483100D01*
X144559436Y-133166800D02*
X147122200Y-133166800D01*
X141147800Y-129755164D02*
X144559436Y-133166800D01*
X141147800Y-124587000D02*
X141147800Y-129755164D01*
D71*
X147625400Y-128421800D02*
X148805900Y-127241300D01*
X148805900Y-127241300D02*
X154584400Y-121462800D01*
D64*
X148805900Y-131483100D02*
X148805900Y-127241300D01*
X148879200Y-72882400D02*
X151358600Y-75361800D01*
X145796000Y-72882400D02*
X148879200Y-72882400D01*
%TO.N,RX*%
X184992422Y-103409200D02*
X185909800Y-103409200D01*
X183525022Y-104876600D02*
X184992422Y-103409200D01*
X179730400Y-104876600D02*
X183525022Y-104876600D01*
%TO.N,TX*%
X184982300Y-103009200D02*
X185909800Y-103009200D01*
X184451100Y-103540400D02*
X184982300Y-103009200D01*
X182661400Y-103540400D02*
X184451100Y-103540400D01*
X181889400Y-102768400D02*
X182661400Y-103540400D01*
%TO.N,GPIO131*%
X188442600Y-99009200D02*
X185909800Y-99009200D01*
X188758804Y-99325404D02*
X188442600Y-99009200D01*
X188758804Y-99869258D02*
X188758804Y-99325404D01*
D67*
%TO.N,GP1O007*%
X184742000Y-97239500D02*
X184742000Y-98315600D01*
X184742000Y-98315600D02*
X183248400Y-99809200D01*
X184972300Y-97009200D02*
X184742000Y-97239500D01*
X185909800Y-97009200D02*
X184972300Y-97009200D01*
%TO.N,Net-(IC1-GPIO150{slash}KSI5{slash}RI#)*%
X181700200Y-63507800D02*
X191950800Y-63507800D01*
X181484456Y-63723544D02*
X181700200Y-63507800D01*
X181484456Y-80196112D02*
X181484456Y-63723544D01*
X184888200Y-96366000D02*
X184888200Y-83599856D01*
X184342000Y-96912200D02*
X184888200Y-96366000D01*
X184342000Y-97419550D02*
X184342000Y-96912200D01*
X191950800Y-63507800D02*
X192414900Y-63043700D01*
X181171800Y-99085400D02*
X182676150Y-99085400D01*
X182676150Y-99085400D02*
X184342000Y-97419550D01*
X181171800Y-95471200D02*
X181171800Y-99085400D01*
D63*
X192707800Y-55475600D02*
X192707800Y-54784900D01*
D67*
X184888200Y-83599856D02*
X181484456Y-80196112D01*
D63*
%TO.N,GP1O007*%
X171371300Y-101009200D02*
X170433800Y-101009200D01*
X171421300Y-100959200D02*
X171371300Y-101009200D01*
X171371300Y-100209200D02*
X171421300Y-100259200D01*
X170433800Y-100209200D02*
X171371300Y-100209200D01*
X171421300Y-100259200D02*
X171421300Y-100959200D01*
D64*
X172097800Y-99809200D02*
X170433800Y-99809200D01*
X172237400Y-99669600D02*
X172097800Y-99809200D01*
X179321768Y-103632000D02*
X177596800Y-103632000D01*
X181533800Y-101419968D02*
X179321768Y-103632000D01*
X181533800Y-100939600D02*
X181533800Y-101419968D01*
X183235600Y-99822000D02*
X183248400Y-99809200D01*
X185909800Y-99809200D02*
X183248400Y-99809200D01*
%TO.N,GND*%
X183978200Y-101809200D02*
X183667400Y-101498400D01*
X185909800Y-101809200D02*
X183978200Y-101809200D01*
D63*
%TO.N,Net-(IC1-GPIO144{slash}KSI1{slash}DCD#)*%
X194207800Y-50241180D02*
X195338390Y-49110590D01*
X194207800Y-50909900D02*
X194207800Y-50241180D01*
D64*
%TO.N,Net-(D5-K)*%
X194033511Y-47523400D02*
X192707800Y-48849111D01*
X195656200Y-48084432D02*
X195095168Y-47523400D01*
X192707800Y-48849111D02*
X192707800Y-50909900D01*
X196217232Y-48084432D02*
X195656200Y-48084432D01*
X196570600Y-48437800D02*
X196217232Y-48084432D01*
X195095168Y-47523400D02*
X194033511Y-47523400D01*
%TO.N,Net-(IC1-GPIO144{slash}KSI1{slash}DCD#)*%
X203379700Y-40921300D02*
X202717400Y-40259000D01*
X205943200Y-40921300D02*
X203379700Y-40921300D01*
D66*
%TO.N,GND*%
X193207800Y-49650189D02*
X193207800Y-50909900D01*
X193610469Y-49247520D02*
X193207800Y-49650189D01*
X193610469Y-48858610D02*
X193610469Y-49247520D01*
D67*
%TO.N,VCC*%
X193707800Y-49751229D02*
X193707800Y-50909900D01*
X194843400Y-48183800D02*
X194843400Y-48615629D01*
X194843400Y-48615629D02*
X193707800Y-49751229D01*
D64*
%TO.N,Net-(D5-K)*%
X208051400Y-54889400D02*
X207949800Y-54787800D01*
X208051400Y-56769000D02*
X208051400Y-54889400D01*
%TO.N,SHD_CS1*%
X154051000Y-100800762D02*
X153324662Y-101527100D01*
X154051000Y-100711000D02*
X154051000Y-100800762D01*
X153324662Y-101527100D02*
X149406100Y-101527100D01*
D71*
X149130000Y-101803200D02*
X149406100Y-101527100D01*
X149406100Y-101527100D02*
X153473400Y-97459800D01*
D64*
X164211000Y-98882200D02*
X163042600Y-97713800D01*
X167487600Y-98882200D02*
X164211000Y-98882200D01*
X174371800Y-110019700D02*
X173318100Y-108966000D01*
X173318100Y-108966000D02*
X172745400Y-108966000D01*
X174371800Y-110947200D02*
X174371800Y-110019700D01*
%TO.N,RST*%
X178371800Y-110019700D02*
X178371800Y-110947200D01*
X177828332Y-109476232D02*
X178371800Y-110019700D01*
X177215800Y-109476232D02*
X177828332Y-109476232D01*
X175765768Y-108026200D02*
X177215800Y-109476232D01*
X173964600Y-108026200D02*
X175765768Y-108026200D01*
X145005704Y-127176800D02*
X145873200Y-127176800D01*
X144276400Y-127906104D02*
X145005704Y-127176800D01*
X145873200Y-127176800D02*
X150520400Y-122529600D01*
X145005704Y-129666800D02*
X144276400Y-128937496D01*
X147292568Y-129666800D02*
X145005704Y-129666800D01*
X145821400Y-131137968D02*
X147292568Y-129666800D01*
X144276400Y-128937496D02*
X144276400Y-127906104D01*
X145821400Y-131921800D02*
X145821400Y-131137968D01*
%TO.N,5V_USB*%
X184759600Y-123464938D02*
X184342731Y-123048069D01*
X184759600Y-124750400D02*
X184759600Y-123464938D01*
%TO.N,GPIO003*%
X177370432Y-99339400D02*
X180187600Y-99339400D01*
X175171800Y-97140768D02*
X177370432Y-99339400D01*
X175171800Y-95471200D02*
X175171800Y-97140768D01*
%TO.N,GPIO036*%
X174771800Y-98495600D02*
X174771800Y-95471200D01*
X174980600Y-98704400D02*
X174771800Y-98495600D01*
X175666400Y-98704400D02*
X174980600Y-98704400D01*
X179501800Y-102539800D02*
X175666400Y-98704400D01*
D67*
%TO.N,VCC*%
X174371800Y-101269000D02*
X174371800Y-95471200D01*
X173685200Y-101955600D02*
X174371800Y-101269000D01*
D64*
%TO.N,GPIO003*%
X204698600Y-116560600D02*
X201218800Y-113080800D01*
X204698600Y-131207200D02*
X204698600Y-116560600D01*
X207306200Y-133814800D02*
X204698600Y-131207200D01*
X207721200Y-133814800D02*
X207306200Y-133814800D01*
%TO.N,GPIO004*%
X175571800Y-96628600D02*
X175895000Y-96951800D01*
X175571800Y-95471200D02*
X175571800Y-96628600D01*
X196390568Y-99771200D02*
X192684400Y-99771200D01*
X200458200Y-103838832D02*
X196390568Y-99771200D01*
X200458200Y-108907642D02*
X200458200Y-103838832D01*
X208991200Y-117440642D02*
X200458200Y-108907642D01*
X208991200Y-131114800D02*
X208991200Y-117440642D01*
%TO.N,GPIO036*%
X191348200Y-99451000D02*
X190677800Y-98780600D01*
X193667000Y-104433078D02*
X191348200Y-102114278D01*
X198897442Y-104433078D02*
X193667000Y-104433078D01*
X200168200Y-105703836D02*
X198897442Y-104433078D01*
X200168200Y-109027764D02*
X200168200Y-105703836D01*
X206451200Y-115310764D02*
X200168200Y-109027764D01*
X206451200Y-131114800D02*
X206451200Y-115310764D01*
X191348200Y-102114278D02*
X191348200Y-99451000D01*
%TO.N,GPIO131*%
X190728600Y-101904800D02*
X190703200Y-101904800D01*
X193377000Y-104553200D02*
X190728600Y-101904800D01*
X193377000Y-108307164D02*
X193377000Y-104553200D01*
X203911200Y-118841364D02*
X193377000Y-108307164D01*
X203911200Y-131114800D02*
X203911200Y-118841364D01*
%TO.N,GPIO165*%
X171714733Y-106364467D02*
X171768751Y-106364467D01*
X170433800Y-106609200D02*
X171470000Y-106609200D01*
X171470000Y-106609200D02*
X171714733Y-106364467D01*
%TO.N,GPIO166*%
X173559200Y-107009200D02*
X170433800Y-107009200D01*
X174904400Y-105664000D02*
X173559200Y-107009200D01*
X182295800Y-105664000D02*
X174904400Y-105664000D01*
%TO.N,GPIO165*%
X200101200Y-130733800D02*
X198272400Y-128905000D01*
X200101200Y-133814800D02*
X200101200Y-130733800D01*
%TO.N,Net-(IC1-GPIO123{slash}SHD_CS0#[BSS_STRAP])*%
X168046400Y-106883200D02*
X167721000Y-106883200D01*
X168579800Y-106883200D02*
X168046400Y-106883200D01*
X169105800Y-107409200D02*
X168579800Y-106883200D01*
X170433800Y-107409200D02*
X169105800Y-107409200D01*
D63*
%TO.N,PVT_2*%
X159461200Y-88112600D02*
X161010600Y-86563200D01*
X155772166Y-88112600D02*
X159461200Y-88112600D01*
X154632800Y-89251966D02*
X155772166Y-88112600D01*
X154632800Y-93434234D02*
X154632800Y-89251966D01*
X155341166Y-94142600D02*
X154632800Y-93434234D01*
X159574634Y-94142600D02*
X155341166Y-94142600D01*
X159574634Y-99330673D02*
X159574634Y-94142600D01*
X162052000Y-107416600D02*
X161264600Y-106629200D01*
X161264600Y-101020639D02*
X159574634Y-99330673D01*
X166080800Y-106943800D02*
X165608000Y-107416600D01*
X167267334Y-106209200D02*
X166532734Y-106943800D01*
X165608000Y-107416600D02*
X162052000Y-107416600D01*
X170433800Y-106209200D02*
X167267334Y-106209200D01*
X166532734Y-106943800D02*
X166080800Y-106943800D01*
X161264600Y-106629200D02*
X161264600Y-101020639D01*
D64*
%TO.N,Net-(IC1-GPIO123{slash}SHD_CS0#[BSS_STRAP])*%
X166065200Y-115417600D02*
X167386000Y-114096800D01*
X167386000Y-114096800D02*
X167187600Y-114096800D01*
X165804600Y-115417600D02*
X166065200Y-115417600D01*
D71*
X165804600Y-115417600D02*
X165804600Y-110540800D01*
X165804600Y-116177310D02*
X165804600Y-115417600D01*
D64*
%TO.N,VCC*%
X163804600Y-112064800D02*
X163982400Y-112242600D01*
X163804600Y-110540800D02*
X163804600Y-112064800D01*
%TO.N,Net-(IC1-GPIO126{slash}SHD_SCLK)*%
X168542000Y-109309200D02*
X168767600Y-109309200D01*
X170433800Y-109409200D02*
X168642000Y-109409200D01*
X168642000Y-109409200D02*
X168542000Y-109309200D01*
%TO.N,GPIO166*%
X195300600Y-128803400D02*
X190830200Y-124333000D01*
X195300600Y-129235200D02*
X195300600Y-128803400D01*
X196951600Y-129235200D02*
X195300600Y-129235200D01*
X198831200Y-131114800D02*
X196951600Y-129235200D01*
%TO.N,TACH0*%
X174253920Y-112392580D02*
X174771800Y-111874700D01*
X174771800Y-111874700D02*
X174771800Y-110947200D01*
X173916220Y-112392580D02*
X174253920Y-112392580D01*
X172364400Y-114630200D02*
X172289316Y-114555116D01*
X171069000Y-115925600D02*
X172364400Y-114630200D01*
X171069000Y-116750700D02*
X171069000Y-115925600D01*
%TO.N,Net-(IC1-VR_CAP)*%
X162504200Y-106938800D02*
X165011200Y-106938800D01*
X161838800Y-106273400D02*
X162504200Y-106938800D01*
X165011200Y-106938800D02*
X165981200Y-105968800D01*
X161838800Y-105447932D02*
X161838800Y-106273400D01*
X162427269Y-104859463D02*
X161838800Y-105447932D01*
X168033700Y-102336600D02*
X165709600Y-102336600D01*
X169506300Y-103809200D02*
X168033700Y-102336600D01*
X170433800Y-103809200D02*
X169506300Y-103809200D01*
%TO.N,GPIO20*%
X169384106Y-104609200D02*
X170433800Y-104609200D01*
X168603027Y-103828121D02*
X169384106Y-104609200D01*
X184505600Y-136474200D02*
X184505600Y-136712800D01*
X184744200Y-136712800D02*
X184505600Y-136474200D01*
X194663200Y-136712800D02*
X184744200Y-136712800D01*
X197561200Y-133814800D02*
X194663200Y-136712800D01*
%TO.N,GPIO21*%
X169271200Y-105009200D02*
X170433800Y-105009200D01*
X168973825Y-104711825D02*
X169271200Y-105009200D01*
X168134975Y-104711825D02*
X168973825Y-104711825D01*
X194483200Y-136067800D02*
X180086000Y-136067800D01*
X196291200Y-134259800D02*
X194483200Y-136067800D01*
X196291200Y-131114800D02*
X196291200Y-134259800D01*
%TO.N,GPIO105*%
X195021200Y-130149600D02*
X195021200Y-133814800D01*
X188961200Y-124089600D02*
X195021200Y-130149600D01*
X188961200Y-120903400D02*
X188961200Y-124089600D01*
X190306800Y-119557800D02*
X188961200Y-120903400D01*
%TO.N,GPIO106*%
X192278000Y-129108200D02*
X193751200Y-130581400D01*
X193751200Y-130581400D02*
X193751200Y-131114800D01*
%TO.N,GPIO107*%
X188671200Y-118618000D02*
X188823600Y-118465600D01*
X190564000Y-128752600D02*
X190564000Y-128054600D01*
X192481200Y-130669800D02*
X190564000Y-128752600D01*
X188671200Y-126161800D02*
X188671200Y-118618000D01*
X192481200Y-133814800D02*
X192481200Y-130669800D01*
X190564000Y-128054600D02*
X188671200Y-126161800D01*
%TO.N,GPIO110*%
X185012666Y-105809200D02*
X185909800Y-105809200D01*
X184554158Y-106267708D02*
X185012666Y-105809200D01*
X184554158Y-106868732D02*
X184554158Y-106267708D01*
X189371200Y-127881522D02*
X188000200Y-126510522D01*
X188000200Y-126510522D02*
X188000200Y-115483200D01*
X189371200Y-134959800D02*
X189371200Y-127881522D01*
X190511200Y-134959800D02*
X189371200Y-134959800D01*
X191211200Y-134259800D02*
X190511200Y-134959800D01*
X191211200Y-131114800D02*
X191211200Y-134259800D01*
X188000200Y-115483200D02*
X186131200Y-113614200D01*
%TO.N,GPIO111*%
X185002544Y-105409200D02*
X185909800Y-105409200D01*
X183749232Y-107462112D02*
X183749232Y-106662512D01*
X183749232Y-106662512D02*
X185002544Y-105409200D01*
X188290200Y-126390400D02*
X188290200Y-114198400D01*
X188290200Y-114198400D02*
X185572400Y-111480600D01*
X189941200Y-128041400D02*
X188290200Y-126390400D01*
X189941200Y-133814800D02*
X189941200Y-128041400D01*
%TO.N,GPIO112*%
X183057800Y-106943822D02*
X184992422Y-105009200D01*
X183104232Y-107158232D02*
X183057800Y-107111800D01*
X183104232Y-108335368D02*
X183104232Y-107158232D01*
X183083200Y-108356400D02*
X183104232Y-108335368D01*
X183057800Y-107111800D02*
X183057800Y-106943822D01*
X184992422Y-105009200D02*
X185909800Y-105009200D01*
X188671200Y-129438400D02*
X188391800Y-129159000D01*
X188671200Y-131114800D02*
X188671200Y-129438400D01*
%TO.N,GPIO113*%
X184982300Y-104609200D02*
X185909800Y-104609200D01*
X182459232Y-107132268D02*
X184982300Y-104609200D01*
X182459232Y-107512314D02*
X182459232Y-107132268D01*
X187401200Y-128828800D02*
X187416382Y-128843980D01*
X187401200Y-133814800D02*
X187401200Y-128828800D01*
%TO.N,GPIO114*%
X184850178Y-104209200D02*
X185909800Y-104209200D01*
X181795178Y-107264200D02*
X184850178Y-104209200D01*
X178587400Y-107264200D02*
X181795178Y-107264200D01*
X186705237Y-129555237D02*
X186705248Y-129555237D01*
X186131200Y-129997200D02*
X186639200Y-129489200D01*
X186131200Y-131114800D02*
X186131200Y-129997200D01*
X186639200Y-129489200D02*
X186705237Y-129555237D01*
%TO.N,GPIO167*%
X178694400Y-112341978D02*
X179171800Y-111864578D01*
X179171800Y-111864578D02*
X179171800Y-110947200D01*
X178694400Y-112496600D02*
X178694400Y-112341978D01*
X180898800Y-134107400D02*
X180898800Y-133604000D01*
X181751200Y-134959800D02*
X180898800Y-134107400D01*
X183716200Y-134959800D02*
X181751200Y-134959800D01*
X184861200Y-133814800D02*
X183716200Y-134959800D01*
%TO.N,GPIO026*%
X179571800Y-111874700D02*
X179571800Y-110947200D01*
X179339400Y-112107100D02*
X179571800Y-111874700D01*
X179339400Y-115382200D02*
X179339400Y-112107100D01*
X179527200Y-115570000D02*
X179339400Y-115382200D01*
X183591200Y-130962400D02*
X184501770Y-130051830D01*
X183591200Y-131114800D02*
X183591200Y-130962400D01*
X184501770Y-130051830D02*
X184370537Y-130051830D01*
%TO.N,GPIO061*%
X179971800Y-113093600D02*
X179971800Y-110947200D01*
X179984400Y-113106200D02*
X179971800Y-113093600D01*
X176474150Y-129265650D02*
X176474150Y-129372763D01*
X176671200Y-129452600D02*
X176479200Y-129260600D01*
X176671200Y-134959800D02*
X176671200Y-129452600D01*
X178913394Y-132559800D02*
X177811200Y-133661994D01*
X176479200Y-129260600D02*
X176474150Y-129265650D01*
X177811200Y-133661994D02*
X177811200Y-134959800D01*
X177811200Y-134959800D02*
X176671200Y-134959800D01*
X181066200Y-132559800D02*
X178913394Y-132559800D01*
X182321200Y-133814800D02*
X181066200Y-132559800D01*
%TO.N,SPI_2*%
X174976385Y-112470115D02*
X175571800Y-111874700D01*
X175571800Y-111874700D02*
X175571800Y-110947200D01*
X174976385Y-112745782D02*
X174976385Y-112470115D01*
X181610000Y-131114800D02*
X182448200Y-130276600D01*
X181051200Y-131114800D02*
X181610000Y-131114800D01*
%TO.N,PWM3*%
X177571800Y-113572400D02*
X177571800Y-110947200D01*
X177816800Y-113817400D02*
X177571800Y-113572400D01*
X173635203Y-129438400D02*
X173431601Y-129234798D01*
X174294800Y-129438400D02*
X173635203Y-129438400D01*
X175971200Y-131114800D02*
X174294800Y-129438400D01*
D69*
%TO.N,Net-(J6-Pin_1)*%
X156528400Y-131026800D02*
X156528400Y-129296000D01*
X166878000Y-133553200D02*
X159054800Y-133553200D01*
X171958000Y-128168400D02*
X166878000Y-133553200D01*
X159054800Y-133553200D02*
X156528400Y-131026800D01*
X184932400Y-128752600D02*
X171958000Y-128168400D01*
X186659600Y-127025400D02*
X184932400Y-128752600D01*
D64*
%TO.N,PWM2*%
X177171800Y-114941196D02*
X177171800Y-110947200D01*
X177520902Y-115290298D02*
X177171800Y-114941196D01*
X171170600Y-135001000D02*
X169849800Y-133680200D01*
X173515000Y-135001000D02*
X171170600Y-135001000D01*
X169849800Y-133680200D02*
X169849800Y-133604000D01*
X174701200Y-133814800D02*
X173515000Y-135001000D01*
%TO.N,PWM0*%
X176371800Y-112764584D02*
X176371800Y-110947200D01*
X175683494Y-113452890D02*
X176371800Y-112764584D01*
X172161200Y-132969000D02*
X170764200Y-131572000D01*
X172161200Y-133814800D02*
X172161200Y-132969000D01*
%TO.N,PWM1*%
X176771800Y-113778800D02*
X176771800Y-110947200D01*
X176390602Y-114159998D02*
X176771800Y-113778800D01*
X172872400Y-131114800D02*
X172212000Y-130454400D01*
X173431200Y-131114800D02*
X172872400Y-131114800D01*
%TO.N,TX*%
X191738068Y-56794400D02*
X191714900Y-56817568D01*
X191744600Y-56794400D02*
X191738068Y-56794400D01*
X191744600Y-55660599D02*
X191744600Y-56794400D01*
X192207800Y-55197399D02*
X191744600Y-55660599D01*
X192207800Y-54784900D02*
X192207800Y-55197399D01*
%TO.N,Net-(IC1-GPIO144{slash}KSI1{slash}DCD#)*%
X190316084Y-54095884D02*
X190402284Y-54095884D01*
X190296800Y-54076600D02*
X190316084Y-54095884D01*
X190526000Y-53847400D02*
X190296800Y-54076600D01*
X191270300Y-53847400D02*
X190526000Y-53847400D01*
%TO.N,Net-(IC1-GPIO151{slash}KSI6{slash}RTS#)*%
X180371800Y-97351800D02*
X180111400Y-97612200D01*
X180371800Y-95471200D02*
X180371800Y-97351800D01*
%TO.N,Net-(IC1-GPIO152{slash}KSI7{slash}CTS#)*%
X195598400Y-54300500D02*
X195145300Y-53847400D01*
X195598400Y-55045296D02*
X195598400Y-54300500D01*
X180221800Y-92998200D02*
X180221800Y-93075352D01*
X179971800Y-93078200D02*
X180136800Y-92913200D01*
X180136800Y-92913200D02*
X180221800Y-92998200D01*
X179971800Y-95471200D02*
X179971800Y-93078200D01*
D63*
%TO.N,ADC4*%
X188214000Y-79578200D02*
X188595000Y-79197200D01*
X188214000Y-80377800D02*
X188214000Y-79578200D01*
D71*
X188595000Y-79197200D02*
X192330700Y-79197200D01*
X184531000Y-79197200D02*
X188595000Y-79197200D01*
D63*
X179603400Y-92151200D02*
X179821800Y-92151200D01*
X179571800Y-92182800D02*
X179603400Y-92151200D01*
X179571800Y-95471200D02*
X179571800Y-92182800D01*
%TO.N,ADC3*%
X188417200Y-75671200D02*
X187401200Y-76687200D01*
D71*
X187401200Y-76687200D02*
X191310100Y-76687200D01*
X184531000Y-76687200D02*
X187401200Y-76687200D01*
D63*
X188417200Y-75539600D02*
X188417200Y-75671200D01*
X179171800Y-91795400D02*
X179959000Y-91008200D01*
X179171800Y-95471200D02*
X179171800Y-91795400D01*
%TO.N,ADC2*%
X186385200Y-74253400D02*
X186461400Y-74177200D01*
D71*
X186461400Y-74177200D02*
X190365700Y-74177200D01*
D63*
X186385200Y-75463400D02*
X186385200Y-74253400D01*
D71*
X184531000Y-74177200D02*
X186461400Y-74177200D01*
D63*
X178771800Y-90138000D02*
X180009800Y-88900000D01*
X178771800Y-95471200D02*
X178771800Y-90138000D01*
%TO.N,ADC1*%
X194997700Y-66421000D02*
X192330700Y-69088000D01*
X196138800Y-66421000D02*
X194997700Y-66421000D01*
X178358800Y-94146700D02*
X178358800Y-89077800D01*
X177971800Y-94533700D02*
X178358800Y-94146700D01*
X177971800Y-95471200D02*
X177971800Y-94533700D01*
D71*
%TO.N,ADC0*%
X185267600Y-69607000D02*
X186936800Y-69607000D01*
D63*
X182880000Y-66827400D02*
X185267600Y-69215000D01*
D71*
X184745200Y-69607000D02*
X185267600Y-69607000D01*
D63*
X185267600Y-69215000D02*
X185267600Y-69607000D01*
X178206400Y-77413030D02*
X178206400Y-70002400D01*
X182019600Y-81226230D02*
X178206400Y-77413030D01*
X182019600Y-84255034D02*
X182019600Y-81226230D01*
X177571800Y-88702834D02*
X182019600Y-84255034D01*
X177571800Y-95471200D02*
X177571800Y-88702834D01*
%TO.N,PVT_0*%
X161121600Y-81568800D02*
X161121600Y-80848200D01*
X162433000Y-82880200D02*
X161121600Y-81568800D01*
X169633400Y-103009200D02*
X167944800Y-101320600D01*
X170433800Y-103009200D02*
X169633400Y-103009200D01*
%TO.N,PVT_1*%
X161925000Y-84302600D02*
X160985200Y-84302600D01*
X163169600Y-85547200D02*
X161925000Y-84302600D01*
%TO.N,GP1O007*%
X170433800Y-100209200D02*
X170433800Y-99809200D01*
X170433800Y-101409200D02*
X170433800Y-101009200D01*
%TO.N,VCC*%
X171896112Y-104209200D02*
X171944930Y-104258018D01*
X170433800Y-104209200D02*
X171896112Y-104209200D01*
%TO.N,SPI_3*%
X179781200Y-134416800D02*
X179781200Y-133814800D01*
X177139600Y-137058400D02*
X179781200Y-134416800D01*
X157022800Y-137058400D02*
X177139600Y-137058400D01*
X154584400Y-134620000D02*
X157022800Y-137058400D01*
X154584400Y-127770000D02*
X154584400Y-134620000D01*
X160241600Y-122112800D02*
X154584400Y-127770000D01*
X160806200Y-122112800D02*
X160241600Y-122112800D01*
X171971800Y-110947200D02*
X160806200Y-122112800D01*
D66*
%TO.N,GND*%
X167757600Y-67827400D02*
X167716200Y-67868800D01*
X169420600Y-67827400D02*
X167757600Y-67827400D01*
%TO.N,VCC*%
X171170600Y-66827400D02*
X173380400Y-66827400D01*
D63*
X189051600Y-102767800D02*
X188950600Y-102666800D01*
X189051600Y-103911400D02*
X189051600Y-102767800D01*
X195496000Y-102760600D02*
X196062600Y-103327200D01*
X194233800Y-102760600D02*
X195496000Y-102760600D01*
X193282900Y-94499100D02*
X192125600Y-95656400D01*
X194665600Y-94499100D02*
X193282900Y-94499100D01*
X184258400Y-102609200D02*
X183972200Y-102895400D01*
X185909800Y-102609200D02*
X184258400Y-102609200D01*
X171723000Y-98609200D02*
X171881800Y-98450400D01*
X170433800Y-98609200D02*
X171723000Y-98609200D01*
%TO.N,GND*%
X172003000Y-103409200D02*
X172135800Y-103276400D01*
X170433800Y-103409200D02*
X172003000Y-103409200D01*
%TO.N,VCC*%
X181436100Y-90039100D02*
X181584600Y-89890600D01*
X181436100Y-91516200D02*
X181436100Y-90039100D01*
%TO.N,GND*%
X183171800Y-96659400D02*
X183642000Y-97129600D01*
X183171800Y-95471200D02*
X183171800Y-96659400D01*
%TO.N,VCC*%
X181971800Y-96856400D02*
X182270400Y-97155000D01*
X181971800Y-95471200D02*
X181971800Y-96856400D01*
X175023600Y-89781200D02*
X174853600Y-89611200D01*
X175023600Y-91592400D02*
X175023600Y-89781200D01*
D67*
%TO.N,GND*%
X178371800Y-96685400D02*
X178714400Y-97028000D01*
X178371800Y-95471200D02*
X178371800Y-96685400D01*
X177171800Y-96806200D02*
X177469800Y-97104200D01*
X177171800Y-95471200D02*
X177171800Y-96806200D01*
X173571800Y-96760400D02*
X173456600Y-96875600D01*
X173571800Y-95471200D02*
X173571800Y-96760400D01*
%TO.N,VCC*%
X156286200Y-97459800D02*
X156870400Y-96875600D01*
X155473400Y-97459800D02*
X156286200Y-97459800D01*
X163914000Y-102522200D02*
X163728400Y-102336600D01*
X163914000Y-103759000D02*
X163914000Y-102522200D01*
X160473300Y-99310100D02*
X160909000Y-99745800D01*
X160473300Y-98145600D02*
X160473300Y-99310100D01*
X184694800Y-109409200D02*
X184404000Y-109118400D01*
X185909800Y-109409200D02*
X184694800Y-109409200D01*
X189915800Y-109558000D02*
X189915800Y-108305600D01*
X175971800Y-109144400D02*
X175971200Y-109143800D01*
X175971800Y-110947200D02*
X175971800Y-109144400D01*
X180371800Y-109391400D02*
X180390800Y-109372400D01*
X180371800Y-110947200D02*
X180371800Y-109391400D01*
X182880000Y-116611400D02*
X182759300Y-116611400D01*
X182829200Y-116560600D02*
X182880000Y-116611400D01*
X181871800Y-116560600D02*
X182829200Y-116560600D01*
X178384200Y-116967000D02*
X178689000Y-116662200D01*
X177107600Y-116967000D02*
X178384200Y-116967000D01*
D71*
X188744200Y-46459800D02*
X188214000Y-46990000D01*
X190855600Y-46459800D02*
X188744200Y-46459800D01*
X177673000Y-59359800D02*
X177292000Y-59740800D01*
X179206700Y-59359800D02*
X177673000Y-59359800D01*
X173050200Y-63322200D02*
X172567600Y-62839600D01*
X174271800Y-63322200D02*
X173050200Y-63322200D01*
X166065200Y-54127400D02*
X165582600Y-54610000D01*
X167308400Y-54127400D02*
X166065200Y-54127400D01*
X163273200Y-57708800D02*
X164109400Y-57708800D01*
X162228400Y-56664000D02*
X163273200Y-57708800D01*
X185927000Y-45059600D02*
X179627000Y-45059600D01*
X190855600Y-43484800D02*
X190855600Y-46459800D01*
X189280800Y-45059600D02*
X190855600Y-43484800D01*
X185927000Y-45059600D02*
X189280800Y-45059600D01*
D66*
%TO.N,GND*%
X200986300Y-52396300D02*
X200456800Y-51866800D01*
X202082400Y-52396300D02*
X200986300Y-52396300D01*
X154496185Y-73749585D02*
X154446125Y-73749585D01*
X154508200Y-73761600D02*
X154496185Y-73749585D01*
X154446200Y-73823600D02*
X154508200Y-73761600D01*
X155856400Y-72366600D02*
X155778200Y-72288400D01*
X155856400Y-72974200D02*
X155856400Y-72366600D01*
X167919400Y-89839800D02*
X168173400Y-89585800D01*
X166442300Y-89839800D02*
X167919400Y-89839800D01*
X172948600Y-90424000D02*
X173329600Y-90043000D01*
X172948600Y-91592400D02*
X172948600Y-90424000D01*
X191770000Y-103911400D02*
X191795400Y-103886000D01*
X190601600Y-103911400D02*
X191770000Y-103911400D01*
X184396800Y-114612000D02*
X184396800Y-110947200D01*
X183946800Y-115062000D02*
X184396800Y-114612000D01*
X166528400Y-124416300D02*
X171069000Y-119875700D01*
X166528400Y-129296000D02*
X166528400Y-124416300D01*
X183195200Y-68468000D02*
X183286400Y-68376800D01*
X183195200Y-69607000D02*
X183195200Y-68468000D01*
X182981000Y-72084600D02*
X183743600Y-72847200D01*
X182981000Y-71667200D02*
X182981000Y-72084600D01*
X182981000Y-73609800D02*
X183743600Y-72847200D01*
X182981000Y-74177200D02*
X182981000Y-73609800D01*
X182981000Y-76556200D02*
X183997600Y-75539600D01*
X182981000Y-76687200D02*
X182981000Y-76556200D01*
X182981000Y-79425200D02*
X184200800Y-80645000D01*
X182981000Y-79197200D02*
X182981000Y-79425200D01*
X184226200Y-84988400D02*
X184188200Y-84988400D01*
X183257100Y-84019300D02*
X184226200Y-84988400D01*
X183257100Y-83566000D02*
X183257100Y-84019300D01*
X187550800Y-60839400D02*
X187550800Y-62407800D01*
X182853200Y-56141800D02*
X187550800Y-60839400D01*
%TO.N,Net-(R15-Pad2)*%
X159084000Y-115468400D02*
X159388800Y-115163600D01*
X157200600Y-115468400D02*
X159084000Y-115468400D01*
%TO.N,GND*%
X168172500Y-59008100D02*
X172820200Y-59008100D01*
X162228400Y-53064000D02*
X168172500Y-59008100D01*
X160806600Y-42926000D02*
X160806600Y-51642200D01*
X160806600Y-51642200D02*
X162228400Y-53064000D01*
X173455200Y-43130600D02*
X173913800Y-42672000D01*
X173455200Y-44936000D02*
X173455200Y-43130600D01*
X178220400Y-42759600D02*
X177546000Y-43434000D01*
X179627000Y-42759600D02*
X178220400Y-42759600D01*
X197077200Y-45854600D02*
X198277200Y-45854600D01*
X196077200Y-44854600D02*
X197077200Y-45854600D01*
X196077200Y-43154600D02*
X196077200Y-44854600D01*
X203077200Y-43154600D02*
X203077200Y-44854600D01*
X203077200Y-44854600D02*
X202077200Y-45854600D01*
X200577200Y-43154600D02*
X203077200Y-43154600D01*
X198577200Y-43154600D02*
X200577200Y-43154600D01*
X198577200Y-43154600D02*
X196677200Y-43154600D01*
X197793700Y-50372100D02*
X197129400Y-49707800D01*
X198602600Y-50372100D02*
X197793700Y-50372100D01*
X193207800Y-52847400D02*
X193207800Y-50909900D01*
X193207800Y-52847400D02*
X193207800Y-54784900D01*
X177088800Y-63322200D02*
X177520600Y-62890400D01*
X176096800Y-63322200D02*
X177088800Y-63322200D01*
X174976700Y-59008100D02*
X175945800Y-58039000D01*
X172820200Y-59008100D02*
X174976700Y-59008100D01*
X194589400Y-82727800D02*
X195529200Y-81788000D01*
X193006900Y-82727800D02*
X194589400Y-82727800D01*
X200126600Y-93914900D02*
X200126600Y-93243400D01*
X198932800Y-95108700D02*
X200126600Y-93914900D01*
X192024000Y-90097700D02*
X192024000Y-89509600D01*
X190707100Y-91414600D02*
X192024000Y-90097700D01*
X196392800Y-100685600D02*
X196773800Y-101066600D01*
X194233800Y-100685600D02*
X196392800Y-100685600D01*
X205105000Y-107365800D02*
X205333600Y-107137200D01*
X203635700Y-107365800D02*
X205105000Y-107365800D01*
X189915800Y-111633000D02*
X191617600Y-111633000D01*
X190550800Y-116611400D02*
X190779400Y-116382800D01*
X189331600Y-116611400D02*
X190550800Y-116611400D01*
X183946800Y-116560600D02*
X183946800Y-115062000D01*
X172732300Y-119875700D02*
X172745400Y-119862600D01*
X171069000Y-119875700D02*
X172732300Y-119875700D01*
X185380400Y-121437400D02*
X184556400Y-121437400D01*
X180179800Y-121318200D02*
X180187600Y-121310400D01*
X180179800Y-122707400D02*
X180179800Y-121318200D01*
X158398300Y-96701700D02*
X158394400Y-96697800D01*
X158398300Y-98145600D02*
X158398300Y-96701700D01*
X163906200Y-105968800D02*
X162483800Y-105968800D01*
X165989000Y-103759000D02*
X167386000Y-103759000D01*
X165920600Y-80729000D02*
X165912800Y-80721200D01*
X165920600Y-82118200D02*
X165920600Y-80729000D01*
X171653200Y-73914000D02*
X172008800Y-73558400D01*
X169240200Y-73914000D02*
X171653200Y-73914000D01*
D67*
%TO.N,PVT_3*%
X168242400Y-105809200D02*
X170433800Y-105809200D01*
X167335200Y-104902000D02*
X168242400Y-105809200D01*
X163459756Y-104902000D02*
X167335200Y-104902000D01*
X162128200Y-103570444D02*
X163459756Y-104902000D01*
X162128200Y-98044000D02*
X162128200Y-103570444D01*
X160110600Y-96026400D02*
X162128200Y-98044000D01*
X160110600Y-90892200D02*
X160110600Y-96026400D01*
X161061400Y-89941400D02*
X160110600Y-90892200D01*
%TO.N,Net-(IC1-GPIO133{slash}SHD_IO0)*%
X160375600Y-106756200D02*
X161428600Y-107809200D01*
X161428600Y-107809200D02*
X170433800Y-107809200D01*
%TO.N,Net-(IC1-GPIO134{slash}SHD_IO1)*%
X163342200Y-108209200D02*
X170433800Y-108209200D01*
X161086800Y-110464600D02*
X163342200Y-108209200D01*
%TO.N,Net-(IC1-GPIO135{slash}SHD_IO2[PRG_STRAP])*%
X162904600Y-113472800D02*
X162904600Y-109815200D01*
X162904600Y-109815200D02*
X164110600Y-108609200D01*
X161213800Y-115163600D02*
X162904600Y-113472800D01*
X164110600Y-108609200D02*
X170433800Y-108609200D01*
%TO.N,Net-(IC1-GPIO136{slash}SHD_IO3)*%
X164904600Y-115155800D02*
X161467800Y-118592600D01*
X164904600Y-109847200D02*
X164904600Y-115155800D01*
X165227000Y-109524800D02*
X164904600Y-109847200D01*
X166954200Y-109524800D02*
X165227000Y-109524800D01*
X171881800Y-109626400D02*
X170916600Y-110591600D01*
X171594800Y-109009200D02*
X171881800Y-109296200D01*
X171881800Y-109296200D02*
X171881800Y-109626400D01*
X170433800Y-109009200D02*
X171594800Y-109009200D01*
X168021000Y-110591600D02*
X166954200Y-109524800D01*
X170916600Y-110591600D02*
X168021000Y-110591600D01*
%TO.N,GP1O007*%
X194665600Y-97474100D02*
X194200700Y-97009200D01*
X194200700Y-97009200D02*
X185909800Y-97009200D01*
%TO.N,Net-(IC1-GPIO156{slash}LED1)*%
X182323600Y-92981900D02*
X180771800Y-94533700D01*
X180771800Y-94533700D02*
X180771800Y-95471200D01*
X182323600Y-88278600D02*
X182323600Y-92981900D01*
X183988200Y-86614000D02*
X182323600Y-88278600D01*
%TO.N,Net-(IC1-XTAL1)*%
X177715300Y-84133300D02*
X177715300Y-81965800D01*
X176809400Y-85039200D02*
X177715300Y-84133300D01*
X176809400Y-91596100D02*
X176809400Y-85039200D01*
X173971800Y-94433700D02*
X176809400Y-91596100D01*
X173971800Y-95471200D02*
X173971800Y-94433700D01*
%TO.N,Net-(IC1-XTAL2)*%
X171890300Y-93152200D02*
X171890300Y-81965800D01*
X173171800Y-94433700D02*
X171890300Y-93152200D01*
X173171800Y-95471200D02*
X173171800Y-94433700D01*
D69*
%TO.N,Net-(IC1-GPIO144{slash}KSI1{slash}DCD#)*%
X210573800Y-42121000D02*
X209473800Y-41021000D01*
X210573800Y-56935266D02*
X210573800Y-42121000D01*
X199689100Y-60266200D02*
X207242866Y-60266200D01*
X207242866Y-60266200D02*
X210573800Y-56935266D01*
X193732800Y-55619000D02*
X193732800Y-54784900D01*
X192914900Y-65267566D02*
X192914900Y-56436900D01*
X182705082Y-70482000D02*
X187700466Y-70482000D01*
X182067200Y-71119882D02*
X182705082Y-70482000D01*
X182067200Y-79648518D02*
X182067200Y-71119882D01*
X185146482Y-82727800D02*
X182067200Y-79648518D01*
X187700466Y-70482000D02*
X192914900Y-65267566D01*
X192914900Y-56436900D02*
X193732800Y-55619000D01*
X187281900Y-82727800D02*
X185146482Y-82727800D01*
D70*
%TO.N,5V_USB*%
X185979500Y-56972900D02*
X187680600Y-56972900D01*
X185394600Y-56388000D02*
X185979500Y-56972900D01*
X179627000Y-47359600D02*
X181627000Y-47359600D01*
X181627000Y-47359600D02*
X185394600Y-51127200D01*
X185394600Y-51127200D02*
X185394600Y-56388000D01*
D72*
%TO.N,Net-(D3-A)*%
X181710200Y-53009800D02*
X182853200Y-51866800D01*
X177290600Y-53009800D02*
X181710200Y-53009800D01*
%TO.N,Net-(R32-Pad2)*%
X159036000Y-89916000D02*
X159061400Y-89941400D01*
X155482800Y-89916000D02*
X159036000Y-89916000D01*
%TO.N,Net-(J5-Pin_4)*%
X153482800Y-89916000D02*
X147132400Y-89916000D01*
X147132400Y-89916000D02*
X145745200Y-91303200D01*
%TO.N,Net-(D11-A)*%
X165894000Y-93478600D02*
X165894000Y-94843600D01*
X165836600Y-93421200D02*
X165894000Y-93478600D01*
X166370000Y-92887800D02*
X165836600Y-93421200D01*
X167669300Y-92887800D02*
X166370000Y-92887800D01*
X170717300Y-89839800D02*
X167669300Y-92887800D01*
D63*
%TO.N,Net-(IC1-GPIO144{slash}KSI1{slash}DCD#)*%
X195145300Y-51000300D02*
X195145300Y-51847400D01*
X195054900Y-50909900D02*
X195145300Y-51000300D01*
X194207800Y-50909900D02*
X195054900Y-50909900D01*
D69*
%TO.N,Net-(D10-A)*%
X185988200Y-90970700D02*
X186432100Y-91414600D01*
X185988200Y-86614000D02*
X185988200Y-90970700D01*
%TO.N,Net-(IC1-XTAL1)*%
X179315500Y-83566000D02*
X181182100Y-83566000D01*
X177715300Y-81965800D02*
X179315500Y-83566000D01*
%TO.N,Net-(R16-Pad2)*%
X159363400Y-118872000D02*
X159642800Y-118592600D01*
X157403800Y-118872000D02*
X159363400Y-118872000D01*
%TO.N,Net-(R13-Pad2)*%
X158398200Y-106603800D02*
X158550600Y-106756200D01*
X156616400Y-106603800D02*
X158398200Y-106603800D01*
%TO.N,Net-(R14-Pad2)*%
X158220400Y-111506000D02*
X159261800Y-110464600D01*
X157351100Y-111506000D02*
X158220400Y-111506000D01*
%TO.N,Net-(D9-A)*%
X199081300Y-107645200D02*
X199360700Y-107365800D01*
X194532000Y-107645200D02*
X199081300Y-107645200D01*
%TO.N,5V_USB*%
X186659600Y-125412899D02*
X186659600Y-124750400D01*
X185159601Y-125812900D02*
X186259599Y-125812900D01*
X184759600Y-125412899D02*
X185159601Y-125812900D01*
X186259599Y-125812900D02*
X186659600Y-125412899D01*
X184759600Y-124750400D02*
X184759600Y-125412899D01*
D73*
%TO.N,Net-(D4-A)*%
X171600900Y-55952400D02*
X172820200Y-54733100D01*
X167308400Y-55952400D02*
X171600900Y-55952400D01*
%TO.N,Net-(IC1-GPIO144{slash}KSI1{slash}DCD#)*%
X209374100Y-40921300D02*
X209473800Y-41021000D01*
X205943200Y-40921300D02*
X209374100Y-40921300D01*
%TO.N,Net-(D6-A)*%
X205943200Y-43324600D02*
X207340200Y-44721600D01*
X205943200Y-42746300D02*
X205943200Y-43324600D01*
%TO.N,Net-(D5-A)*%
X209590200Y-42962400D02*
X209473800Y-42846000D01*
X209590200Y-50955200D02*
X209590200Y-42962400D01*
X208051400Y-52494000D02*
X209590200Y-50955200D01*
D67*
%TO.N,Net-(D6-K)*%
X206044800Y-50292000D02*
X207340200Y-48996600D01*
X206044800Y-57378600D02*
X206044800Y-50292000D01*
X206502000Y-57835800D02*
X206044800Y-57378600D01*
X206502000Y-59231444D02*
X206502000Y-57835800D01*
X205967244Y-59766200D02*
X206502000Y-59231444D01*
X200228200Y-59766200D02*
X205967244Y-59766200D01*
X196298400Y-55836400D02*
X200228200Y-59766200D01*
X196298400Y-53931400D02*
X196298400Y-55836400D01*
X195714400Y-53347400D02*
X196298400Y-53931400D01*
X195145300Y-53347400D02*
X195714400Y-53347400D01*
D65*
%TO.N,D+*%
X196281200Y-52847400D02*
X195145300Y-52847400D01*
X196748400Y-53314600D02*
X196281200Y-52847400D01*
X196748400Y-55462400D02*
X196748400Y-53314600D01*
X199909200Y-58623200D02*
X196748400Y-55462400D01*
X200609200Y-58623200D02*
X199909200Y-58623200D01*
%TO.N,D-*%
X197102000Y-52347400D02*
X195145300Y-52347400D01*
X197358000Y-55114956D02*
X197358000Y-52603400D01*
X200003744Y-57760700D02*
X197358000Y-55114956D01*
X202722300Y-57760700D02*
X200003744Y-57760700D01*
X203686400Y-58724800D02*
X202722300Y-57760700D01*
X197358000Y-52603400D02*
X197102000Y-52347400D01*
%TO.N,Net-(J1-D-)*%
X205511400Y-53750300D02*
X202082400Y-50321300D01*
X205511400Y-58724800D02*
X205511400Y-53750300D01*
%TO.N,Net-(J1-D+)*%
X200609200Y-54453700D02*
X198602600Y-52447100D01*
X200609200Y-56798200D02*
X200609200Y-54453700D01*
%TO.N,Net-(J1-D-)*%
X200994100Y-50321300D02*
X202082400Y-50321300D01*
X200227200Y-49554400D02*
X200994100Y-50321300D01*
X200227200Y-45854600D02*
X200227200Y-49554400D01*
%TO.N,Net-(J1-D+)*%
X199677600Y-51372100D02*
X198602600Y-52447100D01*
X199677600Y-45955000D02*
X199677600Y-51372100D01*
X199577200Y-45854600D02*
X199677600Y-45955000D01*
%TO.N,5V_USB*%
X175435200Y-42364600D02*
X175435200Y-49329400D01*
X169346600Y-36276000D02*
X175435200Y-42364600D01*
X155456600Y-36276000D02*
X169346600Y-36276000D01*
X144146000Y-47586600D02*
X155456600Y-36276000D01*
X144146000Y-66447400D02*
X144146000Y-47586600D01*
X144931000Y-67232400D02*
X144146000Y-66447400D01*
X148989601Y-67232400D02*
X144931000Y-67232400D01*
X155531401Y-73774200D02*
X148989601Y-67232400D01*
X155856400Y-73774200D02*
X155531401Y-73774200D01*
D70*
X175435200Y-49329400D02*
X177290600Y-51184800D01*
X174641800Y-48536000D02*
X175435200Y-49329400D01*
%TO.N,Net-(BT1-+)*%
X168706600Y-41757400D02*
X168706600Y-42926000D01*
X164075200Y-37126000D02*
X168706600Y-41757400D01*
X156056600Y-37126000D02*
X164075200Y-37126000D01*
X152906600Y-40276000D02*
X156056600Y-37126000D01*
X152906600Y-42926000D02*
X152906600Y-40276000D01*
X170229400Y-44448800D02*
X168706600Y-42926000D01*
X170229400Y-50753000D02*
X170229400Y-44448800D01*
D73*
%TO.N,Net-(D2-A)*%
X178651100Y-55829200D02*
X177622200Y-55829200D01*
X177622200Y-55829200D02*
X174371000Y-52578000D01*
X182181700Y-59359800D02*
X178651100Y-55829200D01*
X174371000Y-52578000D02*
X170229400Y-52578000D01*
%TO.N,Net-(IC1-XTAL2)*%
X171737900Y-82118200D02*
X171890300Y-81965800D01*
X167995600Y-82118200D02*
X171737900Y-82118200D01*
D65*
%TO.N,5V_USB*%
X172588200Y-49403000D02*
X173455200Y-48536000D01*
D70*
X177290600Y-51184800D02*
X177990600Y-51184800D01*
X179627000Y-48848400D02*
X177290600Y-51184800D01*
X179627000Y-47359600D02*
X179627000Y-48848400D01*
X173455200Y-48536000D02*
X174641800Y-48536000D01*
D65*
X155780800Y-74498600D02*
X155856400Y-74574200D01*
D71*
%TO.N,VCCQ*%
X158706400Y-75374200D02*
X157506400Y-74174200D01*
X159156400Y-75374200D02*
X158706400Y-75374200D01*
X157906400Y-74574200D02*
X157506400Y-74174200D01*
X159156400Y-74574200D02*
X157906400Y-74574200D01*
X159156400Y-73774200D02*
X157906400Y-73774200D01*
X157906400Y-73774200D02*
X157506400Y-74174200D01*
X159296200Y-73914000D02*
X159156400Y-73774200D01*
X164840200Y-73914000D02*
X159296200Y-73914000D01*
%TO.N,Net-(R29-Pad2)*%
X158831200Y-81138600D02*
X159121600Y-80848200D01*
X155651200Y-81138600D02*
X158831200Y-81138600D01*
%TO.N,Net-(R30-Pad2)*%
X155651200Y-84088600D02*
X158771200Y-84088600D01*
X158771200Y-84088600D02*
X158985200Y-84302600D01*
%TO.N,Net-(R31-Pad2)*%
X158535200Y-87038600D02*
X159010600Y-86563200D01*
X155651200Y-87038600D02*
X158535200Y-87038600D01*
%TO.N,Net-(R33-Pad2)*%
X158756600Y-92938600D02*
X159010600Y-93192600D01*
X155651200Y-92938600D02*
X158756600Y-92938600D01*
%TO.N,Net-(U4-~{IN-})*%
X174643800Y-124250200D02*
X174643800Y-122707400D01*
X177622200Y-127228600D02*
X174643800Y-124250200D01*
X184023000Y-127025400D02*
X183819800Y-127228600D01*
X183819800Y-127228600D02*
X177622200Y-127228600D01*
X184759600Y-127025400D02*
X184023000Y-127025400D01*
X178104800Y-122707400D02*
X174643800Y-122707400D01*
%TO.N,TACH0*%
X174891300Y-116750700D02*
X175107600Y-116967000D01*
X171069000Y-116750700D02*
X174891300Y-116750700D01*
X161528400Y-129296000D02*
X161528400Y-126291300D01*
X161528400Y-126291300D02*
X171069000Y-116750700D01*
%TO.N,Net-(IC1-GPIO123{slash}SHD_CS0#[BSS_STRAP])*%
X145821400Y-128421800D02*
X147625400Y-128421800D01*
X154584400Y-121462800D02*
X160519110Y-121462800D01*
X160519110Y-121462800D02*
X165804600Y-116177310D01*
%TO.N,Net-(R17-Pad2)*%
X157839400Y-102260400D02*
X158423600Y-102844600D01*
X156159200Y-102260400D02*
X157839400Y-102260400D01*
%TO.N,Net-(J3-Pin_3)*%
X154334200Y-103526600D02*
X154334200Y-102260400D01*
X152603200Y-105257600D02*
X154334200Y-103526600D01*
X142900400Y-111280058D02*
X148922858Y-105257600D01*
X142900400Y-122000800D02*
X142900400Y-111280058D01*
X145821400Y-124921800D02*
X142900400Y-122000800D01*
X148922858Y-105257600D02*
X152603200Y-105257600D01*
%TO.N,Net-(J3-Pin_4)*%
X148717000Y-118872000D02*
X155578800Y-118872000D01*
X148590000Y-118745000D02*
X148717000Y-118872000D01*
X145913200Y-121421800D02*
X148590000Y-118745000D01*
X145821400Y-121421800D02*
X145913200Y-121421800D01*
%TO.N,Net-(J3-Pin_5)*%
X148463000Y-115468400D02*
X155375600Y-115468400D01*
X145857200Y-117921800D02*
X148386800Y-115392200D01*
X145821400Y-117921800D02*
X145857200Y-117921800D01*
X148386800Y-115392200D02*
X148463000Y-115468400D01*
%TO.N,Net-(J3-Pin_6)*%
X148691600Y-111506000D02*
X155526100Y-111506000D01*
X145821400Y-114376200D02*
X148691600Y-111506000D01*
X145821400Y-114421800D02*
X145821400Y-114376200D01*
%TO.N,Net-(J3-Pin_7)*%
X150291800Y-106603800D02*
X154791400Y-106603800D01*
X150266400Y-106629200D02*
X150291800Y-106603800D01*
X150114000Y-106629200D02*
X150266400Y-106629200D01*
X145821400Y-110921800D02*
X150114000Y-106629200D01*
%TO.N,SHD_CS1*%
X145745200Y-101803200D02*
X149130000Y-101803200D01*
%TO.N,Net-(J5-Pin_5)*%
X151786600Y-94803200D02*
X153651200Y-92938600D01*
X145745200Y-94803200D02*
X151786600Y-94803200D01*
%TO.N,Net-(J5-Pin_3)*%
X152886600Y-87803200D02*
X153651200Y-87038600D01*
X145745200Y-87803200D02*
X152886600Y-87803200D01*
%TO.N,Net-(J5-Pin_2)*%
X145959800Y-84088600D02*
X145745200Y-84303200D01*
X153651200Y-84088600D02*
X145959800Y-84088600D01*
%TO.N,Net-(J5-Pin_1)*%
X150785400Y-81138600D02*
X153651200Y-81138600D01*
X150450000Y-80803200D02*
X150785400Y-81138600D01*
X145745200Y-80803200D02*
X150450000Y-80803200D01*
%TO.N,Net-(J4-Pin_5)*%
X152374600Y-68148200D02*
X157890200Y-68148200D01*
X152298400Y-68224400D02*
X152374600Y-68148200D01*
X149956400Y-65882400D02*
X152298400Y-68224400D01*
X145796000Y-65882400D02*
X149956400Y-65882400D01*
%TO.N,Net-(J4-Pin_4)*%
X153619200Y-65913000D02*
X157712400Y-65913000D01*
X145796000Y-62382400D02*
X150088600Y-62382400D01*
X150088600Y-62382400D02*
X153619200Y-65913000D01*
%TO.N,Net-(J4-Pin_3)*%
X152374600Y-61442600D02*
X157814000Y-61442600D01*
X145796000Y-58882400D02*
X149814400Y-58882400D01*
X149814400Y-58882400D02*
X152374600Y-61442600D01*
%TO.N,Net-(J4-Pin_2)*%
X151902400Y-55382400D02*
X154203400Y-57683400D01*
X154203400Y-57683400D02*
X157558100Y-57683400D01*
X145796000Y-55382400D02*
X151902400Y-55382400D01*
%TO.N,Net-(J4-Pin_1)*%
X153105200Y-51882400D02*
X155807400Y-54584600D01*
X145796000Y-51882400D02*
X153105200Y-51882400D01*
%TO.N,GP1O007*%
X206781400Y-85771200D02*
X206781400Y-89271200D01*
X206781400Y-82271200D02*
X206781400Y-85771200D01*
X206781400Y-89271200D02*
X206781400Y-92771200D01*
X206781400Y-92771200D02*
X206781400Y-96271200D01*
X205164900Y-96271200D02*
X203352400Y-98083700D01*
X206781400Y-96271200D02*
X205164900Y-96271200D01*
X198932800Y-98083700D02*
X203352400Y-98083700D01*
X203352400Y-98083700D02*
X205093900Y-98083700D01*
X205093900Y-98083700D02*
X206781400Y-99771200D01*
X198323200Y-97474100D02*
X198932800Y-98083700D01*
X194665600Y-97474100D02*
X198323200Y-97474100D01*
%TO.N,ADC0*%
X186936800Y-69607000D02*
X192002400Y-64541400D01*
%TO.N,ADC1*%
X189751500Y-71667200D02*
X192330700Y-69088000D01*
X184531000Y-71667200D02*
X189751500Y-71667200D01*
%TO.N,ADC2*%
X190365700Y-74177200D02*
X192229100Y-72313800D01*
%TO.N,ADC3*%
X191310100Y-76687200D02*
X192330700Y-75666600D01*
%TO.N,ADC4*%
X192330700Y-79197200D02*
X192356100Y-79171800D01*
%TO.N,ADC_V4*%
X194181100Y-79171800D02*
X206380800Y-79171800D01*
X206380800Y-79171800D02*
X206781400Y-78771200D01*
%TO.N,ADC_V3*%
X194551100Y-75271200D02*
X194155700Y-75666600D01*
X206781400Y-75271200D02*
X194551100Y-75271200D01*
%TO.N,ADC0_3*%
X194596700Y-71771200D02*
X194054100Y-72313800D01*
X206781400Y-71771200D02*
X194596700Y-71771200D01*
%TO.N,ADC_V1*%
X206781400Y-68271200D02*
X194972500Y-68271200D01*
X194972500Y-68271200D02*
X194155700Y-69088000D01*
%TO.N,ADC_V0*%
X206551600Y-64541400D02*
X206781400Y-64771200D01*
X193827400Y-64541400D02*
X206551600Y-64541400D01*
%TD*%
M02*
