%TF.GenerationSoftware,KiCad,Pcbnew,7.0.10*%
%TF.CreationDate,2024-05-18T21:04:01+03:00*%
%TF.ProjectId,Inverter,496e7665-7274-4657-922e-6b696361645f,rev?*%
%TF.SameCoordinates,Original*%
%TF.FileFunction,Soldermask,Top*%
%TF.FilePolarity,Negative*%
%FSLAX46Y46*%
G04 Gerber Fmt 4.6, Leading zero omitted, Abs format (unit mm)*
G04 Created by KiCad (PCBNEW 7.0.10) date 2024-05-18 21:04:01*
%MOMM*%
%LPD*%
G01*
G04 APERTURE LIST*
G04 Aperture macros list*
%AMRoundRect*
0 Rectangle with rounded corners*
0 $1 Rounding radius*
0 $2 $3 $4 $5 $6 $7 $8 $9 X,Y pos of 4 corners*
0 Add a 4 corners polygon primitive as box body*
4,1,4,$2,$3,$4,$5,$6,$7,$8,$9,$2,$3,0*
0 Add four circle primitives for the rounded corners*
1,1,$1+$1,$2,$3*
1,1,$1+$1,$4,$5*
1,1,$1+$1,$6,$7*
1,1,$1+$1,$8,$9*
0 Add four rect primitives between the rounded corners*
20,1,$1+$1,$2,$3,$4,$5,0*
20,1,$1+$1,$4,$5,$6,$7,0*
20,1,$1+$1,$6,$7,$8,$9,0*
20,1,$1+$1,$8,$9,$2,$3,0*%
%AMFreePoly0*
4,1,9,3.862500,-0.866500,0.737500,-0.866500,0.737500,-0.450000,-0.737500,-0.450000,-0.737500,0.450000,0.737500,0.450000,0.737500,0.866500,3.862500,0.866500,3.862500,-0.866500,3.862500,-0.866500,$1*%
G04 Aperture macros list end*
%ADD10C,0.100000*%
%ADD11C,0.150000*%
%ADD12C,0.300000*%
%ADD13C,0.400000*%
%ADD14C,2.200000*%
%ADD15R,2.600000X2.600000*%
%ADD16C,2.600000*%
%ADD17R,1.500000X1.500000*%
%ADD18C,1.500000*%
%ADD19O,1.600000X1.600000*%
%ADD20C,1.600000*%
%ADD21R,1.600000X1.600000*%
%ADD22R,1.905000X2.000000*%
%ADD23O,1.905000X2.000000*%
%ADD24R,2.000000X4.500000*%
%ADD25C,2.400000*%
%ADD26RoundRect,0.250000X-1.075000X0.425000X-1.075000X-0.425000X1.075000X-0.425000X1.075000X0.425000X0*%
%ADD27RoundRect,0.250000X-1.500000X-0.550000X1.500000X-0.550000X1.500000X0.550000X-1.500000X0.550000X0*%
%ADD28R,2.200000X2.200000*%
%ADD29O,2.200000X2.200000*%
%ADD30RoundRect,0.250000X-0.375000X-0.625000X0.375000X-0.625000X0.375000X0.625000X-0.375000X0.625000X0*%
%ADD31R,1.400000X0.760000*%
%ADD32C,1.100000*%
%ADD33R,2.500000X1.100000*%
%ADD34O,3.500000X1.900000*%
%ADD35RoundRect,0.150000X-0.825000X-0.150000X0.825000X-0.150000X0.825000X0.150000X-0.825000X0.150000X0*%
%ADD36R,1.300000X0.900000*%
%ADD37FreePoly0,180.000000*%
%ADD38R,1.600000X0.550000*%
%ADD39R,0.550000X1.600000*%
G04 APERTURE END LIST*
D10*
D11*
X177002200Y-166007200D02*
X285002200Y-166007200D01*
X285002200Y-198007200D01*
X177002200Y-198007200D01*
X177002200Y-166007200D01*
D10*
D11*
X10000000Y-10000000D02*
X287002200Y-10000000D01*
X287002200Y-200007200D01*
X10000000Y-200007200D01*
X10000000Y-10000000D01*
D10*
D11*
X12000000Y-12000000D02*
X285002200Y-12000000D01*
X285002200Y-198007200D01*
X12000000Y-198007200D01*
X12000000Y-12000000D01*
D10*
D11*
X60000000Y-12000000D02*
X60000000Y-10000000D01*
D10*
D11*
X110000000Y-12000000D02*
X110000000Y-10000000D01*
D10*
D11*
X160000000Y-12000000D02*
X160000000Y-10000000D01*
D10*
D11*
X210000000Y-12000000D02*
X210000000Y-10000000D01*
D10*
D11*
X260000000Y-12000000D02*
X260000000Y-10000000D01*
D10*
D11*
X36089160Y-11593604D02*
X35346303Y-11593604D01*
X35717731Y-11593604D02*
X35717731Y-10293604D01*
X35717731Y-10293604D02*
X35593922Y-10479319D01*
X35593922Y-10479319D02*
X35470112Y-10603128D01*
X35470112Y-10603128D02*
X35346303Y-10665033D01*
D10*
D11*
X85346303Y-10417414D02*
X85408207Y-10355509D01*
X85408207Y-10355509D02*
X85532017Y-10293604D01*
X85532017Y-10293604D02*
X85841541Y-10293604D01*
X85841541Y-10293604D02*
X85965350Y-10355509D01*
X85965350Y-10355509D02*
X86027255Y-10417414D01*
X86027255Y-10417414D02*
X86089160Y-10541223D01*
X86089160Y-10541223D02*
X86089160Y-10665033D01*
X86089160Y-10665033D02*
X86027255Y-10850747D01*
X86027255Y-10850747D02*
X85284398Y-11593604D01*
X85284398Y-11593604D02*
X86089160Y-11593604D01*
D10*
D11*
X135284398Y-10293604D02*
X136089160Y-10293604D01*
X136089160Y-10293604D02*
X135655826Y-10788842D01*
X135655826Y-10788842D02*
X135841541Y-10788842D01*
X135841541Y-10788842D02*
X135965350Y-10850747D01*
X135965350Y-10850747D02*
X136027255Y-10912652D01*
X136027255Y-10912652D02*
X136089160Y-11036461D01*
X136089160Y-11036461D02*
X136089160Y-11345985D01*
X136089160Y-11345985D02*
X136027255Y-11469795D01*
X136027255Y-11469795D02*
X135965350Y-11531700D01*
X135965350Y-11531700D02*
X135841541Y-11593604D01*
X135841541Y-11593604D02*
X135470112Y-11593604D01*
X135470112Y-11593604D02*
X135346303Y-11531700D01*
X135346303Y-11531700D02*
X135284398Y-11469795D01*
D10*
D11*
X185965350Y-10726938D02*
X185965350Y-11593604D01*
X185655826Y-10231700D02*
X185346303Y-11160271D01*
X185346303Y-11160271D02*
X186151064Y-11160271D01*
D10*
D11*
X236027255Y-10293604D02*
X235408207Y-10293604D01*
X235408207Y-10293604D02*
X235346303Y-10912652D01*
X235346303Y-10912652D02*
X235408207Y-10850747D01*
X235408207Y-10850747D02*
X235532017Y-10788842D01*
X235532017Y-10788842D02*
X235841541Y-10788842D01*
X235841541Y-10788842D02*
X235965350Y-10850747D01*
X235965350Y-10850747D02*
X236027255Y-10912652D01*
X236027255Y-10912652D02*
X236089160Y-11036461D01*
X236089160Y-11036461D02*
X236089160Y-11345985D01*
X236089160Y-11345985D02*
X236027255Y-11469795D01*
X236027255Y-11469795D02*
X235965350Y-11531700D01*
X235965350Y-11531700D02*
X235841541Y-11593604D01*
X235841541Y-11593604D02*
X235532017Y-11593604D01*
X235532017Y-11593604D02*
X235408207Y-11531700D01*
X235408207Y-11531700D02*
X235346303Y-11469795D01*
D10*
D11*
X285965350Y-10293604D02*
X285717731Y-10293604D01*
X285717731Y-10293604D02*
X285593922Y-10355509D01*
X285593922Y-10355509D02*
X285532017Y-10417414D01*
X285532017Y-10417414D02*
X285408207Y-10603128D01*
X285408207Y-10603128D02*
X285346303Y-10850747D01*
X285346303Y-10850747D02*
X285346303Y-11345985D01*
X285346303Y-11345985D02*
X285408207Y-11469795D01*
X285408207Y-11469795D02*
X285470112Y-11531700D01*
X285470112Y-11531700D02*
X285593922Y-11593604D01*
X285593922Y-11593604D02*
X285841541Y-11593604D01*
X285841541Y-11593604D02*
X285965350Y-11531700D01*
X285965350Y-11531700D02*
X286027255Y-11469795D01*
X286027255Y-11469795D02*
X286089160Y-11345985D01*
X286089160Y-11345985D02*
X286089160Y-11036461D01*
X286089160Y-11036461D02*
X286027255Y-10912652D01*
X286027255Y-10912652D02*
X285965350Y-10850747D01*
X285965350Y-10850747D02*
X285841541Y-10788842D01*
X285841541Y-10788842D02*
X285593922Y-10788842D01*
X285593922Y-10788842D02*
X285470112Y-10850747D01*
X285470112Y-10850747D02*
X285408207Y-10912652D01*
X285408207Y-10912652D02*
X285346303Y-11036461D01*
D10*
D11*
X60000000Y-198007200D02*
X60000000Y-200007200D01*
D10*
D11*
X110000000Y-198007200D02*
X110000000Y-200007200D01*
D10*
D11*
X160000000Y-198007200D02*
X160000000Y-200007200D01*
D10*
D11*
X210000000Y-198007200D02*
X210000000Y-200007200D01*
D10*
D11*
X260000000Y-198007200D02*
X260000000Y-200007200D01*
D10*
D11*
X36089160Y-199600804D02*
X35346303Y-199600804D01*
X35717731Y-199600804D02*
X35717731Y-198300804D01*
X35717731Y-198300804D02*
X35593922Y-198486519D01*
X35593922Y-198486519D02*
X35470112Y-198610328D01*
X35470112Y-198610328D02*
X35346303Y-198672233D01*
D10*
D11*
X85346303Y-198424614D02*
X85408207Y-198362709D01*
X85408207Y-198362709D02*
X85532017Y-198300804D01*
X85532017Y-198300804D02*
X85841541Y-198300804D01*
X85841541Y-198300804D02*
X85965350Y-198362709D01*
X85965350Y-198362709D02*
X86027255Y-198424614D01*
X86027255Y-198424614D02*
X86089160Y-198548423D01*
X86089160Y-198548423D02*
X86089160Y-198672233D01*
X86089160Y-198672233D02*
X86027255Y-198857947D01*
X86027255Y-198857947D02*
X85284398Y-199600804D01*
X85284398Y-199600804D02*
X86089160Y-199600804D01*
D10*
D11*
X135284398Y-198300804D02*
X136089160Y-198300804D01*
X136089160Y-198300804D02*
X135655826Y-198796042D01*
X135655826Y-198796042D02*
X135841541Y-198796042D01*
X135841541Y-198796042D02*
X135965350Y-198857947D01*
X135965350Y-198857947D02*
X136027255Y-198919852D01*
X136027255Y-198919852D02*
X136089160Y-199043661D01*
X136089160Y-199043661D02*
X136089160Y-199353185D01*
X136089160Y-199353185D02*
X136027255Y-199476995D01*
X136027255Y-199476995D02*
X135965350Y-199538900D01*
X135965350Y-199538900D02*
X135841541Y-199600804D01*
X135841541Y-199600804D02*
X135470112Y-199600804D01*
X135470112Y-199600804D02*
X135346303Y-199538900D01*
X135346303Y-199538900D02*
X135284398Y-199476995D01*
D10*
D11*
X185965350Y-198734138D02*
X185965350Y-199600804D01*
X185655826Y-198238900D02*
X185346303Y-199167471D01*
X185346303Y-199167471D02*
X186151064Y-199167471D01*
D10*
D11*
X236027255Y-198300804D02*
X235408207Y-198300804D01*
X235408207Y-198300804D02*
X235346303Y-198919852D01*
X235346303Y-198919852D02*
X235408207Y-198857947D01*
X235408207Y-198857947D02*
X235532017Y-198796042D01*
X235532017Y-198796042D02*
X235841541Y-198796042D01*
X235841541Y-198796042D02*
X235965350Y-198857947D01*
X235965350Y-198857947D02*
X236027255Y-198919852D01*
X236027255Y-198919852D02*
X236089160Y-199043661D01*
X236089160Y-199043661D02*
X236089160Y-199353185D01*
X236089160Y-199353185D02*
X236027255Y-199476995D01*
X236027255Y-199476995D02*
X235965350Y-199538900D01*
X235965350Y-199538900D02*
X235841541Y-199600804D01*
X235841541Y-199600804D02*
X235532017Y-199600804D01*
X235532017Y-199600804D02*
X235408207Y-199538900D01*
X235408207Y-199538900D02*
X235346303Y-199476995D01*
D10*
D11*
X285965350Y-198300804D02*
X285717731Y-198300804D01*
X285717731Y-198300804D02*
X285593922Y-198362709D01*
X285593922Y-198362709D02*
X285532017Y-198424614D01*
X285532017Y-198424614D02*
X285408207Y-198610328D01*
X285408207Y-198610328D02*
X285346303Y-198857947D01*
X285346303Y-198857947D02*
X285346303Y-199353185D01*
X285346303Y-199353185D02*
X285408207Y-199476995D01*
X285408207Y-199476995D02*
X285470112Y-199538900D01*
X285470112Y-199538900D02*
X285593922Y-199600804D01*
X285593922Y-199600804D02*
X285841541Y-199600804D01*
X285841541Y-199600804D02*
X285965350Y-199538900D01*
X285965350Y-199538900D02*
X286027255Y-199476995D01*
X286027255Y-199476995D02*
X286089160Y-199353185D01*
X286089160Y-199353185D02*
X286089160Y-199043661D01*
X286089160Y-199043661D02*
X286027255Y-198919852D01*
X286027255Y-198919852D02*
X285965350Y-198857947D01*
X285965350Y-198857947D02*
X285841541Y-198796042D01*
X285841541Y-198796042D02*
X285593922Y-198796042D01*
X285593922Y-198796042D02*
X285470112Y-198857947D01*
X285470112Y-198857947D02*
X285408207Y-198919852D01*
X285408207Y-198919852D02*
X285346303Y-199043661D01*
D10*
D11*
X10000000Y-60000000D02*
X12000000Y-60000000D01*
D10*
D11*
X10000000Y-110000000D02*
X12000000Y-110000000D01*
D10*
D11*
X10000000Y-160000000D02*
X12000000Y-160000000D01*
D10*
D11*
X10690476Y-35222176D02*
X11309523Y-35222176D01*
X10566666Y-35593604D02*
X10999999Y-34293604D01*
X10999999Y-34293604D02*
X11433333Y-35593604D01*
D10*
D11*
X11092857Y-84912652D02*
X11278571Y-84974557D01*
X11278571Y-84974557D02*
X11340476Y-85036461D01*
X11340476Y-85036461D02*
X11402380Y-85160271D01*
X11402380Y-85160271D02*
X11402380Y-85345985D01*
X11402380Y-85345985D02*
X11340476Y-85469795D01*
X11340476Y-85469795D02*
X11278571Y-85531700D01*
X11278571Y-85531700D02*
X11154761Y-85593604D01*
X11154761Y-85593604D02*
X10659523Y-85593604D01*
X10659523Y-85593604D02*
X10659523Y-84293604D01*
X10659523Y-84293604D02*
X11092857Y-84293604D01*
X11092857Y-84293604D02*
X11216666Y-84355509D01*
X11216666Y-84355509D02*
X11278571Y-84417414D01*
X11278571Y-84417414D02*
X11340476Y-84541223D01*
X11340476Y-84541223D02*
X11340476Y-84665033D01*
X11340476Y-84665033D02*
X11278571Y-84788842D01*
X11278571Y-84788842D02*
X11216666Y-84850747D01*
X11216666Y-84850747D02*
X11092857Y-84912652D01*
X11092857Y-84912652D02*
X10659523Y-84912652D01*
D10*
D11*
X11402380Y-135469795D02*
X11340476Y-135531700D01*
X11340476Y-135531700D02*
X11154761Y-135593604D01*
X11154761Y-135593604D02*
X11030952Y-135593604D01*
X11030952Y-135593604D02*
X10845238Y-135531700D01*
X10845238Y-135531700D02*
X10721428Y-135407890D01*
X10721428Y-135407890D02*
X10659523Y-135284080D01*
X10659523Y-135284080D02*
X10597619Y-135036461D01*
X10597619Y-135036461D02*
X10597619Y-134850747D01*
X10597619Y-134850747D02*
X10659523Y-134603128D01*
X10659523Y-134603128D02*
X10721428Y-134479319D01*
X10721428Y-134479319D02*
X10845238Y-134355509D01*
X10845238Y-134355509D02*
X11030952Y-134293604D01*
X11030952Y-134293604D02*
X11154761Y-134293604D01*
X11154761Y-134293604D02*
X11340476Y-134355509D01*
X11340476Y-134355509D02*
X11402380Y-134417414D01*
D10*
D11*
X10659523Y-185593604D02*
X10659523Y-184293604D01*
X10659523Y-184293604D02*
X10969047Y-184293604D01*
X10969047Y-184293604D02*
X11154761Y-184355509D01*
X11154761Y-184355509D02*
X11278571Y-184479319D01*
X11278571Y-184479319D02*
X11340476Y-184603128D01*
X11340476Y-184603128D02*
X11402380Y-184850747D01*
X11402380Y-184850747D02*
X11402380Y-185036461D01*
X11402380Y-185036461D02*
X11340476Y-185284080D01*
X11340476Y-185284080D02*
X11278571Y-185407890D01*
X11278571Y-185407890D02*
X11154761Y-185531700D01*
X11154761Y-185531700D02*
X10969047Y-185593604D01*
X10969047Y-185593604D02*
X10659523Y-185593604D01*
D10*
D11*
X287002200Y-60000000D02*
X285002200Y-60000000D01*
D10*
D11*
X287002200Y-110000000D02*
X285002200Y-110000000D01*
D10*
D11*
X287002200Y-160000000D02*
X285002200Y-160000000D01*
D10*
D11*
X285692676Y-35222176D02*
X286311723Y-35222176D01*
X285568866Y-35593604D02*
X286002199Y-34293604D01*
X286002199Y-34293604D02*
X286435533Y-35593604D01*
D10*
D11*
X286095057Y-84912652D02*
X286280771Y-84974557D01*
X286280771Y-84974557D02*
X286342676Y-85036461D01*
X286342676Y-85036461D02*
X286404580Y-85160271D01*
X286404580Y-85160271D02*
X286404580Y-85345985D01*
X286404580Y-85345985D02*
X286342676Y-85469795D01*
X286342676Y-85469795D02*
X286280771Y-85531700D01*
X286280771Y-85531700D02*
X286156961Y-85593604D01*
X286156961Y-85593604D02*
X285661723Y-85593604D01*
X285661723Y-85593604D02*
X285661723Y-84293604D01*
X285661723Y-84293604D02*
X286095057Y-84293604D01*
X286095057Y-84293604D02*
X286218866Y-84355509D01*
X286218866Y-84355509D02*
X286280771Y-84417414D01*
X286280771Y-84417414D02*
X286342676Y-84541223D01*
X286342676Y-84541223D02*
X286342676Y-84665033D01*
X286342676Y-84665033D02*
X286280771Y-84788842D01*
X286280771Y-84788842D02*
X286218866Y-84850747D01*
X286218866Y-84850747D02*
X286095057Y-84912652D01*
X286095057Y-84912652D02*
X285661723Y-84912652D01*
D10*
D11*
X286404580Y-135469795D02*
X286342676Y-135531700D01*
X286342676Y-135531700D02*
X286156961Y-135593604D01*
X286156961Y-135593604D02*
X286033152Y-135593604D01*
X286033152Y-135593604D02*
X285847438Y-135531700D01*
X285847438Y-135531700D02*
X285723628Y-135407890D01*
X285723628Y-135407890D02*
X285661723Y-135284080D01*
X285661723Y-135284080D02*
X285599819Y-135036461D01*
X285599819Y-135036461D02*
X285599819Y-134850747D01*
X285599819Y-134850747D02*
X285661723Y-134603128D01*
X285661723Y-134603128D02*
X285723628Y-134479319D01*
X285723628Y-134479319D02*
X285847438Y-134355509D01*
X285847438Y-134355509D02*
X286033152Y-134293604D01*
X286033152Y-134293604D02*
X286156961Y-134293604D01*
X286156961Y-134293604D02*
X286342676Y-134355509D01*
X286342676Y-134355509D02*
X286404580Y-134417414D01*
D10*
D11*
X285661723Y-185593604D02*
X285661723Y-184293604D01*
X285661723Y-184293604D02*
X285971247Y-184293604D01*
X285971247Y-184293604D02*
X286156961Y-184355509D01*
X286156961Y-184355509D02*
X286280771Y-184479319D01*
X286280771Y-184479319D02*
X286342676Y-184603128D01*
X286342676Y-184603128D02*
X286404580Y-184850747D01*
X286404580Y-184850747D02*
X286404580Y-185036461D01*
X286404580Y-185036461D02*
X286342676Y-185284080D01*
X286342676Y-185284080D02*
X286280771Y-185407890D01*
X286280771Y-185407890D02*
X286156961Y-185531700D01*
X286156961Y-185531700D02*
X285971247Y-185593604D01*
X285971247Y-185593604D02*
X285661723Y-185593604D01*
D10*
D11*
X200458026Y-193793328D02*
X200458026Y-192293328D01*
X200458026Y-192293328D02*
X200815169Y-192293328D01*
X200815169Y-192293328D02*
X201029455Y-192364757D01*
X201029455Y-192364757D02*
X201172312Y-192507614D01*
X201172312Y-192507614D02*
X201243741Y-192650471D01*
X201243741Y-192650471D02*
X201315169Y-192936185D01*
X201315169Y-192936185D02*
X201315169Y-193150471D01*
X201315169Y-193150471D02*
X201243741Y-193436185D01*
X201243741Y-193436185D02*
X201172312Y-193579042D01*
X201172312Y-193579042D02*
X201029455Y-193721900D01*
X201029455Y-193721900D02*
X200815169Y-193793328D01*
X200815169Y-193793328D02*
X200458026Y-193793328D01*
X202600884Y-193793328D02*
X202600884Y-193007614D01*
X202600884Y-193007614D02*
X202529455Y-192864757D01*
X202529455Y-192864757D02*
X202386598Y-192793328D01*
X202386598Y-192793328D02*
X202100884Y-192793328D01*
X202100884Y-192793328D02*
X201958026Y-192864757D01*
X202600884Y-193721900D02*
X202458026Y-193793328D01*
X202458026Y-193793328D02*
X202100884Y-193793328D01*
X202100884Y-193793328D02*
X201958026Y-193721900D01*
X201958026Y-193721900D02*
X201886598Y-193579042D01*
X201886598Y-193579042D02*
X201886598Y-193436185D01*
X201886598Y-193436185D02*
X201958026Y-193293328D01*
X201958026Y-193293328D02*
X202100884Y-193221900D01*
X202100884Y-193221900D02*
X202458026Y-193221900D01*
X202458026Y-193221900D02*
X202600884Y-193150471D01*
X203100884Y-192793328D02*
X203672312Y-192793328D01*
X203315169Y-192293328D02*
X203315169Y-193579042D01*
X203315169Y-193579042D02*
X203386598Y-193721900D01*
X203386598Y-193721900D02*
X203529455Y-193793328D01*
X203529455Y-193793328D02*
X203672312Y-193793328D01*
X204743741Y-193721900D02*
X204600884Y-193793328D01*
X204600884Y-193793328D02*
X204315170Y-193793328D01*
X204315170Y-193793328D02*
X204172312Y-193721900D01*
X204172312Y-193721900D02*
X204100884Y-193579042D01*
X204100884Y-193579042D02*
X204100884Y-193007614D01*
X204100884Y-193007614D02*
X204172312Y-192864757D01*
X204172312Y-192864757D02*
X204315170Y-192793328D01*
X204315170Y-192793328D02*
X204600884Y-192793328D01*
X204600884Y-192793328D02*
X204743741Y-192864757D01*
X204743741Y-192864757D02*
X204815170Y-193007614D01*
X204815170Y-193007614D02*
X204815170Y-193150471D01*
X204815170Y-193150471D02*
X204100884Y-193293328D01*
X205458026Y-193650471D02*
X205529455Y-193721900D01*
X205529455Y-193721900D02*
X205458026Y-193793328D01*
X205458026Y-193793328D02*
X205386598Y-193721900D01*
X205386598Y-193721900D02*
X205458026Y-193650471D01*
X205458026Y-193650471D02*
X205458026Y-193793328D01*
X205458026Y-192864757D02*
X205529455Y-192936185D01*
X205529455Y-192936185D02*
X205458026Y-193007614D01*
X205458026Y-193007614D02*
X205386598Y-192936185D01*
X205386598Y-192936185D02*
X205458026Y-192864757D01*
X205458026Y-192864757D02*
X205458026Y-193007614D01*
D10*
D11*
X177002200Y-194507200D02*
X285002200Y-194507200D01*
D10*
D11*
X178458026Y-196593328D02*
X178458026Y-195093328D01*
X179315169Y-196593328D02*
X178672312Y-195736185D01*
X179315169Y-195093328D02*
X178458026Y-195950471D01*
X179958026Y-196593328D02*
X179958026Y-195593328D01*
X179958026Y-195093328D02*
X179886598Y-195164757D01*
X179886598Y-195164757D02*
X179958026Y-195236185D01*
X179958026Y-195236185D02*
X180029455Y-195164757D01*
X180029455Y-195164757D02*
X179958026Y-195093328D01*
X179958026Y-195093328D02*
X179958026Y-195236185D01*
X181529455Y-196450471D02*
X181458027Y-196521900D01*
X181458027Y-196521900D02*
X181243741Y-196593328D01*
X181243741Y-196593328D02*
X181100884Y-196593328D01*
X181100884Y-196593328D02*
X180886598Y-196521900D01*
X180886598Y-196521900D02*
X180743741Y-196379042D01*
X180743741Y-196379042D02*
X180672312Y-196236185D01*
X180672312Y-196236185D02*
X180600884Y-195950471D01*
X180600884Y-195950471D02*
X180600884Y-195736185D01*
X180600884Y-195736185D02*
X180672312Y-195450471D01*
X180672312Y-195450471D02*
X180743741Y-195307614D01*
X180743741Y-195307614D02*
X180886598Y-195164757D01*
X180886598Y-195164757D02*
X181100884Y-195093328D01*
X181100884Y-195093328D02*
X181243741Y-195093328D01*
X181243741Y-195093328D02*
X181458027Y-195164757D01*
X181458027Y-195164757D02*
X181529455Y-195236185D01*
X182815170Y-196593328D02*
X182815170Y-195807614D01*
X182815170Y-195807614D02*
X182743741Y-195664757D01*
X182743741Y-195664757D02*
X182600884Y-195593328D01*
X182600884Y-195593328D02*
X182315170Y-195593328D01*
X182315170Y-195593328D02*
X182172312Y-195664757D01*
X182815170Y-196521900D02*
X182672312Y-196593328D01*
X182672312Y-196593328D02*
X182315170Y-196593328D01*
X182315170Y-196593328D02*
X182172312Y-196521900D01*
X182172312Y-196521900D02*
X182100884Y-196379042D01*
X182100884Y-196379042D02*
X182100884Y-196236185D01*
X182100884Y-196236185D02*
X182172312Y-196093328D01*
X182172312Y-196093328D02*
X182315170Y-196021900D01*
X182315170Y-196021900D02*
X182672312Y-196021900D01*
X182672312Y-196021900D02*
X182815170Y-195950471D01*
X184172313Y-196593328D02*
X184172313Y-195093328D01*
X184172313Y-196521900D02*
X184029455Y-196593328D01*
X184029455Y-196593328D02*
X183743741Y-196593328D01*
X183743741Y-196593328D02*
X183600884Y-196521900D01*
X183600884Y-196521900D02*
X183529455Y-196450471D01*
X183529455Y-196450471D02*
X183458027Y-196307614D01*
X183458027Y-196307614D02*
X183458027Y-195879042D01*
X183458027Y-195879042D02*
X183529455Y-195736185D01*
X183529455Y-195736185D02*
X183600884Y-195664757D01*
X183600884Y-195664757D02*
X183743741Y-195593328D01*
X183743741Y-195593328D02*
X184029455Y-195593328D01*
X184029455Y-195593328D02*
X184172313Y-195664757D01*
X186029455Y-195807614D02*
X186529455Y-195807614D01*
X186743741Y-196593328D02*
X186029455Y-196593328D01*
X186029455Y-196593328D02*
X186029455Y-195093328D01*
X186029455Y-195093328D02*
X186743741Y-195093328D01*
X187386598Y-196450471D02*
X187458027Y-196521900D01*
X187458027Y-196521900D02*
X187386598Y-196593328D01*
X187386598Y-196593328D02*
X187315170Y-196521900D01*
X187315170Y-196521900D02*
X187386598Y-196450471D01*
X187386598Y-196450471D02*
X187386598Y-196593328D01*
X188100884Y-196593328D02*
X188100884Y-195093328D01*
X188100884Y-195093328D02*
X188458027Y-195093328D01*
X188458027Y-195093328D02*
X188672313Y-195164757D01*
X188672313Y-195164757D02*
X188815170Y-195307614D01*
X188815170Y-195307614D02*
X188886599Y-195450471D01*
X188886599Y-195450471D02*
X188958027Y-195736185D01*
X188958027Y-195736185D02*
X188958027Y-195950471D01*
X188958027Y-195950471D02*
X188886599Y-196236185D01*
X188886599Y-196236185D02*
X188815170Y-196379042D01*
X188815170Y-196379042D02*
X188672313Y-196521900D01*
X188672313Y-196521900D02*
X188458027Y-196593328D01*
X188458027Y-196593328D02*
X188100884Y-196593328D01*
X189600884Y-196450471D02*
X189672313Y-196521900D01*
X189672313Y-196521900D02*
X189600884Y-196593328D01*
X189600884Y-196593328D02*
X189529456Y-196521900D01*
X189529456Y-196521900D02*
X189600884Y-196450471D01*
X189600884Y-196450471D02*
X189600884Y-196593328D01*
X190243742Y-196164757D02*
X190958028Y-196164757D01*
X190100885Y-196593328D02*
X190600885Y-195093328D01*
X190600885Y-195093328D02*
X191100885Y-196593328D01*
X191600884Y-196450471D02*
X191672313Y-196521900D01*
X191672313Y-196521900D02*
X191600884Y-196593328D01*
X191600884Y-196593328D02*
X191529456Y-196521900D01*
X191529456Y-196521900D02*
X191600884Y-196450471D01*
X191600884Y-196450471D02*
X191600884Y-196593328D01*
X194600884Y-196593328D02*
X194600884Y-195093328D01*
X194743742Y-196021900D02*
X195172313Y-196593328D01*
X195172313Y-195593328D02*
X194600884Y-196164757D01*
X195815170Y-196593328D02*
X195815170Y-195593328D01*
X195815170Y-195093328D02*
X195743742Y-195164757D01*
X195743742Y-195164757D02*
X195815170Y-195236185D01*
X195815170Y-195236185D02*
X195886599Y-195164757D01*
X195886599Y-195164757D02*
X195815170Y-195093328D01*
X195815170Y-195093328D02*
X195815170Y-195236185D01*
X197172314Y-196521900D02*
X197029456Y-196593328D01*
X197029456Y-196593328D02*
X196743742Y-196593328D01*
X196743742Y-196593328D02*
X196600885Y-196521900D01*
X196600885Y-196521900D02*
X196529456Y-196450471D01*
X196529456Y-196450471D02*
X196458028Y-196307614D01*
X196458028Y-196307614D02*
X196458028Y-195879042D01*
X196458028Y-195879042D02*
X196529456Y-195736185D01*
X196529456Y-195736185D02*
X196600885Y-195664757D01*
X196600885Y-195664757D02*
X196743742Y-195593328D01*
X196743742Y-195593328D02*
X197029456Y-195593328D01*
X197029456Y-195593328D02*
X197172314Y-195664757D01*
X198458028Y-196593328D02*
X198458028Y-195807614D01*
X198458028Y-195807614D02*
X198386599Y-195664757D01*
X198386599Y-195664757D02*
X198243742Y-195593328D01*
X198243742Y-195593328D02*
X197958028Y-195593328D01*
X197958028Y-195593328D02*
X197815170Y-195664757D01*
X198458028Y-196521900D02*
X198315170Y-196593328D01*
X198315170Y-196593328D02*
X197958028Y-196593328D01*
X197958028Y-196593328D02*
X197815170Y-196521900D01*
X197815170Y-196521900D02*
X197743742Y-196379042D01*
X197743742Y-196379042D02*
X197743742Y-196236185D01*
X197743742Y-196236185D02*
X197815170Y-196093328D01*
X197815170Y-196093328D02*
X197958028Y-196021900D01*
X197958028Y-196021900D02*
X198315170Y-196021900D01*
X198315170Y-196021900D02*
X198458028Y-195950471D01*
X199815171Y-196593328D02*
X199815171Y-195093328D01*
X199815171Y-196521900D02*
X199672313Y-196593328D01*
X199672313Y-196593328D02*
X199386599Y-196593328D01*
X199386599Y-196593328D02*
X199243742Y-196521900D01*
X199243742Y-196521900D02*
X199172313Y-196450471D01*
X199172313Y-196450471D02*
X199100885Y-196307614D01*
X199100885Y-196307614D02*
X199100885Y-195879042D01*
X199100885Y-195879042D02*
X199172313Y-195736185D01*
X199172313Y-195736185D02*
X199243742Y-195664757D01*
X199243742Y-195664757D02*
X199386599Y-195593328D01*
X199386599Y-195593328D02*
X199672313Y-195593328D01*
X199672313Y-195593328D02*
X199815171Y-195664757D01*
X201529456Y-195093328D02*
X202529456Y-195093328D01*
X202529456Y-195093328D02*
X201886599Y-196593328D01*
X203100884Y-196450471D02*
X203172313Y-196521900D01*
X203172313Y-196521900D02*
X203100884Y-196593328D01*
X203100884Y-196593328D02*
X203029456Y-196521900D01*
X203029456Y-196521900D02*
X203100884Y-196450471D01*
X203100884Y-196450471D02*
X203100884Y-196593328D01*
X204100885Y-195093328D02*
X204243742Y-195093328D01*
X204243742Y-195093328D02*
X204386599Y-195164757D01*
X204386599Y-195164757D02*
X204458028Y-195236185D01*
X204458028Y-195236185D02*
X204529456Y-195379042D01*
X204529456Y-195379042D02*
X204600885Y-195664757D01*
X204600885Y-195664757D02*
X204600885Y-196021900D01*
X204600885Y-196021900D02*
X204529456Y-196307614D01*
X204529456Y-196307614D02*
X204458028Y-196450471D01*
X204458028Y-196450471D02*
X204386599Y-196521900D01*
X204386599Y-196521900D02*
X204243742Y-196593328D01*
X204243742Y-196593328D02*
X204100885Y-196593328D01*
X204100885Y-196593328D02*
X203958028Y-196521900D01*
X203958028Y-196521900D02*
X203886599Y-196450471D01*
X203886599Y-196450471D02*
X203815170Y-196307614D01*
X203815170Y-196307614D02*
X203743742Y-196021900D01*
X203743742Y-196021900D02*
X203743742Y-195664757D01*
X203743742Y-195664757D02*
X203815170Y-195379042D01*
X203815170Y-195379042D02*
X203886599Y-195236185D01*
X203886599Y-195236185D02*
X203958028Y-195164757D01*
X203958028Y-195164757D02*
X204100885Y-195093328D01*
X205243741Y-196450471D02*
X205315170Y-196521900D01*
X205315170Y-196521900D02*
X205243741Y-196593328D01*
X205243741Y-196593328D02*
X205172313Y-196521900D01*
X205172313Y-196521900D02*
X205243741Y-196450471D01*
X205243741Y-196450471D02*
X205243741Y-196593328D01*
X206743742Y-196593328D02*
X205886599Y-196593328D01*
X206315170Y-196593328D02*
X206315170Y-195093328D01*
X206315170Y-195093328D02*
X206172313Y-195307614D01*
X206172313Y-195307614D02*
X206029456Y-195450471D01*
X206029456Y-195450471D02*
X205886599Y-195521900D01*
X207672313Y-195093328D02*
X207815170Y-195093328D01*
X207815170Y-195093328D02*
X207958027Y-195164757D01*
X207958027Y-195164757D02*
X208029456Y-195236185D01*
X208029456Y-195236185D02*
X208100884Y-195379042D01*
X208100884Y-195379042D02*
X208172313Y-195664757D01*
X208172313Y-195664757D02*
X208172313Y-196021900D01*
X208172313Y-196021900D02*
X208100884Y-196307614D01*
X208100884Y-196307614D02*
X208029456Y-196450471D01*
X208029456Y-196450471D02*
X207958027Y-196521900D01*
X207958027Y-196521900D02*
X207815170Y-196593328D01*
X207815170Y-196593328D02*
X207672313Y-196593328D01*
X207672313Y-196593328D02*
X207529456Y-196521900D01*
X207529456Y-196521900D02*
X207458027Y-196450471D01*
X207458027Y-196450471D02*
X207386598Y-196307614D01*
X207386598Y-196307614D02*
X207315170Y-196021900D01*
X207315170Y-196021900D02*
X207315170Y-195664757D01*
X207315170Y-195664757D02*
X207386598Y-195379042D01*
X207386598Y-195379042D02*
X207458027Y-195236185D01*
X207458027Y-195236185D02*
X207529456Y-195164757D01*
X207529456Y-195164757D02*
X207672313Y-195093328D01*
D10*
D11*
X177002200Y-191507200D02*
X285002200Y-191507200D01*
D10*
D12*
X264413853Y-193785528D02*
X263913853Y-193071242D01*
X263556710Y-193785528D02*
X263556710Y-192285528D01*
X263556710Y-192285528D02*
X264128139Y-192285528D01*
X264128139Y-192285528D02*
X264270996Y-192356957D01*
X264270996Y-192356957D02*
X264342425Y-192428385D01*
X264342425Y-192428385D02*
X264413853Y-192571242D01*
X264413853Y-192571242D02*
X264413853Y-192785528D01*
X264413853Y-192785528D02*
X264342425Y-192928385D01*
X264342425Y-192928385D02*
X264270996Y-192999814D01*
X264270996Y-192999814D02*
X264128139Y-193071242D01*
X264128139Y-193071242D02*
X263556710Y-193071242D01*
X265628139Y-193714100D02*
X265485282Y-193785528D01*
X265485282Y-193785528D02*
X265199568Y-193785528D01*
X265199568Y-193785528D02*
X265056710Y-193714100D01*
X265056710Y-193714100D02*
X264985282Y-193571242D01*
X264985282Y-193571242D02*
X264985282Y-192999814D01*
X264985282Y-192999814D02*
X265056710Y-192856957D01*
X265056710Y-192856957D02*
X265199568Y-192785528D01*
X265199568Y-192785528D02*
X265485282Y-192785528D01*
X265485282Y-192785528D02*
X265628139Y-192856957D01*
X265628139Y-192856957D02*
X265699568Y-192999814D01*
X265699568Y-192999814D02*
X265699568Y-193142671D01*
X265699568Y-193142671D02*
X264985282Y-193285528D01*
X266199567Y-192785528D02*
X266556710Y-193785528D01*
X266556710Y-193785528D02*
X266913853Y-192785528D01*
X267485281Y-193642671D02*
X267556710Y-193714100D01*
X267556710Y-193714100D02*
X267485281Y-193785528D01*
X267485281Y-193785528D02*
X267413853Y-193714100D01*
X267413853Y-193714100D02*
X267485281Y-193642671D01*
X267485281Y-193642671D02*
X267485281Y-193785528D01*
X267485281Y-192856957D02*
X267556710Y-192928385D01*
X267556710Y-192928385D02*
X267485281Y-192999814D01*
X267485281Y-192999814D02*
X267413853Y-192928385D01*
X267413853Y-192928385D02*
X267485281Y-192856957D01*
X267485281Y-192856957D02*
X267485281Y-192999814D01*
D10*
D11*
X178386598Y-193721900D02*
X178600884Y-193793328D01*
X178600884Y-193793328D02*
X178958026Y-193793328D01*
X178958026Y-193793328D02*
X179100884Y-193721900D01*
X179100884Y-193721900D02*
X179172312Y-193650471D01*
X179172312Y-193650471D02*
X179243741Y-193507614D01*
X179243741Y-193507614D02*
X179243741Y-193364757D01*
X179243741Y-193364757D02*
X179172312Y-193221900D01*
X179172312Y-193221900D02*
X179100884Y-193150471D01*
X179100884Y-193150471D02*
X178958026Y-193079042D01*
X178958026Y-193079042D02*
X178672312Y-193007614D01*
X178672312Y-193007614D02*
X178529455Y-192936185D01*
X178529455Y-192936185D02*
X178458026Y-192864757D01*
X178458026Y-192864757D02*
X178386598Y-192721900D01*
X178386598Y-192721900D02*
X178386598Y-192579042D01*
X178386598Y-192579042D02*
X178458026Y-192436185D01*
X178458026Y-192436185D02*
X178529455Y-192364757D01*
X178529455Y-192364757D02*
X178672312Y-192293328D01*
X178672312Y-192293328D02*
X179029455Y-192293328D01*
X179029455Y-192293328D02*
X179243741Y-192364757D01*
X179886597Y-193793328D02*
X179886597Y-192793328D01*
X179886597Y-192293328D02*
X179815169Y-192364757D01*
X179815169Y-192364757D02*
X179886597Y-192436185D01*
X179886597Y-192436185D02*
X179958026Y-192364757D01*
X179958026Y-192364757D02*
X179886597Y-192293328D01*
X179886597Y-192293328D02*
X179886597Y-192436185D01*
X180458026Y-192793328D02*
X181243741Y-192793328D01*
X181243741Y-192793328D02*
X180458026Y-193793328D01*
X180458026Y-193793328D02*
X181243741Y-193793328D01*
X182386598Y-193721900D02*
X182243741Y-193793328D01*
X182243741Y-193793328D02*
X181958027Y-193793328D01*
X181958027Y-193793328D02*
X181815169Y-193721900D01*
X181815169Y-193721900D02*
X181743741Y-193579042D01*
X181743741Y-193579042D02*
X181743741Y-193007614D01*
X181743741Y-193007614D02*
X181815169Y-192864757D01*
X181815169Y-192864757D02*
X181958027Y-192793328D01*
X181958027Y-192793328D02*
X182243741Y-192793328D01*
X182243741Y-192793328D02*
X182386598Y-192864757D01*
X182386598Y-192864757D02*
X182458027Y-193007614D01*
X182458027Y-193007614D02*
X182458027Y-193150471D01*
X182458027Y-193150471D02*
X181743741Y-193293328D01*
X183100883Y-193650471D02*
X183172312Y-193721900D01*
X183172312Y-193721900D02*
X183100883Y-193793328D01*
X183100883Y-193793328D02*
X183029455Y-193721900D01*
X183029455Y-193721900D02*
X183100883Y-193650471D01*
X183100883Y-193650471D02*
X183100883Y-193793328D01*
X183100883Y-192864757D02*
X183172312Y-192936185D01*
X183172312Y-192936185D02*
X183100883Y-193007614D01*
X183100883Y-193007614D02*
X183029455Y-192936185D01*
X183029455Y-192936185D02*
X183100883Y-192864757D01*
X183100883Y-192864757D02*
X183100883Y-193007614D01*
X184886598Y-193364757D02*
X185600884Y-193364757D01*
X184743741Y-193793328D02*
X185243741Y-192293328D01*
X185243741Y-192293328D02*
X185743741Y-193793328D01*
X186886598Y-192793328D02*
X186886598Y-193793328D01*
X186529455Y-192221900D02*
X186172312Y-193293328D01*
X186172312Y-193293328D02*
X187100883Y-193293328D01*
D10*
D11*
X263458026Y-196593328D02*
X263458026Y-195093328D01*
X264815170Y-196593328D02*
X264815170Y-195093328D01*
X264815170Y-196521900D02*
X264672312Y-196593328D01*
X264672312Y-196593328D02*
X264386598Y-196593328D01*
X264386598Y-196593328D02*
X264243741Y-196521900D01*
X264243741Y-196521900D02*
X264172312Y-196450471D01*
X264172312Y-196450471D02*
X264100884Y-196307614D01*
X264100884Y-196307614D02*
X264100884Y-195879042D01*
X264100884Y-195879042D02*
X264172312Y-195736185D01*
X264172312Y-195736185D02*
X264243741Y-195664757D01*
X264243741Y-195664757D02*
X264386598Y-195593328D01*
X264386598Y-195593328D02*
X264672312Y-195593328D01*
X264672312Y-195593328D02*
X264815170Y-195664757D01*
X265529455Y-196450471D02*
X265600884Y-196521900D01*
X265600884Y-196521900D02*
X265529455Y-196593328D01*
X265529455Y-196593328D02*
X265458027Y-196521900D01*
X265458027Y-196521900D02*
X265529455Y-196450471D01*
X265529455Y-196450471D02*
X265529455Y-196593328D01*
X265529455Y-195664757D02*
X265600884Y-195736185D01*
X265600884Y-195736185D02*
X265529455Y-195807614D01*
X265529455Y-195807614D02*
X265458027Y-195736185D01*
X265458027Y-195736185D02*
X265529455Y-195664757D01*
X265529455Y-195664757D02*
X265529455Y-195807614D01*
X268172313Y-196593328D02*
X267315170Y-196593328D01*
X267743741Y-196593328D02*
X267743741Y-195093328D01*
X267743741Y-195093328D02*
X267600884Y-195307614D01*
X267600884Y-195307614D02*
X267458027Y-195450471D01*
X267458027Y-195450471D02*
X267315170Y-195521900D01*
X269886598Y-195021900D02*
X268600884Y-196950471D01*
X271172313Y-196593328D02*
X270315170Y-196593328D01*
X270743741Y-196593328D02*
X270743741Y-195093328D01*
X270743741Y-195093328D02*
X270600884Y-195307614D01*
X270600884Y-195307614D02*
X270458027Y-195450471D01*
X270458027Y-195450471D02*
X270315170Y-195521900D01*
D10*
D11*
X177002200Y-187507200D02*
X285002200Y-187507200D01*
D10*
D13*
X178693928Y-188211638D02*
X179836785Y-188211638D01*
X179015357Y-190211638D02*
X179265357Y-188211638D01*
X180253452Y-190211638D02*
X180420119Y-188878304D01*
X180503452Y-188211638D02*
X180396309Y-188306876D01*
X180396309Y-188306876D02*
X180479643Y-188402114D01*
X180479643Y-188402114D02*
X180586786Y-188306876D01*
X180586786Y-188306876D02*
X180503452Y-188211638D01*
X180503452Y-188211638D02*
X180479643Y-188402114D01*
X181086786Y-188878304D02*
X181848690Y-188878304D01*
X181455833Y-188211638D02*
X181241548Y-189925923D01*
X181241548Y-189925923D02*
X181312976Y-190116400D01*
X181312976Y-190116400D02*
X181491548Y-190211638D01*
X181491548Y-190211638D02*
X181682024Y-190211638D01*
X182634405Y-190211638D02*
X182455833Y-190116400D01*
X182455833Y-190116400D02*
X182384405Y-189925923D01*
X182384405Y-189925923D02*
X182598690Y-188211638D01*
X184170119Y-190116400D02*
X183967738Y-190211638D01*
X183967738Y-190211638D02*
X183586785Y-190211638D01*
X183586785Y-190211638D02*
X183408214Y-190116400D01*
X183408214Y-190116400D02*
X183336785Y-189925923D01*
X183336785Y-189925923D02*
X183432024Y-189164019D01*
X183432024Y-189164019D02*
X183551071Y-188973542D01*
X183551071Y-188973542D02*
X183753452Y-188878304D01*
X183753452Y-188878304D02*
X184134404Y-188878304D01*
X184134404Y-188878304D02*
X184312976Y-188973542D01*
X184312976Y-188973542D02*
X184384404Y-189164019D01*
X184384404Y-189164019D02*
X184360595Y-189354495D01*
X184360595Y-189354495D02*
X183384404Y-189544971D01*
X185134405Y-190021161D02*
X185217738Y-190116400D01*
X185217738Y-190116400D02*
X185110595Y-190211638D01*
X185110595Y-190211638D02*
X185027262Y-190116400D01*
X185027262Y-190116400D02*
X185134405Y-190021161D01*
X185134405Y-190021161D02*
X185110595Y-190211638D01*
X185265357Y-188973542D02*
X185348690Y-189068780D01*
X185348690Y-189068780D02*
X185241548Y-189164019D01*
X185241548Y-189164019D02*
X185158214Y-189068780D01*
X185158214Y-189068780D02*
X185265357Y-188973542D01*
X185265357Y-188973542D02*
X185241548Y-189164019D01*
D10*
D11*
X178958026Y-185607614D02*
X178458026Y-185607614D01*
X178458026Y-186393328D02*
X178458026Y-184893328D01*
X178458026Y-184893328D02*
X179172312Y-184893328D01*
X179743740Y-186393328D02*
X179743740Y-185393328D01*
X179743740Y-184893328D02*
X179672312Y-184964757D01*
X179672312Y-184964757D02*
X179743740Y-185036185D01*
X179743740Y-185036185D02*
X179815169Y-184964757D01*
X179815169Y-184964757D02*
X179743740Y-184893328D01*
X179743740Y-184893328D02*
X179743740Y-185036185D01*
X180672312Y-186393328D02*
X180529455Y-186321900D01*
X180529455Y-186321900D02*
X180458026Y-186179042D01*
X180458026Y-186179042D02*
X180458026Y-184893328D01*
X181815169Y-186321900D02*
X181672312Y-186393328D01*
X181672312Y-186393328D02*
X181386598Y-186393328D01*
X181386598Y-186393328D02*
X181243740Y-186321900D01*
X181243740Y-186321900D02*
X181172312Y-186179042D01*
X181172312Y-186179042D02*
X181172312Y-185607614D01*
X181172312Y-185607614D02*
X181243740Y-185464757D01*
X181243740Y-185464757D02*
X181386598Y-185393328D01*
X181386598Y-185393328D02*
X181672312Y-185393328D01*
X181672312Y-185393328D02*
X181815169Y-185464757D01*
X181815169Y-185464757D02*
X181886598Y-185607614D01*
X181886598Y-185607614D02*
X181886598Y-185750471D01*
X181886598Y-185750471D02*
X181172312Y-185893328D01*
X182529454Y-186250471D02*
X182600883Y-186321900D01*
X182600883Y-186321900D02*
X182529454Y-186393328D01*
X182529454Y-186393328D02*
X182458026Y-186321900D01*
X182458026Y-186321900D02*
X182529454Y-186250471D01*
X182529454Y-186250471D02*
X182529454Y-186393328D01*
X182529454Y-185464757D02*
X182600883Y-185536185D01*
X182600883Y-185536185D02*
X182529454Y-185607614D01*
X182529454Y-185607614D02*
X182458026Y-185536185D01*
X182458026Y-185536185D02*
X182529454Y-185464757D01*
X182529454Y-185464757D02*
X182529454Y-185607614D01*
X184386597Y-186393328D02*
X184386597Y-184893328D01*
X185100883Y-185393328D02*
X185100883Y-186393328D01*
X185100883Y-185536185D02*
X185172312Y-185464757D01*
X185172312Y-185464757D02*
X185315169Y-185393328D01*
X185315169Y-185393328D02*
X185529455Y-185393328D01*
X185529455Y-185393328D02*
X185672312Y-185464757D01*
X185672312Y-185464757D02*
X185743741Y-185607614D01*
X185743741Y-185607614D02*
X185743741Y-186393328D01*
X186315169Y-185393328D02*
X186672312Y-186393328D01*
X186672312Y-186393328D02*
X187029455Y-185393328D01*
X188172312Y-186321900D02*
X188029455Y-186393328D01*
X188029455Y-186393328D02*
X187743741Y-186393328D01*
X187743741Y-186393328D02*
X187600883Y-186321900D01*
X187600883Y-186321900D02*
X187529455Y-186179042D01*
X187529455Y-186179042D02*
X187529455Y-185607614D01*
X187529455Y-185607614D02*
X187600883Y-185464757D01*
X187600883Y-185464757D02*
X187743741Y-185393328D01*
X187743741Y-185393328D02*
X188029455Y-185393328D01*
X188029455Y-185393328D02*
X188172312Y-185464757D01*
X188172312Y-185464757D02*
X188243741Y-185607614D01*
X188243741Y-185607614D02*
X188243741Y-185750471D01*
X188243741Y-185750471D02*
X187529455Y-185893328D01*
X188886597Y-186393328D02*
X188886597Y-185393328D01*
X188886597Y-185679042D02*
X188958026Y-185536185D01*
X188958026Y-185536185D02*
X189029455Y-185464757D01*
X189029455Y-185464757D02*
X189172312Y-185393328D01*
X189172312Y-185393328D02*
X189315169Y-185393328D01*
X189600883Y-185393328D02*
X190172311Y-185393328D01*
X189815168Y-184893328D02*
X189815168Y-186179042D01*
X189815168Y-186179042D02*
X189886597Y-186321900D01*
X189886597Y-186321900D02*
X190029454Y-186393328D01*
X190029454Y-186393328D02*
X190172311Y-186393328D01*
X191243740Y-186321900D02*
X191100883Y-186393328D01*
X191100883Y-186393328D02*
X190815169Y-186393328D01*
X190815169Y-186393328D02*
X190672311Y-186321900D01*
X190672311Y-186321900D02*
X190600883Y-186179042D01*
X190600883Y-186179042D02*
X190600883Y-185607614D01*
X190600883Y-185607614D02*
X190672311Y-185464757D01*
X190672311Y-185464757D02*
X190815169Y-185393328D01*
X190815169Y-185393328D02*
X191100883Y-185393328D01*
X191100883Y-185393328D02*
X191243740Y-185464757D01*
X191243740Y-185464757D02*
X191315169Y-185607614D01*
X191315169Y-185607614D02*
X191315169Y-185750471D01*
X191315169Y-185750471D02*
X190600883Y-185893328D01*
X191958025Y-186393328D02*
X191958025Y-185393328D01*
X191958025Y-185679042D02*
X192029454Y-185536185D01*
X192029454Y-185536185D02*
X192100883Y-185464757D01*
X192100883Y-185464757D02*
X192243740Y-185393328D01*
X192243740Y-185393328D02*
X192386597Y-185393328D01*
X192886596Y-186250471D02*
X192958025Y-186321900D01*
X192958025Y-186321900D02*
X192886596Y-186393328D01*
X192886596Y-186393328D02*
X192815168Y-186321900D01*
X192815168Y-186321900D02*
X192886596Y-186250471D01*
X192886596Y-186250471D02*
X192886596Y-186393328D01*
X193600882Y-186393328D02*
X193600882Y-184893328D01*
X193743740Y-185821900D02*
X194172311Y-186393328D01*
X194172311Y-185393328D02*
X193600882Y-185964757D01*
X194815168Y-186393328D02*
X194815168Y-185393328D01*
X194815168Y-184893328D02*
X194743740Y-184964757D01*
X194743740Y-184964757D02*
X194815168Y-185036185D01*
X194815168Y-185036185D02*
X194886597Y-184964757D01*
X194886597Y-184964757D02*
X194815168Y-184893328D01*
X194815168Y-184893328D02*
X194815168Y-185036185D01*
X196172312Y-186321900D02*
X196029454Y-186393328D01*
X196029454Y-186393328D02*
X195743740Y-186393328D01*
X195743740Y-186393328D02*
X195600883Y-186321900D01*
X195600883Y-186321900D02*
X195529454Y-186250471D01*
X195529454Y-186250471D02*
X195458026Y-186107614D01*
X195458026Y-186107614D02*
X195458026Y-185679042D01*
X195458026Y-185679042D02*
X195529454Y-185536185D01*
X195529454Y-185536185D02*
X195600883Y-185464757D01*
X195600883Y-185464757D02*
X195743740Y-185393328D01*
X195743740Y-185393328D02*
X196029454Y-185393328D01*
X196029454Y-185393328D02*
X196172312Y-185464757D01*
X197458026Y-186393328D02*
X197458026Y-185607614D01*
X197458026Y-185607614D02*
X197386597Y-185464757D01*
X197386597Y-185464757D02*
X197243740Y-185393328D01*
X197243740Y-185393328D02*
X196958026Y-185393328D01*
X196958026Y-185393328D02*
X196815168Y-185464757D01*
X197458026Y-186321900D02*
X197315168Y-186393328D01*
X197315168Y-186393328D02*
X196958026Y-186393328D01*
X196958026Y-186393328D02*
X196815168Y-186321900D01*
X196815168Y-186321900D02*
X196743740Y-186179042D01*
X196743740Y-186179042D02*
X196743740Y-186036185D01*
X196743740Y-186036185D02*
X196815168Y-185893328D01*
X196815168Y-185893328D02*
X196958026Y-185821900D01*
X196958026Y-185821900D02*
X197315168Y-185821900D01*
X197315168Y-185821900D02*
X197458026Y-185750471D01*
X198815169Y-186393328D02*
X198815169Y-184893328D01*
X198815169Y-186321900D02*
X198672311Y-186393328D01*
X198672311Y-186393328D02*
X198386597Y-186393328D01*
X198386597Y-186393328D02*
X198243740Y-186321900D01*
X198243740Y-186321900D02*
X198172311Y-186250471D01*
X198172311Y-186250471D02*
X198100883Y-186107614D01*
X198100883Y-186107614D02*
X198100883Y-185679042D01*
X198100883Y-185679042D02*
X198172311Y-185536185D01*
X198172311Y-185536185D02*
X198243740Y-185464757D01*
X198243740Y-185464757D02*
X198386597Y-185393328D01*
X198386597Y-185393328D02*
X198672311Y-185393328D01*
X198672311Y-185393328D02*
X198815169Y-185464757D01*
X199172312Y-186536185D02*
X200315169Y-186536185D01*
X200672311Y-185393328D02*
X200672311Y-186893328D01*
X200672311Y-185464757D02*
X200815169Y-185393328D01*
X200815169Y-185393328D02*
X201100883Y-185393328D01*
X201100883Y-185393328D02*
X201243740Y-185464757D01*
X201243740Y-185464757D02*
X201315169Y-185536185D01*
X201315169Y-185536185D02*
X201386597Y-185679042D01*
X201386597Y-185679042D02*
X201386597Y-186107614D01*
X201386597Y-186107614D02*
X201315169Y-186250471D01*
X201315169Y-186250471D02*
X201243740Y-186321900D01*
X201243740Y-186321900D02*
X201100883Y-186393328D01*
X201100883Y-186393328D02*
X200815169Y-186393328D01*
X200815169Y-186393328D02*
X200672311Y-186321900D01*
X202672312Y-186321900D02*
X202529454Y-186393328D01*
X202529454Y-186393328D02*
X202243740Y-186393328D01*
X202243740Y-186393328D02*
X202100883Y-186321900D01*
X202100883Y-186321900D02*
X202029454Y-186250471D01*
X202029454Y-186250471D02*
X201958026Y-186107614D01*
X201958026Y-186107614D02*
X201958026Y-185679042D01*
X201958026Y-185679042D02*
X202029454Y-185536185D01*
X202029454Y-185536185D02*
X202100883Y-185464757D01*
X202100883Y-185464757D02*
X202243740Y-185393328D01*
X202243740Y-185393328D02*
X202529454Y-185393328D01*
X202529454Y-185393328D02*
X202672312Y-185464757D01*
X203315168Y-186393328D02*
X203315168Y-184893328D01*
X203315168Y-185464757D02*
X203458026Y-185393328D01*
X203458026Y-185393328D02*
X203743740Y-185393328D01*
X203743740Y-185393328D02*
X203886597Y-185464757D01*
X203886597Y-185464757D02*
X203958026Y-185536185D01*
X203958026Y-185536185D02*
X204029454Y-185679042D01*
X204029454Y-185679042D02*
X204029454Y-186107614D01*
X204029454Y-186107614D02*
X203958026Y-186250471D01*
X203958026Y-186250471D02*
X203886597Y-186321900D01*
X203886597Y-186321900D02*
X203743740Y-186393328D01*
X203743740Y-186393328D02*
X203458026Y-186393328D01*
X203458026Y-186393328D02*
X203315168Y-186321900D01*
D10*
D11*
X177002200Y-181507200D02*
X285002200Y-181507200D01*
D10*
D11*
X178386598Y-183621900D02*
X178600884Y-183693328D01*
X178600884Y-183693328D02*
X178958026Y-183693328D01*
X178958026Y-183693328D02*
X179100884Y-183621900D01*
X179100884Y-183621900D02*
X179172312Y-183550471D01*
X179172312Y-183550471D02*
X179243741Y-183407614D01*
X179243741Y-183407614D02*
X179243741Y-183264757D01*
X179243741Y-183264757D02*
X179172312Y-183121900D01*
X179172312Y-183121900D02*
X179100884Y-183050471D01*
X179100884Y-183050471D02*
X178958026Y-182979042D01*
X178958026Y-182979042D02*
X178672312Y-182907614D01*
X178672312Y-182907614D02*
X178529455Y-182836185D01*
X178529455Y-182836185D02*
X178458026Y-182764757D01*
X178458026Y-182764757D02*
X178386598Y-182621900D01*
X178386598Y-182621900D02*
X178386598Y-182479042D01*
X178386598Y-182479042D02*
X178458026Y-182336185D01*
X178458026Y-182336185D02*
X178529455Y-182264757D01*
X178529455Y-182264757D02*
X178672312Y-182193328D01*
X178672312Y-182193328D02*
X179029455Y-182193328D01*
X179029455Y-182193328D02*
X179243741Y-182264757D01*
X179886597Y-183693328D02*
X179886597Y-182193328D01*
X180529455Y-183693328D02*
X180529455Y-182907614D01*
X180529455Y-182907614D02*
X180458026Y-182764757D01*
X180458026Y-182764757D02*
X180315169Y-182693328D01*
X180315169Y-182693328D02*
X180100883Y-182693328D01*
X180100883Y-182693328D02*
X179958026Y-182764757D01*
X179958026Y-182764757D02*
X179886597Y-182836185D01*
X181815169Y-183621900D02*
X181672312Y-183693328D01*
X181672312Y-183693328D02*
X181386598Y-183693328D01*
X181386598Y-183693328D02*
X181243740Y-183621900D01*
X181243740Y-183621900D02*
X181172312Y-183479042D01*
X181172312Y-183479042D02*
X181172312Y-182907614D01*
X181172312Y-182907614D02*
X181243740Y-182764757D01*
X181243740Y-182764757D02*
X181386598Y-182693328D01*
X181386598Y-182693328D02*
X181672312Y-182693328D01*
X181672312Y-182693328D02*
X181815169Y-182764757D01*
X181815169Y-182764757D02*
X181886598Y-182907614D01*
X181886598Y-182907614D02*
X181886598Y-183050471D01*
X181886598Y-183050471D02*
X181172312Y-183193328D01*
X183100883Y-183621900D02*
X182958026Y-183693328D01*
X182958026Y-183693328D02*
X182672312Y-183693328D01*
X182672312Y-183693328D02*
X182529454Y-183621900D01*
X182529454Y-183621900D02*
X182458026Y-183479042D01*
X182458026Y-183479042D02*
X182458026Y-182907614D01*
X182458026Y-182907614D02*
X182529454Y-182764757D01*
X182529454Y-182764757D02*
X182672312Y-182693328D01*
X182672312Y-182693328D02*
X182958026Y-182693328D01*
X182958026Y-182693328D02*
X183100883Y-182764757D01*
X183100883Y-182764757D02*
X183172312Y-182907614D01*
X183172312Y-182907614D02*
X183172312Y-183050471D01*
X183172312Y-183050471D02*
X182458026Y-183193328D01*
X183600883Y-182693328D02*
X184172311Y-182693328D01*
X183815168Y-182193328D02*
X183815168Y-183479042D01*
X183815168Y-183479042D02*
X183886597Y-183621900D01*
X183886597Y-183621900D02*
X184029454Y-183693328D01*
X184029454Y-183693328D02*
X184172311Y-183693328D01*
X184672311Y-183550471D02*
X184743740Y-183621900D01*
X184743740Y-183621900D02*
X184672311Y-183693328D01*
X184672311Y-183693328D02*
X184600883Y-183621900D01*
X184600883Y-183621900D02*
X184672311Y-183550471D01*
X184672311Y-183550471D02*
X184672311Y-183693328D01*
X184672311Y-182764757D02*
X184743740Y-182836185D01*
X184743740Y-182836185D02*
X184672311Y-182907614D01*
X184672311Y-182907614D02*
X184600883Y-182836185D01*
X184600883Y-182836185D02*
X184672311Y-182764757D01*
X184672311Y-182764757D02*
X184672311Y-182907614D01*
D10*
D12*
D10*
D11*
D10*
D11*
D10*
D11*
D10*
D11*
D10*
D11*
X197002200Y-191507200D02*
X197002200Y-194507200D01*
D10*
D11*
X261002200Y-191507200D02*
X261002200Y-198007200D01*
D14*
%TO.C,H4*%
X242200000Y-35600000D03*
%TD*%
%TO.C,H3*%
X242500000Y-142000000D03*
%TD*%
%TO.C,H2*%
X68300000Y-132100000D03*
%TD*%
%TO.C,H1*%
X40800000Y-35700000D03*
%TD*%
D15*
%TO.C,J3*%
X237700000Y-108480000D03*
D16*
X237700000Y-103400000D03*
%TD*%
D17*
%TO.C,Q27*%
X146337400Y-66495200D03*
D18*
X146337400Y-63955200D03*
X146337400Y-61415200D03*
%TD*%
D19*
%TO.C,R1*%
X198100000Y-101520000D03*
D20*
X198100000Y-111680000D03*
%TD*%
D21*
%TO.C,D17*%
X82077400Y-122872800D03*
D19*
X82077400Y-130492800D03*
%TD*%
D22*
%TO.C,Q6*%
X104220000Y-38580000D03*
D23*
X106760000Y-38580000D03*
X109300000Y-38580000D03*
%TD*%
D21*
%TO.C,C2*%
X132018821Y-95400400D03*
D20*
X134518821Y-95400400D03*
%TD*%
%TO.C,R15*%
X220300000Y-59000000D03*
D19*
X220300000Y-43760000D03*
%TD*%
D20*
%TO.C,R29*%
X167900000Y-119560000D03*
D19*
X167900000Y-134800000D03*
%TD*%
D20*
%TO.C,R21*%
X180600000Y-59500000D03*
D19*
X180600000Y-44260000D03*
%TD*%
D17*
%TO.C,Q29*%
X105214800Y-67511200D03*
D18*
X105214800Y-64971200D03*
X105214800Y-62431200D03*
%TD*%
D21*
%TO.C,D10*%
X120609200Y-123355400D03*
D19*
X120609200Y-130975400D03*
%TD*%
D20*
%TO.C,R13*%
X129200000Y-57300000D03*
D19*
X129200000Y-42060000D03*
%TD*%
D21*
%TO.C,D32*%
X161600000Y-53590000D03*
D19*
X161600000Y-45970000D03*
%TD*%
D22*
%TO.C,Q20*%
X231600000Y-39200000D03*
D23*
X234140000Y-39200000D03*
X236680000Y-39200000D03*
%TD*%
D21*
%TO.C,D9*%
X133283800Y-123203000D03*
D19*
X133283800Y-130823000D03*
%TD*%
D20*
%TO.C,R48*%
X204900000Y-112480000D03*
D19*
X204900000Y-102320000D03*
%TD*%
D21*
%TO.C,C3*%
X132072800Y-104036400D03*
D20*
X134572800Y-104036400D03*
%TD*%
%TO.C,C19*%
X58450000Y-71280000D03*
X55950000Y-71280000D03*
%TD*%
D22*
%TO.C,Q22*%
X182800000Y-139280000D03*
D23*
X180260000Y-139280000D03*
X177720000Y-139280000D03*
%TD*%
D18*
%TO.C,Q32*%
X192918400Y-98573600D03*
X192918400Y-96033600D03*
D17*
X192918400Y-93493600D03*
%TD*%
D21*
%TO.C,D8*%
X145729800Y-122542600D03*
D19*
X145729800Y-130162600D03*
%TD*%
D22*
%TO.C,Q17*%
X113900000Y-139080000D03*
D23*
X111360000Y-139080000D03*
X108820000Y-139080000D03*
%TD*%
D20*
%TO.C,R47*%
X152400000Y-93500000D03*
D19*
X152400000Y-78260000D03*
%TD*%
D20*
%TO.C,R22*%
X193700000Y-59600000D03*
D19*
X193700000Y-44360000D03*
%TD*%
D20*
%TO.C,R37*%
X106000000Y-80760000D03*
D19*
X106000000Y-70600000D03*
%TD*%
D20*
%TO.C,C21*%
X75200000Y-119080000D03*
X72700000Y-119080000D03*
%TD*%
D21*
%TO.C,D15*%
X107706000Y-123965000D03*
D19*
X107706000Y-131585000D03*
%TD*%
D20*
%TO.C,C16*%
X52150000Y-94580000D03*
X52150000Y-97080000D03*
%TD*%
D21*
%TO.C,D18*%
X109700000Y-55490000D03*
D19*
X109700000Y-47870000D03*
%TD*%
D17*
%TO.C,Q30*%
X112834800Y-67790600D03*
D18*
X112834800Y-65250600D03*
X112834800Y-62710600D03*
%TD*%
D20*
%TO.C,C13*%
X79400000Y-96480000D03*
X79400000Y-93980000D03*
%TD*%
D21*
%TO.C,D16*%
X94523400Y-122491800D03*
D19*
X94523400Y-130111800D03*
%TD*%
D20*
%TO.C,R32*%
X146409200Y-79525400D03*
D19*
X146409200Y-69365400D03*
%TD*%
%TO.C,R40*%
X193020000Y-101520000D03*
D20*
X193020000Y-111680000D03*
%TD*%
D21*
%TO.C,D12*%
X177158400Y-122364800D03*
D19*
X177158400Y-129984800D03*
%TD*%
D21*
%TO.C,C1*%
X132095021Y-86688200D03*
D20*
X134595021Y-86688200D03*
%TD*%
D22*
%TO.C,Q16*%
X194020000Y-38880000D03*
D23*
X196560000Y-38880000D03*
X199100000Y-38880000D03*
%TD*%
D21*
%TO.C,D21*%
X203800000Y-123370000D03*
D19*
X203800000Y-130990000D03*
%TD*%
D20*
%TO.C,R28*%
X240700000Y-45060000D03*
D19*
X240700000Y-60300000D03*
%TD*%
%TO.C,R38*%
X196533000Y-73818800D03*
D20*
X196533000Y-89058800D03*
%TD*%
%TO.C,R34*%
X144732800Y-99972400D03*
D19*
X144732800Y-84732400D03*
%TD*%
D22*
%TO.C,Q12*%
X224500000Y-139080000D03*
D23*
X221960000Y-139080000D03*
X219420000Y-139080000D03*
%TD*%
D21*
%TO.C,D19*%
X97200000Y-55700000D03*
D19*
X97200000Y-48080000D03*
%TD*%
D24*
%TO.C,Y2*%
X86200000Y-97080000D03*
X86200000Y-88580000D03*
%TD*%
D21*
%TO.C,D33*%
X200100000Y-55490000D03*
D19*
X200100000Y-47870000D03*
%TD*%
D20*
%TO.C,R2*%
X88224200Y-118580200D03*
D19*
X88224200Y-133820200D03*
%TD*%
D21*
%TO.C,D7*%
X123000000Y-53990000D03*
D19*
X123000000Y-46370000D03*
%TD*%
D20*
%TO.C,R16*%
X233200000Y-59300000D03*
D19*
X233200000Y-44060000D03*
%TD*%
D20*
%TO.C,C15*%
X64150000Y-119280000D03*
X61650000Y-119280000D03*
%TD*%
D21*
%TO.C,D14*%
X189900000Y-123160000D03*
D19*
X189900000Y-130780000D03*
%TD*%
D17*
%TO.C,Q28*%
X151921000Y-64666400D03*
D18*
X154461000Y-64666400D03*
X157001000Y-64666400D03*
%TD*%
D22*
%TO.C,Q10*%
X150500000Y-139080000D03*
D23*
X147960000Y-139080000D03*
X145420000Y-139080000D03*
%TD*%
D25*
%TO.C,C20*%
X215200000Y-92280000D03*
X230200000Y-92280000D03*
%TD*%
D22*
%TO.C,Q4*%
X102000000Y-139180000D03*
D23*
X99460000Y-139180000D03*
X96920000Y-139180000D03*
%TD*%
D20*
%TO.C,R8*%
X102300000Y-58600000D03*
D19*
X102300000Y-43360000D03*
%TD*%
D18*
%TO.C,Q34*%
X204100000Y-88620000D03*
X204100000Y-86080000D03*
D17*
X204100000Y-83540000D03*
%TD*%
D20*
%TO.C,R9*%
X116800000Y-57400000D03*
D19*
X116800000Y-42160000D03*
%TD*%
D20*
%TO.C,R17*%
X208900000Y-118760000D03*
D19*
X208900000Y-134000000D03*
%TD*%
D21*
%TO.C,C9*%
X180126421Y-85680000D03*
D20*
X182626421Y-85680000D03*
%TD*%
D26*
%TO.C,D30*%
X68150000Y-78630000D03*
X68150000Y-83130000D03*
%TD*%
D20*
%TO.C,R19*%
X236200000Y-118160000D03*
D19*
X236200000Y-133400000D03*
%TD*%
D27*
%TO.C,C6*%
X161100000Y-103380000D03*
X166700000Y-103380000D03*
%TD*%
D22*
%TO.C,Q13*%
X236400000Y-138880000D03*
D23*
X233860000Y-138880000D03*
X231320000Y-138880000D03*
%TD*%
D20*
%TO.C,R18*%
X222200000Y-118560000D03*
D19*
X222200000Y-133800000D03*
%TD*%
D17*
%TO.C,Q3*%
X120933000Y-64823200D03*
D18*
X123473000Y-64823200D03*
X126013000Y-64823200D03*
%TD*%
D20*
%TO.C,R45*%
X43266600Y-59699000D03*
D19*
X43266600Y-74939000D03*
%TD*%
D20*
%TO.C,R33*%
X165535400Y-85926200D03*
D19*
X165535400Y-70686200D03*
%TD*%
D22*
%TO.C,Q14*%
X167820000Y-38480000D03*
D23*
X170360000Y-38480000D03*
X172900000Y-38480000D03*
%TD*%
D20*
%TO.C,R25*%
X98520000Y-108600000D03*
D19*
X83280000Y-108600000D03*
%TD*%
D28*
%TO.C,D26*%
X174400000Y-79000000D03*
D29*
X174400000Y-89160000D03*
%TD*%
D28*
%TO.C,D27*%
X85240000Y-82480000D03*
D29*
X95400000Y-82480000D03*
%TD*%
D19*
%TO.C,R26*%
X241900000Y-119660000D03*
D20*
X241900000Y-134900000D03*
%TD*%
%TO.C,R36*%
X99317600Y-81735200D03*
D19*
X99317600Y-66495200D03*
%TD*%
D30*
%TO.C,D29*%
X78100000Y-60880000D03*
X80900000Y-60880000D03*
%TD*%
D20*
%TO.C,R7*%
X91100000Y-58513600D03*
D19*
X91100000Y-43273600D03*
%TD*%
D22*
%TO.C,Q9*%
X138600000Y-139180000D03*
D23*
X136060000Y-139180000D03*
X133520000Y-139180000D03*
%TD*%
D31*
%TO.C,T1*%
X218300000Y-77440000D03*
X218300000Y-79980000D03*
X221730000Y-79980000D03*
X221730000Y-78710000D03*
X221730000Y-77440000D03*
%TD*%
D20*
%TO.C,R46*%
X140980000Y-107280000D03*
D19*
X156220000Y-107280000D03*
%TD*%
D20*
%TO.C,C8*%
X117400000Y-82430000D03*
X117400000Y-84930000D03*
%TD*%
%TO.C,R12*%
X151851200Y-118148400D03*
D19*
X151851200Y-133388400D03*
%TD*%
D20*
%TO.C,R30*%
X181900000Y-119160000D03*
D19*
X181900000Y-134400000D03*
%TD*%
D20*
%TO.C,R6*%
X114259200Y-119926400D03*
D19*
X114259200Y-135166400D03*
%TD*%
D20*
%TO.C,R4*%
X100848000Y-119012000D03*
D19*
X100848000Y-134252000D03*
%TD*%
D17*
%TO.C,Q33*%
X151946400Y-72544800D03*
D18*
X154486400Y-72544800D03*
X157026400Y-72544800D03*
%TD*%
D21*
%TO.C,D36*%
X231184200Y-124142800D03*
D19*
X231184200Y-131762800D03*
%TD*%
D22*
%TO.C,Q26*%
X151820000Y-38080000D03*
D23*
X154360000Y-38080000D03*
X156900000Y-38080000D03*
%TD*%
D22*
%TO.C,Q8*%
X126300000Y-139080000D03*
D23*
X123760000Y-139080000D03*
X121220000Y-139080000D03*
%TD*%
D32*
%TO.C,J1*%
X55650000Y-112380000D03*
X55650000Y-107780000D03*
D33*
X58400000Y-113580000D03*
X58400000Y-111080000D03*
X58400000Y-109080000D03*
X58400000Y-106580000D03*
D34*
X55650000Y-115780000D03*
X55650000Y-104380000D03*
%TD*%
D20*
%TO.C,R35*%
X92866000Y-78890400D03*
D19*
X92866000Y-63650400D03*
%TD*%
D28*
%TO.C,D1*%
X125073200Y-94790800D03*
D29*
X125073200Y-104950800D03*
%TD*%
D20*
%TO.C,C10*%
X73649000Y-89503000D03*
X76149000Y-89503000D03*
%TD*%
D21*
%TO.C,D13*%
X173500000Y-53490000D03*
D19*
X173500000Y-45870000D03*
%TD*%
D18*
%TO.C,Q31*%
X196503200Y-70262800D03*
X196503200Y-67722800D03*
D17*
X196503200Y-65182800D03*
%TD*%
D22*
%TO.C,Q5*%
X92420000Y-38580000D03*
D23*
X94960000Y-38580000D03*
X97500000Y-38580000D03*
%TD*%
D20*
%TO.C,C11*%
X81400000Y-89530000D03*
X78900000Y-89530000D03*
%TD*%
D22*
%TO.C,Q24*%
X128720000Y-37980000D03*
D23*
X131260000Y-37980000D03*
X133800000Y-37980000D03*
%TD*%
D20*
%TO.C,C12*%
X75200000Y-96280000D03*
X75200000Y-93780000D03*
%TD*%
D21*
%TO.C,D5*%
X147100000Y-52190000D03*
D19*
X147100000Y-44570000D03*
%TD*%
D20*
%TO.C,R23*%
X140000000Y-57500000D03*
D19*
X140000000Y-42260000D03*
%TD*%
D35*
%TO.C,U3*%
X67650000Y-103260000D03*
X67650000Y-104530000D03*
X67650000Y-105800000D03*
X67650000Y-107070000D03*
X67650000Y-108340000D03*
X67650000Y-109610000D03*
X67650000Y-110880000D03*
X67650000Y-112150000D03*
X72600000Y-112150000D03*
X72600000Y-110880000D03*
X72600000Y-109610000D03*
X72600000Y-108340000D03*
X72600000Y-107070000D03*
X72600000Y-105800000D03*
X72600000Y-104530000D03*
X72600000Y-103260000D03*
%TD*%
D20*
%TO.C,R27*%
X143020000Y-78480000D03*
D19*
X127780000Y-78480000D03*
%TD*%
D20*
%TO.C,C18*%
X39950000Y-83080000D03*
X42450000Y-83080000D03*
%TD*%
%TO.C,R11*%
X139176600Y-119139000D03*
D19*
X139176600Y-134379000D03*
%TD*%
D36*
%TO.C,U1*%
X61307800Y-53794800D03*
D37*
X61220300Y-52294800D03*
D36*
X61307800Y-50794800D03*
%TD*%
D20*
%TO.C,R5*%
X118600000Y-90460000D03*
D19*
X118600000Y-105700000D03*
%TD*%
D20*
%TO.C,R10*%
X126095600Y-119951800D03*
D19*
X126095600Y-135191800D03*
%TD*%
D22*
%TO.C,Q2*%
X90300000Y-139180000D03*
D23*
X87760000Y-139180000D03*
X85220000Y-139180000D03*
%TD*%
D20*
%TO.C,R41*%
X75719000Y-60939400D03*
D19*
X65559000Y-60939400D03*
%TD*%
D20*
%TO.C,R44*%
X58070000Y-86080000D03*
D19*
X68230000Y-86080000D03*
%TD*%
D27*
%TO.C,C7*%
X161000000Y-112180000D03*
X166400000Y-112180000D03*
%TD*%
D20*
%TO.C,R14*%
X208000000Y-58400000D03*
D19*
X208000000Y-43160000D03*
%TD*%
%TO.C,R39*%
X189800000Y-70660000D03*
D20*
X189800000Y-85900000D03*
%TD*%
D21*
%TO.C,D20*%
X86161000Y-55770400D03*
D19*
X86161000Y-48150400D03*
%TD*%
D22*
%TO.C,Q11*%
X209900000Y-139180000D03*
D23*
X207360000Y-139180000D03*
X204820000Y-139180000D03*
%TD*%
D22*
%TO.C,Q7*%
X116820000Y-38380000D03*
D23*
X119360000Y-38380000D03*
X121900000Y-38380000D03*
%TD*%
D22*
%TO.C,Q15*%
X180820000Y-38880000D03*
D23*
X183360000Y-38880000D03*
X185900000Y-38880000D03*
%TD*%
D20*
%TO.C,R20*%
X167100000Y-58000000D03*
D19*
X167100000Y-42760000D03*
%TD*%
D15*
%TO.C,J2*%
X44650000Y-45935000D03*
D16*
X44650000Y-51015000D03*
%TD*%
D20*
%TO.C,R43*%
X78039000Y-46659400D03*
D19*
X78039000Y-56819400D03*
%TD*%
D21*
%TO.C,C22*%
X179500000Y-95680000D03*
D20*
X182000000Y-95680000D03*
%TD*%
%TO.C,R42*%
X70239000Y-47259400D03*
D19*
X70239000Y-57419400D03*
%TD*%
D38*
%TO.C,U2*%
X46100000Y-80430000D03*
X46100000Y-81230000D03*
X46100000Y-82030000D03*
X46100000Y-82830000D03*
X46100000Y-83630000D03*
X46100000Y-84430000D03*
X46100000Y-85230000D03*
X46100000Y-86030000D03*
D39*
X47550000Y-87480000D03*
X48350000Y-87480000D03*
X49150000Y-87480000D03*
X49950000Y-87480000D03*
X50750000Y-87480000D03*
X51550000Y-87480000D03*
X52350000Y-87480000D03*
X53150000Y-87480000D03*
D38*
X54600000Y-86030000D03*
X54600000Y-85230000D03*
X54600000Y-84430000D03*
X54600000Y-83630000D03*
X54600000Y-82830000D03*
X54600000Y-82030000D03*
X54600000Y-81230000D03*
X54600000Y-80430000D03*
D39*
X53150000Y-78980000D03*
X52350000Y-78980000D03*
X51550000Y-78980000D03*
X50750000Y-78980000D03*
X49950000Y-78980000D03*
X49150000Y-78980000D03*
X48350000Y-78980000D03*
X47550000Y-78980000D03*
%TD*%
D21*
%TO.C,D6*%
X134900000Y-55090000D03*
D19*
X134900000Y-47470000D03*
%TD*%
D21*
%TO.C,D31*%
X187100000Y-55090000D03*
D19*
X187100000Y-47470000D03*
%TD*%
D21*
%TO.C,D35*%
X226600000Y-54590000D03*
D19*
X226600000Y-46970000D03*
%TD*%
D22*
%TO.C,Q21*%
X169400000Y-139380000D03*
D23*
X166860000Y-139380000D03*
X164320000Y-139380000D03*
%TD*%
D20*
%TO.C,R24*%
X153500000Y-57700000D03*
D19*
X153500000Y-42460000D03*
%TD*%
D22*
%TO.C,Q18*%
X208220000Y-39080000D03*
D23*
X210760000Y-39080000D03*
X213300000Y-39080000D03*
%TD*%
D20*
%TO.C,C1*%
X58408400Y-95436800D03*
X60908400Y-95436800D03*
%TD*%
D24*
%TO.C,Y1*%
X41750000Y-91030000D03*
X41750000Y-99530000D03*
%TD*%
D22*
%TO.C,Q23*%
X196380000Y-139280000D03*
D23*
X193840000Y-139280000D03*
X191300000Y-139280000D03*
%TD*%
D22*
%TO.C,Q19*%
X220620000Y-39180000D03*
D23*
X223160000Y-39180000D03*
X225700000Y-39180000D03*
%TD*%
D21*
%TO.C,D34*%
X213700000Y-56500000D03*
D19*
X213700000Y-48880000D03*
%TD*%
D20*
%TO.C,C14*%
X66050000Y-95480000D03*
X68550000Y-95480000D03*
%TD*%
D21*
%TO.C,C4*%
X179974021Y-75680000D03*
D20*
X182474021Y-75680000D03*
%TD*%
%TO.C,R31*%
X195000000Y-118360000D03*
D19*
X195000000Y-133600000D03*
%TD*%
D22*
%TO.C,Q25*%
X139820000Y-37980000D03*
D23*
X142360000Y-37980000D03*
X144900000Y-37980000D03*
%TD*%
D27*
%TO.C,C5*%
X161100000Y-94580000D03*
X166700000Y-94580000D03*
%TD*%
D28*
%TO.C,D28*%
X65839000Y-47059400D03*
D29*
X65839000Y-57219400D03*
%TD*%
D18*
%TO.C,Q1*%
X203586400Y-95220800D03*
X201046400Y-95220800D03*
D17*
X198506400Y-95220800D03*
%TD*%
D20*
%TO.C,R3*%
X115802200Y-71753000D03*
D19*
X131042200Y-71753000D03*
%TD*%
D21*
%TO.C,D11*%
X163010600Y-123787200D03*
D19*
X163010600Y-131407200D03*
%TD*%
D21*
%TO.C,D22*%
X217600000Y-122460000D03*
D19*
X217600000Y-130080000D03*
%TD*%
D20*
%TO.C,C17*%
X63900000Y-70880000D03*
X66400000Y-70880000D03*
%TD*%
M02*
