M48
; DRILL file {KiCad 7.0.10} date Sat May 18 21:04:31 2024
; FORMAT={-:-/ absolute / metric / decimal}
; #@! TF.CreationDate,2024-05-18T21:04:31+03:00
; #@! TF.GenerationSoftware,Kicad,Pcbnew,7.0.10
; #@! TF.FileFunction,Plated,1,2,PTH
FMAT,2
METRIC
; #@! TA.AperFunction,Plated,PTH,ViaDrill
T1C0.300
; #@! TA.AperFunction,Plated,PTH,ViaDrill
T2C0.400
; #@! TA.AperFunction,Plated,PTH,ComponentDrill
T3C0.800
; #@! TA.AperFunction,Plated,PTH,ComponentDrill
T4C0.900
; #@! TA.AperFunction,Plated,PTH,ComponentDrill
T5C1.100
; #@! TA.AperFunction,Plated,PTH,ComponentDrill
T6C1.200
; #@! TA.AperFunction,Plated,PTH,ComponentDrill
T7C1.300
%
G90
G05
T1
X47.3Y-94.9
X47.9Y-83.6
X49.7Y-94.2
X51.2Y-84.9
X52.0Y-85.1
X52.6Y-81.5
X53.0Y-84.9
X53.8Y-114.0
X63.4Y-103.7
X63.845Y-103.155
X69.0Y-76.5
X69.3Y-107.1
X70.6Y-73.0
X71.7Y-92.4
X91.2Y-96.2
X100.3Y-72.8
X102.1Y-81.3
X105.4Y-90.9
X107.3Y-87.6
X109.8Y-77.1
X113.6Y-81.9
X131.9Y-125.8
X132.3Y-68.9
X134.4Y-78.1
X135.4Y-74.8
X140.7Y-94.8
X145.7Y-119.9
X145.9Y-89.6
X149.9Y-113.6
X158.6Y-77.3
X170.9Y-97.9
X184.7Y-70.2
X186.3Y-89.6
X188.0Y-67.8
X188.0Y-79.7
X199.24Y-77.44
X204.9Y-118.6
T2
X46.0Y-89.5
X47.6Y-85.9
X63.1Y-95.5
X65.5Y-90.7
X75.1Y-102.7
X75.9Y-87.3
X77.6Y-98.3
T3
X39.95Y-83.08
X42.45Y-83.08
X43.267Y-59.699
X43.267Y-74.939
X52.15Y-94.58
X52.15Y-97.08
X55.95Y-71.28
X58.07Y-86.08
X58.408Y-95.437
X58.45Y-71.28
X60.908Y-95.437
X61.65Y-119.28
X63.9Y-70.88
X64.15Y-119.28
X65.559Y-60.939
X66.05Y-95.48
X66.4Y-70.88
X68.23Y-86.08
X68.55Y-95.48
X70.239Y-47.259
X70.239Y-57.419
X72.7Y-119.08
X73.649Y-89.503
X75.2Y-93.78
X75.2Y-96.28
X75.2Y-119.08
X75.719Y-60.939
X76.149Y-89.503
X78.039Y-46.659
X78.039Y-56.819
X78.9Y-89.53
X79.4Y-93.98
X79.4Y-96.48
X81.4Y-89.53
X82.077Y-122.873
X82.077Y-130.493
X83.28Y-108.6
X86.161Y-48.15
X86.161Y-55.77
X88.224Y-118.58
X88.224Y-133.82
X91.1Y-43.274
X91.1Y-58.514
X92.866Y-63.65
X92.866Y-78.89
X94.523Y-122.492
X94.523Y-130.112
X97.2Y-48.08
X97.2Y-55.7
X98.52Y-108.6
X99.318Y-66.495
X99.318Y-81.735
X100.848Y-119.012
X100.848Y-134.252
X102.3Y-43.36
X102.3Y-58.6
X105.215Y-62.431
X105.215Y-64.971
X105.215Y-67.511
X106.0Y-70.6
X106.0Y-80.76
X107.706Y-123.965
X107.706Y-131.585
X109.7Y-47.87
X109.7Y-55.49
X112.835Y-62.711
X112.835Y-65.251
X112.835Y-67.791
X114.259Y-119.926
X114.259Y-135.166
X115.802Y-71.753
X116.8Y-42.16
X116.8Y-57.4
X117.4Y-82.43
X117.4Y-84.93
X118.6Y-90.46
X118.6Y-105.7
X120.609Y-123.355
X120.609Y-130.975
X120.933Y-64.823
X123.0Y-46.37
X123.0Y-53.99
X123.473Y-64.823
X126.013Y-64.823
X126.096Y-119.952
X126.096Y-135.192
X127.78Y-78.48
X129.2Y-42.06
X129.2Y-57.3
X131.042Y-71.753
X132.019Y-95.4
X132.073Y-104.036
X132.095Y-86.688
X133.284Y-123.203
X133.284Y-130.823
X134.519Y-95.4
X134.573Y-104.036
X134.595Y-86.688
X134.9Y-47.47
X134.9Y-55.09
X139.177Y-119.139
X139.177Y-134.379
X140.0Y-42.26
X140.0Y-57.5
X140.98Y-107.28
X143.02Y-78.48
X144.733Y-84.732
X144.733Y-99.972
X145.73Y-122.543
X145.73Y-130.163
X146.337Y-61.415
X146.337Y-63.955
X146.337Y-66.495
X146.409Y-69.365
X146.409Y-79.525
X147.1Y-44.57
X147.1Y-52.19
X151.851Y-118.148
X151.851Y-133.388
X151.921Y-64.666
X151.946Y-72.545
X152.4Y-78.26
X152.4Y-93.5
X153.5Y-42.46
X153.5Y-57.7
X154.461Y-64.666
X154.486Y-72.545
X156.22Y-107.28
X157.001Y-64.666
X157.026Y-72.545
X161.6Y-45.97
X161.6Y-53.59
X163.011Y-123.787
X163.011Y-131.407
X165.535Y-70.686
X165.535Y-85.926
X167.1Y-42.76
X167.1Y-58.0
X167.9Y-119.56
X167.9Y-134.8
X173.5Y-45.87
X173.5Y-53.49
X177.158Y-122.365
X177.158Y-129.985
X179.5Y-95.68
X179.974Y-75.68
X180.126Y-85.68
X180.6Y-44.26
X180.6Y-59.5
X181.9Y-119.16
X181.9Y-134.4
X182.0Y-95.68
X182.474Y-75.68
X182.626Y-85.68
X187.1Y-47.47
X187.1Y-55.09
X189.8Y-70.66
X189.8Y-85.9
X189.9Y-123.16
X189.9Y-130.78
X192.918Y-93.494
X192.918Y-96.034
X192.918Y-98.574
X193.02Y-101.52
X193.02Y-111.68
X193.7Y-44.36
X193.7Y-59.6
X195.0Y-118.36
X195.0Y-133.6
X196.503Y-65.183
X196.503Y-67.723
X196.503Y-70.263
X196.533Y-73.819
X196.533Y-89.059
X198.1Y-101.52
X198.1Y-111.68
X198.506Y-95.221
X200.1Y-47.87
X200.1Y-55.49
X201.046Y-95.221
X203.586Y-95.221
X203.8Y-123.37
X203.8Y-130.99
X204.1Y-83.54
X204.1Y-86.08
X204.1Y-88.62
X204.9Y-102.32
X204.9Y-112.48
X208.0Y-43.16
X208.0Y-58.4
X208.9Y-118.76
X208.9Y-134.0
X213.7Y-48.88
X213.7Y-56.5
X217.6Y-122.46
X217.6Y-130.08
X220.3Y-43.76
X220.3Y-59.0
X222.2Y-118.56
X222.2Y-133.8
X226.6Y-46.97
X226.6Y-54.59
X231.184Y-124.143
X231.184Y-131.763
X233.2Y-44.06
X233.2Y-59.3
X236.2Y-118.16
X236.2Y-133.4
X240.7Y-45.06
X240.7Y-60.3
X241.9Y-119.66
X241.9Y-134.9
T5
X65.839Y-47.059
X65.839Y-57.219
X85.22Y-139.18
X85.24Y-82.48
X87.76Y-139.18
X90.3Y-139.18
X92.42Y-38.58
X94.96Y-38.58
X95.4Y-82.48
X96.92Y-139.18
X97.5Y-38.58
X99.46Y-139.18
X102.0Y-139.18
X104.22Y-38.58
X106.76Y-38.58
X108.82Y-139.08
X109.3Y-38.58
X111.36Y-139.08
X113.9Y-139.08
X116.82Y-38.38
X119.36Y-38.38
X121.22Y-139.08
X121.9Y-38.38
X123.76Y-139.08
X125.073Y-94.791
X125.073Y-104.951
X126.3Y-139.08
X128.72Y-37.98
X131.26Y-37.98
X133.52Y-139.18
X133.8Y-37.98
X136.06Y-139.18
X138.6Y-139.18
X139.82Y-37.98
X142.36Y-37.98
X144.9Y-37.98
X145.42Y-139.08
X147.96Y-139.08
X150.5Y-139.08
X151.82Y-38.08
X154.36Y-38.08
X156.9Y-38.08
X164.32Y-139.38
X166.86Y-139.38
X167.82Y-38.48
X169.4Y-139.38
X170.36Y-38.48
X172.9Y-38.48
X174.4Y-79.0
X174.4Y-89.16
X177.72Y-139.28
X180.26Y-139.28
X180.82Y-38.88
X182.8Y-139.28
X183.36Y-38.88
X185.9Y-38.88
X191.3Y-139.28
X193.84Y-139.28
X194.02Y-38.88
X196.38Y-139.28
X196.56Y-38.88
X199.1Y-38.88
X204.82Y-139.18
X207.36Y-139.18
X208.22Y-39.08
X209.9Y-139.18
X210.76Y-39.08
X213.3Y-39.08
X219.42Y-139.08
X220.62Y-39.18
X221.96Y-139.08
X223.16Y-39.18
X224.5Y-139.08
X225.7Y-39.18
X231.32Y-138.88
X231.6Y-39.2
X233.86Y-138.88
X234.14Y-39.2
X236.4Y-138.88
X236.68Y-39.2
T6
X215.2Y-92.28
X230.2Y-92.28
T7
X44.65Y-45.935
X44.65Y-51.015
X237.7Y-103.4
X237.7Y-108.48
T4
G00X56.45Y-104.38
M15
G01X54.85Y-104.38
M16
G05
G00X56.45Y-115.78
M15
G01X54.85Y-115.78
M16
G05
M30
