M48
; DRILL file {KiCad 7.0.10} date Sat May 18 17:59:19 2024
; FORMAT={-:-/ absolute / inch / decimal}
; #@! TF.CreationDate,2024-05-18T17:59:19+03:00
; #@! TF.GenerationSoftware,Kicad,Pcbnew,7.0.10
; #@! TF.FileFunction,Plated,1,2,PTH
FMAT,2
INCH
; #@! TA.AperFunction,Plated,PTH,ViaDrill
T1C0.0118
; #@! TA.AperFunction,Plated,PTH,ViaDrill
T2C0.0157
; #@! TA.AperFunction,Plated,PTH,ComponentDrill
T3C0.0315
; #@! TA.AperFunction,Plated,PTH,ComponentDrill
T4C0.0354
; #@! TA.AperFunction,Plated,PTH,ComponentDrill
T5C0.0433
; #@! TA.AperFunction,Plated,PTH,ComponentDrill
T6C0.0472
; #@! TA.AperFunction,Plated,PTH,ComponentDrill
T7C0.0512
%
G90
G05
T1
X1.8622Y-3.7362
X1.8858Y-3.2913
X1.9567Y-3.7087
X2.0157Y-3.3425
X2.0472Y-3.3504
X2.0709Y-3.2087
X2.0866Y-3.3425
X2.1181Y-4.4882
X2.4961Y-4.0827
X2.5136Y-4.0612
X2.7165Y-3.0118
X2.7283Y-4.2165
X2.7795Y-2.874
X2.8228Y-3.6378
X3.5906Y-3.7874
X3.9488Y-2.8661
X4.0197Y-3.2008
X4.1496Y-3.5787
X4.2244Y-3.4488
X4.3228Y-3.0354
X4.4724Y-3.2244
X5.1929Y-4.9528
X5.2087Y-2.7126
X5.2913Y-3.0748
X5.3307Y-2.9449
X5.5394Y-3.7323
X5.7362Y-4.7205
X5.7441Y-3.5276
X5.9016Y-4.4724
X6.2441Y-3.0433
X6.7283Y-3.8543
X7.2717Y-2.7638
X7.3346Y-3.5276
X7.4016Y-2.6693
X7.4016Y-3.1378
X7.8441Y-3.0488
X8.0669Y-4.6693
T2
X1.811Y-3.5236
X1.874Y-3.3819
X2.4843Y-3.7598
X2.5787Y-3.5709
X2.9567Y-4.0433
X2.9882Y-3.437
X3.0551Y-3.8701
T3
X1.5728Y-3.2709
X1.6713Y-3.2709
X1.7034Y-2.3504
X1.7034Y-2.9504
X2.0531Y-3.7236
X2.0531Y-3.822
X2.2028Y-2.8063
X2.2862Y-3.389
X2.2995Y-3.7574
X2.3012Y-2.8063
X2.398Y-3.7574
X2.4272Y-4.6961
X2.5157Y-2.7906
X2.5256Y-4.6961
X2.5811Y-2.3992
X2.6004Y-3.7591
X2.6142Y-2.7906
X2.6862Y-3.389
X2.6988Y-3.7591
X2.7653Y-1.8606
X2.7653Y-2.2606
X2.8622Y-4.6882
X2.8996Y-3.5237
X2.9606Y-3.6921
X2.9606Y-3.7906
X2.9606Y-4.6882
X2.9811Y-2.3992
X2.998Y-3.5237
X3.0724Y-1.837
X3.0724Y-2.237
X3.1063Y-3.5248
X3.126Y-3.7
X3.126Y-3.7984
X3.2047Y-3.5248
X3.2314Y-4.8375
X3.2314Y-5.1375
X3.2787Y-4.2756
X3.3922Y-1.8957
X3.3922Y-2.1957
X3.4734Y-4.6685
X3.4734Y-5.2685
X3.5866Y-1.7037
X3.5866Y-2.3037
X3.6561Y-2.5059
X3.6561Y-3.1059
X3.7214Y-4.8225
X3.7214Y-5.1225
X3.8268Y-1.8929
X3.8268Y-2.1929
X3.8787Y-4.2756
X3.9101Y-2.6179
X3.9101Y-3.2179
X3.9704Y-4.6855
X3.9704Y-5.2855
X4.0276Y-1.7071
X4.0276Y-2.3071
X4.1423Y-2.4579
X4.1423Y-2.5579
X4.1423Y-2.6579
X4.1732Y-2.7795
X4.1732Y-3.1795
X4.2404Y-4.8805
X4.2404Y-5.1805
X4.3189Y-1.8846
X4.3189Y-2.1846
X4.4423Y-2.4689
X4.4423Y-2.5689
X4.4423Y-2.6689
X4.4984Y-4.7215
X4.4984Y-5.3215
X4.5591Y-2.8249
X4.5984Y-1.6598
X4.5984Y-2.2598
X4.622Y-3.2453
X4.622Y-3.3437
X4.6693Y-3.5614
X4.6693Y-4.1614
X4.7484Y-4.8565
X4.7484Y-5.1565
X4.7611Y-2.5521
X4.8425Y-1.8256
X4.8425Y-2.1256
X4.8611Y-2.5521
X4.9611Y-2.5521
X4.9644Y-4.7225
X4.9644Y-5.3225
X5.0307Y-3.0898
X5.0866Y-1.6559
X5.0866Y-2.2559
X5.1591Y-2.8249
X5.1976Y-3.7559
X5.1997Y-4.0959
X5.2006Y-3.4129
X5.2474Y-4.8505
X5.2474Y-5.1505
X5.296Y-3.7559
X5.2981Y-4.0959
X5.299Y-3.4129
X5.311Y-1.8689
X5.311Y-2.1689
X5.4794Y-4.6905
X5.4794Y-5.2905
X5.5118Y-1.6638
X5.5118Y-2.2638
X5.5504Y-4.2236
X5.6307Y-3.0898
X5.6981Y-3.3359
X5.6981Y-3.9359
X5.7374Y-4.8245
X5.7374Y-5.1245
X5.7613Y-2.4179
X5.7613Y-2.5179
X5.7613Y-2.6179
X5.7641Y-2.7309
X5.7641Y-3.1309
X5.7913Y-1.7547
X5.7913Y-2.0547
X5.9784Y-4.6515
X5.9784Y-5.2515
X5.9811Y-2.5459
X5.9821Y-2.8561
X6.0Y-3.0811
X6.0Y-3.6811
X6.0433Y-1.6717
X6.0433Y-2.2717
X6.0811Y-2.5459
X6.0821Y-2.8561
X6.1504Y-4.2236
X6.1811Y-2.5459
X6.1821Y-2.8561
X6.3622Y-1.8098
X6.3622Y-2.1098
X6.4177Y-4.8735
X6.4177Y-5.1735
X6.5171Y-2.7829
X6.5171Y-3.3829
X6.5787Y-1.6835
X6.5787Y-2.2835
X6.6102Y-4.7071
X6.6102Y-5.3071
X6.8307Y-1.8059
X6.8307Y-2.1059
X6.9747Y-4.8175
X6.9747Y-5.1175
X7.0669Y-3.7669
X7.0856Y-2.9795
X7.0916Y-3.3732
X7.1102Y-1.7425
X7.1102Y-2.3425
X7.1614Y-4.6913
X7.1614Y-5.2913
X7.1654Y-3.7669
X7.184Y-2.9795
X7.19Y-3.3732
X7.3661Y-1.8689
X7.3661Y-2.1689
X7.4724Y-2.7819
X7.4724Y-3.3819
X7.4764Y-4.8488
X7.4764Y-5.1488
X7.5952Y-3.6809
X7.5952Y-3.7809
X7.5952Y-3.8809
X7.5992Y-3.9969
X7.5992Y-4.3969
X7.626Y-1.7465
X7.626Y-2.3465
X7.6772Y-4.6598
X7.6772Y-5.2598
X7.7363Y-2.5663
X7.7363Y-2.6663
X7.7363Y-2.7663
X7.7375Y-2.9063
X7.7375Y-3.5063
X7.7992Y-3.9969
X7.7992Y-4.3969
X7.8152Y-3.7489
X7.878Y-1.8846
X7.878Y-2.1846
X7.9152Y-3.7489
X8.0152Y-3.7489
X8.0236Y-4.8571
X8.0236Y-5.1571
X8.0354Y-3.289
X8.0354Y-3.389
X8.0354Y-3.489
X8.0669Y-4.0283
X8.0669Y-4.4283
X8.189Y-1.6992
X8.189Y-2.2992
X8.2244Y-4.6756
X8.2244Y-5.2756
X8.4134Y-1.9244
X8.4134Y-2.2244
X8.5669Y-4.8213
X8.5669Y-5.1213
X8.6732Y-1.7228
X8.6732Y-2.3228
X8.748Y-4.6677
X8.748Y-5.2677
X8.9213Y-1.8492
X8.9213Y-2.1492
X9.1017Y-4.8875
X9.1017Y-5.1875
X9.1811Y-1.7346
X9.1811Y-2.3346
X9.2992Y-4.652
X9.2992Y-5.252
X9.4764Y-1.774
X9.4764Y-2.374
X9.5236Y-4.711
X9.5236Y-5.311
T5
X2.5921Y-1.8527
X2.5921Y-2.2527
X3.3551Y-5.4795
X3.3559Y-3.2472
X3.4551Y-5.4795
X3.5551Y-5.4795
X3.6386Y-1.5189
X3.7386Y-1.5189
X3.7559Y-3.2472
X3.8157Y-5.4795
X3.8386Y-1.5189
X3.9157Y-5.4795
X4.0157Y-5.4795
X4.1031Y-1.5189
X4.2031Y-1.5189
X4.2843Y-5.4756
X4.3031Y-1.5189
X4.3843Y-5.4756
X4.4843Y-5.4756
X4.5992Y-1.511
X4.6992Y-1.511
X4.7724Y-5.4756
X4.7992Y-1.511
X4.8724Y-5.4756
X4.9241Y-3.7319
X4.9241Y-4.1319
X4.9724Y-5.4756
X5.0677Y-1.4953
X5.1677Y-1.4953
X5.2567Y-5.4795
X5.2677Y-1.4953
X5.3567Y-5.4795
X5.4567Y-5.4795
X5.5047Y-1.4953
X5.6047Y-1.4953
X5.7047Y-1.4953
X5.7252Y-5.4756
X5.8252Y-5.4756
X5.9252Y-5.4756
X5.9772Y-1.4992
X6.0772Y-1.4992
X6.1772Y-1.4992
X6.4693Y-5.4874
X6.5693Y-5.4874
X6.6071Y-1.515
X6.6693Y-5.4874
X6.7071Y-1.515
X6.8071Y-1.515
X6.8661Y-3.1102
X6.8661Y-3.5102
X6.9969Y-5.4835
X7.0969Y-5.4835
X7.1189Y-1.5307
X7.1969Y-5.4835
X7.2189Y-1.5307
X7.3189Y-1.5307
X7.5315Y-5.4835
X7.6315Y-5.4835
X7.6386Y-1.5307
X7.7315Y-5.4835
X7.7386Y-1.5307
X7.8386Y-1.5307
X8.0638Y-5.4795
X8.1638Y-5.4795
X8.1976Y-1.5386
X8.2638Y-5.4795
X8.2976Y-1.5386
X8.3976Y-1.5386
X8.6386Y-5.4756
X8.6858Y-1.5425
X8.7386Y-5.4756
X8.7858Y-1.5425
X8.8386Y-5.4756
X8.8858Y-1.5425
X9.1071Y-5.4677
X9.1181Y-1.5433
X9.2071Y-5.4677
X9.2181Y-1.5433
X9.3071Y-5.4677
X9.3181Y-1.5433
T6
X8.4724Y-3.6331
X9.063Y-3.6331
T7
X1.7579Y-1.8085
X1.7579Y-2.0085
X9.3583Y-4.0709
X9.3583Y-4.2709
T4
G00X2.2224Y-4.1094
M15
G01X2.1594Y-4.1094
M16
G05
G00X2.2224Y-4.5583
M15
G01X2.1594Y-4.5583
M16
G05
M30
