%TF.GenerationSoftware,KiCad,Pcbnew,7.0.10*%
%TF.CreationDate,2024-05-18T17:59:00+03:00*%
%TF.ProjectId,Inverter,496e7665-7274-4657-922e-6b696361645f,rev?*%
%TF.SameCoordinates,Original*%
%TF.FileFunction,Copper,L1,Top*%
%TF.FilePolarity,Positive*%
%FSLAX46Y46*%
G04 Gerber Fmt 4.6, Leading zero omitted, Abs format (unit mm)*
G04 Created by KiCad (PCBNEW 7.0.10) date 2024-05-18 17:59:00*
%MOMM*%
%LPD*%
G01*
G04 APERTURE LIST*
G04 Aperture macros list*
%AMRoundRect*
0 Rectangle with rounded corners*
0 $1 Rounding radius*
0 $2 $3 $4 $5 $6 $7 $8 $9 X,Y pos of 4 corners*
0 Add a 4 corners polygon primitive as box body*
4,1,4,$2,$3,$4,$5,$6,$7,$8,$9,$2,$3,0*
0 Add four circle primitives for the rounded corners*
1,1,$1+$1,$2,$3*
1,1,$1+$1,$4,$5*
1,1,$1+$1,$6,$7*
1,1,$1+$1,$8,$9*
0 Add four rect primitives between the rounded corners*
20,1,$1+$1,$2,$3,$4,$5,0*
20,1,$1+$1,$4,$5,$6,$7,0*
20,1,$1+$1,$6,$7,$8,$9,0*
20,1,$1+$1,$8,$9,$2,$3,0*%
%AMFreePoly0*
4,1,9,3.862500,-0.866500,0.737500,-0.866500,0.737500,-0.450000,-0.737500,-0.450000,-0.737500,0.450000,0.737500,0.450000,0.737500,0.866500,3.862500,0.866500,3.862500,-0.866500,3.862500,-0.866500,$1*%
G04 Aperture macros list end*
%ADD10C,0.100000*%
%ADD11C,0.150000*%
%ADD12C,0.300000*%
%ADD13C,0.400000*%
%TA.AperFunction,ComponentPad*%
%ADD14R,2.600000X2.600000*%
%TD*%
%TA.AperFunction,ComponentPad*%
%ADD15C,2.600000*%
%TD*%
%TA.AperFunction,ComponentPad*%
%ADD16R,1.500000X1.500000*%
%TD*%
%TA.AperFunction,ComponentPad*%
%ADD17C,1.500000*%
%TD*%
%TA.AperFunction,ComponentPad*%
%ADD18O,1.600000X1.600000*%
%TD*%
%TA.AperFunction,ComponentPad*%
%ADD19C,1.600000*%
%TD*%
%TA.AperFunction,ComponentPad*%
%ADD20R,1.600000X1.600000*%
%TD*%
%TA.AperFunction,ComponentPad*%
%ADD21R,1.905000X2.000000*%
%TD*%
%TA.AperFunction,ComponentPad*%
%ADD22O,1.905000X2.000000*%
%TD*%
%TA.AperFunction,SMDPad,CuDef*%
%ADD23R,2.000000X4.500000*%
%TD*%
%TA.AperFunction,ComponentPad*%
%ADD24C,2.400000*%
%TD*%
%TA.AperFunction,SMDPad,CuDef*%
%ADD25RoundRect,0.250000X-1.075000X0.425000X-1.075000X-0.425000X1.075000X-0.425000X1.075000X0.425000X0*%
%TD*%
%TA.AperFunction,SMDPad,CuDef*%
%ADD26RoundRect,0.250000X-1.500000X-0.550000X1.500000X-0.550000X1.500000X0.550000X-1.500000X0.550000X0*%
%TD*%
%TA.AperFunction,ComponentPad*%
%ADD27R,2.200000X2.200000*%
%TD*%
%TA.AperFunction,ComponentPad*%
%ADD28O,2.200000X2.200000*%
%TD*%
%TA.AperFunction,SMDPad,CuDef*%
%ADD29RoundRect,0.250000X-0.375000X-0.625000X0.375000X-0.625000X0.375000X0.625000X-0.375000X0.625000X0*%
%TD*%
%TA.AperFunction,SMDPad,CuDef*%
%ADD30R,1.400000X0.760000*%
%TD*%
%TA.AperFunction,SMDPad,CuDef*%
%ADD31R,2.500000X1.100000*%
%TD*%
%TA.AperFunction,ComponentPad*%
%ADD32O,3.500000X1.900000*%
%TD*%
%TA.AperFunction,SMDPad,CuDef*%
%ADD33RoundRect,0.150000X-0.825000X-0.150000X0.825000X-0.150000X0.825000X0.150000X-0.825000X0.150000X0*%
%TD*%
%TA.AperFunction,SMDPad,CuDef*%
%ADD34R,1.300000X0.900000*%
%TD*%
%TA.AperFunction,SMDPad,CuDef*%
%ADD35FreePoly0,180.000000*%
%TD*%
%TA.AperFunction,SMDPad,CuDef*%
%ADD36R,1.600000X0.550000*%
%TD*%
%TA.AperFunction,SMDPad,CuDef*%
%ADD37R,0.550000X1.600000*%
%TD*%
%TA.AperFunction,ViaPad*%
%ADD38C,0.800000*%
%TD*%
%TA.AperFunction,ViaPad*%
%ADD39C,0.500000*%
%TD*%
%TA.AperFunction,Conductor*%
%ADD40C,0.800000*%
%TD*%
%TA.AperFunction,Conductor*%
%ADD41C,1.500000*%
%TD*%
%TA.AperFunction,Conductor*%
%ADD42C,0.250000*%
%TD*%
%TA.AperFunction,Conductor*%
%ADD43C,0.300000*%
%TD*%
%TA.AperFunction,Conductor*%
%ADD44C,2.000000*%
%TD*%
%TA.AperFunction,Conductor*%
%ADD45C,0.500000*%
%TD*%
%TA.AperFunction,Conductor*%
%ADD46C,1.000000*%
%TD*%
G04 APERTURE END LIST*
D10*
D11*
X177002200Y-166007200D02*
X285002200Y-166007200D01*
X285002200Y-198007200D01*
X177002200Y-198007200D01*
X177002200Y-166007200D01*
D10*
D11*
X10000000Y-10000000D02*
X287002200Y-10000000D01*
X287002200Y-200007200D01*
X10000000Y-200007200D01*
X10000000Y-10000000D01*
D10*
D11*
X12000000Y-12000000D02*
X285002200Y-12000000D01*
X285002200Y-198007200D01*
X12000000Y-198007200D01*
X12000000Y-12000000D01*
D10*
D11*
X60000000Y-12000000D02*
X60000000Y-10000000D01*
D10*
D11*
X110000000Y-12000000D02*
X110000000Y-10000000D01*
D10*
D11*
X160000000Y-12000000D02*
X160000000Y-10000000D01*
D10*
D11*
X210000000Y-12000000D02*
X210000000Y-10000000D01*
D10*
D11*
X260000000Y-12000000D02*
X260000000Y-10000000D01*
D10*
D11*
X36089160Y-11593604D02*
X35346303Y-11593604D01*
X35717731Y-11593604D02*
X35717731Y-10293604D01*
X35717731Y-10293604D02*
X35593922Y-10479319D01*
X35593922Y-10479319D02*
X35470112Y-10603128D01*
X35470112Y-10603128D02*
X35346303Y-10665033D01*
D10*
D11*
X85346303Y-10417414D02*
X85408207Y-10355509D01*
X85408207Y-10355509D02*
X85532017Y-10293604D01*
X85532017Y-10293604D02*
X85841541Y-10293604D01*
X85841541Y-10293604D02*
X85965350Y-10355509D01*
X85965350Y-10355509D02*
X86027255Y-10417414D01*
X86027255Y-10417414D02*
X86089160Y-10541223D01*
X86089160Y-10541223D02*
X86089160Y-10665033D01*
X86089160Y-10665033D02*
X86027255Y-10850747D01*
X86027255Y-10850747D02*
X85284398Y-11593604D01*
X85284398Y-11593604D02*
X86089160Y-11593604D01*
D10*
D11*
X135284398Y-10293604D02*
X136089160Y-10293604D01*
X136089160Y-10293604D02*
X135655826Y-10788842D01*
X135655826Y-10788842D02*
X135841541Y-10788842D01*
X135841541Y-10788842D02*
X135965350Y-10850747D01*
X135965350Y-10850747D02*
X136027255Y-10912652D01*
X136027255Y-10912652D02*
X136089160Y-11036461D01*
X136089160Y-11036461D02*
X136089160Y-11345985D01*
X136089160Y-11345985D02*
X136027255Y-11469795D01*
X136027255Y-11469795D02*
X135965350Y-11531700D01*
X135965350Y-11531700D02*
X135841541Y-11593604D01*
X135841541Y-11593604D02*
X135470112Y-11593604D01*
X135470112Y-11593604D02*
X135346303Y-11531700D01*
X135346303Y-11531700D02*
X135284398Y-11469795D01*
D10*
D11*
X185965350Y-10726938D02*
X185965350Y-11593604D01*
X185655826Y-10231700D02*
X185346303Y-11160271D01*
X185346303Y-11160271D02*
X186151064Y-11160271D01*
D10*
D11*
X236027255Y-10293604D02*
X235408207Y-10293604D01*
X235408207Y-10293604D02*
X235346303Y-10912652D01*
X235346303Y-10912652D02*
X235408207Y-10850747D01*
X235408207Y-10850747D02*
X235532017Y-10788842D01*
X235532017Y-10788842D02*
X235841541Y-10788842D01*
X235841541Y-10788842D02*
X235965350Y-10850747D01*
X235965350Y-10850747D02*
X236027255Y-10912652D01*
X236027255Y-10912652D02*
X236089160Y-11036461D01*
X236089160Y-11036461D02*
X236089160Y-11345985D01*
X236089160Y-11345985D02*
X236027255Y-11469795D01*
X236027255Y-11469795D02*
X235965350Y-11531700D01*
X235965350Y-11531700D02*
X235841541Y-11593604D01*
X235841541Y-11593604D02*
X235532017Y-11593604D01*
X235532017Y-11593604D02*
X235408207Y-11531700D01*
X235408207Y-11531700D02*
X235346303Y-11469795D01*
D10*
D11*
X285965350Y-10293604D02*
X285717731Y-10293604D01*
X285717731Y-10293604D02*
X285593922Y-10355509D01*
X285593922Y-10355509D02*
X285532017Y-10417414D01*
X285532017Y-10417414D02*
X285408207Y-10603128D01*
X285408207Y-10603128D02*
X285346303Y-10850747D01*
X285346303Y-10850747D02*
X285346303Y-11345985D01*
X285346303Y-11345985D02*
X285408207Y-11469795D01*
X285408207Y-11469795D02*
X285470112Y-11531700D01*
X285470112Y-11531700D02*
X285593922Y-11593604D01*
X285593922Y-11593604D02*
X285841541Y-11593604D01*
X285841541Y-11593604D02*
X285965350Y-11531700D01*
X285965350Y-11531700D02*
X286027255Y-11469795D01*
X286027255Y-11469795D02*
X286089160Y-11345985D01*
X286089160Y-11345985D02*
X286089160Y-11036461D01*
X286089160Y-11036461D02*
X286027255Y-10912652D01*
X286027255Y-10912652D02*
X285965350Y-10850747D01*
X285965350Y-10850747D02*
X285841541Y-10788842D01*
X285841541Y-10788842D02*
X285593922Y-10788842D01*
X285593922Y-10788842D02*
X285470112Y-10850747D01*
X285470112Y-10850747D02*
X285408207Y-10912652D01*
X285408207Y-10912652D02*
X285346303Y-11036461D01*
D10*
D11*
X60000000Y-198007200D02*
X60000000Y-200007200D01*
D10*
D11*
X110000000Y-198007200D02*
X110000000Y-200007200D01*
D10*
D11*
X160000000Y-198007200D02*
X160000000Y-200007200D01*
D10*
D11*
X210000000Y-198007200D02*
X210000000Y-200007200D01*
D10*
D11*
X260000000Y-198007200D02*
X260000000Y-200007200D01*
D10*
D11*
X36089160Y-199600804D02*
X35346303Y-199600804D01*
X35717731Y-199600804D02*
X35717731Y-198300804D01*
X35717731Y-198300804D02*
X35593922Y-198486519D01*
X35593922Y-198486519D02*
X35470112Y-198610328D01*
X35470112Y-198610328D02*
X35346303Y-198672233D01*
D10*
D11*
X85346303Y-198424614D02*
X85408207Y-198362709D01*
X85408207Y-198362709D02*
X85532017Y-198300804D01*
X85532017Y-198300804D02*
X85841541Y-198300804D01*
X85841541Y-198300804D02*
X85965350Y-198362709D01*
X85965350Y-198362709D02*
X86027255Y-198424614D01*
X86027255Y-198424614D02*
X86089160Y-198548423D01*
X86089160Y-198548423D02*
X86089160Y-198672233D01*
X86089160Y-198672233D02*
X86027255Y-198857947D01*
X86027255Y-198857947D02*
X85284398Y-199600804D01*
X85284398Y-199600804D02*
X86089160Y-199600804D01*
D10*
D11*
X135284398Y-198300804D02*
X136089160Y-198300804D01*
X136089160Y-198300804D02*
X135655826Y-198796042D01*
X135655826Y-198796042D02*
X135841541Y-198796042D01*
X135841541Y-198796042D02*
X135965350Y-198857947D01*
X135965350Y-198857947D02*
X136027255Y-198919852D01*
X136027255Y-198919852D02*
X136089160Y-199043661D01*
X136089160Y-199043661D02*
X136089160Y-199353185D01*
X136089160Y-199353185D02*
X136027255Y-199476995D01*
X136027255Y-199476995D02*
X135965350Y-199538900D01*
X135965350Y-199538900D02*
X135841541Y-199600804D01*
X135841541Y-199600804D02*
X135470112Y-199600804D01*
X135470112Y-199600804D02*
X135346303Y-199538900D01*
X135346303Y-199538900D02*
X135284398Y-199476995D01*
D10*
D11*
X185965350Y-198734138D02*
X185965350Y-199600804D01*
X185655826Y-198238900D02*
X185346303Y-199167471D01*
X185346303Y-199167471D02*
X186151064Y-199167471D01*
D10*
D11*
X236027255Y-198300804D02*
X235408207Y-198300804D01*
X235408207Y-198300804D02*
X235346303Y-198919852D01*
X235346303Y-198919852D02*
X235408207Y-198857947D01*
X235408207Y-198857947D02*
X235532017Y-198796042D01*
X235532017Y-198796042D02*
X235841541Y-198796042D01*
X235841541Y-198796042D02*
X235965350Y-198857947D01*
X235965350Y-198857947D02*
X236027255Y-198919852D01*
X236027255Y-198919852D02*
X236089160Y-199043661D01*
X236089160Y-199043661D02*
X236089160Y-199353185D01*
X236089160Y-199353185D02*
X236027255Y-199476995D01*
X236027255Y-199476995D02*
X235965350Y-199538900D01*
X235965350Y-199538900D02*
X235841541Y-199600804D01*
X235841541Y-199600804D02*
X235532017Y-199600804D01*
X235532017Y-199600804D02*
X235408207Y-199538900D01*
X235408207Y-199538900D02*
X235346303Y-199476995D01*
D10*
D11*
X285965350Y-198300804D02*
X285717731Y-198300804D01*
X285717731Y-198300804D02*
X285593922Y-198362709D01*
X285593922Y-198362709D02*
X285532017Y-198424614D01*
X285532017Y-198424614D02*
X285408207Y-198610328D01*
X285408207Y-198610328D02*
X285346303Y-198857947D01*
X285346303Y-198857947D02*
X285346303Y-199353185D01*
X285346303Y-199353185D02*
X285408207Y-199476995D01*
X285408207Y-199476995D02*
X285470112Y-199538900D01*
X285470112Y-199538900D02*
X285593922Y-199600804D01*
X285593922Y-199600804D02*
X285841541Y-199600804D01*
X285841541Y-199600804D02*
X285965350Y-199538900D01*
X285965350Y-199538900D02*
X286027255Y-199476995D01*
X286027255Y-199476995D02*
X286089160Y-199353185D01*
X286089160Y-199353185D02*
X286089160Y-199043661D01*
X286089160Y-199043661D02*
X286027255Y-198919852D01*
X286027255Y-198919852D02*
X285965350Y-198857947D01*
X285965350Y-198857947D02*
X285841541Y-198796042D01*
X285841541Y-198796042D02*
X285593922Y-198796042D01*
X285593922Y-198796042D02*
X285470112Y-198857947D01*
X285470112Y-198857947D02*
X285408207Y-198919852D01*
X285408207Y-198919852D02*
X285346303Y-199043661D01*
D10*
D11*
X10000000Y-60000000D02*
X12000000Y-60000000D01*
D10*
D11*
X10000000Y-110000000D02*
X12000000Y-110000000D01*
D10*
D11*
X10000000Y-160000000D02*
X12000000Y-160000000D01*
D10*
D11*
X10690476Y-35222176D02*
X11309523Y-35222176D01*
X10566666Y-35593604D02*
X10999999Y-34293604D01*
X10999999Y-34293604D02*
X11433333Y-35593604D01*
D10*
D11*
X11092857Y-84912652D02*
X11278571Y-84974557D01*
X11278571Y-84974557D02*
X11340476Y-85036461D01*
X11340476Y-85036461D02*
X11402380Y-85160271D01*
X11402380Y-85160271D02*
X11402380Y-85345985D01*
X11402380Y-85345985D02*
X11340476Y-85469795D01*
X11340476Y-85469795D02*
X11278571Y-85531700D01*
X11278571Y-85531700D02*
X11154761Y-85593604D01*
X11154761Y-85593604D02*
X10659523Y-85593604D01*
X10659523Y-85593604D02*
X10659523Y-84293604D01*
X10659523Y-84293604D02*
X11092857Y-84293604D01*
X11092857Y-84293604D02*
X11216666Y-84355509D01*
X11216666Y-84355509D02*
X11278571Y-84417414D01*
X11278571Y-84417414D02*
X11340476Y-84541223D01*
X11340476Y-84541223D02*
X11340476Y-84665033D01*
X11340476Y-84665033D02*
X11278571Y-84788842D01*
X11278571Y-84788842D02*
X11216666Y-84850747D01*
X11216666Y-84850747D02*
X11092857Y-84912652D01*
X11092857Y-84912652D02*
X10659523Y-84912652D01*
D10*
D11*
X11402380Y-135469795D02*
X11340476Y-135531700D01*
X11340476Y-135531700D02*
X11154761Y-135593604D01*
X11154761Y-135593604D02*
X11030952Y-135593604D01*
X11030952Y-135593604D02*
X10845238Y-135531700D01*
X10845238Y-135531700D02*
X10721428Y-135407890D01*
X10721428Y-135407890D02*
X10659523Y-135284080D01*
X10659523Y-135284080D02*
X10597619Y-135036461D01*
X10597619Y-135036461D02*
X10597619Y-134850747D01*
X10597619Y-134850747D02*
X10659523Y-134603128D01*
X10659523Y-134603128D02*
X10721428Y-134479319D01*
X10721428Y-134479319D02*
X10845238Y-134355509D01*
X10845238Y-134355509D02*
X11030952Y-134293604D01*
X11030952Y-134293604D02*
X11154761Y-134293604D01*
X11154761Y-134293604D02*
X11340476Y-134355509D01*
X11340476Y-134355509D02*
X11402380Y-134417414D01*
D10*
D11*
X10659523Y-185593604D02*
X10659523Y-184293604D01*
X10659523Y-184293604D02*
X10969047Y-184293604D01*
X10969047Y-184293604D02*
X11154761Y-184355509D01*
X11154761Y-184355509D02*
X11278571Y-184479319D01*
X11278571Y-184479319D02*
X11340476Y-184603128D01*
X11340476Y-184603128D02*
X11402380Y-184850747D01*
X11402380Y-184850747D02*
X11402380Y-185036461D01*
X11402380Y-185036461D02*
X11340476Y-185284080D01*
X11340476Y-185284080D02*
X11278571Y-185407890D01*
X11278571Y-185407890D02*
X11154761Y-185531700D01*
X11154761Y-185531700D02*
X10969047Y-185593604D01*
X10969047Y-185593604D02*
X10659523Y-185593604D01*
D10*
D11*
X287002200Y-60000000D02*
X285002200Y-60000000D01*
D10*
D11*
X287002200Y-110000000D02*
X285002200Y-110000000D01*
D10*
D11*
X287002200Y-160000000D02*
X285002200Y-160000000D01*
D10*
D11*
X285692676Y-35222176D02*
X286311723Y-35222176D01*
X285568866Y-35593604D02*
X286002199Y-34293604D01*
X286002199Y-34293604D02*
X286435533Y-35593604D01*
D10*
D11*
X286095057Y-84912652D02*
X286280771Y-84974557D01*
X286280771Y-84974557D02*
X286342676Y-85036461D01*
X286342676Y-85036461D02*
X286404580Y-85160271D01*
X286404580Y-85160271D02*
X286404580Y-85345985D01*
X286404580Y-85345985D02*
X286342676Y-85469795D01*
X286342676Y-85469795D02*
X286280771Y-85531700D01*
X286280771Y-85531700D02*
X286156961Y-85593604D01*
X286156961Y-85593604D02*
X285661723Y-85593604D01*
X285661723Y-85593604D02*
X285661723Y-84293604D01*
X285661723Y-84293604D02*
X286095057Y-84293604D01*
X286095057Y-84293604D02*
X286218866Y-84355509D01*
X286218866Y-84355509D02*
X286280771Y-84417414D01*
X286280771Y-84417414D02*
X286342676Y-84541223D01*
X286342676Y-84541223D02*
X286342676Y-84665033D01*
X286342676Y-84665033D02*
X286280771Y-84788842D01*
X286280771Y-84788842D02*
X286218866Y-84850747D01*
X286218866Y-84850747D02*
X286095057Y-84912652D01*
X286095057Y-84912652D02*
X285661723Y-84912652D01*
D10*
D11*
X286404580Y-135469795D02*
X286342676Y-135531700D01*
X286342676Y-135531700D02*
X286156961Y-135593604D01*
X286156961Y-135593604D02*
X286033152Y-135593604D01*
X286033152Y-135593604D02*
X285847438Y-135531700D01*
X285847438Y-135531700D02*
X285723628Y-135407890D01*
X285723628Y-135407890D02*
X285661723Y-135284080D01*
X285661723Y-135284080D02*
X285599819Y-135036461D01*
X285599819Y-135036461D02*
X285599819Y-134850747D01*
X285599819Y-134850747D02*
X285661723Y-134603128D01*
X285661723Y-134603128D02*
X285723628Y-134479319D01*
X285723628Y-134479319D02*
X285847438Y-134355509D01*
X285847438Y-134355509D02*
X286033152Y-134293604D01*
X286033152Y-134293604D02*
X286156961Y-134293604D01*
X286156961Y-134293604D02*
X286342676Y-134355509D01*
X286342676Y-134355509D02*
X286404580Y-134417414D01*
D10*
D11*
X285661723Y-185593604D02*
X285661723Y-184293604D01*
X285661723Y-184293604D02*
X285971247Y-184293604D01*
X285971247Y-184293604D02*
X286156961Y-184355509D01*
X286156961Y-184355509D02*
X286280771Y-184479319D01*
X286280771Y-184479319D02*
X286342676Y-184603128D01*
X286342676Y-184603128D02*
X286404580Y-184850747D01*
X286404580Y-184850747D02*
X286404580Y-185036461D01*
X286404580Y-185036461D02*
X286342676Y-185284080D01*
X286342676Y-185284080D02*
X286280771Y-185407890D01*
X286280771Y-185407890D02*
X286156961Y-185531700D01*
X286156961Y-185531700D02*
X285971247Y-185593604D01*
X285971247Y-185593604D02*
X285661723Y-185593604D01*
D10*
D11*
X200458026Y-193793328D02*
X200458026Y-192293328D01*
X200458026Y-192293328D02*
X200815169Y-192293328D01*
X200815169Y-192293328D02*
X201029455Y-192364757D01*
X201029455Y-192364757D02*
X201172312Y-192507614D01*
X201172312Y-192507614D02*
X201243741Y-192650471D01*
X201243741Y-192650471D02*
X201315169Y-192936185D01*
X201315169Y-192936185D02*
X201315169Y-193150471D01*
X201315169Y-193150471D02*
X201243741Y-193436185D01*
X201243741Y-193436185D02*
X201172312Y-193579042D01*
X201172312Y-193579042D02*
X201029455Y-193721900D01*
X201029455Y-193721900D02*
X200815169Y-193793328D01*
X200815169Y-193793328D02*
X200458026Y-193793328D01*
X202600884Y-193793328D02*
X202600884Y-193007614D01*
X202600884Y-193007614D02*
X202529455Y-192864757D01*
X202529455Y-192864757D02*
X202386598Y-192793328D01*
X202386598Y-192793328D02*
X202100884Y-192793328D01*
X202100884Y-192793328D02*
X201958026Y-192864757D01*
X202600884Y-193721900D02*
X202458026Y-193793328D01*
X202458026Y-193793328D02*
X202100884Y-193793328D01*
X202100884Y-193793328D02*
X201958026Y-193721900D01*
X201958026Y-193721900D02*
X201886598Y-193579042D01*
X201886598Y-193579042D02*
X201886598Y-193436185D01*
X201886598Y-193436185D02*
X201958026Y-193293328D01*
X201958026Y-193293328D02*
X202100884Y-193221900D01*
X202100884Y-193221900D02*
X202458026Y-193221900D01*
X202458026Y-193221900D02*
X202600884Y-193150471D01*
X203100884Y-192793328D02*
X203672312Y-192793328D01*
X203315169Y-192293328D02*
X203315169Y-193579042D01*
X203315169Y-193579042D02*
X203386598Y-193721900D01*
X203386598Y-193721900D02*
X203529455Y-193793328D01*
X203529455Y-193793328D02*
X203672312Y-193793328D01*
X204743741Y-193721900D02*
X204600884Y-193793328D01*
X204600884Y-193793328D02*
X204315170Y-193793328D01*
X204315170Y-193793328D02*
X204172312Y-193721900D01*
X204172312Y-193721900D02*
X204100884Y-193579042D01*
X204100884Y-193579042D02*
X204100884Y-193007614D01*
X204100884Y-193007614D02*
X204172312Y-192864757D01*
X204172312Y-192864757D02*
X204315170Y-192793328D01*
X204315170Y-192793328D02*
X204600884Y-192793328D01*
X204600884Y-192793328D02*
X204743741Y-192864757D01*
X204743741Y-192864757D02*
X204815170Y-193007614D01*
X204815170Y-193007614D02*
X204815170Y-193150471D01*
X204815170Y-193150471D02*
X204100884Y-193293328D01*
X205458026Y-193650471D02*
X205529455Y-193721900D01*
X205529455Y-193721900D02*
X205458026Y-193793328D01*
X205458026Y-193793328D02*
X205386598Y-193721900D01*
X205386598Y-193721900D02*
X205458026Y-193650471D01*
X205458026Y-193650471D02*
X205458026Y-193793328D01*
X205458026Y-192864757D02*
X205529455Y-192936185D01*
X205529455Y-192936185D02*
X205458026Y-193007614D01*
X205458026Y-193007614D02*
X205386598Y-192936185D01*
X205386598Y-192936185D02*
X205458026Y-192864757D01*
X205458026Y-192864757D02*
X205458026Y-193007614D01*
D10*
D11*
X177002200Y-194507200D02*
X285002200Y-194507200D01*
D10*
D11*
X178458026Y-196593328D02*
X178458026Y-195093328D01*
X179315169Y-196593328D02*
X178672312Y-195736185D01*
X179315169Y-195093328D02*
X178458026Y-195950471D01*
X179958026Y-196593328D02*
X179958026Y-195593328D01*
X179958026Y-195093328D02*
X179886598Y-195164757D01*
X179886598Y-195164757D02*
X179958026Y-195236185D01*
X179958026Y-195236185D02*
X180029455Y-195164757D01*
X180029455Y-195164757D02*
X179958026Y-195093328D01*
X179958026Y-195093328D02*
X179958026Y-195236185D01*
X181529455Y-196450471D02*
X181458027Y-196521900D01*
X181458027Y-196521900D02*
X181243741Y-196593328D01*
X181243741Y-196593328D02*
X181100884Y-196593328D01*
X181100884Y-196593328D02*
X180886598Y-196521900D01*
X180886598Y-196521900D02*
X180743741Y-196379042D01*
X180743741Y-196379042D02*
X180672312Y-196236185D01*
X180672312Y-196236185D02*
X180600884Y-195950471D01*
X180600884Y-195950471D02*
X180600884Y-195736185D01*
X180600884Y-195736185D02*
X180672312Y-195450471D01*
X180672312Y-195450471D02*
X180743741Y-195307614D01*
X180743741Y-195307614D02*
X180886598Y-195164757D01*
X180886598Y-195164757D02*
X181100884Y-195093328D01*
X181100884Y-195093328D02*
X181243741Y-195093328D01*
X181243741Y-195093328D02*
X181458027Y-195164757D01*
X181458027Y-195164757D02*
X181529455Y-195236185D01*
X182815170Y-196593328D02*
X182815170Y-195807614D01*
X182815170Y-195807614D02*
X182743741Y-195664757D01*
X182743741Y-195664757D02*
X182600884Y-195593328D01*
X182600884Y-195593328D02*
X182315170Y-195593328D01*
X182315170Y-195593328D02*
X182172312Y-195664757D01*
X182815170Y-196521900D02*
X182672312Y-196593328D01*
X182672312Y-196593328D02*
X182315170Y-196593328D01*
X182315170Y-196593328D02*
X182172312Y-196521900D01*
X182172312Y-196521900D02*
X182100884Y-196379042D01*
X182100884Y-196379042D02*
X182100884Y-196236185D01*
X182100884Y-196236185D02*
X182172312Y-196093328D01*
X182172312Y-196093328D02*
X182315170Y-196021900D01*
X182315170Y-196021900D02*
X182672312Y-196021900D01*
X182672312Y-196021900D02*
X182815170Y-195950471D01*
X184172313Y-196593328D02*
X184172313Y-195093328D01*
X184172313Y-196521900D02*
X184029455Y-196593328D01*
X184029455Y-196593328D02*
X183743741Y-196593328D01*
X183743741Y-196593328D02*
X183600884Y-196521900D01*
X183600884Y-196521900D02*
X183529455Y-196450471D01*
X183529455Y-196450471D02*
X183458027Y-196307614D01*
X183458027Y-196307614D02*
X183458027Y-195879042D01*
X183458027Y-195879042D02*
X183529455Y-195736185D01*
X183529455Y-195736185D02*
X183600884Y-195664757D01*
X183600884Y-195664757D02*
X183743741Y-195593328D01*
X183743741Y-195593328D02*
X184029455Y-195593328D01*
X184029455Y-195593328D02*
X184172313Y-195664757D01*
X186029455Y-195807614D02*
X186529455Y-195807614D01*
X186743741Y-196593328D02*
X186029455Y-196593328D01*
X186029455Y-196593328D02*
X186029455Y-195093328D01*
X186029455Y-195093328D02*
X186743741Y-195093328D01*
X187386598Y-196450471D02*
X187458027Y-196521900D01*
X187458027Y-196521900D02*
X187386598Y-196593328D01*
X187386598Y-196593328D02*
X187315170Y-196521900D01*
X187315170Y-196521900D02*
X187386598Y-196450471D01*
X187386598Y-196450471D02*
X187386598Y-196593328D01*
X188100884Y-196593328D02*
X188100884Y-195093328D01*
X188100884Y-195093328D02*
X188458027Y-195093328D01*
X188458027Y-195093328D02*
X188672313Y-195164757D01*
X188672313Y-195164757D02*
X188815170Y-195307614D01*
X188815170Y-195307614D02*
X188886599Y-195450471D01*
X188886599Y-195450471D02*
X188958027Y-195736185D01*
X188958027Y-195736185D02*
X188958027Y-195950471D01*
X188958027Y-195950471D02*
X188886599Y-196236185D01*
X188886599Y-196236185D02*
X188815170Y-196379042D01*
X188815170Y-196379042D02*
X188672313Y-196521900D01*
X188672313Y-196521900D02*
X188458027Y-196593328D01*
X188458027Y-196593328D02*
X188100884Y-196593328D01*
X189600884Y-196450471D02*
X189672313Y-196521900D01*
X189672313Y-196521900D02*
X189600884Y-196593328D01*
X189600884Y-196593328D02*
X189529456Y-196521900D01*
X189529456Y-196521900D02*
X189600884Y-196450471D01*
X189600884Y-196450471D02*
X189600884Y-196593328D01*
X190243742Y-196164757D02*
X190958028Y-196164757D01*
X190100885Y-196593328D02*
X190600885Y-195093328D01*
X190600885Y-195093328D02*
X191100885Y-196593328D01*
X191600884Y-196450471D02*
X191672313Y-196521900D01*
X191672313Y-196521900D02*
X191600884Y-196593328D01*
X191600884Y-196593328D02*
X191529456Y-196521900D01*
X191529456Y-196521900D02*
X191600884Y-196450471D01*
X191600884Y-196450471D02*
X191600884Y-196593328D01*
X194600884Y-196593328D02*
X194600884Y-195093328D01*
X194743742Y-196021900D02*
X195172313Y-196593328D01*
X195172313Y-195593328D02*
X194600884Y-196164757D01*
X195815170Y-196593328D02*
X195815170Y-195593328D01*
X195815170Y-195093328D02*
X195743742Y-195164757D01*
X195743742Y-195164757D02*
X195815170Y-195236185D01*
X195815170Y-195236185D02*
X195886599Y-195164757D01*
X195886599Y-195164757D02*
X195815170Y-195093328D01*
X195815170Y-195093328D02*
X195815170Y-195236185D01*
X197172314Y-196521900D02*
X197029456Y-196593328D01*
X197029456Y-196593328D02*
X196743742Y-196593328D01*
X196743742Y-196593328D02*
X196600885Y-196521900D01*
X196600885Y-196521900D02*
X196529456Y-196450471D01*
X196529456Y-196450471D02*
X196458028Y-196307614D01*
X196458028Y-196307614D02*
X196458028Y-195879042D01*
X196458028Y-195879042D02*
X196529456Y-195736185D01*
X196529456Y-195736185D02*
X196600885Y-195664757D01*
X196600885Y-195664757D02*
X196743742Y-195593328D01*
X196743742Y-195593328D02*
X197029456Y-195593328D01*
X197029456Y-195593328D02*
X197172314Y-195664757D01*
X198458028Y-196593328D02*
X198458028Y-195807614D01*
X198458028Y-195807614D02*
X198386599Y-195664757D01*
X198386599Y-195664757D02*
X198243742Y-195593328D01*
X198243742Y-195593328D02*
X197958028Y-195593328D01*
X197958028Y-195593328D02*
X197815170Y-195664757D01*
X198458028Y-196521900D02*
X198315170Y-196593328D01*
X198315170Y-196593328D02*
X197958028Y-196593328D01*
X197958028Y-196593328D02*
X197815170Y-196521900D01*
X197815170Y-196521900D02*
X197743742Y-196379042D01*
X197743742Y-196379042D02*
X197743742Y-196236185D01*
X197743742Y-196236185D02*
X197815170Y-196093328D01*
X197815170Y-196093328D02*
X197958028Y-196021900D01*
X197958028Y-196021900D02*
X198315170Y-196021900D01*
X198315170Y-196021900D02*
X198458028Y-195950471D01*
X199815171Y-196593328D02*
X199815171Y-195093328D01*
X199815171Y-196521900D02*
X199672313Y-196593328D01*
X199672313Y-196593328D02*
X199386599Y-196593328D01*
X199386599Y-196593328D02*
X199243742Y-196521900D01*
X199243742Y-196521900D02*
X199172313Y-196450471D01*
X199172313Y-196450471D02*
X199100885Y-196307614D01*
X199100885Y-196307614D02*
X199100885Y-195879042D01*
X199100885Y-195879042D02*
X199172313Y-195736185D01*
X199172313Y-195736185D02*
X199243742Y-195664757D01*
X199243742Y-195664757D02*
X199386599Y-195593328D01*
X199386599Y-195593328D02*
X199672313Y-195593328D01*
X199672313Y-195593328D02*
X199815171Y-195664757D01*
X201529456Y-195093328D02*
X202529456Y-195093328D01*
X202529456Y-195093328D02*
X201886599Y-196593328D01*
X203100884Y-196450471D02*
X203172313Y-196521900D01*
X203172313Y-196521900D02*
X203100884Y-196593328D01*
X203100884Y-196593328D02*
X203029456Y-196521900D01*
X203029456Y-196521900D02*
X203100884Y-196450471D01*
X203100884Y-196450471D02*
X203100884Y-196593328D01*
X204100885Y-195093328D02*
X204243742Y-195093328D01*
X204243742Y-195093328D02*
X204386599Y-195164757D01*
X204386599Y-195164757D02*
X204458028Y-195236185D01*
X204458028Y-195236185D02*
X204529456Y-195379042D01*
X204529456Y-195379042D02*
X204600885Y-195664757D01*
X204600885Y-195664757D02*
X204600885Y-196021900D01*
X204600885Y-196021900D02*
X204529456Y-196307614D01*
X204529456Y-196307614D02*
X204458028Y-196450471D01*
X204458028Y-196450471D02*
X204386599Y-196521900D01*
X204386599Y-196521900D02*
X204243742Y-196593328D01*
X204243742Y-196593328D02*
X204100885Y-196593328D01*
X204100885Y-196593328D02*
X203958028Y-196521900D01*
X203958028Y-196521900D02*
X203886599Y-196450471D01*
X203886599Y-196450471D02*
X203815170Y-196307614D01*
X203815170Y-196307614D02*
X203743742Y-196021900D01*
X203743742Y-196021900D02*
X203743742Y-195664757D01*
X203743742Y-195664757D02*
X203815170Y-195379042D01*
X203815170Y-195379042D02*
X203886599Y-195236185D01*
X203886599Y-195236185D02*
X203958028Y-195164757D01*
X203958028Y-195164757D02*
X204100885Y-195093328D01*
X205243741Y-196450471D02*
X205315170Y-196521900D01*
X205315170Y-196521900D02*
X205243741Y-196593328D01*
X205243741Y-196593328D02*
X205172313Y-196521900D01*
X205172313Y-196521900D02*
X205243741Y-196450471D01*
X205243741Y-196450471D02*
X205243741Y-196593328D01*
X206743742Y-196593328D02*
X205886599Y-196593328D01*
X206315170Y-196593328D02*
X206315170Y-195093328D01*
X206315170Y-195093328D02*
X206172313Y-195307614D01*
X206172313Y-195307614D02*
X206029456Y-195450471D01*
X206029456Y-195450471D02*
X205886599Y-195521900D01*
X207672313Y-195093328D02*
X207815170Y-195093328D01*
X207815170Y-195093328D02*
X207958027Y-195164757D01*
X207958027Y-195164757D02*
X208029456Y-195236185D01*
X208029456Y-195236185D02*
X208100884Y-195379042D01*
X208100884Y-195379042D02*
X208172313Y-195664757D01*
X208172313Y-195664757D02*
X208172313Y-196021900D01*
X208172313Y-196021900D02*
X208100884Y-196307614D01*
X208100884Y-196307614D02*
X208029456Y-196450471D01*
X208029456Y-196450471D02*
X207958027Y-196521900D01*
X207958027Y-196521900D02*
X207815170Y-196593328D01*
X207815170Y-196593328D02*
X207672313Y-196593328D01*
X207672313Y-196593328D02*
X207529456Y-196521900D01*
X207529456Y-196521900D02*
X207458027Y-196450471D01*
X207458027Y-196450471D02*
X207386598Y-196307614D01*
X207386598Y-196307614D02*
X207315170Y-196021900D01*
X207315170Y-196021900D02*
X207315170Y-195664757D01*
X207315170Y-195664757D02*
X207386598Y-195379042D01*
X207386598Y-195379042D02*
X207458027Y-195236185D01*
X207458027Y-195236185D02*
X207529456Y-195164757D01*
X207529456Y-195164757D02*
X207672313Y-195093328D01*
D10*
D11*
X177002200Y-191507200D02*
X285002200Y-191507200D01*
D10*
D12*
X264413853Y-193785528D02*
X263913853Y-193071242D01*
X263556710Y-193785528D02*
X263556710Y-192285528D01*
X263556710Y-192285528D02*
X264128139Y-192285528D01*
X264128139Y-192285528D02*
X264270996Y-192356957D01*
X264270996Y-192356957D02*
X264342425Y-192428385D01*
X264342425Y-192428385D02*
X264413853Y-192571242D01*
X264413853Y-192571242D02*
X264413853Y-192785528D01*
X264413853Y-192785528D02*
X264342425Y-192928385D01*
X264342425Y-192928385D02*
X264270996Y-192999814D01*
X264270996Y-192999814D02*
X264128139Y-193071242D01*
X264128139Y-193071242D02*
X263556710Y-193071242D01*
X265628139Y-193714100D02*
X265485282Y-193785528D01*
X265485282Y-193785528D02*
X265199568Y-193785528D01*
X265199568Y-193785528D02*
X265056710Y-193714100D01*
X265056710Y-193714100D02*
X264985282Y-193571242D01*
X264985282Y-193571242D02*
X264985282Y-192999814D01*
X264985282Y-192999814D02*
X265056710Y-192856957D01*
X265056710Y-192856957D02*
X265199568Y-192785528D01*
X265199568Y-192785528D02*
X265485282Y-192785528D01*
X265485282Y-192785528D02*
X265628139Y-192856957D01*
X265628139Y-192856957D02*
X265699568Y-192999814D01*
X265699568Y-192999814D02*
X265699568Y-193142671D01*
X265699568Y-193142671D02*
X264985282Y-193285528D01*
X266199567Y-192785528D02*
X266556710Y-193785528D01*
X266556710Y-193785528D02*
X266913853Y-192785528D01*
X267485281Y-193642671D02*
X267556710Y-193714100D01*
X267556710Y-193714100D02*
X267485281Y-193785528D01*
X267485281Y-193785528D02*
X267413853Y-193714100D01*
X267413853Y-193714100D02*
X267485281Y-193642671D01*
X267485281Y-193642671D02*
X267485281Y-193785528D01*
X267485281Y-192856957D02*
X267556710Y-192928385D01*
X267556710Y-192928385D02*
X267485281Y-192999814D01*
X267485281Y-192999814D02*
X267413853Y-192928385D01*
X267413853Y-192928385D02*
X267485281Y-192856957D01*
X267485281Y-192856957D02*
X267485281Y-192999814D01*
D10*
D11*
X178386598Y-193721900D02*
X178600884Y-193793328D01*
X178600884Y-193793328D02*
X178958026Y-193793328D01*
X178958026Y-193793328D02*
X179100884Y-193721900D01*
X179100884Y-193721900D02*
X179172312Y-193650471D01*
X179172312Y-193650471D02*
X179243741Y-193507614D01*
X179243741Y-193507614D02*
X179243741Y-193364757D01*
X179243741Y-193364757D02*
X179172312Y-193221900D01*
X179172312Y-193221900D02*
X179100884Y-193150471D01*
X179100884Y-193150471D02*
X178958026Y-193079042D01*
X178958026Y-193079042D02*
X178672312Y-193007614D01*
X178672312Y-193007614D02*
X178529455Y-192936185D01*
X178529455Y-192936185D02*
X178458026Y-192864757D01*
X178458026Y-192864757D02*
X178386598Y-192721900D01*
X178386598Y-192721900D02*
X178386598Y-192579042D01*
X178386598Y-192579042D02*
X178458026Y-192436185D01*
X178458026Y-192436185D02*
X178529455Y-192364757D01*
X178529455Y-192364757D02*
X178672312Y-192293328D01*
X178672312Y-192293328D02*
X179029455Y-192293328D01*
X179029455Y-192293328D02*
X179243741Y-192364757D01*
X179886597Y-193793328D02*
X179886597Y-192793328D01*
X179886597Y-192293328D02*
X179815169Y-192364757D01*
X179815169Y-192364757D02*
X179886597Y-192436185D01*
X179886597Y-192436185D02*
X179958026Y-192364757D01*
X179958026Y-192364757D02*
X179886597Y-192293328D01*
X179886597Y-192293328D02*
X179886597Y-192436185D01*
X180458026Y-192793328D02*
X181243741Y-192793328D01*
X181243741Y-192793328D02*
X180458026Y-193793328D01*
X180458026Y-193793328D02*
X181243741Y-193793328D01*
X182386598Y-193721900D02*
X182243741Y-193793328D01*
X182243741Y-193793328D02*
X181958027Y-193793328D01*
X181958027Y-193793328D02*
X181815169Y-193721900D01*
X181815169Y-193721900D02*
X181743741Y-193579042D01*
X181743741Y-193579042D02*
X181743741Y-193007614D01*
X181743741Y-193007614D02*
X181815169Y-192864757D01*
X181815169Y-192864757D02*
X181958027Y-192793328D01*
X181958027Y-192793328D02*
X182243741Y-192793328D01*
X182243741Y-192793328D02*
X182386598Y-192864757D01*
X182386598Y-192864757D02*
X182458027Y-193007614D01*
X182458027Y-193007614D02*
X182458027Y-193150471D01*
X182458027Y-193150471D02*
X181743741Y-193293328D01*
X183100883Y-193650471D02*
X183172312Y-193721900D01*
X183172312Y-193721900D02*
X183100883Y-193793328D01*
X183100883Y-193793328D02*
X183029455Y-193721900D01*
X183029455Y-193721900D02*
X183100883Y-193650471D01*
X183100883Y-193650471D02*
X183100883Y-193793328D01*
X183100883Y-192864757D02*
X183172312Y-192936185D01*
X183172312Y-192936185D02*
X183100883Y-193007614D01*
X183100883Y-193007614D02*
X183029455Y-192936185D01*
X183029455Y-192936185D02*
X183100883Y-192864757D01*
X183100883Y-192864757D02*
X183100883Y-193007614D01*
X184886598Y-193364757D02*
X185600884Y-193364757D01*
X184743741Y-193793328D02*
X185243741Y-192293328D01*
X185243741Y-192293328D02*
X185743741Y-193793328D01*
X186886598Y-192793328D02*
X186886598Y-193793328D01*
X186529455Y-192221900D02*
X186172312Y-193293328D01*
X186172312Y-193293328D02*
X187100883Y-193293328D01*
D10*
D11*
X263458026Y-196593328D02*
X263458026Y-195093328D01*
X264815170Y-196593328D02*
X264815170Y-195093328D01*
X264815170Y-196521900D02*
X264672312Y-196593328D01*
X264672312Y-196593328D02*
X264386598Y-196593328D01*
X264386598Y-196593328D02*
X264243741Y-196521900D01*
X264243741Y-196521900D02*
X264172312Y-196450471D01*
X264172312Y-196450471D02*
X264100884Y-196307614D01*
X264100884Y-196307614D02*
X264100884Y-195879042D01*
X264100884Y-195879042D02*
X264172312Y-195736185D01*
X264172312Y-195736185D02*
X264243741Y-195664757D01*
X264243741Y-195664757D02*
X264386598Y-195593328D01*
X264386598Y-195593328D02*
X264672312Y-195593328D01*
X264672312Y-195593328D02*
X264815170Y-195664757D01*
X265529455Y-196450471D02*
X265600884Y-196521900D01*
X265600884Y-196521900D02*
X265529455Y-196593328D01*
X265529455Y-196593328D02*
X265458027Y-196521900D01*
X265458027Y-196521900D02*
X265529455Y-196450471D01*
X265529455Y-196450471D02*
X265529455Y-196593328D01*
X265529455Y-195664757D02*
X265600884Y-195736185D01*
X265600884Y-195736185D02*
X265529455Y-195807614D01*
X265529455Y-195807614D02*
X265458027Y-195736185D01*
X265458027Y-195736185D02*
X265529455Y-195664757D01*
X265529455Y-195664757D02*
X265529455Y-195807614D01*
X268172313Y-196593328D02*
X267315170Y-196593328D01*
X267743741Y-196593328D02*
X267743741Y-195093328D01*
X267743741Y-195093328D02*
X267600884Y-195307614D01*
X267600884Y-195307614D02*
X267458027Y-195450471D01*
X267458027Y-195450471D02*
X267315170Y-195521900D01*
X269886598Y-195021900D02*
X268600884Y-196950471D01*
X271172313Y-196593328D02*
X270315170Y-196593328D01*
X270743741Y-196593328D02*
X270743741Y-195093328D01*
X270743741Y-195093328D02*
X270600884Y-195307614D01*
X270600884Y-195307614D02*
X270458027Y-195450471D01*
X270458027Y-195450471D02*
X270315170Y-195521900D01*
D10*
D11*
X177002200Y-187507200D02*
X285002200Y-187507200D01*
D10*
D13*
X178693928Y-188211638D02*
X179836785Y-188211638D01*
X179015357Y-190211638D02*
X179265357Y-188211638D01*
X180253452Y-190211638D02*
X180420119Y-188878304D01*
X180503452Y-188211638D02*
X180396309Y-188306876D01*
X180396309Y-188306876D02*
X180479643Y-188402114D01*
X180479643Y-188402114D02*
X180586786Y-188306876D01*
X180586786Y-188306876D02*
X180503452Y-188211638D01*
X180503452Y-188211638D02*
X180479643Y-188402114D01*
X181086786Y-188878304D02*
X181848690Y-188878304D01*
X181455833Y-188211638D02*
X181241548Y-189925923D01*
X181241548Y-189925923D02*
X181312976Y-190116400D01*
X181312976Y-190116400D02*
X181491548Y-190211638D01*
X181491548Y-190211638D02*
X181682024Y-190211638D01*
X182634405Y-190211638D02*
X182455833Y-190116400D01*
X182455833Y-190116400D02*
X182384405Y-189925923D01*
X182384405Y-189925923D02*
X182598690Y-188211638D01*
X184170119Y-190116400D02*
X183967738Y-190211638D01*
X183967738Y-190211638D02*
X183586785Y-190211638D01*
X183586785Y-190211638D02*
X183408214Y-190116400D01*
X183408214Y-190116400D02*
X183336785Y-189925923D01*
X183336785Y-189925923D02*
X183432024Y-189164019D01*
X183432024Y-189164019D02*
X183551071Y-188973542D01*
X183551071Y-188973542D02*
X183753452Y-188878304D01*
X183753452Y-188878304D02*
X184134404Y-188878304D01*
X184134404Y-188878304D02*
X184312976Y-188973542D01*
X184312976Y-188973542D02*
X184384404Y-189164019D01*
X184384404Y-189164019D02*
X184360595Y-189354495D01*
X184360595Y-189354495D02*
X183384404Y-189544971D01*
X185134405Y-190021161D02*
X185217738Y-190116400D01*
X185217738Y-190116400D02*
X185110595Y-190211638D01*
X185110595Y-190211638D02*
X185027262Y-190116400D01*
X185027262Y-190116400D02*
X185134405Y-190021161D01*
X185134405Y-190021161D02*
X185110595Y-190211638D01*
X185265357Y-188973542D02*
X185348690Y-189068780D01*
X185348690Y-189068780D02*
X185241548Y-189164019D01*
X185241548Y-189164019D02*
X185158214Y-189068780D01*
X185158214Y-189068780D02*
X185265357Y-188973542D01*
X185265357Y-188973542D02*
X185241548Y-189164019D01*
D10*
D11*
X178958026Y-185607614D02*
X178458026Y-185607614D01*
X178458026Y-186393328D02*
X178458026Y-184893328D01*
X178458026Y-184893328D02*
X179172312Y-184893328D01*
X179743740Y-186393328D02*
X179743740Y-185393328D01*
X179743740Y-184893328D02*
X179672312Y-184964757D01*
X179672312Y-184964757D02*
X179743740Y-185036185D01*
X179743740Y-185036185D02*
X179815169Y-184964757D01*
X179815169Y-184964757D02*
X179743740Y-184893328D01*
X179743740Y-184893328D02*
X179743740Y-185036185D01*
X180672312Y-186393328D02*
X180529455Y-186321900D01*
X180529455Y-186321900D02*
X180458026Y-186179042D01*
X180458026Y-186179042D02*
X180458026Y-184893328D01*
X181815169Y-186321900D02*
X181672312Y-186393328D01*
X181672312Y-186393328D02*
X181386598Y-186393328D01*
X181386598Y-186393328D02*
X181243740Y-186321900D01*
X181243740Y-186321900D02*
X181172312Y-186179042D01*
X181172312Y-186179042D02*
X181172312Y-185607614D01*
X181172312Y-185607614D02*
X181243740Y-185464757D01*
X181243740Y-185464757D02*
X181386598Y-185393328D01*
X181386598Y-185393328D02*
X181672312Y-185393328D01*
X181672312Y-185393328D02*
X181815169Y-185464757D01*
X181815169Y-185464757D02*
X181886598Y-185607614D01*
X181886598Y-185607614D02*
X181886598Y-185750471D01*
X181886598Y-185750471D02*
X181172312Y-185893328D01*
X182529454Y-186250471D02*
X182600883Y-186321900D01*
X182600883Y-186321900D02*
X182529454Y-186393328D01*
X182529454Y-186393328D02*
X182458026Y-186321900D01*
X182458026Y-186321900D02*
X182529454Y-186250471D01*
X182529454Y-186250471D02*
X182529454Y-186393328D01*
X182529454Y-185464757D02*
X182600883Y-185536185D01*
X182600883Y-185536185D02*
X182529454Y-185607614D01*
X182529454Y-185607614D02*
X182458026Y-185536185D01*
X182458026Y-185536185D02*
X182529454Y-185464757D01*
X182529454Y-185464757D02*
X182529454Y-185607614D01*
X184386597Y-186393328D02*
X184386597Y-184893328D01*
X185100883Y-185393328D02*
X185100883Y-186393328D01*
X185100883Y-185536185D02*
X185172312Y-185464757D01*
X185172312Y-185464757D02*
X185315169Y-185393328D01*
X185315169Y-185393328D02*
X185529455Y-185393328D01*
X185529455Y-185393328D02*
X185672312Y-185464757D01*
X185672312Y-185464757D02*
X185743741Y-185607614D01*
X185743741Y-185607614D02*
X185743741Y-186393328D01*
X186315169Y-185393328D02*
X186672312Y-186393328D01*
X186672312Y-186393328D02*
X187029455Y-185393328D01*
X188172312Y-186321900D02*
X188029455Y-186393328D01*
X188029455Y-186393328D02*
X187743741Y-186393328D01*
X187743741Y-186393328D02*
X187600883Y-186321900D01*
X187600883Y-186321900D02*
X187529455Y-186179042D01*
X187529455Y-186179042D02*
X187529455Y-185607614D01*
X187529455Y-185607614D02*
X187600883Y-185464757D01*
X187600883Y-185464757D02*
X187743741Y-185393328D01*
X187743741Y-185393328D02*
X188029455Y-185393328D01*
X188029455Y-185393328D02*
X188172312Y-185464757D01*
X188172312Y-185464757D02*
X188243741Y-185607614D01*
X188243741Y-185607614D02*
X188243741Y-185750471D01*
X188243741Y-185750471D02*
X187529455Y-185893328D01*
X188886597Y-186393328D02*
X188886597Y-185393328D01*
X188886597Y-185679042D02*
X188958026Y-185536185D01*
X188958026Y-185536185D02*
X189029455Y-185464757D01*
X189029455Y-185464757D02*
X189172312Y-185393328D01*
X189172312Y-185393328D02*
X189315169Y-185393328D01*
X189600883Y-185393328D02*
X190172311Y-185393328D01*
X189815168Y-184893328D02*
X189815168Y-186179042D01*
X189815168Y-186179042D02*
X189886597Y-186321900D01*
X189886597Y-186321900D02*
X190029454Y-186393328D01*
X190029454Y-186393328D02*
X190172311Y-186393328D01*
X191243740Y-186321900D02*
X191100883Y-186393328D01*
X191100883Y-186393328D02*
X190815169Y-186393328D01*
X190815169Y-186393328D02*
X190672311Y-186321900D01*
X190672311Y-186321900D02*
X190600883Y-186179042D01*
X190600883Y-186179042D02*
X190600883Y-185607614D01*
X190600883Y-185607614D02*
X190672311Y-185464757D01*
X190672311Y-185464757D02*
X190815169Y-185393328D01*
X190815169Y-185393328D02*
X191100883Y-185393328D01*
X191100883Y-185393328D02*
X191243740Y-185464757D01*
X191243740Y-185464757D02*
X191315169Y-185607614D01*
X191315169Y-185607614D02*
X191315169Y-185750471D01*
X191315169Y-185750471D02*
X190600883Y-185893328D01*
X191958025Y-186393328D02*
X191958025Y-185393328D01*
X191958025Y-185679042D02*
X192029454Y-185536185D01*
X192029454Y-185536185D02*
X192100883Y-185464757D01*
X192100883Y-185464757D02*
X192243740Y-185393328D01*
X192243740Y-185393328D02*
X192386597Y-185393328D01*
X192886596Y-186250471D02*
X192958025Y-186321900D01*
X192958025Y-186321900D02*
X192886596Y-186393328D01*
X192886596Y-186393328D02*
X192815168Y-186321900D01*
X192815168Y-186321900D02*
X192886596Y-186250471D01*
X192886596Y-186250471D02*
X192886596Y-186393328D01*
X193600882Y-186393328D02*
X193600882Y-184893328D01*
X193743740Y-185821900D02*
X194172311Y-186393328D01*
X194172311Y-185393328D02*
X193600882Y-185964757D01*
X194815168Y-186393328D02*
X194815168Y-185393328D01*
X194815168Y-184893328D02*
X194743740Y-184964757D01*
X194743740Y-184964757D02*
X194815168Y-185036185D01*
X194815168Y-185036185D02*
X194886597Y-184964757D01*
X194886597Y-184964757D02*
X194815168Y-184893328D01*
X194815168Y-184893328D02*
X194815168Y-185036185D01*
X196172312Y-186321900D02*
X196029454Y-186393328D01*
X196029454Y-186393328D02*
X195743740Y-186393328D01*
X195743740Y-186393328D02*
X195600883Y-186321900D01*
X195600883Y-186321900D02*
X195529454Y-186250471D01*
X195529454Y-186250471D02*
X195458026Y-186107614D01*
X195458026Y-186107614D02*
X195458026Y-185679042D01*
X195458026Y-185679042D02*
X195529454Y-185536185D01*
X195529454Y-185536185D02*
X195600883Y-185464757D01*
X195600883Y-185464757D02*
X195743740Y-185393328D01*
X195743740Y-185393328D02*
X196029454Y-185393328D01*
X196029454Y-185393328D02*
X196172312Y-185464757D01*
X197458026Y-186393328D02*
X197458026Y-185607614D01*
X197458026Y-185607614D02*
X197386597Y-185464757D01*
X197386597Y-185464757D02*
X197243740Y-185393328D01*
X197243740Y-185393328D02*
X196958026Y-185393328D01*
X196958026Y-185393328D02*
X196815168Y-185464757D01*
X197458026Y-186321900D02*
X197315168Y-186393328D01*
X197315168Y-186393328D02*
X196958026Y-186393328D01*
X196958026Y-186393328D02*
X196815168Y-186321900D01*
X196815168Y-186321900D02*
X196743740Y-186179042D01*
X196743740Y-186179042D02*
X196743740Y-186036185D01*
X196743740Y-186036185D02*
X196815168Y-185893328D01*
X196815168Y-185893328D02*
X196958026Y-185821900D01*
X196958026Y-185821900D02*
X197315168Y-185821900D01*
X197315168Y-185821900D02*
X197458026Y-185750471D01*
X198815169Y-186393328D02*
X198815169Y-184893328D01*
X198815169Y-186321900D02*
X198672311Y-186393328D01*
X198672311Y-186393328D02*
X198386597Y-186393328D01*
X198386597Y-186393328D02*
X198243740Y-186321900D01*
X198243740Y-186321900D02*
X198172311Y-186250471D01*
X198172311Y-186250471D02*
X198100883Y-186107614D01*
X198100883Y-186107614D02*
X198100883Y-185679042D01*
X198100883Y-185679042D02*
X198172311Y-185536185D01*
X198172311Y-185536185D02*
X198243740Y-185464757D01*
X198243740Y-185464757D02*
X198386597Y-185393328D01*
X198386597Y-185393328D02*
X198672311Y-185393328D01*
X198672311Y-185393328D02*
X198815169Y-185464757D01*
X199172312Y-186536185D02*
X200315169Y-186536185D01*
X200672311Y-185393328D02*
X200672311Y-186893328D01*
X200672311Y-185464757D02*
X200815169Y-185393328D01*
X200815169Y-185393328D02*
X201100883Y-185393328D01*
X201100883Y-185393328D02*
X201243740Y-185464757D01*
X201243740Y-185464757D02*
X201315169Y-185536185D01*
X201315169Y-185536185D02*
X201386597Y-185679042D01*
X201386597Y-185679042D02*
X201386597Y-186107614D01*
X201386597Y-186107614D02*
X201315169Y-186250471D01*
X201315169Y-186250471D02*
X201243740Y-186321900D01*
X201243740Y-186321900D02*
X201100883Y-186393328D01*
X201100883Y-186393328D02*
X200815169Y-186393328D01*
X200815169Y-186393328D02*
X200672311Y-186321900D01*
X202672312Y-186321900D02*
X202529454Y-186393328D01*
X202529454Y-186393328D02*
X202243740Y-186393328D01*
X202243740Y-186393328D02*
X202100883Y-186321900D01*
X202100883Y-186321900D02*
X202029454Y-186250471D01*
X202029454Y-186250471D02*
X201958026Y-186107614D01*
X201958026Y-186107614D02*
X201958026Y-185679042D01*
X201958026Y-185679042D02*
X202029454Y-185536185D01*
X202029454Y-185536185D02*
X202100883Y-185464757D01*
X202100883Y-185464757D02*
X202243740Y-185393328D01*
X202243740Y-185393328D02*
X202529454Y-185393328D01*
X202529454Y-185393328D02*
X202672312Y-185464757D01*
X203315168Y-186393328D02*
X203315168Y-184893328D01*
X203315168Y-185464757D02*
X203458026Y-185393328D01*
X203458026Y-185393328D02*
X203743740Y-185393328D01*
X203743740Y-185393328D02*
X203886597Y-185464757D01*
X203886597Y-185464757D02*
X203958026Y-185536185D01*
X203958026Y-185536185D02*
X204029454Y-185679042D01*
X204029454Y-185679042D02*
X204029454Y-186107614D01*
X204029454Y-186107614D02*
X203958026Y-186250471D01*
X203958026Y-186250471D02*
X203886597Y-186321900D01*
X203886597Y-186321900D02*
X203743740Y-186393328D01*
X203743740Y-186393328D02*
X203458026Y-186393328D01*
X203458026Y-186393328D02*
X203315168Y-186321900D01*
D10*
D11*
X177002200Y-181507200D02*
X285002200Y-181507200D01*
D10*
D11*
X178386598Y-183621900D02*
X178600884Y-183693328D01*
X178600884Y-183693328D02*
X178958026Y-183693328D01*
X178958026Y-183693328D02*
X179100884Y-183621900D01*
X179100884Y-183621900D02*
X179172312Y-183550471D01*
X179172312Y-183550471D02*
X179243741Y-183407614D01*
X179243741Y-183407614D02*
X179243741Y-183264757D01*
X179243741Y-183264757D02*
X179172312Y-183121900D01*
X179172312Y-183121900D02*
X179100884Y-183050471D01*
X179100884Y-183050471D02*
X178958026Y-182979042D01*
X178958026Y-182979042D02*
X178672312Y-182907614D01*
X178672312Y-182907614D02*
X178529455Y-182836185D01*
X178529455Y-182836185D02*
X178458026Y-182764757D01*
X178458026Y-182764757D02*
X178386598Y-182621900D01*
X178386598Y-182621900D02*
X178386598Y-182479042D01*
X178386598Y-182479042D02*
X178458026Y-182336185D01*
X178458026Y-182336185D02*
X178529455Y-182264757D01*
X178529455Y-182264757D02*
X178672312Y-182193328D01*
X178672312Y-182193328D02*
X179029455Y-182193328D01*
X179029455Y-182193328D02*
X179243741Y-182264757D01*
X179886597Y-183693328D02*
X179886597Y-182193328D01*
X180529455Y-183693328D02*
X180529455Y-182907614D01*
X180529455Y-182907614D02*
X180458026Y-182764757D01*
X180458026Y-182764757D02*
X180315169Y-182693328D01*
X180315169Y-182693328D02*
X180100883Y-182693328D01*
X180100883Y-182693328D02*
X179958026Y-182764757D01*
X179958026Y-182764757D02*
X179886597Y-182836185D01*
X181815169Y-183621900D02*
X181672312Y-183693328D01*
X181672312Y-183693328D02*
X181386598Y-183693328D01*
X181386598Y-183693328D02*
X181243740Y-183621900D01*
X181243740Y-183621900D02*
X181172312Y-183479042D01*
X181172312Y-183479042D02*
X181172312Y-182907614D01*
X181172312Y-182907614D02*
X181243740Y-182764757D01*
X181243740Y-182764757D02*
X181386598Y-182693328D01*
X181386598Y-182693328D02*
X181672312Y-182693328D01*
X181672312Y-182693328D02*
X181815169Y-182764757D01*
X181815169Y-182764757D02*
X181886598Y-182907614D01*
X181886598Y-182907614D02*
X181886598Y-183050471D01*
X181886598Y-183050471D02*
X181172312Y-183193328D01*
X183100883Y-183621900D02*
X182958026Y-183693328D01*
X182958026Y-183693328D02*
X182672312Y-183693328D01*
X182672312Y-183693328D02*
X182529454Y-183621900D01*
X182529454Y-183621900D02*
X182458026Y-183479042D01*
X182458026Y-183479042D02*
X182458026Y-182907614D01*
X182458026Y-182907614D02*
X182529454Y-182764757D01*
X182529454Y-182764757D02*
X182672312Y-182693328D01*
X182672312Y-182693328D02*
X182958026Y-182693328D01*
X182958026Y-182693328D02*
X183100883Y-182764757D01*
X183100883Y-182764757D02*
X183172312Y-182907614D01*
X183172312Y-182907614D02*
X183172312Y-183050471D01*
X183172312Y-183050471D02*
X182458026Y-183193328D01*
X183600883Y-182693328D02*
X184172311Y-182693328D01*
X183815168Y-182193328D02*
X183815168Y-183479042D01*
X183815168Y-183479042D02*
X183886597Y-183621900D01*
X183886597Y-183621900D02*
X184029454Y-183693328D01*
X184029454Y-183693328D02*
X184172311Y-183693328D01*
X184672311Y-183550471D02*
X184743740Y-183621900D01*
X184743740Y-183621900D02*
X184672311Y-183693328D01*
X184672311Y-183693328D02*
X184600883Y-183621900D01*
X184600883Y-183621900D02*
X184672311Y-183550471D01*
X184672311Y-183550471D02*
X184672311Y-183693328D01*
X184672311Y-182764757D02*
X184743740Y-182836185D01*
X184743740Y-182836185D02*
X184672311Y-182907614D01*
X184672311Y-182907614D02*
X184600883Y-182836185D01*
X184600883Y-182836185D02*
X184672311Y-182764757D01*
X184672311Y-182764757D02*
X184672311Y-182907614D01*
D10*
D12*
D10*
D11*
D10*
D11*
D10*
D11*
D10*
D11*
D10*
D11*
X197002200Y-191507200D02*
X197002200Y-194507200D01*
D10*
D11*
X261002200Y-191507200D02*
X261002200Y-198007200D01*
D14*
%TO.P,J3,1,Pin_1*%
%TO.N,Net-(J3-Pin_1)*%
X237700000Y-108480000D03*
D15*
%TO.P,J3,2,Pin_2*%
%TO.N,Net-(J3-Pin_2)*%
X237700000Y-103400000D03*
%TD*%
D16*
%TO.P,Q27,1,E*%
%TO.N,GND*%
X146337400Y-66495200D03*
D17*
%TO.P,Q27,2,B*%
%TO.N,Net-(Q27-B)*%
X146337400Y-63955200D03*
%TO.P,Q27,3,C*%
%TO.N,Net-(Q27-C)*%
X146337400Y-61415200D03*
%TD*%
D18*
%TO.P,R1,2*%
%TO.N,Net-(Q1-B)*%
X198100000Y-101520000D03*
D19*
%TO.P,R1,1*%
%TO.N,11*%
X198100000Y-111680000D03*
%TD*%
D20*
%TO.P,D17,1,K*%
%TO.N,Net-(D10-K)*%
X82077400Y-122872800D03*
D18*
%TO.P,D17,2,A*%
%TO.N,Net-(D17-A)*%
X82077400Y-130492800D03*
%TD*%
D21*
%TO.P,Q6,1,G*%
%TO.N,Net-(D19-A)*%
X104220000Y-38580000D03*
D22*
%TO.P,Q6,2,D*%
%TO.N,+48V*%
X106760000Y-38580000D03*
%TO.P,Q6,3,S*%
%TO.N,Trn+*%
X109300000Y-38580000D03*
%TD*%
D20*
%TO.P,C2,1*%
%TO.N,Net-(D1-K)*%
X132018821Y-95400400D03*
D19*
%TO.P,C2,2*%
%TO.N,Trn+*%
X134518821Y-95400400D03*
%TD*%
%TO.P,R15,1*%
%TO.N,Net-(D13-K)*%
X220300000Y-59000000D03*
D18*
%TO.P,R15,2*%
%TO.N,Net-(D34-A)*%
X220300000Y-43760000D03*
%TD*%
D19*
%TO.P,R29,1*%
%TO.N,Net-(D11-K)*%
X167900000Y-119560000D03*
D18*
%TO.P,R29,2*%
%TO.N,Net-(D11-A)*%
X167900000Y-134800000D03*
%TD*%
D19*
%TO.P,R21,1*%
%TO.N,Net-(D13-K)*%
X180600000Y-59500000D03*
D18*
%TO.P,R21,2*%
%TO.N,Net-(D13-A)*%
X180600000Y-44260000D03*
%TD*%
D16*
%TO.P,Q29,1,E*%
%TO.N,GND*%
X105214800Y-67511200D03*
D17*
%TO.P,Q29,2,B*%
%TO.N,Net-(Q29-B)*%
X105214800Y-64971200D03*
%TO.P,Q29,3,C*%
%TO.N,Net-(D11-K)*%
X105214800Y-62431200D03*
%TD*%
D20*
%TO.P,D10,1,K*%
%TO.N,Net-(D10-K)*%
X120609200Y-123355400D03*
D18*
%TO.P,D10,2,A*%
%TO.N,Net-(D10-A)*%
X120609200Y-130975400D03*
%TD*%
D19*
%TO.P,R13,1*%
%TO.N,Net-(D18-K)*%
X129200000Y-57300000D03*
D18*
%TO.P,R13,2*%
%TO.N,Net-(D7-A)*%
X129200000Y-42060000D03*
%TD*%
D20*
%TO.P,D32,1,K*%
%TO.N,Net-(D13-K)*%
X161600000Y-53590000D03*
D18*
%TO.P,D32,2,A*%
%TO.N,Net-(D32-A)*%
X161600000Y-45970000D03*
%TD*%
D21*
%TO.P,Q20,1,G*%
%TO.N,Net-(D35-A)*%
X231600000Y-39200000D03*
D22*
%TO.P,Q20,2,D*%
%TO.N,+48V*%
X234140000Y-39200000D03*
%TO.P,Q20,3,S*%
%TO.N,Trn-*%
X236680000Y-39200000D03*
%TD*%
D20*
%TO.P,D9,1,K*%
%TO.N,Net-(D10-K)*%
X133283800Y-123203000D03*
D18*
%TO.P,D9,2,A*%
%TO.N,Net-(D9-A)*%
X133283800Y-130823000D03*
%TD*%
D19*
%TO.P,R48,1*%
%TO.N,11*%
X204900000Y-112480000D03*
D18*
%TO.P,R48,2*%
%TO.N,Net-(Q34-B)*%
X204900000Y-102320000D03*
%TD*%
D20*
%TO.P,C3,1*%
%TO.N,+48V*%
X132072800Y-104036400D03*
D19*
%TO.P,C3,2*%
%TO.N,GND*%
X134572800Y-104036400D03*
%TD*%
%TO.P,C19,1*%
%TO.N,Net-(U2-AREF)*%
X58450000Y-71280000D03*
%TO.P,C19,2*%
%TO.N,GND*%
X55950000Y-71280000D03*
%TD*%
D21*
%TO.P,Q22,1,G*%
%TO.N,Net-(D12-A)*%
X182800000Y-139280000D03*
D22*
%TO.P,Q22,2,D*%
%TO.N,Trn-*%
X180260000Y-139280000D03*
%TO.P,Q22,3,S*%
%TO.N,GND*%
X177720000Y-139280000D03*
%TD*%
D17*
%TO.P,Q32,3,C*%
%TO.N,Net-(Q31-B)*%
X192918400Y-98573600D03*
%TO.P,Q32,2,B*%
%TO.N,Net-(Q32-B)*%
X192918400Y-96033600D03*
D16*
%TO.P,Q32,1,E*%
%TO.N,GND*%
X192918400Y-93493600D03*
%TD*%
D20*
%TO.P,D8,1,K*%
%TO.N,Net-(D10-K)*%
X145729800Y-122542600D03*
D18*
%TO.P,D8,2,A*%
%TO.N,Net-(D8-A)*%
X145729800Y-130162600D03*
%TD*%
D21*
%TO.P,Q17,1,G*%
%TO.N,Net-(D15-A)*%
X113900000Y-139080000D03*
D22*
%TO.P,Q17,2,D*%
%TO.N,Trn+*%
X111360000Y-139080000D03*
%TO.P,Q17,3,S*%
%TO.N,GND*%
X108820000Y-139080000D03*
%TD*%
D19*
%TO.P,R47,1*%
%TO.N,+5V*%
X152400000Y-93500000D03*
D18*
%TO.P,R47,2*%
%TO.N,Net-(Q33-B)*%
X152400000Y-78260000D03*
%TD*%
D19*
%TO.P,R22,1*%
%TO.N,Net-(D13-K)*%
X193700000Y-59600000D03*
D18*
%TO.P,R22,2*%
%TO.N,Net-(D31-A)*%
X193700000Y-44360000D03*
%TD*%
D19*
%TO.P,R37,1*%
%TO.N,9*%
X106000000Y-80760000D03*
D18*
%TO.P,R37,2*%
%TO.N,Net-(Q30-B)*%
X106000000Y-70600000D03*
%TD*%
D19*
%TO.P,C21,1*%
%TO.N,Net-(J1-GND)*%
X75200000Y-119080000D03*
%TO.P,C21,2*%
%TO.N,GND*%
X72700000Y-119080000D03*
%TD*%
D20*
%TO.P,D15,1,K*%
%TO.N,Net-(D10-K)*%
X107706000Y-123965000D03*
D18*
%TO.P,D15,2,A*%
%TO.N,Net-(D15-A)*%
X107706000Y-131585000D03*
%TD*%
D19*
%TO.P,C16,1*%
%TO.N,GND*%
X52150000Y-94580000D03*
%TO.P,C16,2*%
%TO.N,Net-(U3-V3)*%
X52150000Y-97080000D03*
%TD*%
D20*
%TO.P,D18,1,K*%
%TO.N,Net-(D18-K)*%
X109700000Y-55490000D03*
D18*
%TO.P,D18,2,A*%
%TO.N,Net-(D18-A)*%
X109700000Y-47870000D03*
%TD*%
D16*
%TO.P,Q30,1,E*%
%TO.N,GND*%
X112834800Y-67790600D03*
D17*
%TO.P,Q30,2,B*%
%TO.N,Net-(Q30-B)*%
X112834800Y-65250600D03*
%TO.P,Q30,3,C*%
%TO.N,Net-(Q29-B)*%
X112834800Y-62710600D03*
%TD*%
D19*
%TO.P,C13,1*%
%TO.N,Net-(U3-XO)*%
X79400000Y-96480000D03*
%TO.P,C13,2*%
%TO.N,GND*%
X79400000Y-93980000D03*
%TD*%
D20*
%TO.P,D16,1,K*%
%TO.N,Net-(D10-K)*%
X94523400Y-122491800D03*
D18*
%TO.P,D16,2,A*%
%TO.N,Net-(D16-A)*%
X94523400Y-130111800D03*
%TD*%
D19*
%TO.P,R32,1*%
%TO.N,9*%
X146409200Y-79525400D03*
D18*
%TO.P,R32,2*%
%TO.N,Net-(Q27-B)*%
X146409200Y-69365400D03*
%TD*%
%TO.P,R40,2*%
%TO.N,Net-(Q32-B)*%
X193020000Y-101520000D03*
D19*
%TO.P,R40,1*%
%TO.N,11*%
X193020000Y-111680000D03*
%TD*%
D20*
%TO.P,D12,1,K*%
%TO.N,Net-(D11-K)*%
X177158400Y-122364800D03*
D18*
%TO.P,D12,2,A*%
%TO.N,Net-(D12-A)*%
X177158400Y-129984800D03*
%TD*%
D20*
%TO.P,C1,1*%
%TO.N,+48V*%
X132095021Y-86688200D03*
D19*
%TO.P,C1,2*%
%TO.N,+5V*%
X134595021Y-86688200D03*
%TD*%
D21*
%TO.P,Q16,1,G*%
%TO.N,Net-(D31-A)*%
X194020000Y-38880000D03*
D22*
%TO.P,Q16,2,D*%
%TO.N,+48V*%
X196560000Y-38880000D03*
%TO.P,Q16,3,S*%
%TO.N,Trn-*%
X199100000Y-38880000D03*
%TD*%
D20*
%TO.P,D21,1,K*%
%TO.N,Net-(D11-K)*%
X203800000Y-123370000D03*
D18*
%TO.P,D21,2,A*%
%TO.N,Net-(D21-A)*%
X203800000Y-130990000D03*
%TD*%
D19*
%TO.P,R28,1*%
%TO.N,Trn-*%
X240700000Y-45060000D03*
D18*
%TO.P,R28,2*%
%TO.N,Net-(D13-K)*%
X240700000Y-60300000D03*
%TD*%
%TO.P,R38,2*%
%TO.N,Net-(D13-K)*%
X196533000Y-73818800D03*
D19*
%TO.P,R38,1*%
%TO.N,Net-(D26-K)*%
X196533000Y-89058800D03*
%TD*%
%TO.P,R34,1*%
%TO.N,Net-(D1-K)*%
X144732800Y-99972400D03*
D18*
%TO.P,R34,2*%
%TO.N,Net-(D18-K)*%
X144732800Y-84732400D03*
%TD*%
D21*
%TO.P,Q12,1,G*%
%TO.N,Net-(D22-A)*%
X224500000Y-139080000D03*
D22*
%TO.P,Q12,2,D*%
%TO.N,Trn-*%
X221960000Y-139080000D03*
%TO.P,Q12,3,S*%
%TO.N,GND*%
X219420000Y-139080000D03*
%TD*%
D20*
%TO.P,D19,1,K*%
%TO.N,Net-(D18-K)*%
X97200000Y-55700000D03*
D18*
%TO.P,D19,2,A*%
%TO.N,Net-(D19-A)*%
X97200000Y-48080000D03*
%TD*%
D23*
%TO.P,Y2,1,1*%
%TO.N,Net-(U3-XO)*%
X86200000Y-97080000D03*
%TO.P,Y2,2,2*%
%TO.N,Net-(U3-XI)*%
X86200000Y-88580000D03*
%TD*%
D20*
%TO.P,D33,1,K*%
%TO.N,Net-(D13-K)*%
X200100000Y-55490000D03*
D18*
%TO.P,D33,2,A*%
%TO.N,Net-(D33-A)*%
X200100000Y-47870000D03*
%TD*%
D19*
%TO.P,R2,1*%
%TO.N,Net-(D10-K)*%
X88224200Y-118580200D03*
D18*
%TO.P,R2,2*%
%TO.N,Net-(D17-A)*%
X88224200Y-133820200D03*
%TD*%
D20*
%TO.P,D7,1,K*%
%TO.N,Net-(D18-K)*%
X123000000Y-53990000D03*
D18*
%TO.P,D7,2,A*%
%TO.N,Net-(D7-A)*%
X123000000Y-46370000D03*
%TD*%
D19*
%TO.P,R16,1*%
%TO.N,Net-(D13-K)*%
X233200000Y-59300000D03*
D18*
%TO.P,R16,2*%
%TO.N,Net-(D35-A)*%
X233200000Y-44060000D03*
%TD*%
D19*
%TO.P,C15,1*%
%TO.N,GND*%
X64150000Y-119280000D03*
%TO.P,C15,2*%
%TO.N,Net-(J1-VBUS)*%
X61650000Y-119280000D03*
%TD*%
D20*
%TO.P,D14,1,K*%
%TO.N,Net-(D11-K)*%
X189900000Y-123160000D03*
D18*
%TO.P,D14,2,A*%
%TO.N,Net-(D14-A)*%
X189900000Y-130780000D03*
%TD*%
D16*
%TO.P,Q28,1,E*%
%TO.N,GND*%
X151921000Y-64666400D03*
D17*
%TO.P,Q28,2,B*%
%TO.N,Net-(Q27-C)*%
X154461000Y-64666400D03*
%TO.P,Q28,3,C*%
%TO.N,Net-(D18-K)*%
X157001000Y-64666400D03*
%TD*%
D21*
%TO.P,Q10,1,G*%
%TO.N,Net-(D8-A)*%
X150500000Y-139080000D03*
D22*
%TO.P,Q10,2,D*%
%TO.N,Trn+*%
X147960000Y-139080000D03*
%TO.P,Q10,3,S*%
%TO.N,GND*%
X145420000Y-139080000D03*
%TD*%
D24*
%TO.P,C20,2*%
%TO.N,Net-(J3-Pin_1)*%
X215200000Y-92280000D03*
%TO.P,C20,1*%
%TO.N,Net-(J3-Pin_2)*%
X230200000Y-92280000D03*
%TD*%
D21*
%TO.P,Q4,1,G*%
%TO.N,Net-(D16-A)*%
X102000000Y-139180000D03*
D22*
%TO.P,Q4,2,D*%
%TO.N,Trn+*%
X99460000Y-139180000D03*
%TO.P,Q4,3,S*%
%TO.N,GND*%
X96920000Y-139180000D03*
%TD*%
D19*
%TO.P,R8,1*%
%TO.N,Net-(D18-K)*%
X102300000Y-58600000D03*
D18*
%TO.P,R8,2*%
%TO.N,Net-(D19-A)*%
X102300000Y-43360000D03*
%TD*%
D17*
%TO.P,Q34,3,C*%
%TO.N,Net-(Q33-B)*%
X204100000Y-88620000D03*
%TO.P,Q34,2,B*%
%TO.N,Net-(Q34-B)*%
X204100000Y-86080000D03*
D16*
%TO.P,Q34,1,E*%
%TO.N,GND*%
X204100000Y-83540000D03*
%TD*%
D19*
%TO.P,R9,1*%
%TO.N,Net-(D18-K)*%
X116800000Y-57400000D03*
D18*
%TO.P,R9,2*%
%TO.N,Net-(D18-A)*%
X116800000Y-42160000D03*
%TD*%
D19*
%TO.P,R17,1*%
%TO.N,Net-(D11-K)*%
X208900000Y-118760000D03*
D18*
%TO.P,R17,2*%
%TO.N,Net-(D21-A)*%
X208900000Y-134000000D03*
%TD*%
D20*
%TO.P,C9,1*%
%TO.N,+5V*%
X180126421Y-85680000D03*
D19*
%TO.P,C9,2*%
%TO.N,GND*%
X182626421Y-85680000D03*
%TD*%
D25*
%TO.P,D30,1,K*%
%TO.N,GND*%
X68150000Y-78630000D03*
%TO.P,D30,2,A*%
%TO.N,Net-(D30-A)*%
X68150000Y-83130000D03*
%TD*%
D19*
%TO.P,R19,1*%
%TO.N,Net-(D11-K)*%
X236200000Y-118160000D03*
D18*
%TO.P,R19,2*%
%TO.N,Net-(D36-A)*%
X236200000Y-133400000D03*
%TD*%
D26*
%TO.P,C6,1*%
%TO.N,+48V*%
X161100000Y-103380000D03*
%TO.P,C6,2*%
%TO.N,GND*%
X166700000Y-103380000D03*
%TD*%
D21*
%TO.P,Q13,1,G*%
%TO.N,Net-(D36-A)*%
X236400000Y-138880000D03*
D22*
%TO.P,Q13,2,D*%
%TO.N,Trn-*%
X233860000Y-138880000D03*
%TO.P,Q13,3,S*%
%TO.N,GND*%
X231320000Y-138880000D03*
%TD*%
D19*
%TO.P,R18,1*%
%TO.N,Net-(D11-K)*%
X222200000Y-118560000D03*
D18*
%TO.P,R18,2*%
%TO.N,Net-(D22-A)*%
X222200000Y-133800000D03*
%TD*%
D16*
%TO.P,Q3,1,E*%
%TO.N,+5V*%
X120933000Y-64823200D03*
D17*
%TO.P,Q3,2,B*%
%TO.N,Net-(Q1-C)*%
X123473000Y-64823200D03*
%TO.P,Q3,3,C*%
%TO.N,Net-(D10-K)*%
X126013000Y-64823200D03*
%TD*%
D19*
%TO.P,R45,1*%
%TO.N,+5V*%
X43266600Y-59699000D03*
D18*
%TO.P,R45,2*%
%TO.N,Net-(U2-~{RESET}{slash}PC6)*%
X43266600Y-74939000D03*
%TD*%
D19*
%TO.P,R33,1*%
%TO.N,+5V*%
X165535400Y-85926200D03*
D18*
%TO.P,R33,2*%
%TO.N,Net-(Q27-C)*%
X165535400Y-70686200D03*
%TD*%
D21*
%TO.P,Q14,1,G*%
%TO.N,Net-(D32-A)*%
X167820000Y-38480000D03*
D22*
%TO.P,Q14,2,D*%
%TO.N,+48V*%
X170360000Y-38480000D03*
%TO.P,Q14,3,S*%
%TO.N,Trn-*%
X172900000Y-38480000D03*
%TD*%
D19*
%TO.P,R25,1*%
%TO.N,Net-(D10-K)*%
X98520000Y-108600000D03*
D18*
%TO.P,R25,2*%
%TO.N,GND*%
X83280000Y-108600000D03*
%TD*%
D27*
%TO.P,D26,1,K*%
%TO.N,Net-(D26-K)*%
X174400000Y-79000000D03*
D28*
%TO.P,D26,2,A*%
%TO.N,+48V*%
X174400000Y-89160000D03*
%TD*%
D27*
%TO.P,D27,1,K*%
%TO.N,+48V*%
X85240000Y-82480000D03*
D28*
%TO.P,D27,2,A*%
%TO.N,+5V*%
X95400000Y-82480000D03*
%TD*%
D18*
%TO.P,R26,2*%
%TO.N,Net-(D11-K)*%
X241900000Y-119660000D03*
D19*
%TO.P,R26,1*%
%TO.N,GND*%
X241900000Y-134900000D03*
%TD*%
%TO.P,R36,1*%
%TO.N,+5V*%
X99317600Y-81735200D03*
D18*
%TO.P,R36,2*%
%TO.N,Net-(Q29-B)*%
X99317600Y-66495200D03*
%TD*%
D29*
%TO.P,D29,1,K*%
%TO.N,GND*%
X78100000Y-60880000D03*
%TO.P,D29,2,A*%
%TO.N,Net-(D29-A)*%
X80900000Y-60880000D03*
%TD*%
D19*
%TO.P,R7,1*%
%TO.N,Net-(D18-K)*%
X91100000Y-58513600D03*
D18*
%TO.P,R7,2*%
%TO.N,Net-(D20-A)*%
X91100000Y-43273600D03*
%TD*%
D21*
%TO.P,Q9,1,G*%
%TO.N,Net-(D9-A)*%
X138600000Y-139180000D03*
D22*
%TO.P,Q9,2,D*%
%TO.N,Trn+*%
X136060000Y-139180000D03*
%TO.P,Q9,3,S*%
%TO.N,GND*%
X133520000Y-139180000D03*
%TD*%
D30*
%TO.P,T1,1,AA*%
%TO.N,Trn+*%
X218300000Y-77440000D03*
%TO.P,T1,2,AB*%
%TO.N,Trn-*%
X218300000Y-79980000D03*
%TO.P,T1,3,SA*%
%TO.N,Net-(J3-Pin_1)*%
X221730000Y-79980000D03*
%TO.P,T1,4,SC*%
%TO.N,unconnected-(T1-SC-Pad4)*%
X221730000Y-78710000D03*
%TO.P,T1,5,SB*%
%TO.N,Net-(J3-Pin_2)*%
X221730000Y-77440000D03*
%TD*%
D19*
%TO.P,R46,1*%
%TO.N,+48V*%
X140980000Y-107280000D03*
D18*
%TO.P,R46,2*%
%TO.N,Net-(D10-K)*%
X156220000Y-107280000D03*
%TD*%
D19*
%TO.P,C8,1*%
%TO.N,+48V*%
X117400000Y-82430000D03*
%TO.P,C8,2*%
%TO.N,GND*%
X117400000Y-84930000D03*
%TD*%
%TO.P,R12,1*%
%TO.N,Net-(D10-K)*%
X151851200Y-118148400D03*
D18*
%TO.P,R12,2*%
%TO.N,Net-(D8-A)*%
X151851200Y-133388400D03*
%TD*%
D19*
%TO.P,R30,1*%
%TO.N,Net-(D11-K)*%
X181900000Y-119160000D03*
D18*
%TO.P,R30,2*%
%TO.N,Net-(D12-A)*%
X181900000Y-134400000D03*
%TD*%
D19*
%TO.P,R6,1*%
%TO.N,Net-(D10-K)*%
X114259200Y-119926400D03*
D18*
%TO.P,R6,2*%
%TO.N,Net-(D15-A)*%
X114259200Y-135166400D03*
%TD*%
D19*
%TO.P,R4,1*%
%TO.N,Net-(D10-K)*%
X100848000Y-119012000D03*
D18*
%TO.P,R4,2*%
%TO.N,Net-(D16-A)*%
X100848000Y-134252000D03*
%TD*%
D16*
%TO.P,Q33,1,E*%
%TO.N,GND*%
X151946400Y-72544800D03*
D17*
%TO.P,Q33,2,B*%
%TO.N,Net-(Q33-B)*%
X154486400Y-72544800D03*
%TO.P,Q33,3,C*%
%TO.N,Net-(D10-K)*%
X157026400Y-72544800D03*
%TD*%
D20*
%TO.P,D36,1,K*%
%TO.N,Net-(D11-K)*%
X231184200Y-124142800D03*
D18*
%TO.P,D36,2,A*%
%TO.N,Net-(D36-A)*%
X231184200Y-131762800D03*
%TD*%
D21*
%TO.P,Q26,1,G*%
%TO.N,Net-(D5-A)*%
X151820000Y-38080000D03*
D22*
%TO.P,Q26,2,D*%
%TO.N,+48V*%
X154360000Y-38080000D03*
%TO.P,Q26,3,S*%
%TO.N,Trn+*%
X156900000Y-38080000D03*
%TD*%
D21*
%TO.P,Q8,1,G*%
%TO.N,Net-(D10-A)*%
X126300000Y-139080000D03*
D22*
%TO.P,Q8,2,D*%
%TO.N,Trn+*%
X123760000Y-139080000D03*
%TO.P,Q8,3,S*%
%TO.N,GND*%
X121220000Y-139080000D03*
%TD*%
D31*
%TO.P,J1,1,VBUS*%
%TO.N,Net-(J1-VBUS)*%
X58400000Y-113580000D03*
%TO.P,J1,2,D-*%
%TO.N,Net-(J1-D-)*%
X58400000Y-111080000D03*
%TO.P,J1,3,D+*%
%TO.N,Net-(J1-D+)*%
X58400000Y-109080000D03*
%TO.P,J1,4,GND*%
%TO.N,Net-(J1-GND)*%
X58400000Y-106580000D03*
D32*
%TO.P,J1,5,Shield*%
%TO.N,unconnected-(J1-Shield-Pad5)*%
X55650000Y-115780000D03*
X55650000Y-104380000D03*
%TD*%
D19*
%TO.P,R35,1*%
%TO.N,+48V*%
X92866000Y-78890400D03*
D18*
%TO.P,R35,2*%
%TO.N,Net-(D11-K)*%
X92866000Y-63650400D03*
%TD*%
D27*
%TO.P,D1,1,K*%
%TO.N,Net-(D1-K)*%
X125073200Y-94790800D03*
D28*
%TO.P,D1,2,A*%
%TO.N,+48V*%
X125073200Y-104950800D03*
%TD*%
D19*
%TO.P,C10,1*%
%TO.N,Net-(U2-XTAL1{slash}PB6)*%
X73649000Y-89503000D03*
%TO.P,C10,2*%
%TO.N,GND*%
X76149000Y-89503000D03*
%TD*%
D20*
%TO.P,D13,1,K*%
%TO.N,Net-(D13-K)*%
X173500000Y-53490000D03*
D18*
%TO.P,D13,2,A*%
%TO.N,Net-(D13-A)*%
X173500000Y-45870000D03*
%TD*%
D17*
%TO.P,Q31,3,C*%
%TO.N,Net-(D13-K)*%
X196503200Y-70262800D03*
%TO.P,Q31,2,B*%
%TO.N,Net-(Q31-B)*%
X196503200Y-67722800D03*
D16*
%TO.P,Q31,1,E*%
%TO.N,GND*%
X196503200Y-65182800D03*
%TD*%
D21*
%TO.P,Q5,1,G*%
%TO.N,Net-(D20-A)*%
X92420000Y-38580000D03*
D22*
%TO.P,Q5,2,D*%
%TO.N,+48V*%
X94960000Y-38580000D03*
%TO.P,Q5,3,S*%
%TO.N,Trn+*%
X97500000Y-38580000D03*
%TD*%
D19*
%TO.P,C11,1*%
%TO.N,Net-(U3-XI)*%
X81400000Y-89530000D03*
%TO.P,C11,2*%
%TO.N,GND*%
X78900000Y-89530000D03*
%TD*%
D21*
%TO.P,Q24,1,G*%
%TO.N,Net-(D7-A)*%
X128720000Y-37980000D03*
D22*
%TO.P,Q24,2,D*%
%TO.N,+48V*%
X131260000Y-37980000D03*
%TO.P,Q24,3,S*%
%TO.N,Trn+*%
X133800000Y-37980000D03*
%TD*%
D19*
%TO.P,C12,1*%
%TO.N,Net-(U2-XTAL2{slash}PB7)*%
X75200000Y-96280000D03*
%TO.P,C12,2*%
%TO.N,GND*%
X75200000Y-93780000D03*
%TD*%
D20*
%TO.P,D5,1,K*%
%TO.N,Net-(D18-K)*%
X147100000Y-52190000D03*
D18*
%TO.P,D5,2,A*%
%TO.N,Net-(D5-A)*%
X147100000Y-44570000D03*
%TD*%
D19*
%TO.P,R23,1*%
%TO.N,Net-(D18-K)*%
X140000000Y-57500000D03*
D18*
%TO.P,R23,2*%
%TO.N,Net-(D6-A)*%
X140000000Y-42260000D03*
%TD*%
D33*
%TO.P,U3,1,GND*%
%TO.N,Net-(U3-GND)*%
X67650000Y-103260000D03*
%TO.P,U3,2,TXD*%
%TO.N,Net-(U2-PD0)*%
X67650000Y-104530000D03*
%TO.P,U3,3,RXD*%
%TO.N,Net-(U2-PD1)*%
X67650000Y-105800000D03*
%TO.P,U3,4,V3*%
%TO.N,Net-(U3-V3)*%
X67650000Y-107070000D03*
%TO.P,U3,5,UD+*%
%TO.N,Net-(J1-D+)*%
X67650000Y-108340000D03*
%TO.P,U3,6,UD-*%
%TO.N,Net-(J1-D-)*%
X67650000Y-109610000D03*
%TO.P,U3,7,XI*%
%TO.N,Net-(U3-XI)*%
X67650000Y-110880000D03*
%TO.P,U3,8,XO*%
%TO.N,Net-(U3-XO)*%
X67650000Y-112150000D03*
%TO.P,U3,9,~{CTS}*%
%TO.N,unconnected-(U3-~{CTS}-Pad9)*%
X72600000Y-112150000D03*
%TO.P,U3,10,~{DSR}*%
%TO.N,unconnected-(U3-~{DSR}-Pad10)*%
X72600000Y-110880000D03*
%TO.P,U3,11,~{RI}*%
%TO.N,unconnected-(U3-~{RI}-Pad11)*%
X72600000Y-109610000D03*
%TO.P,U3,12,~{DCD}*%
%TO.N,unconnected-(U3-~{DCD}-Pad12)*%
X72600000Y-108340000D03*
%TO.P,U3,13,~{DTR}*%
%TO.N,Net-(U2-~{RESET}{slash}PC6)*%
X72600000Y-107070000D03*
%TO.P,U3,14,~{RTS}*%
%TO.N,unconnected-(U3-~{RTS}-Pad14)*%
X72600000Y-105800000D03*
%TO.P,U3,15,R232*%
%TO.N,unconnected-(U3-R232-Pad15)*%
X72600000Y-104530000D03*
%TO.P,U3,16,VCC*%
%TO.N,Net-(U3-VCC)*%
X72600000Y-103260000D03*
%TD*%
D19*
%TO.P,R27,1*%
%TO.N,Net-(D18-K)*%
X143020000Y-78480000D03*
D18*
%TO.P,R27,2*%
%TO.N,Trn+*%
X127780000Y-78480000D03*
%TD*%
D19*
%TO.P,C18,1*%
%TO.N,+5V*%
X39950000Y-83080000D03*
%TO.P,C18,2*%
%TO.N,Net-(U2-VCC)*%
X42450000Y-83080000D03*
%TD*%
%TO.P,R11,1*%
%TO.N,Net-(D10-K)*%
X139176600Y-119139000D03*
D18*
%TO.P,R11,2*%
%TO.N,Net-(D9-A)*%
X139176600Y-134379000D03*
%TD*%
D34*
%TO.P,U1,1,ADJ*%
%TO.N,Net-(D28-A)*%
X61307800Y-53794800D03*
D35*
%TO.P,U1,2,VO*%
%TO.N,+5V*%
X61220300Y-52294800D03*
D34*
%TO.P,U1,3,VI*%
%TO.N,+48V*%
X61307800Y-50794800D03*
%TD*%
D19*
%TO.P,R5,1*%
%TO.N,+48V*%
X118600000Y-90460000D03*
D18*
%TO.P,R5,2*%
%TO.N,Net-(D10-K)*%
X118600000Y-105700000D03*
%TD*%
D19*
%TO.P,R10,1*%
%TO.N,Net-(D10-K)*%
X126095600Y-119951800D03*
D18*
%TO.P,R10,2*%
%TO.N,Net-(D10-A)*%
X126095600Y-135191800D03*
%TD*%
D21*
%TO.P,Q2,1,G*%
%TO.N,Net-(D17-A)*%
X90300000Y-139180000D03*
D22*
%TO.P,Q2,2,D*%
%TO.N,Trn+*%
X87760000Y-139180000D03*
%TO.P,Q2,3,S*%
%TO.N,GND*%
X85220000Y-139180000D03*
%TD*%
D19*
%TO.P,R41,1*%
%TO.N,GND*%
X75719000Y-60939400D03*
D18*
%TO.P,R41,2*%
%TO.N,Net-(D28-A)*%
X65559000Y-60939400D03*
%TD*%
D19*
%TO.P,R44,1*%
%TO.N,Net-(U2-PB5)*%
X58070000Y-86080000D03*
D18*
%TO.P,R44,2*%
%TO.N,Net-(D30-A)*%
X68230000Y-86080000D03*
%TD*%
D26*
%TO.P,C7,1*%
%TO.N,+48V*%
X161000000Y-112180000D03*
%TO.P,C7,2*%
%TO.N,GND*%
X166400000Y-112180000D03*
%TD*%
D19*
%TO.P,R14,1*%
%TO.N,Net-(D13-K)*%
X208000000Y-58400000D03*
D18*
%TO.P,R14,2*%
%TO.N,Net-(D33-A)*%
X208000000Y-43160000D03*
%TD*%
%TO.P,R39,2*%
%TO.N,Net-(Q31-B)*%
X189800000Y-70660000D03*
D19*
%TO.P,R39,1*%
%TO.N,+5V*%
X189800000Y-85900000D03*
%TD*%
D20*
%TO.P,D20,1,K*%
%TO.N,Net-(D18-K)*%
X86161000Y-55770400D03*
D18*
%TO.P,D20,2,A*%
%TO.N,Net-(D20-A)*%
X86161000Y-48150400D03*
%TD*%
D21*
%TO.P,Q11,1,G*%
%TO.N,Net-(D21-A)*%
X209900000Y-139180000D03*
D22*
%TO.P,Q11,2,D*%
%TO.N,Trn-*%
X207360000Y-139180000D03*
%TO.P,Q11,3,S*%
%TO.N,GND*%
X204820000Y-139180000D03*
%TD*%
D21*
%TO.P,Q7,1,G*%
%TO.N,Net-(D18-A)*%
X116820000Y-38380000D03*
D22*
%TO.P,Q7,2,D*%
%TO.N,+48V*%
X119360000Y-38380000D03*
%TO.P,Q7,3,S*%
%TO.N,Trn+*%
X121900000Y-38380000D03*
%TD*%
D21*
%TO.P,Q15,1,G*%
%TO.N,Net-(D13-A)*%
X180820000Y-38880000D03*
D22*
%TO.P,Q15,2,D*%
%TO.N,+48V*%
X183360000Y-38880000D03*
%TO.P,Q15,3,S*%
%TO.N,Trn-*%
X185900000Y-38880000D03*
%TD*%
D19*
%TO.P,R20,1*%
%TO.N,Net-(D13-K)*%
X167100000Y-58000000D03*
D18*
%TO.P,R20,2*%
%TO.N,Net-(D32-A)*%
X167100000Y-42760000D03*
%TD*%
D14*
%TO.P,J2,1,Pin_1*%
%TO.N,+48V*%
X44650000Y-45935000D03*
D15*
%TO.P,J2,2,Pin_2*%
%TO.N,GND*%
X44650000Y-51015000D03*
%TD*%
D19*
%TO.P,R43,1*%
%TO.N,+5V*%
X78039000Y-46659400D03*
D18*
%TO.P,R43,2*%
%TO.N,Net-(D29-A)*%
X78039000Y-56819400D03*
%TD*%
D20*
%TO.P,C22,1*%
%TO.N,+48V*%
X179500000Y-95680000D03*
D19*
%TO.P,C22,2*%
%TO.N,GND*%
X182000000Y-95680000D03*
%TD*%
%TO.P,R42,1*%
%TO.N,+5V*%
X70239000Y-47259400D03*
D18*
%TO.P,R42,2*%
%TO.N,Net-(D28-A)*%
X70239000Y-57419400D03*
%TD*%
D36*
%TO.P,U2,1,PD3*%
%TO.N,unconnected-(U2-PD3-Pad1)*%
X46100000Y-80430000D03*
%TO.P,U2,2,PD4*%
%TO.N,unconnected-(U2-PD4-Pad2)*%
X46100000Y-81230000D03*
%TO.P,U2,3,PE0*%
%TO.N,unconnected-(U2-PE0-Pad3)*%
X46100000Y-82030000D03*
%TO.P,U2,4,VCC*%
%TO.N,Net-(U2-VCC)*%
X46100000Y-82830000D03*
%TO.P,U2,5,GND*%
%TO.N,GND*%
X46100000Y-83630000D03*
%TO.P,U2,6,PE1*%
%TO.N,unconnected-(U2-PE1-Pad6)*%
X46100000Y-84430000D03*
%TO.P,U2,7,XTAL1/PB6*%
%TO.N,Net-(U2-XTAL1{slash}PB6)*%
X46100000Y-85230000D03*
%TO.P,U2,8,XTAL2/PB7*%
%TO.N,Net-(U2-XTAL2{slash}PB7)*%
X46100000Y-86030000D03*
D37*
%TO.P,U2,9,PD5*%
%TO.N,unconnected-(U2-PD5-Pad9)*%
X47550000Y-87480000D03*
%TO.P,U2,10,PD6*%
%TO.N,unconnected-(U2-PD6-Pad10)*%
X48350000Y-87480000D03*
%TO.P,U2,11,PD7*%
%TO.N,unconnected-(U2-PD7-Pad11)*%
X49150000Y-87480000D03*
%TO.P,U2,12,PB0*%
%TO.N,unconnected-(U2-PB0-Pad12)*%
X49950000Y-87480000D03*
%TO.P,U2,13,PB1*%
%TO.N,9*%
X50750000Y-87480000D03*
%TO.P,U2,14,PB2*%
%TO.N,unconnected-(U2-PB2-Pad14)*%
X51550000Y-87480000D03*
%TO.P,U2,15,PB3*%
%TO.N,11*%
X52350000Y-87480000D03*
%TO.P,U2,16,PB4*%
%TO.N,unconnected-(U2-PB4-Pad16)*%
X53150000Y-87480000D03*
D36*
%TO.P,U2,17,PB5*%
%TO.N,Net-(U2-PB5)*%
X54600000Y-86030000D03*
%TO.P,U2,18,AVCC*%
%TO.N,Net-(U2-AVCC)*%
X54600000Y-85230000D03*
%TO.P,U2,19,PE2*%
%TO.N,unconnected-(U2-PE2-Pad19)*%
X54600000Y-84430000D03*
%TO.P,U2,20,AREF*%
%TO.N,Net-(U2-AREF)*%
X54600000Y-83630000D03*
%TO.P,U2,21,GND*%
%TO.N,GND*%
X54600000Y-82830000D03*
%TO.P,U2,22,PE3*%
%TO.N,unconnected-(U2-PE3-Pad22)*%
X54600000Y-82030000D03*
%TO.P,U2,23,PC0*%
%TO.N,unconnected-(U2-PC0-Pad23)*%
X54600000Y-81230000D03*
%TO.P,U2,24,PC1*%
%TO.N,unconnected-(U2-PC1-Pad24)*%
X54600000Y-80430000D03*
D37*
%TO.P,U2,25,PC2*%
%TO.N,unconnected-(U2-PC2-Pad25)*%
X53150000Y-78980000D03*
%TO.P,U2,26,PC3*%
%TO.N,unconnected-(U2-PC3-Pad26)*%
X52350000Y-78980000D03*
%TO.P,U2,27,PC4*%
%TO.N,unconnected-(U2-PC4-Pad27)*%
X51550000Y-78980000D03*
%TO.P,U2,28,PC5*%
%TO.N,unconnected-(U2-PC5-Pad28)*%
X50750000Y-78980000D03*
%TO.P,U2,29,~{RESET}/PC6*%
%TO.N,Net-(U2-~{RESET}{slash}PC6)*%
X49950000Y-78980000D03*
%TO.P,U2,30,PD0*%
%TO.N,Net-(U2-PD0)*%
X49150000Y-78980000D03*
%TO.P,U2,31,PD1*%
%TO.N,Net-(U2-PD1)*%
X48350000Y-78980000D03*
%TO.P,U2,32,PD2*%
%TO.N,unconnected-(U2-PD2-Pad32)*%
X47550000Y-78980000D03*
%TD*%
D20*
%TO.P,D6,1,K*%
%TO.N,Net-(D18-K)*%
X134900000Y-55090000D03*
D18*
%TO.P,D6,2,A*%
%TO.N,Net-(D6-A)*%
X134900000Y-47470000D03*
%TD*%
D20*
%TO.P,D31,1,K*%
%TO.N,Net-(D13-K)*%
X187100000Y-55090000D03*
D18*
%TO.P,D31,2,A*%
%TO.N,Net-(D31-A)*%
X187100000Y-47470000D03*
%TD*%
D20*
%TO.P,D35,1,K*%
%TO.N,Net-(D13-K)*%
X226600000Y-54590000D03*
D18*
%TO.P,D35,2,A*%
%TO.N,Net-(D35-A)*%
X226600000Y-46970000D03*
%TD*%
D21*
%TO.P,Q21,1,G*%
%TO.N,Net-(D11-A)*%
X169400000Y-139380000D03*
D22*
%TO.P,Q21,2,D*%
%TO.N,Trn-*%
X166860000Y-139380000D03*
%TO.P,Q21,3,S*%
%TO.N,GND*%
X164320000Y-139380000D03*
%TD*%
D19*
%TO.P,R24,1*%
%TO.N,Net-(D18-K)*%
X153500000Y-57700000D03*
D18*
%TO.P,R24,2*%
%TO.N,Net-(D5-A)*%
X153500000Y-42460000D03*
%TD*%
D21*
%TO.P,Q18,1,G*%
%TO.N,Net-(D33-A)*%
X208220000Y-39080000D03*
D22*
%TO.P,Q18,2,D*%
%TO.N,+48V*%
X210760000Y-39080000D03*
%TO.P,Q18,3,S*%
%TO.N,Trn-*%
X213300000Y-39080000D03*
%TD*%
D19*
%TO.P,C1,1*%
%TO.N,Net-(U3-GND)*%
X58408400Y-95436800D03*
%TO.P,C1,2*%
%TO.N,GND*%
X60908400Y-95436800D03*
%TD*%
D23*
%TO.P,Y1,1,1*%
%TO.N,Net-(U2-XTAL1{slash}PB6)*%
X41750000Y-91030000D03*
%TO.P,Y1,2,2*%
%TO.N,Net-(U2-XTAL2{slash}PB7)*%
X41750000Y-99530000D03*
%TD*%
D21*
%TO.P,Q23,1,G*%
%TO.N,Net-(D14-A)*%
X196380000Y-139280000D03*
D22*
%TO.P,Q23,2,D*%
%TO.N,Trn-*%
X193840000Y-139280000D03*
%TO.P,Q23,3,S*%
%TO.N,GND*%
X191300000Y-139280000D03*
%TD*%
D21*
%TO.P,Q19,1,G*%
%TO.N,Net-(D34-A)*%
X220620000Y-39180000D03*
D22*
%TO.P,Q19,2,D*%
%TO.N,+48V*%
X223160000Y-39180000D03*
%TO.P,Q19,3,S*%
%TO.N,Trn-*%
X225700000Y-39180000D03*
%TD*%
D20*
%TO.P,D34,1,K*%
%TO.N,Net-(D13-K)*%
X213700000Y-56500000D03*
D18*
%TO.P,D34,2,A*%
%TO.N,Net-(D34-A)*%
X213700000Y-48880000D03*
%TD*%
D19*
%TO.P,C14,1*%
%TO.N,+5V*%
X66050000Y-95480000D03*
%TO.P,C14,2*%
%TO.N,Net-(U3-VCC)*%
X68550000Y-95480000D03*
%TD*%
D20*
%TO.P,C4,1*%
%TO.N,Net-(D26-K)*%
X179974021Y-75680000D03*
D19*
%TO.P,C4,2*%
%TO.N,Trn-*%
X182474021Y-75680000D03*
%TD*%
%TO.P,R31,1*%
%TO.N,Net-(D11-K)*%
X195000000Y-118360000D03*
D18*
%TO.P,R31,2*%
%TO.N,Net-(D14-A)*%
X195000000Y-133600000D03*
%TD*%
D21*
%TO.P,Q25,1,G*%
%TO.N,Net-(D6-A)*%
X139820000Y-37980000D03*
D22*
%TO.P,Q25,2,D*%
%TO.N,+48V*%
X142360000Y-37980000D03*
%TO.P,Q25,3,S*%
%TO.N,Trn+*%
X144900000Y-37980000D03*
%TD*%
D26*
%TO.P,C5,1*%
%TO.N,+48V*%
X161100000Y-94580000D03*
%TO.P,C5,2*%
%TO.N,GND*%
X166700000Y-94580000D03*
%TD*%
D27*
%TO.P,D28,1,K*%
%TO.N,+5V*%
X65839000Y-47059400D03*
D28*
%TO.P,D28,2,A*%
%TO.N,Net-(D28-A)*%
X65839000Y-57219400D03*
%TD*%
D17*
%TO.P,Q1,3,C*%
%TO.N,Net-(Q1-C)*%
X203586400Y-95220800D03*
%TO.P,Q1,2,B*%
%TO.N,Net-(Q1-B)*%
X201046400Y-95220800D03*
D16*
%TO.P,Q1,1,E*%
%TO.N,+5V*%
X198506400Y-95220800D03*
%TD*%
D19*
%TO.P,R3,1*%
%TO.N,+5V*%
X115802200Y-71753000D03*
D18*
%TO.P,R3,2*%
%TO.N,Net-(Q1-C)*%
X131042200Y-71753000D03*
%TD*%
D20*
%TO.P,D11,1,K*%
%TO.N,Net-(D11-K)*%
X163010600Y-123787200D03*
D18*
%TO.P,D11,2,A*%
%TO.N,Net-(D11-A)*%
X163010600Y-131407200D03*
%TD*%
D20*
%TO.P,D22,1,K*%
%TO.N,Net-(D11-K)*%
X217600000Y-122460000D03*
D18*
%TO.P,D22,2,A*%
%TO.N,Net-(D22-A)*%
X217600000Y-130080000D03*
%TD*%
D19*
%TO.P,C17,1*%
%TO.N,Net-(U2-AVCC)*%
X63900000Y-70880000D03*
%TO.P,C17,2*%
%TO.N,+5V*%
X66400000Y-70880000D03*
%TD*%
D38*
%TO.N,GND*%
X63100000Y-95500000D03*
X75900000Y-87300000D03*
X65500000Y-90700000D03*
X77600000Y-98300000D03*
X75100000Y-102700000D03*
X47600000Y-85900000D03*
X46000000Y-89500000D03*
D39*
X70600000Y-73000000D03*
X69000000Y-76500000D03*
X52600000Y-81500000D03*
X47900000Y-83600000D03*
%TO.N,Net-(Q31-B)*%
X188000000Y-67800000D03*
X186300000Y-89600000D03*
%TO.N,Trn+*%
X184700000Y-70200000D03*
X199240000Y-77440000D03*
%TO.N,Net-(D10-K)*%
X132300000Y-68900000D03*
X107300000Y-87600000D03*
%TO.N,Net-(Q33-B)*%
X158600000Y-77300000D03*
X188000000Y-79700000D03*
%TO.N,Net-(Q1-C)*%
X135400000Y-74800000D03*
X170900000Y-97900000D03*
%TO.N,Trn+*%
X131900000Y-125800000D03*
X145900000Y-89600000D03*
X140700000Y-94800000D03*
%TO.N,Net-(D10-K)*%
X145700000Y-119900000D03*
X149900000Y-113600000D03*
%TO.N,Net-(D11-K)*%
X105400000Y-90900000D03*
X100300000Y-72800000D03*
%TO.N,9*%
X113600000Y-81900000D03*
X134400000Y-78100000D03*
X91200000Y-96200000D03*
X47300000Y-94900000D03*
%TO.N,11*%
X204900000Y-118600000D03*
X49700000Y-94200000D03*
%TO.N,Net-(U2-XTAL1{slash}PB6)*%
X71700000Y-92400000D03*
X53800000Y-114000000D03*
%TO.N,Net-(U2-~{RESET}{slash}PC6)*%
X69300000Y-107100000D03*
X53000000Y-84900000D03*
%TO.N,Net-(U2-PD0)*%
X52000000Y-85100000D03*
X63844975Y-103155025D03*
%TO.N,Net-(U2-PD1)*%
X51200000Y-84900000D03*
X63400000Y-103700000D03*
%TO.N,+5V*%
X109800000Y-77100000D03*
X102100000Y-81300000D03*
%TD*%
D40*
%TO.N,Trn-*%
X240700000Y-41000000D02*
X240700000Y-45060000D01*
X238900000Y-39200000D02*
X240700000Y-41000000D01*
X236680000Y-39200000D02*
X238900000Y-39200000D01*
D41*
%TO.N,+48V*%
X234140000Y-34960000D02*
X234140000Y-39200000D01*
X232980000Y-33800000D02*
X234140000Y-34960000D01*
X220280000Y-33800000D02*
X232980000Y-33800000D01*
D40*
%TO.N,Net-(D35-A)*%
X231600000Y-39200000D02*
X233820000Y-41420000D01*
X233820000Y-43440000D02*
X233200000Y-44060000D01*
X233820000Y-41420000D02*
X233820000Y-43440000D01*
%TO.N,unconnected-(J1-Shield-Pad5)*%
X53400000Y-111827056D02*
X53400000Y-106630000D01*
X53400000Y-106630000D02*
X55650000Y-104380000D01*
X55650000Y-114077056D02*
X53400000Y-111827056D01*
X55650000Y-115780000D02*
X55650000Y-114077056D01*
%TO.N,Net-(D12-A)*%
X182800000Y-135300000D02*
X181900000Y-134400000D01*
X182800000Y-139280000D02*
X182800000Y-135300000D01*
D41*
%TO.N,+48V*%
X122371800Y-86688200D02*
X132095021Y-86688200D01*
D42*
%TO.N,GND*%
X60971600Y-95500000D02*
X60908400Y-95436800D01*
X63100000Y-95500000D02*
X60971600Y-95500000D01*
D43*
X69825000Y-80305000D02*
X69825000Y-86375000D01*
X68150000Y-78630000D02*
X69825000Y-80305000D01*
X69825000Y-86375000D02*
X65500000Y-90700000D01*
D42*
X76670000Y-87300000D02*
X78900000Y-89530000D01*
X75900000Y-87300000D02*
X76670000Y-87300000D01*
X56030000Y-90700000D02*
X65500000Y-90700000D01*
X52150000Y-94580000D02*
X56030000Y-90700000D01*
X77600000Y-95780000D02*
X79400000Y-93980000D01*
X77600000Y-98300000D02*
X77600000Y-95780000D01*
X73915000Y-103885000D02*
X75100000Y-102700000D01*
X71574092Y-103885000D02*
X73915000Y-103885000D01*
X63146600Y-97675000D02*
X65364092Y-97675000D01*
X65364092Y-97675000D02*
X71574092Y-103885000D01*
X60908400Y-95436800D02*
X63146600Y-97675000D01*
X47600000Y-83900000D02*
X47900000Y-83600000D01*
X47600000Y-85900000D02*
X47600000Y-83900000D01*
X46000000Y-94500000D02*
X46000000Y-89500000D01*
X46975000Y-95475000D02*
X46000000Y-94500000D01*
X47538173Y-95475000D02*
X46975000Y-95475000D01*
X48238173Y-94775000D02*
X47538173Y-95475000D01*
X51955000Y-94775000D02*
X48238173Y-94775000D01*
X52150000Y-94580000D02*
X51955000Y-94775000D01*
D43*
X78040600Y-60939400D02*
X78100000Y-60880000D01*
X75719000Y-60939400D02*
X78040600Y-60939400D01*
X75719000Y-67881000D02*
X75719000Y-60939400D01*
X70600000Y-73000000D02*
X75719000Y-67881000D01*
X69000000Y-77780000D02*
X69000000Y-76500000D01*
X68150000Y-78630000D02*
X69000000Y-77780000D01*
X53625000Y-82830000D02*
X54600000Y-82830000D01*
X52600000Y-81805000D02*
X53625000Y-82830000D01*
X52600000Y-81500000D02*
X52600000Y-81805000D01*
X47870000Y-83630000D02*
X47900000Y-83600000D01*
X46100000Y-83630000D02*
X47870000Y-83630000D01*
X55700000Y-82830000D02*
X54600000Y-82830000D01*
X57100000Y-70130000D02*
X57100000Y-81430000D01*
X57100000Y-81430000D02*
X55700000Y-82830000D01*
X55950000Y-71280000D02*
X57100000Y-70130000D01*
D40*
X180600000Y-97080000D02*
X182000000Y-95680000D01*
X178100000Y-97080000D02*
X180600000Y-97080000D01*
X175600000Y-94580000D02*
X178100000Y-97080000D01*
X166700000Y-94580000D02*
X175600000Y-94580000D01*
X166400000Y-103680000D02*
X166700000Y-103380000D01*
X166400000Y-112180000D02*
X166400000Y-103680000D01*
X166700000Y-94580000D02*
X166700000Y-103380000D01*
%TO.N,Net-(Q31-B)*%
X188000000Y-67800000D02*
X194722800Y-67800000D01*
X194800000Y-67722800D02*
X192737200Y-67722800D01*
X196503200Y-67722800D02*
X194800000Y-67722800D01*
X194722800Y-67800000D02*
X194800000Y-67722800D01*
X186300000Y-91955200D02*
X186300000Y-89600000D01*
X192918400Y-98573600D02*
X186300000Y-91955200D01*
%TO.N,Trn+*%
X168714214Y-70200000D02*
X166257107Y-67742893D01*
X184700000Y-70200000D02*
X168714214Y-70200000D01*
X166257107Y-67742893D02*
X167935400Y-69421186D01*
X156900000Y-58385786D02*
X166257107Y-67742893D01*
X199200000Y-77400000D02*
X199240000Y-77440000D01*
X218300000Y-77440000D02*
X199240000Y-77440000D01*
%TO.N,Net-(D10-K)*%
X132300000Y-68900000D02*
X134500000Y-71100000D01*
X147600000Y-71100000D02*
X155581600Y-71100000D01*
X134500000Y-71100000D02*
X147600000Y-71100000D01*
X146163901Y-71100000D02*
X147600000Y-71100000D01*
X107285786Y-87600000D02*
X107300000Y-87600000D01*
X98520000Y-96365786D02*
X107285786Y-87600000D01*
X98520000Y-108600000D02*
X98520000Y-96365786D01*
%TO.N,Net-(Q33-B)*%
X153360000Y-77300000D02*
X152400000Y-78260000D01*
X158600000Y-77300000D02*
X153360000Y-77300000D01*
X195180000Y-79700000D02*
X188000000Y-79700000D01*
X204100000Y-88620000D02*
X195180000Y-79700000D01*
%TO.N,Net-(Q1-C)*%
X134089200Y-74800000D02*
X131042200Y-71753000D01*
X135400000Y-74800000D02*
X134089200Y-74800000D01*
X198679899Y-102920000D02*
X175920000Y-102920000D01*
X203586400Y-98013499D02*
X198679899Y-102920000D01*
X175920000Y-102920000D02*
X170900000Y-97900000D01*
X203586400Y-95220800D02*
X203586400Y-98013499D01*
%TO.N,Trn+*%
X131883800Y-125816200D02*
X131900000Y-125800000D01*
X131883800Y-136716200D02*
X131883800Y-125816200D01*
X126700000Y-141900000D02*
X131883800Y-136716200D01*
X119900000Y-141900000D02*
X126700000Y-141900000D01*
X126700000Y-141900000D02*
X133340000Y-141900000D01*
X145900000Y-89600000D02*
X149367600Y-86132400D01*
X149367600Y-86132400D02*
X152600000Y-86132400D01*
X152600000Y-86132400D02*
X144152901Y-86132400D01*
X153483313Y-86132400D02*
X152600000Y-86132400D01*
X140099600Y-95400400D02*
X140700000Y-94800000D01*
X134518821Y-95400400D02*
X140099600Y-95400400D01*
X144152901Y-86132400D02*
X137520501Y-79500000D01*
X167935400Y-71680313D02*
X153483313Y-86132400D01*
X167935400Y-69421186D02*
X167935400Y-71680313D01*
X137520501Y-79500000D02*
X128800000Y-79500000D01*
X156900000Y-38080000D02*
X156900000Y-58385786D01*
X128800000Y-79500000D02*
X127780000Y-78480000D01*
D44*
%TO.N,Net-(J3-Pin_2)*%
X224400000Y-81500000D02*
X230200000Y-87300000D01*
X230200000Y-87300000D02*
X230200000Y-92280000D01*
D45*
X224400000Y-79400000D02*
X224400000Y-81500000D01*
X222440000Y-77440000D02*
X224400000Y-79400000D01*
X221730000Y-77440000D02*
X222440000Y-77440000D01*
%TO.N,Net-(J3-Pin_1)*%
X222700000Y-80950000D02*
X221730000Y-79980000D01*
X222700000Y-82200000D02*
X222700000Y-80950000D01*
X221700000Y-83200000D02*
X222700000Y-82200000D01*
D44*
X215200000Y-89700000D02*
X221700000Y-83200000D01*
X215200000Y-92280000D02*
X215200000Y-89700000D01*
X229280000Y-108480000D02*
X237700000Y-108480000D01*
X215200000Y-94400000D02*
X229280000Y-108480000D01*
X215200000Y-92280000D02*
X215200000Y-94400000D01*
%TO.N,Net-(J3-Pin_2)*%
X230200000Y-95900000D02*
X237700000Y-103400000D01*
X230200000Y-92280000D02*
X230200000Y-95900000D01*
D40*
%TO.N,Trn-*%
X242100000Y-61300000D02*
X226940000Y-76460000D01*
X242100000Y-46460000D02*
X242100000Y-61300000D01*
X240700000Y-45060000D02*
X242100000Y-46460000D01*
X226940000Y-76460000D02*
X221600000Y-76460000D01*
X221600000Y-76460000D02*
X219940000Y-76460000D01*
X223030000Y-76460000D02*
X221600000Y-76460000D01*
X219600000Y-76460000D02*
X219600000Y-77200000D01*
X182474021Y-75680000D02*
X218820000Y-75680000D01*
X219600000Y-77200000D02*
X219600000Y-78680000D01*
X218820000Y-75680000D02*
X219600000Y-76460000D01*
X219600000Y-76800000D02*
X219600000Y-77200000D01*
%TO.N,Net-(Q34-B)*%
X205699999Y-87679999D02*
X204100000Y-86080000D01*
X204900000Y-102320000D02*
X205699999Y-101520001D01*
X205699999Y-101520001D02*
X205699999Y-87679999D01*
%TO.N,Net-(Q1-B)*%
X201000000Y-98100000D02*
X201046400Y-98053600D01*
X201000000Y-98620000D02*
X201000000Y-98100000D01*
X201046400Y-98053600D02*
X201046400Y-95220800D01*
X198100000Y-101520000D02*
X201000000Y-98620000D01*
%TO.N,Net-(Q32-B)*%
X192918400Y-96033600D02*
X194268400Y-97383600D01*
X194268400Y-97383600D02*
X194268400Y-100271600D01*
X194268400Y-100271600D02*
X193020000Y-101520000D01*
%TO.N,Net-(D26-K)*%
X188794021Y-84500000D02*
X179974021Y-75680000D01*
X191974200Y-84500000D02*
X188794021Y-84500000D01*
X196533000Y-89058800D02*
X191974200Y-84500000D01*
X176654021Y-79000000D02*
X179974021Y-75680000D01*
X174400000Y-79000000D02*
X176654021Y-79000000D01*
%TO.N,Net-(D13-K)*%
X200562800Y-70262800D02*
X196503200Y-70262800D01*
X200600000Y-70300000D02*
X200562800Y-70262800D01*
X208000000Y-62900000D02*
X200600000Y-70300000D01*
X208000000Y-58400000D02*
X208000000Y-62900000D01*
X196503200Y-73789000D02*
X196533000Y-73818800D01*
X196503200Y-70262800D02*
X196503200Y-73789000D01*
%TO.N,Net-(Q31-B)*%
X192737200Y-67722800D02*
X189800000Y-70660000D01*
%TO.N,Net-(D10-K)*%
X139937600Y-119900000D02*
X139176600Y-119139000D01*
X145700000Y-119900000D02*
X139937600Y-119900000D01*
X156220000Y-107280000D02*
X149900000Y-113600000D01*
%TO.N,Net-(D11-K)*%
X120700000Y-104000000D02*
X133448400Y-116748400D01*
X133448400Y-116748400D02*
X155971800Y-116748400D01*
X118500000Y-104000000D02*
X120700000Y-104000000D01*
X155971800Y-116748400D02*
X163010600Y-123787200D01*
X105400000Y-90900000D02*
X118500000Y-104000000D01*
X97917600Y-70417600D02*
X100300000Y-72800000D01*
X97917600Y-65915301D02*
X97917600Y-70417600D01*
X101401701Y-62431200D02*
X97917600Y-65915301D01*
X105214800Y-62431200D02*
X101401701Y-62431200D01*
%TO.N,9*%
X107360000Y-80760000D02*
X106000000Y-80760000D01*
X108500000Y-81900000D02*
X107360000Y-80760000D01*
X113600000Y-81900000D02*
X108500000Y-81900000D01*
X135420000Y-77080000D02*
X134400000Y-78100000D01*
X143963800Y-77080000D02*
X135420000Y-77080000D01*
X146409200Y-79525400D02*
X143963800Y-77080000D01*
%TO.N,Net-(D1-K)*%
X136590821Y-99972400D02*
X132018821Y-95400400D01*
X144732800Y-99972400D02*
X136590821Y-99972400D01*
X125682800Y-95400400D02*
X125073200Y-94790800D01*
X132018821Y-95400400D02*
X125682800Y-95400400D01*
%TO.N,Net-(Q1-C)*%
X123473000Y-64823200D02*
X130402800Y-71753000D01*
X130402800Y-71753000D02*
X131042200Y-71753000D01*
%TO.N,Net-(D10-K)*%
X139887101Y-64823200D02*
X146163901Y-71100000D01*
X155581600Y-71100000D02*
X157026400Y-72544800D01*
X126013000Y-64823200D02*
X139887101Y-64823200D01*
%TO.N,Net-(D18-K)*%
X161766400Y-64666400D02*
X157001000Y-64666400D01*
X166935400Y-69835400D02*
X161766400Y-64666400D01*
X166935400Y-71266099D02*
X166935400Y-69835400D01*
X153469099Y-84732400D02*
X166935400Y-71266099D01*
X144732800Y-84732400D02*
X153469099Y-84732400D01*
X143020000Y-83019600D02*
X144732800Y-84732400D01*
X143020000Y-78480000D02*
X143020000Y-83019600D01*
X153500000Y-61165400D02*
X157001000Y-64666400D01*
X153500000Y-57700000D02*
X153500000Y-61165400D01*
%TO.N,Net-(Q33-B)*%
X154486400Y-76173600D02*
X152400000Y-78260000D01*
X154486400Y-72544800D02*
X154486400Y-76173600D01*
%TO.N,Net-(Q27-C)*%
X160480800Y-70686200D02*
X154461000Y-64666400D01*
X165535400Y-70686200D02*
X160480800Y-70686200D01*
X151209800Y-61415200D02*
X154461000Y-64666400D01*
X146337400Y-61415200D02*
X151209800Y-61415200D01*
%TO.N,Net-(Q27-B)*%
X147687400Y-68087200D02*
X146409200Y-69365400D01*
X147687400Y-65305200D02*
X147687400Y-68087200D01*
X146337400Y-63955200D02*
X147687400Y-65305200D01*
%TO.N,Net-(Q30-B)*%
X107485400Y-70600000D02*
X112834800Y-65250600D01*
X106000000Y-70600000D02*
X107485400Y-70600000D01*
%TO.N,Net-(Q29-B)*%
X110574200Y-64971200D02*
X112834800Y-62710600D01*
X105214800Y-64971200D02*
X110574200Y-64971200D01*
X103690800Y-66495200D02*
X105214800Y-64971200D01*
X99317600Y-66495200D02*
X103690800Y-66495200D01*
%TO.N,Net-(D11-K)*%
X103995600Y-63650400D02*
X105214800Y-62431200D01*
X92866000Y-63650400D02*
X103995600Y-63650400D01*
%TO.N,Net-(D28-A)*%
X62414400Y-53794800D02*
X65839000Y-57219400D01*
X61307800Y-53794800D02*
X62414400Y-53794800D01*
X70039000Y-57219400D02*
X70239000Y-57419400D01*
X65839000Y-57219400D02*
X70039000Y-57219400D01*
X65559000Y-60939400D02*
X65559000Y-57499400D01*
X65559000Y-57499400D02*
X65839000Y-57219400D01*
%TO.N,Net-(D29-A)*%
X78039000Y-58019000D02*
X80900000Y-60880000D01*
X78039000Y-56819400D02*
X78039000Y-58019000D01*
%TO.N,Trn-*%
X219600000Y-78680000D02*
X218300000Y-79980000D01*
X243400000Y-96830000D02*
X223030000Y-76460000D01*
X243400000Y-135379899D02*
X243400000Y-96830000D01*
X234847500Y-140480000D02*
X238299899Y-140480000D01*
X219940000Y-76460000D02*
X219600000Y-76800000D01*
X233860000Y-139492500D02*
X234847500Y-140480000D01*
X238299899Y-140480000D02*
X243400000Y-135379899D01*
X233860000Y-138880000D02*
X233860000Y-139492500D01*
%TO.N,Net-(D14-A)*%
X195000000Y-133600000D02*
X195000000Y-137900000D01*
X195000000Y-137900000D02*
X196380000Y-139280000D01*
%TO.N,Net-(D10-K)*%
X118600000Y-115585600D02*
X114259200Y-119926400D01*
X118600000Y-105700000D02*
X118600000Y-115585600D01*
X100848000Y-110928000D02*
X98520000Y-108600000D01*
X100848000Y-119012000D02*
X100848000Y-110928000D01*
D46*
%TO.N,+5V*%
X75298630Y-85100000D02*
X80620000Y-85100000D01*
X66050000Y-94348630D02*
X75298630Y-85100000D01*
X66050000Y-95480000D02*
X66050000Y-94348630D01*
D45*
%TO.N,9*%
X106000000Y-81900000D02*
X106000000Y-80760000D01*
X105500000Y-82400000D02*
X106000000Y-81900000D01*
X105000000Y-82400000D02*
X105500000Y-82400000D01*
X91200000Y-96200000D02*
X105000000Y-82400000D01*
X47300000Y-94410050D02*
X47300000Y-94900000D01*
X50750000Y-90960050D02*
X47300000Y-94410050D01*
X50750000Y-87480000D02*
X50750000Y-90960050D01*
%TO.N,11*%
X204100001Y-111680001D02*
X204900000Y-112480000D01*
X198100000Y-111680000D02*
X204100001Y-111680001D01*
X193020000Y-111680000D02*
X198100000Y-111680000D01*
X204900000Y-118600000D02*
X204900000Y-112480000D01*
X49700000Y-93000000D02*
X49700000Y-94200000D01*
X52400000Y-90300000D02*
X49700000Y-93000000D01*
X52350000Y-90250000D02*
X52400000Y-90300000D01*
X52350000Y-87480000D02*
X52350000Y-90250000D01*
%TO.N,Net-(U2-XTAL1{slash}PB6)*%
X71700000Y-91452000D02*
X73649000Y-89503000D01*
X71700000Y-92400000D02*
X71700000Y-91452000D01*
X52070000Y-114000000D02*
X53800000Y-114000000D01*
X40250000Y-102180000D02*
X52070000Y-114000000D01*
X40250000Y-92530000D02*
X40250000Y-102180000D01*
X41750000Y-91030000D02*
X40250000Y-92530000D01*
%TO.N,Net-(U2-XTAL2{slash}PB7)*%
X73150000Y-94230000D02*
X75200000Y-96280000D01*
X68032233Y-94230000D02*
X73150000Y-94230000D01*
X67300000Y-94962233D02*
X68032233Y-94230000D01*
X67300000Y-95997767D02*
X67300000Y-94962233D01*
X66197767Y-97100000D02*
X67300000Y-95997767D01*
X65902233Y-97100000D02*
X66197767Y-97100000D01*
X62989033Y-94186800D02*
X65902233Y-97100000D01*
X56247433Y-95830000D02*
X57890633Y-94186800D01*
X57890633Y-94186800D02*
X62989033Y-94186800D01*
X48470000Y-95830000D02*
X56247433Y-95830000D01*
X44770000Y-99530000D02*
X48470000Y-95830000D01*
X41750000Y-99530000D02*
X44770000Y-99530000D01*
%TO.N,Net-(U3-VCC)*%
X68550000Y-99210000D02*
X68550000Y-95480000D01*
X72600000Y-103260000D02*
X68550000Y-99210000D01*
%TO.N,Net-(U2-~{RESET}{slash}PC6)*%
X72570000Y-107100000D02*
X72600000Y-107070000D01*
X69300000Y-107100000D02*
X72570000Y-107100000D01*
X53000000Y-83140050D02*
X53000000Y-84900000D01*
X49950000Y-80090050D02*
X53000000Y-83140050D01*
X49950000Y-78980000D02*
X49950000Y-80090050D01*
%TO.N,Net-(U2-PD0)*%
X49150000Y-80280000D02*
X49150000Y-78980000D01*
X52000000Y-85100000D02*
X52000000Y-83130000D01*
X52000000Y-83130000D02*
X49150000Y-80280000D01*
X65219950Y-104530000D02*
X63844975Y-103155025D01*
X67650000Y-104530000D02*
X65219950Y-104530000D01*
%TO.N,Net-(U2-PD1)*%
X48350000Y-82050000D02*
X48350000Y-78980000D01*
X51200000Y-84900000D02*
X48350000Y-82050000D01*
X65500000Y-105800000D02*
X63400000Y-103700000D01*
X67650000Y-105800000D02*
X65500000Y-105800000D01*
%TO.N,Net-(U3-XO)*%
X80100000Y-97180000D02*
X79400000Y-96480000D01*
X74627767Y-113600000D02*
X80100000Y-108127767D01*
X69100000Y-113600000D02*
X74627767Y-113600000D01*
X67650000Y-112150000D02*
X69100000Y-113600000D01*
X80100000Y-108127767D02*
X80100000Y-97180000D01*
%TO.N,Net-(U3-XI)*%
X76700000Y-110100000D02*
X76700000Y-94230000D01*
X73900000Y-112900000D02*
X76700000Y-110100000D01*
X76700000Y-94230000D02*
X81400000Y-89530000D01*
X71522316Y-112900000D02*
X73900000Y-112900000D01*
X69502316Y-110880000D02*
X71522316Y-112900000D01*
X67650000Y-110880000D02*
X69502316Y-110880000D01*
%TO.N,Net-(U3-GND)*%
X66231600Y-103260000D02*
X67650000Y-103260000D01*
X58408400Y-95436800D02*
X66231600Y-103260000D01*
%TO.N,Net-(J1-GND)*%
X56700000Y-108280000D02*
X58400000Y-106580000D01*
X56700000Y-111945076D02*
X56700000Y-108280000D01*
X57334924Y-112580000D02*
X56700000Y-111945076D01*
X64000000Y-115800000D02*
X60780000Y-112580000D01*
X71920000Y-115800000D02*
X64000000Y-115800000D01*
X60780000Y-112580000D02*
X57334924Y-112580000D01*
X75200000Y-119080000D02*
X71920000Y-115800000D01*
%TO.N,Net-(U3-XO)*%
X85600000Y-96480000D02*
X86200000Y-97080000D01*
X79400000Y-96480000D02*
X85600000Y-96480000D01*
%TO.N,Net-(U3-XI)*%
X85250000Y-89530000D02*
X86200000Y-88580000D01*
X81400000Y-89530000D02*
X85250000Y-89530000D01*
%TO.N,Net-(D30-A)*%
X68150000Y-83130000D02*
X68150000Y-86000000D01*
X68150000Y-86000000D02*
X68230000Y-86080000D01*
%TO.N,Net-(U3-V3)*%
X53580000Y-97080000D02*
X52150000Y-97080000D01*
X63570000Y-107070000D02*
X53580000Y-97080000D01*
X67650000Y-107070000D02*
X63570000Y-107070000D01*
%TO.N,Net-(J1-VBUS)*%
X60180000Y-119280000D02*
X61650000Y-119280000D01*
X58400000Y-117500000D02*
X60180000Y-119280000D01*
X58400000Y-113580000D02*
X58400000Y-117500000D01*
%TO.N,Net-(J1-D+)*%
X63760000Y-108340000D02*
X67650000Y-108340000D01*
X63020000Y-109080000D02*
X63760000Y-108340000D01*
X58400000Y-109080000D02*
X63020000Y-109080000D01*
%TO.N,Net-(J1-D-)*%
X63990000Y-109610000D02*
X67650000Y-109610000D01*
X58400000Y-111080000D02*
X62520000Y-111080000D01*
X62520000Y-111080000D02*
X63990000Y-109610000D01*
%TO.N,Net-(U2-PB5)*%
X58020000Y-86030000D02*
X58070000Y-86080000D01*
X54600000Y-86030000D02*
X58020000Y-86030000D01*
%TO.N,Net-(U2-AVCC)*%
X63900000Y-77230000D02*
X63900000Y-70880000D01*
X55900000Y-85230000D02*
X63900000Y-77230000D01*
X54600000Y-85230000D02*
X55900000Y-85230000D01*
%TO.N,Net-(U2-AREF)*%
X58450000Y-81080000D02*
X55900000Y-83630000D01*
X58450000Y-71280000D02*
X58450000Y-81080000D01*
X55900000Y-83630000D02*
X54600000Y-83630000D01*
%TO.N,Net-(U2-VCC)*%
X42700000Y-82830000D02*
X46100000Y-82830000D01*
X42450000Y-83080000D02*
X42700000Y-82830000D01*
%TO.N,Net-(U2-~{RESET}{slash}PC6)*%
X47084000Y-74939000D02*
X49950000Y-77805000D01*
X43266600Y-74939000D02*
X47084000Y-74939000D01*
X49950000Y-77805000D02*
X49950000Y-78980000D01*
%TO.N,Net-(U2-XTAL2{slash}PB7)*%
X45570000Y-86030000D02*
X46100000Y-86030000D01*
X43600000Y-88000000D02*
X45570000Y-86030000D01*
X43600000Y-97680000D02*
X43600000Y-88000000D01*
X41750000Y-99530000D02*
X43600000Y-97680000D01*
%TO.N,Net-(U2-XTAL1{slash}PB6)*%
X44800000Y-85230000D02*
X46100000Y-85230000D01*
X41750000Y-91030000D02*
X41750000Y-88280000D01*
X41750000Y-88280000D02*
X44800000Y-85230000D01*
D40*
%TO.N,Trn-*%
X230540000Y-142200000D02*
X233860000Y-138880000D01*
X218400000Y-142200000D02*
X218840000Y-142200000D01*
X203700000Y-142200000D02*
X218400000Y-142200000D01*
X218400000Y-142200000D02*
X230540000Y-142200000D01*
X218840000Y-142200000D02*
X221960000Y-139080000D01*
X203700000Y-142200000D02*
X204340000Y-142200000D01*
X190300000Y-142200000D02*
X203700000Y-142200000D01*
X190300000Y-142200000D02*
X190920000Y-142200000D01*
X177400000Y-142200000D02*
X190300000Y-142200000D01*
X204340000Y-142200000D02*
X207360000Y-139180000D01*
X177400000Y-142200000D02*
X177900000Y-142200000D01*
X190920000Y-142200000D02*
X193840000Y-139280000D01*
X169067500Y-142200000D02*
X177400000Y-142200000D01*
X180260000Y-139840000D02*
X180260000Y-139280000D01*
X177900000Y-142200000D02*
X180260000Y-139840000D01*
X166860000Y-139992500D02*
X169067500Y-142200000D01*
X166860000Y-139380000D02*
X166860000Y-139992500D01*
%TO.N,Trn+*%
X133340000Y-141900000D02*
X145140000Y-141900000D01*
X145140000Y-141900000D02*
X147960000Y-139080000D01*
X133340000Y-141900000D02*
X136060000Y-139180000D01*
X119900000Y-141900000D02*
X120940000Y-141900000D01*
X108540000Y-141900000D02*
X119900000Y-141900000D01*
X120940000Y-141900000D02*
X123760000Y-139080000D01*
X108540000Y-141900000D02*
X111360000Y-139080000D01*
X96740000Y-141900000D02*
X108540000Y-141900000D01*
X96740000Y-141900000D02*
X99460000Y-139180000D01*
X88775000Y-141900000D02*
X96740000Y-141900000D01*
X87760000Y-139180000D02*
X87760000Y-140885000D01*
X87760000Y-140885000D02*
X88775000Y-141900000D01*
%TO.N,Net-(D10-K)*%
X142580200Y-122542600D02*
X139176600Y-119139000D01*
X145729800Y-122542600D02*
X142580200Y-122542600D01*
X129346800Y-123203000D02*
X126095600Y-119951800D01*
X133283800Y-123203000D02*
X129346800Y-123203000D01*
X117688200Y-123355400D02*
X114259200Y-119926400D01*
X120609200Y-123355400D02*
X117688200Y-123355400D01*
X105801000Y-123965000D02*
X100848000Y-119012000D01*
X107706000Y-123965000D02*
X105801000Y-123965000D01*
X92135800Y-122491800D02*
X88224200Y-118580200D01*
X94523400Y-122491800D02*
X92135800Y-122491800D01*
X147457000Y-122542600D02*
X151851200Y-118148400D01*
X145729800Y-122542600D02*
X147457000Y-122542600D01*
X133283800Y-123203000D02*
X135112600Y-123203000D01*
X135112600Y-123203000D02*
X139176600Y-119139000D01*
X122692000Y-123355400D02*
X126095600Y-119951800D01*
X120609200Y-123355400D02*
X122692000Y-123355400D01*
X110220600Y-123965000D02*
X114259200Y-119926400D01*
X107706000Y-123965000D02*
X110220600Y-123965000D01*
X97368200Y-122491800D02*
X100848000Y-119012000D01*
X94523400Y-122491800D02*
X97368200Y-122491800D01*
X83931600Y-122872800D02*
X88224200Y-118580200D01*
X82077400Y-122872800D02*
X83931600Y-122872800D01*
%TO.N,Net-(D17-A)*%
X84896800Y-130492800D02*
X88224200Y-133820200D01*
X82077400Y-130492800D02*
X84896800Y-130492800D01*
%TO.N,Net-(D16-A)*%
X96707800Y-130111800D02*
X100848000Y-134252000D01*
X94523400Y-130111800D02*
X96707800Y-130111800D01*
%TO.N,Net-(D15-A)*%
X110677800Y-131585000D02*
X114259200Y-135166400D01*
X107706000Y-131585000D02*
X110677800Y-131585000D01*
%TO.N,Net-(D10-A)*%
X121879200Y-130975400D02*
X126095600Y-135191800D01*
X120609200Y-130975400D02*
X121879200Y-130975400D01*
%TO.N,Net-(D9-A)*%
X135620600Y-130823000D02*
X139176600Y-134379000D01*
X133283800Y-130823000D02*
X135620600Y-130823000D01*
%TO.N,Net-(D8-A)*%
X148625400Y-130162600D02*
X151851200Y-133388400D01*
X145729800Y-130162600D02*
X148625400Y-130162600D01*
%TO.N,Net-(D36-A)*%
X234562800Y-131762800D02*
X236200000Y-133400000D01*
X231184200Y-131762800D02*
X234562800Y-131762800D01*
%TO.N,Net-(D22-A)*%
X218480000Y-130080000D02*
X222200000Y-133800000D01*
X217600000Y-130080000D02*
X218480000Y-130080000D01*
%TO.N,Net-(D21-A)*%
X205890000Y-130990000D02*
X208900000Y-134000000D01*
X203800000Y-130990000D02*
X205890000Y-130990000D01*
%TO.N,Net-(D12-A)*%
X177158400Y-129984800D02*
X177484800Y-129984800D01*
X177484800Y-129984800D02*
X181900000Y-134400000D01*
%TO.N,Net-(D14-A)*%
X193500000Y-133600000D02*
X195000000Y-133600000D01*
X193400000Y-133700000D02*
X193500000Y-133600000D01*
X192820000Y-133700000D02*
X193400000Y-133700000D01*
X189900000Y-130780000D02*
X192820000Y-133700000D01*
%TO.N,Net-(D11-A)*%
X166403400Y-134800000D02*
X163010600Y-131407200D01*
X167900000Y-134800000D02*
X166403400Y-134800000D01*
%TO.N,Net-(D11-K)*%
X167237800Y-119560000D02*
X163010600Y-123787200D01*
X167900000Y-119560000D02*
X167237800Y-119560000D01*
X180363200Y-119160000D02*
X177158400Y-122364800D01*
X181900000Y-119160000D02*
X180363200Y-119160000D01*
X167900000Y-119560000D02*
X174353600Y-119560000D01*
X174353600Y-119560000D02*
X177158400Y-122364800D01*
X194700000Y-118360000D02*
X189900000Y-123160000D01*
X195000000Y-118360000D02*
X194700000Y-118360000D01*
X185900000Y-119160000D02*
X189900000Y-123160000D01*
X181900000Y-119160000D02*
X185900000Y-119160000D01*
X205900000Y-120400000D02*
X205900000Y-121270000D01*
X205900000Y-121270000D02*
X203800000Y-123370000D01*
X207540000Y-118760000D02*
X205900000Y-120400000D01*
X208900000Y-118760000D02*
X207540000Y-118760000D01*
X203800000Y-121500000D02*
X203800000Y-123370000D01*
X200660000Y-118360000D02*
X203800000Y-121500000D01*
X195000000Y-118360000D02*
X200660000Y-118360000D01*
X217600000Y-120600000D02*
X217600000Y-122460000D01*
X219640000Y-118560000D02*
X217600000Y-120600000D01*
X222200000Y-118560000D02*
X219640000Y-118560000D01*
X217460000Y-122460000D02*
X217600000Y-122460000D01*
X213760000Y-118760000D02*
X217460000Y-122460000D01*
X208900000Y-118760000D02*
X213760000Y-118760000D01*
X225601400Y-118560000D02*
X231184200Y-124142800D01*
X222200000Y-118560000D02*
X225601400Y-118560000D01*
X240400000Y-118160000D02*
X241900000Y-119660000D01*
X236200000Y-118160000D02*
X240400000Y-118160000D01*
X231184200Y-123175800D02*
X231184200Y-124142800D01*
X236200000Y-118160000D02*
X231184200Y-123175800D01*
%TO.N,Net-(D17-A)*%
X88224200Y-137104200D02*
X90300000Y-139180000D01*
X88224200Y-133820200D02*
X88224200Y-137104200D01*
%TO.N,Net-(D16-A)*%
X100848000Y-138028000D02*
X102000000Y-139180000D01*
X100848000Y-134252000D02*
X100848000Y-138028000D01*
%TO.N,Net-(D15-A)*%
X114259200Y-138720800D02*
X113900000Y-139080000D01*
X114259200Y-135166400D02*
X114259200Y-138720800D01*
%TO.N,Net-(D10-A)*%
X126095600Y-138875600D02*
X126300000Y-139080000D01*
X126095600Y-135191800D02*
X126095600Y-138875600D01*
%TO.N,Net-(D9-A)*%
X139176600Y-138603400D02*
X138600000Y-139180000D01*
X139176600Y-134379000D02*
X139176600Y-138603400D01*
%TO.N,Net-(D8-A)*%
X151851200Y-137728800D02*
X150500000Y-139080000D01*
X151851200Y-133388400D02*
X151851200Y-137728800D01*
%TO.N,Net-(D11-A)*%
X167900000Y-137880000D02*
X169400000Y-139380000D01*
X167900000Y-134800000D02*
X167900000Y-137880000D01*
%TO.N,Net-(D21-A)*%
X208900000Y-138180000D02*
X209900000Y-139180000D01*
X208900000Y-134000000D02*
X208900000Y-138180000D01*
%TO.N,Net-(D22-A)*%
X222200000Y-136780000D02*
X224500000Y-139080000D01*
X222200000Y-133800000D02*
X222200000Y-136780000D01*
%TO.N,Net-(D36-A)*%
X236200000Y-138680000D02*
X236400000Y-138880000D01*
X236200000Y-133400000D02*
X236200000Y-138680000D01*
%TO.N,Trn+*%
X121670000Y-50100000D02*
X122500000Y-49270000D01*
X95800000Y-48700000D02*
X97200000Y-50100000D01*
X95800000Y-40280000D02*
X95800000Y-48700000D01*
X97200000Y-50100000D02*
X121670000Y-50100000D01*
X97500000Y-38580000D02*
X95800000Y-40280000D01*
X122500000Y-49270000D02*
X124200000Y-49270000D01*
X108870000Y-49270000D02*
X122500000Y-49270000D01*
X108300000Y-48700000D02*
X108870000Y-49270000D01*
X124200000Y-49270000D02*
X124600000Y-48870000D01*
X108300000Y-39580000D02*
X108300000Y-48700000D01*
X109300000Y-38580000D02*
X108300000Y-39580000D01*
X124600000Y-48870000D02*
X135000000Y-48870000D01*
X123070000Y-48870000D02*
X124600000Y-48870000D01*
X121600000Y-47400000D02*
X123070000Y-48870000D01*
X135000000Y-48870000D02*
X150730000Y-48870000D01*
X121900000Y-38380000D02*
X121600000Y-38680000D01*
X134320101Y-48870000D02*
X135000000Y-48870000D01*
X121600000Y-38680000D02*
X121600000Y-47400000D01*
X150730000Y-48870000D02*
X151900000Y-47700000D01*
X133800000Y-37980000D02*
X133500000Y-38280000D01*
X133500000Y-38280000D02*
X133500000Y-48049899D01*
X133500000Y-48049899D02*
X134320101Y-48870000D01*
X151400000Y-48200000D02*
X156900000Y-42700000D01*
X146200000Y-48200000D02*
X151400000Y-48200000D01*
X156900000Y-42700000D02*
X156900000Y-38080000D01*
X144900000Y-46900000D02*
X146200000Y-48200000D01*
X144900000Y-37980000D02*
X144900000Y-46900000D01*
%TO.N,Trn-*%
X177450101Y-51800000D02*
X189900000Y-51800000D01*
X172100000Y-46449899D02*
X177450101Y-51800000D01*
X172100000Y-39280000D02*
X172100000Y-46449899D01*
X172900000Y-38480000D02*
X172100000Y-39280000D01*
X189450101Y-51800000D02*
X189900000Y-51800000D01*
X189900000Y-51800000D02*
X201400000Y-51800000D01*
X185700000Y-39080000D02*
X185700000Y-48049899D01*
X185900000Y-38880000D02*
X185700000Y-39080000D01*
X185700000Y-48049899D02*
X189450101Y-51800000D01*
X200900000Y-51800000D02*
X201400000Y-51800000D01*
X201400000Y-51800000D02*
X213600000Y-51800000D01*
X198700000Y-49600000D02*
X200900000Y-51800000D01*
X198700000Y-39280000D02*
X198700000Y-49600000D01*
X213100000Y-51800000D02*
X213600000Y-51800000D01*
X213600000Y-51800000D02*
X217600000Y-51800000D01*
X199100000Y-38880000D02*
X198700000Y-39280000D01*
X233960000Y-51800000D02*
X217600000Y-51800000D01*
X240700000Y-45060000D02*
X233960000Y-51800000D01*
X217600000Y-51800000D02*
X225700000Y-43700000D01*
X212300000Y-51000000D02*
X213100000Y-51800000D01*
X212300000Y-40080000D02*
X212300000Y-51000000D01*
X213300000Y-39080000D02*
X212300000Y-40080000D01*
X225700000Y-43700000D02*
X225700000Y-39180000D01*
%TO.N,Net-(D18-A)*%
X109700000Y-45500000D02*
X113040000Y-42160000D01*
X113040000Y-42160000D02*
X116800000Y-42160000D01*
X109700000Y-47870000D02*
X109700000Y-45500000D01*
%TO.N,Net-(D5-A)*%
X150400000Y-42200000D02*
X151820000Y-40780000D01*
X149470000Y-42200000D02*
X150400000Y-42200000D01*
X147100000Y-44570000D02*
X149470000Y-42200000D01*
%TO.N,Net-(D19-A)*%
X100840000Y-43360000D02*
X102300000Y-43360000D01*
X97200000Y-47000000D02*
X100840000Y-43360000D01*
X97200000Y-48080000D02*
X97200000Y-47000000D01*
%TO.N,Net-(D20-A)*%
X89526400Y-43273600D02*
X91100000Y-43273600D01*
X86161000Y-46639000D02*
X89526400Y-43273600D01*
X86161000Y-48150400D02*
X86161000Y-46639000D01*
%TO.N,Net-(D18-K)*%
X99400000Y-58600000D02*
X102300000Y-58600000D01*
X97200000Y-56400000D02*
X99400000Y-58600000D01*
X97200000Y-55700000D02*
X97200000Y-56400000D01*
X95886400Y-58513600D02*
X91100000Y-58513600D01*
X97200000Y-57200000D02*
X95886400Y-58513600D01*
X97200000Y-55700000D02*
X97200000Y-57200000D01*
X86161000Y-56161000D02*
X88513600Y-58513600D01*
X86161000Y-55770400D02*
X86161000Y-56161000D01*
X88513600Y-58513600D02*
X91100000Y-58513600D01*
X106590000Y-58600000D02*
X109700000Y-55490000D01*
X102300000Y-58600000D02*
X106590000Y-58600000D01*
X109700000Y-55600000D02*
X111500000Y-57400000D01*
X109700000Y-55490000D02*
X109700000Y-55600000D01*
X111500000Y-57400000D02*
X116800000Y-57400000D01*
X126310000Y-57300000D02*
X123000000Y-53990000D01*
X129200000Y-57300000D02*
X126310000Y-57300000D01*
X121100000Y-57400000D02*
X116800000Y-57400000D01*
X123000000Y-55500000D02*
X121100000Y-57400000D01*
X123000000Y-53990000D02*
X123000000Y-55500000D01*
X137310000Y-57500000D02*
X134900000Y-55090000D01*
X140000000Y-57500000D02*
X137310000Y-57500000D01*
X133000000Y-57300000D02*
X129200000Y-57300000D01*
X134900000Y-55400000D02*
X133000000Y-57300000D01*
X134900000Y-55090000D02*
X134900000Y-55400000D01*
X145100000Y-57500000D02*
X147100000Y-55500000D01*
X140000000Y-57500000D02*
X145100000Y-57500000D01*
X149300000Y-57700000D02*
X153500000Y-57700000D01*
X147100000Y-55500000D02*
X149300000Y-57700000D01*
X147100000Y-52190000D02*
X147100000Y-55500000D01*
%TO.N,Net-(D13-A)*%
X180820000Y-44040000D02*
X180600000Y-44260000D01*
X180820000Y-38880000D02*
X180820000Y-44040000D01*
%TO.N,Net-(D32-A)*%
X167820000Y-42040000D02*
X167100000Y-42760000D01*
X167820000Y-38480000D02*
X167820000Y-42040000D01*
%TO.N,Net-(D13-K)*%
X164000000Y-58000000D02*
X167100000Y-58000000D01*
X161600000Y-55600000D02*
X164000000Y-58000000D01*
X161600000Y-53590000D02*
X161600000Y-55600000D01*
X172200000Y-58000000D02*
X173500000Y-56700000D01*
X167100000Y-58000000D02*
X172200000Y-58000000D01*
X173500000Y-56700000D02*
X173500000Y-57400000D01*
X173500000Y-53490000D02*
X173500000Y-56700000D01*
X175600000Y-59500000D02*
X180600000Y-59500000D01*
X173500000Y-57400000D02*
X175600000Y-59500000D01*
X187100000Y-58000000D02*
X188700000Y-59600000D01*
X187100000Y-55090000D02*
X187100000Y-58000000D01*
X188700000Y-59600000D02*
X193700000Y-59600000D01*
X187100000Y-57400000D02*
X185000000Y-59500000D01*
X187100000Y-55090000D02*
X187100000Y-57400000D01*
X185000000Y-59500000D02*
X180600000Y-59500000D01*
X198500000Y-59600000D02*
X193700000Y-59600000D01*
X200100000Y-58000000D02*
X198500000Y-59600000D01*
X200100000Y-55490000D02*
X200100000Y-58000000D01*
X236400000Y-60300000D02*
X240700000Y-60300000D01*
X235400000Y-59300000D02*
X236400000Y-60300000D01*
X233200000Y-59300000D02*
X235400000Y-59300000D01*
X229200000Y-59300000D02*
X233200000Y-59300000D01*
X226600000Y-56700000D02*
X229200000Y-59300000D01*
X226600000Y-54590000D02*
X226600000Y-56700000D01*
X224900000Y-59000000D02*
X220300000Y-59000000D01*
X226600000Y-57300000D02*
X224900000Y-59000000D01*
X226600000Y-54590000D02*
X226600000Y-57300000D01*
X211800000Y-58400000D02*
X208000000Y-58400000D01*
X213700000Y-56500000D02*
X211800000Y-58400000D01*
X216200000Y-59000000D02*
X220300000Y-59000000D01*
X213700000Y-56500000D02*
X216200000Y-59000000D01*
X207200001Y-59199999D02*
X208000000Y-58400000D01*
X203100000Y-59200000D02*
X207200001Y-59199999D01*
X200100000Y-56200000D02*
X203100000Y-59200000D01*
X200100000Y-55490000D02*
X200100000Y-56200000D01*
%TO.N,Net-(D35-A)*%
X227840000Y-44060000D02*
X233200000Y-44060000D01*
X226600000Y-46970000D02*
X226600000Y-45300000D01*
X226600000Y-45300000D02*
X227840000Y-44060000D01*
%TO.N,Net-(D34-A)*%
X214740000Y-43760000D02*
X220300000Y-43760000D01*
X213700000Y-44800000D02*
X214740000Y-43760000D01*
X213700000Y-48880000D02*
X213700000Y-44800000D01*
%TO.N,Net-(D33-A)*%
X201640000Y-43160000D02*
X208000000Y-43160000D01*
X200100000Y-44700000D02*
X201640000Y-43160000D01*
X200100000Y-47870000D02*
X200100000Y-44700000D01*
%TO.N,Net-(D31-A)*%
X187740000Y-44360000D02*
X193700000Y-44360000D01*
X187100000Y-45000000D02*
X187740000Y-44360000D01*
X187100000Y-47470000D02*
X187100000Y-45000000D01*
%TO.N,Net-(D13-A)*%
X175000000Y-44300000D02*
X175040000Y-44260000D01*
X175000000Y-44370000D02*
X175000000Y-44300000D01*
X175040000Y-44260000D02*
X180600000Y-44260000D01*
X173500000Y-45870000D02*
X175000000Y-44370000D01*
%TO.N,Net-(D32-A)*%
X161600000Y-44600000D02*
X163440000Y-42760000D01*
X163440000Y-42760000D02*
X167100000Y-42760000D01*
X161600000Y-45970000D02*
X161600000Y-44600000D01*
%TO.N,Net-(D6-A)*%
X138740000Y-42260000D02*
X140000000Y-42260000D01*
X134900000Y-46100000D02*
X138740000Y-42260000D01*
X134900000Y-47470000D02*
X134900000Y-46100000D01*
%TO.N,Net-(D7-A)*%
X125900000Y-45360000D02*
X129200000Y-42060000D01*
X125900000Y-45500000D02*
X125900000Y-45360000D01*
X125030000Y-46370000D02*
X125900000Y-45500000D01*
X123000000Y-46370000D02*
X125030000Y-46370000D01*
%TO.N,Net-(D20-A)*%
X92420000Y-41953600D02*
X91100000Y-43273600D01*
X92420000Y-38580000D02*
X92420000Y-41953600D01*
%TO.N,Net-(D19-A)*%
X104220000Y-41440000D02*
X102300000Y-43360000D01*
X104220000Y-38580000D02*
X104220000Y-41440000D01*
%TO.N,Net-(D18-A)*%
X116820000Y-42140000D02*
X116800000Y-42160000D01*
X116820000Y-38380000D02*
X116820000Y-42140000D01*
%TO.N,Net-(D7-A)*%
X128720000Y-41580000D02*
X129200000Y-42060000D01*
X128720000Y-37980000D02*
X128720000Y-41580000D01*
%TO.N,Net-(D5-A)*%
X151820000Y-40780000D02*
X153500000Y-42460000D01*
X151820000Y-38080000D02*
X151820000Y-40780000D01*
%TO.N,Net-(D6-A)*%
X139820000Y-42080000D02*
X140000000Y-42260000D01*
X139820000Y-37980000D02*
X139820000Y-42080000D01*
%TO.N,Net-(D31-A)*%
X194020000Y-44040000D02*
X193700000Y-44360000D01*
X194020000Y-38880000D02*
X194020000Y-44040000D01*
%TO.N,Net-(D33-A)*%
X208220000Y-42940000D02*
X208000000Y-43160000D01*
X208220000Y-39080000D02*
X208220000Y-42940000D01*
%TO.N,Net-(D34-A)*%
X220620000Y-43440000D02*
X220300000Y-43760000D01*
X220620000Y-39180000D02*
X220620000Y-43440000D01*
D46*
%TO.N,+5V*%
X110455200Y-77100000D02*
X115802200Y-71753000D01*
X109800000Y-77100000D02*
X110455200Y-77100000D01*
X101664800Y-81735200D02*
X102100000Y-81300000D01*
X99317600Y-81735200D02*
X101664800Y-81735200D01*
X120476800Y-64823200D02*
X120933000Y-64823200D01*
X115802200Y-69497800D02*
X120476800Y-64823200D01*
X115802200Y-71753000D02*
X115802200Y-69497800D01*
X115802200Y-73302200D02*
X115802200Y-71753000D01*
X127688200Y-85188200D02*
X115802200Y-73302200D01*
X133595021Y-85188200D02*
X127688200Y-85188200D01*
X134595021Y-86188200D02*
X133595021Y-85188200D01*
X134595021Y-86688200D02*
X134595021Y-86188200D01*
X189800000Y-85900000D02*
X198506400Y-94606400D01*
X198506400Y-94606400D02*
X198506400Y-95220800D01*
X187400000Y-85900000D02*
X189800000Y-85900000D01*
X184900000Y-83400000D02*
X187400000Y-85900000D01*
X182406421Y-83400000D02*
X184900000Y-83400000D01*
X180126421Y-85680000D02*
X182406421Y-83400000D01*
X165535400Y-85926200D02*
X179880221Y-85926200D01*
X179880221Y-85926200D02*
X180126421Y-85680000D01*
X157961600Y-93500000D02*
X165535400Y-85926200D01*
X152400000Y-93500000D02*
X157961600Y-93500000D01*
X145300000Y-93500000D02*
X152400000Y-93500000D01*
X138488200Y-86688200D02*
X145300000Y-93500000D01*
X134595021Y-86688200D02*
X138488200Y-86688200D01*
X96144800Y-81735200D02*
X95400000Y-82480000D01*
X99317600Y-81735200D02*
X96144800Y-81735200D01*
X92780000Y-85100000D02*
X95400000Y-82480000D01*
X80620000Y-85100000D02*
X92780000Y-85100000D01*
X66400000Y-70880000D02*
X80620000Y-85100000D01*
X66400000Y-70880000D02*
X66400000Y-66900000D01*
X49582800Y-53382800D02*
X43266600Y-59699000D01*
X66400000Y-66900000D02*
X52882800Y-53382800D01*
X50670800Y-52294800D02*
X49582800Y-53382800D01*
X52882800Y-53382800D02*
X49582800Y-53382800D01*
X39950000Y-63015600D02*
X39950000Y-83080000D01*
X43266600Y-59699000D02*
X39950000Y-63015600D01*
X61220300Y-52294800D02*
X50670800Y-52294800D01*
X77439000Y-47259400D02*
X78039000Y-46659400D01*
X70239000Y-47259400D02*
X77439000Y-47259400D01*
X70039000Y-47059400D02*
X70239000Y-47259400D01*
X65839000Y-47059400D02*
X70039000Y-47059400D01*
X65839000Y-48763600D02*
X65839000Y-47059400D01*
X62307800Y-52294800D02*
X65839000Y-48763600D01*
X61220300Y-52294800D02*
X62307800Y-52294800D01*
D41*
%TO.N,+48V*%
X82200000Y-39500000D02*
X76500000Y-33800000D01*
X82200000Y-55459274D02*
X82200000Y-39500000D01*
X92866000Y-66125274D02*
X82200000Y-55459274D01*
X92866000Y-78890400D02*
X92866000Y-66125274D01*
X76500000Y-33800000D02*
X91600000Y-33800000D01*
X74998400Y-33800000D02*
X76500000Y-33800000D01*
X92866000Y-78890400D02*
X113860400Y-78890400D01*
X118235000Y-83265000D02*
X117400000Y-82430000D01*
X113860400Y-78890400D02*
X118235000Y-83265000D01*
X121658200Y-86688200D02*
X118235000Y-83265000D01*
X85240000Y-82480000D02*
X89276400Y-82480000D01*
X89276400Y-82480000D02*
X92866000Y-78890400D01*
X122371800Y-86688200D02*
X118600000Y-90460000D01*
X118600000Y-98477600D02*
X118600000Y-90460000D01*
X125073200Y-104950800D02*
X118600000Y-98477600D01*
X179500000Y-95680000D02*
X179500000Y-94260000D01*
X179500000Y-94260000D02*
X174400000Y-89160000D01*
X166520000Y-89160000D02*
X174400000Y-89160000D01*
X161100000Y-94580000D02*
X166520000Y-89160000D01*
X158400000Y-100680000D02*
X158400000Y-97280000D01*
X161100000Y-103380000D02*
X158400000Y-100680000D01*
X158400000Y-97280000D02*
X161100000Y-94580000D01*
X161000000Y-112180000D02*
X159300000Y-110480000D01*
X159300000Y-110480000D02*
X159300000Y-105180000D01*
X159300000Y-105180000D02*
X161100000Y-103380000D01*
X152020000Y-103380000D02*
X161100000Y-103380000D01*
X148120000Y-107280000D02*
X152020000Y-103380000D01*
X140980000Y-107280000D02*
X148120000Y-107280000D01*
X132072800Y-104036400D02*
X135316400Y-107280000D01*
X135316400Y-107280000D02*
X140980000Y-107280000D01*
X125987600Y-104036400D02*
X125073200Y-104950800D01*
X132072800Y-104036400D02*
X125987600Y-104036400D01*
X223160000Y-36680000D02*
X223160000Y-39180000D01*
X220280000Y-33800000D02*
X223160000Y-36680000D01*
X206792500Y-33800000D02*
X220280000Y-33800000D01*
X206792500Y-33800000D02*
X210760000Y-37767500D01*
X192792500Y-33800000D02*
X206792500Y-33800000D01*
X210760000Y-37767500D02*
X210760000Y-39080000D01*
X178800000Y-33800000D02*
X192792500Y-33800000D01*
X192792500Y-33800000D02*
X196560000Y-37567500D01*
X196560000Y-37567500D02*
X196560000Y-38880000D01*
X178800000Y-33800000D02*
X179570000Y-33800000D01*
X168180000Y-33800000D02*
X178800000Y-33800000D01*
X183360000Y-37590000D02*
X183360000Y-38880000D01*
X179570000Y-33800000D02*
X183360000Y-37590000D01*
X170360000Y-35980000D02*
X170360000Y-38480000D01*
X168180000Y-33800000D02*
X170360000Y-35980000D01*
X152580000Y-33800000D02*
X168180000Y-33800000D01*
X154360000Y-35580000D02*
X154360000Y-38080000D01*
X152580000Y-33800000D02*
X154360000Y-35580000D01*
X139492500Y-33800000D02*
X152580000Y-33800000D01*
X139492500Y-33800000D02*
X142360000Y-36667500D01*
X142360000Y-36667500D02*
X142360000Y-37980000D01*
X128392500Y-33800000D02*
X139492500Y-33800000D01*
X131260000Y-36667500D02*
X131260000Y-37980000D01*
X115300000Y-33800000D02*
X116253041Y-33800000D01*
X115300000Y-33800000D02*
X128392500Y-33800000D01*
X128392500Y-33800000D02*
X131260000Y-36667500D01*
X104480000Y-33800000D02*
X115300000Y-33800000D01*
X116253041Y-33800000D02*
X119360000Y-36906959D01*
X119360000Y-36906959D02*
X119360000Y-38380000D01*
X106760000Y-36080000D02*
X106760000Y-38580000D01*
X104480000Y-33800000D02*
X106760000Y-36080000D01*
X91600000Y-33800000D02*
X104480000Y-33800000D01*
X91600000Y-33800000D02*
X94960000Y-37160000D01*
X94960000Y-37160000D02*
X94960000Y-38580000D01*
X61307800Y-47490600D02*
X74998400Y-33800000D01*
X61307800Y-50794800D02*
X61307800Y-47490600D01*
X56764500Y-45935000D02*
X61307800Y-50478300D01*
X44650000Y-45935000D02*
X56764500Y-45935000D01*
%TD*%
M02*
