%TF.GenerationSoftware,KiCad,Pcbnew,7.0.10*%
%TF.CreationDate,2024-05-18T17:59:14+03:00*%
%TF.ProjectId,Inverter,496e7665-7274-4657-922e-6b696361645f,rev?*%
%TF.SameCoordinates,Original*%
%TF.FileFunction,Drillmap*%
%TF.FilePolarity,Positive*%
%FSLAX45Y45*%
G04 Gerber Fmt 4.5, Leading zero omitted, Abs format (unit mm)*
G04 Created by KiCad (PCBNEW 7.0.10) date 2024-05-18 17:59:14*
%MOMM*%
%LPD*%
G01*
G04 APERTURE LIST*
%ADD10C,0.100000*%
%ADD11C,0.200000*%
%ADD12C,0.110000*%
%ADD13C,0.120000*%
%ADD14C,0.130000*%
G04 APERTURE END LIST*
D10*
X24600000Y-3200000D02*
X24600000Y-14590000D01*
X8280000Y-14520000D01*
X7250000Y-13480000D01*
X6100000Y-13480000D01*
X4110000Y-10500000D01*
X3590000Y-10500000D01*
X3580000Y-3180000D01*
X24600000Y-3200000D01*
D11*
D10*
X4715000Y-9475000D02*
X4745000Y-9505000D01*
X4745000Y-9475000D02*
X4715000Y-9505000D01*
X4775000Y-8345000D02*
X4805000Y-8375000D01*
X4805000Y-8345000D02*
X4775000Y-8375000D01*
X4955000Y-9405000D02*
X4985000Y-9435000D01*
X4985000Y-9405000D02*
X4955000Y-9435000D01*
X5105000Y-8475000D02*
X5135000Y-8505000D01*
X5135000Y-8475000D02*
X5105000Y-8505000D01*
X5185000Y-8495000D02*
X5215000Y-8525000D01*
X5215000Y-8495000D02*
X5185000Y-8525000D01*
X5245000Y-8135000D02*
X5275000Y-8165000D01*
X5275000Y-8135000D02*
X5245000Y-8165000D01*
X5285000Y-8475000D02*
X5315000Y-8505000D01*
X5315000Y-8475000D02*
X5285000Y-8505000D01*
X5365000Y-11385000D02*
X5395000Y-11415000D01*
X5395000Y-11385000D02*
X5365000Y-11415000D01*
X6325000Y-10355000D02*
X6355000Y-10385000D01*
X6355000Y-10355000D02*
X6325000Y-10385000D01*
X6369497Y-10300503D02*
X6399497Y-10330503D01*
X6399497Y-10300503D02*
X6369497Y-10330503D01*
X6885000Y-7635000D02*
X6915000Y-7665000D01*
X6915000Y-7635000D02*
X6885000Y-7665000D01*
X6915000Y-10695000D02*
X6945000Y-10725000D01*
X6945000Y-10695000D02*
X6915000Y-10725000D01*
X7045000Y-7285000D02*
X7075000Y-7315000D01*
X7075000Y-7285000D02*
X7045000Y-7315000D01*
X7155000Y-9225000D02*
X7185000Y-9255000D01*
X7185000Y-9225000D02*
X7155000Y-9255000D01*
X9105000Y-9605000D02*
X9135000Y-9635000D01*
X9135000Y-9605000D02*
X9105000Y-9635000D01*
X10015000Y-7265000D02*
X10045000Y-7295000D01*
X10045000Y-7265000D02*
X10015000Y-7295000D01*
X10195000Y-8115000D02*
X10225000Y-8145000D01*
X10225000Y-8115000D02*
X10195000Y-8145000D01*
X10525000Y-9075000D02*
X10555000Y-9105000D01*
X10555000Y-9075000D02*
X10525000Y-9105000D01*
X10715000Y-8745000D02*
X10745000Y-8775000D01*
X10745000Y-8745000D02*
X10715000Y-8775000D01*
X10965000Y-7695000D02*
X10995000Y-7725000D01*
X10995000Y-7695000D02*
X10965000Y-7725000D01*
X11345000Y-8175000D02*
X11375000Y-8205000D01*
X11375000Y-8175000D02*
X11345000Y-8205000D01*
X13175000Y-12565000D02*
X13205000Y-12595000D01*
X13205000Y-12565000D02*
X13175000Y-12595000D01*
X13215000Y-6875000D02*
X13245000Y-6905000D01*
X13245000Y-6875000D02*
X13215000Y-6905000D01*
X13425000Y-7795000D02*
X13455000Y-7825000D01*
X13455000Y-7795000D02*
X13425000Y-7825000D01*
X13525000Y-7465000D02*
X13555000Y-7495000D01*
X13555000Y-7465000D02*
X13525000Y-7495000D01*
X14055000Y-9465000D02*
X14085000Y-9495000D01*
X14085000Y-9465000D02*
X14055000Y-9495000D01*
X14555000Y-11975000D02*
X14585000Y-12005000D01*
X14585000Y-11975000D02*
X14555000Y-12005000D01*
X14575000Y-8945000D02*
X14605000Y-8975000D01*
X14605000Y-8945000D02*
X14575000Y-8975000D01*
X14975000Y-11345000D02*
X15005000Y-11375000D01*
X15005000Y-11345000D02*
X14975000Y-11375000D01*
X15845000Y-7715000D02*
X15875000Y-7745000D01*
X15875000Y-7715000D02*
X15845000Y-7745000D01*
X17075000Y-9775000D02*
X17105000Y-9805000D01*
X17105000Y-9775000D02*
X17075000Y-9805000D01*
X18455000Y-7005000D02*
X18485000Y-7035000D01*
X18485000Y-7005000D02*
X18455000Y-7035000D01*
X18615000Y-8945000D02*
X18645000Y-8975000D01*
X18645000Y-8945000D02*
X18615000Y-8975000D01*
X18785000Y-6765000D02*
X18815000Y-6795000D01*
X18815000Y-6765000D02*
X18785000Y-6795000D01*
X18785000Y-7955000D02*
X18815000Y-7985000D01*
X18815000Y-7955000D02*
X18785000Y-7985000D01*
X19909000Y-7729000D02*
X19939000Y-7759000D01*
X19939000Y-7729000D02*
X19909000Y-7759000D01*
X20475000Y-11845000D02*
X20505000Y-11875000D01*
X20505000Y-11845000D02*
X20475000Y-11875000D01*
X4620000Y-8950000D02*
G75*
G03*
X4580000Y-8950000I-20000J0D01*
G01*
X4580000Y-8950000D02*
G75*
G03*
X4620000Y-8950000I20000J0D01*
G01*
X4780000Y-8590000D02*
G75*
G03*
X4740000Y-8590000I-20000J0D01*
G01*
X4740000Y-8590000D02*
G75*
G03*
X4780000Y-8590000I20000J0D01*
G01*
X6330000Y-9550000D02*
G75*
G03*
X6290000Y-9550000I-20000J0D01*
G01*
X6290000Y-9550000D02*
G75*
G03*
X6330000Y-9550000I20000J0D01*
G01*
X6570000Y-9070000D02*
G75*
G03*
X6530000Y-9070000I-20000J0D01*
G01*
X6530000Y-9070000D02*
G75*
G03*
X6570000Y-9070000I20000J0D01*
G01*
X7530000Y-10270000D02*
G75*
G03*
X7490000Y-10270000I-20000J0D01*
G01*
X7490000Y-10270000D02*
G75*
G03*
X7530000Y-10270000I20000J0D01*
G01*
X7610000Y-8730000D02*
G75*
G03*
X7570000Y-8730000I-20000J0D01*
G01*
X7570000Y-8730000D02*
G75*
G03*
X7610000Y-8730000I20000J0D01*
G01*
X7780000Y-9830000D02*
G75*
G03*
X7740000Y-9830000I-20000J0D01*
G01*
X7740000Y-9830000D02*
G75*
G03*
X7780000Y-9830000I20000J0D01*
G01*
X3995000Y-8268000D02*
X3995000Y-8348000D01*
X3955000Y-8308000D02*
X4035000Y-8308000D01*
X4245000Y-8268000D02*
X4245000Y-8348000D01*
X4205000Y-8308000D02*
X4285000Y-8308000D01*
X4326660Y-5929900D02*
X4326660Y-6009900D01*
X4286660Y-5969900D02*
X4366660Y-5969900D01*
X4326660Y-7453900D02*
X4326660Y-7533900D01*
X4286660Y-7493900D02*
X4366660Y-7493900D01*
X5215000Y-9418000D02*
X5215000Y-9498000D01*
X5175000Y-9458000D02*
X5255000Y-9458000D01*
X5215000Y-9668000D02*
X5215000Y-9748000D01*
X5175000Y-9708000D02*
X5255000Y-9708000D01*
X5595000Y-7088000D02*
X5595000Y-7168000D01*
X5555000Y-7128000D02*
X5635000Y-7128000D01*
X5807000Y-8568000D02*
X5807000Y-8648000D01*
X5767000Y-8608000D02*
X5847000Y-8608000D01*
X5840840Y-9503680D02*
X5840840Y-9583680D01*
X5800840Y-9543680D02*
X5880840Y-9543680D01*
X5845000Y-7088000D02*
X5845000Y-7168000D01*
X5805000Y-7128000D02*
X5885000Y-7128000D01*
X6090840Y-9503680D02*
X6090840Y-9583680D01*
X6050840Y-9543680D02*
X6130840Y-9543680D01*
X6165000Y-11888000D02*
X6165000Y-11968000D01*
X6125000Y-11928000D02*
X6205000Y-11928000D01*
X6390000Y-7048000D02*
X6390000Y-7128000D01*
X6350000Y-7088000D02*
X6430000Y-7088000D01*
X6415000Y-11888000D02*
X6415000Y-11968000D01*
X6375000Y-11928000D02*
X6455000Y-11928000D01*
X6555900Y-6053940D02*
X6555900Y-6133940D01*
X6515900Y-6093940D02*
X6595900Y-6093940D01*
X6605000Y-9508000D02*
X6605000Y-9588000D01*
X6565000Y-9548000D02*
X6645000Y-9548000D01*
X6640000Y-7048000D02*
X6640000Y-7128000D01*
X6600000Y-7088000D02*
X6680000Y-7088000D01*
X6823000Y-8568000D02*
X6823000Y-8648000D01*
X6783000Y-8608000D02*
X6863000Y-8608000D01*
X6855000Y-9508000D02*
X6855000Y-9588000D01*
X6815000Y-9548000D02*
X6895000Y-9548000D01*
X7023900Y-4685940D02*
X7023900Y-4765940D01*
X6983900Y-4725940D02*
X7063900Y-4725940D01*
X7023900Y-5701940D02*
X7023900Y-5781940D01*
X6983900Y-5741940D02*
X7063900Y-5741940D01*
X7270000Y-11868000D02*
X7270000Y-11948000D01*
X7230000Y-11908000D02*
X7310000Y-11908000D01*
X7364900Y-8910300D02*
X7364900Y-8990300D01*
X7324900Y-8950300D02*
X7404900Y-8950300D01*
X7520000Y-9338000D02*
X7520000Y-9418000D01*
X7480000Y-9378000D02*
X7560000Y-9378000D01*
X7520000Y-9588000D02*
X7520000Y-9668000D01*
X7480000Y-9628000D02*
X7560000Y-9628000D01*
X7520000Y-11868000D02*
X7520000Y-11948000D01*
X7480000Y-11908000D02*
X7560000Y-11908000D01*
X7571900Y-6053940D02*
X7571900Y-6133940D01*
X7531900Y-6093940D02*
X7611900Y-6093940D01*
X7614900Y-8910300D02*
X7614900Y-8990300D01*
X7574900Y-8950300D02*
X7654900Y-8950300D01*
X7803900Y-4625940D02*
X7803900Y-4705940D01*
X7763900Y-4665940D02*
X7843900Y-4665940D01*
X7803900Y-5641940D02*
X7803900Y-5721940D01*
X7763900Y-5681940D02*
X7843900Y-5681940D01*
X7890000Y-8913000D02*
X7890000Y-8993000D01*
X7850000Y-8953000D02*
X7930000Y-8953000D01*
X7940000Y-9358000D02*
X7940000Y-9438000D01*
X7900000Y-9398000D02*
X7980000Y-9398000D01*
X7940000Y-9608000D02*
X7940000Y-9688000D01*
X7900000Y-9648000D02*
X7980000Y-9648000D01*
X8140000Y-8913000D02*
X8140000Y-8993000D01*
X8100000Y-8953000D02*
X8180000Y-8953000D01*
X8207740Y-12247280D02*
X8207740Y-12327280D01*
X8167740Y-12287280D02*
X8247740Y-12287280D01*
X8207740Y-13009280D02*
X8207740Y-13089280D01*
X8167740Y-13049280D02*
X8247740Y-13049280D01*
X8328000Y-10820000D02*
X8328000Y-10900000D01*
X8288000Y-10860000D02*
X8368000Y-10860000D01*
X8616100Y-4775040D02*
X8616100Y-4855040D01*
X8576100Y-4815040D02*
X8656100Y-4815040D01*
X8616100Y-5537040D02*
X8616100Y-5617040D01*
X8576100Y-5577040D02*
X8656100Y-5577040D01*
X8822420Y-11818020D02*
X8822420Y-11898020D01*
X8782420Y-11858020D02*
X8862420Y-11858020D01*
X8822420Y-13342020D02*
X8822420Y-13422020D01*
X8782420Y-13382020D02*
X8862420Y-13382020D01*
X9110000Y-4287360D02*
X9110000Y-4367360D01*
X9070000Y-4327360D02*
X9150000Y-4327360D01*
X9110000Y-5811360D02*
X9110000Y-5891360D01*
X9070000Y-5851360D02*
X9150000Y-5851360D01*
X9286600Y-6325040D02*
X9286600Y-6405040D01*
X9246600Y-6365040D02*
X9326600Y-6365040D01*
X9286600Y-7849040D02*
X9286600Y-7929040D01*
X9246600Y-7889040D02*
X9326600Y-7889040D01*
X9452340Y-12209180D02*
X9452340Y-12289180D01*
X9412340Y-12249180D02*
X9492340Y-12249180D01*
X9452340Y-12971180D02*
X9452340Y-13051180D01*
X9412340Y-13011180D02*
X9492340Y-13011180D01*
X9720000Y-4768000D02*
X9720000Y-4848000D01*
X9680000Y-4808000D02*
X9760000Y-4808000D01*
X9720000Y-5530000D02*
X9720000Y-5610000D01*
X9680000Y-5570000D02*
X9760000Y-5570000D01*
X9852000Y-10820000D02*
X9852000Y-10900000D01*
X9812000Y-10860000D02*
X9892000Y-10860000D01*
X9931760Y-6609520D02*
X9931760Y-6689520D01*
X9891760Y-6649520D02*
X9971760Y-6649520D01*
X9931760Y-8133520D02*
X9931760Y-8213520D01*
X9891760Y-8173520D02*
X9971760Y-8173520D01*
X10084800Y-11861200D02*
X10084800Y-11941200D01*
X10044800Y-11901200D02*
X10124800Y-11901200D01*
X10084800Y-13385200D02*
X10084800Y-13465200D01*
X10044800Y-13425200D02*
X10124800Y-13425200D01*
X10230000Y-4296000D02*
X10230000Y-4376000D01*
X10190000Y-4336000D02*
X10270000Y-4336000D01*
X10230000Y-5820000D02*
X10230000Y-5900000D01*
X10190000Y-5860000D02*
X10270000Y-5860000D01*
X10521480Y-6203120D02*
X10521480Y-6283120D01*
X10481480Y-6243120D02*
X10561480Y-6243120D01*
X10521480Y-6457120D02*
X10521480Y-6537120D01*
X10481480Y-6497120D02*
X10561480Y-6497120D01*
X10521480Y-6711120D02*
X10521480Y-6791120D01*
X10481480Y-6751120D02*
X10561480Y-6751120D01*
X10600000Y-7020000D02*
X10600000Y-7100000D01*
X10560000Y-7060000D02*
X10640000Y-7060000D01*
X10600000Y-8036000D02*
X10600000Y-8116000D01*
X10560000Y-8076000D02*
X10640000Y-8076000D01*
X10770600Y-12356500D02*
X10770600Y-12436500D01*
X10730600Y-12396500D02*
X10810600Y-12396500D01*
X10770600Y-13118500D02*
X10770600Y-13198500D01*
X10730600Y-13158500D02*
X10810600Y-13158500D01*
X10970000Y-4747000D02*
X10970000Y-4827000D01*
X10930000Y-4787000D02*
X11010000Y-4787000D01*
X10970000Y-5509000D02*
X10970000Y-5589000D01*
X10930000Y-5549000D02*
X11010000Y-5549000D01*
X11283480Y-6231060D02*
X11283480Y-6311060D01*
X11243480Y-6271060D02*
X11323480Y-6271060D01*
X11283480Y-6485060D02*
X11283480Y-6565060D01*
X11243480Y-6525060D02*
X11323480Y-6525060D01*
X11283480Y-6739060D02*
X11283480Y-6819060D01*
X11243480Y-6779060D02*
X11323480Y-6779060D01*
X11425920Y-11952640D02*
X11425920Y-12032640D01*
X11385920Y-11992640D02*
X11465920Y-11992640D01*
X11425920Y-13476640D02*
X11425920Y-13556640D01*
X11385920Y-13516640D02*
X11465920Y-13516640D01*
X11580220Y-7135300D02*
X11580220Y-7215300D01*
X11540220Y-7175300D02*
X11620220Y-7175300D01*
X11680000Y-4176000D02*
X11680000Y-4256000D01*
X11640000Y-4216000D02*
X11720000Y-4216000D01*
X11680000Y-5700000D02*
X11680000Y-5780000D01*
X11640000Y-5740000D02*
X11720000Y-5740000D01*
X11740000Y-8203000D02*
X11740000Y-8283000D01*
X11700000Y-8243000D02*
X11780000Y-8243000D01*
X11740000Y-8453000D02*
X11740000Y-8533000D01*
X11700000Y-8493000D02*
X11780000Y-8493000D01*
X11860000Y-9006000D02*
X11860000Y-9086000D01*
X11820000Y-9046000D02*
X11900000Y-9046000D01*
X11860000Y-10530000D02*
X11860000Y-10610000D01*
X11820000Y-10570000D02*
X11900000Y-10570000D01*
X12060920Y-12295540D02*
X12060920Y-12375540D01*
X12020920Y-12335540D02*
X12100920Y-12335540D01*
X12060920Y-13057540D02*
X12060920Y-13137540D01*
X12020920Y-13097540D02*
X12100920Y-13097540D01*
X12093300Y-6442320D02*
X12093300Y-6522320D01*
X12053300Y-6482320D02*
X12133300Y-6482320D01*
X12300000Y-4597000D02*
X12300000Y-4677000D01*
X12260000Y-4637000D02*
X12340000Y-4637000D01*
X12300000Y-5359000D02*
X12300000Y-5439000D01*
X12260000Y-5399000D02*
X12340000Y-5399000D01*
X12347300Y-6442320D02*
X12347300Y-6522320D01*
X12307300Y-6482320D02*
X12387300Y-6482320D01*
X12601300Y-6442320D02*
X12601300Y-6522320D01*
X12561300Y-6482320D02*
X12641300Y-6482320D01*
X12609560Y-11955180D02*
X12609560Y-12035180D01*
X12569560Y-11995180D02*
X12649560Y-11995180D01*
X12609560Y-13479180D02*
X12609560Y-13559180D01*
X12569560Y-13519180D02*
X12649560Y-13519180D01*
X12778000Y-7808000D02*
X12778000Y-7888000D01*
X12738000Y-7848000D02*
X12818000Y-7848000D01*
X12920000Y-4166000D02*
X12920000Y-4246000D01*
X12880000Y-4206000D02*
X12960000Y-4206000D01*
X12920000Y-5690000D02*
X12920000Y-5770000D01*
X12880000Y-5730000D02*
X12960000Y-5730000D01*
X13104220Y-7135300D02*
X13104220Y-7215300D01*
X13064220Y-7175300D02*
X13144220Y-7175300D01*
X13201882Y-9500040D02*
X13201882Y-9580040D01*
X13161882Y-9540040D02*
X13241882Y-9540040D01*
X13207280Y-10363640D02*
X13207280Y-10443640D01*
X13167280Y-10403640D02*
X13247280Y-10403640D01*
X13209502Y-8628820D02*
X13209502Y-8708820D01*
X13169502Y-8668820D02*
X13249502Y-8668820D01*
X13328380Y-12280300D02*
X13328380Y-12360300D01*
X13288380Y-12320300D02*
X13368380Y-12320300D01*
X13328380Y-13042300D02*
X13328380Y-13122300D01*
X13288380Y-13082300D02*
X13368380Y-13082300D01*
X13451882Y-9500040D02*
X13451882Y-9580040D01*
X13411882Y-9540040D02*
X13491882Y-9540040D01*
X13457280Y-10363640D02*
X13457280Y-10443640D01*
X13417280Y-10403640D02*
X13497280Y-10403640D01*
X13459502Y-8628820D02*
X13459502Y-8708820D01*
X13419502Y-8668820D02*
X13499502Y-8668820D01*
X13490000Y-4707000D02*
X13490000Y-4787000D01*
X13450000Y-4747000D02*
X13530000Y-4747000D01*
X13490000Y-5469000D02*
X13490000Y-5549000D01*
X13450000Y-5509000D02*
X13530000Y-5509000D01*
X13917660Y-11873900D02*
X13917660Y-11953900D01*
X13877660Y-11913900D02*
X13957660Y-11913900D01*
X13917660Y-13397900D02*
X13917660Y-13477900D01*
X13877660Y-13437900D02*
X13957660Y-13437900D01*
X14000000Y-4186000D02*
X14000000Y-4266000D01*
X13960000Y-4226000D02*
X14040000Y-4226000D01*
X14000000Y-5710000D02*
X14000000Y-5790000D01*
X13960000Y-5750000D02*
X14040000Y-5750000D01*
X14098000Y-10688000D02*
X14098000Y-10768000D01*
X14058000Y-10728000D02*
X14138000Y-10728000D01*
X14302000Y-7808000D02*
X14302000Y-7888000D01*
X14262000Y-7848000D02*
X14342000Y-7848000D01*
X14473280Y-8433240D02*
X14473280Y-8513240D01*
X14433280Y-8473240D02*
X14513280Y-8473240D01*
X14473280Y-9957240D02*
X14473280Y-10037240D01*
X14433280Y-9997240D02*
X14513280Y-9997240D01*
X14572980Y-12214260D02*
X14572980Y-12294260D01*
X14532980Y-12254260D02*
X14612980Y-12254260D01*
X14572980Y-12976260D02*
X14572980Y-13056260D01*
X14532980Y-13016260D02*
X14612980Y-13016260D01*
X14633740Y-6101520D02*
X14633740Y-6181520D01*
X14593740Y-6141520D02*
X14673740Y-6141520D01*
X14633740Y-6355520D02*
X14633740Y-6435520D01*
X14593740Y-6395520D02*
X14673740Y-6395520D01*
X14633740Y-6609520D02*
X14633740Y-6689520D01*
X14593740Y-6649520D02*
X14673740Y-6649520D01*
X14640920Y-6896540D02*
X14640920Y-6976540D01*
X14600920Y-6936540D02*
X14680920Y-6936540D01*
X14640920Y-7912540D02*
X14640920Y-7992540D01*
X14600920Y-7952540D02*
X14680920Y-7952540D01*
X14710000Y-4417000D02*
X14710000Y-4497000D01*
X14670000Y-4457000D02*
X14750000Y-4457000D01*
X14710000Y-5179000D02*
X14710000Y-5259000D01*
X14670000Y-5219000D02*
X14750000Y-5219000D01*
X15185120Y-11774840D02*
X15185120Y-11854840D01*
X15145120Y-11814840D02*
X15225120Y-11814840D01*
X15185120Y-13298840D02*
X15185120Y-13378840D01*
X15145120Y-13338840D02*
X15225120Y-13338840D01*
X15192100Y-6426640D02*
X15192100Y-6506640D01*
X15152100Y-6466640D02*
X15232100Y-6466640D01*
X15194640Y-7214480D02*
X15194640Y-7294480D01*
X15154640Y-7254480D02*
X15234640Y-7254480D01*
X15240000Y-7786000D02*
X15240000Y-7866000D01*
X15200000Y-7826000D02*
X15280000Y-7826000D01*
X15240000Y-9310000D02*
X15240000Y-9390000D01*
X15200000Y-9350000D02*
X15280000Y-9350000D01*
X15350000Y-4206000D02*
X15350000Y-4286000D01*
X15310000Y-4246000D02*
X15390000Y-4246000D01*
X15350000Y-5730000D02*
X15350000Y-5810000D01*
X15310000Y-5770000D02*
X15390000Y-5770000D01*
X15446100Y-6426640D02*
X15446100Y-6506640D01*
X15406100Y-6466640D02*
X15486100Y-6466640D01*
X15448640Y-7214480D02*
X15448640Y-7294480D01*
X15408640Y-7254480D02*
X15488640Y-7254480D01*
X15622000Y-10688000D02*
X15622000Y-10768000D01*
X15582000Y-10728000D02*
X15662000Y-10728000D01*
X15700100Y-6426640D02*
X15700100Y-6506640D01*
X15660100Y-6466640D02*
X15740100Y-6466640D01*
X15702640Y-7214480D02*
X15702640Y-7294480D01*
X15662640Y-7254480D02*
X15742640Y-7254480D01*
X16160000Y-4557000D02*
X16160000Y-4637000D01*
X16120000Y-4597000D02*
X16200000Y-4597000D01*
X16160000Y-5319000D02*
X16160000Y-5399000D01*
X16120000Y-5359000D02*
X16200000Y-5359000D01*
X16301060Y-12338720D02*
X16301060Y-12418720D01*
X16261060Y-12378720D02*
X16341060Y-12378720D01*
X16301060Y-13100720D02*
X16301060Y-13180720D01*
X16261060Y-13140720D02*
X16341060Y-13140720D01*
X16553540Y-7028620D02*
X16553540Y-7108620D01*
X16513540Y-7068620D02*
X16593540Y-7068620D01*
X16553540Y-8552620D02*
X16553540Y-8632620D01*
X16513540Y-8592620D02*
X16593540Y-8592620D01*
X16710000Y-4236000D02*
X16710000Y-4316000D01*
X16670000Y-4276000D02*
X16750000Y-4276000D01*
X16710000Y-5760000D02*
X16710000Y-5840000D01*
X16670000Y-5800000D02*
X16750000Y-5800000D01*
X16790000Y-11916000D02*
X16790000Y-11996000D01*
X16750000Y-11956000D02*
X16830000Y-11956000D01*
X16790000Y-13440000D02*
X16790000Y-13520000D01*
X16750000Y-13480000D02*
X16830000Y-13480000D01*
X17350000Y-4547000D02*
X17350000Y-4627000D01*
X17310000Y-4587000D02*
X17390000Y-4587000D01*
X17350000Y-5309000D02*
X17350000Y-5389000D01*
X17310000Y-5349000D02*
X17390000Y-5349000D01*
X17715840Y-12196480D02*
X17715840Y-12276480D01*
X17675840Y-12236480D02*
X17755840Y-12236480D01*
X17715840Y-12958480D02*
X17715840Y-13038480D01*
X17675840Y-12998480D02*
X17755840Y-12998480D01*
X17950000Y-9528000D02*
X17950000Y-9608000D01*
X17910000Y-9568000D02*
X17990000Y-9568000D01*
X17997402Y-7528000D02*
X17997402Y-7608000D01*
X17957402Y-7568000D02*
X18037402Y-7568000D01*
X18012642Y-8528000D02*
X18012642Y-8608000D01*
X17972642Y-8568000D02*
X18052642Y-8568000D01*
X18060000Y-4386000D02*
X18060000Y-4466000D01*
X18020000Y-4426000D02*
X18100000Y-4426000D01*
X18060000Y-5910000D02*
X18060000Y-5990000D01*
X18020000Y-5950000D02*
X18100000Y-5950000D01*
X18190000Y-11876000D02*
X18190000Y-11956000D01*
X18150000Y-11916000D02*
X18230000Y-11916000D01*
X18190000Y-13400000D02*
X18190000Y-13480000D01*
X18150000Y-13440000D02*
X18230000Y-13440000D01*
X18200000Y-9528000D02*
X18200000Y-9608000D01*
X18160000Y-9568000D02*
X18240000Y-9568000D01*
X18247402Y-7528000D02*
X18247402Y-7608000D01*
X18207402Y-7568000D02*
X18287402Y-7568000D01*
X18262642Y-8528000D02*
X18262642Y-8608000D01*
X18222642Y-8568000D02*
X18302642Y-8568000D01*
X18710000Y-4707000D02*
X18710000Y-4787000D01*
X18670000Y-4747000D02*
X18750000Y-4747000D01*
X18710000Y-5469000D02*
X18710000Y-5549000D01*
X18670000Y-5509000D02*
X18750000Y-5509000D01*
X18980000Y-7026000D02*
X18980000Y-7106000D01*
X18940000Y-7066000D02*
X19020000Y-7066000D01*
X18980000Y-8550000D02*
X18980000Y-8630000D01*
X18940000Y-8590000D02*
X19020000Y-8590000D01*
X18990000Y-12276000D02*
X18990000Y-12356000D01*
X18950000Y-12316000D02*
X19030000Y-12316000D01*
X18990000Y-13038000D02*
X18990000Y-13118000D01*
X18950000Y-13078000D02*
X19030000Y-13078000D01*
X19291840Y-9309360D02*
X19291840Y-9389360D01*
X19251840Y-9349360D02*
X19331840Y-9349360D01*
X19291840Y-9563360D02*
X19291840Y-9643360D01*
X19251840Y-9603360D02*
X19331840Y-9603360D01*
X19291840Y-9817360D02*
X19291840Y-9897360D01*
X19251840Y-9857360D02*
X19331840Y-9857360D01*
X19302000Y-10112000D02*
X19302000Y-10192000D01*
X19262000Y-10152000D02*
X19342000Y-10152000D01*
X19302000Y-11128000D02*
X19302000Y-11208000D01*
X19262000Y-11168000D02*
X19342000Y-11168000D01*
X19370000Y-4396000D02*
X19370000Y-4476000D01*
X19330000Y-4436000D02*
X19410000Y-4436000D01*
X19370000Y-5920000D02*
X19370000Y-6000000D01*
X19330000Y-5960000D02*
X19410000Y-5960000D01*
X19500000Y-11796000D02*
X19500000Y-11876000D01*
X19460000Y-11836000D02*
X19540000Y-11836000D01*
X19500000Y-13320000D02*
X19500000Y-13400000D01*
X19460000Y-13360000D02*
X19540000Y-13360000D01*
X19650320Y-6478280D02*
X19650320Y-6558280D01*
X19610320Y-6518280D02*
X19690320Y-6518280D01*
X19650320Y-6732280D02*
X19650320Y-6812280D01*
X19610320Y-6772280D02*
X19690320Y-6772280D01*
X19650320Y-6986280D02*
X19650320Y-7066280D01*
X19610320Y-7026280D02*
X19690320Y-7026280D01*
X19653300Y-7341880D02*
X19653300Y-7421880D01*
X19613300Y-7381880D02*
X19693300Y-7381880D01*
X19653300Y-8865880D02*
X19653300Y-8945880D01*
X19613300Y-8905880D02*
X19693300Y-8905880D01*
X19810000Y-10112000D02*
X19810000Y-10192000D01*
X19770000Y-10152000D02*
X19850000Y-10152000D01*
X19810000Y-11128000D02*
X19810000Y-11208000D01*
X19770000Y-11168000D02*
X19850000Y-11168000D01*
X19850640Y-9482080D02*
X19850640Y-9562080D01*
X19810640Y-9522080D02*
X19890640Y-9522080D01*
X20010000Y-4747000D02*
X20010000Y-4827000D01*
X19970000Y-4787000D02*
X20050000Y-4787000D01*
X20010000Y-5509000D02*
X20010000Y-5589000D01*
X19970000Y-5549000D02*
X20050000Y-5549000D01*
X20104640Y-9482080D02*
X20104640Y-9562080D01*
X20064640Y-9522080D02*
X20144640Y-9522080D01*
X20358640Y-9482080D02*
X20358640Y-9562080D01*
X20318640Y-9522080D02*
X20398640Y-9522080D01*
X20380000Y-12297000D02*
X20380000Y-12377000D01*
X20340000Y-12337000D02*
X20420000Y-12337000D01*
X20380000Y-13059000D02*
X20380000Y-13139000D01*
X20340000Y-13099000D02*
X20420000Y-13099000D01*
X20410000Y-8314000D02*
X20410000Y-8394000D01*
X20370000Y-8354000D02*
X20450000Y-8354000D01*
X20410000Y-8568000D02*
X20410000Y-8648000D01*
X20370000Y-8608000D02*
X20450000Y-8608000D01*
X20410000Y-8822000D02*
X20410000Y-8902000D01*
X20370000Y-8862000D02*
X20450000Y-8862000D01*
X20490000Y-10192000D02*
X20490000Y-10272000D01*
X20450000Y-10232000D02*
X20530000Y-10232000D01*
X20490000Y-11208000D02*
X20490000Y-11288000D01*
X20450000Y-11248000D02*
X20530000Y-11248000D01*
X20800000Y-4276000D02*
X20800000Y-4356000D01*
X20760000Y-4316000D02*
X20840000Y-4316000D01*
X20800000Y-5800000D02*
X20800000Y-5880000D01*
X20760000Y-5840000D02*
X20840000Y-5840000D01*
X20890000Y-11836000D02*
X20890000Y-11916000D01*
X20850000Y-11876000D02*
X20930000Y-11876000D01*
X20890000Y-13360000D02*
X20890000Y-13440000D01*
X20850000Y-13400000D02*
X20930000Y-13400000D01*
X21370000Y-4848000D02*
X21370000Y-4928000D01*
X21330000Y-4888000D02*
X21410000Y-4888000D01*
X21370000Y-5610000D02*
X21370000Y-5690000D01*
X21330000Y-5650000D02*
X21410000Y-5650000D01*
X21760000Y-12206000D02*
X21760000Y-12286000D01*
X21720000Y-12246000D02*
X21800000Y-12246000D01*
X21760000Y-12968000D02*
X21760000Y-13048000D01*
X21720000Y-13008000D02*
X21800000Y-13008000D01*
X22030000Y-4336000D02*
X22030000Y-4416000D01*
X21990000Y-4376000D02*
X22070000Y-4376000D01*
X22030000Y-5860000D02*
X22030000Y-5940000D01*
X21990000Y-5900000D02*
X22070000Y-5900000D01*
X22220000Y-11816000D02*
X22220000Y-11896000D01*
X22180000Y-11856000D02*
X22260000Y-11856000D01*
X22220000Y-13340000D02*
X22220000Y-13420000D01*
X22180000Y-13380000D02*
X22260000Y-13380000D01*
X22660000Y-4657000D02*
X22660000Y-4737000D01*
X22620000Y-4697000D02*
X22700000Y-4697000D01*
X22660000Y-5419000D02*
X22660000Y-5499000D01*
X22620000Y-5459000D02*
X22700000Y-5459000D01*
X23118420Y-12374280D02*
X23118420Y-12454280D01*
X23078420Y-12414280D02*
X23158420Y-12414280D01*
X23118420Y-13136280D02*
X23118420Y-13216280D01*
X23078420Y-13176280D02*
X23158420Y-13176280D01*
X23320000Y-4366000D02*
X23320000Y-4446000D01*
X23280000Y-4406000D02*
X23360000Y-4406000D01*
X23320000Y-5890000D02*
X23320000Y-5970000D01*
X23280000Y-5930000D02*
X23360000Y-5930000D01*
X23620000Y-11776000D02*
X23620000Y-11856000D01*
X23580000Y-11816000D02*
X23660000Y-11816000D01*
X23620000Y-13300000D02*
X23620000Y-13380000D01*
X23580000Y-13340000D02*
X23660000Y-13340000D01*
X24070000Y-4466000D02*
X24070000Y-4546000D01*
X24030000Y-4506000D02*
X24110000Y-4506000D01*
X24070000Y-5990000D02*
X24070000Y-6070000D01*
X24030000Y-6030000D02*
X24110000Y-6030000D01*
X24190000Y-11926000D02*
X24190000Y-12006000D01*
X24150000Y-11966000D02*
X24230000Y-11966000D01*
X24190000Y-13450000D02*
X24190000Y-13530000D01*
X24150000Y-13490000D02*
X24230000Y-13490000D01*
X5596820Y-10469820D02*
X5596820Y-10406180D01*
X5533180Y-10406180D01*
X5533180Y-10469820D01*
X5596820Y-10469820D01*
X5645000Y-10393000D02*
X5485000Y-10393000D01*
X5485000Y-10393000D02*
G75*
G03*
X5485000Y-10483000I0J-45000D01*
G01*
X5485000Y-10483000D02*
X5645000Y-10483000D01*
X5645000Y-10483000D02*
G75*
G03*
X5645000Y-10393000I0J45000D01*
G01*
X5596820Y-11609820D02*
X5596820Y-11546180D01*
X5533180Y-11546180D01*
X5533180Y-11609820D01*
X5596820Y-11609820D01*
X5645000Y-11533000D02*
X5485000Y-11533000D01*
X5485000Y-11533000D02*
G75*
G03*
X5485000Y-11623000I0J-45000D01*
G01*
X5485000Y-11623000D02*
X5645000Y-11623000D01*
X5645000Y-11623000D02*
G75*
G03*
X5645000Y-11533000I0J45000D01*
G01*
D12*
X6583900Y-4760940D02*
X6638900Y-4705940D01*
X6583900Y-4650940D01*
X6528900Y-4705940D01*
X6583900Y-4760940D01*
X6583900Y-5776940D02*
X6638900Y-5721940D01*
X6583900Y-5666940D01*
X6528900Y-5721940D01*
X6583900Y-5776940D01*
X8522000Y-13973000D02*
X8577000Y-13918000D01*
X8522000Y-13863000D01*
X8467000Y-13918000D01*
X8522000Y-13973000D01*
X8524000Y-8303000D02*
X8579000Y-8248000D01*
X8524000Y-8193000D01*
X8469000Y-8248000D01*
X8524000Y-8303000D01*
X8776000Y-13973000D02*
X8831000Y-13918000D01*
X8776000Y-13863000D01*
X8721000Y-13918000D01*
X8776000Y-13973000D01*
X9030000Y-13973000D02*
X9085000Y-13918000D01*
X9030000Y-13863000D01*
X8975000Y-13918000D01*
X9030000Y-13973000D01*
X9242000Y-3913000D02*
X9297000Y-3858000D01*
X9242000Y-3803000D01*
X9187000Y-3858000D01*
X9242000Y-3913000D01*
X9496000Y-3913000D02*
X9551000Y-3858000D01*
X9496000Y-3803000D01*
X9441000Y-3858000D01*
X9496000Y-3913000D01*
X9540000Y-8303000D02*
X9595000Y-8248000D01*
X9540000Y-8193000D01*
X9485000Y-8248000D01*
X9540000Y-8303000D01*
X9692000Y-13973000D02*
X9747000Y-13918000D01*
X9692000Y-13863000D01*
X9637000Y-13918000D01*
X9692000Y-13973000D01*
X9750000Y-3913000D02*
X9805000Y-3858000D01*
X9750000Y-3803000D01*
X9695000Y-3858000D01*
X9750000Y-3913000D01*
X9946000Y-13973000D02*
X10001000Y-13918000D01*
X9946000Y-13863000D01*
X9891000Y-13918000D01*
X9946000Y-13973000D01*
X10200000Y-13973000D02*
X10255000Y-13918000D01*
X10200000Y-13863000D01*
X10145000Y-13918000D01*
X10200000Y-13973000D01*
X10422000Y-3913000D02*
X10477000Y-3858000D01*
X10422000Y-3803000D01*
X10367000Y-3858000D01*
X10422000Y-3913000D01*
X10676000Y-3913000D02*
X10731000Y-3858000D01*
X10676000Y-3803000D01*
X10621000Y-3858000D01*
X10676000Y-3913000D01*
X10882000Y-13963000D02*
X10937000Y-13908000D01*
X10882000Y-13853000D01*
X10827000Y-13908000D01*
X10882000Y-13963000D01*
X10930000Y-3913000D02*
X10985000Y-3858000D01*
X10930000Y-3803000D01*
X10875000Y-3858000D01*
X10930000Y-3913000D01*
X11136000Y-13963000D02*
X11191000Y-13908000D01*
X11136000Y-13853000D01*
X11081000Y-13908000D01*
X11136000Y-13963000D01*
X11390000Y-13963000D02*
X11445000Y-13908000D01*
X11390000Y-13853000D01*
X11335000Y-13908000D01*
X11390000Y-13963000D01*
X11682000Y-3893000D02*
X11737000Y-3838000D01*
X11682000Y-3783000D01*
X11627000Y-3838000D01*
X11682000Y-3893000D01*
X11936000Y-3893000D02*
X11991000Y-3838000D01*
X11936000Y-3783000D01*
X11881000Y-3838000D01*
X11936000Y-3893000D01*
X12122000Y-13963000D02*
X12177000Y-13908000D01*
X12122000Y-13853000D01*
X12067000Y-13908000D01*
X12122000Y-13963000D01*
X12190000Y-3893000D02*
X12245000Y-3838000D01*
X12190000Y-3783000D01*
X12135000Y-3838000D01*
X12190000Y-3893000D01*
X12376000Y-13963000D02*
X12431000Y-13908000D01*
X12376000Y-13853000D01*
X12321000Y-13908000D01*
X12376000Y-13963000D01*
X12507320Y-9534080D02*
X12562320Y-9479080D01*
X12507320Y-9424080D01*
X12452320Y-9479080D01*
X12507320Y-9534080D01*
X12507320Y-10550080D02*
X12562320Y-10495080D01*
X12507320Y-10440080D01*
X12452320Y-10495080D01*
X12507320Y-10550080D01*
X12630000Y-13963000D02*
X12685000Y-13908000D01*
X12630000Y-13853000D01*
X12575000Y-13908000D01*
X12630000Y-13963000D01*
X12872000Y-3853000D02*
X12927000Y-3798000D01*
X12872000Y-3743000D01*
X12817000Y-3798000D01*
X12872000Y-3853000D01*
X13126000Y-3853000D02*
X13181000Y-3798000D01*
X13126000Y-3743000D01*
X13071000Y-3798000D01*
X13126000Y-3853000D01*
X13352000Y-13973000D02*
X13407000Y-13918000D01*
X13352000Y-13863000D01*
X13297000Y-13918000D01*
X13352000Y-13973000D01*
X13380000Y-3853000D02*
X13435000Y-3798000D01*
X13380000Y-3743000D01*
X13325000Y-3798000D01*
X13380000Y-3853000D01*
X13606000Y-13973000D02*
X13661000Y-13918000D01*
X13606000Y-13863000D01*
X13551000Y-13918000D01*
X13606000Y-13973000D01*
X13860000Y-13973000D02*
X13915000Y-13918000D01*
X13860000Y-13863000D01*
X13805000Y-13918000D01*
X13860000Y-13973000D01*
X13982000Y-3853000D02*
X14037000Y-3798000D01*
X13982000Y-3743000D01*
X13927000Y-3798000D01*
X13982000Y-3853000D01*
X14236000Y-3853000D02*
X14291000Y-3798000D01*
X14236000Y-3743000D01*
X14181000Y-3798000D01*
X14236000Y-3853000D01*
X14490000Y-3853000D02*
X14545000Y-3798000D01*
X14490000Y-3743000D01*
X14435000Y-3798000D01*
X14490000Y-3853000D01*
X14542000Y-13963000D02*
X14597000Y-13908000D01*
X14542000Y-13853000D01*
X14487000Y-13908000D01*
X14542000Y-13963000D01*
X14796000Y-13963000D02*
X14851000Y-13908000D01*
X14796000Y-13853000D01*
X14741000Y-13908000D01*
X14796000Y-13963000D01*
X15050000Y-13963000D02*
X15105000Y-13908000D01*
X15050000Y-13853000D01*
X14995000Y-13908000D01*
X15050000Y-13963000D01*
X15182000Y-3863000D02*
X15237000Y-3808000D01*
X15182000Y-3753000D01*
X15127000Y-3808000D01*
X15182000Y-3863000D01*
X15436000Y-3863000D02*
X15491000Y-3808000D01*
X15436000Y-3753000D01*
X15381000Y-3808000D01*
X15436000Y-3863000D01*
X15690000Y-3863000D02*
X15745000Y-3808000D01*
X15690000Y-3753000D01*
X15635000Y-3808000D01*
X15690000Y-3863000D01*
X16432000Y-13993000D02*
X16487000Y-13938000D01*
X16432000Y-13883000D01*
X16377000Y-13938000D01*
X16432000Y-13993000D01*
X16686000Y-13993000D02*
X16741000Y-13938000D01*
X16686000Y-13883000D01*
X16631000Y-13938000D01*
X16686000Y-13993000D01*
X16782000Y-3903000D02*
X16837000Y-3848000D01*
X16782000Y-3793000D01*
X16727000Y-3848000D01*
X16782000Y-3903000D01*
X16940000Y-13993000D02*
X16995000Y-13938000D01*
X16940000Y-13883000D01*
X16885000Y-13938000D01*
X16940000Y-13993000D01*
X17036000Y-3903000D02*
X17091000Y-3848000D01*
X17036000Y-3793000D01*
X16981000Y-3848000D01*
X17036000Y-3903000D01*
X17290000Y-3903000D02*
X17345000Y-3848000D01*
X17290000Y-3793000D01*
X17235000Y-3848000D01*
X17290000Y-3903000D01*
X17440000Y-7955000D02*
X17495000Y-7900000D01*
X17440000Y-7845000D01*
X17385000Y-7900000D01*
X17440000Y-7955000D01*
X17440000Y-8971000D02*
X17495000Y-8916000D01*
X17440000Y-8861000D01*
X17385000Y-8916000D01*
X17440000Y-8971000D01*
X17772000Y-13983000D02*
X17827000Y-13928000D01*
X17772000Y-13873000D01*
X17717000Y-13928000D01*
X17772000Y-13983000D01*
X18026000Y-13983000D02*
X18081000Y-13928000D01*
X18026000Y-13873000D01*
X17971000Y-13928000D01*
X18026000Y-13983000D01*
X18082000Y-3943000D02*
X18137000Y-3888000D01*
X18082000Y-3833000D01*
X18027000Y-3888000D01*
X18082000Y-3943000D01*
X18280000Y-13983000D02*
X18335000Y-13928000D01*
X18280000Y-13873000D01*
X18225000Y-13928000D01*
X18280000Y-13983000D01*
X18336000Y-3943000D02*
X18391000Y-3888000D01*
X18336000Y-3833000D01*
X18281000Y-3888000D01*
X18336000Y-3943000D01*
X18590000Y-3943000D02*
X18645000Y-3888000D01*
X18590000Y-3833000D01*
X18535000Y-3888000D01*
X18590000Y-3943000D01*
X19130000Y-13983000D02*
X19185000Y-13928000D01*
X19130000Y-13873000D01*
X19075000Y-13928000D01*
X19130000Y-13983000D01*
X19384000Y-13983000D02*
X19439000Y-13928000D01*
X19384000Y-13873000D01*
X19329000Y-13928000D01*
X19384000Y-13983000D01*
X19402000Y-3943000D02*
X19457000Y-3888000D01*
X19402000Y-3833000D01*
X19347000Y-3888000D01*
X19402000Y-3943000D01*
X19638000Y-13983000D02*
X19693000Y-13928000D01*
X19638000Y-13873000D01*
X19583000Y-13928000D01*
X19638000Y-13983000D01*
X19656000Y-3943000D02*
X19711000Y-3888000D01*
X19656000Y-3833000D01*
X19601000Y-3888000D01*
X19656000Y-3943000D01*
X19910000Y-3943000D02*
X19965000Y-3888000D01*
X19910000Y-3833000D01*
X19855000Y-3888000D01*
X19910000Y-3943000D01*
X20482000Y-13973000D02*
X20537000Y-13918000D01*
X20482000Y-13863000D01*
X20427000Y-13918000D01*
X20482000Y-13973000D01*
X20736000Y-13973000D02*
X20791000Y-13918000D01*
X20736000Y-13863000D01*
X20681000Y-13918000D01*
X20736000Y-13973000D01*
X20822000Y-3963000D02*
X20877000Y-3908000D01*
X20822000Y-3853000D01*
X20767000Y-3908000D01*
X20822000Y-3963000D01*
X20990000Y-13973000D02*
X21045000Y-13918000D01*
X20990000Y-13863000D01*
X20935000Y-13918000D01*
X20990000Y-13973000D01*
X21076000Y-3963000D02*
X21131000Y-3908000D01*
X21076000Y-3853000D01*
X21021000Y-3908000D01*
X21076000Y-3963000D01*
X21330000Y-3963000D02*
X21385000Y-3908000D01*
X21330000Y-3853000D01*
X21275000Y-3908000D01*
X21330000Y-3963000D01*
X21942000Y-13963000D02*
X21997000Y-13908000D01*
X21942000Y-13853000D01*
X21887000Y-13908000D01*
X21942000Y-13963000D01*
X22062000Y-3973000D02*
X22117000Y-3918000D01*
X22062000Y-3863000D01*
X22007000Y-3918000D01*
X22062000Y-3973000D01*
X22196000Y-13963000D02*
X22251000Y-13908000D01*
X22196000Y-13853000D01*
X22141000Y-13908000D01*
X22196000Y-13963000D01*
X22316000Y-3973000D02*
X22371000Y-3918000D01*
X22316000Y-3863000D01*
X22261000Y-3918000D01*
X22316000Y-3973000D01*
X22450000Y-13963000D02*
X22505000Y-13908000D01*
X22450000Y-13853000D01*
X22395000Y-13908000D01*
X22450000Y-13963000D01*
X22570000Y-3973000D02*
X22625000Y-3918000D01*
X22570000Y-3863000D01*
X22515000Y-3918000D01*
X22570000Y-3973000D01*
X23132000Y-13943000D02*
X23187000Y-13888000D01*
X23132000Y-13833000D01*
X23077000Y-13888000D01*
X23132000Y-13943000D01*
X23160000Y-3975000D02*
X23215000Y-3920000D01*
X23160000Y-3865000D01*
X23105000Y-3920000D01*
X23160000Y-3975000D01*
X23386000Y-13943000D02*
X23441000Y-13888000D01*
X23386000Y-13833000D01*
X23331000Y-13888000D01*
X23386000Y-13943000D01*
X23414000Y-3975000D02*
X23469000Y-3920000D01*
X23414000Y-3865000D01*
X23359000Y-3920000D01*
X23414000Y-3975000D01*
X23640000Y-13943000D02*
X23695000Y-13888000D01*
X23640000Y-13833000D01*
X23585000Y-13888000D01*
X23640000Y-13943000D01*
X23668000Y-3975000D02*
X23723000Y-3920000D01*
X23668000Y-3865000D01*
X23613000Y-3920000D01*
X23668000Y-3975000D01*
D13*
X21460000Y-9168000D02*
X21580000Y-9288000D01*
X21580000Y-9168000D02*
X21460000Y-9288000D01*
X21580000Y-9228000D02*
G75*
G03*
X21460000Y-9228000I-60000J0D01*
G01*
X21460000Y-9228000D02*
G75*
G03*
X21580000Y-9228000I60000J0D01*
G01*
X22960000Y-9168000D02*
X23080000Y-9288000D01*
X23080000Y-9168000D02*
X22960000Y-9288000D01*
X23080000Y-9228000D02*
G75*
G03*
X22960000Y-9228000I-60000J0D01*
G01*
X22960000Y-9228000D02*
G75*
G03*
X23080000Y-9228000I60000J0D01*
G01*
D14*
X4400000Y-4528500D02*
X4530000Y-4658500D01*
X4530000Y-4528500D02*
X4400000Y-4658500D01*
X4465000Y-4528500D02*
X4465000Y-4658500D01*
X4400000Y-4593500D02*
X4530000Y-4593500D01*
X4400000Y-5036500D02*
X4530000Y-5166500D01*
X4530000Y-5036500D02*
X4400000Y-5166500D01*
X4465000Y-5036500D02*
X4465000Y-5166500D01*
X4400000Y-5101500D02*
X4530000Y-5101500D01*
X23705000Y-10275000D02*
X23835000Y-10405000D01*
X23835000Y-10275000D02*
X23705000Y-10405000D01*
X23770000Y-10275000D02*
X23770000Y-10405000D01*
X23705000Y-10340000D02*
X23835000Y-10340000D01*
X23705000Y-10783000D02*
X23835000Y-10913000D01*
X23835000Y-10783000D02*
X23705000Y-10913000D01*
X23770000Y-10783000D02*
X23770000Y-10913000D01*
X23705000Y-10848000D02*
X23835000Y-10848000D01*
D11*
X3835777Y-14906484D02*
X3835777Y-14706484D01*
X3835777Y-14706484D02*
X3883396Y-14706484D01*
X3883396Y-14706484D02*
X3911967Y-14716008D01*
X3911967Y-14716008D02*
X3931015Y-14735055D01*
X3931015Y-14735055D02*
X3940539Y-14754103D01*
X3940539Y-14754103D02*
X3950062Y-14792198D01*
X3950062Y-14792198D02*
X3950062Y-14820769D01*
X3950062Y-14820769D02*
X3940539Y-14858865D01*
X3940539Y-14858865D02*
X3931015Y-14877912D01*
X3931015Y-14877912D02*
X3911967Y-14896960D01*
X3911967Y-14896960D02*
X3883396Y-14906484D01*
X3883396Y-14906484D02*
X3835777Y-14906484D01*
X4035777Y-14906484D02*
X4035777Y-14773150D01*
X4035777Y-14811246D02*
X4045301Y-14792198D01*
X4045301Y-14792198D02*
X4054824Y-14782674D01*
X4054824Y-14782674D02*
X4073872Y-14773150D01*
X4073872Y-14773150D02*
X4092920Y-14773150D01*
X4159586Y-14906484D02*
X4159586Y-14773150D01*
X4159586Y-14706484D02*
X4150062Y-14716008D01*
X4150062Y-14716008D02*
X4159586Y-14725531D01*
X4159586Y-14725531D02*
X4169110Y-14716008D01*
X4169110Y-14716008D02*
X4159586Y-14706484D01*
X4159586Y-14706484D02*
X4159586Y-14725531D01*
X4283396Y-14906484D02*
X4264348Y-14896960D01*
X4264348Y-14896960D02*
X4254824Y-14877912D01*
X4254824Y-14877912D02*
X4254824Y-14706484D01*
X4388158Y-14906484D02*
X4369110Y-14896960D01*
X4369110Y-14896960D02*
X4359586Y-14877912D01*
X4359586Y-14877912D02*
X4359586Y-14706484D01*
X4616729Y-14906484D02*
X4616729Y-14706484D01*
X4616729Y-14706484D02*
X4683396Y-14849341D01*
X4683396Y-14849341D02*
X4750063Y-14706484D01*
X4750063Y-14706484D02*
X4750063Y-14906484D01*
X4931015Y-14906484D02*
X4931015Y-14801722D01*
X4931015Y-14801722D02*
X4921491Y-14782674D01*
X4921491Y-14782674D02*
X4902444Y-14773150D01*
X4902444Y-14773150D02*
X4864348Y-14773150D01*
X4864348Y-14773150D02*
X4845301Y-14782674D01*
X4931015Y-14896960D02*
X4911967Y-14906484D01*
X4911967Y-14906484D02*
X4864348Y-14906484D01*
X4864348Y-14906484D02*
X4845301Y-14896960D01*
X4845301Y-14896960D02*
X4835777Y-14877912D01*
X4835777Y-14877912D02*
X4835777Y-14858865D01*
X4835777Y-14858865D02*
X4845301Y-14839817D01*
X4845301Y-14839817D02*
X4864348Y-14830293D01*
X4864348Y-14830293D02*
X4911967Y-14830293D01*
X4911967Y-14830293D02*
X4931015Y-14820769D01*
X5026253Y-14773150D02*
X5026253Y-14973150D01*
X5026253Y-14782674D02*
X5045301Y-14773150D01*
X5045301Y-14773150D02*
X5083396Y-14773150D01*
X5083396Y-14773150D02*
X5102444Y-14782674D01*
X5102444Y-14782674D02*
X5111967Y-14792198D01*
X5111967Y-14792198D02*
X5121491Y-14811246D01*
X5121491Y-14811246D02*
X5121491Y-14868388D01*
X5121491Y-14868388D02*
X5111967Y-14887436D01*
X5111967Y-14887436D02*
X5102444Y-14896960D01*
X5102444Y-14896960D02*
X5083396Y-14906484D01*
X5083396Y-14906484D02*
X5045301Y-14906484D01*
X5045301Y-14906484D02*
X5026253Y-14896960D01*
X5207205Y-14887436D02*
X5216729Y-14896960D01*
X5216729Y-14896960D02*
X5207205Y-14906484D01*
X5207205Y-14906484D02*
X5197682Y-14896960D01*
X5197682Y-14896960D02*
X5207205Y-14887436D01*
X5207205Y-14887436D02*
X5207205Y-14906484D01*
X5207205Y-14782674D02*
X5216729Y-14792198D01*
X5216729Y-14792198D02*
X5207205Y-14801722D01*
X5207205Y-14801722D02*
X5197682Y-14792198D01*
X5197682Y-14792198D02*
X5207205Y-14782674D01*
X5207205Y-14782674D02*
X5207205Y-14801722D01*
D10*
X3545000Y-15220000D02*
X3575000Y-15250000D01*
X3575000Y-15220000D02*
X3545000Y-15250000D01*
D11*
X3873872Y-15126484D02*
X3892920Y-15126484D01*
X3892920Y-15126484D02*
X3911967Y-15136008D01*
X3911967Y-15136008D02*
X3921491Y-15145531D01*
X3921491Y-15145531D02*
X3931015Y-15164579D01*
X3931015Y-15164579D02*
X3940539Y-15202674D01*
X3940539Y-15202674D02*
X3940539Y-15250293D01*
X3940539Y-15250293D02*
X3931015Y-15288388D01*
X3931015Y-15288388D02*
X3921491Y-15307436D01*
X3921491Y-15307436D02*
X3911967Y-15316960D01*
X3911967Y-15316960D02*
X3892920Y-15326484D01*
X3892920Y-15326484D02*
X3873872Y-15326484D01*
X3873872Y-15326484D02*
X3854824Y-15316960D01*
X3854824Y-15316960D02*
X3845301Y-15307436D01*
X3845301Y-15307436D02*
X3835777Y-15288388D01*
X3835777Y-15288388D02*
X3826253Y-15250293D01*
X3826253Y-15250293D02*
X3826253Y-15202674D01*
X3826253Y-15202674D02*
X3835777Y-15164579D01*
X3835777Y-15164579D02*
X3845301Y-15145531D01*
X3845301Y-15145531D02*
X3854824Y-15136008D01*
X3854824Y-15136008D02*
X3873872Y-15126484D01*
X4026253Y-15307436D02*
X4035777Y-15316960D01*
X4035777Y-15316960D02*
X4026253Y-15326484D01*
X4026253Y-15326484D02*
X4016729Y-15316960D01*
X4016729Y-15316960D02*
X4026253Y-15307436D01*
X4026253Y-15307436D02*
X4026253Y-15326484D01*
X4102443Y-15126484D02*
X4226253Y-15126484D01*
X4226253Y-15126484D02*
X4159586Y-15202674D01*
X4159586Y-15202674D02*
X4188158Y-15202674D01*
X4188158Y-15202674D02*
X4207205Y-15212198D01*
X4207205Y-15212198D02*
X4216729Y-15221722D01*
X4216729Y-15221722D02*
X4226253Y-15240769D01*
X4226253Y-15240769D02*
X4226253Y-15288388D01*
X4226253Y-15288388D02*
X4216729Y-15307436D01*
X4216729Y-15307436D02*
X4207205Y-15316960D01*
X4207205Y-15316960D02*
X4188158Y-15326484D01*
X4188158Y-15326484D02*
X4131015Y-15326484D01*
X4131015Y-15326484D02*
X4111967Y-15316960D01*
X4111967Y-15316960D02*
X4102443Y-15307436D01*
X4350063Y-15126484D02*
X4369110Y-15126484D01*
X4369110Y-15126484D02*
X4388158Y-15136008D01*
X4388158Y-15136008D02*
X4397682Y-15145531D01*
X4397682Y-15145531D02*
X4407205Y-15164579D01*
X4407205Y-15164579D02*
X4416729Y-15202674D01*
X4416729Y-15202674D02*
X4416729Y-15250293D01*
X4416729Y-15250293D02*
X4407205Y-15288388D01*
X4407205Y-15288388D02*
X4397682Y-15307436D01*
X4397682Y-15307436D02*
X4388158Y-15316960D01*
X4388158Y-15316960D02*
X4369110Y-15326484D01*
X4369110Y-15326484D02*
X4350063Y-15326484D01*
X4350063Y-15326484D02*
X4331015Y-15316960D01*
X4331015Y-15316960D02*
X4321491Y-15307436D01*
X4321491Y-15307436D02*
X4311967Y-15288388D01*
X4311967Y-15288388D02*
X4302444Y-15250293D01*
X4302444Y-15250293D02*
X4302444Y-15202674D01*
X4302444Y-15202674D02*
X4311967Y-15164579D01*
X4311967Y-15164579D02*
X4321491Y-15145531D01*
X4321491Y-15145531D02*
X4331015Y-15136008D01*
X4331015Y-15136008D02*
X4350063Y-15126484D01*
X4540539Y-15126484D02*
X4559586Y-15126484D01*
X4559586Y-15126484D02*
X4578634Y-15136008D01*
X4578634Y-15136008D02*
X4588158Y-15145531D01*
X4588158Y-15145531D02*
X4597682Y-15164579D01*
X4597682Y-15164579D02*
X4607205Y-15202674D01*
X4607205Y-15202674D02*
X4607205Y-15250293D01*
X4607205Y-15250293D02*
X4597682Y-15288388D01*
X4597682Y-15288388D02*
X4588158Y-15307436D01*
X4588158Y-15307436D02*
X4578634Y-15316960D01*
X4578634Y-15316960D02*
X4559586Y-15326484D01*
X4559586Y-15326484D02*
X4540539Y-15326484D01*
X4540539Y-15326484D02*
X4521491Y-15316960D01*
X4521491Y-15316960D02*
X4511967Y-15307436D01*
X4511967Y-15307436D02*
X4502444Y-15288388D01*
X4502444Y-15288388D02*
X4492920Y-15250293D01*
X4492920Y-15250293D02*
X4492920Y-15202674D01*
X4492920Y-15202674D02*
X4502444Y-15164579D01*
X4502444Y-15164579D02*
X4511967Y-15145531D01*
X4511967Y-15145531D02*
X4521491Y-15136008D01*
X4521491Y-15136008D02*
X4540539Y-15126484D01*
X4692920Y-15326484D02*
X4692920Y-15193150D01*
X4692920Y-15212198D02*
X4702444Y-15202674D01*
X4702444Y-15202674D02*
X4721491Y-15193150D01*
X4721491Y-15193150D02*
X4750063Y-15193150D01*
X4750063Y-15193150D02*
X4769110Y-15202674D01*
X4769110Y-15202674D02*
X4778634Y-15221722D01*
X4778634Y-15221722D02*
X4778634Y-15326484D01*
X4778634Y-15221722D02*
X4788158Y-15202674D01*
X4788158Y-15202674D02*
X4807205Y-15193150D01*
X4807205Y-15193150D02*
X4835777Y-15193150D01*
X4835777Y-15193150D02*
X4854825Y-15202674D01*
X4854825Y-15202674D02*
X4864348Y-15221722D01*
X4864348Y-15221722D02*
X4864348Y-15326484D01*
X4959586Y-15326484D02*
X4959586Y-15193150D01*
X4959586Y-15212198D02*
X4969110Y-15202674D01*
X4969110Y-15202674D02*
X4988158Y-15193150D01*
X4988158Y-15193150D02*
X5016729Y-15193150D01*
X5016729Y-15193150D02*
X5035777Y-15202674D01*
X5035777Y-15202674D02*
X5045301Y-15221722D01*
X5045301Y-15221722D02*
X5045301Y-15326484D01*
X5045301Y-15221722D02*
X5054825Y-15202674D01*
X5054825Y-15202674D02*
X5073872Y-15193150D01*
X5073872Y-15193150D02*
X5102444Y-15193150D01*
X5102444Y-15193150D02*
X5121491Y-15202674D01*
X5121491Y-15202674D02*
X5131015Y-15221722D01*
X5131015Y-15221722D02*
X5131015Y-15326484D01*
X5521491Y-15116960D02*
X5350063Y-15374103D01*
X5778634Y-15126484D02*
X5797682Y-15126484D01*
X5797682Y-15126484D02*
X5816729Y-15136008D01*
X5816729Y-15136008D02*
X5826253Y-15145531D01*
X5826253Y-15145531D02*
X5835777Y-15164579D01*
X5835777Y-15164579D02*
X5845301Y-15202674D01*
X5845301Y-15202674D02*
X5845301Y-15250293D01*
X5845301Y-15250293D02*
X5835777Y-15288388D01*
X5835777Y-15288388D02*
X5826253Y-15307436D01*
X5826253Y-15307436D02*
X5816729Y-15316960D01*
X5816729Y-15316960D02*
X5797682Y-15326484D01*
X5797682Y-15326484D02*
X5778634Y-15326484D01*
X5778634Y-15326484D02*
X5759586Y-15316960D01*
X5759586Y-15316960D02*
X5750063Y-15307436D01*
X5750063Y-15307436D02*
X5740539Y-15288388D01*
X5740539Y-15288388D02*
X5731015Y-15250293D01*
X5731015Y-15250293D02*
X5731015Y-15202674D01*
X5731015Y-15202674D02*
X5740539Y-15164579D01*
X5740539Y-15164579D02*
X5750063Y-15145531D01*
X5750063Y-15145531D02*
X5759586Y-15136008D01*
X5759586Y-15136008D02*
X5778634Y-15126484D01*
X5931015Y-15307436D02*
X5940539Y-15316960D01*
X5940539Y-15316960D02*
X5931015Y-15326484D01*
X5931015Y-15326484D02*
X5921491Y-15316960D01*
X5921491Y-15316960D02*
X5931015Y-15307436D01*
X5931015Y-15307436D02*
X5931015Y-15326484D01*
X6064348Y-15126484D02*
X6083396Y-15126484D01*
X6083396Y-15126484D02*
X6102444Y-15136008D01*
X6102444Y-15136008D02*
X6111967Y-15145531D01*
X6111967Y-15145531D02*
X6121491Y-15164579D01*
X6121491Y-15164579D02*
X6131015Y-15202674D01*
X6131015Y-15202674D02*
X6131015Y-15250293D01*
X6131015Y-15250293D02*
X6121491Y-15288388D01*
X6121491Y-15288388D02*
X6111967Y-15307436D01*
X6111967Y-15307436D02*
X6102444Y-15316960D01*
X6102444Y-15316960D02*
X6083396Y-15326484D01*
X6083396Y-15326484D02*
X6064348Y-15326484D01*
X6064348Y-15326484D02*
X6045301Y-15316960D01*
X6045301Y-15316960D02*
X6035777Y-15307436D01*
X6035777Y-15307436D02*
X6026253Y-15288388D01*
X6026253Y-15288388D02*
X6016729Y-15250293D01*
X6016729Y-15250293D02*
X6016729Y-15202674D01*
X6016729Y-15202674D02*
X6026253Y-15164579D01*
X6026253Y-15164579D02*
X6035777Y-15145531D01*
X6035777Y-15145531D02*
X6045301Y-15136008D01*
X6045301Y-15136008D02*
X6064348Y-15126484D01*
X6321491Y-15326484D02*
X6207206Y-15326484D01*
X6264348Y-15326484D02*
X6264348Y-15126484D01*
X6264348Y-15126484D02*
X6245301Y-15155055D01*
X6245301Y-15155055D02*
X6226253Y-15174103D01*
X6226253Y-15174103D02*
X6207206Y-15183627D01*
X6511967Y-15326484D02*
X6397682Y-15326484D01*
X6454825Y-15326484D02*
X6454825Y-15126484D01*
X6454825Y-15126484D02*
X6435777Y-15155055D01*
X6435777Y-15155055D02*
X6416729Y-15174103D01*
X6416729Y-15174103D02*
X6397682Y-15183627D01*
X6626253Y-15212198D02*
X6607206Y-15202674D01*
X6607206Y-15202674D02*
X6597682Y-15193150D01*
X6597682Y-15193150D02*
X6588158Y-15174103D01*
X6588158Y-15174103D02*
X6588158Y-15164579D01*
X6588158Y-15164579D02*
X6597682Y-15145531D01*
X6597682Y-15145531D02*
X6607206Y-15136008D01*
X6607206Y-15136008D02*
X6626253Y-15126484D01*
X6626253Y-15126484D02*
X6664348Y-15126484D01*
X6664348Y-15126484D02*
X6683396Y-15136008D01*
X6683396Y-15136008D02*
X6692920Y-15145531D01*
X6692920Y-15145531D02*
X6702444Y-15164579D01*
X6702444Y-15164579D02*
X6702444Y-15174103D01*
X6702444Y-15174103D02*
X6692920Y-15193150D01*
X6692920Y-15193150D02*
X6683396Y-15202674D01*
X6683396Y-15202674D02*
X6664348Y-15212198D01*
X6664348Y-15212198D02*
X6626253Y-15212198D01*
X6626253Y-15212198D02*
X6607206Y-15221722D01*
X6607206Y-15221722D02*
X6597682Y-15231246D01*
X6597682Y-15231246D02*
X6588158Y-15250293D01*
X6588158Y-15250293D02*
X6588158Y-15288388D01*
X6588158Y-15288388D02*
X6597682Y-15307436D01*
X6597682Y-15307436D02*
X6607206Y-15316960D01*
X6607206Y-15316960D02*
X6626253Y-15326484D01*
X6626253Y-15326484D02*
X6664348Y-15326484D01*
X6664348Y-15326484D02*
X6683396Y-15316960D01*
X6683396Y-15316960D02*
X6692920Y-15307436D01*
X6692920Y-15307436D02*
X6702444Y-15288388D01*
X6702444Y-15288388D02*
X6702444Y-15250293D01*
X6702444Y-15250293D02*
X6692920Y-15231246D01*
X6692920Y-15231246D02*
X6683396Y-15221722D01*
X6683396Y-15221722D02*
X6664348Y-15212198D01*
X6778634Y-15126484D02*
X6778634Y-15164579D01*
X6854825Y-15126484D02*
X6854825Y-15164579D01*
X7150063Y-15402674D02*
X7140539Y-15393150D01*
X7140539Y-15393150D02*
X7121491Y-15364579D01*
X7121491Y-15364579D02*
X7111968Y-15345531D01*
X7111968Y-15345531D02*
X7102444Y-15316960D01*
X7102444Y-15316960D02*
X7092920Y-15269341D01*
X7092920Y-15269341D02*
X7092920Y-15231246D01*
X7092920Y-15231246D02*
X7102444Y-15183627D01*
X7102444Y-15183627D02*
X7111968Y-15155055D01*
X7111968Y-15155055D02*
X7121491Y-15136008D01*
X7121491Y-15136008D02*
X7140539Y-15107436D01*
X7140539Y-15107436D02*
X7150063Y-15097912D01*
X7207206Y-15126484D02*
X7331015Y-15126484D01*
X7331015Y-15126484D02*
X7264348Y-15202674D01*
X7264348Y-15202674D02*
X7292920Y-15202674D01*
X7292920Y-15202674D02*
X7311968Y-15212198D01*
X7311968Y-15212198D02*
X7321491Y-15221722D01*
X7321491Y-15221722D02*
X7331015Y-15240769D01*
X7331015Y-15240769D02*
X7331015Y-15288388D01*
X7331015Y-15288388D02*
X7321491Y-15307436D01*
X7321491Y-15307436D02*
X7311968Y-15316960D01*
X7311968Y-15316960D02*
X7292920Y-15326484D01*
X7292920Y-15326484D02*
X7235777Y-15326484D01*
X7235777Y-15326484D02*
X7216729Y-15316960D01*
X7216729Y-15316960D02*
X7207206Y-15307436D01*
X7397682Y-15126484D02*
X7531015Y-15126484D01*
X7531015Y-15126484D02*
X7445301Y-15326484D01*
X7759587Y-15326484D02*
X7759587Y-15126484D01*
X7845301Y-15326484D02*
X7845301Y-15221722D01*
X7845301Y-15221722D02*
X7835777Y-15202674D01*
X7835777Y-15202674D02*
X7816730Y-15193150D01*
X7816730Y-15193150D02*
X7788158Y-15193150D01*
X7788158Y-15193150D02*
X7769110Y-15202674D01*
X7769110Y-15202674D02*
X7759587Y-15212198D01*
X7969110Y-15326484D02*
X7950063Y-15316960D01*
X7950063Y-15316960D02*
X7940539Y-15307436D01*
X7940539Y-15307436D02*
X7931015Y-15288388D01*
X7931015Y-15288388D02*
X7931015Y-15231246D01*
X7931015Y-15231246D02*
X7940539Y-15212198D01*
X7940539Y-15212198D02*
X7950063Y-15202674D01*
X7950063Y-15202674D02*
X7969110Y-15193150D01*
X7969110Y-15193150D02*
X7997682Y-15193150D01*
X7997682Y-15193150D02*
X8016730Y-15202674D01*
X8016730Y-15202674D02*
X8026253Y-15212198D01*
X8026253Y-15212198D02*
X8035777Y-15231246D01*
X8035777Y-15231246D02*
X8035777Y-15288388D01*
X8035777Y-15288388D02*
X8026253Y-15307436D01*
X8026253Y-15307436D02*
X8016730Y-15316960D01*
X8016730Y-15316960D02*
X7997682Y-15326484D01*
X7997682Y-15326484D02*
X7969110Y-15326484D01*
X8150063Y-15326484D02*
X8131015Y-15316960D01*
X8131015Y-15316960D02*
X8121491Y-15297912D01*
X8121491Y-15297912D02*
X8121491Y-15126484D01*
X8302444Y-15316960D02*
X8283396Y-15326484D01*
X8283396Y-15326484D02*
X8245301Y-15326484D01*
X8245301Y-15326484D02*
X8226253Y-15316960D01*
X8226253Y-15316960D02*
X8216730Y-15297912D01*
X8216730Y-15297912D02*
X8216730Y-15221722D01*
X8216730Y-15221722D02*
X8226253Y-15202674D01*
X8226253Y-15202674D02*
X8245301Y-15193150D01*
X8245301Y-15193150D02*
X8283396Y-15193150D01*
X8283396Y-15193150D02*
X8302444Y-15202674D01*
X8302444Y-15202674D02*
X8311968Y-15221722D01*
X8311968Y-15221722D02*
X8311968Y-15240769D01*
X8311968Y-15240769D02*
X8216730Y-15259817D01*
X8388158Y-15316960D02*
X8407206Y-15326484D01*
X8407206Y-15326484D02*
X8445301Y-15326484D01*
X8445301Y-15326484D02*
X8464349Y-15316960D01*
X8464349Y-15316960D02*
X8473873Y-15297912D01*
X8473873Y-15297912D02*
X8473873Y-15288388D01*
X8473873Y-15288388D02*
X8464349Y-15269341D01*
X8464349Y-15269341D02*
X8445301Y-15259817D01*
X8445301Y-15259817D02*
X8416730Y-15259817D01*
X8416730Y-15259817D02*
X8397682Y-15250293D01*
X8397682Y-15250293D02*
X8388158Y-15231246D01*
X8388158Y-15231246D02*
X8388158Y-15221722D01*
X8388158Y-15221722D02*
X8397682Y-15202674D01*
X8397682Y-15202674D02*
X8416730Y-15193150D01*
X8416730Y-15193150D02*
X8445301Y-15193150D01*
X8445301Y-15193150D02*
X8464349Y-15202674D01*
X8540539Y-15402674D02*
X8550063Y-15393150D01*
X8550063Y-15393150D02*
X8569111Y-15364579D01*
X8569111Y-15364579D02*
X8578634Y-15345531D01*
X8578634Y-15345531D02*
X8588158Y-15316960D01*
X8588158Y-15316960D02*
X8597682Y-15269341D01*
X8597682Y-15269341D02*
X8597682Y-15231246D01*
X8597682Y-15231246D02*
X8588158Y-15183627D01*
X8588158Y-15183627D02*
X8578634Y-15155055D01*
X8578634Y-15155055D02*
X8569111Y-15136008D01*
X8569111Y-15136008D02*
X8550063Y-15107436D01*
X8550063Y-15107436D02*
X8540539Y-15097912D01*
D10*
X3575000Y-15499000D02*
G75*
G03*
X3535000Y-15499000I-20000J0D01*
G01*
X3535000Y-15499000D02*
G75*
G03*
X3575000Y-15499000I20000J0D01*
G01*
D11*
X3873872Y-15390484D02*
X3892920Y-15390484D01*
X3892920Y-15390484D02*
X3911967Y-15400008D01*
X3911967Y-15400008D02*
X3921491Y-15409531D01*
X3921491Y-15409531D02*
X3931015Y-15428579D01*
X3931015Y-15428579D02*
X3940539Y-15466674D01*
X3940539Y-15466674D02*
X3940539Y-15514293D01*
X3940539Y-15514293D02*
X3931015Y-15552388D01*
X3931015Y-15552388D02*
X3921491Y-15571436D01*
X3921491Y-15571436D02*
X3911967Y-15580960D01*
X3911967Y-15580960D02*
X3892920Y-15590484D01*
X3892920Y-15590484D02*
X3873872Y-15590484D01*
X3873872Y-15590484D02*
X3854824Y-15580960D01*
X3854824Y-15580960D02*
X3845301Y-15571436D01*
X3845301Y-15571436D02*
X3835777Y-15552388D01*
X3835777Y-15552388D02*
X3826253Y-15514293D01*
X3826253Y-15514293D02*
X3826253Y-15466674D01*
X3826253Y-15466674D02*
X3835777Y-15428579D01*
X3835777Y-15428579D02*
X3845301Y-15409531D01*
X3845301Y-15409531D02*
X3854824Y-15400008D01*
X3854824Y-15400008D02*
X3873872Y-15390484D01*
X4026253Y-15571436D02*
X4035777Y-15580960D01*
X4035777Y-15580960D02*
X4026253Y-15590484D01*
X4026253Y-15590484D02*
X4016729Y-15580960D01*
X4016729Y-15580960D02*
X4026253Y-15571436D01*
X4026253Y-15571436D02*
X4026253Y-15590484D01*
X4207205Y-15457150D02*
X4207205Y-15590484D01*
X4159586Y-15380960D02*
X4111967Y-15523817D01*
X4111967Y-15523817D02*
X4235777Y-15523817D01*
X4350063Y-15390484D02*
X4369110Y-15390484D01*
X4369110Y-15390484D02*
X4388158Y-15400008D01*
X4388158Y-15400008D02*
X4397682Y-15409531D01*
X4397682Y-15409531D02*
X4407205Y-15428579D01*
X4407205Y-15428579D02*
X4416729Y-15466674D01*
X4416729Y-15466674D02*
X4416729Y-15514293D01*
X4416729Y-15514293D02*
X4407205Y-15552388D01*
X4407205Y-15552388D02*
X4397682Y-15571436D01*
X4397682Y-15571436D02*
X4388158Y-15580960D01*
X4388158Y-15580960D02*
X4369110Y-15590484D01*
X4369110Y-15590484D02*
X4350063Y-15590484D01*
X4350063Y-15590484D02*
X4331015Y-15580960D01*
X4331015Y-15580960D02*
X4321491Y-15571436D01*
X4321491Y-15571436D02*
X4311967Y-15552388D01*
X4311967Y-15552388D02*
X4302444Y-15514293D01*
X4302444Y-15514293D02*
X4302444Y-15466674D01*
X4302444Y-15466674D02*
X4311967Y-15428579D01*
X4311967Y-15428579D02*
X4321491Y-15409531D01*
X4321491Y-15409531D02*
X4331015Y-15400008D01*
X4331015Y-15400008D02*
X4350063Y-15390484D01*
X4540539Y-15390484D02*
X4559586Y-15390484D01*
X4559586Y-15390484D02*
X4578634Y-15400008D01*
X4578634Y-15400008D02*
X4588158Y-15409531D01*
X4588158Y-15409531D02*
X4597682Y-15428579D01*
X4597682Y-15428579D02*
X4607205Y-15466674D01*
X4607205Y-15466674D02*
X4607205Y-15514293D01*
X4607205Y-15514293D02*
X4597682Y-15552388D01*
X4597682Y-15552388D02*
X4588158Y-15571436D01*
X4588158Y-15571436D02*
X4578634Y-15580960D01*
X4578634Y-15580960D02*
X4559586Y-15590484D01*
X4559586Y-15590484D02*
X4540539Y-15590484D01*
X4540539Y-15590484D02*
X4521491Y-15580960D01*
X4521491Y-15580960D02*
X4511967Y-15571436D01*
X4511967Y-15571436D02*
X4502444Y-15552388D01*
X4502444Y-15552388D02*
X4492920Y-15514293D01*
X4492920Y-15514293D02*
X4492920Y-15466674D01*
X4492920Y-15466674D02*
X4502444Y-15428579D01*
X4502444Y-15428579D02*
X4511967Y-15409531D01*
X4511967Y-15409531D02*
X4521491Y-15400008D01*
X4521491Y-15400008D02*
X4540539Y-15390484D01*
X4692920Y-15590484D02*
X4692920Y-15457150D01*
X4692920Y-15476198D02*
X4702444Y-15466674D01*
X4702444Y-15466674D02*
X4721491Y-15457150D01*
X4721491Y-15457150D02*
X4750063Y-15457150D01*
X4750063Y-15457150D02*
X4769110Y-15466674D01*
X4769110Y-15466674D02*
X4778634Y-15485722D01*
X4778634Y-15485722D02*
X4778634Y-15590484D01*
X4778634Y-15485722D02*
X4788158Y-15466674D01*
X4788158Y-15466674D02*
X4807205Y-15457150D01*
X4807205Y-15457150D02*
X4835777Y-15457150D01*
X4835777Y-15457150D02*
X4854825Y-15466674D01*
X4854825Y-15466674D02*
X4864348Y-15485722D01*
X4864348Y-15485722D02*
X4864348Y-15590484D01*
X4959586Y-15590484D02*
X4959586Y-15457150D01*
X4959586Y-15476198D02*
X4969110Y-15466674D01*
X4969110Y-15466674D02*
X4988158Y-15457150D01*
X4988158Y-15457150D02*
X5016729Y-15457150D01*
X5016729Y-15457150D02*
X5035777Y-15466674D01*
X5035777Y-15466674D02*
X5045301Y-15485722D01*
X5045301Y-15485722D02*
X5045301Y-15590484D01*
X5045301Y-15485722D02*
X5054825Y-15466674D01*
X5054825Y-15466674D02*
X5073872Y-15457150D01*
X5073872Y-15457150D02*
X5102444Y-15457150D01*
X5102444Y-15457150D02*
X5121491Y-15466674D01*
X5121491Y-15466674D02*
X5131015Y-15485722D01*
X5131015Y-15485722D02*
X5131015Y-15590484D01*
X5521491Y-15380960D02*
X5350063Y-15638103D01*
X5778634Y-15390484D02*
X5797682Y-15390484D01*
X5797682Y-15390484D02*
X5816729Y-15400008D01*
X5816729Y-15400008D02*
X5826253Y-15409531D01*
X5826253Y-15409531D02*
X5835777Y-15428579D01*
X5835777Y-15428579D02*
X5845301Y-15466674D01*
X5845301Y-15466674D02*
X5845301Y-15514293D01*
X5845301Y-15514293D02*
X5835777Y-15552388D01*
X5835777Y-15552388D02*
X5826253Y-15571436D01*
X5826253Y-15571436D02*
X5816729Y-15580960D01*
X5816729Y-15580960D02*
X5797682Y-15590484D01*
X5797682Y-15590484D02*
X5778634Y-15590484D01*
X5778634Y-15590484D02*
X5759586Y-15580960D01*
X5759586Y-15580960D02*
X5750063Y-15571436D01*
X5750063Y-15571436D02*
X5740539Y-15552388D01*
X5740539Y-15552388D02*
X5731015Y-15514293D01*
X5731015Y-15514293D02*
X5731015Y-15466674D01*
X5731015Y-15466674D02*
X5740539Y-15428579D01*
X5740539Y-15428579D02*
X5750063Y-15409531D01*
X5750063Y-15409531D02*
X5759586Y-15400008D01*
X5759586Y-15400008D02*
X5778634Y-15390484D01*
X5931015Y-15571436D02*
X5940539Y-15580960D01*
X5940539Y-15580960D02*
X5931015Y-15590484D01*
X5931015Y-15590484D02*
X5921491Y-15580960D01*
X5921491Y-15580960D02*
X5931015Y-15571436D01*
X5931015Y-15571436D02*
X5931015Y-15590484D01*
X6064348Y-15390484D02*
X6083396Y-15390484D01*
X6083396Y-15390484D02*
X6102444Y-15400008D01*
X6102444Y-15400008D02*
X6111967Y-15409531D01*
X6111967Y-15409531D02*
X6121491Y-15428579D01*
X6121491Y-15428579D02*
X6131015Y-15466674D01*
X6131015Y-15466674D02*
X6131015Y-15514293D01*
X6131015Y-15514293D02*
X6121491Y-15552388D01*
X6121491Y-15552388D02*
X6111967Y-15571436D01*
X6111967Y-15571436D02*
X6102444Y-15580960D01*
X6102444Y-15580960D02*
X6083396Y-15590484D01*
X6083396Y-15590484D02*
X6064348Y-15590484D01*
X6064348Y-15590484D02*
X6045301Y-15580960D01*
X6045301Y-15580960D02*
X6035777Y-15571436D01*
X6035777Y-15571436D02*
X6026253Y-15552388D01*
X6026253Y-15552388D02*
X6016729Y-15514293D01*
X6016729Y-15514293D02*
X6016729Y-15466674D01*
X6016729Y-15466674D02*
X6026253Y-15428579D01*
X6026253Y-15428579D02*
X6035777Y-15409531D01*
X6035777Y-15409531D02*
X6045301Y-15400008D01*
X6045301Y-15400008D02*
X6064348Y-15390484D01*
X6321491Y-15590484D02*
X6207206Y-15590484D01*
X6264348Y-15590484D02*
X6264348Y-15390484D01*
X6264348Y-15390484D02*
X6245301Y-15419055D01*
X6245301Y-15419055D02*
X6226253Y-15438103D01*
X6226253Y-15438103D02*
X6207206Y-15447627D01*
X6502444Y-15390484D02*
X6407206Y-15390484D01*
X6407206Y-15390484D02*
X6397682Y-15485722D01*
X6397682Y-15485722D02*
X6407206Y-15476198D01*
X6407206Y-15476198D02*
X6426253Y-15466674D01*
X6426253Y-15466674D02*
X6473872Y-15466674D01*
X6473872Y-15466674D02*
X6492920Y-15476198D01*
X6492920Y-15476198D02*
X6502444Y-15485722D01*
X6502444Y-15485722D02*
X6511967Y-15504769D01*
X6511967Y-15504769D02*
X6511967Y-15552388D01*
X6511967Y-15552388D02*
X6502444Y-15571436D01*
X6502444Y-15571436D02*
X6492920Y-15580960D01*
X6492920Y-15580960D02*
X6473872Y-15590484D01*
X6473872Y-15590484D02*
X6426253Y-15590484D01*
X6426253Y-15590484D02*
X6407206Y-15580960D01*
X6407206Y-15580960D02*
X6397682Y-15571436D01*
X6578634Y-15390484D02*
X6711967Y-15390484D01*
X6711967Y-15390484D02*
X6626253Y-15590484D01*
X6778634Y-15390484D02*
X6778634Y-15428579D01*
X6854825Y-15390484D02*
X6854825Y-15428579D01*
X7150063Y-15666674D02*
X7140539Y-15657150D01*
X7140539Y-15657150D02*
X7121491Y-15628579D01*
X7121491Y-15628579D02*
X7111968Y-15609531D01*
X7111968Y-15609531D02*
X7102444Y-15580960D01*
X7102444Y-15580960D02*
X7092920Y-15533341D01*
X7092920Y-15533341D02*
X7092920Y-15495246D01*
X7092920Y-15495246D02*
X7102444Y-15447627D01*
X7102444Y-15447627D02*
X7111968Y-15419055D01*
X7111968Y-15419055D02*
X7121491Y-15400008D01*
X7121491Y-15400008D02*
X7140539Y-15371436D01*
X7140539Y-15371436D02*
X7150063Y-15361912D01*
X7207206Y-15390484D02*
X7340539Y-15390484D01*
X7340539Y-15390484D02*
X7254825Y-15590484D01*
X7569110Y-15590484D02*
X7569110Y-15390484D01*
X7654825Y-15590484D02*
X7654825Y-15485722D01*
X7654825Y-15485722D02*
X7645301Y-15466674D01*
X7645301Y-15466674D02*
X7626253Y-15457150D01*
X7626253Y-15457150D02*
X7597682Y-15457150D01*
X7597682Y-15457150D02*
X7578634Y-15466674D01*
X7578634Y-15466674D02*
X7569110Y-15476198D01*
X7778634Y-15590484D02*
X7759587Y-15580960D01*
X7759587Y-15580960D02*
X7750063Y-15571436D01*
X7750063Y-15571436D02*
X7740539Y-15552388D01*
X7740539Y-15552388D02*
X7740539Y-15495246D01*
X7740539Y-15495246D02*
X7750063Y-15476198D01*
X7750063Y-15476198D02*
X7759587Y-15466674D01*
X7759587Y-15466674D02*
X7778634Y-15457150D01*
X7778634Y-15457150D02*
X7807206Y-15457150D01*
X7807206Y-15457150D02*
X7826253Y-15466674D01*
X7826253Y-15466674D02*
X7835777Y-15476198D01*
X7835777Y-15476198D02*
X7845301Y-15495246D01*
X7845301Y-15495246D02*
X7845301Y-15552388D01*
X7845301Y-15552388D02*
X7835777Y-15571436D01*
X7835777Y-15571436D02*
X7826253Y-15580960D01*
X7826253Y-15580960D02*
X7807206Y-15590484D01*
X7807206Y-15590484D02*
X7778634Y-15590484D01*
X7959587Y-15590484D02*
X7940539Y-15580960D01*
X7940539Y-15580960D02*
X7931015Y-15561912D01*
X7931015Y-15561912D02*
X7931015Y-15390484D01*
X8111968Y-15580960D02*
X8092920Y-15590484D01*
X8092920Y-15590484D02*
X8054825Y-15590484D01*
X8054825Y-15590484D02*
X8035777Y-15580960D01*
X8035777Y-15580960D02*
X8026253Y-15561912D01*
X8026253Y-15561912D02*
X8026253Y-15485722D01*
X8026253Y-15485722D02*
X8035777Y-15466674D01*
X8035777Y-15466674D02*
X8054825Y-15457150D01*
X8054825Y-15457150D02*
X8092920Y-15457150D01*
X8092920Y-15457150D02*
X8111968Y-15466674D01*
X8111968Y-15466674D02*
X8121491Y-15485722D01*
X8121491Y-15485722D02*
X8121491Y-15504769D01*
X8121491Y-15504769D02*
X8026253Y-15523817D01*
X8197682Y-15580960D02*
X8216730Y-15590484D01*
X8216730Y-15590484D02*
X8254825Y-15590484D01*
X8254825Y-15590484D02*
X8273872Y-15580960D01*
X8273872Y-15580960D02*
X8283396Y-15561912D01*
X8283396Y-15561912D02*
X8283396Y-15552388D01*
X8283396Y-15552388D02*
X8273872Y-15533341D01*
X8273872Y-15533341D02*
X8254825Y-15523817D01*
X8254825Y-15523817D02*
X8226253Y-15523817D01*
X8226253Y-15523817D02*
X8207206Y-15514293D01*
X8207206Y-15514293D02*
X8197682Y-15495246D01*
X8197682Y-15495246D02*
X8197682Y-15485722D01*
X8197682Y-15485722D02*
X8207206Y-15466674D01*
X8207206Y-15466674D02*
X8226253Y-15457150D01*
X8226253Y-15457150D02*
X8254825Y-15457150D01*
X8254825Y-15457150D02*
X8273872Y-15466674D01*
X8350063Y-15666674D02*
X8359587Y-15657150D01*
X8359587Y-15657150D02*
X8378634Y-15628579D01*
X8378634Y-15628579D02*
X8388158Y-15609531D01*
X8388158Y-15609531D02*
X8397682Y-15580960D01*
X8397682Y-15580960D02*
X8407206Y-15533341D01*
X8407206Y-15533341D02*
X8407206Y-15495246D01*
X8407206Y-15495246D02*
X8397682Y-15447627D01*
X8397682Y-15447627D02*
X8388158Y-15419055D01*
X8388158Y-15419055D02*
X8378634Y-15400008D01*
X8378634Y-15400008D02*
X8359587Y-15371436D01*
X8359587Y-15371436D02*
X8350063Y-15361912D01*
D10*
X3535000Y-15723000D02*
X3535000Y-15803000D01*
X3495000Y-15763000D02*
X3575000Y-15763000D01*
D11*
X3873872Y-15654484D02*
X3892920Y-15654484D01*
X3892920Y-15654484D02*
X3911967Y-15664008D01*
X3911967Y-15664008D02*
X3921491Y-15673531D01*
X3921491Y-15673531D02*
X3931015Y-15692579D01*
X3931015Y-15692579D02*
X3940539Y-15730674D01*
X3940539Y-15730674D02*
X3940539Y-15778293D01*
X3940539Y-15778293D02*
X3931015Y-15816388D01*
X3931015Y-15816388D02*
X3921491Y-15835436D01*
X3921491Y-15835436D02*
X3911967Y-15844960D01*
X3911967Y-15844960D02*
X3892920Y-15854484D01*
X3892920Y-15854484D02*
X3873872Y-15854484D01*
X3873872Y-15854484D02*
X3854824Y-15844960D01*
X3854824Y-15844960D02*
X3845301Y-15835436D01*
X3845301Y-15835436D02*
X3835777Y-15816388D01*
X3835777Y-15816388D02*
X3826253Y-15778293D01*
X3826253Y-15778293D02*
X3826253Y-15730674D01*
X3826253Y-15730674D02*
X3835777Y-15692579D01*
X3835777Y-15692579D02*
X3845301Y-15673531D01*
X3845301Y-15673531D02*
X3854824Y-15664008D01*
X3854824Y-15664008D02*
X3873872Y-15654484D01*
X4026253Y-15835436D02*
X4035777Y-15844960D01*
X4035777Y-15844960D02*
X4026253Y-15854484D01*
X4026253Y-15854484D02*
X4016729Y-15844960D01*
X4016729Y-15844960D02*
X4026253Y-15835436D01*
X4026253Y-15835436D02*
X4026253Y-15854484D01*
X4150062Y-15740198D02*
X4131015Y-15730674D01*
X4131015Y-15730674D02*
X4121491Y-15721150D01*
X4121491Y-15721150D02*
X4111967Y-15702103D01*
X4111967Y-15702103D02*
X4111967Y-15692579D01*
X4111967Y-15692579D02*
X4121491Y-15673531D01*
X4121491Y-15673531D02*
X4131015Y-15664008D01*
X4131015Y-15664008D02*
X4150062Y-15654484D01*
X4150062Y-15654484D02*
X4188158Y-15654484D01*
X4188158Y-15654484D02*
X4207205Y-15664008D01*
X4207205Y-15664008D02*
X4216729Y-15673531D01*
X4216729Y-15673531D02*
X4226253Y-15692579D01*
X4226253Y-15692579D02*
X4226253Y-15702103D01*
X4226253Y-15702103D02*
X4216729Y-15721150D01*
X4216729Y-15721150D02*
X4207205Y-15730674D01*
X4207205Y-15730674D02*
X4188158Y-15740198D01*
X4188158Y-15740198D02*
X4150062Y-15740198D01*
X4150062Y-15740198D02*
X4131015Y-15749722D01*
X4131015Y-15749722D02*
X4121491Y-15759246D01*
X4121491Y-15759246D02*
X4111967Y-15778293D01*
X4111967Y-15778293D02*
X4111967Y-15816388D01*
X4111967Y-15816388D02*
X4121491Y-15835436D01*
X4121491Y-15835436D02*
X4131015Y-15844960D01*
X4131015Y-15844960D02*
X4150062Y-15854484D01*
X4150062Y-15854484D02*
X4188158Y-15854484D01*
X4188158Y-15854484D02*
X4207205Y-15844960D01*
X4207205Y-15844960D02*
X4216729Y-15835436D01*
X4216729Y-15835436D02*
X4226253Y-15816388D01*
X4226253Y-15816388D02*
X4226253Y-15778293D01*
X4226253Y-15778293D02*
X4216729Y-15759246D01*
X4216729Y-15759246D02*
X4207205Y-15749722D01*
X4207205Y-15749722D02*
X4188158Y-15740198D01*
X4350063Y-15654484D02*
X4369110Y-15654484D01*
X4369110Y-15654484D02*
X4388158Y-15664008D01*
X4388158Y-15664008D02*
X4397682Y-15673531D01*
X4397682Y-15673531D02*
X4407205Y-15692579D01*
X4407205Y-15692579D02*
X4416729Y-15730674D01*
X4416729Y-15730674D02*
X4416729Y-15778293D01*
X4416729Y-15778293D02*
X4407205Y-15816388D01*
X4407205Y-15816388D02*
X4397682Y-15835436D01*
X4397682Y-15835436D02*
X4388158Y-15844960D01*
X4388158Y-15844960D02*
X4369110Y-15854484D01*
X4369110Y-15854484D02*
X4350063Y-15854484D01*
X4350063Y-15854484D02*
X4331015Y-15844960D01*
X4331015Y-15844960D02*
X4321491Y-15835436D01*
X4321491Y-15835436D02*
X4311967Y-15816388D01*
X4311967Y-15816388D02*
X4302444Y-15778293D01*
X4302444Y-15778293D02*
X4302444Y-15730674D01*
X4302444Y-15730674D02*
X4311967Y-15692579D01*
X4311967Y-15692579D02*
X4321491Y-15673531D01*
X4321491Y-15673531D02*
X4331015Y-15664008D01*
X4331015Y-15664008D02*
X4350063Y-15654484D01*
X4540539Y-15654484D02*
X4559586Y-15654484D01*
X4559586Y-15654484D02*
X4578634Y-15664008D01*
X4578634Y-15664008D02*
X4588158Y-15673531D01*
X4588158Y-15673531D02*
X4597682Y-15692579D01*
X4597682Y-15692579D02*
X4607205Y-15730674D01*
X4607205Y-15730674D02*
X4607205Y-15778293D01*
X4607205Y-15778293D02*
X4597682Y-15816388D01*
X4597682Y-15816388D02*
X4588158Y-15835436D01*
X4588158Y-15835436D02*
X4578634Y-15844960D01*
X4578634Y-15844960D02*
X4559586Y-15854484D01*
X4559586Y-15854484D02*
X4540539Y-15854484D01*
X4540539Y-15854484D02*
X4521491Y-15844960D01*
X4521491Y-15844960D02*
X4511967Y-15835436D01*
X4511967Y-15835436D02*
X4502444Y-15816388D01*
X4502444Y-15816388D02*
X4492920Y-15778293D01*
X4492920Y-15778293D02*
X4492920Y-15730674D01*
X4492920Y-15730674D02*
X4502444Y-15692579D01*
X4502444Y-15692579D02*
X4511967Y-15673531D01*
X4511967Y-15673531D02*
X4521491Y-15664008D01*
X4521491Y-15664008D02*
X4540539Y-15654484D01*
X4692920Y-15854484D02*
X4692920Y-15721150D01*
X4692920Y-15740198D02*
X4702444Y-15730674D01*
X4702444Y-15730674D02*
X4721491Y-15721150D01*
X4721491Y-15721150D02*
X4750063Y-15721150D01*
X4750063Y-15721150D02*
X4769110Y-15730674D01*
X4769110Y-15730674D02*
X4778634Y-15749722D01*
X4778634Y-15749722D02*
X4778634Y-15854484D01*
X4778634Y-15749722D02*
X4788158Y-15730674D01*
X4788158Y-15730674D02*
X4807205Y-15721150D01*
X4807205Y-15721150D02*
X4835777Y-15721150D01*
X4835777Y-15721150D02*
X4854825Y-15730674D01*
X4854825Y-15730674D02*
X4864348Y-15749722D01*
X4864348Y-15749722D02*
X4864348Y-15854484D01*
X4959586Y-15854484D02*
X4959586Y-15721150D01*
X4959586Y-15740198D02*
X4969110Y-15730674D01*
X4969110Y-15730674D02*
X4988158Y-15721150D01*
X4988158Y-15721150D02*
X5016729Y-15721150D01*
X5016729Y-15721150D02*
X5035777Y-15730674D01*
X5035777Y-15730674D02*
X5045301Y-15749722D01*
X5045301Y-15749722D02*
X5045301Y-15854484D01*
X5045301Y-15749722D02*
X5054825Y-15730674D01*
X5054825Y-15730674D02*
X5073872Y-15721150D01*
X5073872Y-15721150D02*
X5102444Y-15721150D01*
X5102444Y-15721150D02*
X5121491Y-15730674D01*
X5121491Y-15730674D02*
X5131015Y-15749722D01*
X5131015Y-15749722D02*
X5131015Y-15854484D01*
X5521491Y-15644960D02*
X5350063Y-15902103D01*
X5778634Y-15654484D02*
X5797682Y-15654484D01*
X5797682Y-15654484D02*
X5816729Y-15664008D01*
X5816729Y-15664008D02*
X5826253Y-15673531D01*
X5826253Y-15673531D02*
X5835777Y-15692579D01*
X5835777Y-15692579D02*
X5845301Y-15730674D01*
X5845301Y-15730674D02*
X5845301Y-15778293D01*
X5845301Y-15778293D02*
X5835777Y-15816388D01*
X5835777Y-15816388D02*
X5826253Y-15835436D01*
X5826253Y-15835436D02*
X5816729Y-15844960D01*
X5816729Y-15844960D02*
X5797682Y-15854484D01*
X5797682Y-15854484D02*
X5778634Y-15854484D01*
X5778634Y-15854484D02*
X5759586Y-15844960D01*
X5759586Y-15844960D02*
X5750063Y-15835436D01*
X5750063Y-15835436D02*
X5740539Y-15816388D01*
X5740539Y-15816388D02*
X5731015Y-15778293D01*
X5731015Y-15778293D02*
X5731015Y-15730674D01*
X5731015Y-15730674D02*
X5740539Y-15692579D01*
X5740539Y-15692579D02*
X5750063Y-15673531D01*
X5750063Y-15673531D02*
X5759586Y-15664008D01*
X5759586Y-15664008D02*
X5778634Y-15654484D01*
X5931015Y-15835436D02*
X5940539Y-15844960D01*
X5940539Y-15844960D02*
X5931015Y-15854484D01*
X5931015Y-15854484D02*
X5921491Y-15844960D01*
X5921491Y-15844960D02*
X5931015Y-15835436D01*
X5931015Y-15835436D02*
X5931015Y-15854484D01*
X6064348Y-15654484D02*
X6083396Y-15654484D01*
X6083396Y-15654484D02*
X6102444Y-15664008D01*
X6102444Y-15664008D02*
X6111967Y-15673531D01*
X6111967Y-15673531D02*
X6121491Y-15692579D01*
X6121491Y-15692579D02*
X6131015Y-15730674D01*
X6131015Y-15730674D02*
X6131015Y-15778293D01*
X6131015Y-15778293D02*
X6121491Y-15816388D01*
X6121491Y-15816388D02*
X6111967Y-15835436D01*
X6111967Y-15835436D02*
X6102444Y-15844960D01*
X6102444Y-15844960D02*
X6083396Y-15854484D01*
X6083396Y-15854484D02*
X6064348Y-15854484D01*
X6064348Y-15854484D02*
X6045301Y-15844960D01*
X6045301Y-15844960D02*
X6035777Y-15835436D01*
X6035777Y-15835436D02*
X6026253Y-15816388D01*
X6026253Y-15816388D02*
X6016729Y-15778293D01*
X6016729Y-15778293D02*
X6016729Y-15730674D01*
X6016729Y-15730674D02*
X6026253Y-15692579D01*
X6026253Y-15692579D02*
X6035777Y-15673531D01*
X6035777Y-15673531D02*
X6045301Y-15664008D01*
X6045301Y-15664008D02*
X6064348Y-15654484D01*
X6197682Y-15654484D02*
X6321491Y-15654484D01*
X6321491Y-15654484D02*
X6254825Y-15730674D01*
X6254825Y-15730674D02*
X6283396Y-15730674D01*
X6283396Y-15730674D02*
X6302444Y-15740198D01*
X6302444Y-15740198D02*
X6311967Y-15749722D01*
X6311967Y-15749722D02*
X6321491Y-15768769D01*
X6321491Y-15768769D02*
X6321491Y-15816388D01*
X6321491Y-15816388D02*
X6311967Y-15835436D01*
X6311967Y-15835436D02*
X6302444Y-15844960D01*
X6302444Y-15844960D02*
X6283396Y-15854484D01*
X6283396Y-15854484D02*
X6226253Y-15854484D01*
X6226253Y-15854484D02*
X6207206Y-15844960D01*
X6207206Y-15844960D02*
X6197682Y-15835436D01*
X6511967Y-15854484D02*
X6397682Y-15854484D01*
X6454825Y-15854484D02*
X6454825Y-15654484D01*
X6454825Y-15654484D02*
X6435777Y-15683055D01*
X6435777Y-15683055D02*
X6416729Y-15702103D01*
X6416729Y-15702103D02*
X6397682Y-15711627D01*
X6692920Y-15654484D02*
X6597682Y-15654484D01*
X6597682Y-15654484D02*
X6588158Y-15749722D01*
X6588158Y-15749722D02*
X6597682Y-15740198D01*
X6597682Y-15740198D02*
X6616729Y-15730674D01*
X6616729Y-15730674D02*
X6664348Y-15730674D01*
X6664348Y-15730674D02*
X6683396Y-15740198D01*
X6683396Y-15740198D02*
X6692920Y-15749722D01*
X6692920Y-15749722D02*
X6702444Y-15768769D01*
X6702444Y-15768769D02*
X6702444Y-15816388D01*
X6702444Y-15816388D02*
X6692920Y-15835436D01*
X6692920Y-15835436D02*
X6683396Y-15844960D01*
X6683396Y-15844960D02*
X6664348Y-15854484D01*
X6664348Y-15854484D02*
X6616729Y-15854484D01*
X6616729Y-15854484D02*
X6597682Y-15844960D01*
X6597682Y-15844960D02*
X6588158Y-15835436D01*
X6778634Y-15654484D02*
X6778634Y-15692579D01*
X6854825Y-15654484D02*
X6854825Y-15692579D01*
X7150063Y-15930674D02*
X7140539Y-15921150D01*
X7140539Y-15921150D02*
X7121491Y-15892579D01*
X7121491Y-15892579D02*
X7111968Y-15873531D01*
X7111968Y-15873531D02*
X7102444Y-15844960D01*
X7102444Y-15844960D02*
X7092920Y-15797341D01*
X7092920Y-15797341D02*
X7092920Y-15759246D01*
X7092920Y-15759246D02*
X7102444Y-15711627D01*
X7102444Y-15711627D02*
X7111968Y-15683055D01*
X7111968Y-15683055D02*
X7121491Y-15664008D01*
X7121491Y-15664008D02*
X7140539Y-15635436D01*
X7140539Y-15635436D02*
X7150063Y-15625912D01*
X7216729Y-15673531D02*
X7226253Y-15664008D01*
X7226253Y-15664008D02*
X7245301Y-15654484D01*
X7245301Y-15654484D02*
X7292920Y-15654484D01*
X7292920Y-15654484D02*
X7311968Y-15664008D01*
X7311968Y-15664008D02*
X7321491Y-15673531D01*
X7321491Y-15673531D02*
X7331015Y-15692579D01*
X7331015Y-15692579D02*
X7331015Y-15711627D01*
X7331015Y-15711627D02*
X7321491Y-15740198D01*
X7321491Y-15740198D02*
X7207206Y-15854484D01*
X7207206Y-15854484D02*
X7331015Y-15854484D01*
X7521491Y-15854484D02*
X7407206Y-15854484D01*
X7464348Y-15854484D02*
X7464348Y-15654484D01*
X7464348Y-15654484D02*
X7445301Y-15683055D01*
X7445301Y-15683055D02*
X7426253Y-15702103D01*
X7426253Y-15702103D02*
X7407206Y-15711627D01*
X7597682Y-15673531D02*
X7607206Y-15664008D01*
X7607206Y-15664008D02*
X7626253Y-15654484D01*
X7626253Y-15654484D02*
X7673872Y-15654484D01*
X7673872Y-15654484D02*
X7692920Y-15664008D01*
X7692920Y-15664008D02*
X7702444Y-15673531D01*
X7702444Y-15673531D02*
X7711968Y-15692579D01*
X7711968Y-15692579D02*
X7711968Y-15711627D01*
X7711968Y-15711627D02*
X7702444Y-15740198D01*
X7702444Y-15740198D02*
X7588158Y-15854484D01*
X7588158Y-15854484D02*
X7711968Y-15854484D01*
X7950063Y-15854484D02*
X7950063Y-15654484D01*
X8035777Y-15854484D02*
X8035777Y-15749722D01*
X8035777Y-15749722D02*
X8026253Y-15730674D01*
X8026253Y-15730674D02*
X8007206Y-15721150D01*
X8007206Y-15721150D02*
X7978634Y-15721150D01*
X7978634Y-15721150D02*
X7959587Y-15730674D01*
X7959587Y-15730674D02*
X7950063Y-15740198D01*
X8159587Y-15854484D02*
X8140539Y-15844960D01*
X8140539Y-15844960D02*
X8131015Y-15835436D01*
X8131015Y-15835436D02*
X8121491Y-15816388D01*
X8121491Y-15816388D02*
X8121491Y-15759246D01*
X8121491Y-15759246D02*
X8131015Y-15740198D01*
X8131015Y-15740198D02*
X8140539Y-15730674D01*
X8140539Y-15730674D02*
X8159587Y-15721150D01*
X8159587Y-15721150D02*
X8188158Y-15721150D01*
X8188158Y-15721150D02*
X8207206Y-15730674D01*
X8207206Y-15730674D02*
X8216730Y-15740198D01*
X8216730Y-15740198D02*
X8226253Y-15759246D01*
X8226253Y-15759246D02*
X8226253Y-15816388D01*
X8226253Y-15816388D02*
X8216730Y-15835436D01*
X8216730Y-15835436D02*
X8207206Y-15844960D01*
X8207206Y-15844960D02*
X8188158Y-15854484D01*
X8188158Y-15854484D02*
X8159587Y-15854484D01*
X8340539Y-15854484D02*
X8321491Y-15844960D01*
X8321491Y-15844960D02*
X8311968Y-15825912D01*
X8311968Y-15825912D02*
X8311968Y-15654484D01*
X8492920Y-15844960D02*
X8473873Y-15854484D01*
X8473873Y-15854484D02*
X8435777Y-15854484D01*
X8435777Y-15854484D02*
X8416730Y-15844960D01*
X8416730Y-15844960D02*
X8407206Y-15825912D01*
X8407206Y-15825912D02*
X8407206Y-15749722D01*
X8407206Y-15749722D02*
X8416730Y-15730674D01*
X8416730Y-15730674D02*
X8435777Y-15721150D01*
X8435777Y-15721150D02*
X8473873Y-15721150D01*
X8473873Y-15721150D02*
X8492920Y-15730674D01*
X8492920Y-15730674D02*
X8502444Y-15749722D01*
X8502444Y-15749722D02*
X8502444Y-15768769D01*
X8502444Y-15768769D02*
X8407206Y-15787817D01*
X8578634Y-15844960D02*
X8597682Y-15854484D01*
X8597682Y-15854484D02*
X8635777Y-15854484D01*
X8635777Y-15854484D02*
X8654825Y-15844960D01*
X8654825Y-15844960D02*
X8664349Y-15825912D01*
X8664349Y-15825912D02*
X8664349Y-15816388D01*
X8664349Y-15816388D02*
X8654825Y-15797341D01*
X8654825Y-15797341D02*
X8635777Y-15787817D01*
X8635777Y-15787817D02*
X8607206Y-15787817D01*
X8607206Y-15787817D02*
X8588158Y-15778293D01*
X8588158Y-15778293D02*
X8578634Y-15759246D01*
X8578634Y-15759246D02*
X8578634Y-15749722D01*
X8578634Y-15749722D02*
X8588158Y-15730674D01*
X8588158Y-15730674D02*
X8607206Y-15721150D01*
X8607206Y-15721150D02*
X8635777Y-15721150D01*
X8635777Y-15721150D02*
X8654825Y-15730674D01*
X8731015Y-15930674D02*
X8740539Y-15921150D01*
X8740539Y-15921150D02*
X8759587Y-15892579D01*
X8759587Y-15892579D02*
X8769111Y-15873531D01*
X8769111Y-15873531D02*
X8778634Y-15844960D01*
X8778634Y-15844960D02*
X8788158Y-15797341D01*
X8788158Y-15797341D02*
X8788158Y-15759246D01*
X8788158Y-15759246D02*
X8778634Y-15711627D01*
X8778634Y-15711627D02*
X8769111Y-15683055D01*
X8769111Y-15683055D02*
X8759587Y-15664008D01*
X8759587Y-15664008D02*
X8740539Y-15635436D01*
X8740539Y-15635436D02*
X8731015Y-15625912D01*
D10*
X3561820Y-16058820D02*
X3561820Y-15995180D01*
X3498180Y-15995180D01*
X3498180Y-16058820D01*
X3561820Y-16058820D01*
D11*
X3873872Y-15918484D02*
X3892920Y-15918484D01*
X3892920Y-15918484D02*
X3911967Y-15928008D01*
X3911967Y-15928008D02*
X3921491Y-15937531D01*
X3921491Y-15937531D02*
X3931015Y-15956579D01*
X3931015Y-15956579D02*
X3940539Y-15994674D01*
X3940539Y-15994674D02*
X3940539Y-16042293D01*
X3940539Y-16042293D02*
X3931015Y-16080388D01*
X3931015Y-16080388D02*
X3921491Y-16099436D01*
X3921491Y-16099436D02*
X3911967Y-16108960D01*
X3911967Y-16108960D02*
X3892920Y-16118484D01*
X3892920Y-16118484D02*
X3873872Y-16118484D01*
X3873872Y-16118484D02*
X3854824Y-16108960D01*
X3854824Y-16108960D02*
X3845301Y-16099436D01*
X3845301Y-16099436D02*
X3835777Y-16080388D01*
X3835777Y-16080388D02*
X3826253Y-16042293D01*
X3826253Y-16042293D02*
X3826253Y-15994674D01*
X3826253Y-15994674D02*
X3835777Y-15956579D01*
X3835777Y-15956579D02*
X3845301Y-15937531D01*
X3845301Y-15937531D02*
X3854824Y-15928008D01*
X3854824Y-15928008D02*
X3873872Y-15918484D01*
X4026253Y-16099436D02*
X4035777Y-16108960D01*
X4035777Y-16108960D02*
X4026253Y-16118484D01*
X4026253Y-16118484D02*
X4016729Y-16108960D01*
X4016729Y-16108960D02*
X4026253Y-16099436D01*
X4026253Y-16099436D02*
X4026253Y-16118484D01*
X4131015Y-16118484D02*
X4169110Y-16118484D01*
X4169110Y-16118484D02*
X4188158Y-16108960D01*
X4188158Y-16108960D02*
X4197682Y-16099436D01*
X4197682Y-16099436D02*
X4216729Y-16070865D01*
X4216729Y-16070865D02*
X4226253Y-16032769D01*
X4226253Y-16032769D02*
X4226253Y-15956579D01*
X4226253Y-15956579D02*
X4216729Y-15937531D01*
X4216729Y-15937531D02*
X4207205Y-15928008D01*
X4207205Y-15928008D02*
X4188158Y-15918484D01*
X4188158Y-15918484D02*
X4150062Y-15918484D01*
X4150062Y-15918484D02*
X4131015Y-15928008D01*
X4131015Y-15928008D02*
X4121491Y-15937531D01*
X4121491Y-15937531D02*
X4111967Y-15956579D01*
X4111967Y-15956579D02*
X4111967Y-16004198D01*
X4111967Y-16004198D02*
X4121491Y-16023246D01*
X4121491Y-16023246D02*
X4131015Y-16032769D01*
X4131015Y-16032769D02*
X4150062Y-16042293D01*
X4150062Y-16042293D02*
X4188158Y-16042293D01*
X4188158Y-16042293D02*
X4207205Y-16032769D01*
X4207205Y-16032769D02*
X4216729Y-16023246D01*
X4216729Y-16023246D02*
X4226253Y-16004198D01*
X4350063Y-15918484D02*
X4369110Y-15918484D01*
X4369110Y-15918484D02*
X4388158Y-15928008D01*
X4388158Y-15928008D02*
X4397682Y-15937531D01*
X4397682Y-15937531D02*
X4407205Y-15956579D01*
X4407205Y-15956579D02*
X4416729Y-15994674D01*
X4416729Y-15994674D02*
X4416729Y-16042293D01*
X4416729Y-16042293D02*
X4407205Y-16080388D01*
X4407205Y-16080388D02*
X4397682Y-16099436D01*
X4397682Y-16099436D02*
X4388158Y-16108960D01*
X4388158Y-16108960D02*
X4369110Y-16118484D01*
X4369110Y-16118484D02*
X4350063Y-16118484D01*
X4350063Y-16118484D02*
X4331015Y-16108960D01*
X4331015Y-16108960D02*
X4321491Y-16099436D01*
X4321491Y-16099436D02*
X4311967Y-16080388D01*
X4311967Y-16080388D02*
X4302444Y-16042293D01*
X4302444Y-16042293D02*
X4302444Y-15994674D01*
X4302444Y-15994674D02*
X4311967Y-15956579D01*
X4311967Y-15956579D02*
X4321491Y-15937531D01*
X4321491Y-15937531D02*
X4331015Y-15928008D01*
X4331015Y-15928008D02*
X4350063Y-15918484D01*
X4540539Y-15918484D02*
X4559586Y-15918484D01*
X4559586Y-15918484D02*
X4578634Y-15928008D01*
X4578634Y-15928008D02*
X4588158Y-15937531D01*
X4588158Y-15937531D02*
X4597682Y-15956579D01*
X4597682Y-15956579D02*
X4607205Y-15994674D01*
X4607205Y-15994674D02*
X4607205Y-16042293D01*
X4607205Y-16042293D02*
X4597682Y-16080388D01*
X4597682Y-16080388D02*
X4588158Y-16099436D01*
X4588158Y-16099436D02*
X4578634Y-16108960D01*
X4578634Y-16108960D02*
X4559586Y-16118484D01*
X4559586Y-16118484D02*
X4540539Y-16118484D01*
X4540539Y-16118484D02*
X4521491Y-16108960D01*
X4521491Y-16108960D02*
X4511967Y-16099436D01*
X4511967Y-16099436D02*
X4502444Y-16080388D01*
X4502444Y-16080388D02*
X4492920Y-16042293D01*
X4492920Y-16042293D02*
X4492920Y-15994674D01*
X4492920Y-15994674D02*
X4502444Y-15956579D01*
X4502444Y-15956579D02*
X4511967Y-15937531D01*
X4511967Y-15937531D02*
X4521491Y-15928008D01*
X4521491Y-15928008D02*
X4540539Y-15918484D01*
X4692920Y-16118484D02*
X4692920Y-15985150D01*
X4692920Y-16004198D02*
X4702444Y-15994674D01*
X4702444Y-15994674D02*
X4721491Y-15985150D01*
X4721491Y-15985150D02*
X4750063Y-15985150D01*
X4750063Y-15985150D02*
X4769110Y-15994674D01*
X4769110Y-15994674D02*
X4778634Y-16013722D01*
X4778634Y-16013722D02*
X4778634Y-16118484D01*
X4778634Y-16013722D02*
X4788158Y-15994674D01*
X4788158Y-15994674D02*
X4807205Y-15985150D01*
X4807205Y-15985150D02*
X4835777Y-15985150D01*
X4835777Y-15985150D02*
X4854825Y-15994674D01*
X4854825Y-15994674D02*
X4864348Y-16013722D01*
X4864348Y-16013722D02*
X4864348Y-16118484D01*
X4959586Y-16118484D02*
X4959586Y-15985150D01*
X4959586Y-16004198D02*
X4969110Y-15994674D01*
X4969110Y-15994674D02*
X4988158Y-15985150D01*
X4988158Y-15985150D02*
X5016729Y-15985150D01*
X5016729Y-15985150D02*
X5035777Y-15994674D01*
X5035777Y-15994674D02*
X5045301Y-16013722D01*
X5045301Y-16013722D02*
X5045301Y-16118484D01*
X5045301Y-16013722D02*
X5054825Y-15994674D01*
X5054825Y-15994674D02*
X5073872Y-15985150D01*
X5073872Y-15985150D02*
X5102444Y-15985150D01*
X5102444Y-15985150D02*
X5121491Y-15994674D01*
X5121491Y-15994674D02*
X5131015Y-16013722D01*
X5131015Y-16013722D02*
X5131015Y-16118484D01*
X5521491Y-15908960D02*
X5350063Y-16166103D01*
X5778634Y-15918484D02*
X5797682Y-15918484D01*
X5797682Y-15918484D02*
X5816729Y-15928008D01*
X5816729Y-15928008D02*
X5826253Y-15937531D01*
X5826253Y-15937531D02*
X5835777Y-15956579D01*
X5835777Y-15956579D02*
X5845301Y-15994674D01*
X5845301Y-15994674D02*
X5845301Y-16042293D01*
X5845301Y-16042293D02*
X5835777Y-16080388D01*
X5835777Y-16080388D02*
X5826253Y-16099436D01*
X5826253Y-16099436D02*
X5816729Y-16108960D01*
X5816729Y-16108960D02*
X5797682Y-16118484D01*
X5797682Y-16118484D02*
X5778634Y-16118484D01*
X5778634Y-16118484D02*
X5759586Y-16108960D01*
X5759586Y-16108960D02*
X5750063Y-16099436D01*
X5750063Y-16099436D02*
X5740539Y-16080388D01*
X5740539Y-16080388D02*
X5731015Y-16042293D01*
X5731015Y-16042293D02*
X5731015Y-15994674D01*
X5731015Y-15994674D02*
X5740539Y-15956579D01*
X5740539Y-15956579D02*
X5750063Y-15937531D01*
X5750063Y-15937531D02*
X5759586Y-15928008D01*
X5759586Y-15928008D02*
X5778634Y-15918484D01*
X5931015Y-16099436D02*
X5940539Y-16108960D01*
X5940539Y-16108960D02*
X5931015Y-16118484D01*
X5931015Y-16118484D02*
X5921491Y-16108960D01*
X5921491Y-16108960D02*
X5931015Y-16099436D01*
X5931015Y-16099436D02*
X5931015Y-16118484D01*
X6064348Y-15918484D02*
X6083396Y-15918484D01*
X6083396Y-15918484D02*
X6102444Y-15928008D01*
X6102444Y-15928008D02*
X6111967Y-15937531D01*
X6111967Y-15937531D02*
X6121491Y-15956579D01*
X6121491Y-15956579D02*
X6131015Y-15994674D01*
X6131015Y-15994674D02*
X6131015Y-16042293D01*
X6131015Y-16042293D02*
X6121491Y-16080388D01*
X6121491Y-16080388D02*
X6111967Y-16099436D01*
X6111967Y-16099436D02*
X6102444Y-16108960D01*
X6102444Y-16108960D02*
X6083396Y-16118484D01*
X6083396Y-16118484D02*
X6064348Y-16118484D01*
X6064348Y-16118484D02*
X6045301Y-16108960D01*
X6045301Y-16108960D02*
X6035777Y-16099436D01*
X6035777Y-16099436D02*
X6026253Y-16080388D01*
X6026253Y-16080388D02*
X6016729Y-16042293D01*
X6016729Y-16042293D02*
X6016729Y-15994674D01*
X6016729Y-15994674D02*
X6026253Y-15956579D01*
X6026253Y-15956579D02*
X6035777Y-15937531D01*
X6035777Y-15937531D02*
X6045301Y-15928008D01*
X6045301Y-15928008D02*
X6064348Y-15918484D01*
X6197682Y-15918484D02*
X6321491Y-15918484D01*
X6321491Y-15918484D02*
X6254825Y-15994674D01*
X6254825Y-15994674D02*
X6283396Y-15994674D01*
X6283396Y-15994674D02*
X6302444Y-16004198D01*
X6302444Y-16004198D02*
X6311967Y-16013722D01*
X6311967Y-16013722D02*
X6321491Y-16032769D01*
X6321491Y-16032769D02*
X6321491Y-16080388D01*
X6321491Y-16080388D02*
X6311967Y-16099436D01*
X6311967Y-16099436D02*
X6302444Y-16108960D01*
X6302444Y-16108960D02*
X6283396Y-16118484D01*
X6283396Y-16118484D02*
X6226253Y-16118484D01*
X6226253Y-16118484D02*
X6207206Y-16108960D01*
X6207206Y-16108960D02*
X6197682Y-16099436D01*
X6502444Y-15918484D02*
X6407206Y-15918484D01*
X6407206Y-15918484D02*
X6397682Y-16013722D01*
X6397682Y-16013722D02*
X6407206Y-16004198D01*
X6407206Y-16004198D02*
X6426253Y-15994674D01*
X6426253Y-15994674D02*
X6473872Y-15994674D01*
X6473872Y-15994674D02*
X6492920Y-16004198D01*
X6492920Y-16004198D02*
X6502444Y-16013722D01*
X6502444Y-16013722D02*
X6511967Y-16032769D01*
X6511967Y-16032769D02*
X6511967Y-16080388D01*
X6511967Y-16080388D02*
X6502444Y-16099436D01*
X6502444Y-16099436D02*
X6492920Y-16108960D01*
X6492920Y-16108960D02*
X6473872Y-16118484D01*
X6473872Y-16118484D02*
X6426253Y-16118484D01*
X6426253Y-16118484D02*
X6407206Y-16108960D01*
X6407206Y-16108960D02*
X6397682Y-16099436D01*
X6683396Y-15985150D02*
X6683396Y-16118484D01*
X6635777Y-15908960D02*
X6588158Y-16051817D01*
X6588158Y-16051817D02*
X6711967Y-16051817D01*
X6778634Y-15918484D02*
X6778634Y-15956579D01*
X6854825Y-15918484D02*
X6854825Y-15956579D01*
X7150063Y-16194674D02*
X7140539Y-16185150D01*
X7140539Y-16185150D02*
X7121491Y-16156579D01*
X7121491Y-16156579D02*
X7111968Y-16137531D01*
X7111968Y-16137531D02*
X7102444Y-16108960D01*
X7102444Y-16108960D02*
X7092920Y-16061341D01*
X7092920Y-16061341D02*
X7092920Y-16023246D01*
X7092920Y-16023246D02*
X7102444Y-15975627D01*
X7102444Y-15975627D02*
X7111968Y-15947055D01*
X7111968Y-15947055D02*
X7121491Y-15928008D01*
X7121491Y-15928008D02*
X7140539Y-15899436D01*
X7140539Y-15899436D02*
X7150063Y-15889912D01*
X7264348Y-15918484D02*
X7283396Y-15918484D01*
X7283396Y-15918484D02*
X7302444Y-15928008D01*
X7302444Y-15928008D02*
X7311968Y-15937531D01*
X7311968Y-15937531D02*
X7321491Y-15956579D01*
X7321491Y-15956579D02*
X7331015Y-15994674D01*
X7331015Y-15994674D02*
X7331015Y-16042293D01*
X7331015Y-16042293D02*
X7321491Y-16080388D01*
X7321491Y-16080388D02*
X7311968Y-16099436D01*
X7311968Y-16099436D02*
X7302444Y-16108960D01*
X7302444Y-16108960D02*
X7283396Y-16118484D01*
X7283396Y-16118484D02*
X7264348Y-16118484D01*
X7264348Y-16118484D02*
X7245301Y-16108960D01*
X7245301Y-16108960D02*
X7235777Y-16099436D01*
X7235777Y-16099436D02*
X7226253Y-16080388D01*
X7226253Y-16080388D02*
X7216729Y-16042293D01*
X7216729Y-16042293D02*
X7216729Y-15994674D01*
X7216729Y-15994674D02*
X7226253Y-15956579D01*
X7226253Y-15956579D02*
X7235777Y-15937531D01*
X7235777Y-15937531D02*
X7245301Y-15928008D01*
X7245301Y-15928008D02*
X7264348Y-15918484D01*
X7569110Y-16118484D02*
X7569110Y-15918484D01*
X7654825Y-16118484D02*
X7654825Y-16013722D01*
X7654825Y-16013722D02*
X7645301Y-15994674D01*
X7645301Y-15994674D02*
X7626253Y-15985150D01*
X7626253Y-15985150D02*
X7597682Y-15985150D01*
X7597682Y-15985150D02*
X7578634Y-15994674D01*
X7578634Y-15994674D02*
X7569110Y-16004198D01*
X7778634Y-16118484D02*
X7759587Y-16108960D01*
X7759587Y-16108960D02*
X7750063Y-16099436D01*
X7750063Y-16099436D02*
X7740539Y-16080388D01*
X7740539Y-16080388D02*
X7740539Y-16023246D01*
X7740539Y-16023246D02*
X7750063Y-16004198D01*
X7750063Y-16004198D02*
X7759587Y-15994674D01*
X7759587Y-15994674D02*
X7778634Y-15985150D01*
X7778634Y-15985150D02*
X7807206Y-15985150D01*
X7807206Y-15985150D02*
X7826253Y-15994674D01*
X7826253Y-15994674D02*
X7835777Y-16004198D01*
X7835777Y-16004198D02*
X7845301Y-16023246D01*
X7845301Y-16023246D02*
X7845301Y-16080388D01*
X7845301Y-16080388D02*
X7835777Y-16099436D01*
X7835777Y-16099436D02*
X7826253Y-16108960D01*
X7826253Y-16108960D02*
X7807206Y-16118484D01*
X7807206Y-16118484D02*
X7778634Y-16118484D01*
X7959587Y-16118484D02*
X7940539Y-16108960D01*
X7940539Y-16108960D02*
X7931015Y-16089912D01*
X7931015Y-16089912D02*
X7931015Y-15918484D01*
X8111968Y-16108960D02*
X8092920Y-16118484D01*
X8092920Y-16118484D02*
X8054825Y-16118484D01*
X8054825Y-16118484D02*
X8035777Y-16108960D01*
X8035777Y-16108960D02*
X8026253Y-16089912D01*
X8026253Y-16089912D02*
X8026253Y-16013722D01*
X8026253Y-16013722D02*
X8035777Y-15994674D01*
X8035777Y-15994674D02*
X8054825Y-15985150D01*
X8054825Y-15985150D02*
X8092920Y-15985150D01*
X8092920Y-15985150D02*
X8111968Y-15994674D01*
X8111968Y-15994674D02*
X8121491Y-16013722D01*
X8121491Y-16013722D02*
X8121491Y-16032769D01*
X8121491Y-16032769D02*
X8026253Y-16051817D01*
X8197682Y-16108960D02*
X8216730Y-16118484D01*
X8216730Y-16118484D02*
X8254825Y-16118484D01*
X8254825Y-16118484D02*
X8273872Y-16108960D01*
X8273872Y-16108960D02*
X8283396Y-16089912D01*
X8283396Y-16089912D02*
X8283396Y-16080388D01*
X8283396Y-16080388D02*
X8273872Y-16061341D01*
X8273872Y-16061341D02*
X8254825Y-16051817D01*
X8254825Y-16051817D02*
X8226253Y-16051817D01*
X8226253Y-16051817D02*
X8207206Y-16042293D01*
X8207206Y-16042293D02*
X8197682Y-16023246D01*
X8197682Y-16023246D02*
X8197682Y-16013722D01*
X8197682Y-16013722D02*
X8207206Y-15994674D01*
X8207206Y-15994674D02*
X8226253Y-15985150D01*
X8226253Y-15985150D02*
X8254825Y-15985150D01*
X8254825Y-15985150D02*
X8273872Y-15994674D01*
X8521492Y-16042293D02*
X8673873Y-16042293D01*
X8597682Y-16118484D02*
X8597682Y-15966103D01*
X8911968Y-15937531D02*
X8921492Y-15928008D01*
X8921492Y-15928008D02*
X8940539Y-15918484D01*
X8940539Y-15918484D02*
X8988158Y-15918484D01*
X8988158Y-15918484D02*
X9007206Y-15928008D01*
X9007206Y-15928008D02*
X9016730Y-15937531D01*
X9016730Y-15937531D02*
X9026254Y-15956579D01*
X9026254Y-15956579D02*
X9026254Y-15975627D01*
X9026254Y-15975627D02*
X9016730Y-16004198D01*
X9016730Y-16004198D02*
X8902444Y-16118484D01*
X8902444Y-16118484D02*
X9026254Y-16118484D01*
X9254825Y-16108960D02*
X9273873Y-16118484D01*
X9273873Y-16118484D02*
X9311968Y-16118484D01*
X9311968Y-16118484D02*
X9331016Y-16108960D01*
X9331016Y-16108960D02*
X9340539Y-16089912D01*
X9340539Y-16089912D02*
X9340539Y-16080388D01*
X9340539Y-16080388D02*
X9331016Y-16061341D01*
X9331016Y-16061341D02*
X9311968Y-16051817D01*
X9311968Y-16051817D02*
X9283396Y-16051817D01*
X9283396Y-16051817D02*
X9264349Y-16042293D01*
X9264349Y-16042293D02*
X9254825Y-16023246D01*
X9254825Y-16023246D02*
X9254825Y-16013722D01*
X9254825Y-16013722D02*
X9264349Y-15994674D01*
X9264349Y-15994674D02*
X9283396Y-15985150D01*
X9283396Y-15985150D02*
X9311968Y-15985150D01*
X9311968Y-15985150D02*
X9331016Y-15994674D01*
X9454825Y-16118484D02*
X9435777Y-16108960D01*
X9435777Y-16108960D02*
X9426254Y-16089912D01*
X9426254Y-16089912D02*
X9426254Y-15918484D01*
X9559587Y-16118484D02*
X9540539Y-16108960D01*
X9540539Y-16108960D02*
X9531016Y-16099436D01*
X9531016Y-16099436D02*
X9521492Y-16080388D01*
X9521492Y-16080388D02*
X9521492Y-16023246D01*
X9521492Y-16023246D02*
X9531016Y-16004198D01*
X9531016Y-16004198D02*
X9540539Y-15994674D01*
X9540539Y-15994674D02*
X9559587Y-15985150D01*
X9559587Y-15985150D02*
X9588158Y-15985150D01*
X9588158Y-15985150D02*
X9607206Y-15994674D01*
X9607206Y-15994674D02*
X9616730Y-16004198D01*
X9616730Y-16004198D02*
X9626254Y-16023246D01*
X9626254Y-16023246D02*
X9626254Y-16080388D01*
X9626254Y-16080388D02*
X9616730Y-16099436D01*
X9616730Y-16099436D02*
X9607206Y-16108960D01*
X9607206Y-16108960D02*
X9588158Y-16118484D01*
X9588158Y-16118484D02*
X9559587Y-16118484D01*
X9683397Y-15985150D02*
X9759587Y-15985150D01*
X9711968Y-15918484D02*
X9711968Y-16089912D01*
X9711968Y-16089912D02*
X9721492Y-16108960D01*
X9721492Y-16108960D02*
X9740539Y-16118484D01*
X9740539Y-16118484D02*
X9759587Y-16118484D01*
X9816730Y-16108960D02*
X9835777Y-16118484D01*
X9835777Y-16118484D02*
X9873873Y-16118484D01*
X9873873Y-16118484D02*
X9892920Y-16108960D01*
X9892920Y-16108960D02*
X9902444Y-16089912D01*
X9902444Y-16089912D02*
X9902444Y-16080388D01*
X9902444Y-16080388D02*
X9892920Y-16061341D01*
X9892920Y-16061341D02*
X9873873Y-16051817D01*
X9873873Y-16051817D02*
X9845301Y-16051817D01*
X9845301Y-16051817D02*
X9826254Y-16042293D01*
X9826254Y-16042293D02*
X9816730Y-16023246D01*
X9816730Y-16023246D02*
X9816730Y-16013722D01*
X9816730Y-16013722D02*
X9826254Y-15994674D01*
X9826254Y-15994674D02*
X9845301Y-15985150D01*
X9845301Y-15985150D02*
X9873873Y-15985150D01*
X9873873Y-15985150D02*
X9892920Y-15994674D01*
X9969111Y-16194674D02*
X9978635Y-16185150D01*
X9978635Y-16185150D02*
X9997682Y-16156579D01*
X9997682Y-16156579D02*
X10007206Y-16137531D01*
X10007206Y-16137531D02*
X10016730Y-16108960D01*
X10016730Y-16108960D02*
X10026254Y-16061341D01*
X10026254Y-16061341D02*
X10026254Y-16023246D01*
X10026254Y-16023246D02*
X10016730Y-15975627D01*
X10016730Y-15975627D02*
X10007206Y-15947055D01*
X10007206Y-15947055D02*
X9997682Y-15928008D01*
X9997682Y-15928008D02*
X9978635Y-15899436D01*
X9978635Y-15899436D02*
X9969111Y-15889912D01*
D12*
X3520000Y-16346000D02*
X3575000Y-16291000D01*
X3520000Y-16236000D01*
X3465000Y-16291000D01*
X3520000Y-16346000D01*
D11*
X3940539Y-16382484D02*
X3826253Y-16382484D01*
X3883396Y-16382484D02*
X3883396Y-16182484D01*
X3883396Y-16182484D02*
X3864348Y-16211055D01*
X3864348Y-16211055D02*
X3845301Y-16230103D01*
X3845301Y-16230103D02*
X3826253Y-16239627D01*
X4026253Y-16363436D02*
X4035777Y-16372960D01*
X4035777Y-16372960D02*
X4026253Y-16382484D01*
X4026253Y-16382484D02*
X4016729Y-16372960D01*
X4016729Y-16372960D02*
X4026253Y-16363436D01*
X4026253Y-16363436D02*
X4026253Y-16382484D01*
X4226253Y-16382484D02*
X4111967Y-16382484D01*
X4169110Y-16382484D02*
X4169110Y-16182484D01*
X4169110Y-16182484D02*
X4150062Y-16211055D01*
X4150062Y-16211055D02*
X4131015Y-16230103D01*
X4131015Y-16230103D02*
X4111967Y-16239627D01*
X4350063Y-16182484D02*
X4369110Y-16182484D01*
X4369110Y-16182484D02*
X4388158Y-16192008D01*
X4388158Y-16192008D02*
X4397682Y-16201531D01*
X4397682Y-16201531D02*
X4407205Y-16220579D01*
X4407205Y-16220579D02*
X4416729Y-16258674D01*
X4416729Y-16258674D02*
X4416729Y-16306293D01*
X4416729Y-16306293D02*
X4407205Y-16344388D01*
X4407205Y-16344388D02*
X4397682Y-16363436D01*
X4397682Y-16363436D02*
X4388158Y-16372960D01*
X4388158Y-16372960D02*
X4369110Y-16382484D01*
X4369110Y-16382484D02*
X4350063Y-16382484D01*
X4350063Y-16382484D02*
X4331015Y-16372960D01*
X4331015Y-16372960D02*
X4321491Y-16363436D01*
X4321491Y-16363436D02*
X4311967Y-16344388D01*
X4311967Y-16344388D02*
X4302444Y-16306293D01*
X4302444Y-16306293D02*
X4302444Y-16258674D01*
X4302444Y-16258674D02*
X4311967Y-16220579D01*
X4311967Y-16220579D02*
X4321491Y-16201531D01*
X4321491Y-16201531D02*
X4331015Y-16192008D01*
X4331015Y-16192008D02*
X4350063Y-16182484D01*
X4540539Y-16182484D02*
X4559586Y-16182484D01*
X4559586Y-16182484D02*
X4578634Y-16192008D01*
X4578634Y-16192008D02*
X4588158Y-16201531D01*
X4588158Y-16201531D02*
X4597682Y-16220579D01*
X4597682Y-16220579D02*
X4607205Y-16258674D01*
X4607205Y-16258674D02*
X4607205Y-16306293D01*
X4607205Y-16306293D02*
X4597682Y-16344388D01*
X4597682Y-16344388D02*
X4588158Y-16363436D01*
X4588158Y-16363436D02*
X4578634Y-16372960D01*
X4578634Y-16372960D02*
X4559586Y-16382484D01*
X4559586Y-16382484D02*
X4540539Y-16382484D01*
X4540539Y-16382484D02*
X4521491Y-16372960D01*
X4521491Y-16372960D02*
X4511967Y-16363436D01*
X4511967Y-16363436D02*
X4502444Y-16344388D01*
X4502444Y-16344388D02*
X4492920Y-16306293D01*
X4492920Y-16306293D02*
X4492920Y-16258674D01*
X4492920Y-16258674D02*
X4502444Y-16220579D01*
X4502444Y-16220579D02*
X4511967Y-16201531D01*
X4511967Y-16201531D02*
X4521491Y-16192008D01*
X4521491Y-16192008D02*
X4540539Y-16182484D01*
X4692920Y-16382484D02*
X4692920Y-16249150D01*
X4692920Y-16268198D02*
X4702444Y-16258674D01*
X4702444Y-16258674D02*
X4721491Y-16249150D01*
X4721491Y-16249150D02*
X4750063Y-16249150D01*
X4750063Y-16249150D02*
X4769110Y-16258674D01*
X4769110Y-16258674D02*
X4778634Y-16277722D01*
X4778634Y-16277722D02*
X4778634Y-16382484D01*
X4778634Y-16277722D02*
X4788158Y-16258674D01*
X4788158Y-16258674D02*
X4807205Y-16249150D01*
X4807205Y-16249150D02*
X4835777Y-16249150D01*
X4835777Y-16249150D02*
X4854825Y-16258674D01*
X4854825Y-16258674D02*
X4864348Y-16277722D01*
X4864348Y-16277722D02*
X4864348Y-16382484D01*
X4959586Y-16382484D02*
X4959586Y-16249150D01*
X4959586Y-16268198D02*
X4969110Y-16258674D01*
X4969110Y-16258674D02*
X4988158Y-16249150D01*
X4988158Y-16249150D02*
X5016729Y-16249150D01*
X5016729Y-16249150D02*
X5035777Y-16258674D01*
X5035777Y-16258674D02*
X5045301Y-16277722D01*
X5045301Y-16277722D02*
X5045301Y-16382484D01*
X5045301Y-16277722D02*
X5054825Y-16258674D01*
X5054825Y-16258674D02*
X5073872Y-16249150D01*
X5073872Y-16249150D02*
X5102444Y-16249150D01*
X5102444Y-16249150D02*
X5121491Y-16258674D01*
X5121491Y-16258674D02*
X5131015Y-16277722D01*
X5131015Y-16277722D02*
X5131015Y-16382484D01*
X5521491Y-16172960D02*
X5350063Y-16430103D01*
X5778634Y-16182484D02*
X5797682Y-16182484D01*
X5797682Y-16182484D02*
X5816729Y-16192008D01*
X5816729Y-16192008D02*
X5826253Y-16201531D01*
X5826253Y-16201531D02*
X5835777Y-16220579D01*
X5835777Y-16220579D02*
X5845301Y-16258674D01*
X5845301Y-16258674D02*
X5845301Y-16306293D01*
X5845301Y-16306293D02*
X5835777Y-16344388D01*
X5835777Y-16344388D02*
X5826253Y-16363436D01*
X5826253Y-16363436D02*
X5816729Y-16372960D01*
X5816729Y-16372960D02*
X5797682Y-16382484D01*
X5797682Y-16382484D02*
X5778634Y-16382484D01*
X5778634Y-16382484D02*
X5759586Y-16372960D01*
X5759586Y-16372960D02*
X5750063Y-16363436D01*
X5750063Y-16363436D02*
X5740539Y-16344388D01*
X5740539Y-16344388D02*
X5731015Y-16306293D01*
X5731015Y-16306293D02*
X5731015Y-16258674D01*
X5731015Y-16258674D02*
X5740539Y-16220579D01*
X5740539Y-16220579D02*
X5750063Y-16201531D01*
X5750063Y-16201531D02*
X5759586Y-16192008D01*
X5759586Y-16192008D02*
X5778634Y-16182484D01*
X5931015Y-16363436D02*
X5940539Y-16372960D01*
X5940539Y-16372960D02*
X5931015Y-16382484D01*
X5931015Y-16382484D02*
X5921491Y-16372960D01*
X5921491Y-16372960D02*
X5931015Y-16363436D01*
X5931015Y-16363436D02*
X5931015Y-16382484D01*
X6064348Y-16182484D02*
X6083396Y-16182484D01*
X6083396Y-16182484D02*
X6102444Y-16192008D01*
X6102444Y-16192008D02*
X6111967Y-16201531D01*
X6111967Y-16201531D02*
X6121491Y-16220579D01*
X6121491Y-16220579D02*
X6131015Y-16258674D01*
X6131015Y-16258674D02*
X6131015Y-16306293D01*
X6131015Y-16306293D02*
X6121491Y-16344388D01*
X6121491Y-16344388D02*
X6111967Y-16363436D01*
X6111967Y-16363436D02*
X6102444Y-16372960D01*
X6102444Y-16372960D02*
X6083396Y-16382484D01*
X6083396Y-16382484D02*
X6064348Y-16382484D01*
X6064348Y-16382484D02*
X6045301Y-16372960D01*
X6045301Y-16372960D02*
X6035777Y-16363436D01*
X6035777Y-16363436D02*
X6026253Y-16344388D01*
X6026253Y-16344388D02*
X6016729Y-16306293D01*
X6016729Y-16306293D02*
X6016729Y-16258674D01*
X6016729Y-16258674D02*
X6026253Y-16220579D01*
X6026253Y-16220579D02*
X6035777Y-16201531D01*
X6035777Y-16201531D02*
X6045301Y-16192008D01*
X6045301Y-16192008D02*
X6064348Y-16182484D01*
X6302444Y-16249150D02*
X6302444Y-16382484D01*
X6254825Y-16172960D02*
X6207206Y-16315817D01*
X6207206Y-16315817D02*
X6331015Y-16315817D01*
X6388158Y-16182484D02*
X6511967Y-16182484D01*
X6511967Y-16182484D02*
X6445301Y-16258674D01*
X6445301Y-16258674D02*
X6473872Y-16258674D01*
X6473872Y-16258674D02*
X6492920Y-16268198D01*
X6492920Y-16268198D02*
X6502444Y-16277722D01*
X6502444Y-16277722D02*
X6511967Y-16296769D01*
X6511967Y-16296769D02*
X6511967Y-16344388D01*
X6511967Y-16344388D02*
X6502444Y-16363436D01*
X6502444Y-16363436D02*
X6492920Y-16372960D01*
X6492920Y-16372960D02*
X6473872Y-16382484D01*
X6473872Y-16382484D02*
X6416729Y-16382484D01*
X6416729Y-16382484D02*
X6397682Y-16372960D01*
X6397682Y-16372960D02*
X6388158Y-16363436D01*
X6578634Y-16182484D02*
X6702444Y-16182484D01*
X6702444Y-16182484D02*
X6635777Y-16258674D01*
X6635777Y-16258674D02*
X6664348Y-16258674D01*
X6664348Y-16258674D02*
X6683396Y-16268198D01*
X6683396Y-16268198D02*
X6692920Y-16277722D01*
X6692920Y-16277722D02*
X6702444Y-16296769D01*
X6702444Y-16296769D02*
X6702444Y-16344388D01*
X6702444Y-16344388D02*
X6692920Y-16363436D01*
X6692920Y-16363436D02*
X6683396Y-16372960D01*
X6683396Y-16372960D02*
X6664348Y-16382484D01*
X6664348Y-16382484D02*
X6607206Y-16382484D01*
X6607206Y-16382484D02*
X6588158Y-16372960D01*
X6588158Y-16372960D02*
X6578634Y-16363436D01*
X6778634Y-16182484D02*
X6778634Y-16220579D01*
X6854825Y-16182484D02*
X6854825Y-16220579D01*
X7150063Y-16458674D02*
X7140539Y-16449150D01*
X7140539Y-16449150D02*
X7121491Y-16420579D01*
X7121491Y-16420579D02*
X7111968Y-16401531D01*
X7111968Y-16401531D02*
X7102444Y-16372960D01*
X7102444Y-16372960D02*
X7092920Y-16325341D01*
X7092920Y-16325341D02*
X7092920Y-16287246D01*
X7092920Y-16287246D02*
X7102444Y-16239627D01*
X7102444Y-16239627D02*
X7111968Y-16211055D01*
X7111968Y-16211055D02*
X7121491Y-16192008D01*
X7121491Y-16192008D02*
X7140539Y-16163436D01*
X7140539Y-16163436D02*
X7150063Y-16153912D01*
X7254825Y-16268198D02*
X7235777Y-16258674D01*
X7235777Y-16258674D02*
X7226253Y-16249150D01*
X7226253Y-16249150D02*
X7216729Y-16230103D01*
X7216729Y-16230103D02*
X7216729Y-16220579D01*
X7216729Y-16220579D02*
X7226253Y-16201531D01*
X7226253Y-16201531D02*
X7235777Y-16192008D01*
X7235777Y-16192008D02*
X7254825Y-16182484D01*
X7254825Y-16182484D02*
X7292920Y-16182484D01*
X7292920Y-16182484D02*
X7311968Y-16192008D01*
X7311968Y-16192008D02*
X7321491Y-16201531D01*
X7321491Y-16201531D02*
X7331015Y-16220579D01*
X7331015Y-16220579D02*
X7331015Y-16230103D01*
X7331015Y-16230103D02*
X7321491Y-16249150D01*
X7321491Y-16249150D02*
X7311968Y-16258674D01*
X7311968Y-16258674D02*
X7292920Y-16268198D01*
X7292920Y-16268198D02*
X7254825Y-16268198D01*
X7254825Y-16268198D02*
X7235777Y-16277722D01*
X7235777Y-16277722D02*
X7226253Y-16287246D01*
X7226253Y-16287246D02*
X7216729Y-16306293D01*
X7216729Y-16306293D02*
X7216729Y-16344388D01*
X7216729Y-16344388D02*
X7226253Y-16363436D01*
X7226253Y-16363436D02*
X7235777Y-16372960D01*
X7235777Y-16372960D02*
X7254825Y-16382484D01*
X7254825Y-16382484D02*
X7292920Y-16382484D01*
X7292920Y-16382484D02*
X7311968Y-16372960D01*
X7311968Y-16372960D02*
X7321491Y-16363436D01*
X7321491Y-16363436D02*
X7331015Y-16344388D01*
X7331015Y-16344388D02*
X7331015Y-16306293D01*
X7331015Y-16306293D02*
X7321491Y-16287246D01*
X7321491Y-16287246D02*
X7311968Y-16277722D01*
X7311968Y-16277722D02*
X7292920Y-16268198D01*
X7454825Y-16182484D02*
X7473872Y-16182484D01*
X7473872Y-16182484D02*
X7492920Y-16192008D01*
X7492920Y-16192008D02*
X7502444Y-16201531D01*
X7502444Y-16201531D02*
X7511968Y-16220579D01*
X7511968Y-16220579D02*
X7521491Y-16258674D01*
X7521491Y-16258674D02*
X7521491Y-16306293D01*
X7521491Y-16306293D02*
X7511968Y-16344388D01*
X7511968Y-16344388D02*
X7502444Y-16363436D01*
X7502444Y-16363436D02*
X7492920Y-16372960D01*
X7492920Y-16372960D02*
X7473872Y-16382484D01*
X7473872Y-16382484D02*
X7454825Y-16382484D01*
X7454825Y-16382484D02*
X7435777Y-16372960D01*
X7435777Y-16372960D02*
X7426253Y-16363436D01*
X7426253Y-16363436D02*
X7416729Y-16344388D01*
X7416729Y-16344388D02*
X7407206Y-16306293D01*
X7407206Y-16306293D02*
X7407206Y-16258674D01*
X7407206Y-16258674D02*
X7416729Y-16220579D01*
X7416729Y-16220579D02*
X7426253Y-16201531D01*
X7426253Y-16201531D02*
X7435777Y-16192008D01*
X7435777Y-16192008D02*
X7454825Y-16182484D01*
X7759587Y-16382484D02*
X7759587Y-16182484D01*
X7845301Y-16382484D02*
X7845301Y-16277722D01*
X7845301Y-16277722D02*
X7835777Y-16258674D01*
X7835777Y-16258674D02*
X7816730Y-16249150D01*
X7816730Y-16249150D02*
X7788158Y-16249150D01*
X7788158Y-16249150D02*
X7769110Y-16258674D01*
X7769110Y-16258674D02*
X7759587Y-16268198D01*
X7969110Y-16382484D02*
X7950063Y-16372960D01*
X7950063Y-16372960D02*
X7940539Y-16363436D01*
X7940539Y-16363436D02*
X7931015Y-16344388D01*
X7931015Y-16344388D02*
X7931015Y-16287246D01*
X7931015Y-16287246D02*
X7940539Y-16268198D01*
X7940539Y-16268198D02*
X7950063Y-16258674D01*
X7950063Y-16258674D02*
X7969110Y-16249150D01*
X7969110Y-16249150D02*
X7997682Y-16249150D01*
X7997682Y-16249150D02*
X8016730Y-16258674D01*
X8016730Y-16258674D02*
X8026253Y-16268198D01*
X8026253Y-16268198D02*
X8035777Y-16287246D01*
X8035777Y-16287246D02*
X8035777Y-16344388D01*
X8035777Y-16344388D02*
X8026253Y-16363436D01*
X8026253Y-16363436D02*
X8016730Y-16372960D01*
X8016730Y-16372960D02*
X7997682Y-16382484D01*
X7997682Y-16382484D02*
X7969110Y-16382484D01*
X8150063Y-16382484D02*
X8131015Y-16372960D01*
X8131015Y-16372960D02*
X8121491Y-16353912D01*
X8121491Y-16353912D02*
X8121491Y-16182484D01*
X8302444Y-16372960D02*
X8283396Y-16382484D01*
X8283396Y-16382484D02*
X8245301Y-16382484D01*
X8245301Y-16382484D02*
X8226253Y-16372960D01*
X8226253Y-16372960D02*
X8216730Y-16353912D01*
X8216730Y-16353912D02*
X8216730Y-16277722D01*
X8216730Y-16277722D02*
X8226253Y-16258674D01*
X8226253Y-16258674D02*
X8245301Y-16249150D01*
X8245301Y-16249150D02*
X8283396Y-16249150D01*
X8283396Y-16249150D02*
X8302444Y-16258674D01*
X8302444Y-16258674D02*
X8311968Y-16277722D01*
X8311968Y-16277722D02*
X8311968Y-16296769D01*
X8311968Y-16296769D02*
X8216730Y-16315817D01*
X8388158Y-16372960D02*
X8407206Y-16382484D01*
X8407206Y-16382484D02*
X8445301Y-16382484D01*
X8445301Y-16382484D02*
X8464349Y-16372960D01*
X8464349Y-16372960D02*
X8473873Y-16353912D01*
X8473873Y-16353912D02*
X8473873Y-16344388D01*
X8473873Y-16344388D02*
X8464349Y-16325341D01*
X8464349Y-16325341D02*
X8445301Y-16315817D01*
X8445301Y-16315817D02*
X8416730Y-16315817D01*
X8416730Y-16315817D02*
X8397682Y-16306293D01*
X8397682Y-16306293D02*
X8388158Y-16287246D01*
X8388158Y-16287246D02*
X8388158Y-16277722D01*
X8388158Y-16277722D02*
X8397682Y-16258674D01*
X8397682Y-16258674D02*
X8416730Y-16249150D01*
X8416730Y-16249150D02*
X8445301Y-16249150D01*
X8445301Y-16249150D02*
X8464349Y-16258674D01*
X8540539Y-16458674D02*
X8550063Y-16449150D01*
X8550063Y-16449150D02*
X8569111Y-16420579D01*
X8569111Y-16420579D02*
X8578634Y-16401531D01*
X8578634Y-16401531D02*
X8588158Y-16372960D01*
X8588158Y-16372960D02*
X8597682Y-16325341D01*
X8597682Y-16325341D02*
X8597682Y-16287246D01*
X8597682Y-16287246D02*
X8588158Y-16239627D01*
X8588158Y-16239627D02*
X8578634Y-16211055D01*
X8578634Y-16211055D02*
X8569111Y-16192008D01*
X8569111Y-16192008D02*
X8550063Y-16163436D01*
X8550063Y-16163436D02*
X8540539Y-16153912D01*
D13*
X3455000Y-16495000D02*
X3575000Y-16615000D01*
X3575000Y-16495000D02*
X3455000Y-16615000D01*
X3575000Y-16555000D02*
G75*
G03*
X3455000Y-16555000I-60000J0D01*
G01*
X3455000Y-16555000D02*
G75*
G03*
X3575000Y-16555000I60000J0D01*
G01*
D11*
X3940539Y-16646484D02*
X3826253Y-16646484D01*
X3883396Y-16646484D02*
X3883396Y-16446484D01*
X3883396Y-16446484D02*
X3864348Y-16475055D01*
X3864348Y-16475055D02*
X3845301Y-16494103D01*
X3845301Y-16494103D02*
X3826253Y-16503627D01*
X4026253Y-16627436D02*
X4035777Y-16636960D01*
X4035777Y-16636960D02*
X4026253Y-16646484D01*
X4026253Y-16646484D02*
X4016729Y-16636960D01*
X4016729Y-16636960D02*
X4026253Y-16627436D01*
X4026253Y-16627436D02*
X4026253Y-16646484D01*
X4111967Y-16465531D02*
X4121491Y-16456008D01*
X4121491Y-16456008D02*
X4140539Y-16446484D01*
X4140539Y-16446484D02*
X4188158Y-16446484D01*
X4188158Y-16446484D02*
X4207205Y-16456008D01*
X4207205Y-16456008D02*
X4216729Y-16465531D01*
X4216729Y-16465531D02*
X4226253Y-16484579D01*
X4226253Y-16484579D02*
X4226253Y-16503627D01*
X4226253Y-16503627D02*
X4216729Y-16532198D01*
X4216729Y-16532198D02*
X4102443Y-16646484D01*
X4102443Y-16646484D02*
X4226253Y-16646484D01*
X4350063Y-16446484D02*
X4369110Y-16446484D01*
X4369110Y-16446484D02*
X4388158Y-16456008D01*
X4388158Y-16456008D02*
X4397682Y-16465531D01*
X4397682Y-16465531D02*
X4407205Y-16484579D01*
X4407205Y-16484579D02*
X4416729Y-16522674D01*
X4416729Y-16522674D02*
X4416729Y-16570293D01*
X4416729Y-16570293D02*
X4407205Y-16608388D01*
X4407205Y-16608388D02*
X4397682Y-16627436D01*
X4397682Y-16627436D02*
X4388158Y-16636960D01*
X4388158Y-16636960D02*
X4369110Y-16646484D01*
X4369110Y-16646484D02*
X4350063Y-16646484D01*
X4350063Y-16646484D02*
X4331015Y-16636960D01*
X4331015Y-16636960D02*
X4321491Y-16627436D01*
X4321491Y-16627436D02*
X4311967Y-16608388D01*
X4311967Y-16608388D02*
X4302444Y-16570293D01*
X4302444Y-16570293D02*
X4302444Y-16522674D01*
X4302444Y-16522674D02*
X4311967Y-16484579D01*
X4311967Y-16484579D02*
X4321491Y-16465531D01*
X4321491Y-16465531D02*
X4331015Y-16456008D01*
X4331015Y-16456008D02*
X4350063Y-16446484D01*
X4540539Y-16446484D02*
X4559586Y-16446484D01*
X4559586Y-16446484D02*
X4578634Y-16456008D01*
X4578634Y-16456008D02*
X4588158Y-16465531D01*
X4588158Y-16465531D02*
X4597682Y-16484579D01*
X4597682Y-16484579D02*
X4607205Y-16522674D01*
X4607205Y-16522674D02*
X4607205Y-16570293D01*
X4607205Y-16570293D02*
X4597682Y-16608388D01*
X4597682Y-16608388D02*
X4588158Y-16627436D01*
X4588158Y-16627436D02*
X4578634Y-16636960D01*
X4578634Y-16636960D02*
X4559586Y-16646484D01*
X4559586Y-16646484D02*
X4540539Y-16646484D01*
X4540539Y-16646484D02*
X4521491Y-16636960D01*
X4521491Y-16636960D02*
X4511967Y-16627436D01*
X4511967Y-16627436D02*
X4502444Y-16608388D01*
X4502444Y-16608388D02*
X4492920Y-16570293D01*
X4492920Y-16570293D02*
X4492920Y-16522674D01*
X4492920Y-16522674D02*
X4502444Y-16484579D01*
X4502444Y-16484579D02*
X4511967Y-16465531D01*
X4511967Y-16465531D02*
X4521491Y-16456008D01*
X4521491Y-16456008D02*
X4540539Y-16446484D01*
X4692920Y-16646484D02*
X4692920Y-16513150D01*
X4692920Y-16532198D02*
X4702444Y-16522674D01*
X4702444Y-16522674D02*
X4721491Y-16513150D01*
X4721491Y-16513150D02*
X4750063Y-16513150D01*
X4750063Y-16513150D02*
X4769110Y-16522674D01*
X4769110Y-16522674D02*
X4778634Y-16541722D01*
X4778634Y-16541722D02*
X4778634Y-16646484D01*
X4778634Y-16541722D02*
X4788158Y-16522674D01*
X4788158Y-16522674D02*
X4807205Y-16513150D01*
X4807205Y-16513150D02*
X4835777Y-16513150D01*
X4835777Y-16513150D02*
X4854825Y-16522674D01*
X4854825Y-16522674D02*
X4864348Y-16541722D01*
X4864348Y-16541722D02*
X4864348Y-16646484D01*
X4959586Y-16646484D02*
X4959586Y-16513150D01*
X4959586Y-16532198D02*
X4969110Y-16522674D01*
X4969110Y-16522674D02*
X4988158Y-16513150D01*
X4988158Y-16513150D02*
X5016729Y-16513150D01*
X5016729Y-16513150D02*
X5035777Y-16522674D01*
X5035777Y-16522674D02*
X5045301Y-16541722D01*
X5045301Y-16541722D02*
X5045301Y-16646484D01*
X5045301Y-16541722D02*
X5054825Y-16522674D01*
X5054825Y-16522674D02*
X5073872Y-16513150D01*
X5073872Y-16513150D02*
X5102444Y-16513150D01*
X5102444Y-16513150D02*
X5121491Y-16522674D01*
X5121491Y-16522674D02*
X5131015Y-16541722D01*
X5131015Y-16541722D02*
X5131015Y-16646484D01*
X5521491Y-16436960D02*
X5350063Y-16694103D01*
X5778634Y-16446484D02*
X5797682Y-16446484D01*
X5797682Y-16446484D02*
X5816729Y-16456008D01*
X5816729Y-16456008D02*
X5826253Y-16465531D01*
X5826253Y-16465531D02*
X5835777Y-16484579D01*
X5835777Y-16484579D02*
X5845301Y-16522674D01*
X5845301Y-16522674D02*
X5845301Y-16570293D01*
X5845301Y-16570293D02*
X5835777Y-16608388D01*
X5835777Y-16608388D02*
X5826253Y-16627436D01*
X5826253Y-16627436D02*
X5816729Y-16636960D01*
X5816729Y-16636960D02*
X5797682Y-16646484D01*
X5797682Y-16646484D02*
X5778634Y-16646484D01*
X5778634Y-16646484D02*
X5759586Y-16636960D01*
X5759586Y-16636960D02*
X5750063Y-16627436D01*
X5750063Y-16627436D02*
X5740539Y-16608388D01*
X5740539Y-16608388D02*
X5731015Y-16570293D01*
X5731015Y-16570293D02*
X5731015Y-16522674D01*
X5731015Y-16522674D02*
X5740539Y-16484579D01*
X5740539Y-16484579D02*
X5750063Y-16465531D01*
X5750063Y-16465531D02*
X5759586Y-16456008D01*
X5759586Y-16456008D02*
X5778634Y-16446484D01*
X5931015Y-16627436D02*
X5940539Y-16636960D01*
X5940539Y-16636960D02*
X5931015Y-16646484D01*
X5931015Y-16646484D02*
X5921491Y-16636960D01*
X5921491Y-16636960D02*
X5931015Y-16627436D01*
X5931015Y-16627436D02*
X5931015Y-16646484D01*
X6064348Y-16446484D02*
X6083396Y-16446484D01*
X6083396Y-16446484D02*
X6102444Y-16456008D01*
X6102444Y-16456008D02*
X6111967Y-16465531D01*
X6111967Y-16465531D02*
X6121491Y-16484579D01*
X6121491Y-16484579D02*
X6131015Y-16522674D01*
X6131015Y-16522674D02*
X6131015Y-16570293D01*
X6131015Y-16570293D02*
X6121491Y-16608388D01*
X6121491Y-16608388D02*
X6111967Y-16627436D01*
X6111967Y-16627436D02*
X6102444Y-16636960D01*
X6102444Y-16636960D02*
X6083396Y-16646484D01*
X6083396Y-16646484D02*
X6064348Y-16646484D01*
X6064348Y-16646484D02*
X6045301Y-16636960D01*
X6045301Y-16636960D02*
X6035777Y-16627436D01*
X6035777Y-16627436D02*
X6026253Y-16608388D01*
X6026253Y-16608388D02*
X6016729Y-16570293D01*
X6016729Y-16570293D02*
X6016729Y-16522674D01*
X6016729Y-16522674D02*
X6026253Y-16484579D01*
X6026253Y-16484579D02*
X6035777Y-16465531D01*
X6035777Y-16465531D02*
X6045301Y-16456008D01*
X6045301Y-16456008D02*
X6064348Y-16446484D01*
X6302444Y-16513150D02*
X6302444Y-16646484D01*
X6254825Y-16436960D02*
X6207206Y-16579817D01*
X6207206Y-16579817D02*
X6331015Y-16579817D01*
X6388158Y-16446484D02*
X6521491Y-16446484D01*
X6521491Y-16446484D02*
X6435777Y-16646484D01*
X6588158Y-16465531D02*
X6597682Y-16456008D01*
X6597682Y-16456008D02*
X6616729Y-16446484D01*
X6616729Y-16446484D02*
X6664348Y-16446484D01*
X6664348Y-16446484D02*
X6683396Y-16456008D01*
X6683396Y-16456008D02*
X6692920Y-16465531D01*
X6692920Y-16465531D02*
X6702444Y-16484579D01*
X6702444Y-16484579D02*
X6702444Y-16503627D01*
X6702444Y-16503627D02*
X6692920Y-16532198D01*
X6692920Y-16532198D02*
X6578634Y-16646484D01*
X6578634Y-16646484D02*
X6702444Y-16646484D01*
X6778634Y-16446484D02*
X6778634Y-16484579D01*
X6854825Y-16446484D02*
X6854825Y-16484579D01*
X7150063Y-16722674D02*
X7140539Y-16713150D01*
X7140539Y-16713150D02*
X7121491Y-16684579D01*
X7121491Y-16684579D02*
X7111968Y-16665531D01*
X7111968Y-16665531D02*
X7102444Y-16636960D01*
X7102444Y-16636960D02*
X7092920Y-16589341D01*
X7092920Y-16589341D02*
X7092920Y-16551246D01*
X7092920Y-16551246D02*
X7102444Y-16503627D01*
X7102444Y-16503627D02*
X7111968Y-16475055D01*
X7111968Y-16475055D02*
X7121491Y-16456008D01*
X7121491Y-16456008D02*
X7140539Y-16427436D01*
X7140539Y-16427436D02*
X7150063Y-16417912D01*
X7216729Y-16465531D02*
X7226253Y-16456008D01*
X7226253Y-16456008D02*
X7245301Y-16446484D01*
X7245301Y-16446484D02*
X7292920Y-16446484D01*
X7292920Y-16446484D02*
X7311968Y-16456008D01*
X7311968Y-16456008D02*
X7321491Y-16465531D01*
X7321491Y-16465531D02*
X7331015Y-16484579D01*
X7331015Y-16484579D02*
X7331015Y-16503627D01*
X7331015Y-16503627D02*
X7321491Y-16532198D01*
X7321491Y-16532198D02*
X7207206Y-16646484D01*
X7207206Y-16646484D02*
X7331015Y-16646484D01*
X7569110Y-16646484D02*
X7569110Y-16446484D01*
X7654825Y-16646484D02*
X7654825Y-16541722D01*
X7654825Y-16541722D02*
X7645301Y-16522674D01*
X7645301Y-16522674D02*
X7626253Y-16513150D01*
X7626253Y-16513150D02*
X7597682Y-16513150D01*
X7597682Y-16513150D02*
X7578634Y-16522674D01*
X7578634Y-16522674D02*
X7569110Y-16532198D01*
X7778634Y-16646484D02*
X7759587Y-16636960D01*
X7759587Y-16636960D02*
X7750063Y-16627436D01*
X7750063Y-16627436D02*
X7740539Y-16608388D01*
X7740539Y-16608388D02*
X7740539Y-16551246D01*
X7740539Y-16551246D02*
X7750063Y-16532198D01*
X7750063Y-16532198D02*
X7759587Y-16522674D01*
X7759587Y-16522674D02*
X7778634Y-16513150D01*
X7778634Y-16513150D02*
X7807206Y-16513150D01*
X7807206Y-16513150D02*
X7826253Y-16522674D01*
X7826253Y-16522674D02*
X7835777Y-16532198D01*
X7835777Y-16532198D02*
X7845301Y-16551246D01*
X7845301Y-16551246D02*
X7845301Y-16608388D01*
X7845301Y-16608388D02*
X7835777Y-16627436D01*
X7835777Y-16627436D02*
X7826253Y-16636960D01*
X7826253Y-16636960D02*
X7807206Y-16646484D01*
X7807206Y-16646484D02*
X7778634Y-16646484D01*
X7959587Y-16646484D02*
X7940539Y-16636960D01*
X7940539Y-16636960D02*
X7931015Y-16617912D01*
X7931015Y-16617912D02*
X7931015Y-16446484D01*
X8111968Y-16636960D02*
X8092920Y-16646484D01*
X8092920Y-16646484D02*
X8054825Y-16646484D01*
X8054825Y-16646484D02*
X8035777Y-16636960D01*
X8035777Y-16636960D02*
X8026253Y-16617912D01*
X8026253Y-16617912D02*
X8026253Y-16541722D01*
X8026253Y-16541722D02*
X8035777Y-16522674D01*
X8035777Y-16522674D02*
X8054825Y-16513150D01*
X8054825Y-16513150D02*
X8092920Y-16513150D01*
X8092920Y-16513150D02*
X8111968Y-16522674D01*
X8111968Y-16522674D02*
X8121491Y-16541722D01*
X8121491Y-16541722D02*
X8121491Y-16560769D01*
X8121491Y-16560769D02*
X8026253Y-16579817D01*
X8197682Y-16636960D02*
X8216730Y-16646484D01*
X8216730Y-16646484D02*
X8254825Y-16646484D01*
X8254825Y-16646484D02*
X8273872Y-16636960D01*
X8273872Y-16636960D02*
X8283396Y-16617912D01*
X8283396Y-16617912D02*
X8283396Y-16608388D01*
X8283396Y-16608388D02*
X8273872Y-16589341D01*
X8273872Y-16589341D02*
X8254825Y-16579817D01*
X8254825Y-16579817D02*
X8226253Y-16579817D01*
X8226253Y-16579817D02*
X8207206Y-16570293D01*
X8207206Y-16570293D02*
X8197682Y-16551246D01*
X8197682Y-16551246D02*
X8197682Y-16541722D01*
X8197682Y-16541722D02*
X8207206Y-16522674D01*
X8207206Y-16522674D02*
X8226253Y-16513150D01*
X8226253Y-16513150D02*
X8254825Y-16513150D01*
X8254825Y-16513150D02*
X8273872Y-16522674D01*
X8350063Y-16722674D02*
X8359587Y-16713150D01*
X8359587Y-16713150D02*
X8378634Y-16684579D01*
X8378634Y-16684579D02*
X8388158Y-16665531D01*
X8388158Y-16665531D02*
X8397682Y-16636960D01*
X8397682Y-16636960D02*
X8407206Y-16589341D01*
X8407206Y-16589341D02*
X8407206Y-16551246D01*
X8407206Y-16551246D02*
X8397682Y-16503627D01*
X8397682Y-16503627D02*
X8388158Y-16475055D01*
X8388158Y-16475055D02*
X8378634Y-16456008D01*
X8378634Y-16456008D02*
X8359587Y-16427436D01*
X8359587Y-16427436D02*
X8350063Y-16417912D01*
D14*
X3445000Y-16754000D02*
X3575000Y-16884000D01*
X3575000Y-16754000D02*
X3445000Y-16884000D01*
X3510000Y-16754000D02*
X3510000Y-16884000D01*
X3445000Y-16819000D02*
X3575000Y-16819000D01*
D11*
X3940539Y-16910484D02*
X3826253Y-16910484D01*
X3883396Y-16910484D02*
X3883396Y-16710484D01*
X3883396Y-16710484D02*
X3864348Y-16739055D01*
X3864348Y-16739055D02*
X3845301Y-16758103D01*
X3845301Y-16758103D02*
X3826253Y-16767627D01*
X4026253Y-16891436D02*
X4035777Y-16900960D01*
X4035777Y-16900960D02*
X4026253Y-16910484D01*
X4026253Y-16910484D02*
X4016729Y-16900960D01*
X4016729Y-16900960D02*
X4026253Y-16891436D01*
X4026253Y-16891436D02*
X4026253Y-16910484D01*
X4102443Y-16710484D02*
X4226253Y-16710484D01*
X4226253Y-16710484D02*
X4159586Y-16786674D01*
X4159586Y-16786674D02*
X4188158Y-16786674D01*
X4188158Y-16786674D02*
X4207205Y-16796198D01*
X4207205Y-16796198D02*
X4216729Y-16805722D01*
X4216729Y-16805722D02*
X4226253Y-16824770D01*
X4226253Y-16824770D02*
X4226253Y-16872389D01*
X4226253Y-16872389D02*
X4216729Y-16891436D01*
X4216729Y-16891436D02*
X4207205Y-16900960D01*
X4207205Y-16900960D02*
X4188158Y-16910484D01*
X4188158Y-16910484D02*
X4131015Y-16910484D01*
X4131015Y-16910484D02*
X4111967Y-16900960D01*
X4111967Y-16900960D02*
X4102443Y-16891436D01*
X4350063Y-16710484D02*
X4369110Y-16710484D01*
X4369110Y-16710484D02*
X4388158Y-16720008D01*
X4388158Y-16720008D02*
X4397682Y-16729531D01*
X4397682Y-16729531D02*
X4407205Y-16748579D01*
X4407205Y-16748579D02*
X4416729Y-16786674D01*
X4416729Y-16786674D02*
X4416729Y-16834293D01*
X4416729Y-16834293D02*
X4407205Y-16872389D01*
X4407205Y-16872389D02*
X4397682Y-16891436D01*
X4397682Y-16891436D02*
X4388158Y-16900960D01*
X4388158Y-16900960D02*
X4369110Y-16910484D01*
X4369110Y-16910484D02*
X4350063Y-16910484D01*
X4350063Y-16910484D02*
X4331015Y-16900960D01*
X4331015Y-16900960D02*
X4321491Y-16891436D01*
X4321491Y-16891436D02*
X4311967Y-16872389D01*
X4311967Y-16872389D02*
X4302444Y-16834293D01*
X4302444Y-16834293D02*
X4302444Y-16786674D01*
X4302444Y-16786674D02*
X4311967Y-16748579D01*
X4311967Y-16748579D02*
X4321491Y-16729531D01*
X4321491Y-16729531D02*
X4331015Y-16720008D01*
X4331015Y-16720008D02*
X4350063Y-16710484D01*
X4540539Y-16710484D02*
X4559586Y-16710484D01*
X4559586Y-16710484D02*
X4578634Y-16720008D01*
X4578634Y-16720008D02*
X4588158Y-16729531D01*
X4588158Y-16729531D02*
X4597682Y-16748579D01*
X4597682Y-16748579D02*
X4607205Y-16786674D01*
X4607205Y-16786674D02*
X4607205Y-16834293D01*
X4607205Y-16834293D02*
X4597682Y-16872389D01*
X4597682Y-16872389D02*
X4588158Y-16891436D01*
X4588158Y-16891436D02*
X4578634Y-16900960D01*
X4578634Y-16900960D02*
X4559586Y-16910484D01*
X4559586Y-16910484D02*
X4540539Y-16910484D01*
X4540539Y-16910484D02*
X4521491Y-16900960D01*
X4521491Y-16900960D02*
X4511967Y-16891436D01*
X4511967Y-16891436D02*
X4502444Y-16872389D01*
X4502444Y-16872389D02*
X4492920Y-16834293D01*
X4492920Y-16834293D02*
X4492920Y-16786674D01*
X4492920Y-16786674D02*
X4502444Y-16748579D01*
X4502444Y-16748579D02*
X4511967Y-16729531D01*
X4511967Y-16729531D02*
X4521491Y-16720008D01*
X4521491Y-16720008D02*
X4540539Y-16710484D01*
X4692920Y-16910484D02*
X4692920Y-16777150D01*
X4692920Y-16796198D02*
X4702444Y-16786674D01*
X4702444Y-16786674D02*
X4721491Y-16777150D01*
X4721491Y-16777150D02*
X4750063Y-16777150D01*
X4750063Y-16777150D02*
X4769110Y-16786674D01*
X4769110Y-16786674D02*
X4778634Y-16805722D01*
X4778634Y-16805722D02*
X4778634Y-16910484D01*
X4778634Y-16805722D02*
X4788158Y-16786674D01*
X4788158Y-16786674D02*
X4807205Y-16777150D01*
X4807205Y-16777150D02*
X4835777Y-16777150D01*
X4835777Y-16777150D02*
X4854825Y-16786674D01*
X4854825Y-16786674D02*
X4864348Y-16805722D01*
X4864348Y-16805722D02*
X4864348Y-16910484D01*
X4959586Y-16910484D02*
X4959586Y-16777150D01*
X4959586Y-16796198D02*
X4969110Y-16786674D01*
X4969110Y-16786674D02*
X4988158Y-16777150D01*
X4988158Y-16777150D02*
X5016729Y-16777150D01*
X5016729Y-16777150D02*
X5035777Y-16786674D01*
X5035777Y-16786674D02*
X5045301Y-16805722D01*
X5045301Y-16805722D02*
X5045301Y-16910484D01*
X5045301Y-16805722D02*
X5054825Y-16786674D01*
X5054825Y-16786674D02*
X5073872Y-16777150D01*
X5073872Y-16777150D02*
X5102444Y-16777150D01*
X5102444Y-16777150D02*
X5121491Y-16786674D01*
X5121491Y-16786674D02*
X5131015Y-16805722D01*
X5131015Y-16805722D02*
X5131015Y-16910484D01*
X5521491Y-16700960D02*
X5350063Y-16958103D01*
X5778634Y-16710484D02*
X5797682Y-16710484D01*
X5797682Y-16710484D02*
X5816729Y-16720008D01*
X5816729Y-16720008D02*
X5826253Y-16729531D01*
X5826253Y-16729531D02*
X5835777Y-16748579D01*
X5835777Y-16748579D02*
X5845301Y-16786674D01*
X5845301Y-16786674D02*
X5845301Y-16834293D01*
X5845301Y-16834293D02*
X5835777Y-16872389D01*
X5835777Y-16872389D02*
X5826253Y-16891436D01*
X5826253Y-16891436D02*
X5816729Y-16900960D01*
X5816729Y-16900960D02*
X5797682Y-16910484D01*
X5797682Y-16910484D02*
X5778634Y-16910484D01*
X5778634Y-16910484D02*
X5759586Y-16900960D01*
X5759586Y-16900960D02*
X5750063Y-16891436D01*
X5750063Y-16891436D02*
X5740539Y-16872389D01*
X5740539Y-16872389D02*
X5731015Y-16834293D01*
X5731015Y-16834293D02*
X5731015Y-16786674D01*
X5731015Y-16786674D02*
X5740539Y-16748579D01*
X5740539Y-16748579D02*
X5750063Y-16729531D01*
X5750063Y-16729531D02*
X5759586Y-16720008D01*
X5759586Y-16720008D02*
X5778634Y-16710484D01*
X5931015Y-16891436D02*
X5940539Y-16900960D01*
X5940539Y-16900960D02*
X5931015Y-16910484D01*
X5931015Y-16910484D02*
X5921491Y-16900960D01*
X5921491Y-16900960D02*
X5931015Y-16891436D01*
X5931015Y-16891436D02*
X5931015Y-16910484D01*
X6064348Y-16710484D02*
X6083396Y-16710484D01*
X6083396Y-16710484D02*
X6102444Y-16720008D01*
X6102444Y-16720008D02*
X6111967Y-16729531D01*
X6111967Y-16729531D02*
X6121491Y-16748579D01*
X6121491Y-16748579D02*
X6131015Y-16786674D01*
X6131015Y-16786674D02*
X6131015Y-16834293D01*
X6131015Y-16834293D02*
X6121491Y-16872389D01*
X6121491Y-16872389D02*
X6111967Y-16891436D01*
X6111967Y-16891436D02*
X6102444Y-16900960D01*
X6102444Y-16900960D02*
X6083396Y-16910484D01*
X6083396Y-16910484D02*
X6064348Y-16910484D01*
X6064348Y-16910484D02*
X6045301Y-16900960D01*
X6045301Y-16900960D02*
X6035777Y-16891436D01*
X6035777Y-16891436D02*
X6026253Y-16872389D01*
X6026253Y-16872389D02*
X6016729Y-16834293D01*
X6016729Y-16834293D02*
X6016729Y-16786674D01*
X6016729Y-16786674D02*
X6026253Y-16748579D01*
X6026253Y-16748579D02*
X6035777Y-16729531D01*
X6035777Y-16729531D02*
X6045301Y-16720008D01*
X6045301Y-16720008D02*
X6064348Y-16710484D01*
X6311967Y-16710484D02*
X6216729Y-16710484D01*
X6216729Y-16710484D02*
X6207206Y-16805722D01*
X6207206Y-16805722D02*
X6216729Y-16796198D01*
X6216729Y-16796198D02*
X6235777Y-16786674D01*
X6235777Y-16786674D02*
X6283396Y-16786674D01*
X6283396Y-16786674D02*
X6302444Y-16796198D01*
X6302444Y-16796198D02*
X6311967Y-16805722D01*
X6311967Y-16805722D02*
X6321491Y-16824770D01*
X6321491Y-16824770D02*
X6321491Y-16872389D01*
X6321491Y-16872389D02*
X6311967Y-16891436D01*
X6311967Y-16891436D02*
X6302444Y-16900960D01*
X6302444Y-16900960D02*
X6283396Y-16910484D01*
X6283396Y-16910484D02*
X6235777Y-16910484D01*
X6235777Y-16910484D02*
X6216729Y-16900960D01*
X6216729Y-16900960D02*
X6207206Y-16891436D01*
X6511967Y-16910484D02*
X6397682Y-16910484D01*
X6454825Y-16910484D02*
X6454825Y-16710484D01*
X6454825Y-16710484D02*
X6435777Y-16739055D01*
X6435777Y-16739055D02*
X6416729Y-16758103D01*
X6416729Y-16758103D02*
X6397682Y-16767627D01*
X6588158Y-16729531D02*
X6597682Y-16720008D01*
X6597682Y-16720008D02*
X6616729Y-16710484D01*
X6616729Y-16710484D02*
X6664348Y-16710484D01*
X6664348Y-16710484D02*
X6683396Y-16720008D01*
X6683396Y-16720008D02*
X6692920Y-16729531D01*
X6692920Y-16729531D02*
X6702444Y-16748579D01*
X6702444Y-16748579D02*
X6702444Y-16767627D01*
X6702444Y-16767627D02*
X6692920Y-16796198D01*
X6692920Y-16796198D02*
X6578634Y-16910484D01*
X6578634Y-16910484D02*
X6702444Y-16910484D01*
X6778634Y-16710484D02*
X6778634Y-16748579D01*
X6854825Y-16710484D02*
X6854825Y-16748579D01*
X7150063Y-16986674D02*
X7140539Y-16977150D01*
X7140539Y-16977150D02*
X7121491Y-16948579D01*
X7121491Y-16948579D02*
X7111968Y-16929531D01*
X7111968Y-16929531D02*
X7102444Y-16900960D01*
X7102444Y-16900960D02*
X7092920Y-16853341D01*
X7092920Y-16853341D02*
X7092920Y-16815246D01*
X7092920Y-16815246D02*
X7102444Y-16767627D01*
X7102444Y-16767627D02*
X7111968Y-16739055D01*
X7111968Y-16739055D02*
X7121491Y-16720008D01*
X7121491Y-16720008D02*
X7140539Y-16691436D01*
X7140539Y-16691436D02*
X7150063Y-16681912D01*
X7311968Y-16777150D02*
X7311968Y-16910484D01*
X7264348Y-16700960D02*
X7216729Y-16843817D01*
X7216729Y-16843817D02*
X7340539Y-16843817D01*
X7569110Y-16910484D02*
X7569110Y-16710484D01*
X7654825Y-16910484D02*
X7654825Y-16805722D01*
X7654825Y-16805722D02*
X7645301Y-16786674D01*
X7645301Y-16786674D02*
X7626253Y-16777150D01*
X7626253Y-16777150D02*
X7597682Y-16777150D01*
X7597682Y-16777150D02*
X7578634Y-16786674D01*
X7578634Y-16786674D02*
X7569110Y-16796198D01*
X7778634Y-16910484D02*
X7759587Y-16900960D01*
X7759587Y-16900960D02*
X7750063Y-16891436D01*
X7750063Y-16891436D02*
X7740539Y-16872389D01*
X7740539Y-16872389D02*
X7740539Y-16815246D01*
X7740539Y-16815246D02*
X7750063Y-16796198D01*
X7750063Y-16796198D02*
X7759587Y-16786674D01*
X7759587Y-16786674D02*
X7778634Y-16777150D01*
X7778634Y-16777150D02*
X7807206Y-16777150D01*
X7807206Y-16777150D02*
X7826253Y-16786674D01*
X7826253Y-16786674D02*
X7835777Y-16796198D01*
X7835777Y-16796198D02*
X7845301Y-16815246D01*
X7845301Y-16815246D02*
X7845301Y-16872389D01*
X7845301Y-16872389D02*
X7835777Y-16891436D01*
X7835777Y-16891436D02*
X7826253Y-16900960D01*
X7826253Y-16900960D02*
X7807206Y-16910484D01*
X7807206Y-16910484D02*
X7778634Y-16910484D01*
X7959587Y-16910484D02*
X7940539Y-16900960D01*
X7940539Y-16900960D02*
X7931015Y-16881912D01*
X7931015Y-16881912D02*
X7931015Y-16710484D01*
X8111968Y-16900960D02*
X8092920Y-16910484D01*
X8092920Y-16910484D02*
X8054825Y-16910484D01*
X8054825Y-16910484D02*
X8035777Y-16900960D01*
X8035777Y-16900960D02*
X8026253Y-16881912D01*
X8026253Y-16881912D02*
X8026253Y-16805722D01*
X8026253Y-16805722D02*
X8035777Y-16786674D01*
X8035777Y-16786674D02*
X8054825Y-16777150D01*
X8054825Y-16777150D02*
X8092920Y-16777150D01*
X8092920Y-16777150D02*
X8111968Y-16786674D01*
X8111968Y-16786674D02*
X8121491Y-16805722D01*
X8121491Y-16805722D02*
X8121491Y-16824770D01*
X8121491Y-16824770D02*
X8026253Y-16843817D01*
X8197682Y-16900960D02*
X8216730Y-16910484D01*
X8216730Y-16910484D02*
X8254825Y-16910484D01*
X8254825Y-16910484D02*
X8273872Y-16900960D01*
X8273872Y-16900960D02*
X8283396Y-16881912D01*
X8283396Y-16881912D02*
X8283396Y-16872389D01*
X8283396Y-16872389D02*
X8273872Y-16853341D01*
X8273872Y-16853341D02*
X8254825Y-16843817D01*
X8254825Y-16843817D02*
X8226253Y-16843817D01*
X8226253Y-16843817D02*
X8207206Y-16834293D01*
X8207206Y-16834293D02*
X8197682Y-16815246D01*
X8197682Y-16815246D02*
X8197682Y-16805722D01*
X8197682Y-16805722D02*
X8207206Y-16786674D01*
X8207206Y-16786674D02*
X8226253Y-16777150D01*
X8226253Y-16777150D02*
X8254825Y-16777150D01*
X8254825Y-16777150D02*
X8273872Y-16786674D01*
X8350063Y-16986674D02*
X8359587Y-16977150D01*
X8359587Y-16977150D02*
X8378634Y-16948579D01*
X8378634Y-16948579D02*
X8388158Y-16929531D01*
X8388158Y-16929531D02*
X8397682Y-16900960D01*
X8397682Y-16900960D02*
X8407206Y-16853341D01*
X8407206Y-16853341D02*
X8407206Y-16815246D01*
X8407206Y-16815246D02*
X8397682Y-16767627D01*
X8397682Y-16767627D02*
X8388158Y-16739055D01*
X8388158Y-16739055D02*
X8378634Y-16720008D01*
X8378634Y-16720008D02*
X8359587Y-16691436D01*
X8359587Y-16691436D02*
X8350063Y-16681912D01*
M02*
