%TF.GenerationSoftware,KiCad,Pcbnew,(6.0.2)*%
%TF.CreationDate,2023-04-19T16:32:00+03:00*%
%TF.ProjectId,Pond_circuit,506f6e64-5f63-4697-9263-7569742e6b69,rev?*%
%TF.SameCoordinates,Original*%
%TF.FileFunction,Legend,Top*%
%TF.FilePolarity,Positive*%
%FSLAX46Y46*%
G04 Gerber Fmt 4.6, Leading zero omitted, Abs format (unit mm)*
G04 Created by KiCad (PCBNEW (6.0.2)) date 2023-04-19 16:32:00*
%MOMM*%
%LPD*%
G01*
G04 APERTURE LIST*
%ADD10C,0.150000*%
%ADD11C,0.120000*%
G04 APERTURE END LIST*
D10*
X172968019Y-52192180D02*
X172968019Y-51192180D01*
X173539447Y-52192180D01*
X173539447Y-51192180D01*
X174396590Y-52144561D02*
X174301352Y-52192180D01*
X174110876Y-52192180D01*
X174015638Y-52144561D01*
X173968019Y-52049323D01*
X173968019Y-51668371D01*
X174015638Y-51573133D01*
X174110876Y-51525514D01*
X174301352Y-51525514D01*
X174396590Y-51573133D01*
X174444209Y-51668371D01*
X174444209Y-51763609D01*
X173968019Y-51858847D01*
X175301352Y-51525514D02*
X175301352Y-52335038D01*
X175253733Y-52430276D01*
X175206114Y-52477895D01*
X175110876Y-52525514D01*
X174968019Y-52525514D01*
X174872780Y-52477895D01*
X175301352Y-52144561D02*
X175206114Y-52192180D01*
X175015638Y-52192180D01*
X174920400Y-52144561D01*
X174872780Y-52096942D01*
X174825161Y-52001704D01*
X174825161Y-51715990D01*
X174872780Y-51620752D01*
X174920400Y-51573133D01*
X175015638Y-51525514D01*
X175206114Y-51525514D01*
X175301352Y-51573133D01*
X176206114Y-52192180D02*
X176206114Y-51668371D01*
X176158495Y-51573133D01*
X176063257Y-51525514D01*
X175872780Y-51525514D01*
X175777542Y-51573133D01*
X176206114Y-52144561D02*
X176110876Y-52192180D01*
X175872780Y-52192180D01*
X175777542Y-52144561D01*
X175729923Y-52049323D01*
X175729923Y-51954085D01*
X175777542Y-51858847D01*
X175872780Y-51811228D01*
X176110876Y-51811228D01*
X176206114Y-51763609D01*
X176539447Y-51525514D02*
X176920400Y-51525514D01*
X176682304Y-51192180D02*
X176682304Y-52049323D01*
X176729923Y-52144561D01*
X176825161Y-52192180D01*
X176920400Y-52192180D01*
X177253733Y-52192180D02*
X177253733Y-51525514D01*
X177253733Y-51192180D02*
X177206114Y-51239800D01*
X177253733Y-51287419D01*
X177301352Y-51239800D01*
X177253733Y-51192180D01*
X177253733Y-51287419D01*
X177634685Y-51525514D02*
X177872780Y-52192180D01*
X178110876Y-51525514D01*
X178872780Y-52144561D02*
X178777542Y-52192180D01*
X178587066Y-52192180D01*
X178491828Y-52144561D01*
X178444209Y-52049323D01*
X178444209Y-51668371D01*
X178491828Y-51573133D01*
X178587066Y-51525514D01*
X178777542Y-51525514D01*
X178872780Y-51573133D01*
X178920400Y-51668371D01*
X178920400Y-51763609D01*
X178444209Y-51858847D01*
X167133923Y-56154580D02*
X167133923Y-55154580D01*
X167514876Y-55154580D01*
X167610114Y-55202200D01*
X167657733Y-55249819D01*
X167705352Y-55345057D01*
X167705352Y-55487914D01*
X167657733Y-55583152D01*
X167610114Y-55630771D01*
X167514876Y-55678390D01*
X167133923Y-55678390D01*
X168276780Y-56154580D02*
X168181542Y-56106961D01*
X168133923Y-56059342D01*
X168086304Y-55964104D01*
X168086304Y-55678390D01*
X168133923Y-55583152D01*
X168181542Y-55535533D01*
X168276780Y-55487914D01*
X168419638Y-55487914D01*
X168514876Y-55535533D01*
X168562495Y-55583152D01*
X168610114Y-55678390D01*
X168610114Y-55964104D01*
X168562495Y-56059342D01*
X168514876Y-56106961D01*
X168419638Y-56154580D01*
X168276780Y-56154580D01*
X168991066Y-56106961D02*
X169086304Y-56154580D01*
X169276780Y-56154580D01*
X169372019Y-56106961D01*
X169419638Y-56011723D01*
X169419638Y-55964104D01*
X169372019Y-55868866D01*
X169276780Y-55821247D01*
X169133923Y-55821247D01*
X169038685Y-55773628D01*
X168991066Y-55678390D01*
X168991066Y-55630771D01*
X169038685Y-55535533D01*
X169133923Y-55487914D01*
X169276780Y-55487914D01*
X169372019Y-55535533D01*
X169848209Y-56154580D02*
X169848209Y-55487914D01*
X169848209Y-55154580D02*
X169800590Y-55202200D01*
X169848209Y-55249819D01*
X169895828Y-55202200D01*
X169848209Y-55154580D01*
X169848209Y-55249819D01*
X170181542Y-55487914D02*
X170562495Y-55487914D01*
X170324400Y-55154580D02*
X170324400Y-56011723D01*
X170372019Y-56106961D01*
X170467257Y-56154580D01*
X170562495Y-56154580D01*
X170895828Y-56154580D02*
X170895828Y-55487914D01*
X170895828Y-55154580D02*
X170848209Y-55202200D01*
X170895828Y-55249819D01*
X170943447Y-55202200D01*
X170895828Y-55154580D01*
X170895828Y-55249819D01*
X171276780Y-55487914D02*
X171514876Y-56154580D01*
X171752971Y-55487914D01*
X172514876Y-56106961D02*
X172419638Y-56154580D01*
X172229161Y-56154580D01*
X172133923Y-56106961D01*
X172086304Y-56011723D01*
X172086304Y-55630771D01*
X172133923Y-55535533D01*
X172229161Y-55487914D01*
X172419638Y-55487914D01*
X172514876Y-55535533D01*
X172562495Y-55630771D01*
X172562495Y-55726009D01*
X172086304Y-55821247D01*
X143785714Y-194123571D02*
X143452380Y-194123571D01*
X143452380Y-194647380D02*
X143452380Y-193647380D01*
X143928571Y-193647380D01*
X144309523Y-194647380D02*
X144309523Y-193647380D01*
X144738095Y-194599761D02*
X144880952Y-194647380D01*
X145119047Y-194647380D01*
X145214285Y-194599761D01*
X145261904Y-194552142D01*
X145309523Y-194456904D01*
X145309523Y-194361666D01*
X145261904Y-194266428D01*
X145214285Y-194218809D01*
X145119047Y-194171190D01*
X144928571Y-194123571D01*
X144833333Y-194075952D01*
X144785714Y-194028333D01*
X144738095Y-193933095D01*
X144738095Y-193837857D01*
X144785714Y-193742619D01*
X144833333Y-193695000D01*
X144928571Y-193647380D01*
X145166666Y-193647380D01*
X145309523Y-193695000D01*
X145738095Y-194647380D02*
X145738095Y-193647380D01*
X145738095Y-194123571D02*
X146309523Y-194123571D01*
X146309523Y-194647380D02*
X146309523Y-193647380D01*
X146785714Y-194647380D02*
X146785714Y-193647380D01*
X147166666Y-193647380D01*
X147261904Y-193695000D01*
X147309523Y-193742619D01*
X147357142Y-193837857D01*
X147357142Y-193980714D01*
X147309523Y-194075952D01*
X147261904Y-194123571D01*
X147166666Y-194171190D01*
X146785714Y-194171190D01*
X147976190Y-193647380D02*
X148166666Y-193647380D01*
X148261904Y-193695000D01*
X148357142Y-193790238D01*
X148404761Y-193980714D01*
X148404761Y-194314047D01*
X148357142Y-194504523D01*
X148261904Y-194599761D01*
X148166666Y-194647380D01*
X147976190Y-194647380D01*
X147880952Y-194599761D01*
X147785714Y-194504523D01*
X147738095Y-194314047D01*
X147738095Y-193980714D01*
X147785714Y-193790238D01*
X147880952Y-193695000D01*
X147976190Y-193647380D01*
X148833333Y-194647380D02*
X148833333Y-193647380D01*
X149404761Y-194647380D01*
X149404761Y-193647380D01*
X149880952Y-194647380D02*
X149880952Y-193647380D01*
X150119047Y-193647380D01*
X150261904Y-193695000D01*
X150357142Y-193790238D01*
X150404761Y-193885476D01*
X150452380Y-194075952D01*
X150452380Y-194218809D01*
X150404761Y-194409285D01*
X150357142Y-194504523D01*
X150261904Y-194599761D01*
X150119047Y-194647380D01*
X149880952Y-194647380D01*
X151642857Y-194647380D02*
X151642857Y-193647380D01*
X151880952Y-193647380D01*
X152023809Y-193695000D01*
X152119047Y-193790238D01*
X152166666Y-193885476D01*
X152214285Y-194075952D01*
X152214285Y-194218809D01*
X152166666Y-194409285D01*
X152119047Y-194504523D01*
X152023809Y-194599761D01*
X151880952Y-194647380D01*
X151642857Y-194647380D01*
X152642857Y-194123571D02*
X152976190Y-194123571D01*
X153119047Y-194647380D02*
X152642857Y-194647380D01*
X152642857Y-193647380D01*
X153119047Y-193647380D01*
X153500000Y-194599761D02*
X153642857Y-194647380D01*
X153880952Y-194647380D01*
X153976190Y-194599761D01*
X154023809Y-194552142D01*
X154071428Y-194456904D01*
X154071428Y-194361666D01*
X154023809Y-194266428D01*
X153976190Y-194218809D01*
X153880952Y-194171190D01*
X153690476Y-194123571D01*
X153595238Y-194075952D01*
X153547619Y-194028333D01*
X153500000Y-193933095D01*
X153500000Y-193837857D01*
X153547619Y-193742619D01*
X153595238Y-193695000D01*
X153690476Y-193647380D01*
X153928571Y-193647380D01*
X154071428Y-193695000D01*
X154500000Y-194647380D02*
X154500000Y-193647380D01*
X155500000Y-193695000D02*
X155404761Y-193647380D01*
X155261904Y-193647380D01*
X155119047Y-193695000D01*
X155023809Y-193790238D01*
X154976190Y-193885476D01*
X154928571Y-194075952D01*
X154928571Y-194218809D01*
X154976190Y-194409285D01*
X155023809Y-194504523D01*
X155119047Y-194599761D01*
X155261904Y-194647380D01*
X155357142Y-194647380D01*
X155500000Y-194599761D01*
X155547619Y-194552142D01*
X155547619Y-194218809D01*
X155357142Y-194218809D01*
X155976190Y-194647380D02*
X155976190Y-193647380D01*
X156547619Y-194647380D01*
X156547619Y-193647380D01*
X144523809Y-196257380D02*
X144523809Y-195257380D01*
X144761904Y-195257380D01*
X144904761Y-195305000D01*
X145000000Y-195400238D01*
X145047619Y-195495476D01*
X145095238Y-195685952D01*
X145095238Y-195828809D01*
X145047619Y-196019285D01*
X145000000Y-196114523D01*
X144904761Y-196209761D01*
X144761904Y-196257380D01*
X144523809Y-196257380D01*
X145523809Y-196257380D02*
X145523809Y-195257380D01*
X145952380Y-196209761D02*
X146095238Y-196257380D01*
X146333333Y-196257380D01*
X146428571Y-196209761D01*
X146476190Y-196162142D01*
X146523809Y-196066904D01*
X146523809Y-195971666D01*
X146476190Y-195876428D01*
X146428571Y-195828809D01*
X146333333Y-195781190D01*
X146142857Y-195733571D01*
X146047619Y-195685952D01*
X146000000Y-195638333D01*
X145952380Y-195543095D01*
X145952380Y-195447857D01*
X146000000Y-195352619D01*
X146047619Y-195305000D01*
X146142857Y-195257380D01*
X146380952Y-195257380D01*
X146523809Y-195305000D01*
X146952380Y-196257380D02*
X146952380Y-195257380D01*
X146952380Y-195733571D02*
X147523809Y-195733571D01*
X147523809Y-196257380D02*
X147523809Y-195257380D01*
X147952380Y-195971666D02*
X148428571Y-195971666D01*
X147857142Y-196257380D02*
X148190476Y-195257380D01*
X148523809Y-196257380D01*
X148857142Y-196257380D02*
X148857142Y-195257380D01*
X149428571Y-196257380D01*
X149428571Y-195257380D01*
X150857142Y-195257380D02*
X151047619Y-195257380D01*
X151142857Y-195305000D01*
X151238095Y-195400238D01*
X151285714Y-195590714D01*
X151285714Y-195924047D01*
X151238095Y-196114523D01*
X151142857Y-196209761D01*
X151047619Y-196257380D01*
X150857142Y-196257380D01*
X150761904Y-196209761D01*
X150666666Y-196114523D01*
X150619047Y-195924047D01*
X150619047Y-195590714D01*
X150666666Y-195400238D01*
X150761904Y-195305000D01*
X150857142Y-195257380D01*
X151571428Y-195257380D02*
X152142857Y-195257380D01*
X151857142Y-196257380D02*
X151857142Y-195257380D01*
X152476190Y-196257380D02*
X152476190Y-195257380D01*
X152952380Y-195733571D02*
X153285714Y-195733571D01*
X153428571Y-196257380D02*
X152952380Y-196257380D01*
X152952380Y-195257380D01*
X153428571Y-195257380D01*
X153857142Y-196257380D02*
X153857142Y-195257380D01*
X154428571Y-196257380D01*
X154428571Y-195257380D01*
X155095238Y-195257380D02*
X155285714Y-195257380D01*
X155380952Y-195305000D01*
X155476190Y-195400238D01*
X155523809Y-195590714D01*
X155523809Y-195924047D01*
X155476190Y-196114523D01*
X155380952Y-196209761D01*
X155285714Y-196257380D01*
X155095238Y-196257380D01*
X155000000Y-196209761D01*
X154904761Y-196114523D01*
X154857142Y-195924047D01*
X154857142Y-195590714D01*
X154904761Y-195400238D01*
X155000000Y-195305000D01*
X155095238Y-195257380D01*
%TO.C,J14*%
X197691476Y-38492180D02*
X197691476Y-39206466D01*
X197643857Y-39349323D01*
X197548619Y-39444561D01*
X197405761Y-39492180D01*
X197310523Y-39492180D01*
X198691476Y-39492180D02*
X198120047Y-39492180D01*
X198405761Y-39492180D02*
X198405761Y-38492180D01*
X198310523Y-38635038D01*
X198215285Y-38730276D01*
X198120047Y-38777895D01*
X199548619Y-38825514D02*
X199548619Y-39492180D01*
X199310523Y-38444561D02*
X199072428Y-39158847D01*
X199691476Y-39158847D01*
%TO.C,H4*%
X278638095Y-187452380D02*
X278638095Y-186452380D01*
X278638095Y-186928571D02*
X279209523Y-186928571D01*
X279209523Y-187452380D02*
X279209523Y-186452380D01*
X280114285Y-186785714D02*
X280114285Y-187452380D01*
X279876190Y-186404761D02*
X279638095Y-187119047D01*
X280257142Y-187119047D01*
%TO.C,U3*%
X161798095Y-19772380D02*
X161798095Y-20581904D01*
X161845714Y-20677142D01*
X161893333Y-20724761D01*
X161988571Y-20772380D01*
X162179047Y-20772380D01*
X162274285Y-20724761D01*
X162321904Y-20677142D01*
X162369523Y-20581904D01*
X162369523Y-19772380D01*
X162750476Y-19772380D02*
X163369523Y-19772380D01*
X163036190Y-20153333D01*
X163179047Y-20153333D01*
X163274285Y-20200952D01*
X163321904Y-20248571D01*
X163369523Y-20343809D01*
X163369523Y-20581904D01*
X163321904Y-20677142D01*
X163274285Y-20724761D01*
X163179047Y-20772380D01*
X162893333Y-20772380D01*
X162798095Y-20724761D01*
X162750476Y-20677142D01*
%TO.C,K1*%
X182135504Y-123891180D02*
X182135504Y-122891180D01*
X182706933Y-123891180D02*
X182278361Y-123319752D01*
X182706933Y-122891180D02*
X182135504Y-123462609D01*
X183659314Y-123891180D02*
X183087885Y-123891180D01*
X183373600Y-123891180D02*
X183373600Y-122891180D01*
X183278361Y-123034038D01*
X183183123Y-123129276D01*
X183087885Y-123176895D01*
%TO.C,R3*%
X143989980Y-149010666D02*
X143513790Y-149344000D01*
X143989980Y-149582095D02*
X142989980Y-149582095D01*
X142989980Y-149201142D01*
X143037600Y-149105904D01*
X143085219Y-149058285D01*
X143180457Y-149010666D01*
X143323314Y-149010666D01*
X143418552Y-149058285D01*
X143466171Y-149105904D01*
X143513790Y-149201142D01*
X143513790Y-149582095D01*
X142989980Y-148677333D02*
X142989980Y-148058285D01*
X143370933Y-148391619D01*
X143370933Y-148248761D01*
X143418552Y-148153523D01*
X143466171Y-148105904D01*
X143561409Y-148058285D01*
X143799504Y-148058285D01*
X143894742Y-148105904D01*
X143942361Y-148153523D01*
X143989980Y-148248761D01*
X143989980Y-148534476D01*
X143942361Y-148629714D01*
X143894742Y-148677333D01*
%TO.C,Q2*%
X159547619Y-87725238D02*
X159500000Y-87820476D01*
X159404761Y-87915714D01*
X159261904Y-88058571D01*
X159214285Y-88153809D01*
X159214285Y-88249047D01*
X159452380Y-88201428D02*
X159404761Y-88296666D01*
X159309523Y-88391904D01*
X159119047Y-88439523D01*
X158785714Y-88439523D01*
X158595238Y-88391904D01*
X158500000Y-88296666D01*
X158452380Y-88201428D01*
X158452380Y-88010952D01*
X158500000Y-87915714D01*
X158595238Y-87820476D01*
X158785714Y-87772857D01*
X159119047Y-87772857D01*
X159309523Y-87820476D01*
X159404761Y-87915714D01*
X159452380Y-88010952D01*
X159452380Y-88201428D01*
X158547619Y-87391904D02*
X158500000Y-87344285D01*
X158452380Y-87249047D01*
X158452380Y-87010952D01*
X158500000Y-86915714D01*
X158547619Y-86868095D01*
X158642857Y-86820476D01*
X158738095Y-86820476D01*
X158880952Y-86868095D01*
X159452380Y-87439523D01*
X159452380Y-86820476D01*
%TO.C,J5*%
X109191466Y-70216780D02*
X109191466Y-70931066D01*
X109143847Y-71073923D01*
X109048609Y-71169161D01*
X108905752Y-71216780D01*
X108810514Y-71216780D01*
X110143847Y-70216780D02*
X109667657Y-70216780D01*
X109620038Y-70692971D01*
X109667657Y-70645352D01*
X109762895Y-70597733D01*
X110000990Y-70597733D01*
X110096228Y-70645352D01*
X110143847Y-70692971D01*
X110191466Y-70788209D01*
X110191466Y-71026304D01*
X110143847Y-71121542D01*
X110096228Y-71169161D01*
X110000990Y-71216780D01*
X109762895Y-71216780D01*
X109667657Y-71169161D01*
X109620038Y-71121542D01*
%TO.C,U1*%
X127761904Y-51347619D02*
X127761904Y-50538095D01*
X127714285Y-50442857D01*
X127666666Y-50395238D01*
X127571428Y-50347619D01*
X127380952Y-50347619D01*
X127285714Y-50395238D01*
X127238095Y-50442857D01*
X127190476Y-50538095D01*
X127190476Y-51347619D01*
X126190476Y-50347619D02*
X126761904Y-50347619D01*
X126476190Y-50347619D02*
X126476190Y-51347619D01*
X126571428Y-51204761D01*
X126666666Y-51109523D01*
X126761904Y-51061904D01*
%TO.C,Q1*%
X175198419Y-156356038D02*
X175150800Y-156451276D01*
X175055561Y-156546514D01*
X174912704Y-156689371D01*
X174865085Y-156784609D01*
X174865085Y-156879847D01*
X175103180Y-156832228D02*
X175055561Y-156927466D01*
X174960323Y-157022704D01*
X174769847Y-157070323D01*
X174436514Y-157070323D01*
X174246038Y-157022704D01*
X174150800Y-156927466D01*
X174103180Y-156832228D01*
X174103180Y-156641752D01*
X174150800Y-156546514D01*
X174246038Y-156451276D01*
X174436514Y-156403657D01*
X174769847Y-156403657D01*
X174960323Y-156451276D01*
X175055561Y-156546514D01*
X175103180Y-156641752D01*
X175103180Y-156832228D01*
X175103180Y-155451276D02*
X175103180Y-156022704D01*
X175103180Y-155736990D02*
X174103180Y-155736990D01*
X174246038Y-155832228D01*
X174341276Y-155927466D01*
X174388895Y-156022704D01*
%TO.C,U2*%
X132588095Y-19772380D02*
X132588095Y-20581904D01*
X132635714Y-20677142D01*
X132683333Y-20724761D01*
X132778571Y-20772380D01*
X132969047Y-20772380D01*
X133064285Y-20724761D01*
X133111904Y-20677142D01*
X133159523Y-20581904D01*
X133159523Y-19772380D01*
X133588095Y-19867619D02*
X133635714Y-19820000D01*
X133730952Y-19772380D01*
X133969047Y-19772380D01*
X134064285Y-19820000D01*
X134111904Y-19867619D01*
X134159523Y-19962857D01*
X134159523Y-20058095D01*
X134111904Y-20200952D01*
X133540476Y-20772380D01*
X134159523Y-20772380D01*
%TO.C,D3*%
X212210504Y-125762380D02*
X212210504Y-124762380D01*
X212448600Y-124762380D01*
X212591457Y-124810000D01*
X212686695Y-124905238D01*
X212734314Y-125000476D01*
X212781933Y-125190952D01*
X212781933Y-125333809D01*
X212734314Y-125524285D01*
X212686695Y-125619523D01*
X212591457Y-125714761D01*
X212448600Y-125762380D01*
X212210504Y-125762380D01*
X213115266Y-124762380D02*
X213734314Y-124762380D01*
X213400980Y-125143333D01*
X213543838Y-125143333D01*
X213639076Y-125190952D01*
X213686695Y-125238571D01*
X213734314Y-125333809D01*
X213734314Y-125571904D01*
X213686695Y-125667142D01*
X213639076Y-125714761D01*
X213543838Y-125762380D01*
X213258123Y-125762380D01*
X213162885Y-125714761D01*
X213115266Y-125667142D01*
%TO.C,U4*%
X168148095Y-19772380D02*
X168148095Y-20581904D01*
X168195714Y-20677142D01*
X168243333Y-20724761D01*
X168338571Y-20772380D01*
X168529047Y-20772380D01*
X168624285Y-20724761D01*
X168671904Y-20677142D01*
X168719523Y-20581904D01*
X168719523Y-19772380D01*
X169624285Y-20105714D02*
X169624285Y-20772380D01*
X169386190Y-19724761D02*
X169148095Y-20439047D01*
X169767142Y-20439047D01*
%TO.C,J12*%
X258270476Y-79462380D02*
X258270476Y-80176666D01*
X258222857Y-80319523D01*
X258127619Y-80414761D01*
X257984761Y-80462380D01*
X257889523Y-80462380D01*
X259270476Y-80462380D02*
X258699047Y-80462380D01*
X258984761Y-80462380D02*
X258984761Y-79462380D01*
X258889523Y-79605238D01*
X258794285Y-79700476D01*
X258699047Y-79748095D01*
X259651428Y-79557619D02*
X259699047Y-79510000D01*
X259794285Y-79462380D01*
X260032380Y-79462380D01*
X260127619Y-79510000D01*
X260175238Y-79557619D01*
X260222857Y-79652857D01*
X260222857Y-79748095D01*
X260175238Y-79890952D01*
X259603809Y-80462380D01*
X260222857Y-80462380D01*
%TO.C,R5*%
X226756933Y-126053180D02*
X226423600Y-125576990D01*
X226185504Y-126053180D02*
X226185504Y-125053180D01*
X226566457Y-125053180D01*
X226661695Y-125100800D01*
X226709314Y-125148419D01*
X226756933Y-125243657D01*
X226756933Y-125386514D01*
X226709314Y-125481752D01*
X226661695Y-125529371D01*
X226566457Y-125576990D01*
X226185504Y-125576990D01*
X227661695Y-125053180D02*
X227185504Y-125053180D01*
X227137885Y-125529371D01*
X227185504Y-125481752D01*
X227280742Y-125434133D01*
X227518838Y-125434133D01*
X227614076Y-125481752D01*
X227661695Y-125529371D01*
X227709314Y-125624609D01*
X227709314Y-125862704D01*
X227661695Y-125957942D01*
X227614076Y-126005561D01*
X227518838Y-126053180D01*
X227280742Y-126053180D01*
X227185504Y-126005561D01*
X227137885Y-125957942D01*
%TO.C,J11*%
X212550476Y-20947380D02*
X212550476Y-21661666D01*
X212502857Y-21804523D01*
X212407619Y-21899761D01*
X212264761Y-21947380D01*
X212169523Y-21947380D01*
X213550476Y-21947380D02*
X212979047Y-21947380D01*
X213264761Y-21947380D02*
X213264761Y-20947380D01*
X213169523Y-21090238D01*
X213074285Y-21185476D01*
X212979047Y-21233095D01*
X214502857Y-21947380D02*
X213931428Y-21947380D01*
X214217142Y-21947380D02*
X214217142Y-20947380D01*
X214121904Y-21090238D01*
X214026666Y-21185476D01*
X213931428Y-21233095D01*
%TO.C,R1*%
X127632380Y-71286666D02*
X127156190Y-71620000D01*
X127632380Y-71858095D02*
X126632380Y-71858095D01*
X126632380Y-71477142D01*
X126680000Y-71381904D01*
X126727619Y-71334285D01*
X126822857Y-71286666D01*
X126965714Y-71286666D01*
X127060952Y-71334285D01*
X127108571Y-71381904D01*
X127156190Y-71477142D01*
X127156190Y-71858095D01*
X127632380Y-70334285D02*
X127632380Y-70905714D01*
X127632380Y-70620000D02*
X126632380Y-70620000D01*
X126775238Y-70715238D01*
X126870476Y-70810476D01*
X126918095Y-70905714D01*
%TO.C,J10*%
X223581980Y-164995123D02*
X224296266Y-164995123D01*
X224439123Y-165042742D01*
X224534361Y-165137980D01*
X224581980Y-165280838D01*
X224581980Y-165376076D01*
X224581980Y-163995123D02*
X224581980Y-164566552D01*
X224581980Y-164280838D02*
X223581980Y-164280838D01*
X223724838Y-164376076D01*
X223820076Y-164471314D01*
X223867695Y-164566552D01*
X223581980Y-163376076D02*
X223581980Y-163280838D01*
X223629600Y-163185600D01*
X223677219Y-163137980D01*
X223772457Y-163090361D01*
X223962933Y-163042742D01*
X224201028Y-163042742D01*
X224391504Y-163090361D01*
X224486742Y-163137980D01*
X224534361Y-163185600D01*
X224581980Y-163280838D01*
X224581980Y-163376076D01*
X224534361Y-163471314D01*
X224486742Y-163518933D01*
X224391504Y-163566552D01*
X224201028Y-163614171D01*
X223962933Y-163614171D01*
X223772457Y-163566552D01*
X223677219Y-163518933D01*
X223629600Y-163471314D01*
X223581980Y-163376076D01*
%TO.C,K3*%
X242701904Y-37592380D02*
X242701904Y-36592380D01*
X243273333Y-37592380D02*
X242844761Y-37020952D01*
X243273333Y-36592380D02*
X242701904Y-37163809D01*
X243606666Y-36592380D02*
X244225714Y-36592380D01*
X243892380Y-36973333D01*
X244035238Y-36973333D01*
X244130476Y-37020952D01*
X244178095Y-37068571D01*
X244225714Y-37163809D01*
X244225714Y-37401904D01*
X244178095Y-37497142D01*
X244130476Y-37544761D01*
X244035238Y-37592380D01*
X243749523Y-37592380D01*
X243654285Y-37544761D01*
X243606666Y-37497142D01*
%TO.C,H1*%
X89611295Y-14727180D02*
X89611295Y-13727180D01*
X89611295Y-14203371D02*
X90182723Y-14203371D01*
X90182723Y-14727180D02*
X90182723Y-13727180D01*
X91182723Y-14727180D02*
X90611295Y-14727180D01*
X90897009Y-14727180D02*
X90897009Y-13727180D01*
X90801771Y-13870038D01*
X90706533Y-13965276D01*
X90611295Y-14012895D01*
%TO.C,J7*%
X105711666Y-19137380D02*
X105711666Y-19851666D01*
X105664047Y-19994523D01*
X105568809Y-20089761D01*
X105425952Y-20137380D01*
X105330714Y-20137380D01*
X106092619Y-19137380D02*
X106759285Y-19137380D01*
X106330714Y-20137380D01*
%TO.C,J6*%
X220646666Y-70572380D02*
X220646666Y-71286666D01*
X220599047Y-71429523D01*
X220503809Y-71524761D01*
X220360952Y-71572380D01*
X220265714Y-71572380D01*
X221551428Y-70572380D02*
X221360952Y-70572380D01*
X221265714Y-70620000D01*
X221218095Y-70667619D01*
X221122857Y-70810476D01*
X221075238Y-71000952D01*
X221075238Y-71381904D01*
X221122857Y-71477142D01*
X221170476Y-71524761D01*
X221265714Y-71572380D01*
X221456190Y-71572380D01*
X221551428Y-71524761D01*
X221599047Y-71477142D01*
X221646666Y-71381904D01*
X221646666Y-71143809D01*
X221599047Y-71048571D01*
X221551428Y-71000952D01*
X221456190Y-70953333D01*
X221265714Y-70953333D01*
X221170476Y-71000952D01*
X221122857Y-71048571D01*
X221075238Y-71143809D01*
%TO.C,J3*%
X101063466Y-50353980D02*
X101063466Y-51068266D01*
X101015847Y-51211123D01*
X100920609Y-51306361D01*
X100777752Y-51353980D01*
X100682514Y-51353980D01*
X101444419Y-50353980D02*
X102063466Y-50353980D01*
X101730133Y-50734933D01*
X101872990Y-50734933D01*
X101968228Y-50782552D01*
X102015847Y-50830171D01*
X102063466Y-50925409D01*
X102063466Y-51163504D01*
X102015847Y-51258742D01*
X101968228Y-51306361D01*
X101872990Y-51353980D01*
X101587276Y-51353980D01*
X101492038Y-51306361D01*
X101444419Y-51258742D01*
%TO.C,J13*%
X263350476Y-36187380D02*
X263350476Y-36901666D01*
X263302857Y-37044523D01*
X263207619Y-37139761D01*
X263064761Y-37187380D01*
X262969523Y-37187380D01*
X264350476Y-37187380D02*
X263779047Y-37187380D01*
X264064761Y-37187380D02*
X264064761Y-36187380D01*
X263969523Y-36330238D01*
X263874285Y-36425476D01*
X263779047Y-36473095D01*
X264683809Y-36187380D02*
X265302857Y-36187380D01*
X264969523Y-36568333D01*
X265112380Y-36568333D01*
X265207619Y-36615952D01*
X265255238Y-36663571D01*
X265302857Y-36758809D01*
X265302857Y-36996904D01*
X265255238Y-37092142D01*
X265207619Y-37139761D01*
X265112380Y-37187380D01*
X264826666Y-37187380D01*
X264731428Y-37139761D01*
X264683809Y-37092142D01*
%TO.C,D5*%
X226442380Y-46458095D02*
X225442380Y-46458095D01*
X225442380Y-46220000D01*
X225490000Y-46077142D01*
X225585238Y-45981904D01*
X225680476Y-45934285D01*
X225870952Y-45886666D01*
X226013809Y-45886666D01*
X226204285Y-45934285D01*
X226299523Y-45981904D01*
X226394761Y-46077142D01*
X226442380Y-46220000D01*
X226442380Y-46458095D01*
X225442380Y-44981904D02*
X225442380Y-45458095D01*
X225918571Y-45505714D01*
X225870952Y-45458095D01*
X225823333Y-45362857D01*
X225823333Y-45124761D01*
X225870952Y-45029523D01*
X225918571Y-44981904D01*
X226013809Y-44934285D01*
X226251904Y-44934285D01*
X226347142Y-44981904D01*
X226394761Y-45029523D01*
X226442380Y-45124761D01*
X226442380Y-45362857D01*
X226394761Y-45458095D01*
X226347142Y-45505714D01*
X226072380Y-40901904D02*
X225072380Y-40901904D01*
X226072380Y-40330476D02*
X225500952Y-40759047D01*
X225072380Y-40330476D02*
X225643809Y-40901904D01*
%TO.C,J4*%
X117319466Y-113701580D02*
X117319466Y-114415866D01*
X117271847Y-114558723D01*
X117176609Y-114653961D01*
X117033752Y-114701580D01*
X116938514Y-114701580D01*
X118224228Y-114034914D02*
X118224228Y-114701580D01*
X117986133Y-113653961D02*
X117748038Y-114368247D01*
X118367085Y-114368247D01*
%TO.C,D4*%
X162942380Y-74398095D02*
X161942380Y-74398095D01*
X161942380Y-74160000D01*
X161990000Y-74017142D01*
X162085238Y-73921904D01*
X162180476Y-73874285D01*
X162370952Y-73826666D01*
X162513809Y-73826666D01*
X162704285Y-73874285D01*
X162799523Y-73921904D01*
X162894761Y-74017142D01*
X162942380Y-74160000D01*
X162942380Y-74398095D01*
X162275714Y-72969523D02*
X162942380Y-72969523D01*
X161894761Y-73207619D02*
X162609047Y-73445714D01*
X162609047Y-72826666D01*
X162572380Y-68841904D02*
X161572380Y-68841904D01*
X162572380Y-68270476D02*
X162000952Y-68699047D01*
X161572380Y-68270476D02*
X162143809Y-68841904D01*
%TO.C,K2*%
X184281904Y-88392380D02*
X184281904Y-87392380D01*
X184853333Y-88392380D02*
X184424761Y-87820952D01*
X184853333Y-87392380D02*
X184281904Y-87963809D01*
X185234285Y-87487619D02*
X185281904Y-87440000D01*
X185377142Y-87392380D01*
X185615238Y-87392380D01*
X185710476Y-87440000D01*
X185758095Y-87487619D01*
X185805714Y-87582857D01*
X185805714Y-87678095D01*
X185758095Y-87820952D01*
X185186666Y-88392380D01*
X185805714Y-88392380D01*
%TO.C,J1*%
X103857466Y-55535580D02*
X103857466Y-56249866D01*
X103809847Y-56392723D01*
X103714609Y-56487961D01*
X103571752Y-56535580D01*
X103476514Y-56535580D01*
X104857466Y-56535580D02*
X104286038Y-56535580D01*
X104571752Y-56535580D02*
X104571752Y-55535580D01*
X104476514Y-55678438D01*
X104381276Y-55773676D01*
X104286038Y-55821295D01*
%TO.C,D2*%
X209111704Y-103969180D02*
X209111704Y-102969180D01*
X209349800Y-102969180D01*
X209492657Y-103016800D01*
X209587895Y-103112038D01*
X209635514Y-103207276D01*
X209683133Y-103397752D01*
X209683133Y-103540609D01*
X209635514Y-103731085D01*
X209587895Y-103826323D01*
X209492657Y-103921561D01*
X209349800Y-103969180D01*
X209111704Y-103969180D01*
X210064085Y-103064419D02*
X210111704Y-103016800D01*
X210206942Y-102969180D01*
X210445038Y-102969180D01*
X210540276Y-103016800D01*
X210587895Y-103064419D01*
X210635514Y-103159657D01*
X210635514Y-103254895D01*
X210587895Y-103397752D01*
X210016466Y-103969180D01*
X210635514Y-103969180D01*
%TO.C,Q3*%
X242474761Y-52367619D02*
X242379523Y-52320000D01*
X242284285Y-52224761D01*
X242141428Y-52081904D01*
X242046190Y-52034285D01*
X241950952Y-52034285D01*
X241998571Y-52272380D02*
X241903333Y-52224761D01*
X241808095Y-52129523D01*
X241760476Y-51939047D01*
X241760476Y-51605714D01*
X241808095Y-51415238D01*
X241903333Y-51320000D01*
X241998571Y-51272380D01*
X242189047Y-51272380D01*
X242284285Y-51320000D01*
X242379523Y-51415238D01*
X242427142Y-51605714D01*
X242427142Y-51939047D01*
X242379523Y-52129523D01*
X242284285Y-52224761D01*
X242189047Y-52272380D01*
X241998571Y-52272380D01*
X242760476Y-51272380D02*
X243379523Y-51272380D01*
X243046190Y-51653333D01*
X243189047Y-51653333D01*
X243284285Y-51700952D01*
X243331904Y-51748571D01*
X243379523Y-51843809D01*
X243379523Y-52081904D01*
X243331904Y-52177142D01*
X243284285Y-52224761D01*
X243189047Y-52272380D01*
X242903333Y-52272380D01*
X242808095Y-52224761D01*
X242760476Y-52177142D01*
%TO.C,R4*%
X225639333Y-106291980D02*
X225306000Y-105815790D01*
X225067904Y-106291980D02*
X225067904Y-105291980D01*
X225448857Y-105291980D01*
X225544095Y-105339600D01*
X225591714Y-105387219D01*
X225639333Y-105482457D01*
X225639333Y-105625314D01*
X225591714Y-105720552D01*
X225544095Y-105768171D01*
X225448857Y-105815790D01*
X225067904Y-105815790D01*
X226496476Y-105625314D02*
X226496476Y-106291980D01*
X226258380Y-105244361D02*
X226020285Y-105958647D01*
X226639333Y-105958647D01*
%TO.C,J8*%
X185227980Y-171580133D02*
X185942266Y-171580133D01*
X186085123Y-171627752D01*
X186180361Y-171722990D01*
X186227980Y-171865847D01*
X186227980Y-171961085D01*
X185656552Y-170961085D02*
X185608933Y-171056323D01*
X185561314Y-171103942D01*
X185466076Y-171151561D01*
X185418457Y-171151561D01*
X185323219Y-171103942D01*
X185275600Y-171056323D01*
X185227980Y-170961085D01*
X185227980Y-170770609D01*
X185275600Y-170675371D01*
X185323219Y-170627752D01*
X185418457Y-170580133D01*
X185466076Y-170580133D01*
X185561314Y-170627752D01*
X185608933Y-170675371D01*
X185656552Y-170770609D01*
X185656552Y-170961085D01*
X185704171Y-171056323D01*
X185751790Y-171103942D01*
X185847028Y-171151561D01*
X186037504Y-171151561D01*
X186132742Y-171103942D01*
X186180361Y-171056323D01*
X186227980Y-170961085D01*
X186227980Y-170770609D01*
X186180361Y-170675371D01*
X186132742Y-170627752D01*
X186037504Y-170580133D01*
X185847028Y-170580133D01*
X185751790Y-170627752D01*
X185704171Y-170675371D01*
X185656552Y-170770609D01*
%TO.C,R2*%
X133640533Y-130320380D02*
X133307200Y-129844190D01*
X133069104Y-130320380D02*
X133069104Y-129320380D01*
X133450057Y-129320380D01*
X133545295Y-129368000D01*
X133592914Y-129415619D01*
X133640533Y-129510857D01*
X133640533Y-129653714D01*
X133592914Y-129748952D01*
X133545295Y-129796571D01*
X133450057Y-129844190D01*
X133069104Y-129844190D01*
X134021485Y-129415619D02*
X134069104Y-129368000D01*
X134164342Y-129320380D01*
X134402438Y-129320380D01*
X134497676Y-129368000D01*
X134545295Y-129415619D01*
X134592914Y-129510857D01*
X134592914Y-129606095D01*
X134545295Y-129748952D01*
X133973866Y-130320380D01*
X134592914Y-130320380D01*
%TO.C,D1*%
X163755180Y-145772095D02*
X162755180Y-145772095D01*
X162755180Y-145534000D01*
X162802800Y-145391142D01*
X162898038Y-145295904D01*
X162993276Y-145248285D01*
X163183752Y-145200666D01*
X163326609Y-145200666D01*
X163517085Y-145248285D01*
X163612323Y-145295904D01*
X163707561Y-145391142D01*
X163755180Y-145534000D01*
X163755180Y-145772095D01*
X163755180Y-144248285D02*
X163755180Y-144819714D01*
X163755180Y-144534000D02*
X162755180Y-144534000D01*
X162898038Y-144629238D01*
X162993276Y-144724476D01*
X163040895Y-144819714D01*
X163385180Y-140215904D02*
X162385180Y-140215904D01*
X163385180Y-139644476D02*
X162813752Y-140073047D01*
X162385180Y-139644476D02*
X162956609Y-140215904D01*
%TO.C,J2*%
X138212580Y-178488933D02*
X138926866Y-178488933D01*
X139069723Y-178536552D01*
X139164961Y-178631790D01*
X139212580Y-178774647D01*
X139212580Y-178869885D01*
X138307819Y-178060361D02*
X138260200Y-178012742D01*
X138212580Y-177917504D01*
X138212580Y-177679409D01*
X138260200Y-177584171D01*
X138307819Y-177536552D01*
X138403057Y-177488933D01*
X138498295Y-177488933D01*
X138641152Y-177536552D01*
X139212580Y-178107980D01*
X139212580Y-177488933D01*
%TO.C,J9*%
X179157380Y-27003333D02*
X179871666Y-27003333D01*
X180014523Y-27050952D01*
X180109761Y-27146190D01*
X180157380Y-27289047D01*
X180157380Y-27384285D01*
X180157380Y-26479523D02*
X180157380Y-26289047D01*
X180109761Y-26193809D01*
X180062142Y-26146190D01*
X179919285Y-26050952D01*
X179728809Y-26003333D01*
X179347857Y-26003333D01*
X179252619Y-26050952D01*
X179205000Y-26098571D01*
X179157380Y-26193809D01*
X179157380Y-26384285D01*
X179205000Y-26479523D01*
X179252619Y-26527142D01*
X179347857Y-26574761D01*
X179585952Y-26574761D01*
X179681190Y-26527142D01*
X179728809Y-26479523D01*
X179776428Y-26384285D01*
X179776428Y-26193809D01*
X179728809Y-26098571D01*
X179681190Y-26050952D01*
X179585952Y-26003333D01*
%TO.C,H3*%
X98450495Y-189636780D02*
X98450495Y-188636780D01*
X98450495Y-189112971D02*
X99021923Y-189112971D01*
X99021923Y-189636780D02*
X99021923Y-188636780D01*
X99402876Y-188636780D02*
X100021923Y-188636780D01*
X99688590Y-189017733D01*
X99831447Y-189017733D01*
X99926685Y-189065352D01*
X99974304Y-189112971D01*
X100021923Y-189208209D01*
X100021923Y-189446304D01*
X99974304Y-189541542D01*
X99926685Y-189589161D01*
X99831447Y-189636780D01*
X99545733Y-189636780D01*
X99450495Y-189589161D01*
X99402876Y-189541542D01*
%TO.C,H2*%
X273558095Y-17272380D02*
X273558095Y-16272380D01*
X273558095Y-16748571D02*
X274129523Y-16748571D01*
X274129523Y-17272380D02*
X274129523Y-16272380D01*
X274558095Y-16367619D02*
X274605714Y-16320000D01*
X274700952Y-16272380D01*
X274939047Y-16272380D01*
X275034285Y-16320000D01*
X275081904Y-16367619D01*
X275129523Y-16462857D01*
X275129523Y-16558095D01*
X275081904Y-16700952D01*
X274510476Y-17272380D01*
X275129523Y-17272380D01*
D11*
%TO.C,J14*%
X195961000Y-41579800D02*
X201041000Y-41579800D01*
X201041000Y-41579800D02*
X201041000Y-49199800D01*
X201041000Y-49199800D02*
X195961000Y-49199800D01*
X195961000Y-49199800D02*
X195961000Y-41579800D01*
%TO.C,U3*%
X160020000Y-27940000D02*
X165100000Y-27940000D01*
X165100000Y-27940000D02*
X165100000Y-43180000D01*
X165100000Y-43180000D02*
X160020000Y-43180000D01*
X160020000Y-43180000D02*
X160020000Y-27940000D01*
%TO.C,K1*%
X192373600Y-131438800D02*
X192373600Y-124838800D01*
X184923600Y-138588800D02*
X184923600Y-134388800D01*
X172573600Y-124838800D02*
X192373600Y-124838800D01*
X184923600Y-138588800D02*
X187423600Y-138588800D01*
X176823600Y-128438800D02*
X176823600Y-130888800D01*
X187423600Y-126588800D02*
X184923600Y-126588800D01*
X184923600Y-130788800D02*
X184923600Y-126588800D01*
X188323600Y-132588800D02*
X189123600Y-132588800D01*
X192373600Y-140438800D02*
X192373600Y-133838800D01*
X192373600Y-140438800D02*
X172573600Y-140438800D01*
X182923600Y-134388800D02*
X182923600Y-130788800D01*
X186923600Y-134388800D02*
X182923600Y-134388800D01*
X172573600Y-140438800D02*
X172573600Y-124838800D01*
X182923600Y-130788800D02*
X186923600Y-130788800D01*
X181523600Y-132588800D02*
X180023600Y-132588800D01*
X182923600Y-130788800D02*
X186923600Y-134388800D01*
X186923600Y-130788800D02*
X186923600Y-134388800D01*
X181523600Y-128988800D02*
X188323600Y-128988800D01*
X176823600Y-136838800D02*
X176823600Y-134338800D01*
X181523600Y-132588800D02*
X181523600Y-128988800D01*
X188323600Y-132588800D02*
X188323600Y-128988800D01*
X180023600Y-132588800D02*
X175423600Y-135088800D01*
%TO.C,R3*%
X142537600Y-153464000D02*
X142537600Y-144224000D01*
X140817600Y-154154000D02*
X140817600Y-153464000D01*
X139097600Y-144224000D02*
X139097600Y-153464000D01*
X140817600Y-143534000D02*
X140817600Y-144224000D01*
X142537600Y-144224000D02*
X139097600Y-144224000D01*
X139097600Y-153464000D02*
X142537600Y-153464000D01*
%TO.C,Q2*%
X164410000Y-89430000D02*
X164410000Y-85830000D01*
X159959999Y-87630000D02*
G75*
G03*
X164398478Y-89468478I2600001J0D01*
G01*
X164398478Y-85791522D02*
G75*
G03*
X159960000Y-87630000I-1838478J-1838478D01*
G01*
%TO.C,J5*%
X108254800Y-71780400D02*
X113334800Y-71780400D01*
X113334800Y-71780400D02*
X113334800Y-81940400D01*
X113334800Y-81940400D02*
X108254800Y-81940400D01*
X108254800Y-81940400D02*
X108254800Y-71780400D01*
%TO.C,U1*%
X129540000Y-48260000D02*
X124460000Y-48260000D01*
X124460000Y-48260000D02*
X124460000Y-22860000D01*
X124460000Y-22860000D02*
X129540000Y-22860000D01*
X129540000Y-22860000D02*
X129540000Y-48260000D01*
%TO.C,Q1*%
X180060800Y-158060800D02*
X180060800Y-154460800D01*
X175610799Y-156260800D02*
G75*
G03*
X180049278Y-158099278I2600001J0D01*
G01*
X180049278Y-154422322D02*
G75*
G03*
X175610800Y-156260800I-1838478J-1838478D01*
G01*
%TO.C,U2*%
X130810000Y-27940000D02*
X135890000Y-27940000D01*
X135890000Y-27940000D02*
X135890000Y-43180000D01*
X135890000Y-43180000D02*
X130810000Y-43180000D01*
X130810000Y-43180000D02*
X130810000Y-27940000D01*
%TO.C,D3*%
X211388600Y-127034000D02*
X211388600Y-127190000D01*
X211388600Y-129350000D02*
X211388600Y-129506000D01*
X211907639Y-129350000D02*
G75*
G03*
X213989730Y-129349837I1040961J1080000D01*
G01*
X214620935Y-127191392D02*
G75*
G03*
X211388600Y-127034484I-1672335J-1078609D01*
G01*
X213989730Y-127190163D02*
G75*
G03*
X211907639Y-127190000I-1041130J-1079837D01*
G01*
X211388600Y-129505516D02*
G75*
G03*
X214620935Y-129348608I1560000J1235517D01*
G01*
%TO.C,U4*%
X166370000Y-22860000D02*
X171450000Y-22860000D01*
X171450000Y-22860000D02*
X171450000Y-48260000D01*
X171450000Y-48260000D02*
X166370000Y-48260000D01*
X166370000Y-48260000D02*
X166370000Y-22860000D01*
%TO.C,J12*%
X262720000Y-84170000D02*
X263590000Y-84170000D01*
X255880000Y-121430000D02*
X254570000Y-121430000D01*
X253180000Y-94750000D02*
X253180000Y-95750000D01*
X262280000Y-147430000D02*
X255880000Y-147430000D01*
X254570000Y-84170000D02*
X254570000Y-154590000D01*
X255880000Y-91330000D02*
X262280000Y-91330000D01*
X254570000Y-117330000D02*
X255880000Y-117330000D01*
X255880000Y-121430000D02*
X255880000Y-121430000D01*
X254940000Y-84170000D02*
X254570000Y-84170000D01*
X253180000Y-95750000D02*
X254180000Y-95250000D01*
X254180000Y-95250000D02*
X253180000Y-94750000D01*
X262280000Y-91330000D02*
X262280000Y-147430000D01*
X255880000Y-117330000D02*
X255880000Y-91330000D01*
X263590000Y-84170000D02*
X263590000Y-154590000D01*
X255880000Y-147430000D02*
X255880000Y-121430000D01*
X263590000Y-154590000D02*
X262720000Y-154590000D01*
X254570000Y-154590000D02*
X254940000Y-154590000D01*
X260718251Y-84328000D02*
G75*
G03*
X260718251Y-84328000I-1638251J0D01*
G01*
X261822702Y-150571200D02*
G75*
G03*
X261822702Y-150571200I-2590302J0D01*
G01*
%TO.C,R5*%
X231543600Y-130040800D02*
X231543600Y-126600800D01*
X233503600Y-128320800D02*
X231543600Y-128320800D01*
X220343600Y-128320800D02*
X222303600Y-128320800D01*
X222303600Y-126600800D02*
X222303600Y-130040800D01*
X222303600Y-130040800D02*
X231543600Y-130040800D01*
X231543600Y-126600800D02*
X222303600Y-126600800D01*
%TO.C,J11*%
X210820000Y-24035000D02*
X215900000Y-24035000D01*
X215900000Y-24035000D02*
X215900000Y-31655000D01*
X215900000Y-31655000D02*
X210820000Y-31655000D01*
X210820000Y-31655000D02*
X210820000Y-24035000D01*
%TO.C,R1*%
X122740000Y-75740000D02*
X126180000Y-75740000D01*
X124460000Y-65810000D02*
X124460000Y-66500000D01*
X122740000Y-66500000D02*
X122740000Y-75740000D01*
X126180000Y-75740000D02*
X126180000Y-66500000D01*
X124460000Y-76430000D02*
X124460000Y-75740000D01*
X126180000Y-66500000D02*
X122740000Y-66500000D01*
%TO.C,J10*%
X224891600Y-166725600D02*
X235051600Y-166725600D01*
X235051600Y-166725600D02*
X235051600Y-161645600D01*
X235051600Y-161645600D02*
X224891600Y-161645600D01*
X224891600Y-161645600D02*
X224891600Y-166725600D01*
%TO.C,K3*%
X239390000Y-29790000D02*
X239390000Y-26190000D01*
X233940000Y-29140000D02*
X233940000Y-35740000D01*
X253740000Y-20140000D02*
X253740000Y-35740000D01*
X244790000Y-31590000D02*
X237990000Y-31590000D01*
X244790000Y-27990000D02*
X244790000Y-31590000D01*
X239390000Y-26190000D02*
X243390000Y-26190000D01*
X241390000Y-21990000D02*
X241390000Y-26190000D01*
X233940000Y-20140000D02*
X233940000Y-26740000D01*
X243390000Y-29790000D02*
X239390000Y-29790000D01*
X241390000Y-29790000D02*
X241390000Y-33990000D01*
X246290000Y-27990000D02*
X250890000Y-25490000D01*
X249490000Y-32140000D02*
X249490000Y-29690000D01*
X238890000Y-33990000D02*
X241390000Y-33990000D01*
X249490000Y-23740000D02*
X249490000Y-26240000D01*
X233940000Y-20140000D02*
X253740000Y-20140000D01*
X237990000Y-27990000D02*
X237190000Y-27990000D01*
X243390000Y-26190000D02*
X243390000Y-29790000D01*
X237990000Y-27990000D02*
X237990000Y-31590000D01*
X244790000Y-27990000D02*
X246290000Y-27990000D01*
X253740000Y-35740000D02*
X233940000Y-35740000D01*
X243390000Y-29790000D02*
X239390000Y-26190000D01*
X241390000Y-21990000D02*
X238890000Y-21990000D01*
%TO.C,J7*%
X103505000Y-22225000D02*
X108585000Y-22225000D01*
X108585000Y-22225000D02*
X108585000Y-29845000D01*
X108585000Y-29845000D02*
X103505000Y-29845000D01*
X103505000Y-29845000D02*
X103505000Y-22225000D01*
%TO.C,J6*%
X215900000Y-76200000D02*
X226060000Y-76200000D01*
X226060000Y-76200000D02*
X226060000Y-99060000D01*
X226060000Y-99060000D02*
X215900000Y-99060000D01*
X215900000Y-99060000D02*
X215900000Y-76200000D01*
X220980000Y-76200000D02*
G75*
G03*
X220980000Y-76200000I0J0D01*
G01*
X221980000Y-76200000D02*
G75*
G03*
X221980000Y-76200000I-1000000J0D01*
G01*
%TO.C,J3*%
X98704400Y-48157000D02*
X98704400Y-47347000D01*
X98794000Y-43054902D02*
X98794000Y-42946698D01*
X99453300Y-48514000D02*
X98768300Y-48514000D01*
X98794000Y-42054902D02*
X98794000Y-41690800D01*
X100414000Y-44000800D02*
X100414000Y-41690800D01*
X100414000Y-41690800D02*
X98794000Y-41690800D01*
X100414000Y-44000800D02*
X99999000Y-44000800D01*
X100838000Y-49072800D02*
X98247200Y-49072800D01*
X98247200Y-49072800D02*
X98247200Y-41402000D01*
X98247200Y-41402000D02*
X100838000Y-41402000D01*
X100838000Y-41402000D02*
X100838000Y-49072800D01*
%TO.C,J13*%
X261620000Y-39275000D02*
X266700000Y-39275000D01*
X266700000Y-39275000D02*
X266700000Y-46895000D01*
X266700000Y-46895000D02*
X261620000Y-46895000D01*
X261620000Y-46895000D02*
X261620000Y-39275000D01*
%TO.C,D5*%
X223520000Y-41980000D02*
X223520000Y-43000000D01*
X224990000Y-43780000D02*
X222050000Y-43780000D01*
X224990000Y-44020000D02*
X222050000Y-44020000D01*
X222050000Y-43000000D02*
X222050000Y-48440000D01*
X222050000Y-48440000D02*
X224990000Y-48440000D01*
X223520000Y-49460000D02*
X223520000Y-48440000D01*
X224990000Y-43900000D02*
X222050000Y-43900000D01*
X224990000Y-43000000D02*
X222050000Y-43000000D01*
X224990000Y-48440000D02*
X224990000Y-43000000D01*
%TO.C,J4*%
X115112800Y-115011200D02*
X120192800Y-115011200D01*
X120192800Y-115011200D02*
X120192800Y-137871200D01*
X120192800Y-137871200D02*
X115112800Y-137871200D01*
X115112800Y-137871200D02*
X115112800Y-115011200D01*
%TO.C,D4*%
X160020000Y-69920000D02*
X160020000Y-70940000D01*
X161490000Y-71840000D02*
X158550000Y-71840000D01*
X161490000Y-76380000D02*
X161490000Y-70940000D01*
X161490000Y-71960000D02*
X158550000Y-71960000D01*
X161490000Y-70940000D02*
X158550000Y-70940000D01*
X161490000Y-71720000D02*
X158550000Y-71720000D01*
X158550000Y-76380000D02*
X161490000Y-76380000D01*
X158550000Y-70940000D02*
X158550000Y-76380000D01*
X160020000Y-77400000D02*
X160020000Y-76380000D01*
%TO.C,K2*%
X180470000Y-84790000D02*
X182970000Y-84790000D01*
X182970000Y-80590000D02*
X182970000Y-84790000D01*
X191070000Y-82940000D02*
X191070000Y-80490000D01*
X195320000Y-86540000D02*
X175520000Y-86540000D01*
X175520000Y-70940000D02*
X175520000Y-77540000D01*
X186370000Y-78790000D02*
X186370000Y-82390000D01*
X187870000Y-78790000D02*
X192470000Y-76290000D01*
X180970000Y-80590000D02*
X180970000Y-76990000D01*
X186370000Y-82390000D02*
X179570000Y-82390000D01*
X182970000Y-72790000D02*
X182970000Y-76990000D01*
X175520000Y-70940000D02*
X195320000Y-70940000D01*
X184970000Y-76990000D02*
X184970000Y-80590000D01*
X195320000Y-70940000D02*
X195320000Y-86540000D01*
X184970000Y-80590000D02*
X180970000Y-76990000D01*
X186370000Y-78790000D02*
X187870000Y-78790000D01*
X182970000Y-72790000D02*
X180470000Y-72790000D01*
X184970000Y-80590000D02*
X180970000Y-80590000D01*
X175520000Y-79940000D02*
X175520000Y-86540000D01*
X180970000Y-76990000D02*
X184970000Y-76990000D01*
X191070000Y-74540000D02*
X191070000Y-77040000D01*
X179570000Y-78790000D02*
X178770000Y-78790000D01*
X179570000Y-78790000D02*
X179570000Y-82390000D01*
%TO.C,J1*%
X102836800Y-62195200D02*
X104456800Y-62195200D01*
X102836800Y-59885200D02*
X102836800Y-62195200D01*
X104456800Y-61831098D02*
X104456800Y-62195200D01*
X103936800Y-57607200D02*
X104621800Y-57607200D01*
X104456800Y-60831098D02*
X104456800Y-60939302D01*
X104621800Y-57964200D02*
X104621800Y-58774200D01*
X102412800Y-57353200D02*
X104952800Y-57353200D01*
X104952800Y-57353200D02*
X104952800Y-62687200D01*
X104952800Y-62687200D02*
X102412800Y-62687200D01*
X102412800Y-62687200D02*
X102412800Y-57353200D01*
%TO.C,D2*%
X208289800Y-107556800D02*
X208289800Y-107712800D01*
X208289800Y-105240800D02*
X208289800Y-105396800D01*
X208808839Y-107556800D02*
G75*
G03*
X210890930Y-107556637I1040961J1080000D01*
G01*
X210890930Y-105396963D02*
G75*
G03*
X208808839Y-105396800I-1041130J-1079837D01*
G01*
X211522135Y-105398192D02*
G75*
G03*
X208289800Y-105241284I-1672335J-1078609D01*
G01*
X208289800Y-107712316D02*
G75*
G03*
X211522135Y-107555408I1560000J1235517D01*
G01*
%TO.C,Q3*%
X244370000Y-46410000D02*
X240770000Y-46410000D01*
X242570000Y-50860001D02*
G75*
G03*
X244408478Y-46421522I0J2600001D01*
G01*
X240731522Y-46421522D02*
G75*
G03*
X242570000Y-50860000I1838478J-1838478D01*
G01*
%TO.C,R4*%
X232386000Y-108559600D02*
X230426000Y-108559600D01*
X221186000Y-110279600D02*
X230426000Y-110279600D01*
X230426000Y-110279600D02*
X230426000Y-106839600D01*
X221186000Y-106839600D02*
X221186000Y-110279600D01*
X219226000Y-108559600D02*
X221186000Y-108559600D01*
X230426000Y-106839600D02*
X221186000Y-106839600D01*
%TO.C,J8*%
X188315600Y-173786800D02*
X195935600Y-173786800D01*
X195935600Y-173786800D02*
X195935600Y-168706800D01*
X195935600Y-168706800D02*
X188315600Y-168706800D01*
X188315600Y-168706800D02*
X188315600Y-173786800D01*
%TO.C,R2*%
X128497200Y-132588000D02*
X129187200Y-132588000D01*
X129187200Y-130868000D02*
X129187200Y-134308000D01*
X129187200Y-134308000D02*
X138427200Y-134308000D01*
X138427200Y-134308000D02*
X138427200Y-130868000D01*
X139117200Y-132588000D02*
X138427200Y-132588000D01*
X138427200Y-130868000D02*
X129187200Y-130868000D01*
%TO.C,D1*%
X162302800Y-147754000D02*
X162302800Y-142314000D01*
X159362800Y-142314000D02*
X159362800Y-147754000D01*
X162302800Y-143214000D02*
X159362800Y-143214000D01*
X160832800Y-141294000D02*
X160832800Y-142314000D01*
X162302800Y-143334000D02*
X159362800Y-143334000D01*
X159362800Y-147754000D02*
X162302800Y-147754000D01*
X162302800Y-142314000D02*
X159362800Y-142314000D01*
X160832800Y-148774000D02*
X160832800Y-147754000D01*
X162302800Y-143094000D02*
X159362800Y-143094000D01*
%TO.C,J2*%
X145364200Y-174184600D02*
X145364200Y-174599600D01*
X141562200Y-174345600D02*
X138252200Y-174345600D01*
X138434251Y-176377600D02*
X138070149Y-176377600D01*
X146634200Y-175781100D02*
X146634200Y-176466100D01*
X140616302Y-176377600D02*
X140508098Y-176377600D01*
X146277200Y-176377600D02*
X145467200Y-176377600D01*
X137998200Y-174551600D02*
X137998200Y-176171600D01*
X139616302Y-176377600D02*
X139508098Y-176377600D01*
X146888200Y-173837600D02*
X137490200Y-173837600D01*
X137490200Y-173837600D02*
X137490200Y-176885600D01*
X137490200Y-176885600D02*
X146888200Y-176885600D01*
X146888200Y-176885600D02*
X146888200Y-173837600D01*
%TO.C,J9*%
X182245000Y-29210000D02*
X189865000Y-29210000D01*
X189865000Y-29210000D02*
X189865000Y-24130000D01*
X189865000Y-24130000D02*
X182245000Y-24130000D01*
X182245000Y-24130000D02*
X182245000Y-29210000D01*
%TD*%
M02*
