%TF.GenerationSoftware,KiCad,Pcbnew,(6.0.2)*%
%TF.CreationDate,2023-04-19T16:32:00+03:00*%
%TF.ProjectId,Pond_circuit,506f6e64-5f63-4697-9263-7569742e6b69,rev?*%
%TF.SameCoordinates,Original*%
%TF.FileFunction,Copper,L2,Bot*%
%TF.FilePolarity,Positive*%
%FSLAX46Y46*%
G04 Gerber Fmt 4.6, Leading zero omitted, Abs format (unit mm)*
G04 Created by KiCad (PCBNEW (6.0.2)) date 2023-04-19 16:32:00*
%MOMM*%
%LPD*%
G01*
G04 APERTURE LIST*
G04 Aperture macros list*
%AMRoundRect*
0 Rectangle with rounded corners*
0 $1 Rounding radius*
0 $2 $3 $4 $5 $6 $7 $8 $9 X,Y pos of 4 corners*
0 Add a 4 corners polygon primitive as box body*
4,1,4,$2,$3,$4,$5,$6,$7,$8,$9,$2,$3,0*
0 Add four circle primitives for the rounded corners*
1,1,$1+$1,$2,$3*
1,1,$1+$1,$4,$5*
1,1,$1+$1,$6,$7*
1,1,$1+$1,$8,$9*
0 Add four rect primitives between the rounded corners*
20,1,$1+$1,$2,$3,$4,$5,0*
20,1,$1+$1,$4,$5,$6,$7,0*
20,1,$1+$1,$6,$7,$8,$9,0*
20,1,$1+$1,$8,$9,$2,$3,0*%
G04 Aperture macros list end*
%TA.AperFunction,ComponentPad*%
%ADD10C,1.524000*%
%TD*%
%TA.AperFunction,ComponentPad*%
%ADD11C,1.900000*%
%TD*%
%TA.AperFunction,ComponentPad*%
%ADD12C,1.700000*%
%TD*%
%TA.AperFunction,ComponentPad*%
%ADD13C,3.000000*%
%TD*%
%TA.AperFunction,ComponentPad*%
%ADD14C,2.500000*%
%TD*%
%TA.AperFunction,ComponentPad*%
%ADD15C,1.600000*%
%TD*%
%TA.AperFunction,ComponentPad*%
%ADD16O,1.600000X1.600000*%
%TD*%
%TA.AperFunction,ComponentPad*%
%ADD17R,1.500000X1.050000*%
%TD*%
%TA.AperFunction,ComponentPad*%
%ADD18O,1.500000X1.050000*%
%TD*%
%TA.AperFunction,ComponentPad*%
%ADD19R,1.800000X1.800000*%
%TD*%
%TA.AperFunction,ComponentPad*%
%ADD20C,1.800000*%
%TD*%
%TA.AperFunction,ComponentPad*%
%ADD21RoundRect,0.250000X-0.600000X-0.600000X0.600000X-0.600000X0.600000X0.600000X-0.600000X0.600000X0*%
%TD*%
%TA.AperFunction,ComponentPad*%
%ADD22C,1.546000*%
%TD*%
%TA.AperFunction,ComponentPad*%
%ADD23C,0.850000*%
%TD*%
%TA.AperFunction,ComponentPad*%
%ADD24O,0.850000X0.850000*%
%TD*%
%TA.AperFunction,ComponentPad*%
%ADD25R,2.200000X2.200000*%
%TD*%
%TA.AperFunction,ComponentPad*%
%ADD26O,2.200000X2.200000*%
%TD*%
%TA.AperFunction,ComponentPad*%
%ADD27R,1.050000X1.500000*%
%TD*%
%TA.AperFunction,ComponentPad*%
%ADD28O,1.050000X1.500000*%
%TD*%
%TA.AperFunction,ViaPad*%
%ADD29C,0.800000*%
%TD*%
%TA.AperFunction,ViaPad*%
%ADD30C,0.700000*%
%TD*%
%TA.AperFunction,Conductor*%
%ADD31C,0.700000*%
%TD*%
%TA.AperFunction,Conductor*%
%ADD32C,0.500000*%
%TD*%
%TA.AperFunction,Conductor*%
%ADD33C,0.300000*%
%TD*%
G04 APERTURE END LIST*
D10*
%TO.P,J14,1,Pin_1*%
%TO.N,Net-(U2-Pad1)*%
X198501000Y-44119800D03*
%TO.P,J14,2,Pin_2*%
%TO.N,Net-(J14-Pad2)*%
X198501000Y-46659800D03*
%TD*%
D11*
%TO.P,U3,1,Vin_Pos*%
%TO.N,Net-(J9-Pad1)*%
X162560000Y-31560000D03*
D12*
%TO.P,U3,2,Vout_neg*%
%TO.N,Net-(J9-Pad2)*%
X162560000Y-39560000D03*
%TD*%
D13*
%TO.P,K1,1*%
%TO.N,Net-(J8-Pad1)*%
X190973600Y-132638800D03*
D14*
%TO.P,K1,2*%
%TO.N,Net-(D1-Pad2)*%
X189023600Y-126588800D03*
D13*
%TO.P,K1,3*%
%TO.N,+5V*%
X176823600Y-126588800D03*
%TO.P,K1,4*%
%TO.N,unconnected-(K1-Pad4)*%
X176773600Y-138638800D03*
D14*
%TO.P,K1,5*%
%TO.N,+5V*%
X189023600Y-138588800D03*
%TD*%
D15*
%TO.P,R3,1*%
%TO.N,GPIO26*%
X140817600Y-142494000D03*
D16*
%TO.P,R3,2*%
%TO.N,GND*%
X140817600Y-155194000D03*
%TD*%
D17*
%TO.P,Q2,1,E*%
%TO.N,GND*%
X162560000Y-88900000D03*
D18*
%TO.P,Q2,2,B*%
%TO.N,GPIO05*%
X162560000Y-87630000D03*
%TO.P,Q2,3,C*%
%TO.N,Net-(D4-Pad2)*%
X162560000Y-86360000D03*
%TD*%
D10*
%TO.P,J5,1,Pin_1*%
%TO.N,+5V*%
X110794800Y-74320400D03*
%TO.P,J5,2,Pin_2*%
%TO.N,GPIO24*%
X110794800Y-76860400D03*
%TO.P,J5,3,Pin_3*%
%TO.N,GND*%
X110794800Y-79400400D03*
%TD*%
D12*
%TO.P,U1,1,pos_in*%
%TO.N,Net-(J7-Pad2)*%
X127000000Y-44560000D03*
%TO.P,U1,2,po_neg*%
%TO.N,Net-(J7-Pad1)*%
X127000000Y-26560000D03*
%TD*%
D17*
%TO.P,Q1,1,E*%
%TO.N,GND*%
X178210800Y-157530800D03*
D18*
%TO.P,Q1,2,B*%
%TO.N,GPIO3(SDL1)*%
X178210800Y-156260800D03*
%TO.P,Q1,3,C*%
%TO.N,Net-(D1-Pad2)*%
X178210800Y-154990800D03*
%TD*%
D11*
%TO.P,U2,1,Vin_Pos*%
%TO.N,Net-(U2-Pad1)*%
X133350000Y-31560000D03*
D12*
%TO.P,U2,2,Vout_neg*%
%TO.N,Net-(J14-Pad2)*%
X133350000Y-39560000D03*
%TD*%
D19*
%TO.P,D3,1,K*%
%TO.N,GND*%
X211678600Y-128270000D03*
D20*
%TO.P,D3,2,A*%
%TO.N,Net-(D3-Pad2)*%
X214218600Y-128270000D03*
%TD*%
D12*
%TO.P,U4,1,pos_in*%
%TO.N,Net-(J9-Pad1)*%
X168910000Y-26560000D03*
%TO.P,U4,2,po_neg*%
%TO.N,Net-(J9-Pad2)*%
X168910000Y-44560000D03*
%TD*%
D21*
%TO.P,J12,1,Pin_1*%
%TO.N,+5V*%
X257810000Y-95250000D03*
D12*
%TO.P,J12,2,Pin_2*%
%TO.N,+3V3*%
X260350000Y-95250000D03*
%TO.P,J12,3,Pin_3*%
%TO.N,+5V*%
X257810000Y-97790000D03*
%TO.P,J12,4,Pin_4*%
%TO.N,unconnected-(J12-Pad4)*%
X260350000Y-97790000D03*
%TO.P,J12,5,Pin_5*%
%TO.N,GND*%
X257810000Y-100330000D03*
%TO.P,J12,6,Pin_6*%
%TO.N,GPIO3(SDL1)*%
X260350000Y-100330000D03*
%TO.P,J12,7,Pin_7*%
%TO.N,unconnected-(J12-Pad7)*%
X257810000Y-102870000D03*
%TO.P,J12,8,Pin_8*%
%TO.N,unconnected-(J12-Pad8)*%
X260350000Y-102870000D03*
%TO.P,J12,9,Pin_9*%
%TO.N,unconnected-(J12-Pad9)*%
X257810000Y-105410000D03*
%TO.P,J12,10,Pin_10*%
%TO.N,GND*%
X260350000Y-105410000D03*
%TO.P,J12,11,Pin_11*%
%TO.N,unconnected-(J12-Pad11)*%
X257810000Y-107950000D03*
%TO.P,J12,12,Pin_12*%
%TO.N,unconnected-(J12-Pad12)*%
X260350000Y-107950000D03*
%TO.P,J12,13,Pin_13*%
%TO.N,GND*%
X257810000Y-110490000D03*
%TO.P,J12,14,Pin_14*%
%TO.N,GPIO27*%
X260350000Y-110490000D03*
%TO.P,J12,15,Pin_15*%
%TO.N,GPIO23*%
X257810000Y-113030000D03*
%TO.P,J12,16,Pin_16*%
%TO.N,GPIO22*%
X260350000Y-113030000D03*
%TO.P,J12,17,Pin_17*%
%TO.N,GPIO24*%
X257810000Y-115570000D03*
%TO.P,J12,18,Pin_18*%
%TO.N,+3V3*%
X260350000Y-115570000D03*
%TO.P,J12,19,Pin_19*%
%TO.N,GND*%
X257810000Y-118110000D03*
%TO.P,J12,20,Pin_20*%
%TO.N,GPIO10(SPI0_MOSI)*%
X260350000Y-118110000D03*
%TO.P,J12,21,Pin_21*%
%TO.N,unconnected-(J12-Pad21)*%
X257810000Y-120650000D03*
%TO.P,J12,22,Pin_22*%
%TO.N,GPIO9(SPI0_MISO)*%
X260350000Y-120650000D03*
%TO.P,J12,23,Pin_23*%
%TO.N,GPIO08(SPI0_CE0_N)*%
X257810000Y-123190000D03*
%TO.P,J12,24,Pin_24*%
%TO.N,GPIO11(SPI0_CLK)*%
X260350000Y-123190000D03*
%TO.P,J12,25,Pin_25*%
%TO.N,unconnected-(J12-Pad25)*%
X257810000Y-125730000D03*
%TO.P,J12,26,Pin_26*%
%TO.N,GND*%
X260350000Y-125730000D03*
%TO.P,J12,27,Pin_27*%
%TO.N,unconnected-(J12-Pad27)*%
X257810000Y-128270000D03*
%TO.P,J12,28,Pin_28*%
%TO.N,unconnected-(J12-Pad28)*%
X260350000Y-128270000D03*
%TO.P,J12,29,Pin_29*%
%TO.N,GND*%
X257810000Y-130810000D03*
%TO.P,J12,30,Pin_30*%
%TO.N,GPIO05*%
X260350000Y-130810000D03*
%TO.P,J12,31,Pin_31*%
%TO.N,GPIO12(PWM0)*%
X257810000Y-133350000D03*
%TO.P,J12,32,Pin_32*%
%TO.N,GPIO06*%
X260350000Y-133350000D03*
%TO.P,J12,33,Pin_33*%
%TO.N,GND*%
X257810000Y-135890000D03*
%TO.P,J12,34,Pin_34*%
%TO.N,unconnected-(J12-Pad34)*%
X260350000Y-135890000D03*
%TO.P,J12,35,Pin_35*%
%TO.N,unconnected-(J12-Pad35)*%
X257810000Y-138430000D03*
%TO.P,J12,36,Pin_36*%
%TO.N,unconnected-(J12-Pad36)*%
X260350000Y-138430000D03*
%TO.P,J12,37,Pin_37*%
%TO.N,unconnected-(J12-Pad37)*%
X257810000Y-140970000D03*
%TO.P,J12,38,Pin_38*%
%TO.N,GPIO26*%
X260350000Y-140970000D03*
%TO.P,J12,39,Pin_39*%
%TO.N,unconnected-(J12-Pad39)*%
X257810000Y-143510000D03*
%TO.P,J12,40,Pin_40*%
%TO.N,GND*%
X260350000Y-143510000D03*
%TD*%
D15*
%TO.P,R5,1*%
%TO.N,Net-(D3-Pad2)*%
X219303600Y-128320800D03*
D16*
%TO.P,R5,2*%
%TO.N,GPIO23*%
X234543600Y-128320800D03*
%TD*%
D10*
%TO.P,J11,1,Pin_1*%
%TO.N,TDS_MOTORPIN*%
X213360000Y-26575000D03*
%TO.P,J11,2,Pin_2*%
%TO.N,GND*%
X213360000Y-29115000D03*
%TD*%
D15*
%TO.P,R1,1*%
%TO.N,+5V*%
X124460000Y-64770000D03*
D16*
%TO.P,R1,2*%
%TO.N,GPIO24*%
X124460000Y-77470000D03*
%TD*%
D10*
%TO.P,J10,1,Pin_1*%
%TO.N,VALUE_PH*%
X227431600Y-164185600D03*
%TO.P,J10,2,Pin_2*%
%TO.N,+5V*%
X229971600Y-164185600D03*
%TO.P,J10,3,Pin_3*%
%TO.N,GND*%
X232511600Y-164185600D03*
%TD*%
D14*
%TO.P,K3,5*%
%TO.N,+5V*%
X237290000Y-21990000D03*
D13*
%TO.P,K3,4*%
%TO.N,unconnected-(K3-Pad4)*%
X249540000Y-21940000D03*
%TO.P,K3,3*%
%TO.N,+5V*%
X249490000Y-33990000D03*
D14*
%TO.P,K3,2*%
%TO.N,Net-(D5-Pad2)*%
X237290000Y-33990000D03*
D13*
%TO.P,K3,1*%
%TO.N,Net-(J13-Pad1)*%
X235340000Y-27940000D03*
%TD*%
D10*
%TO.P,J7,1,Pin_1*%
%TO.N,Net-(J7-Pad1)*%
X106045000Y-24765000D03*
%TO.P,J7,2,Pin_2*%
%TO.N,Net-(J7-Pad2)*%
X106045000Y-27305000D03*
%TD*%
D22*
%TO.P,J6,1,Pin_1a*%
%TO.N,Net-(J4-Pad3)*%
X218440000Y-78740000D03*
D10*
%TO.P,J6,2,Pin_2a*%
%TO.N,VALUE_DO*%
X218440000Y-81280000D03*
%TO.P,J6,3,Pin_3a*%
%TO.N,VALUE_PH*%
X218440000Y-83820000D03*
%TO.P,J6,4,Pin_4a*%
%TO.N,unconnected-(J6-Pad4)*%
X218440000Y-86360000D03*
%TO.P,J6,5,Pin_5a*%
%TO.N,unconnected-(J6-Pad5)*%
X218440000Y-88900000D03*
%TO.P,J6,6,Pin_6a*%
%TO.N,unconnected-(J6-Pad6)*%
X218440000Y-91440000D03*
%TO.P,J6,7,Pin_7a*%
%TO.N,unconnected-(J6-Pad7)*%
X218440000Y-93980000D03*
%TO.P,J6,8,Pin_8a*%
%TO.N,unconnected-(J6-Pad8)*%
X218440000Y-96520000D03*
%TO.P,J6,9,Pin_8b*%
%TO.N,GND*%
X223520000Y-96520000D03*
%TO.P,J6,10,Pin_7b*%
%TO.N,GPIO08(SPI0_CE0_N)*%
X223520000Y-93980000D03*
%TO.P,J6,11,Pin_6b*%
%TO.N,GPIO10(SPI0_MOSI)*%
X223520000Y-91440000D03*
%TO.P,J6,12,Pin_5b*%
%TO.N,GPIO9(SPI0_MISO)*%
X223520000Y-88900000D03*
%TO.P,J6,13,Pin_4b*%
%TO.N,GPIO11(SPI0_CLK)*%
X223520000Y-86360000D03*
%TO.P,J6,14,Pin_3b*%
%TO.N,GND*%
X223520000Y-83820000D03*
%TO.P,J6,15,Pin_2b*%
%TO.N,+5V*%
X223520000Y-81280000D03*
%TO.P,J6,16,Pin_1b*%
X223520000Y-78740000D03*
%TD*%
D23*
%TO.P,J3,1,Pin_1*%
%TO.N,GND*%
X99568000Y-46888400D03*
D24*
%TO.P,J3,2,Pin_2*%
%TO.N,+5V*%
X99517200Y-44907200D03*
%TO.P,J3,3,Pin_3*%
%TO.N,VALUE_DO*%
X99618800Y-43180000D03*
%TD*%
D10*
%TO.P,J13,1,Pin_1*%
%TO.N,Net-(J13-Pad1)*%
X264160000Y-41815000D03*
%TO.P,J13,2,Pin_2*%
%TO.N,GND*%
X264160000Y-44355000D03*
%TD*%
D25*
%TO.P,D5,1,K*%
%TO.N,+5V*%
X223520000Y-40640000D03*
D26*
%TO.P,D5,2,A*%
%TO.N,Net-(D5-Pad2)*%
X223520000Y-50800000D03*
%TD*%
D10*
%TO.P,J4,1,Pin_1*%
%TO.N,unconnected-(J4-Pad1)*%
X117652800Y-117551200D03*
%TO.P,J4,2,Pin_2*%
%TO.N,GND*%
X117652800Y-120091200D03*
%TO.P,J4,3,Pin_3*%
%TO.N,Net-(J4-Pad3)*%
X117652800Y-122631200D03*
%TO.P,J4,4,Pin_4*%
%TO.N,+5V*%
X117652800Y-125171200D03*
%TO.P,J4,5,Pin_5*%
X117652800Y-127711200D03*
%TO.P,J4,6,Pin_6*%
%TO.N,Net-(J4-Pad3)*%
X117652800Y-130251200D03*
%TO.P,J4,7,Pin_7*%
X117652800Y-132791200D03*
%TO.P,J4,8,Pin_8*%
%TO.N,GND*%
X117652800Y-135331200D03*
%TD*%
D25*
%TO.P,D4,1,K*%
%TO.N,+5V*%
X160020000Y-68580000D03*
D26*
%TO.P,D4,2,A*%
%TO.N,Net-(D4-Pad2)*%
X160020000Y-78740000D03*
%TD*%
D13*
%TO.P,K2,1*%
%TO.N,TDS_MOTORPIN*%
X176920000Y-78740000D03*
D14*
%TO.P,K2,2*%
%TO.N,Net-(D4-Pad2)*%
X178870000Y-84790000D03*
D13*
%TO.P,K2,3*%
%TO.N,+5V*%
X191070000Y-84790000D03*
%TO.P,K2,4*%
%TO.N,unconnected-(K2-Pad4)*%
X191120000Y-72740000D03*
D14*
%TO.P,K2,5*%
%TO.N,+5V*%
X178870000Y-72790000D03*
%TD*%
D23*
%TO.P,J1,1,Pin_1*%
%TO.N,GPIO12(PWM0)*%
X103682800Y-58369200D03*
D24*
%TO.P,J1,2,Pin_2*%
%TO.N,+5V*%
X103682800Y-59690000D03*
%TO.P,J1,3,Pin_3*%
%TO.N,GND*%
X103682800Y-61163200D03*
%TD*%
D19*
%TO.P,D2,1,K*%
%TO.N,GND*%
X208579800Y-106476800D03*
D20*
%TO.P,D2,2,A*%
%TO.N,Net-(D2-Pad2)*%
X211119800Y-106476800D03*
%TD*%
D27*
%TO.P,Q3,1,E*%
%TO.N,GND*%
X243840000Y-48260000D03*
D28*
%TO.P,Q3,2,B*%
%TO.N,GPIO22*%
X242570000Y-48260000D03*
%TO.P,Q3,3,C*%
%TO.N,Net-(D5-Pad2)*%
X241300000Y-48260000D03*
%TD*%
D15*
%TO.P,R4,1*%
%TO.N,Net-(D2-Pad2)*%
X218186000Y-108559600D03*
D16*
%TO.P,R4,2*%
%TO.N,GPIO27*%
X233426000Y-108559600D03*
%TD*%
D10*
%TO.P,J8,1,Pin_1*%
%TO.N,Net-(J8-Pad1)*%
X190855600Y-171246800D03*
%TO.P,J8,2,Pin_2*%
%TO.N,GND*%
X193395600Y-171246800D03*
%TD*%
D15*
%TO.P,R2,1*%
%TO.N,Echo_Pin*%
X127457200Y-132588000D03*
D16*
%TO.P,R2,2*%
%TO.N,GPIO26*%
X140157200Y-132588000D03*
%TD*%
D25*
%TO.P,D1,1,K*%
%TO.N,+5V*%
X160832800Y-139954000D03*
D26*
%TO.P,D1,2,A*%
%TO.N,Net-(D1-Pad2)*%
X160832800Y-150114000D03*
%TD*%
D23*
%TO.P,J2,1,Pin_1*%
%TO.N,+5V*%
X144856200Y-175361600D03*
D24*
%TO.P,J2,2,Pin_2*%
%TO.N,GPIO06*%
X143078200Y-175361600D03*
%TO.P,J2,3,Pin_3*%
%TO.N,Echo_Pin*%
X141554200Y-175361600D03*
%TO.P,J2,4,Pin_4*%
%TO.N,GND*%
X139522200Y-175361600D03*
%TD*%
D10*
%TO.P,J9,1,Pin_1*%
%TO.N,Net-(J9-Pad1)*%
X184785000Y-26670000D03*
%TO.P,J9,2,Pin_2*%
%TO.N,Net-(J9-Pad2)*%
X187325000Y-26670000D03*
%TD*%
D29*
%TO.N,+5V*%
X170586400Y-127406400D03*
X123494800Y-95097600D03*
X165404800Y-132638800D03*
X157327600Y-158496000D03*
X155194000Y-166725600D03*
X186232800Y-98399600D03*
X119786400Y-79857600D03*
X126288800Y-97891600D03*
X122529600Y-82600800D03*
X178816000Y-109829600D03*
%TO.N,GND*%
X241300000Y-99822000D03*
D30*
X227330000Y-34290000D03*
D29*
X244094000Y-58674000D03*
X99949000Y-59232800D03*
X101687198Y-60996398D03*
D30*
X255270000Y-116840000D03*
D29*
X242570000Y-60960000D03*
X228854000Y-100330000D03*
X233680000Y-100330000D03*
D30*
X236220000Y-40640000D03*
X255270000Y-114300000D03*
X238760000Y-40640000D03*
D29*
X227330000Y-83058000D03*
X228346000Y-75692000D03*
D30*
X226060000Y-31750000D03*
D29*
X237998000Y-100076000D03*
%TO.N,GPIO12(PWM0)*%
X270052800Y-132080000D03*
X272948400Y-132080000D03*
D30*
%TO.N,GPIO06*%
X269240000Y-139065000D03*
X273050000Y-142875000D03*
D29*
%TO.N,Echo_Pin*%
X127457200Y-159461200D03*
X127457200Y-162864800D03*
D30*
%TO.N,VALUE_DO*%
X199390000Y-66040000D03*
X188595000Y-62230000D03*
D29*
%TO.N,Net-(J4-Pad3)*%
X123748800Y-116535200D03*
D30*
X194310000Y-59690000D03*
D29*
X152120600Y-67868800D03*
D30*
X198755000Y-60960000D03*
D29*
X157734000Y-61163200D03*
X120700800Y-119583200D03*
D30*
%TO.N,GPIO24*%
X205740000Y-113665000D03*
D29*
X256561977Y-115802023D03*
D30*
X245110000Y-118745000D03*
X250825000Y-118110000D03*
X151765000Y-97790000D03*
X148590000Y-94615000D03*
X186055000Y-106045000D03*
X255270000Y-118110000D03*
X137795000Y-86995000D03*
X134620000Y-83820000D03*
%TO.N,GPIO08(SPI0_CE0_N)*%
X255270000Y-121920000D03*
X257810000Y-122049503D03*
D29*
%TO.N,GPIO10(SPI0_MOSI)*%
X269494000Y-80264000D03*
D30*
X232410000Y-90170000D03*
X262890000Y-116840000D03*
X243840000Y-86360000D03*
X262890000Y-81280000D03*
X229870000Y-91440000D03*
X265430000Y-118110000D03*
X247650000Y-83820000D03*
%TO.N,GPIO9(SPI0_MISO)*%
X260350000Y-77470000D03*
X241300000Y-83820000D03*
X265430000Y-78740000D03*
X245110000Y-81280000D03*
X227330000Y-88900000D03*
X229870000Y-87630000D03*
D29*
%TO.N,Net-(J8-Pad1)*%
X193141600Y-149352000D03*
X193090800Y-143154400D03*
D30*
%TO.N,TDS_MOTORPIN*%
X181875332Y-74664668D03*
X180340000Y-76200000D03*
%TO.N,GPIO3(SDL1)*%
X262190500Y-101600000D03*
D29*
X171043600Y-172313600D03*
D30*
X271145000Y-119380000D03*
X267970000Y-104775000D03*
D29*
X170992800Y-176987200D03*
D30*
X264160000Y-101600000D03*
%TO.N,GPIO27*%
X245110000Y-111760000D03*
X250190000Y-111760000D03*
X252730000Y-111760000D03*
X259080000Y-111760000D03*
X255270000Y-111760000D03*
D29*
X240792000Y-111760000D03*
D30*
%TO.N,GPIO23*%
X256540000Y-113665000D03*
X247650000Y-118110000D03*
X251460000Y-114300000D03*
X248920000Y-116840000D03*
D29*
%TO.N,GPIO22*%
X262128000Y-112674400D03*
X264160000Y-112674400D03*
D30*
%TO.N,GPIO05*%
X259715000Y-129540000D03*
X200660000Y-114300000D03*
X202565000Y-114935000D03*
X242570000Y-121285000D03*
X244475000Y-123190000D03*
X196850000Y-112395000D03*
X256540000Y-129540000D03*
X193675000Y-110490000D03*
D29*
%TO.N,GPIO26*%
X125120400Y-169976800D03*
D30*
X269240000Y-144780000D03*
D29*
X131521200Y-158597600D03*
D30*
X275590000Y-151130000D03*
%TD*%
D31*
%TO.N,+5V*%
X170586400Y-127457200D02*
X170586400Y-127406400D01*
X165404800Y-132638800D02*
X170586400Y-127457200D01*
X126288800Y-97891600D02*
X123494800Y-95097600D01*
X178816000Y-105816400D02*
X178816000Y-109829600D01*
X186232800Y-98399600D02*
X178816000Y-105816400D01*
X122529600Y-82600800D02*
X119786400Y-79857600D01*
X157327600Y-164592000D02*
X155194000Y-166725600D01*
X157327600Y-158496000D02*
X157327600Y-164592000D01*
D32*
%TO.N,GND*%
X228854000Y-100330000D02*
X233680000Y-100330000D01*
D31*
X101625400Y-60909200D02*
X101625400Y-60934600D01*
D32*
X237998000Y-100076000D02*
X241046000Y-100076000D01*
X255270000Y-116840000D02*
X255270000Y-114300000D01*
X227330000Y-83058000D02*
X227330000Y-76708000D01*
D31*
X236220000Y-40640000D02*
X238760000Y-40640000D01*
X101625400Y-60934600D02*
X101687198Y-60996398D01*
D32*
X227330000Y-76708000D02*
X228346000Y-75692000D01*
X244094000Y-59436000D02*
X244094000Y-58674000D01*
X242570000Y-60960000D02*
X244094000Y-59436000D01*
D31*
X99949000Y-59232800D02*
X101625400Y-60909200D01*
X226060000Y-33020000D02*
X227330000Y-34290000D01*
D33*
X241046000Y-100076000D02*
X241300000Y-99822000D01*
D31*
X226060000Y-31750000D02*
X226060000Y-33020000D01*
D32*
%TO.N,GPIO12(PWM0)*%
X272948400Y-132080000D02*
X270052800Y-132080000D01*
%TO.N,GPIO06*%
X273050000Y-142875000D02*
X269240000Y-139065000D01*
D31*
%TO.N,Echo_Pin*%
X127457200Y-159461200D02*
X127457200Y-162864800D01*
%TO.N,VALUE_DO*%
X188595000Y-62230000D02*
X195580000Y-62230000D01*
X195580000Y-62230000D02*
X199390000Y-66040000D01*
D32*
%TO.N,Net-(J4-Pad3)*%
X194310000Y-59690000D02*
X197485000Y-59690000D01*
X152120600Y-66776600D02*
X152120600Y-67868800D01*
D31*
X120700800Y-119583200D02*
X123748800Y-116535200D01*
D32*
X197485000Y-59690000D02*
X198755000Y-60960000D01*
X157734000Y-61163200D02*
X152120600Y-66776600D01*
%TO.N,GPIO24*%
X250825000Y-118110000D02*
X248920000Y-120015000D01*
X256032000Y-116471320D02*
X256069511Y-116508831D01*
X246380000Y-120015000D02*
X245110000Y-118745000D01*
X151765000Y-97790000D02*
X148590000Y-94615000D01*
X256561977Y-115802023D02*
X256032000Y-116332000D01*
X205740000Y-113665000D02*
X198120000Y-106045000D01*
X198120000Y-106045000D02*
X186055000Y-106045000D01*
X134620000Y-83820000D02*
X137795000Y-86995000D01*
X248920000Y-120015000D02*
X246380000Y-120015000D01*
X256032000Y-116332000D02*
X256032000Y-116471320D01*
X256069511Y-116508831D02*
X256069511Y-117310489D01*
X256069511Y-117310489D02*
X255270000Y-118110000D01*
%TO.N,GPIO08(SPI0_CE0_N)*%
X255270000Y-121920000D02*
X255299511Y-121949511D01*
X257810000Y-121949511D02*
X257810000Y-122049503D01*
X255299511Y-121949511D02*
X257810000Y-121949511D01*
%TO.N,GPIO10(SPI0_MOSI)*%
X265430000Y-118110000D02*
X264160000Y-116840000D01*
X246380000Y-83820000D02*
X247650000Y-83820000D01*
X268478000Y-81280000D02*
X262890000Y-81280000D01*
X229870000Y-91440000D02*
X231140000Y-90170000D01*
X264160000Y-116840000D02*
X262890000Y-116840000D01*
X243840000Y-86360000D02*
X246380000Y-83820000D01*
X269494000Y-80264000D02*
X268478000Y-81280000D01*
X231140000Y-90170000D02*
X232410000Y-90170000D01*
%TO.N,GPIO9(SPI0_MISO)*%
X243840000Y-81280000D02*
X245110000Y-81280000D01*
X264160000Y-77470000D02*
X265430000Y-78740000D01*
X228600000Y-87630000D02*
X229870000Y-87630000D01*
X227330000Y-88900000D02*
X228600000Y-87630000D01*
X260350000Y-77470000D02*
X264160000Y-77470000D01*
X241300000Y-83820000D02*
X243840000Y-81280000D01*
D31*
%TO.N,Net-(J8-Pad1)*%
X193090800Y-149301200D02*
X193141600Y-149352000D01*
X193090800Y-143154400D02*
X193090800Y-149301200D01*
%TO.N,TDS_MOTORPIN*%
X180340000Y-76200000D02*
X181875332Y-74664668D01*
D32*
%TO.N,GPIO3(SDL1)*%
X264160000Y-101600000D02*
X262190500Y-101600000D01*
D31*
X171043600Y-176936400D02*
X170992800Y-176987200D01*
D32*
X271145000Y-107950000D02*
X267970000Y-104775000D01*
D31*
X171043600Y-172313600D02*
X171043600Y-176936400D01*
D32*
X271145000Y-119380000D02*
X271145000Y-107950000D01*
%TO.N,GPIO27*%
X240792000Y-111760000D02*
X245110000Y-111760000D01*
D33*
X259080000Y-111760000D02*
X255270000Y-111760000D01*
D32*
X252730000Y-111760000D02*
X250190000Y-111760000D01*
%TO.N,GPIO23*%
X254000000Y-113030000D02*
X255905000Y-113030000D01*
X251460000Y-114300000D02*
X252730000Y-113030000D01*
X255905000Y-113030000D02*
X256540000Y-113665000D01*
X252730000Y-113030000D02*
X254000000Y-113030000D01*
X247650000Y-118110000D02*
X248920000Y-116840000D01*
%TO.N,GPIO22*%
X264160000Y-112674400D02*
X262128000Y-112674400D01*
%TO.N,GPIO05*%
X242570000Y-121285000D02*
X244475000Y-123190000D01*
X193675000Y-110490000D02*
X195580000Y-112395000D01*
D33*
X256540000Y-129540000D02*
X259715000Y-129540000D01*
D32*
X200660000Y-114300000D02*
X201295000Y-114935000D01*
X195580000Y-112395000D02*
X196850000Y-112395000D01*
X201295000Y-114935000D02*
X202565000Y-114935000D01*
D31*
%TO.N,GPIO26*%
X131521200Y-163576000D02*
X125120400Y-169976800D01*
X131521200Y-158597600D02*
X131521200Y-163576000D01*
D32*
X275590000Y-151130000D02*
X269240000Y-144780000D01*
%TD*%
M02*
