M48
; DRILL file {KiCad 7.0.10} date Fri Feb 23 13:33:07 2024
; FORMAT={-:-/ absolute / metric / decimal}
; #@! TF.CreationDate,2024-02-23T13:33:07+03:00
; #@! TF.GenerationSoftware,Kicad,Pcbnew,7.0.10
; #@! TF.FileFunction,Plated,1,4,PTH
FMAT,2
METRIC
; #@! TA.AperFunction,Plated,PTH,ViaDrill
T1C0.400
; #@! TA.AperFunction,Plated,PTH,ComponentDrill
T2C0.500
; #@! TA.AperFunction,Plated,PTH,ComponentDrill
T3C0.550
; #@! TA.AperFunction,Plated,PTH,ComponentDrill
T4C1.320
; #@! TA.AperFunction,Plated,PTH,ComponentDrill
T5C1.600
%
G90
G05
T1
X141.148Y-124.587
X150.52Y-122.53
X151.359Y-75.362
X152.324Y-78.003
X152.908Y-49.251
X154.051Y-100.711
X154.446Y-73.75
X155.169Y-63.322
X155.778Y-72.288
X156.007Y-100.228
X156.87Y-96.876
X156.896Y-104.699
X157.328Y-69.571
X158.394Y-96.698
X160.249Y-102.845
X160.909Y-99.746
X161.265Y-88.265
X162.427Y-104.859
X162.433Y-82.88
X162.484Y-105.969
X163.043Y-97.714
X163.17Y-85.547
X163.474Y-114.529
X163.728Y-102.337
X163.982Y-112.243
X164.109Y-57.709
X165.583Y-54.61
X165.71Y-102.337
X165.811Y-96.926
X165.913Y-80.721
X166.98Y-122.53
X167.188Y-114.097
X167.386Y-103.759
X167.488Y-98.882
X167.716Y-67.869
X167.721Y-106.883
X167.945Y-101.321
X168.135Y-104.712
X168.173Y-89.586
X168.603Y-103.828
X168.768Y-109.309
X169.189Y-96.698
X169.85Y-95.072
X169.85Y-133.604
X170.764Y-131.572
X171.769Y-106.364
X171.882Y-98.45
X171.945Y-104.258
X172.009Y-73.558
X172.136Y-103.276
X172.212Y-130.454
X172.237Y-99.67
X172.289Y-114.555
X172.568Y-62.84
X172.745Y-108.966
X172.745Y-119.863
X173.33Y-90.043
X173.38Y-66.827
X173.432Y-129.235
X173.457Y-96.876
X173.685Y-101.956
X173.914Y-42.672
X173.916Y-112.393
X173.965Y-108.026
X174.371Y-119.329
X174.854Y-89.611
X174.976Y-112.746
X175.683Y-113.453
X175.895Y-96.952
X175.946Y-58.039
X175.971Y-109.144
X176.073Y-120.802
X176.391Y-114.16
X176.474Y-129.373
X177.292Y-59.741
X177.47Y-97.104
X177.521Y-62.89
X177.521Y-115.29
X177.546Y-43.434
X177.597Y-103.632
X177.817Y-113.817
X178.206Y-70.002
X178.359Y-89.078
X178.587Y-107.264
X178.689Y-116.662
X178.694Y-112.497
X178.714Y-97.028
X179.451Y-54.686
X179.502Y-102.54
X179.527Y-115.57
X179.73Y-104.877
X179.822Y-92.151
X179.959Y-91.008
X179.984Y-113.106
X180.01Y-88.9
X180.086Y-136.068
X180.111Y-97.612
X180.188Y-99.339
X180.188Y-121.31
X180.222Y-93.075
X180.391Y-109.372
X180.899Y-133.604
X181.534Y-100.94
X181.585Y-89.891
X181.889Y-102.768
X182.27Y-97.155
X182.296Y-105.664
X182.448Y-130.277
X182.459Y-107.512
X182.728Y-120.007
X182.759Y-116.611
X182.88Y-66.827
X183.046Y-92.902
X183.083Y-108.356
X183.248Y-99.809
X183.286Y-68.377
X183.286Y-89.23
X183.642Y-97.13
X183.667Y-101.498
X183.744Y-72.847
X183.749Y-107.462
X183.947Y-115.062
X183.972Y-102.895
X183.998Y-75.54
X184.188Y-84.988
X184.188Y-93.853
X184.201Y-80.645
X184.343Y-123.048
X184.371Y-130.052
X184.404Y-109.118
X184.506Y-136.713
X184.554Y-106.869
X184.556Y-121.437
X185.166Y-119.659
X185.572Y-111.481
X186.131Y-113.614
X186.385Y-75.463
X186.665Y-83.49
X186.705Y-129.555
X187.198Y-53.696
X187.416Y-128.844
X187.467Y-108.153
X188.011Y-109.906
X188.214Y-46.99
X188.214Y-80.378
X188.392Y-129.159
X188.417Y-75.54
X188.759Y-99.869
X188.951Y-102.667
X189.091Y-114.693
X189.916Y-108.306
X189.967Y-56.998
X190.093Y-55.802
X190.307Y-119.558
X190.402Y-54.096
X190.678Y-98.781
X190.703Y-101.905
X190.779Y-116.383
X190.83Y-124.333
X191.414Y-106.477
X191.44Y-54.712
X191.618Y-111.633
X191.694Y-59.309
X191.715Y-56.818
X191.795Y-103.886
X192.024Y-89.51
X192.063Y-49.916
X192.126Y-95.656
X192.278Y-129.108
X192.684Y-99.771
X193.115Y-56.134
X193.61Y-48.859
X194.767Y-60.122
X194.843Y-48.184
X195.338Y-49.111
X195.529Y-81.788
X195.598Y-55.045
X196.063Y-103.327
X196.139Y-66.421
X196.571Y-48.438
X196.774Y-101.067
X197.129Y-49.708
X198.272Y-128.905
X199.085Y-61.722
X200.127Y-93.243
X200.457Y-51.867
X201.219Y-113.081
X202.717Y-40.259
X205.334Y-107.137
X207.95Y-54.788
T4
X156.528Y-129.296
X161.528Y-129.296
X166.528Y-129.296
T5
X145.745Y-80.803
X145.745Y-84.303
X145.745Y-87.803
X145.745Y-91.303
X145.745Y-94.803
X145.745Y-98.303
X145.745Y-101.803
X145.796Y-51.882
X145.796Y-55.382
X145.796Y-58.882
X145.796Y-62.382
X145.796Y-65.882
X145.796Y-69.382
X145.796Y-72.882
X145.821Y-110.922
X145.821Y-114.422
X145.821Y-117.922
X145.821Y-121.422
X145.821Y-124.922
X145.821Y-128.422
X145.821Y-131.922
X206.781Y-64.771
X206.781Y-68.271
X206.781Y-71.771
X206.781Y-75.271
X206.781Y-78.771
X206.781Y-82.271
X206.781Y-85.771
X206.781Y-89.271
X206.781Y-92.771
X206.781Y-96.271
X206.781Y-99.771
T2
G00X196.077Y-43.48
M15
G01X196.077Y-42.83
M16
G05
G00X203.077Y-43.48
M15
G01X203.077Y-42.83
M16
G05
T3
G00X197.227Y-45.855
M15
G01X196.927Y-45.855
M16
G05
G00X202.227Y-45.855
M15
G01X201.927Y-45.855
M16
G05
M30
